<?xml version="1.0" encoding="utf-8"?>
<!-- Generator: Adobe Illustrator 26.5.0, SVG Export Plug-In . SVG Version: 6.00 Build 0)  -->
<svg version="1.1" id="Capa_1" xmlns="http://www.w3.org/2000/svg" xmlns:xlink="http://www.w3.org/1999/xlink" x="0px" y="0px"
	 viewBox="0 0 140 140" style="enable-background:new 0 0 140 140;" xml:space="preserve">
<style type="text/css">
	.st0{fill:none;}
	.st1{fill:#E30613;}
	.st2{fill:#FFFFFF;}
	.st3{enable-background:new    ;}
</style>
<rect y="40.9" class="st0" width="140" height="58.2"/>
<path class="st1" d="M140,70c0-38.7-31.3-70-70-70S0,31.3,0,70s31.3,70,70,70S140,108.7,140,70"/>
<path class="st2" d="M35.2,98H23.9V61.7H9.8v-8.6C17.7,53.3,25,50.6,26.2,42h9V98z"/>
<path class="st2" d="M63.3,40.9c11.2,0,20.6,7,20.6,28.9c0,22.3-9.4,29.4-20.6,29.4c-11,0-20.5-7-20.5-29.4
	C42.9,47.9,52.3,40.9,63.3,40.9z M63.3,89.8c9.3,0,9.3-13.7,9.3-20c0-5.8,0-19.5-9.3-19.5c-9.1,0-9.1,13.7-9.1,19.5
	C54.2,76.1,54.2,89.8,63.3,89.8z"/>
<g class="st3">
	<path class="st2" d="M104.5,64.6c4.7,0.4,11.4-0.6,11.4-7c0-4.7-3.6-7.4-7.6-7.4c-5.5,0-8.4,4.2-8.3,10H89.7
		c0.4-11.4,7.5-19.4,18.6-19.4c8.6,0,18,5.5,18,15.5c0,5.3-2.5,10-7.5,11.4V68c5.9,1.4,9.5,6.5,9.5,12.7c0,11.8-9.4,18.4-20,18.4
		c-12.1,0-20.2-7.5-20-20.4h10.4c0.2,6.1,3.1,11,9.4,11c4.9,0,8.8-3.5,8.8-8.8c0-8.5-7.1-8.3-12.4-8.3
		C104.5,72.6,104.5,64.6,104.5,64.6z"/>
</g>
</svg>
