<?xml version="1.0" encoding="utf-8"?>
<!-- Generator: Adobe Illustrator 26.5.0, SVG Export Plug-In . SVG Version: 6.00 Build 0)  -->
<svg version="1.1" id="Capa_1" xmlns="http://www.w3.org/2000/svg" xmlns:xlink="http://www.w3.org/1999/xlink" x="0px" y="0px"
	 viewBox="0 0 140 140" style="enable-background:new 0 0 140 140;" xml:space="preserve">
<style type="text/css">
	.st0{fill:none;}
	.st1{fill:#E30613;}
	.st2{enable-background:new    ;}
	.st3{fill:#FFFFFF;}
</style>
<rect y="40.9" class="st0" width="140" height="58.2"/>
<g>
	<g>
		<path class="st1" d="M140,70c0-38.7-31.3-70-70-70S0,31.3,0,70s31.3,70,70,70S140,108.7,140,70"/>
	</g>
	<g class="st2">
		<path class="st3" d="M35.1,98H23.8V61.7H9.7v-8.6c7.9,0.2,15.2-2.6,16.4-11.1h9V98z"/>
	</g>
	<g class="st2">
		<path class="st3" d="M62,40.9c10.9,0,20,7,20,28.9c0,22.3-9.2,29.4-20,29.4c-10.7,0-19.9-7-19.9-29.4C42.1,47.9,51.2,40.9,62,40.9
			z M62,89.8c9,0,9-13.7,9-20c0-5.8,0-19.5-9-19.5c-8.8,0-8.8,13.7-8.8,19.5C53.1,76.1,53.1,89.8,62,89.8z"/>
	</g>
	<g class="st2">
		<path class="st3" d="M109.7,85h-23V74.6L110.3,42h9.9v33.7h7.2V85h-7.2v13h-10.5V85z M109.7,56.2h-0.2l-14,19.4h14.3V56.2z"/>
	</g>
</g>
</svg>
