<?xml version="1.0" encoding="utf-8"?>
<!-- Generator: Adobe Illustrator 26.5.0, SVG Export Plug-In . SVG Version: 6.00 Build 0)  -->
<svg version="1.1" id="Capa_1" xmlns="http://www.w3.org/2000/svg" xmlns:xlink="http://www.w3.org/1999/xlink" x="0px" y="0px"
	 viewBox="0 0 140 140" style="enable-background:new 0 0 140 140;" xml:space="preserve">
<style type="text/css">
	.st0{fill:none;}
	.st1{fill:#E30613;}
	.st2{enable-background:new    ;}
	.st3{fill:#FFFFFF;}
</style>
<rect y="40.9" class="st0" width="140" height="58.2"/>
<g>
	<path class="st1" d="M140,70c0-38.7-31.3-70-70-70S0,31.3,0,70s31.3,70,70,70S140,108.7,140,70"/>
</g>
<g class="st2">
	<path class="st3" d="M41,98H29.7V61.7H15.6v-8.6C23.5,53.3,30.8,50.6,32,42h9V98z"/>
</g>
<g class="st2">
	<path class="st3" d="M75.3,98H64V61.7H49.9v-8.6c7.9,0.2,15.2-2.6,16.4-11.1h9V98z"/>
</g>
<path class="st3" d="M106.3,40.9c11.2,0,20.6,7,20.6,28.9c0,22.3-9.4,29.4-20.6,29.4c-11,0-20.5-7-20.5-29.4
	C85.9,47.9,95.3,40.9,106.3,40.9z M106.3,89.8c9.3,0,9.3-13.7,9.3-20c0-5.8,0-19.5-9.3-19.5c-9.1,0-9.1,13.7-9.1,19.5
	C97.2,76.1,97.2,89.8,106.3,89.8z"/>
</svg>
