<?xml version="1.0" encoding="utf-8"?>
<!-- Generator: Adobe Illustrator 26.5.0, SVG Export Plug-In . SVG Version: 6.00 Build 0)  -->
<svg version="1.1" id="Capa_1" xmlns="http://www.w3.org/2000/svg" xmlns:xlink="http://www.w3.org/1999/xlink" x="0px" y="0px"
	 viewBox="0 0 140 140" style="enable-background:new 0 0 140 140;" xml:space="preserve">
<style type="text/css">
	.st0{fill:none;}
	.st1{fill:#E30613;}
	.st2{enable-background:new    ;}
	.st3{fill:#FFFFFF;}
</style>
<rect y="40.9" class="st0" width="140" height="58.2"/>
<g>
	<g>
		<path class="st1" d="M140,70c0-38.7-31.3-70-70-70S0,31.3,0,70s31.3,70,70,70S140,108.7,140,70"/>
	</g>
	<g class="st2">
		<path class="st3" d="M35.5,98H24.2V61.7H10.1v-8.6C18,53.3,25.3,50.6,26.5,42h9V98z"/>
	</g>
	<g class="st2">
		<path class="st3" d="M45.4,63.5C45,50.7,52.1,40.9,65.1,40.9c9.9,0,18.6,6.6,18.6,17.5c0,8.4-4.3,13-9.7,17
			c-5.4,3.9-11.7,7.1-15.7,12.9H84V98H44.1c0.1-13,7.8-18.5,17.2-25c4.8-3.4,11.3-6.8,11.4-13.7c0-5.3-3.4-8.6-8.1-8.6
			c-6.5,0-8.6,7-8.6,12.9H45.4z"/>
	</g>
	<g class="st2">
		<path class="st3" d="M105.2,64.6c4.7,0.4,11.6-0.6,11.6-7c0-4.7-3.6-7.4-7.7-7.4c-5.5,0-8.5,4.2-8.4,10H90.2
			c0.4-11.4,7.6-19.4,18.8-19.4c8.7,0,18.2,5.5,18.2,15.5c0,5.3-2.6,10-7.6,11.4V68c6,1.4,9.6,6.5,9.6,12.7
			c0,11.8-9.5,18.4-20.2,18.4c-12.2,0-20.4-7.5-20.2-20.4h10.5c0.2,6.1,3.2,11,9.5,11c5,0,8.8-3.5,8.8-8.8c0-8.5-7.2-8.3-12.6-8.3
			V64.6z"/>
	</g>
</g>
</svg>
