<?xml version="1.0" encoding="utf-8"?>
<!-- Generator: Adobe Illustrator 26.5.0, SVG Export Plug-In . SVG Version: 6.00 Build 0)  -->
<svg version="1.1" id="Capa_1" xmlns="http://www.w3.org/2000/svg" xmlns:xlink="http://www.w3.org/1999/xlink" x="0px" y="0px"
	 viewBox="0 0 140 140" style="enable-background:new 0 0 140 140;" xml:space="preserve">
<style type="text/css">
	.st0{fill:none;}
	.st1{fill:#E30613;}
	.st2{enable-background:new    ;}
	.st3{fill:#FFFFFF;}
</style>
<rect y="40.9" class="st0" width="140" height="58.2"/>
<g>
	<g>
		<path class="st1" d="M140,70c0-38.7-31.3-70-70-70S0,31.3,0,70s31.3,70,70,70S140,108.7,140,70"/>
	</g>
	<g class="st2">
		<path class="st3" d="M36.3,98H25V61.7H10.9v-8.6c7.9,0.2,15.2-2.6,16.4-11.1h9V98z"/>
	</g>
	<g class="st2">
		<path class="st3" d="M46.2,63.5c-0.4-12.8,6.7-22.6,19.7-22.6c9.9,0,18.6,6.6,18.6,17.5c0,8.4-4.3,13-9.7,17
			c-5.4,3.9-11.7,7.1-15.7,12.9h25.7V98H44.9c0.1-13,7.8-18.5,17.2-25c4.8-3.4,11.3-6.8,11.4-13.7c0-5.3-3.4-8.6-8.1-8.6
			c-6.5,0-8.6,7-8.6,12.9H46.2z"/>
	</g>
	<g class="st2">
		<path class="st3" d="M125.5,51.4h-22.4l-2.2,12.7l0.2,0.2c2.9-3.1,6.4-4.3,10.6-4.3c10.7,0,16.8,8.6,16.8,19
			c0,11.5-9.2,20.4-20.2,20.2c-10.6,0-20-6-20.2-17.8h11c0.5,5,4.1,8.4,8.9,8.4c5.7,0,9.4-5.2,9.4-10.8c0-5.8-3.5-10.5-9.4-10.5
			c-4,0-6.1,1.4-8.3,4.5h-9.9l5.4-31h30.3V51.4z"/>
	</g>
</g>
</svg>
