<?xml version="1.0" encoding="utf-8"?>
<!-- Generator: Adobe Illustrator 26.5.0, SVG Export Plug-In . SVG Version: 6.00 Build 0)  -->
<svg version="1.1" id="Capa_1" xmlns="http://www.w3.org/2000/svg" xmlns:xlink="http://www.w3.org/1999/xlink" x="0px" y="0px"
	 viewBox="0 0 140 140" style="enable-background:new 0 0 140 140;" xml:space="preserve">
<style type="text/css">
	.st0{fill:none;}
	.st1{fill:#E30613;}
	.st2{enable-background:new    ;}
	.st3{fill:#FFFFFF;}
</style>
<rect y="40.9" class="st0" width="140" height="58.2"/>
<g>
	<g>
		<path class="st1" d="M140,70c0-38.7-31.3-70-70-70S0,31.3,0,70s31.3,70,70,70S140,108.7,140,70"/>
	</g>
	<g class="st2">
		<path class="st3" d="M37.4,98H26V61.7H12v-8.6c7.9,0.2,15.2-2.6,16.4-11.1h9V98z"/>
	</g>
	<g class="st2">
		<path class="st3" d="M60.4,64.6c4.7,0.4,11.6-0.6,11.6-7c0-4.7-3.6-7.4-7.7-7.4c-5.5,0-8.5,4.2-8.4,10H45.5
			c0.4-11.4,7.6-19.4,18.8-19.4c8.7,0,18.2,5.5,18.2,15.5c0,5.3-2.6,10-7.6,11.4V68c6,1.4,9.6,6.5,9.6,12.7
			c0,11.8-9.5,18.4-20.2,18.4c-12.2,0-20.4-7.5-20.2-20.4h10.5c0.2,6.1,3.2,11,9.5,11c5,0,8.8-3.5,8.8-8.8c0-8.5-7.2-8.3-12.6-8.3
			V64.6z"/>
	</g>
	<g class="st2">
		<path class="st3" d="M109.4,40.9c10.9,0,20,7,20,28.9c0,22.3-9.2,29.4-20,29.4c-10.7,0-19.9-7-19.9-29.4
			C89.5,47.9,98.6,40.9,109.4,40.9z M109.4,89.8c9,0,9-13.7,9-20c0-5.8,0-19.5-9-19.5c-8.8,0-8.8,13.7-8.8,19.5
			C100.5,76.1,100.5,89.8,109.4,89.8z"/>
	</g>
</g>
</svg>
