<?xml version="1.0" encoding="utf-8"?>
<!-- Generator: Adobe Illustrator 26.5.0, SVG Export Plug-In . SVG Version: 6.00 Build 0)  -->
<svg version="1.1" id="Capa_1" xmlns="http://www.w3.org/2000/svg" xmlns:xlink="http://www.w3.org/1999/xlink" x="0px" y="0px"
	 viewBox="0 0 140 140" style="enable-background:new 0 0 140 140;" xml:space="preserve">
<style type="text/css">
	.st0{fill:none;}
	.st1{fill:#E30613;}
	.st2{enable-background:new    ;}
	.st3{fill:#FFFFFF;}
</style>
<rect y="40.9" class="st0" width="140" height="58.2"/>
<g>
	<path class="st1" d="M140,70c0-38.7-31.3-70-70-70S0,31.3,0,70s31.3,70,70,70S140,108.7,140,70"/>
</g>
<g>
	<g class="st2">
		<path class="st3" d="M36.8,98H25.5V61.7H11.4v-8.6c7.9,0.2,15.2-2.6,16.4-11.1h9V98z"/>
	</g>
	<g class="st2">
		<path class="st3" d="M59.6,64.6C64.3,65,71,64,71,57.6c0-4.7-3.6-7.4-7.6-7.4c-5.5,0-8.4,4.2-8.3,10H44.7
			c0.4-11.4,7.5-19.4,18.6-19.4c8.6,0,18,5.5,18,15.5c0,5.3-2.5,10-7.5,11.4V68c5.9,1.4,9.5,6.5,9.5,12.7c0,11.8-9.4,18.4-20,18.4
			c-12.1,0-20.2-7.5-20-20.4h10.4c0.2,6.1,3.1,11,9.4,11c4.9,0,8.8-3.5,8.8-8.8c0-8.5-7.1-8.3-12.4-8.3L59.6,64.6L59.6,64.6z"/>
	</g>
	<g class="st2">
		<path class="st3" d="M125.5,51.4h-22.6l-2.2,12.7l0.2,0.2c2.9-3.1,6.5-4.3,10.8-4.3c10.8,0,16.9,8.6,16.9,19
			c0,11.5-9.3,20.4-20.3,20.2c-10.7,0-20.1-6-20.3-17.8h11.1c0.6,5,4.1,8.4,9,8.4c5.8,0,9.5-5.2,9.5-10.8c0-5.8-3.5-10.5-9.5-10.5
			c-4,0-6.2,1.4-8.4,4.5H89.5l5.4-31h30.6C125.5,42,125.5,51.4,125.5,51.4z"/>
	</g>
</g>
</svg>
