<?xml version="1.0" encoding="utf-8"?>
<!-- Generator: Adobe Illustrator 26.5.0, SVG Export Plug-In . SVG Version: 6.00 Build 0)  -->
<svg version="1.1" id="Capa_1" xmlns="http://www.w3.org/2000/svg" xmlns:xlink="http://www.w3.org/1999/xlink" x="0px" y="0px"
	 viewBox="0 0 140 140" style="enable-background:new 0 0 140 140;" xml:space="preserve">
<style type="text/css">
	.st0{fill:none;}
	.st1{fill:#E30613;}
	.st2{enable-background:new    ;}
	.st3{fill:#FFFFFF;}
</style>
<rect y="40.9" class="st0" width="140" height="58.2"/>
<g>
	<g>
		<path class="st1" d="M140,70c0-38.7-31.3-70-70-70S0,31.3,0,70s31.3,70,70,70S140,108.7,140,70"/>
	</g>
	<g class="st2">
		<path class="st3" d="M28.4,63.5C28,50.7,35.3,40.9,48.7,40.9c10.2,0,19.2,6.6,19.2,17.5c0,8.4-4.5,13-10,17
			c-5.5,3.9-12.1,7.1-16.2,12.9h26.5V98H27.1c0.1-13,8-18.5,17.7-25c5-3.4,11.7-6.8,11.8-13.7c0-5.3-3.5-8.6-8.4-8.6
			c-6.7,0-8.9,7-8.9,12.9H28.4z"/>
	</g>
	<g class="st2">
		<path class="st3" d="M90,64.6c4.9,0.4,11.9-0.6,11.9-7c0-4.7-3.8-7.4-7.9-7.4c-5.7,0-8.7,4.2-8.6,10H74.5
			c0.4-11.4,7.8-19.4,19.4-19.4c9,0,18.8,5.5,18.8,15.5c0,5.3-2.6,10-7.8,11.4V68c6.2,1.4,9.9,6.5,9.9,12.7
			c0,11.8-9.8,18.4-20.8,18.4c-12.6,0-21-7.5-20.8-20.4H84c0.2,6.1,3.3,11,9.8,11c5.1,0,9.1-3.5,9.1-8.8c0-8.5-7.4-8.3-13-8.3V64.6z
			"/>
	</g>
</g>
</svg>
