<?xml version="1.0" encoding="UTF-8" standalone="no"?>
<!-- Created with Inkscape (http://www.inkscape.org/) -->

<svg
   xmlns:dc="http://purl.org/dc/elements/1.1/"
   xmlns:cc="http://creativecommons.org/ns#"
   xmlns:rdf="http://www.w3.org/1999/02/22-rdf-syntax-ns#"
   xmlns:svg="http://www.w3.org/2000/svg"
   xmlns="http://www.w3.org/2000/svg"
   xmlns:sodipodi="http://sodipodi.sourceforge.net/DTD/sodipodi-0.dtd"
   xmlns:inkscape="http://www.inkscape.org/namespaces/inkscape"
   width="64"
   height="64"
   id="svg16758"
   sodipodi:version="0.32"
   inkscape:version="0.91 r13725"
   sodipodi:docname="acces_elevator.svg"
   inkscape:output_extension="org.inkscape.output.svg.inkscape"
   version="1.0">
  <defs
     id="defs16760">
    <inkscape:perspective
       sodipodi:type="inkscape:persp3d"
       inkscape:vp_x="0 : 526.18109 : 1"
       inkscape:vp_y="0 : 1000 : 0"
       inkscape:vp_z="744.09448 : 526.18109 : 1"
       inkscape:persp3d-origin="372.04724 : 350.78739 : 1"
       id="perspective16766" />
  </defs>
  <sodipodi:namedview
     id="base"
     pagecolor="#ffffff"
     bordercolor="#666666"
     borderopacity="1.0"
     inkscape:pageopacity="0.0"
     inkscape:pageshadow="2"
     inkscape:zoom="8.5625"
     inkscape:cx="29.979457"
     inkscape:cy="18.623903"
     inkscape:document-units="px"
     inkscape:current-layer="layer1"
     showgrid="false"
     inkscape:window-width="2560"
     inkscape:window-height="1334"
     inkscape:window-x="0"
     inkscape:window-y="27"
     fit-margin-top="0"
     fit-margin-left="0"
     fit-margin-right="0"
     fit-margin-bottom="0"
     inkscape:window-maximized="1" />
  <metadata
     id="metadata16763">
    <rdf:RDF>
      <cc:Work
         rdf:about="">
        <dc:format>image/svg+xml</dc:format>
        <dc:type
           rdf:resource="http://purl.org/dc/dcmitype/StillImage" />
        <dc:title></dc:title>
      </cc:Work>
    </rdf:RDF>
  </metadata>
  <g
     inkscape:label="Ebene 1"
     inkscape:groupmode="layer"
     id="layer1"
     transform="translate(-539.60804,-41.50986)">
    <g
       id="g4230"
       transform="translate(0,-16)">
      <g
         transform="matrix(0.65625,0,0,0.66666667,185.49026,35.169953)"
         id="g4138">
        <g
           id="g4848"
           transform="matrix(0,-6.5555859,-6.5506653,0,603.60804,81.50986)">
          <path
             d="M 0,0 3.661,4.884 0,9.77 -3.661,4.882 0,0"
             style="fill:#ed1b2d;fill-opacity:1;fill-rule:nonzero;stroke:none"
             id="path4850"
             inkscape:connector-curvature="0" />
        </g>
        <g
           id="g4852"
           transform="matrix(0,-6.5555859,-6.5506653,0,559.54827,92.070909)">
          <path
             d="m 0,0 3.22,0 0,-1.275 -2.008,-0.568 2.008,-0.568 0,-1.274 -3.22,0 0,0.948 0.984,0 0.501,-0.014 0.582,-0.054 0,0.01 L 0,-2.21 l 0,0.734 2.067,0.586 0,0.009 L 1.592,-0.926 1.091,-0.948 0,-0.948 0,0"
             style="fill:#ffffff;fill-opacity:1;fill-rule:nonzero;stroke:none"
             id="path4854"
             inkscape:connector-curvature="0" />
        </g>
      </g>
      <g
         transform="matrix(0.06638714,0,0,0.06541949,569.71928,57.187921)"
         id="g4187">
        <rect
           rx="36.481171"
           style="fill:#000000;fill-opacity:1;stroke:none;stroke-width:1.60000002;stroke-linecap:square;stroke-linejoin:round;stroke-miterlimit:4;stroke-dasharray:none;stroke-opacity:1"
           id="rect11925"
           width="299.18427"
           height="297.49875"
           x="209.20844"
           y="441.14871"
           ry="36.481171" />
        <rect
           style="fill:#ffffff;fill-opacity:1;stroke:none;stroke-width:1.60000002;stroke-linecap:square;stroke-linejoin:round;stroke-miterlimit:4;stroke-dasharray:none;stroke-opacity:1"
           id="rect14834"
           width="216.17117"
           height="214.90701"
           x="251.34706"
           y="482.86597"
           ry="0" />
        <g
           id="g9962"
           style="fill:#000000;fill-opacity:1;stroke:#000000;stroke-opacity:1">
          <path
             sodipodi:open="true"
             sodipodi:end="2.8596268"
             sodipodi:start="5.3117634"
             transform="matrix(0.7846,0,0,0.6619453,188.9583,244.23362)"
             d="m 208.53936,113.37186 a 22.326078,26.754066 0 0 1 8.69695,30.13976 22.326078,26.754066 0 0 1 -21.55543,18.70297 22.326078,26.754066 0 0 1 -21.18067,-19.30803"
             sodipodi:ry="26.754066"
             sodipodi:rx="22.326078"
             sodipodi:cy="135.46239"
             sodipodi:cx="195.94464"
             id="path8981"
             style="opacity:1;fill:#000000;fill-opacity:1;stroke:#000000;stroke-width:1.60000002;stroke-linecap:square;stroke-linejoin:round;stroke-miterlimit:4;stroke-dasharray:none;stroke-opacity:1"
             sodipodi:type="arc" />
          <path
             sodipodi:open="true"
             sodipodi:end="3.5679281"
             sodipodi:start="5.7186684"
             transform="matrix(0.8327303,0,0,0.6840878,124.34249,315.60749)"
             d="m 216.23704,120.80847 a 24.01902,27.39011 0 0 1 -3.78297,34.54813 24.01902,27.39011 0 0 1 -30.45848,2.40357 24.01902,27.39011 0 0 1 -7.91996,-33.62461"
             sodipodi:ry="27.39011"
             sodipodi:rx="24.01902"
             sodipodi:cy="135.46239"
             sodipodi:cx="195.94464"
             id="path8983"
             style="opacity:1;fill:#000000;fill-opacity:1;stroke:#000000;stroke-width:1.60000002;stroke-linecap:square;stroke-linejoin:round;stroke-miterlimit:4;stroke-dasharray:none;stroke-opacity:1"
             sodipodi:type="arc" />
          <path
             sodipodi:open="true"
             sodipodi:end="5.7371385"
             sodipodi:start="3.5031474"
             transform="matrix(0.6881213,0,0,0.557277,152.46715,190.5677)"
             d="m 173.4785,125.77371 a 24.01902,27.39011 0 0 1 20.25362,-17.58498 24.01902,27.39011 0 0 1 22.73879,13.04962"
             sodipodi:ry="27.39011"
             sodipodi:rx="24.01902"
             sodipodi:cy="135.46239"
             sodipodi:cx="195.94464"
             id="path8985"
             style="opacity:1;fill:#000000;fill-opacity:1;stroke:#000000;stroke-width:1.60000002;stroke-linecap:square;stroke-linejoin:round;stroke-miterlimit:4;stroke-dasharray:none;stroke-opacity:1"
             sodipodi:type="arc" />
          <rect
             ry="8.317997"
             transform="matrix(0.6373949,-0.7705373,0.7674411,0.6411195,0,0)"
             y="374.90018"
             x="-114.34281"
             height="34.652412"
             width="99.277641"
             id="rect8987"
             style="opacity:1;fill:#000000;fill-opacity:1;stroke:#000000;stroke-width:1.59614193;stroke-linecap:square;stroke-linejoin:round;stroke-miterlimit:4;stroke-dasharray:none;stroke-opacity:1" />
          <rect
             ry="9.8207321"
             transform="matrix(-0.6419541,-0.7667431,0.7698433,-0.6382329,0,0)"
             y="31.089006"
             x="-483.82874"
             height="34.815559"
             width="102.2452"
             id="rect8989"
             style="opacity:1;fill:#000000;fill-opacity:1;stroke:#000000;stroke-width:1.59614193;stroke-linecap:square;stroke-linejoin:round;stroke-miterlimit:4;stroke-dasharray:none;stroke-opacity:1" />
          <path
             sodipodi:open="true"
             sodipodi:end="4.1815463"
             sodipodi:start="0.30238796"
             transform="matrix(0.7290548,0,0,0.6627706,90.146547,244.19724)"
             d="m 218.87387,143.61918 a 24.01902,27.39011 0 0 1 -23.5211,19.225 24.01902,27.39011 0 0 1 -22.66193,-20.52316 24.01902,27.39011 0 0 1 11.09393,-30.47934"
             sodipodi:ry="27.39011"
             sodipodi:rx="24.01902"
             sodipodi:cy="135.46239"
             sodipodi:cx="195.94464"
             id="path7041"
             style="opacity:1;fill:#000000;fill-opacity:1;stroke:#000000;stroke-width:1.60000002;stroke-linecap:square;stroke-linejoin:round;stroke-miterlimit:4;stroke-dasharray:none;stroke-opacity:1"
             sodipodi:type="arc" />
          <rect
             inkscape:transform-center-y="-20.501219"
             inkscape:transform-center-x="-44.91277"
             ry="9.4316044"
             transform="matrix(0.00315005,-0.999995,0.9999515,0.00985288,0,0)"
             y="268.87262"
             x="-413.78915"
             height="39.519062"
             width="125.00758"
             id="rect8991"
             style="opacity:1;fill:#000000;fill-opacity:1;stroke:#000000;stroke-width:1.9489578;stroke-linecap:square;stroke-linejoin:round;stroke-miterlimit:4;stroke-dasharray:none;stroke-opacity:1" />
        </g>
        <g
           id="g9971"
           transform="matrix(-0.9999956,-0.00294749,0.00294749,-0.9999956,724.39415,677.89352)"
           style="fill:#000000;fill-opacity:1;stroke:#000200;stroke-opacity:1">
          <path
             sodipodi:open="true"
             sodipodi:end="2.8596268"
             sodipodi:start="5.3117634"
             transform="matrix(0.7846,0,0,0.6619453,188.9583,244.23362)"
             d="m 208.53936,113.37186 a 22.326078,26.754066 0 0 1 8.69695,30.13976 22.326078,26.754066 0 0 1 -21.55543,18.70297 22.326078,26.754066 0 0 1 -21.18067,-19.30803"
             sodipodi:ry="26.754066"
             sodipodi:rx="22.326078"
             sodipodi:cy="135.46239"
             sodipodi:cx="195.94464"
             id="path9973"
             style="opacity:1;fill:#000000;fill-opacity:1;stroke:#000200;stroke-width:1.60000002;stroke-linecap:square;stroke-linejoin:round;stroke-miterlimit:4;stroke-dasharray:none;stroke-opacity:1"
             sodipodi:type="arc" />
          <path
             sodipodi:open="true"
             sodipodi:end="3.5679281"
             sodipodi:start="5.7186684"
             transform="matrix(0.8327303,0,0,0.6840878,124.34249,315.60749)"
             d="m 216.23704,120.80847 a 24.01902,27.39011 0 0 1 -3.78297,34.54813 24.01902,27.39011 0 0 1 -30.45848,2.40357 24.01902,27.39011 0 0 1 -7.91996,-33.62461"
             sodipodi:ry="27.39011"
             sodipodi:rx="24.01902"
             sodipodi:cy="135.46239"
             sodipodi:cx="195.94464"
             id="path9975"
             style="opacity:1;fill:#000000;fill-opacity:1;stroke:#000200;stroke-width:1.60000002;stroke-linecap:square;stroke-linejoin:round;stroke-miterlimit:4;stroke-dasharray:none;stroke-opacity:1"
             sodipodi:type="arc" />
          <path
             sodipodi:open="true"
             sodipodi:end="5.7371385"
             sodipodi:start="3.5031474"
             transform="matrix(0.6881213,0,0,0.557277,152.46715,190.5677)"
             d="m 173.4785,125.77371 a 24.01902,27.39011 0 0 1 20.25362,-17.58498 24.01902,27.39011 0 0 1 22.73879,13.04962"
             sodipodi:ry="27.39011"
             sodipodi:rx="24.01902"
             sodipodi:cy="135.46239"
             sodipodi:cx="195.94464"
             id="path9977"
             style="opacity:1;fill:#000000;fill-opacity:1;stroke:#000200;stroke-width:1.60000002;stroke-linecap:square;stroke-linejoin:round;stroke-miterlimit:4;stroke-dasharray:none;stroke-opacity:1"
             sodipodi:type="arc" />
          <rect
             ry="8.317997"
             transform="matrix(0.6373949,-0.7705373,0.7674411,0.6411195,0,0)"
             y="374.90018"
             x="-114.34281"
             height="34.652412"
             width="99.277641"
             id="rect9979"
             style="opacity:1;fill:#000000;fill-opacity:1;stroke:#000200;stroke-width:1.59614193;stroke-linecap:square;stroke-linejoin:round;stroke-miterlimit:4;stroke-dasharray:none;stroke-opacity:1" />
          <rect
             ry="9.8207321"
             transform="matrix(-0.6419541,-0.7667431,0.7698433,-0.6382329,0,0)"
             y="31.089006"
             x="-483.82874"
             height="34.815559"
             width="102.2452"
             id="rect9981"
             style="opacity:1;fill:#000000;fill-opacity:1;stroke:#000200;stroke-width:1.59614193;stroke-linecap:square;stroke-linejoin:round;stroke-miterlimit:4;stroke-dasharray:none;stroke-opacity:1" />
          <path
             sodipodi:open="true"
             sodipodi:end="4.1815463"
             sodipodi:start="0.30238796"
             transform="matrix(0.7290548,0,0,0.6627706,90.146547,244.19724)"
             d="m 218.87387,143.61918 a 24.01902,27.39011 0 0 1 -23.5211,19.225 24.01902,27.39011 0 0 1 -22.66193,-20.52316 24.01902,27.39011 0 0 1 11.09393,-30.47934"
             sodipodi:ry="27.39011"
             sodipodi:rx="24.01902"
             sodipodi:cy="135.46239"
             sodipodi:cx="195.94464"
             id="path9983"
             style="opacity:1;fill:#000000;fill-opacity:1;stroke:#000200;stroke-width:1.60000002;stroke-linecap:square;stroke-linejoin:round;stroke-miterlimit:4;stroke-dasharray:none;stroke-opacity:1"
             sodipodi:type="arc" />
          <rect
             inkscape:transform-center-y="-20.501219"
             inkscape:transform-center-x="-44.91277"
             ry="9.4316044"
             transform="matrix(0.00315005,-0.999995,0.9999515,0.00985288,0,0)"
             y="268.87262"
             x="-413.78915"
             height="39.519062"
             width="125.00758"
             id="rect9985"
             style="opacity:1;fill:#000000;fill-opacity:1;stroke:#000200;stroke-width:1.9489578;stroke-linecap:square;stroke-linejoin:round;stroke-miterlimit:4;stroke-dasharray:none;stroke-opacity:1" />
        </g>
        <g
           id="g21645"
           style="fill:#000000;fill-opacity:1">
          <path
             sodipodi:end="4.1815467"
             sodipodi:start="4.1851502"
             transform="matrix(1.0819611,0,0,1.0793614,34.221343,175.85014)"
             d="m 236.4626,311.29749 a 12.852283,13.273668 0 0 1 17.56772,4.78213 12.852283,13.273668 0 0 1 -4.61449,18.14801 12.852283,13.273668 0 0 1 -17.57604,-4.74943 12.852283,13.273668 0 0 1 4.58283,-18.15657 l 6.50659,11.44696 z"
             sodipodi:ry="13.273668"
             sodipodi:rx="12.852283"
             sodipodi:cy="322.76859"
             sodipodi:cx="242.92921"
             id="path16774"
             style="opacity:1;fill:#000000;fill-opacity:1;stroke:none;stroke-width:1.60000002;stroke-linecap:square;stroke-linejoin:round;stroke-miterlimit:4;stroke-dasharray:none;stroke-opacity:1"
             sodipodi:type="arc" />
          <rect
             ry="8.4277267"
             y="542.35376"
             x="265.45734"
             height="69.950119"
             width="62.78656"
             id="rect19687"
             style="opacity:1;fill:#000000;fill-opacity:1;stroke:none;stroke-width:1.60000002;stroke-linecap:square;stroke-linejoin:round;stroke-miterlimit:4;stroke-dasharray:none;stroke-opacity:1" />
          <rect
             ry="9.0598059"
             y="601.34778"
             x="277.25613"
             height="89.755287"
             width="18.119612"
             id="rect21633"
             style="opacity:1;fill:#000000;fill-opacity:1;stroke:none;stroke-width:1.60000002;stroke-linecap:square;stroke-linejoin:round;stroke-miterlimit:4;stroke-dasharray:none;stroke-opacity:1" />
          <rect
             ry="9.0598059"
             y="601.5332"
             x="298.42447"
             height="89.755287"
             width="18.119612"
             id="rect21635"
             style="opacity:1;fill:#000000;fill-opacity:1;stroke:none;stroke-width:1.60000002;stroke-linecap:square;stroke-linejoin:round;stroke-miterlimit:4;stroke-dasharray:none;stroke-opacity:1" />
        </g>
        <g
           id="g21651"
           style="fill:#000000;fill-opacity:1">
          <path
             sodipodi:end="4.1815467"
             sodipodi:start="4.1851502"
             transform="matrix(1.0819611,0,0,1.0793614,100.26767,175.82486)"
             d="m 236.4626,311.29749 a 12.852283,13.273668 0 0 1 17.56772,4.78213 12.852283,13.273668 0 0 1 -4.61449,18.14801 12.852283,13.273668 0 0 1 -17.57604,-4.74943 12.852283,13.273668 0 0 1 4.58283,-18.15657 l 6.50659,11.44696 z"
             sodipodi:ry="13.273668"
             sodipodi:rx="12.852283"
             sodipodi:cy="322.76859"
             sodipodi:cx="242.92921"
             id="path17745"
             style="opacity:1;fill:#000000;fill-opacity:1;stroke:none;stroke-width:1.60000002;stroke-linecap:square;stroke-linejoin:round;stroke-miterlimit:4;stroke-dasharray:none;stroke-opacity:1"
             sodipodi:type="arc" />
          <rect
             ry="8.4277267"
             y="542.32843"
             x="331.71396"
             height="69.950119"
             width="62.78656"
             id="rect21627"
             style="opacity:1;fill:#000000;fill-opacity:1;stroke:none;stroke-width:1.60000002;stroke-linecap:square;stroke-linejoin:round;stroke-miterlimit:4;stroke-dasharray:none;stroke-opacity:1" />
          <rect
             ry="9.0598059"
             y="601.5332"
             x="343.0914"
             height="89.755287"
             width="18.119612"
             id="rect21637"
             style="opacity:1;fill:#000000;fill-opacity:1;stroke:none;stroke-width:1.60000002;stroke-linecap:square;stroke-linejoin:round;stroke-miterlimit:4;stroke-dasharray:none;stroke-opacity:1" />
          <rect
             ry="9.0598059"
             y="601.5332"
             x="364.16074"
             height="89.755287"
             width="18.119612"
             id="rect21639"
             style="opacity:1;fill:#000000;fill-opacity:1;stroke:none;stroke-width:1.60000002;stroke-linecap:square;stroke-linejoin:round;stroke-miterlimit:4;stroke-dasharray:none;stroke-opacity:1" />
        </g>
        <g
           id="g21657"
           style="fill:#000000;fill-opacity:1">
          <path
             sodipodi:end="4.1815467"
             sodipodi:start="4.1851502"
             transform="matrix(1.0819611,0,0,1.0793614,166.42532,175.82486)"
             d="m 236.4626,311.29749 a 12.852283,13.273668 0 0 1 17.56772,4.78213 12.852283,13.273668 0 0 1 -4.61449,18.14801 12.852283,13.273668 0 0 1 -17.57604,-4.74943 12.852283,13.273668 0 0 1 4.58283,-18.15657 l 6.50659,11.44696 z"
             sodipodi:ry="13.273668"
             sodipodi:rx="12.852283"
             sodipodi:cy="322.76859"
             sodipodi:cx="242.92921"
             id="path18716"
             style="opacity:1;fill:#000000;fill-opacity:1;stroke:none;stroke-width:1.60000002;stroke-linecap:square;stroke-linejoin:round;stroke-miterlimit:4;stroke-dasharray:none;stroke-opacity:1"
             sodipodi:type="arc" />
          <rect
             ry="8.4277267"
             y="542.32843"
             x="397.45023"
             height="69.950119"
             width="62.78656"
             id="rect21631"
             style="opacity:1;fill:#000000;fill-opacity:1;stroke:none;stroke-width:1.60000002;stroke-linecap:square;stroke-linejoin:round;stroke-miterlimit:4;stroke-dasharray:none;stroke-opacity:1" />
          <rect
             ry="9.0598059"
             y="601.11182"
             x="409.24908"
             height="89.755287"
             width="18.119612"
             id="rect21641"
             style="opacity:1;fill:#000000;fill-opacity:1;stroke:none;stroke-width:1.60000002;stroke-linecap:square;stroke-linejoin:round;stroke-miterlimit:4;stroke-dasharray:none;stroke-opacity:1" />
          <rect
             ry="9.0598059"
             y="601.5332"
             x="430.31836"
             height="89.755287"
             width="18.119612"
             id="rect21643"
             style="opacity:1;fill:#000000;fill-opacity:1;stroke:none;stroke-width:1.60000002;stroke-linecap:square;stroke-linejoin:round;stroke-miterlimit:4;stroke-dasharray:none;stroke-opacity:1" />
        </g>
      </g>
    </g>
  </g>
</svg>
