<?xml version="1.0" encoding="UTF-8" standalone="yes"?>
<svg xmlns="http://www.w3.org/2000/svg" xmlns:xlink="http://www.w3.org/1999/xlink" width="64px" height="64px" viewBox="0 0 64 64" version="1.1">
  <g id="surface1">
    <path style=" stroke:none;fill-rule:nonzero;fill:rgb(92.941177%,19.215687%,13.725491%);fill-opacity:1;" d="M 41.480469 49.574219 C 42.285156 50.378906 42.285156 51.660156 41.480469 52.46875 L 33.25 60.699219 C 32.441406 61.503906 31.160156 61.503906 30.355469 60.699219 L 22.128906 52.46875 C 21.316406 51.660156 21.316406 50.378906 22.128906 49.574219 L 30.355469 41.347656 C 31.160156 40.535156 32.441406 40.535156 33.25 41.347656 "/>
    <path style=" stroke:none;fill-rule:nonzero;fill:rgb(92.941177%,19.215687%,13.725491%);fill-opacity:1;" d="M 33.050781 3.253906 C 32.308594 2.582031 31.160156 2.582031 30.488281 3.253906 L 2.984375 30.699219 C 2.308594 31.4375 2.308594 32.582031 2.984375 33.324219 L 10.394531 40.738281 C 11.140625 41.484375 12.285156 41.484375 13.027344 40.738281 L 30.488281 23.28125 C 31.230469 22.605469 32.375 22.605469 33.050781 23.28125 L 50.511719 40.738281 C 51.25 41.484375 52.394531 41.484375 53.140625 40.738281 L 60.558594 33.324219 C 61.296875 32.582031 61.296875 31.4375 60.558594 30.699219 "/>
  </g>
</svg>