<svg xmlns="http://www.w3.org/2000/svg" width="64" height="64" viewBox="0 0 48 48">
    <path fill="#ed3123" d="M31.10938 37.17969c.60546.60547.60546 1.5664 0 2.17187l-6.17188 6.17188c-.60547.60547-1.5664.60547-2.17188 0l-6.16796-6.17188c-.60938-.60547-.60938-1.5664 0-2.17187l6.16796-6.16797c.60547-.60938 1.56641-.60938 2.17188 0"/>
    <path fill="#ed3123" d="M24.78906 2.4414c-.5586-.5039-1.41797-.5039-1.92187 0L2.23829 23.02345c-.50782.55468-.50782 1.41406 0 1.96875l5.55858 5.5625c.5586.5586 1.41797.5586 1.97266 0L22.8672 17.46094c.55468-.50782 1.41406-.50782 1.92187 0l13.09375 13.09375c.55469.5586 1.41407.5586 1.97266 0l5.5625-5.5625c.55469-.55469.55469-1.41407 0-1.96875"/>
</svg>
