
        <svg width="64" height="64" xmlns="http://www.w3.org/2000/svg">
            <circle cx="32" cy="32" r="32" fill="#0062A1" />
            <g transform="translate(5.6953125 42.08984375)">
                <path d="M17.96-19.91L17.96 0L13.86 0L5.88-13.10L5.88 0L1.78 0L1.78-19.91L5.88-19.91L13.88-6.78L13.88-19.91L17.96-19.91ZM30.72-19.93L30.72 0L26.77 0L26.77-15.23L22.05-13.77L22.05-16.98L30.30-19.93L30.72-19.93ZM50.83-3.19L50.83 0L37.19 0L37.19-2.71L43.63-9.57Q44.95-11.02 45.59-12.10Q46.22-13.18 46.22-14.15L46.22-14.15Q46.22-15.48 45.55-16.24Q44.88-16.99 43.64-16.99L43.64-16.99Q42.30-16.99 41.53-16.07Q40.76-15.15 40.76-13.64L40.76-13.64L36.79-13.64Q36.79-15.46 37.66-16.97Q38.53-18.47 40.11-19.33Q41.70-20.18 43.71-20.18L43.71-20.18Q46.79-20.18 48.49-18.70Q50.19-17.23 50.19-14.53L50.19-14.53Q50.19-13.06 49.42-11.53Q48.66-9.99 46.80-7.96L46.80-7.96L42.27-3.19L50.83-3.19Z" fill="#FFFFFF" />
            </g>
        </svg>
    