
        <svg width="64" height="64" xmlns="http://www.w3.org/2000/svg">
            <circle cx="32" cy="32" r="32" fill="#FFAA00" />
            <g transform="translate(2.564453125 41.953125)">
                <path d="M1.78-19.91L7.14-19.91L12.25-5.47L17.34-19.91L22.72-19.91L22.72 0L18.61 0L18.61-5.44L19.02-14.83L13.64 0L10.83 0L5.47-14.82L5.88-5.44L5.88 0L1.78 0L1.78-19.91ZM34.04 0L26.30 0L26.30-19.91L33.28-19.91Q36.90-19.91 38.77-18.52Q40.65-17.13 40.65-14.45L40.65-14.45Q40.65-12.99 39.89-11.87Q39.14-10.76 37.80-10.24L37.80-10.24Q39.33-9.86 40.22-8.70Q41.10-7.53 41.10-5.85L41.10-5.85Q41.10-2.98 39.27-1.50Q37.43-0.03 34.04 0L34.04 0ZM34.17-8.67L30.41-8.67L30.41-3.29L33.92-3.29Q35.37-3.29 36.18-3.99Q37.00-4.68 37.00-5.89L37.00-5.89Q37.00-8.63 34.17-8.67L34.17-8.67ZM30.41-16.58L30.41-11.57L33.44-11.57Q36.54-11.62 36.54-14.04L36.54-14.04Q36.54-15.39 35.76-15.99Q34.97-16.58 33.28-16.58L33.28-16.58L30.41-16.58ZM47.77-8.61L47.77-11.70L49.88-11.70Q51.38-11.70 52.10-12.46Q52.83-13.21 52.83-14.45L52.83-14.45Q52.83-15.65 52.11-16.32Q51.39-16.99 50.13-16.99L50.13-16.99Q49-16.99 48.23-16.37Q47.47-15.75 47.47-14.75L47.47-14.75L43.52-14.75Q43.52-16.31 44.36-17.55Q45.20-18.79 46.71-19.48Q48.22-20.18 50.04-20.18L50.04-20.18Q53.20-20.18 54.99-18.67Q56.78-17.16 56.78-14.51L56.78-14.51Q56.78-13.14 55.95-11.99Q55.11-10.84 53.76-10.23L53.76-10.23Q55.44-9.63 56.27-8.42Q57.09-7.22 57.09-5.58L57.09-5.58Q57.09-2.93 55.16-1.33Q53.22 0.27 50.04 0.27L50.04 0.27Q47.06 0.27 45.17-1.30Q43.27-2.87 43.27-5.46L43.27-5.46L47.22-5.46Q47.22-4.33 48.06-3.62Q48.90-2.91 50.13-2.91L50.13-2.91Q51.54-2.91 52.34-3.66Q53.14-4.40 53.14-5.63L53.14-5.63Q53.14-8.61 49.86-8.61L49.86-8.61L47.77-8.61Z" fill="#343434" />
            </g>
        </svg>
    