
        <svg width="64" height="64" xmlns="http://www.w3.org/2000/svg">
            <circle cx="32" cy="32" r="32" fill="#FFAA00" />
            <g transform="translate(6.7958984375 41.953125)">
                <path d="M9.52 0L1.78 0L1.78-19.91L8.75-19.91Q12.37-19.91 14.25-18.52Q16.12-17.13 16.12-14.45L16.12-14.45Q16.12-12.99 15.37-11.87Q14.62-10.76 13.28-10.24L13.28-10.24Q14.81-9.86 15.69-8.70Q16.57-7.53 16.57-5.85L16.57-5.85Q16.57-2.98 14.74-1.50Q12.91-0.03 9.52 0L9.52 0ZM9.64-8.67L5.88-8.67L5.88-3.29L9.39-3.29Q10.84-3.29 11.66-3.99Q12.47-4.68 12.47-5.89L12.47-5.89Q12.47-8.63 9.64-8.67L9.64-8.67ZM5.88-16.58L5.88-11.57L8.91-11.57Q12.02-11.62 12.02-14.04L12.02-14.04Q12.02-15.39 11.23-15.99Q10.45-16.58 8.75-16.58L8.75-16.58L5.88-16.58ZM32.87-3.19L32.87 0L19.22 0L19.22-2.71L25.66-9.57Q26.99-11.02 27.62-12.10Q28.26-13.18 28.26-14.15L28.26-14.15Q28.26-15.48 27.59-16.24Q26.92-16.99 25.68-16.99L25.68-16.99Q24.34-16.99 23.56-16.07Q22.79-15.15 22.79-13.64L22.79-13.64L18.83-13.64Q18.83-15.46 19.69-16.97Q20.56-18.47 22.15-19.33Q23.73-20.18 25.74-20.18L25.74-20.18Q28.82-20.18 30.52-18.70Q32.22-17.23 32.22-14.53L32.22-14.53Q32.22-13.06 31.46-11.53Q30.69-9.99 28.83-7.96L28.83-7.96L24.31-3.19L32.87-3.19ZM39.31-8.61L39.31-11.70L41.41-11.70Q42.92-11.70 43.64-12.46Q44.37-13.21 44.37-14.45L44.37-14.45Q44.37-15.65 43.65-16.32Q42.93-16.99 41.67-16.99L41.67-16.99Q40.54-16.99 39.77-16.37Q39.01-15.75 39.01-14.75L39.01-14.75L35.05-14.75Q35.05-16.31 35.90-17.55Q36.74-18.79 38.25-19.48Q39.76-20.18 41.58-20.18L41.58-20.18Q44.73-20.18 46.53-18.67Q48.32-17.16 48.32-14.51L48.32-14.51Q48.32-13.14 47.48-11.99Q46.65-10.84 45.29-10.23L45.29-10.23Q46.98-9.63 47.80-8.42Q48.63-7.22 48.63-5.58L48.63-5.58Q48.63-2.93 46.70-1.33Q44.76 0.27 41.58 0.27L41.58 0.27Q38.60 0.27 36.70-1.30Q34.81-2.87 34.81-5.46L34.81-5.46L38.76-5.46Q38.76-4.33 39.60-3.62Q40.44-2.91 41.67-2.91L41.67-2.91Q43.08-2.91 43.88-3.66Q44.68-4.40 44.68-5.63L44.68-5.63Q44.68-8.61 41.40-8.61L41.40-8.61L39.31-8.61Z" fill="#343434" />
            </g>
        </svg>
    