
        <svg width="64" height="64" xmlns="http://www.w3.org/2000/svg">
            <circle cx="32" cy="32" r="32" fill="#9FD6F6" />
            <g transform="translate(15.033203125 42.08984375)">
                <path d="M14.40 0L13.02-4.10L5.82-4.10L4.46 0L0.10 0L7.51-19.91L11.31-19.91L18.76 0L14.40 0ZM9.41-14.88L6.93-7.42L11.91-7.42L9.41-14.88ZM33.84-3.19L33.84 0L20.19 0L20.19-2.71L26.63-9.57Q27.96-11.02 28.59-12.10Q29.23-13.18 29.23-14.15L29.23-14.15Q29.23-15.48 28.56-16.24Q27.89-16.99 26.65-16.99L26.65-16.99Q25.31-16.99 24.53-16.07Q23.76-15.15 23.76-13.64L23.76-13.64L19.80-13.64Q19.80-15.46 20.67-16.97Q21.53-18.47 23.12-19.33Q24.71-20.18 26.71-20.18L26.71-20.18Q29.79-20.18 31.49-18.70Q33.20-17.23 33.20-14.53L33.20-14.53Q33.20-13.06 32.43-11.53Q31.66-9.99 29.80-7.96L29.80-7.96L25.28-3.19L33.84-3.19Z" fill="#353535" />
            </g>
        </svg>
    