<?xml version="1.0" encoding="UTF-8" standalone="yes"?>
<svg xmlns="http://www.w3.org/2000/svg" xmlns:xlink="http://www.w3.org/1999/xlink" width="64px" height="64px" viewBox="0 0 64 64" version="1.1">
  <g id="surface1">
    <path style=" stroke:none;fill-rule:nonzero;fill:rgb(92.941177%,19.215687%,13.725491%);fill-opacity:1;" d="M 41.671875 49.804688 C 42.484375 50.617188 42.484375 51.90625 41.671875 52.71875 L 33.410156 60.980469 C 32.597656 61.792969 31.308594 61.792969 30.496094 60.980469 L 22.234375 52.71875 C 21.421875 51.90625 21.421875 50.617188 22.234375 49.804688 L 30.496094 41.542969 C 31.308594 40.730469 32.597656 40.730469 33.410156 41.542969 "/>
    <path style=" stroke:none;fill-rule:nonzero;fill:rgb(92.941177%,19.215687%,13.725491%);fill-opacity:1;" d="M 33.207031 3.273438 C 32.460938 2.597656 31.308594 2.597656 30.632812 3.273438 L 2.996094 30.839844 C 2.320312 31.585938 2.320312 32.738281 2.996094 33.480469 L 10.445312 40.933594 C 11.191406 41.679688 12.34375 41.679688 13.089844 40.933594 L 30.632812 23.390625 C 31.375 22.710938 32.527344 22.710938 33.207031 23.390625 L 50.75 40.933594 C 51.492188 41.679688 52.644531 41.679688 53.390625 40.933594 L 60.839844 33.480469 C 61.585938 32.738281 61.585938 31.585938 60.839844 30.839844 "/>
  </g>
</svg>