
        <svg width="64" height="64" xmlns="http://www.w3.org/2000/svg">
            <circle cx="32" cy="32" r="32" fill="#FFAA00" />
            <g transform="translate(15.7783203125 41.953125)">
                <path d="M14.33-14.62L14.33-14.62Q14.33-13.17 13.60-12.04Q12.88-10.92 11.61-10.25L11.61-10.25Q13.06-9.56 13.90-8.33Q14.75-7.11 14.75-5.46L14.75-5.46Q14.75-2.80 12.95-1.26Q11.14 0.27 8.04 0.27Q4.94 0.27 3.12-1.27Q1.30-2.82 1.30-5.46L1.30-5.46Q1.30-7.11 2.15-8.34Q2.99-9.57 4.43-10.25L4.43-10.25Q3.16-10.92 2.44-12.04Q1.72-13.17 1.72-14.62L1.72-14.62Q1.72-17.16 3.42-18.67Q5.11-20.18 8.03-20.18L8.03-20.18Q10.92-20.18 12.63-18.68Q14.33-17.19 14.33-14.62ZM10.79-5.74L10.79-5.74Q10.79-7.04 10.04-7.82Q9.28-8.60 8.01-8.60L8.01-8.60Q6.75-8.60 6.00-7.83Q5.25-7.05 5.25-5.74L5.25-5.74Q5.25-4.47 5.99-3.69Q6.73-2.91 8.04-2.91L8.04-2.91Q9.32-2.91 10.06-3.66Q10.79-4.42 10.79-5.74ZM10.38-14.42L10.38-14.42Q10.38-15.59 9.76-16.29Q9.15-16.99 8.03-16.99L8.03-16.99Q6.92-16.99 6.30-16.31Q5.69-15.63 5.69-14.42L5.69-14.42Q5.69-13.23 6.30-12.51Q6.92-11.79 8.04-11.79Q9.16-11.79 9.77-12.51Q10.38-13.23 10.38-14.42ZM27.48-20.11L28.14-20.11L28.14-16.86L27.75-16.86Q25.07-16.82 23.44-15.46Q21.81-14.11 21.48-11.70L21.48-11.70Q23.06-13.32 25.48-13.32L25.48-13.32Q28.08-13.32 29.61-11.46Q31.14-9.60 31.14-6.56L31.14-6.56Q31.14-4.62 30.30-3.05Q29.46-1.48 27.92-0.60Q26.39 0.27 24.45 0.27L24.45 0.27Q21.30 0.27 19.37-1.91Q17.43-4.10 17.43-7.75L17.43-7.75L17.43-9.17Q17.43-12.41 18.66-14.90Q19.88-17.38 22.17-18.74Q24.46-20.10 27.48-20.11L27.48-20.11ZM24.28-10.14L24.28-10.14Q23.32-10.14 22.54-9.65Q21.77-9.15 21.40-8.33L21.40-8.33L21.40-7.12Q21.40-5.14 22.18-4.03Q22.96-2.91 24.36-2.91L24.36-2.91Q25.63-2.91 26.42-3.92Q27.21-4.92 27.21-6.52L27.21-6.52Q27.21-8.15 26.41-9.15Q25.62-10.14 24.28-10.14Z" fill="#343434" />
            </g>
        </svg>
    