
        <svg width="64" height="64" xmlns="http://www.w3.org/2000/svg">
            <circle cx="32" cy="32" r="32" fill="#0062A1" />
            <g transform="translate(5.818359375 41.953125)">
                <path d="M17.96-19.91L17.96 0L13.86 0L5.88-13.10L5.88 0L1.78 0L1.78-19.91L5.88-19.91L13.88-6.78L13.88-19.91L17.96-19.91ZM34.77-3.19L34.77 0L21.12 0L21.12-2.71L27.56-9.57Q28.89-11.02 29.52-12.10Q30.16-13.18 30.16-14.15L30.16-14.15Q30.16-15.48 29.49-16.24Q28.82-16.99 27.58-16.99L27.58-16.99Q26.24-16.99 25.46-16.07Q24.69-15.15 24.69-13.64L24.69-13.64L20.73-13.64Q20.73-15.46 21.59-16.97Q22.46-18.47 24.05-19.33Q25.63-20.18 27.64-20.18L27.64-20.18Q30.72-20.18 32.42-18.70Q34.13-17.23 34.13-14.53L34.13-14.53Q34.13-13.06 33.36-11.53Q32.59-9.99 30.73-7.96L30.73-7.96L26.21-3.19L34.77-3.19ZM50.16-14.62L50.16-14.62Q50.16-13.17 49.44-12.04Q48.71-10.92 47.44-10.25L47.44-10.25Q48.89-9.56 49.74-8.33Q50.59-7.11 50.59-5.46L50.59-5.46Q50.59-2.80 48.78-1.26Q46.98 0.27 43.87 0.27Q40.77 0.27 38.95-1.27Q37.13-2.82 37.13-5.46L37.13-5.46Q37.13-7.11 37.98-8.34Q38.83-9.57 40.26-10.25L40.26-10.25Q38.99-10.92 38.27-12.04Q37.56-13.17 37.56-14.62L37.56-14.62Q37.56-17.16 39.25-18.67Q40.95-20.18 43.86-20.18L43.86-20.18Q46.76-20.18 48.46-18.68Q50.16-17.19 50.16-14.62ZM46.62-5.74L46.62-5.74Q46.62-7.04 45.87-7.82Q45.12-8.60 43.85-8.60L43.85-8.60Q42.59-8.60 41.84-7.83Q41.08-7.05 41.08-5.74L41.08-5.74Q41.08-4.47 41.82-3.69Q42.56-2.91 43.87-2.91L43.87-2.91Q45.16-2.91 45.89-3.66Q46.62-4.42 46.62-5.74ZM46.21-14.42L46.21-14.42Q46.21-15.59 45.60-16.29Q44.98-16.99 43.86-16.99L43.86-16.99Q42.75-16.99 42.14-16.31Q41.52-15.63 41.52-14.42L41.52-14.42Q41.52-13.23 42.14-12.51Q42.75-11.79 43.87-11.79Q44.99-11.79 45.60-12.51Q46.21-13.23 46.21-14.42Z" fill="#FFFFFF" />
            </g>
        </svg>
    