
        <svg width="64" height="64" xmlns="http://www.w3.org/2000/svg">
            <circle cx="32" cy="32" r="32" fill="#FFAA00" />
            <g transform="translate(6.92578125 41.953125)">
                <path d="M17.53-10.46L17.53-2.52Q16.42-1.19 14.40-0.46Q12.37 0.27 9.91 0.27L9.91 0.27Q7.33 0.27 5.38-0.85Q3.43-1.98 2.37-4.13Q1.31-6.28 1.29-9.17L1.29-9.17L1.29-10.53Q1.29-13.51 2.29-15.69Q3.29-17.87 5.19-19.02Q7.08-20.18 9.63-20.18L9.63-20.18Q13.17-20.18 15.16-18.49Q17.16-16.80 17.53-13.58L17.53-13.58L13.54-13.58Q13.26-15.29 12.33-16.08Q11.39-16.87 9.75-16.87L9.75-16.87Q7.66-16.87 6.56-15.30Q5.47-13.73 5.46-10.62L5.46-10.62L5.46-9.35Q5.46-6.22 6.64-4.62Q7.83-3.02 10.13-3.02L10.13-3.02Q12.44-3.02 13.43-4.01L13.43-4.01L13.43-7.44L9.69-7.44L9.69-10.46L17.53-10.46ZM33.47 0L32.09-4.10L24.90-4.10L23.53 0L19.17 0L26.58-19.91L30.38-19.91L37.83 0L33.47 0ZM28.48-14.88L26.00-7.42L30.98-7.42L28.48-14.88ZM48.86-19.93L48.86 0L44.91 0L44.91-15.23L40.20-13.77L40.20-16.98L48.44-19.93L48.86-19.93Z" fill="#343434" />
            </g>
        </svg>
    