
        <svg width="64" height="64" xmlns="http://www.w3.org/2000/svg">
            <circle cx="32" cy="32" r="32" fill="#FFAA00" />
            <g transform="translate(8.40234375 41.966796875)">
                <path d="M9.47-7.01L5.88-7.01L5.88 0L1.78 0L1.78-19.91L9.54-19.91Q11.79-19.91 13.49-19.09Q15.19-18.27 16.11-16.75Q17.02-15.24 17.02-13.32L17.02-13.32Q17.02-10.39 15.02-8.70Q13.02-7.01 9.47-7.01L9.47-7.01ZM5.88-16.58L5.88-10.34L9.54-10.34Q11.17-10.34 12.02-11.10Q12.88-11.87 12.88-13.29L12.88-13.29Q12.88-14.75 12.02-15.65Q11.16-16.56 9.64-16.58L9.64-16.58L5.88-16.58ZM30.02 0L28.64-4.10L21.45-4.10L20.08 0L15.72 0L23.13-19.91L26.93-19.91L34.38 0L30.02 0ZM25.03-14.88L22.56-7.42L27.54-7.42L25.03-14.88ZM45.42-19.93L45.42 0L41.47 0L41.47-15.23L36.75-13.77L36.75-16.98L44.99-19.93L45.42-19.93Z" fill="#343434" />
            </g>
        </svg>
    