
        <svg width="64" height="64" xmlns="http://www.w3.org/2000/svg">
            <circle cx="32" cy="32" r="32" fill="#FFAA00" />
            <g transform="translate(7.9990234375 41.953125)">
                <path d="M5.88-19.91L5.88-3.29L14.59-3.29L14.59 0L1.78 0L1.78-19.91L5.88-19.91ZM29.49-14.62L29.49-14.62Q29.49-13.17 28.77-12.04Q28.04-10.92 26.77-10.25L26.77-10.25Q28.22-9.56 29.07-8.33Q29.91-7.11 29.91-5.46L29.91-5.46Q29.91-2.80 28.11-1.26Q26.30 0.27 23.20 0.27Q20.10 0.27 18.28-1.27Q16.46-2.82 16.46-5.46L16.46-5.46Q16.46-7.11 17.31-8.34Q18.16-9.57 19.59-10.25L19.59-10.25Q18.32-10.92 17.60-12.04Q16.88-13.17 16.88-14.62L16.88-14.62Q16.88-17.16 18.58-18.67Q20.28-20.18 23.19-20.18L23.19-20.18Q26.09-20.18 27.79-18.68Q29.49-17.19 29.49-14.62ZM25.95-5.74L25.95-5.74Q25.95-7.04 25.20-7.82Q24.45-8.60 23.17-8.60L23.17-8.60Q21.92-8.60 21.16-7.83Q20.41-7.05 20.41-5.74L20.41-5.74Q20.41-4.47 21.15-3.69Q21.89-2.91 23.20-2.91L23.20-2.91Q24.49-2.91 25.22-3.66Q25.95-4.42 25.95-5.74ZM25.54-14.42L25.54-14.42Q25.54-15.59 24.92-16.29Q24.31-16.99 23.19-16.99L23.19-16.99Q22.08-16.99 21.46-16.31Q20.85-15.63 20.85-14.42L20.85-14.42Q20.85-13.23 21.46-12.51Q22.08-11.79 23.20-11.79Q24.32-11.79 24.93-12.51Q25.54-13.23 25.54-14.42ZM46.22-3.19L46.22 0L32.58 0L32.58-2.71L39.02-9.57Q40.35-11.02 40.98-12.10Q41.62-13.18 41.62-14.15L41.62-14.15Q41.62-15.48 40.95-16.24Q40.28-16.99 39.03-16.99L39.03-16.99Q37.69-16.99 36.92-16.07Q36.15-15.15 36.15-13.64L36.15-13.64L32.18-13.64Q32.18-15.46 33.05-16.97Q33.92-18.47 35.51-19.33Q37.09-20.18 39.10-20.18L39.10-20.18Q42.18-20.18 43.88-18.70Q45.58-17.23 45.58-14.53L45.58-14.53Q45.58-13.06 44.82-11.53Q44.05-9.99 42.19-7.96L42.19-7.96L37.67-3.19L46.22-3.19Z" fill="#343434" />
            </g>
        </svg>
    