
        <svg width="64" height="64" xmlns="http://www.w3.org/2000/svg">
            <circle cx="32" cy="32" r="32" fill="#FFAA00" />
            <g transform="translate(8.6689453125 41.953125)">
                <path d="M9.52 0L1.78 0L1.78-19.91L8.75-19.91Q12.37-19.91 14.25-18.52Q16.12-17.13 16.12-14.45L16.12-14.45Q16.12-12.99 15.37-11.87Q14.62-10.76 13.28-10.24L13.28-10.24Q14.81-9.86 15.69-8.70Q16.57-7.53 16.57-5.85L16.57-5.85Q16.57-2.98 14.74-1.50Q12.91-0.03 9.52 0L9.52 0ZM9.64-8.67L5.88-8.67L5.88-3.29L9.39-3.29Q10.84-3.29 11.66-3.99Q12.47-4.68 12.47-5.89L12.47-5.89Q12.47-8.63 9.64-8.67L9.64-8.67ZM5.88-16.58L5.88-11.57L8.91-11.57Q12.02-11.62 12.02-14.04L12.02-14.04Q12.02-15.39 11.23-15.99Q10.45-16.58 8.75-16.58L8.75-16.58L5.88-16.58ZM32.20-14.62L32.20-14.62Q32.20-13.17 31.47-12.04Q30.75-10.92 29.48-10.25L29.48-10.25Q30.93-9.56 31.77-8.33Q32.62-7.11 32.62-5.46L32.62-5.46Q32.62-2.80 30.82-1.26Q29.01 0.27 25.91 0.27Q22.80 0.27 20.99-1.27Q19.17-2.82 19.17-5.46L19.17-5.46Q19.17-7.11 20.02-8.34Q20.86-9.57 22.30-10.25L22.30-10.25Q21.03-10.92 20.31-12.04Q19.59-13.17 19.59-14.62L19.59-14.62Q19.59-17.16 21.29-18.67Q22.98-20.18 25.89-20.18L25.89-20.18Q28.79-20.18 30.50-18.68Q32.20-17.19 32.20-14.62ZM28.66-5.74L28.66-5.74Q28.66-7.04 27.90-7.82Q27.15-8.60 25.88-8.60L25.88-8.60Q24.62-8.60 23.87-7.83Q23.12-7.05 23.12-5.74L23.12-5.74Q23.12-4.47 23.86-3.69Q24.60-2.91 25.91-2.91L25.91-2.91Q27.19-2.91 27.92-3.66Q28.66-4.42 28.66-5.74ZM28.25-14.42L28.25-14.42Q28.25-15.59 27.63-16.29Q27.02-16.99 25.89-16.99L25.89-16.99Q24.79-16.99 24.17-16.31Q23.56-15.63 23.56-14.42L23.56-14.42Q23.56-13.23 24.17-12.51Q24.79-11.79 25.91-11.79Q27.03-11.79 27.64-12.51Q28.25-13.23 28.25-14.42ZM44.88-19.93L44.88 0L40.93 0L40.93-15.23L36.22-13.77L36.22-16.98L44.46-19.93L44.88-19.93Z" fill="#343434" />
            </g>
        </svg>
    