
        <svg width="64" height="64" xmlns="http://www.w3.org/2000/svg">
            <circle cx="32" cy="32" r="32" fill="#FFAA00" />
            <g transform="translate(8.388671875 41.966796875)">
                <path d="M4.65-19.91L9.13-4.94L13.64-19.91L18.21-19.91L11.28 0L7 0L0.10-19.91L4.65-19.91ZM27.82 0L20.08 0L20.08-19.91L27.06-19.91Q30.68-19.91 32.55-18.52Q34.43-17.13 34.43-14.45L34.43-14.45Q34.43-12.99 33.67-11.87Q32.92-10.76 31.58-10.24L31.58-10.24Q33.11-9.86 34.00-8.70Q34.88-7.53 34.88-5.85L34.88-5.85Q34.88-2.98 33.04-1.50Q31.21-0.03 27.82 0L27.82 0ZM27.95-8.67L24.19-8.67L24.19-3.29L27.70-3.29Q29.15-3.29 29.96-3.99Q30.78-4.68 30.78-5.89L30.78-5.89Q30.78-8.63 27.95-8.67L27.95-8.67ZM24.19-16.58L24.19-11.57L27.22-11.57Q30.32-11.62 30.32-14.04L30.32-14.04Q30.32-15.39 29.54-15.99Q28.75-16.58 27.06-16.58L27.06-16.58L24.19-16.58ZM47.13-19.93L47.13 0L43.18 0L43.18-15.23L38.46-13.77L38.46-16.98L46.70-19.93L47.13-19.93Z" fill="#343434" />
            </g>
        </svg>
    