
        <svg width="64" height="64" xmlns="http://www.w3.org/2000/svg">
            <circle cx="32" cy="32" r="32" fill="#FFAA00" />
            <g transform="translate(5.7978515625 41.953125)">
                <path d="M9.47-7.01L5.88-7.01L5.88 0L1.78 0L1.78-19.91L9.54-19.91Q11.79-19.91 13.49-19.09Q15.19-18.27 16.11-16.75Q17.02-15.24 17.02-13.32L17.02-13.32Q17.02-10.39 15.02-8.70Q13.02-7.01 9.47-7.01L9.47-7.01ZM5.88-16.58L5.88-10.34L9.54-10.34Q11.17-10.34 12.02-11.10Q12.88-11.87 12.88-13.29L12.88-13.29Q12.88-14.75 12.02-15.65Q11.16-16.56 9.64-16.58L9.64-16.58L5.88-16.58ZM30.94 0L27.21-7.29L23.94-7.29L23.94 0L19.84 0L19.84-19.91L27.23-19.91Q30.76-19.91 32.68-18.33Q34.59-16.76 34.59-13.89L34.59-13.89Q34.59-11.85 33.71-10.49Q32.83-9.13 31.04-8.33L31.04-8.33L35.34-0.19L35.34 0L30.94 0ZM23.94-16.58L23.94-10.61L27.25-10.61Q28.79-10.61 29.64-11.40Q30.49-12.18 30.49-13.56L30.49-13.56Q30.49-14.97 29.69-15.78Q28.89-16.58 27.23-16.58L27.23-16.58L23.94-16.58ZM41.30-8.61L41.30-11.70L43.41-11.70Q44.91-11.70 45.64-12.46Q46.36-13.21 46.36-14.45L46.36-14.45Q46.36-15.65 45.64-16.32Q44.93-16.99 43.67-16.99L43.67-16.99Q42.53-16.99 41.77-16.37Q41.00-15.75 41.00-14.75L41.00-14.75L37.05-14.75Q37.05-16.31 37.89-17.55Q38.73-18.79 40.24-19.48Q41.75-20.18 43.57-20.18L43.57-20.18Q46.73-20.18 48.52-18.67Q50.31-17.16 50.31-14.51L50.31-14.51Q50.31-13.14 49.48-11.99Q48.64-10.84 47.29-10.23L47.29-10.23Q48.97-9.63 49.80-8.42Q50.63-7.22 50.63-5.58L50.63-5.58Q50.63-2.93 48.69-1.33Q46.76 0.27 43.57 0.27L43.57 0.27Q40.59 0.27 38.70-1.30Q36.80-2.87 36.80-5.46L36.80-5.46L40.76-5.46Q40.76-4.33 41.60-3.62Q42.44-2.91 43.67-2.91L43.67-2.91Q45.08-2.91 45.88-3.66Q46.68-4.40 46.68-5.63L46.68-5.63Q46.68-8.61 43.39-8.61L43.39-8.61L41.30-8.61Z" fill="#343434" />
            </g>
        </svg>
    