
        <svg width="64" height="64" xmlns="http://www.w3.org/2000/svg">
            <circle cx="32" cy="32" r="32" fill="#FFAA00" />
            <g transform="translate(6.365234375 42.08984375)">
                <path d="M4.65-19.91L9.13-4.94L13.64-19.91L18.21-19.91L11.28 0L7 0L0.10-19.91L4.65-19.91ZM27.82 0L20.08 0L20.08-19.91L27.06-19.91Q30.68-19.91 32.55-18.52Q34.43-17.13 34.43-14.45L34.43-14.45Q34.43-12.99 33.67-11.87Q32.92-10.76 31.58-10.24L31.58-10.24Q33.11-9.86 34.00-8.70Q34.88-7.53 34.88-5.85L34.88-5.85Q34.88-2.98 33.04-1.50Q31.21-0.03 27.82 0L27.82 0ZM27.95-8.67L24.19-8.67L24.19-3.29L27.70-3.29Q29.15-3.29 29.96-3.99Q30.78-4.68 30.78-5.89L30.78-5.89Q30.78-8.63 27.95-8.67L27.95-8.67ZM24.19-16.58L24.19-11.57L27.22-11.57Q30.32-11.62 30.32-14.04L30.32-14.04Q30.32-15.39 29.54-15.99Q28.75-16.58 27.06-16.58L27.06-16.58L24.19-16.58ZM51.17-3.19L51.17 0L37.53 0L37.53-2.71L43.97-9.57Q45.29-11.02 45.93-12.10Q46.57-13.18 46.57-14.15L46.57-14.15Q46.57-15.48 45.90-16.24Q45.23-16.99 43.98-16.99L43.98-16.99Q42.64-16.99 41.87-16.07Q41.10-15.15 41.10-13.64L41.10-13.64L37.13-13.64Q37.13-15.46 38.00-16.97Q38.87-18.47 40.46-19.33Q42.04-20.18 44.05-20.18L44.05-20.18Q47.13-20.18 48.83-18.70Q50.53-17.23 50.53-14.53L50.53-14.53Q50.53-13.06 49.77-11.53Q49-9.99 47.14-7.96L47.14-7.96L42.62-3.19L51.17-3.19Z" fill="#343434" />
            </g>
        </svg>
    