
        <svg width="64" height="64" xmlns="http://www.w3.org/2000/svg">
            <circle cx="32" cy="32" r="32" fill="#FFAA00" />
            <g transform="translate(7.5751953125 41.953125)">
                <path d="M5.17-19.91L8.90-13.04L12.63-19.91L17.35-19.91L11.55-10.04L17.50 0L12.73 0L8.90-6.97L5.07 0L0.30 0L6.25-10.04L0.45-19.91L5.17-19.91ZM32.12-14.62L32.12-14.62Q32.12-13.17 31.39-12.04Q30.67-10.92 29.39-10.25L29.39-10.25Q30.84-9.56 31.69-8.33Q32.54-7.11 32.54-5.46L32.54-5.46Q32.54-2.80 30.73-1.26Q28.93 0.27 25.83 0.27Q22.72 0.27 20.90-1.27Q19.09-2.82 19.09-5.46L19.09-5.46Q19.09-7.11 19.93-8.34Q20.78-9.57 22.22-10.25L22.22-10.25Q20.95-10.92 20.23-12.04Q19.51-13.17 19.51-14.62L19.51-14.62Q19.51-17.16 21.21-18.67Q22.90-20.18 25.81-20.18L25.81-20.18Q28.71-20.18 30.41-18.68Q32.12-17.19 32.12-14.62ZM28.57-5.74L28.57-5.74Q28.57-7.04 27.82-7.82Q27.07-8.60 25.80-8.60L25.80-8.60Q24.54-8.60 23.79-7.83Q23.04-7.05 23.04-5.74L23.04-5.74Q23.04-4.47 23.78-3.69Q24.51-2.91 25.83-2.91L25.83-2.91Q27.11-2.91 27.84-3.66Q28.57-4.42 28.57-5.74ZM28.16-14.42L28.16-14.42Q28.16-15.59 27.55-16.29Q26.93-16.99 25.81-16.99L25.81-16.99Q24.71-16.99 24.09-16.31Q23.47-15.63 23.47-14.42L23.47-14.42Q23.47-13.23 24.09-12.51Q24.71-11.79 25.83-11.79Q26.95-11.79 27.56-12.51Q28.16-13.23 28.16-14.42ZM39.22-8.61L39.22-11.70L41.33-11.70Q42.83-11.70 43.56-12.46Q44.28-13.21 44.28-14.45L44.28-14.45Q44.28-15.65 43.57-16.32Q42.85-16.99 41.59-16.99L41.59-16.99Q40.46-16.99 39.69-16.37Q38.92-15.75 38.92-14.75L38.92-14.75L34.97-14.75Q34.97-16.31 35.81-17.55Q36.65-18.79 38.17-19.48Q39.68-20.18 41.49-20.18L41.49-20.18Q44.65-20.18 46.44-18.67Q48.23-17.16 48.23-14.51L48.23-14.51Q48.23-13.14 47.40-11.99Q46.57-10.84 45.21-10.23L45.21-10.23Q46.89-9.63 47.72-8.42Q48.55-7.22 48.55-5.58L48.55-5.58Q48.55-2.93 46.61-1.33Q44.68 0.27 41.49 0.27L41.49 0.27Q38.51 0.27 36.62-1.30Q34.73-2.87 34.73-5.46L34.73-5.46L38.68-5.46Q38.68-4.33 39.52-3.62Q40.36-2.91 41.59-2.91L41.59-2.91Q43.00-2.91 43.80-3.66Q44.60-4.40 44.60-5.63L44.60-5.63Q44.60-8.61 41.32-8.61L41.32-8.61L39.22-8.61Z" fill="#343434" />
            </g>
        </svg>
    