
        <svg width="64" height="64" xmlns="http://www.w3.org/2000/svg">
            <circle cx="32" cy="32" r="32" fill="#FFAA00" />
            <g transform="translate(6.1396484375 42.08984375)">
                <path d="M5.88-19.91L5.88-3.29L14.59-3.29L14.59 0L1.78 0L1.78-19.91L5.88-19.91ZM33.14-19.91L33.14 0L29.04 0L29.04-8.53L21.04-8.53L21.04 0L16.94 0L16.94-19.91L21.04-19.91L21.04-11.84L29.04-11.84L29.04-19.91L33.14-19.91ZM49.94-3.19L49.94 0L36.30 0L36.30-2.71L42.74-9.57Q44.06-11.02 44.70-12.10Q45.34-13.18 45.34-14.15L45.34-14.15Q45.34-15.48 44.67-16.24Q44.00-16.99 42.75-16.99L42.75-16.99Q41.41-16.99 40.64-16.07Q39.87-15.15 39.87-13.64L39.87-13.64L35.90-13.64Q35.90-15.46 36.77-16.97Q37.64-18.47 39.22-19.33Q40.81-20.18 42.82-20.18L42.82-20.18Q45.90-20.18 47.60-18.70Q49.30-17.23 49.30-14.53L49.30-14.53Q49.30-13.06 48.54-11.53Q47.77-9.99 45.91-7.96L45.91-7.96L41.38-3.19L49.94-3.19Z" fill="#343434" />
            </g>
        </svg>
    