
        <svg width="64" height="64" xmlns="http://www.w3.org/2000/svg">
            <circle cx="32" cy="32" r="32" fill="#0062A1" />
            <g transform="translate(13.5771484375 41.953125)">
                <path d="M17.96-19.91L17.96 0L13.86 0L5.88-13.10L5.88 0L1.78 0L1.78-19.91L5.88-19.91L13.88-6.78L13.88-19.91L17.96-19.91ZM32.81-19.91L32.81-7.49L35.07-7.49L35.07-4.31L32.81-4.31L32.81 0L28.86 0L28.86-4.31L20.70-4.31L20.52-6.79L28.82-19.91L32.81-19.91ZM28.60-14.07L24.46-7.49L28.86-7.49L28.86-14.52L28.60-14.07Z" fill="#FAF9F9" />
            </g>
        </svg>
    