
        <svg width="64" height="64" xmlns="http://www.w3.org/2000/svg">
            <circle cx="32" cy="32" r="32" fill="#FFAA00" />
            <g transform="translate(3.31640625 42.08984375)">
                <path d="M1.78-19.91L7.14-19.91L12.25-5.47L17.34-19.91L22.72-19.91L22.72 0L18.61 0L18.61-5.44L19.02-14.83L13.64 0L10.83 0L5.47-14.82L5.88-5.44L5.88 0L1.78 0L1.78-19.91ZM35.48-19.93L35.48 0L31.53 0L31.53-15.23L26.81-13.77L26.81-16.98L35.05-19.93L35.48-19.93ZM55.59-3.19L55.59 0L41.95 0L41.95-2.71L48.38-9.57Q49.71-11.02 50.35-12.10Q50.98-13.18 50.98-14.15L50.98-14.15Q50.98-15.48 50.31-16.24Q49.64-16.99 48.40-16.99L48.40-16.99Q47.06-16.99 46.29-16.07Q45.51-15.15 45.51-13.64L45.51-13.64L41.55-13.64Q41.55-15.46 42.42-16.97Q43.29-18.47 44.87-19.33Q46.46-20.18 48.47-20.18L48.47-20.18Q51.54-20.18 53.25-18.70Q54.95-17.23 54.95-14.53L54.95-14.53Q54.95-13.06 54.18-11.53Q53.42-9.99 51.56-7.96L51.56-7.96L47.03-3.19L55.59-3.19Z" fill="#343434" />
            </g>
        </svg>
    