
        <svg width="64" height="64" xmlns="http://www.w3.org/2000/svg">
            <circle cx="32" cy="32" r="32" fill="#FFAA00" />
            <g transform="translate(11.3076171875 41.9189453125)">
                <path d="M1.78-19.91L7.14-19.91L12.25-5.47L17.34-19.91L22.72-19.91L22.72 0L18.61 0L18.61-5.44L19.02-14.83L13.64 0L10.83 0L5.47-14.82L5.88-5.44L5.88 0L1.78 0L1.78-19.91ZM35.94-20.11L36.60-20.11L36.60-16.86L36.22-16.86Q33.54-16.82 31.90-15.46Q30.27-14.11 29.94-11.70L29.94-11.70Q31.53-13.32 33.95-13.32L33.95-13.32Q36.54-13.32 38.08-11.46Q39.61-9.60 39.61-6.56L39.61-6.56Q39.61-4.62 38.77-3.05Q37.93-1.48 36.39-0.60Q34.85 0.27 32.91 0.27L32.91 0.27Q29.76 0.27 27.83-1.91Q25.89-4.10 25.89-7.75L25.89-7.75L25.89-9.17Q25.89-12.41 27.12-14.90Q28.34-17.38 30.63-18.74Q32.92-20.10 35.94-20.11L35.94-20.11ZM32.74-10.14L32.74-10.14Q31.79-10.14 31.01-9.65Q30.23-9.15 29.86-8.33L29.86-8.33L29.86-7.12Q29.86-5.14 30.64-4.03Q31.42-2.91 32.83-2.91L32.83-2.91Q34.10-2.91 34.88-3.92Q35.67-4.92 35.67-6.52L35.67-6.52Q35.67-8.15 34.88-9.15Q34.08-10.14 32.74-10.14Z" fill="#343434" />
            </g>
        </svg>
    