
        <svg width="64" height="64" xmlns="http://www.w3.org/2000/svg">
            <circle cx="32" cy="32" r="32" fill="#FFAA00" />
            <g transform="translate(7.9580078125 41.953125)">
                <path d="M5.88-19.91L5.88-3.29L14.59-3.29L14.59 0L1.78 0L1.78-19.91L5.88-19.91ZM25.76-7.96L25.76-7.96Q24.21-6.44 22.15-6.44L22.15-6.44Q19.51-6.44 17.92-8.25Q16.34-10.06 16.34-13.14L16.34-13.14Q16.34-15.09 17.19-16.73Q18.05-18.36 19.58-19.27Q21.11-20.18 23.02-20.18L23.02-20.18Q24.99-20.18 26.52-19.20Q28.05-18.21 28.90-16.37Q29.75-14.52 29.76-12.14L29.76-12.14L29.76-10.68Q29.76-5.70 27.29-2.86Q24.81-0.01 20.28 0.18L20.28 0.18L19.30 0.19L19.30-3.10L20.18-3.12Q25.33-3.35 25.76-7.96ZM23.12-9.46L23.12-9.46Q24.08-9.46 24.77-9.95Q25.46-10.45 25.81-11.14L25.81-11.14L25.81-12.77Q25.81-14.78 25.05-15.89Q24.28-16.99 23.00-16.99L23.00-16.99Q21.81-16.99 21.04-15.91Q20.28-14.82 20.28-13.18L20.28-13.18Q20.28-11.55 21.02-10.51Q21.77-9.46 23.12-9.46ZM42.64-20.11L43.30-20.11L43.30-16.86L42.92-16.86Q40.24-16.82 38.60-15.46Q36.97-14.11 36.64-11.70L36.64-11.70Q38.23-13.32 40.65-13.32L40.65-13.32Q43.24-13.32 44.78-11.46Q46.31-9.60 46.31-6.56L46.31-6.56Q46.31-4.62 45.47-3.05Q44.63-1.48 43.09-0.60Q41.55 0.27 39.61 0.27L39.61 0.27Q36.46 0.27 34.53-1.91Q32.59-4.10 32.59-7.75L32.59-7.75L32.59-9.17Q32.59-12.41 33.82-14.90Q35.04-17.38 37.33-18.74Q39.62-20.10 42.64-20.11L42.64-20.11ZM39.44-10.14L39.44-10.14Q38.49-10.14 37.71-9.65Q36.93-9.15 36.56-8.33L36.56-8.33L36.56-7.12Q36.56-5.14 37.34-4.03Q38.12-2.91 39.53-2.91L39.53-2.91Q40.80-2.91 41.58-3.92Q42.37-4.92 42.37-6.52L42.37-6.52Q42.37-8.15 41.58-9.15Q40.78-10.14 39.44-10.14Z" fill="#343434" />
            </g>
        </svg>
    