
        <svg width="64" height="64" viewBox="0 0 64 64" xmlns="http://www.w3.org/2000/svg">
            <circle cx="32" cy="32" r="32" fill="#FFAA00" />
            <g transform="translate(5.720703125 42.6640625)">
                <path d="M5.54-21.33L9.54-13.97L13.54-21.33L18.59-21.33L12.38-10.75L18.75 0L13.64 0L9.54-7.47L5.43 0L0.32 0L6.69-10.75L0.48-21.33L5.54-21.33ZM30.41-8.53L30.41-8.53Q28.75-6.90 26.54-6.90L26.54-6.90Q23.72-6.90 22.02-8.84Q20.32-10.78 20.32-14.08L20.32-14.08Q20.32-16.17 21.23-17.92Q22.15-19.67 23.79-20.65Q25.43-21.62 27.48-21.62L27.48-21.62Q29.59-21.62 31.23-20.57Q32.87-19.51 33.78-17.53Q34.69-15.56 34.70-13.01L34.70-13.01L34.70-11.44Q34.70-6.11 32.05-3.06Q29.40-0.01 24.54 0.19L24.54 0.19L23.50 0.21L23.50-3.33L24.43-3.34Q29.96-3.59 30.41-8.53ZM27.58-10.14L27.58-10.14Q28.61-10.14 29.35-10.66Q30.09-11.19 30.47-11.94L30.47-11.94L30.47-13.68Q30.47-15.83 29.65-17.02Q28.83-18.21 27.45-18.21L27.45-18.21Q26.18-18.21 25.36-17.04Q24.54-15.88 24.54-14.12L24.54-14.12Q24.54-12.38 25.33-11.26Q26.13-10.14 27.58-10.14ZM41.72-9.65L38.35-10.49L39.58-21.33L51.53-21.33L51.53-17.80L43.05-17.80L42.52-13.21Q44.03-14.02 45.73-14.02L45.73-14.02Q48.78-14.02 50.51-12.13Q52.24-10.24 52.24-6.84L52.24-6.84Q52.24-4.78 51.36-3.14Q50.49-1.51 48.87-0.61Q47.24 0.29 45.03 0.29L45.03 0.29Q43.10 0.29 41.44-0.49Q39.79-1.27 38.83-2.70Q37.87-4.12 37.81-5.93L37.81-5.93L42.00-5.93Q42.13-4.60 42.93-3.86Q43.73-3.12 45.01-3.12L45.01-3.12Q46.45-3.12 47.23-4.15Q48.00-5.19 48.00-7.08L48.00-7.08Q48.00-8.89 47.11-9.86Q46.22-10.83 44.58-10.83L44.58-10.83Q43.07-10.83 42.13-10.03L42.13-10.03L41.72-9.65Z" fill="#343434" />
            </g>
        </svg>
    