
        <svg width="64" height="64" xmlns="http://www.w3.org/2000/svg">
            <circle cx="32" cy="32" r="32" fill="#0062A1" />
            <g transform="translate(5.75 41.966796875)">
                <path d="M17.96-19.91L17.96 0L13.86 0L5.88-13.10L5.88 0L1.78 0L1.78-19.91L5.88-19.91L13.88-6.78L13.88-19.91L17.96-19.91ZM30.72-19.93L30.72 0L26.77 0L26.77-15.23L22.05-13.77L22.05-16.98L30.30-19.93L30.72-19.93ZM50.72-19.91L50.72-17.69L43.03 0L38.86 0L46.57-16.71L36.67-16.71L36.67-19.91L50.72-19.91Z" fill="#FAF9F9" />
            </g>
        </svg>
    