
        <svg width="64" height="64" xmlns="http://www.w3.org/2000/svg">
            <circle cx="32" cy="32" r="32" fill="#0062A1" />
            <g transform="translate(13.8505859375 41.953125)">
                <path d="M17.96-19.91L17.96 0L13.86 0L5.88-13.10L5.88 0L1.78 0L1.78-19.91L5.88-19.91L13.88-6.78L13.88-19.91L17.96-19.91ZM34.10-14.62L34.10-14.62Q34.10-13.17 33.37-12.04Q32.65-10.92 31.38-10.25L31.38-10.25Q32.83-9.56 33.67-8.33Q34.52-7.11 34.52-5.46L34.52-5.46Q34.52-2.80 32.72-1.26Q30.91 0.27 27.81 0.27Q24.71 0.27 22.89-1.27Q21.07-2.82 21.07-5.46L21.07-5.46Q21.07-7.11 21.92-8.34Q22.76-9.57 24.20-10.25L24.20-10.25Q22.93-10.92 22.21-12.04Q21.49-13.17 21.49-14.62L21.49-14.62Q21.49-17.16 23.19-18.67Q24.88-20.18 27.79-20.18L27.79-20.18Q30.69-20.18 32.40-18.68Q34.10-17.19 34.10-14.62ZM30.56-5.74L30.56-5.74Q30.56-7.04 29.80-7.82Q29.05-8.60 27.78-8.60L27.78-8.60Q26.52-8.60 25.77-7.83Q25.02-7.05 25.02-5.74L25.02-5.74Q25.02-4.47 25.76-3.69Q26.50-2.91 27.81-2.91L27.81-2.91Q29.09-2.91 29.83-3.66Q30.56-4.42 30.56-5.74ZM30.15-14.42L30.15-14.42Q30.15-15.59 29.53-16.29Q28.92-16.99 27.79-16.99L27.79-16.99Q26.69-16.99 26.07-16.31Q25.46-15.63 25.46-14.42L25.46-14.42Q25.46-13.23 26.07-12.51Q26.69-11.79 27.81-11.79Q28.93-11.79 29.54-12.51Q30.15-13.23 30.15-14.42Z" fill="#FFFFFF" />
            </g>
        </svg>
    