
        <svg width="64" height="64" xmlns="http://www.w3.org/2000/svg">
            <circle cx="32" cy="32" r="32" fill="#FFAA00" />
            <g transform="translate(7.9990234375 42.08984375)">
                <path d="M5.88-19.91L5.88-3.29L14.59-3.29L14.59 0L1.78 0L1.78-19.91L5.88-19.91ZM30.05-19.91L30.05-17.69L22.35 0L18.18 0L25.89-16.71L16.00-16.71L16.00-19.91L30.05-19.91ZM46.22-3.19L46.22 0L32.58 0L32.58-2.71L39.02-9.57Q40.35-11.02 40.98-12.10Q41.62-13.18 41.62-14.15L41.62-14.15Q41.62-15.48 40.95-16.24Q40.28-16.99 39.03-16.99L39.03-16.99Q37.69-16.99 36.92-16.07Q36.15-15.15 36.15-13.64L36.15-13.64L32.18-13.64Q32.18-15.46 33.05-16.97Q33.92-18.47 35.51-19.33Q37.09-20.18 39.10-20.18L39.10-20.18Q42.18-20.18 43.88-18.70Q45.58-17.23 45.58-14.53L45.58-14.53Q45.58-13.06 44.82-11.53Q44.05-9.99 42.19-7.96L42.19-7.96L37.67-3.19L46.22-3.19Z" fill="#343434" />
            </g>
        </svg>
    