
        <svg width="64" height="64" xmlns="http://www.w3.org/2000/svg">
            <circle cx="32" cy="32" r="32" fill="#FFAA00" />
            <g transform="translate(8.73046875 41.966796875)">
                <path d="M13.75-11.84L13.75-8.63L5.88-8.63L5.88-3.29L15.12-3.29L15.12 0L1.78 0L1.78-19.91L15.09-19.91L15.09-16.58L5.88-16.58L5.88-11.84L13.75-11.84ZM25.22-7.01L21.63-7.01L21.63 0L17.53 0L17.53-19.91L25.29-19.91Q27.54-19.91 29.24-19.09Q30.94-18.27 31.86-16.75Q32.77-15.24 32.77-13.32L32.77-13.32Q32.77-10.39 30.77-8.70Q28.77-7.01 25.22-7.01L25.22-7.01ZM21.63-16.58L21.63-10.34L25.29-10.34Q26.92-10.34 27.77-11.10Q28.63-11.87 28.63-13.29L28.63-13.29Q28.63-14.75 27.77-15.65Q26.91-16.56 25.39-16.58L25.39-16.58L21.63-16.58ZM44.76-19.93L44.76 0L40.81 0L40.81-15.23L36.09-13.77L36.09-16.98L44.34-19.93L44.76-19.93Z" fill="#343434" />
            </g>
        </svg>
    