
        <svg width="64" height="64" viewBox="0 0 64 64" xmlns="http://www.w3.org/2000/svg">
            <circle cx="32" cy="32" r="32" fill="#FFAA00" />
            <g transform="translate(9.921875 44.796875)">
                <path d="M12.23 0L2.29 0L2.29-25.59L11.25-25.59Q15.91-25.59 18.32-23.81Q20.72-22.03 20.72-18.58L20.72-18.58Q20.72-16.70 19.76-15.27Q18.79-13.83 17.07-13.17L17.07-13.17Q19.04-12.67 20.17-11.18Q21.30-9.69 21.30-7.52L21.30-7.52Q21.30-3.83 18.95-1.93Q16.59-0.04 12.23 0L12.23 0ZM12.39-11.14L7.56-11.14L7.56-4.24L12.08-4.24Q13.94-4.24 14.99-5.12Q16.03-6.01 16.03-7.58L16.03-7.58Q16.03-11.09 12.39-11.14L12.39-11.14ZM7.56-21.32L7.56-14.87L11.46-14.87Q15.45-14.94 15.45-18.05L15.45-18.05Q15.45-19.79 14.44-20.56Q13.43-21.32 11.25-21.32L11.25-21.32L7.56-21.32ZM29.88-11.07L29.88-15.05L32.59-15.05Q34.52-15.05 35.46-16.01Q36.39-16.98 36.39-18.58L36.39-18.58Q36.39-20.13 35.46-20.99Q34.54-21.85 32.92-21.85L32.92-21.85Q31.46-21.85 30.48-21.05Q29.50-20.25 29.50-18.97L29.50-18.97L24.42-18.97Q24.42-20.97 25.50-22.56Q26.58-24.15 28.52-25.05Q30.46-25.95 32.80-25.95L32.80-25.95Q36.86-25.95 39.16-24.00Q41.47-22.06 41.47-18.65L41.47-18.65Q41.47-16.89 40.39-15.42Q39.32-13.94 37.58-13.15L37.58-13.15Q39.74-12.38 40.81-10.83Q41.87-9.28 41.87-7.17L41.87-7.17Q41.87-3.76 39.38-1.71Q36.90 0.35 32.80 0.35L32.80 0.35Q28.97 0.35 26.53-1.67Q24.10-3.69 24.10-7.01L24.10-7.01L29.18-7.01Q29.18-5.57 30.26-4.66Q31.34-3.74 32.92-3.74L32.92-3.74Q34.73-3.74 35.76-4.70Q36.79-5.66 36.79-7.24L36.79-7.24Q36.79-11.07 32.57-11.07L32.57-11.07L29.88-11.07Z" fill="#343434" />
            </g>
        </svg>
    