
        <svg width="64" height="64" xmlns="http://www.w3.org/2000/svg">
            <circle cx="32" cy="32" r="32" fill="#FFAA00" />
            <g transform="translate(15.2998046875 41.953125)">
                <path d="M13.30-6.63L17.40-6.63Q17.17-3.42 15.03-1.57Q12.89 0.27 9.39 0.27L9.39 0.27Q5.56 0.27 3.37-2.30Q1.18-4.88 1.18-9.38L1.18-9.38L1.18-10.60Q1.18-13.47 2.19-15.65Q3.20-17.84 5.08-19.01Q6.96-20.18 9.45-20.18L9.45-20.18Q12.89-20.18 15.00-18.33Q17.10-16.49 17.43-13.15L17.43-13.15L13.33-13.15Q13.18-15.08 12.26-15.95Q11.33-16.82 9.45-16.82L9.45-16.82Q7.40-16.82 6.38-15.35Q5.36-13.88 5.33-10.79L5.33-10.79L5.33-9.28Q5.33-6.06 6.31-4.57Q7.29-3.08 9.39-3.08L9.39-3.08Q11.29-3.08 12.23-3.94Q13.17-4.81 13.30-6.63L13.30-6.63ZM28.12-6.13L28.12-19.91L32.22-19.91L32.22-6.13Q32.22-4.22 31.38-2.77Q30.54-1.31 29.01-0.52Q27.48 0.27 25.55 0.27L25.55 0.27Q22.39 0.27 20.63-1.33Q18.87-2.94 18.87-5.88L18.87-5.88L23.00-5.88Q23.00-4.42 23.61-3.72Q24.23-3.02 25.55-3.02L25.55-3.02Q26.73-3.02 27.43-3.83Q28.12-4.63 28.12-6.13L28.12-6.13Z" fill="#343434" />
            </g>
        </svg>
    