
        <svg width="64" height="64" xmlns="http://www.w3.org/2000/svg">
            <circle cx="32" cy="32" r="32" fill="#FFAA00" />
            <g transform="translate(8.1220703125 41.953125)">
                <path d="M5.88-19.91L5.88-3.29L14.59-3.29L14.59 0L1.78 0L1.78-19.91L5.88-19.91ZM29.49-14.62L29.49-14.62Q29.49-13.17 28.77-12.04Q28.04-10.92 26.77-10.25L26.77-10.25Q28.22-9.56 29.07-8.33Q29.91-7.11 29.91-5.46L29.91-5.46Q29.91-2.80 28.11-1.26Q26.30 0.27 23.20 0.27Q20.10 0.27 18.28-1.27Q16.46-2.82 16.46-5.46L16.46-5.46Q16.46-7.11 17.31-8.34Q18.16-9.57 19.59-10.25L19.59-10.25Q18.32-10.92 17.60-12.04Q16.88-13.17 16.88-14.62L16.88-14.62Q16.88-17.16 18.58-18.67Q20.28-20.18 23.19-20.18L23.19-20.18Q26.09-20.18 27.79-18.68Q29.49-17.19 29.49-14.62ZM25.95-5.74L25.95-5.74Q25.95-7.04 25.20-7.82Q24.45-8.60 23.17-8.60L23.17-8.60Q21.92-8.60 21.16-7.83Q20.41-7.05 20.41-5.74L20.41-5.74Q20.41-4.47 21.15-3.69Q21.89-2.91 23.20-2.91L23.20-2.91Q24.49-2.91 25.22-3.66Q25.95-4.42 25.95-5.74ZM25.54-14.42L25.54-14.42Q25.54-15.59 24.92-16.29Q24.31-16.99 23.19-16.99L23.19-16.99Q22.08-16.99 21.46-16.31Q20.85-15.63 20.85-14.42L20.85-14.42Q20.85-13.23 21.46-12.51Q22.08-11.79 23.20-11.79Q24.32-11.79 24.93-12.51Q25.54-13.23 25.54-14.42ZM45.55-14.62L45.55-14.62Q45.55-13.17 44.83-12.04Q44.11-10.92 42.83-10.25L42.83-10.25Q44.28-9.56 45.13-8.33Q45.98-7.11 45.98-5.46L45.98-5.46Q45.98-2.80 44.17-1.26Q42.37 0.27 39.27 0.27Q36.16 0.27 34.34-1.27Q32.53-2.82 32.53-5.46L32.53-5.46Q32.53-7.11 33.37-8.34Q34.22-9.57 35.66-10.25L35.66-10.25Q34.38-10.92 33.67-12.04Q32.95-13.17 32.95-14.62L32.95-14.62Q32.95-17.16 34.64-18.67Q36.34-20.18 39.25-20.18L39.25-20.18Q42.15-20.18 43.85-18.68Q45.55-17.19 45.55-14.62ZM42.01-5.74L42.01-5.74Q42.01-7.04 41.26-7.82Q40.51-8.60 39.24-8.60L39.24-8.60Q37.98-8.60 37.23-7.83Q36.48-7.05 36.48-5.74L36.48-5.74Q36.48-4.47 37.21-3.69Q37.95-2.91 39.27-2.91L39.27-2.91Q40.55-2.91 41.28-3.66Q42.01-4.42 42.01-5.74ZM41.60-14.42L41.60-14.42Q41.60-15.59 40.99-16.29Q40.37-16.99 39.25-16.99L39.25-16.99Q38.14-16.99 37.53-16.31Q36.91-15.63 36.91-14.42L36.91-14.42Q36.91-13.23 37.53-12.51Q38.14-11.79 39.27-11.79Q40.39-11.79 41.00-12.51Q41.60-13.23 41.60-14.42Z" fill="#343434" />
            </g>
        </svg>
    