
        <svg width="64" height="64" xmlns="http://www.w3.org/2000/svg">
            <circle cx="32" cy="32" r="32" fill="#FFAA00" />
            <g transform="translate(14.7255859375 41.81640625)">
                <path d="M9.52 0L1.78 0L1.78-19.91L8.75-19.91Q12.37-19.91 14.25-18.52Q16.12-17.13 16.12-14.45L16.12-14.45Q16.12-12.99 15.37-11.87Q14.62-10.76 13.28-10.24L13.28-10.24Q14.81-9.86 15.69-8.70Q16.57-7.53 16.57-5.85L16.57-5.85Q16.57-2.98 14.74-1.50Q12.91-0.03 9.52 0L9.52 0ZM9.64-8.67L5.88-8.67L5.88-3.29L9.39-3.29Q10.84-3.29 11.66-3.99Q12.47-4.68 12.47-5.89L12.47-5.89Q12.47-8.63 9.64-8.67L9.64-8.67ZM5.88-16.58L5.88-11.57L8.91-11.57Q12.02-11.62 12.02-14.04L12.02-14.04Q12.02-15.39 11.23-15.99Q10.45-16.58 8.75-16.58L8.75-16.58L5.88-16.58ZM22.96-9.01L19.81-9.79L20.96-19.91L32.12-19.91L32.12-16.61L24.20-16.61L23.71-12.33Q25.12-13.08 26.70-13.08L26.70-13.08Q29.54-13.08 31.16-11.32Q32.77-9.56 32.77-6.38L32.77-6.38Q32.77-4.46 31.96-2.93Q31.14-1.41 29.63-0.57Q28.11 0.27 26.04 0.27L26.04 0.27Q24.24 0.27 22.70-0.46Q21.15-1.19 20.25-2.52Q19.36-3.84 19.30-5.54L19.30-5.54L23.21-5.54Q23.34-4.29 24.08-3.60Q24.83-2.91 26.03-2.91L26.03-2.91Q27.37-2.91 28.10-3.88Q28.82-4.84 28.82-6.60L28.82-6.60Q28.82-8.30 27.99-9.20Q27.15-10.10 25.62-10.10L25.62-10.10Q24.21-10.10 23.34-9.37L23.34-9.37L22.96-9.01Z" fill="#343434" />
            </g>
        </svg>
    