
        <svg width="64" height="64" xmlns="http://www.w3.org/2000/svg">
            <circle cx="32" cy="32" r="32" fill="#FFAA00" />
            <g transform="translate(11.396484375 41.81640625)">
                <path d="M1.78-19.91L7.14-19.91L12.25-5.47L17.34-19.91L22.72-19.91L22.72 0L18.61 0L18.61-5.44L19.02-14.83L13.64 0L10.83 0L5.47-14.82L5.88-5.44L5.88 0L1.78 0L1.78-19.91ZM29.61-9.01L26.47-9.79L27.62-19.91L38.77-19.91L38.77-16.61L30.86-16.61L30.37-12.33Q31.77-13.08 33.36-13.08L33.36-13.08Q36.20-13.08 37.82-11.32Q39.43-9.56 39.43-6.38L39.43-6.38Q39.43-4.46 38.62-2.93Q37.80-1.41 36.29-0.57Q34.77 0.27 32.70 0.27L32.70 0.27Q30.90 0.27 29.35-0.46Q27.81-1.19 26.91-2.52Q26.02-3.84 25.96-5.54L25.96-5.54L29.87-5.54Q30.00-4.29 30.74-3.60Q31.49-2.91 32.69-2.91L32.69-2.91Q34.03-2.91 34.75-3.88Q35.48-4.84 35.48-6.60L35.48-6.60Q35.48-8.30 34.64-9.20Q33.81-10.10 32.28-10.10L32.28-10.10Q30.87-10.10 30.00-9.37L30.00-9.37L29.61-9.01Z" fill="#343434" />
            </g>
        </svg>
    