
        <svg width="64" height="64" xmlns="http://www.w3.org/2000/svg">
            <circle cx="32" cy="32" r="32" fill="#FFAA00" />
            <g transform="translate(9.1064453125 41.953125)">
                <path d="M13.30-6.63L17.40-6.63Q17.17-3.42 15.03-1.57Q12.89 0.27 9.39 0.27L9.39 0.27Q5.56 0.27 3.37-2.30Q1.18-4.88 1.18-9.38L1.18-9.38L1.18-10.60Q1.18-13.47 2.19-15.65Q3.20-17.84 5.08-19.01Q6.96-20.18 9.45-20.18L9.45-20.18Q12.89-20.18 15.00-18.33Q17.10-16.49 17.43-13.15L17.43-13.15L13.33-13.15Q13.18-15.08 12.26-15.95Q11.33-16.82 9.45-16.82L9.45-16.82Q7.40-16.82 6.38-15.35Q5.36-13.88 5.33-10.79L5.33-10.79L5.33-9.28Q5.33-6.06 6.31-4.57Q7.29-3.08 9.39-3.08L9.39-3.08Q11.29-3.08 12.23-3.94Q13.17-4.81 13.30-6.63L13.30-6.63ZM32.07-11.44L32.07-8.13L24.20-8.13L24.20 0L20.10 0L20.10-19.91L33.06-19.91L33.06-16.58L24.20-16.58L24.20-11.44L32.07-11.44ZM44.61-19.93L44.61 0L40.66 0L40.66-15.23L35.94-13.77L35.94-16.98L44.19-19.93L44.61-19.93Z" fill="#343434" />
            </g>
        </svg>
    