
        <svg width="64" height="64" xmlns="http://www.w3.org/2000/svg">
            <circle cx="32" cy="32" r="32" fill="#FFAA00" />
            <g transform="translate(3.5146484375 41.994140625)">
                <path d="M1.78-19.91L7.14-19.91L12.25-5.47L17.34-19.91L22.72-19.91L22.72 0L18.61 0L18.61-5.44L19.02-14.83L13.64 0L10.83 0L5.47-14.82L5.88-5.44L5.88 0L1.78 0L1.78-19.91ZM35.48-19.93L35.48 0L31.53 0L31.53-15.23L26.81-13.77L26.81-16.98L35.05-19.93L35.48-19.93ZM51.19-7.96L51.19-7.96Q49.64-6.44 47.58-6.44L47.58-6.44Q44.94-6.44 43.35-8.25Q41.77-10.06 41.77-13.14L41.77-13.14Q41.77-15.09 42.62-16.73Q43.48-18.36 45.01-19.27Q46.54-20.18 48.45-20.18L48.45-20.18Q50.42-20.18 51.95-19.20Q53.48-18.21 54.33-16.37Q55.18-14.52 55.19-12.14L55.19-12.14L55.19-10.68Q55.19-5.70 52.72-2.86Q50.24-0.01 45.71 0.18L45.71 0.18L44.73 0.19L44.73-3.10L45.61-3.12Q50.76-3.35 51.19-7.96ZM48.55-9.46L48.55-9.46Q49.51-9.46 50.20-9.95Q50.89-10.45 51.24-11.14L51.24-11.14L51.24-12.77Q51.24-14.78 50.48-15.89Q49.71-16.99 48.43-16.99L48.43-16.99Q47.24-16.99 46.47-15.91Q45.71-14.82 45.71-13.18L45.71-13.18Q45.71-11.55 46.45-10.51Q47.20-9.46 48.55-9.46Z" fill="#343434" />
            </g>
        </svg>
    