
        <svg width="64" height="64" xmlns="http://www.w3.org/2000/svg">
            <circle cx="32" cy="32" r="32" fill="#0062A1" />
            <g transform="translate(13.775390625 41.81640625)">
                <path d="M17.96-19.91L17.96 0L13.86 0L5.88-13.10L5.88 0L1.78 0L1.78-19.91L5.88-19.91L13.88-6.78L13.88-19.91L17.96-19.91ZM24.86-9.01L21.71-9.79L22.86-19.91L34.02-19.91L34.02-16.61L26.10-16.61L25.61-12.33Q27.02-13.08 28.60-13.08L28.60-13.08Q31.45-13.08 33.06-11.32Q34.67-9.56 34.67-6.38L34.67-6.38Q34.67-4.46 33.86-2.93Q33.04-1.41 31.53-0.57Q30.01 0.27 27.95 0.27L27.95 0.27Q26.14 0.27 24.60-0.46Q23.05-1.19 22.16-2.52Q21.26-3.84 21.21-5.54L21.21-5.54L25.12-5.54Q25.24-4.29 25.98-3.60Q26.73-2.91 27.93-2.91L27.93-2.91Q29.27-2.91 30.00-3.88Q30.72-4.84 30.72-6.60L30.72-6.60Q30.72-8.30 29.89-9.20Q29.05-10.10 27.52-10.10L27.52-10.10Q26.11-10.10 25.24-9.37L25.24-9.37L24.86-9.01Z" fill="#FFFFFF" />
            </g>
        </svg>
    