
        <svg width="64" height="64" xmlns="http://www.w3.org/2000/svg">
            <circle cx="32" cy="32" r="32" fill="#FFAA00" />
            <g transform="translate(5.9140625 41.953125)">
                <path d="M13.75-11.84L13.75-8.63L5.88-8.63L5.88-3.29L15.12-3.29L15.12 0L1.78 0L1.78-19.91L15.09-19.91L15.09-16.58L5.88-16.58L5.88-11.84L13.75-11.84ZM27.85-5.22L27.85-5.22Q27.85-6.38 27.03-7.01Q26.21-7.63 24.08-8.32Q21.94-9.01 20.70-9.68L20.70-9.68Q17.31-11.51 17.31-14.62L17.31-14.62Q17.31-16.23 18.22-17.49Q19.13-18.76 20.83-19.47Q22.53-20.18 24.65-20.18L24.65-20.18Q26.78-20.18 28.45-19.41Q30.12-18.63 31.04-17.23Q31.96-15.82 31.96-14.03L31.96-14.03L27.86-14.03Q27.86-15.39 27.00-16.15Q26.14-16.91 24.58-16.91L24.58-16.91Q23.08-16.91 22.24-16.28Q21.41-15.64 21.41-14.60L21.41-14.60Q21.41-13.63 22.39-12.97Q23.37-12.32 25.27-11.74L25.27-11.74Q28.77-10.69 30.37-9.13Q31.96-7.57 31.96-5.25L31.96-5.25Q31.96-2.67 30.01-1.20Q28.05 0.27 24.75 0.27L24.75 0.27Q22.45 0.27 20.56-0.57Q18.68-1.41 17.68-2.87Q16.69-4.33 16.69-6.26L16.69-6.26L20.81-6.26Q20.81-2.97 24.75-2.97L24.75-2.97Q26.21-2.97 27.03-3.56Q27.85-4.16 27.85-5.22ZM46.27-6.63L50.37-6.63Q50.13-3.42 48.00-1.57Q45.86 0.27 42.36 0.27L42.36 0.27Q38.53 0.27 36.33-2.30Q34.14-4.88 34.14-9.38L34.14-9.38L34.14-10.60Q34.14-13.47 35.15-15.65Q36.16-17.84 38.04-19.01Q39.92-20.18 42.41-20.18L42.41-20.18Q45.86-20.18 47.96-18.33Q50.07-16.49 50.39-13.15L50.39-13.15L46.29-13.15Q46.14-15.08 45.22-15.95Q44.30-16.82 42.41-16.82L42.41-16.82Q40.36-16.82 39.34-15.35Q38.32-13.88 38.29-10.79L38.29-10.79L38.29-9.28Q38.29-6.06 39.27-4.57Q40.25-3.08 42.36-3.08L42.36-3.08Q44.26-3.08 45.19-3.94Q46.13-4.81 46.27-6.63L46.27-6.63Z" fill="#343434" />
            </g>
        </svg>
    