
        <svg width="64" height="64" xmlns="http://www.w3.org/2000/svg">
            <circle cx="32" cy="32" r="32" fill="#0062A1" />
            <g transform="translate(5.8935546875 41.994140625)">
                <path d="M17.96-19.91L17.96 0L13.86 0L5.88-13.10L5.88 0L1.78 0L1.78-19.91L5.88-19.91L13.88-6.78L13.88-19.91L17.96-19.91ZM30.72-19.93L30.72 0L26.77 0L26.77-15.23L22.05-13.77L22.05-16.98L30.30-19.93L30.72-19.93ZM46.43-7.96L46.43-7.96Q44.88-6.44 42.82-6.44L42.82-6.44Q40.18-6.44 38.60-8.25Q37.01-10.06 37.01-13.14L37.01-13.14Q37.01-15.09 37.86-16.73Q38.72-18.36 40.25-19.27Q41.78-20.18 43.70-20.18L43.70-20.18Q45.66-20.18 47.20-19.20Q48.73-18.21 49.57-16.37Q50.42-14.52 50.44-12.14L50.44-12.14L50.44-10.68Q50.44-5.70 47.96-2.86Q45.49-0.01 40.95 0.18L40.95 0.18L39.98 0.19L39.98-3.10L40.85-3.12Q46.01-3.35 46.43-7.96ZM43.79-9.46L43.79-9.46Q44.75-9.46 45.44-9.95Q46.13-10.45 46.48-11.14L46.48-11.14L46.48-12.77Q46.48-14.78 45.72-15.89Q44.95-16.99 43.67-16.99L43.67-16.99Q42.48-16.99 41.71-15.91Q40.95-14.82 40.95-13.18L40.95-13.18Q40.95-11.55 41.69-10.51Q42.44-9.46 43.79-9.46Z" fill="#FCFCFC" />
            </g>
        </svg>
    