
        <svg width="64" height="64" xmlns="http://www.w3.org/2000/svg">
            <circle cx="32" cy="32" r="32" fill="#FFAA00" />
            <g transform="translate(8.046875 41.953125)">
                <path d="M5.88-19.91L5.88-3.29L14.59-3.29L14.59 0L1.78 0L1.78-19.91L5.88-19.91ZM25.76-7.96L25.76-7.96Q24.21-6.44 22.15-6.44L22.15-6.44Q19.51-6.44 17.92-8.25Q16.34-10.06 16.34-13.14L16.34-13.14Q16.34-15.09 17.19-16.73Q18.05-18.36 19.58-19.27Q21.11-20.18 23.02-20.18L23.02-20.18Q24.99-20.18 26.52-19.20Q28.05-18.21 28.90-16.37Q29.75-14.52 29.76-12.14L29.76-12.14L29.76-10.68Q29.76-5.70 27.29-2.86Q24.81-0.01 20.28 0.18L20.28 0.18L19.30 0.19L19.30-3.10L20.18-3.12Q25.33-3.35 25.76-7.96ZM23.12-9.46L23.12-9.46Q24.08-9.46 24.77-9.95Q25.46-10.45 25.81-11.14L25.81-11.14L25.81-12.77Q25.81-14.78 25.05-15.89Q24.28-16.99 23.00-16.99L23.00-16.99Q21.81-16.99 21.04-15.91Q20.28-14.82 20.28-13.18L20.28-13.18Q20.28-11.55 21.02-10.51Q21.77-9.46 23.12-9.46ZM36.31-9.01L33.17-9.79L34.32-19.91L45.47-19.91L45.47-16.61L37.56-16.61L37.06-12.33Q38.47-13.08 40.06-13.08L40.06-13.08Q42.90-13.08 44.52-11.32Q46.13-9.56 46.13-6.38L46.13-6.38Q46.13-4.46 45.32-2.93Q44.50-1.41 42.98-0.57Q41.47 0.27 39.40 0.27L39.40 0.27Q37.60 0.27 36.05-0.46Q34.51-1.19 33.61-2.52Q32.72-3.84 32.66-5.54L32.66-5.54L36.57-5.54Q36.70-4.29 37.44-3.60Q38.19-2.91 39.39-2.91L39.39-2.91Q40.73-2.91 41.45-3.88Q42.18-4.84 42.18-6.60L42.18-6.60Q42.18-8.30 41.34-9.20Q40.51-10.10 38.98-10.10L38.98-10.10Q37.57-10.10 36.70-9.37L36.70-9.37L36.31-9.01Z" fill="#343434" />
            </g>
        </svg>
    