
        <svg width="64" height="64" xmlns="http://www.w3.org/2000/svg">
            <circle cx="32" cy="32" r="32" fill="#FFAA00" />
            <g transform="translate(6.419921875 41.953125)">
                <path d="M12.10-5.22L12.10-5.22Q12.10-6.38 11.28-7.01Q10.46-7.63 8.33-8.32Q6.19-9.01 4.95-9.68L4.95-9.68Q1.56-11.51 1.56-14.62L1.56-14.62Q1.56-16.23 2.47-17.49Q3.38-18.76 5.08-19.47Q6.78-20.18 8.90-20.18L8.90-20.18Q11.03-20.18 12.70-19.41Q14.37-18.63 15.29-17.23Q16.21-15.82 16.21-14.03L16.21-14.03L12.11-14.03Q12.11-15.39 11.25-16.15Q10.39-16.91 8.83-16.91L8.83-16.91Q7.33-16.91 6.49-16.28Q5.66-15.64 5.66-14.60L5.66-14.60Q5.66-13.63 6.64-12.97Q7.62-12.32 9.52-11.74L9.52-11.74Q13.02-10.69 14.62-9.13Q16.21-7.57 16.21-5.25L16.21-5.25Q16.21-2.67 14.26-1.20Q12.30 0.27 9.00 0.27L9.00 0.27Q6.70 0.27 4.81-0.57Q2.93-1.41 1.93-2.87Q0.94-4.33 0.94-6.26L0.94-6.26L5.06-6.26Q5.06-2.97 9.00-2.97L9.00-2.97Q10.46-2.97 11.28-3.56Q12.10-4.16 12.10-5.22ZM21.86-19.91L26.35-4.94L30.86-19.91L35.42-19.91L28.49 0L24.21 0L17.31-19.91L21.86-19.91ZM40.89-8.61L40.89-11.70L43.00-11.70Q44.50-11.70 45.23-12.46Q45.95-13.21 45.95-14.45L45.95-14.45Q45.95-15.65 45.23-16.32Q44.52-16.99 43.26-16.99L43.26-16.99Q42.12-16.99 41.36-16.37Q40.59-15.75 40.59-14.75L40.59-14.75L36.64-14.75Q36.64-16.31 37.48-17.55Q38.32-18.79 39.83-19.48Q41.34-20.18 43.16-20.18L43.16-20.18Q46.32-20.18 48.11-18.67Q49.90-17.16 49.90-14.51L49.90-14.51Q49.90-13.14 49.07-11.99Q48.23-10.84 46.88-10.23L46.88-10.23Q48.56-9.63 49.39-8.42Q50.22-7.22 50.22-5.58L50.22-5.58Q50.22-2.93 48.28-1.33Q46.35 0.27 43.16 0.27L43.16 0.27Q40.18 0.27 38.29-1.30Q36.39-2.87 36.39-5.46L36.39-5.46L40.35-5.46Q40.35-4.33 41.19-3.62Q42.03-2.91 43.26-2.91L43.26-2.91Q44.67-2.91 45.47-3.66Q46.27-4.40 46.27-5.63L46.27-5.63Q46.27-8.61 42.98-8.61L42.98-8.61L40.89-8.61Z" fill="#343434" />
            </g>
        </svg>
    