
        <svg width="64" height="64" xmlns="http://www.w3.org/2000/svg">
            <circle cx="32" cy="32" r="32" fill="#FFAA00" />
            <g transform="translate(5.6474609375 42.08984375)">
                <path d="M9.47-7.01L5.88-7.01L5.88 0L1.78 0L1.78-19.91L9.54-19.91Q11.79-19.91 13.49-19.09Q15.19-18.27 16.11-16.75Q17.02-15.24 17.02-13.32L17.02-13.32Q17.02-10.39 15.02-8.70Q13.02-7.01 9.47-7.01L9.47-7.01ZM5.88-16.58L5.88-10.34L9.54-10.34Q11.17-10.34 12.02-11.10Q12.88-11.87 12.88-13.29L12.88-13.29Q12.88-14.75 12.02-15.65Q11.16-16.56 9.64-16.58L9.64-16.58L5.88-16.58ZM30.94 0L27.21-7.29L23.94-7.29L23.94 0L19.84 0L19.84-19.91L27.23-19.91Q30.76-19.91 32.68-18.33Q34.59-16.76 34.59-13.89L34.59-13.89Q34.59-11.85 33.71-10.49Q32.83-9.13 31.04-8.33L31.04-8.33L35.34-0.19L35.34 0L30.94 0ZM23.94-16.58L23.94-10.61L27.25-10.61Q28.79-10.61 29.64-11.40Q30.49-12.18 30.49-13.56L30.49-13.56Q30.49-14.97 29.69-15.78Q28.89-16.58 27.23-16.58L27.23-16.58L23.94-16.58ZM50.93-3.19L50.93 0L37.28 0L37.28-2.71L43.72-9.57Q45.05-11.02 45.68-12.10Q46.32-13.18 46.32-14.15L46.32-14.15Q46.32-15.48 45.65-16.24Q44.98-16.99 43.74-16.99L43.74-16.99Q42.40-16.99 41.62-16.07Q40.85-15.15 40.85-13.64L40.85-13.64L36.89-13.64Q36.89-15.46 37.75-16.97Q38.62-18.47 40.21-19.33Q41.79-20.18 43.80-20.18L43.80-20.18Q46.88-20.18 48.58-18.70Q50.29-17.23 50.29-14.53L50.29-14.53Q50.29-13.06 49.52-11.53Q48.75-9.99 46.89-7.96L46.89-7.96L42.37-3.19L50.93-3.19Z" fill="#343434" />
            </g>
        </svg>
    