
        <svg width="64" height="64" xmlns="http://www.w3.org/2000/svg">
            <circle cx="32" cy="32" r="32" fill="#0062A1" />
            <g transform="translate(5.7431640625 41.830078125)">
                <path d="M17.96-19.91L17.96 0L13.86 0L5.88-13.10L5.88 0L1.78 0L1.78-19.91L5.88-19.91L13.88-6.78L13.88-19.91L17.96-19.91ZM30.72-19.93L30.72 0L26.77 0L26.77-15.23L22.05-13.77L22.05-16.98L30.30-19.93L30.72-19.93ZM40.92-9.01L37.78-9.79L38.92-19.91L50.08-19.91L50.08-16.61L42.16-16.61L41.67-12.33Q43.08-13.08 44.67-13.08L44.67-13.08Q47.51-13.08 49.12-11.32Q50.74-9.56 50.74-6.38L50.74-6.38Q50.74-4.46 49.92-2.93Q49.11-1.41 47.59-0.57Q46.07 0.27 44.01 0.27L44.01 0.27Q42.21 0.27 40.66-0.46Q39.12-1.19 38.22-2.52Q37.32-3.84 37.27-5.54L37.27-5.54L41.18-5.54Q41.30-4.29 42.05-3.60Q42.79-2.91 44.00-2.91L44.00-2.91Q45.34-2.91 46.06-3.88Q46.79-4.84 46.79-6.60L46.79-6.60Q46.79-8.30 45.95-9.20Q45.12-10.10 43.59-10.10L43.59-10.10Q42.18-10.10 41.30-9.37L41.30-9.37L40.92-9.01Z" fill="#FFFFFF" />
            </g>
        </svg>
    