
        <svg width="64" height="64" xmlns="http://www.w3.org/2000/svg">
            <circle cx="32" cy="32" r="32" fill="#FFAA00" />
            <g transform="translate(7.6708984375 41.966796875)">
                <path d="M9.47-7.01L5.88-7.01L5.88 0L1.78 0L1.78-19.91L9.54-19.91Q11.79-19.91 13.49-19.09Q15.19-18.27 16.11-16.75Q17.02-15.24 17.02-13.32L17.02-13.32Q17.02-10.39 15.02-8.70Q13.02-7.01 9.47-7.01L9.47-7.01ZM5.88-16.58L5.88-10.34L9.54-10.34Q11.17-10.34 12.02-11.10Q12.88-11.87 12.88-13.29L12.88-13.29Q12.88-14.75 12.02-15.65Q11.16-16.56 9.64-16.58L9.64-16.58L5.88-16.58ZM30.94 0L27.21-7.29L23.94-7.29L23.94 0L19.84 0L19.84-19.91L27.23-19.91Q30.76-19.91 32.68-18.33Q34.59-16.76 34.59-13.89L34.59-13.89Q34.59-11.85 33.71-10.49Q32.83-9.13 31.04-8.33L31.04-8.33L35.34-0.19L35.34 0L30.94 0ZM23.94-16.58L23.94-10.61L27.25-10.61Q28.79-10.61 29.64-11.40Q30.49-12.18 30.49-13.56L30.49-13.56Q30.49-14.97 29.69-15.78Q28.89-16.58 27.23-16.58L27.23-16.58L23.94-16.58ZM46.88-19.93L46.88 0L42.93 0L42.93-15.23L38.21-13.77L38.21-16.98L46.46-19.93L46.88-19.93Z" fill="#343434" />
            </g>
        </svg>
    