
        <svg width="64" height="64" xmlns="http://www.w3.org/2000/svg">
            <circle cx="32" cy="32" r="32" fill="#FFAA00" />
            <g transform="translate(3.439453125 41.953125)">
                <path d="M1.78-19.91L7.14-19.91L12.25-5.47L17.34-19.91L22.72-19.91L22.72 0L18.61 0L18.61-5.44L19.02-14.83L13.64 0L10.83 0L5.47-14.82L5.88-5.44L5.88 0L1.78 0L1.78-19.91ZM39.53-3.19L39.53 0L25.88 0L25.88-2.71L32.32-9.57Q33.65-11.02 34.28-12.10Q34.92-13.18 34.92-14.15L34.92-14.15Q34.92-15.48 34.25-16.24Q33.58-16.99 32.33-16.99L32.33-16.99Q30.99-16.99 30.22-16.07Q29.45-15.15 29.45-13.64L29.45-13.64L25.48-13.64Q25.48-15.46 26.35-16.97Q27.22-18.47 28.81-19.33Q30.39-20.18 32.40-20.18L32.40-20.18Q35.48-20.18 37.18-18.70Q38.88-17.23 38.88-14.53L38.88-14.53Q38.88-13.06 38.12-11.53Q37.35-9.99 35.49-7.96L35.49-7.96L30.97-3.19L39.53-3.19ZM54.92-14.62L54.92-14.62Q54.92-13.17 54.20-12.04Q53.47-10.92 52.20-10.25L52.20-10.25Q53.65-9.56 54.50-8.33Q55.34-7.11 55.34-5.46L55.34-5.46Q55.34-2.80 53.54-1.26Q51.73 0.27 48.63 0.27Q45.53 0.27 43.71-1.27Q41.89-2.82 41.89-5.46L41.89-5.46Q41.89-7.11 42.74-8.34Q43.59-9.57 45.02-10.25L45.02-10.25Q43.75-10.92 43.03-12.04Q42.31-13.17 42.31-14.62L42.31-14.62Q42.31-17.16 44.01-18.67Q45.71-20.18 48.62-20.18L48.62-20.18Q51.52-20.18 53.22-18.68Q54.92-17.19 54.92-14.62ZM51.38-5.74L51.38-5.74Q51.38-7.04 50.63-7.82Q49.88-8.60 48.60-8.60L48.60-8.60Q47.35-8.60 46.59-7.83Q45.84-7.05 45.84-5.74L45.84-5.74Q45.84-4.47 46.58-3.69Q47.32-2.91 48.63-2.91L48.63-2.91Q49.92-2.91 50.65-3.66Q51.38-4.42 51.38-5.74ZM50.97-14.42L50.97-14.42Q50.97-15.59 50.35-16.29Q49.74-16.99 48.62-16.99L48.62-16.99Q47.51-16.99 46.89-16.31Q46.28-15.63 46.28-14.42L46.28-14.42Q46.28-13.23 46.89-12.51Q47.51-11.79 48.63-11.79Q49.75-11.79 50.36-12.51Q50.97-13.23 50.97-14.42Z" fill="#343434" />
            </g>
        </svg>
    