
        <svg width="64" height="64" viewBox="0 0 64 64" xmlns="http://www.w3.org/2000/svg">
            <circle cx="32" cy="32" r="32" fill="#FFAA00" />
            <g transform="translate(4.5341796875 42.810546875)">
                <path d="M4.98-21.33L9.79-5.29L14.62-21.33L19.51-21.33L12.08 0L7.50 0L0.10-21.33L4.98-21.33ZM29.81 0L21.52 0L21.52-21.33L28.99-21.33Q32.87-21.33 34.88-19.84Q36.88-18.35 36.88-15.48L36.88-15.48Q36.88-13.92 36.08-12.72Q35.27-11.53 33.84-10.97L33.84-10.97Q35.48-10.56 36.42-9.32Q37.37-8.07 37.37-6.27L37.37-6.27Q37.37-3.19 35.41-1.61Q33.44-0.03 29.81 0L29.81 0ZM29.94-9.29L25.91-9.29L25.91-3.53L29.68-3.53Q31.23-3.53 32.10-4.27Q32.97-5.01 32.97-6.31L32.97-6.31Q32.97-9.24 29.94-9.29L29.94-9.29ZM25.91-17.77L25.91-12.39L29.17-12.39Q32.49-12.45 32.49-15.04L32.49-15.04Q32.49-16.49 31.65-17.13Q30.81-17.77 28.99-17.77L28.99-17.77L25.91-17.77ZM54.83-3.41L54.83 0L40.21 0L40.21-2.90L47.11-10.25Q48.53-11.81 49.21-12.96Q49.89-14.12 49.89-15.16L49.89-15.16Q49.89-16.58 49.17-17.40Q48.46-18.21 47.12-18.21L47.12-18.21Q45.69-18.21 44.86-17.22Q44.03-16.23 44.03-14.62L44.03-14.62L39.79-14.62Q39.79-16.57 40.72-18.18Q41.65-19.79 43.34-20.71Q45.04-21.62 47.20-21.62L47.20-21.62Q50.49-21.62 52.32-20.04Q54.14-18.46 54.14-15.57L54.14-15.57Q54.14-13.99 53.32-12.35Q52.50-10.71 50.51-8.53L50.51-8.53L45.66-3.41L54.83-3.41Z" fill="#343434" />
            </g>
        </svg>
    