
        <svg width="64" height="64" xmlns="http://www.w3.org/2000/svg">
            <circle cx="32" cy="32" r="32" fill="#FFAA00" />
            <g transform="translate(6.638671875 41.953125)">
                <path d="M12.10-5.22L12.10-5.22Q12.10-6.38 11.28-7.01Q10.46-7.63 8.33-8.32Q6.19-9.01 4.95-9.68L4.95-9.68Q1.56-11.51 1.56-14.62L1.56-14.62Q1.56-16.23 2.47-17.49Q3.38-18.76 5.08-19.47Q6.78-20.18 8.90-20.18L8.90-20.18Q11.03-20.18 12.70-19.41Q14.37-18.63 15.29-17.23Q16.21-15.82 16.21-14.03L16.21-14.03L12.11-14.03Q12.11-15.39 11.25-16.15Q10.39-16.91 8.83-16.91L8.83-16.91Q7.33-16.91 6.49-16.28Q5.66-15.64 5.66-14.60L5.66-14.60Q5.66-13.63 6.64-12.97Q7.62-12.32 9.52-11.74L9.52-11.74Q13.02-10.69 14.62-9.13Q16.21-7.57 16.21-5.25L16.21-5.25Q16.21-2.67 14.26-1.20Q12.30 0.27 9.00 0.27L9.00 0.27Q6.70 0.27 4.81-0.57Q2.93-1.41 1.93-2.87Q0.94-4.33 0.94-6.26L0.94-6.26L5.06-6.26Q5.06-2.97 9.00-2.97L9.00-2.97Q10.46-2.97 11.28-3.56Q12.10-4.16 12.10-5.22ZM26.73 0L18.99 0L18.99-19.91L25.96-19.91Q29.59-19.91 31.46-18.52Q33.33-17.13 33.33-14.45L33.33-14.45Q33.33-12.99 32.58-11.87Q31.83-10.76 30.49-10.24L30.49-10.24Q32.02-9.86 32.90-8.70Q33.78-7.53 33.78-5.85L33.78-5.85Q33.78-2.98 31.95-1.50Q30.12-0.03 26.73 0L26.73 0ZM26.85-8.67L23.09-8.67L23.09-3.29L26.61-3.29Q28.05-3.29 28.87-3.99Q29.68-4.68 29.68-5.89L29.68-5.89Q29.68-8.63 26.85-8.67L26.85-8.67ZM23.09-16.58L23.09-11.57L26.13-11.57Q29.23-11.62 29.23-14.04L29.23-14.04Q29.23-15.39 28.44-15.99Q27.66-16.58 25.96-16.58L25.96-16.58L23.09-16.58ZM40.46-8.61L40.46-11.70L42.56-11.70Q44.06-11.70 44.79-12.46Q45.51-13.21 45.51-14.45L45.51-14.45Q45.51-15.65 44.80-16.32Q44.08-16.99 42.82-16.99L42.82-16.99Q41.69-16.99 40.92-16.37Q40.15-15.75 40.15-14.75L40.15-14.75L36.20-14.75Q36.20-16.31 37.04-17.55Q37.88-18.79 39.40-19.48Q40.91-20.18 42.72-20.18L42.72-20.18Q45.88-20.18 47.67-18.67Q49.46-17.16 49.46-14.51L49.46-14.51Q49.46-13.14 48.63-11.99Q47.80-10.84 46.44-10.23L46.44-10.23Q48.13-9.63 48.95-8.42Q49.78-7.22 49.78-5.58L49.78-5.58Q49.78-2.93 47.84-1.33Q45.91 0.27 42.72 0.27L42.72 0.27Q39.74 0.27 37.85-1.30Q35.96-2.87 35.96-5.46L35.96-5.46L39.91-5.46Q39.91-4.33 40.75-3.62Q41.59-2.91 42.82-2.91L42.82-2.91Q44.23-2.91 45.03-3.66Q45.83-4.40 45.83-5.63L45.83-5.63Q45.83-8.61 42.55-8.61L42.55-8.61L40.46-8.61Z" fill="#343434" />
            </g>
        </svg>
    