
        <svg width="64" height="64" xmlns="http://www.w3.org/2000/svg">
            <circle cx="32" cy="32" r="32" fill="#FFAA00" />
            <g transform="translate(16.017578125 41.953125)">
                <path d="M14.33-14.62L14.33-14.62Q14.33-13.17 13.60-12.04Q12.88-10.92 11.61-10.25L11.61-10.25Q13.06-9.56 13.90-8.33Q14.75-7.11 14.75-5.46L14.75-5.46Q14.75-2.80 12.95-1.26Q11.14 0.27 8.04 0.27Q4.94 0.27 3.12-1.27Q1.30-2.82 1.30-5.46L1.30-5.46Q1.30-7.11 2.15-8.34Q2.99-9.57 4.43-10.25L4.43-10.25Q3.16-10.92 2.44-12.04Q1.72-13.17 1.72-14.62L1.72-14.62Q1.72-17.16 3.42-18.67Q5.11-20.18 8.03-20.18L8.03-20.18Q10.92-20.18 12.63-18.68Q14.33-17.19 14.33-14.62ZM10.79-5.74L10.79-5.74Q10.79-7.04 10.04-7.82Q9.28-8.60 8.01-8.60L8.01-8.60Q6.75-8.60 6.00-7.83Q5.25-7.05 5.25-5.74L5.25-5.74Q5.25-4.47 5.99-3.69Q6.73-2.91 8.04-2.91L8.04-2.91Q9.32-2.91 10.06-3.66Q10.79-4.42 10.79-5.74ZM10.38-14.42L10.38-14.42Q10.38-15.59 9.76-16.29Q9.15-16.99 8.03-16.99L8.03-16.99Q6.92-16.99 6.30-16.31Q5.69-15.63 5.69-14.42L5.69-14.42Q5.69-13.23 6.30-12.51Q6.92-11.79 8.04-11.79Q9.16-11.79 9.77-12.51Q10.38-13.23 10.38-14.42ZM26.66-7.96L26.66-7.96Q25.12-6.44 23.05-6.44L23.05-6.44Q20.41-6.44 18.83-8.25Q17.24-10.06 17.24-13.14L17.24-13.14Q17.24-15.09 18.09-16.73Q18.95-18.36 20.48-19.27Q22.01-20.18 23.93-20.18L23.93-20.18Q25.89-20.18 27.43-19.20Q28.96-18.21 29.80-16.37Q30.65-14.52 30.67-12.14L30.67-12.14L30.67-10.68Q30.67-5.70 28.19-2.86Q25.72-0.01 21.18 0.18L21.18 0.18L20.21 0.19L20.21-3.10L21.08-3.12Q26.24-3.35 26.66-7.96ZM24.02-9.46L24.02-9.46Q24.98-9.46 25.67-9.95Q26.36-10.45 26.71-11.14L26.71-11.14L26.71-12.77Q26.71-14.78 25.95-15.89Q25.18-16.99 23.90-16.99L23.90-16.99Q22.71-16.99 21.94-15.91Q21.18-14.82 21.18-13.18L21.18-13.18Q21.18-11.55 21.92-10.51Q22.67-9.46 24.02-9.46Z" fill="#343434" />
            </g>
        </svg>
    