
        <svg width="64" height="64" xmlns="http://www.w3.org/2000/svg">
            <circle cx="32" cy="32" r="32" fill="#FFAA00" />
            <g transform="translate(6.693359375 41.830078125)">
                <path d="M9.52 0L1.78 0L1.78-19.91L8.75-19.91Q12.37-19.91 14.25-18.52Q16.12-17.13 16.12-14.45L16.12-14.45Q16.12-12.99 15.37-11.87Q14.62-10.76 13.28-10.24L13.28-10.24Q14.81-9.86 15.69-8.70Q16.57-7.53 16.57-5.85L16.57-5.85Q16.57-2.98 14.74-1.50Q12.91-0.03 9.52 0L9.52 0ZM9.64-8.67L5.88-8.67L5.88-3.29L9.39-3.29Q10.84-3.29 11.66-3.99Q12.47-4.68 12.47-5.89L12.47-5.89Q12.47-8.63 9.64-8.67L9.64-8.67ZM5.88-16.58L5.88-11.57L8.91-11.57Q12.02-11.62 12.02-14.04L12.02-14.04Q12.02-15.39 11.23-15.99Q10.45-16.58 8.75-16.58L8.75-16.58L5.88-16.58ZM28.82-19.93L28.82 0L24.87 0L24.87-15.23L20.15-13.77L20.15-16.98L28.40-19.93L28.82-19.93ZM39.02-9.01L35.88-9.79L37.02-19.91L48.18-19.91L48.18-16.61L40.26-16.61L39.77-12.33Q41.18-13.08 42.77-13.08L42.77-13.08Q45.61-13.08 47.22-11.32Q48.84-9.56 48.84-6.38L48.84-6.38Q48.84-4.46 48.02-2.93Q47.21-1.41 45.69-0.57Q44.17 0.27 42.11 0.27L42.11 0.27Q40.30 0.27 38.76-0.46Q37.21-1.19 36.32-2.52Q35.42-3.84 35.37-5.54L35.37-5.54L39.28-5.54Q39.40-4.29 40.15-3.60Q40.89-2.91 42.10-2.91L42.10-2.91Q43.44-2.91 44.16-3.88Q44.88-4.84 44.88-6.60L44.88-6.60Q44.88-8.30 44.05-9.20Q43.22-10.10 41.69-10.10L41.69-10.10Q40.28-10.10 39.40-9.37L39.40-9.37L39.02-9.01Z" fill="#343434" />
            </g>
        </svg>
    