
        <svg width="64" height="64" xmlns="http://www.w3.org/2000/svg">
            <circle cx="32" cy="32" r="32" fill="#FFAA00" />
            <g transform="translate(6.7685546875 41.953125)">
                <path d="M9.52 0L1.78 0L1.78-19.91L8.75-19.91Q12.37-19.91 14.25-18.52Q16.12-17.13 16.12-14.45L16.12-14.45Q16.12-12.99 15.37-11.87Q14.62-10.76 13.28-10.24L13.28-10.24Q14.81-9.86 15.69-8.70Q16.57-7.53 16.57-5.85L16.57-5.85Q16.57-2.98 14.74-1.50Q12.91-0.03 9.52 0L9.52 0ZM9.64-8.67L5.88-8.67L5.88-3.29L9.39-3.29Q10.84-3.29 11.66-3.99Q12.47-4.68 12.47-5.89L12.47-5.89Q12.47-8.63 9.64-8.67L9.64-8.67ZM5.88-16.58L5.88-11.57L8.91-11.57Q12.02-11.62 12.02-14.04L12.02-14.04Q12.02-15.39 11.23-15.99Q10.45-16.58 8.75-16.58L8.75-16.58L5.88-16.58ZM28.82-19.93L28.82 0L24.87 0L24.87-15.23L20.15-13.77L20.15-16.98L28.40-19.93L28.82-19.93ZM48.26-14.62L48.26-14.62Q48.26-13.17 47.54-12.04Q46.81-10.92 45.54-10.25L45.54-10.25Q46.99-9.56 47.84-8.33Q48.69-7.11 48.69-5.46L48.69-5.46Q48.69-2.80 46.88-1.26Q45.08 0.27 41.97 0.27Q38.87 0.27 37.05-1.27Q35.23-2.82 35.23-5.46L35.23-5.46Q35.23-7.11 36.08-8.34Q36.93-9.57 38.36-10.25L38.36-10.25Q37.09-10.92 36.37-12.04Q35.66-13.17 35.66-14.62L35.66-14.62Q35.66-17.16 37.35-18.67Q39.05-20.18 41.96-20.18L41.96-20.18Q44.86-20.18 46.56-18.68Q48.26-17.19 48.26-14.62ZM44.72-5.74L44.72-5.74Q44.72-7.04 43.97-7.82Q43.22-8.60 41.95-8.60L41.95-8.60Q40.69-8.60 39.94-7.83Q39.18-7.05 39.18-5.74L39.18-5.74Q39.18-4.47 39.92-3.69Q40.66-2.91 41.97-2.91L41.97-2.91Q43.26-2.91 43.99-3.66Q44.72-4.42 44.72-5.74ZM44.31-14.42L44.31-14.42Q44.31-15.59 43.70-16.29Q43.08-16.99 41.96-16.99L41.96-16.99Q40.85-16.99 40.24-16.31Q39.62-15.63 39.62-14.42L39.62-14.42Q39.62-13.23 40.24-12.51Q40.85-11.79 41.97-11.79Q43.09-11.79 43.70-12.51Q44.31-13.23 44.31-14.42Z" fill="#343434" />
            </g>
        </svg>
    