
        <svg width="64" height="64" xmlns="http://www.w3.org/2000/svg">
            <circle cx="32" cy="32" r="32" fill="#FFAA00" />
            <g transform="translate(7.9033203125 41.953125)">
                <path d="M12.10-5.22L12.10-5.22Q12.10-6.38 11.28-7.01Q10.46-7.63 8.33-8.32Q6.19-9.01 4.95-9.68L4.95-9.68Q1.56-11.51 1.56-14.62L1.56-14.62Q1.56-16.23 2.47-17.49Q3.38-18.76 5.08-19.47Q6.78-20.18 8.90-20.18L8.90-20.18Q11.03-20.18 12.70-19.41Q14.37-18.63 15.29-17.23Q16.21-15.82 16.21-14.03L16.21-14.03L12.11-14.03Q12.11-15.39 11.25-16.15Q10.39-16.91 8.83-16.91L8.83-16.91Q7.33-16.91 6.49-16.28Q5.66-15.64 5.66-14.60L5.66-14.60Q5.66-13.63 6.64-12.97Q7.62-12.32 9.52-11.74L9.52-11.74Q13.02-10.69 14.62-9.13Q16.21-7.57 16.21-5.25L16.21-5.25Q16.21-2.67 14.26-1.20Q12.30 0.27 9.00 0.27L9.00 0.27Q6.70 0.27 4.81-0.57Q2.93-1.41 1.93-2.87Q0.94-4.33 0.94-6.26L0.94-6.26L5.06-6.26Q5.06-2.97 9.00-2.97L9.00-2.97Q10.46-2.97 11.28-3.56Q12.10-4.16 12.10-5.22ZM30.97-11.44L30.97-8.13L23.09-8.13L23.09 0L18.99 0L18.99-19.91L31.95-19.91L31.95-16.58L23.09-16.58L23.09-11.44L30.97-11.44ZM37.93-8.61L37.93-11.70L40.03-11.70Q41.54-11.70 42.26-12.46Q42.98-13.21 42.98-14.45L42.98-14.45Q42.98-15.65 42.27-16.32Q41.55-16.99 40.29-16.99L40.29-16.99Q39.16-16.99 38.39-16.37Q37.63-15.75 37.63-14.75L37.63-14.75L33.67-14.75Q33.67-16.31 34.51-17.55Q35.36-18.79 36.87-19.48Q38.38-20.18 40.20-20.18L40.20-20.18Q43.35-20.18 45.14-18.67Q46.94-17.16 46.94-14.51L46.94-14.51Q46.94-13.14 46.10-11.99Q45.27-10.84 43.91-10.23L43.91-10.23Q45.60-9.63 46.42-8.42Q47.25-7.22 47.25-5.58L47.25-5.58Q47.25-2.93 45.32-1.33Q43.38 0.27 40.20 0.27L40.20 0.27Q37.21 0.27 35.32-1.30Q33.43-2.87 33.43-5.46L33.43-5.46L37.38-5.46Q37.38-4.33 38.22-3.62Q39.06-2.91 40.29-2.91L40.29-2.91Q41.70-2.91 42.50-3.66Q43.30-4.40 43.30-5.63L43.30-5.63Q43.30-8.61 40.02-8.61L40.02-8.61L37.93-8.61Z" fill="#343434" />
            </g>
        </svg>
    