
        <svg width="64" height="64" xmlns="http://www.w3.org/2000/svg">
            <circle cx="32" cy="32" r="32" fill="#FFAA00" />
            <g transform="translate(8.1220703125 41.953125)">
                <path d="M5.88-19.91L5.88-3.29L14.59-3.29L14.59 0L1.78 0L1.78-19.91L5.88-19.91ZM30.05-19.91L30.05-17.69L22.35 0L18.18 0L25.89-16.71L16.00-16.71L16.00-19.91L30.05-19.91ZM45.55-14.62L45.55-14.62Q45.55-13.17 44.83-12.04Q44.11-10.92 42.83-10.25L42.83-10.25Q44.28-9.56 45.13-8.33Q45.98-7.11 45.98-5.46L45.98-5.46Q45.98-2.80 44.17-1.26Q42.37 0.27 39.27 0.27Q36.16 0.27 34.34-1.27Q32.53-2.82 32.53-5.46L32.53-5.46Q32.53-7.11 33.37-8.34Q34.22-9.57 35.66-10.25L35.66-10.25Q34.38-10.92 33.67-12.04Q32.95-13.17 32.95-14.62L32.95-14.62Q32.95-17.16 34.64-18.67Q36.34-20.18 39.25-20.18L39.25-20.18Q42.15-20.18 43.85-18.68Q45.55-17.19 45.55-14.62ZM42.01-5.74L42.01-5.74Q42.01-7.04 41.26-7.82Q40.51-8.60 39.24-8.60L39.24-8.60Q37.98-8.60 37.23-7.83Q36.48-7.05 36.48-5.74L36.48-5.74Q36.48-4.47 37.21-3.69Q37.95-2.91 39.27-2.91L39.27-2.91Q40.55-2.91 41.28-3.66Q42.01-4.42 42.01-5.74ZM41.60-14.42L41.60-14.42Q41.60-15.59 40.99-16.29Q40.37-16.99 39.25-16.99L39.25-16.99Q38.14-16.99 37.53-16.31Q36.91-15.63 36.91-14.42L36.91-14.42Q36.91-13.23 37.53-12.51Q38.14-11.79 39.27-11.79Q40.39-11.79 41.00-12.51Q41.60-13.23 41.60-14.42Z" fill="#343434" />
            </g>
        </svg>
    