
        <svg width="64" height="64" xmlns="http://www.w3.org/2000/svg">
            <circle cx="32" cy="32" r="32" fill="#FFAA00" />
            <g transform="translate(15.9423828125 41.953125)">
                <path d="M14.33-14.62L14.33-14.62Q14.33-13.17 13.60-12.04Q12.88-10.92 11.61-10.25L11.61-10.25Q13.06-9.56 13.90-8.33Q14.75-7.11 14.75-5.46L14.75-5.46Q14.75-2.80 12.95-1.26Q11.14 0.27 8.04 0.27Q4.94 0.27 3.12-1.27Q1.30-2.82 1.30-5.46L1.30-5.46Q1.30-7.11 2.15-8.34Q2.99-9.57 4.43-10.25L4.43-10.25Q3.16-10.92 2.44-12.04Q1.72-13.17 1.72-14.62L1.72-14.62Q1.72-17.16 3.42-18.67Q5.11-20.18 8.03-20.18L8.03-20.18Q10.92-20.18 12.63-18.68Q14.33-17.19 14.33-14.62ZM10.79-5.74L10.79-5.74Q10.79-7.04 10.04-7.82Q9.28-8.60 8.01-8.60L8.01-8.60Q6.75-8.60 6.00-7.83Q5.25-7.05 5.25-5.74L5.25-5.74Q5.25-4.47 5.99-3.69Q6.73-2.91 8.04-2.91L8.04-2.91Q9.32-2.91 10.06-3.66Q10.79-4.42 10.79-5.74ZM10.38-14.42L10.38-14.42Q10.38-15.59 9.76-16.29Q9.15-16.99 8.03-16.99L8.03-16.99Q6.92-16.99 6.30-16.31Q5.69-15.63 5.69-14.42L5.69-14.42Q5.69-13.23 6.30-12.51Q6.92-11.79 8.04-11.79Q9.16-11.79 9.77-12.51Q10.38-13.23 10.38-14.42ZM30.39-14.62L30.39-14.62Q30.39-13.17 29.67-12.04Q28.94-10.92 27.67-10.25L27.67-10.25Q29.12-9.56 29.97-8.33Q30.82-7.11 30.82-5.46L30.82-5.46Q30.82-2.80 29.01-1.26Q27.21 0.27 24.10 0.27Q21 0.27 19.18-1.27Q17.36-2.82 17.36-5.46L17.36-5.46Q17.36-7.11 18.21-8.34Q19.06-9.57 20.49-10.25L20.49-10.25Q19.22-10.92 18.50-12.04Q17.79-13.17 17.79-14.62L17.79-14.62Q17.79-17.16 19.48-18.67Q21.18-20.18 24.09-20.18L24.09-20.18Q26.99-20.18 28.69-18.68Q30.39-17.19 30.39-14.62ZM26.85-5.74L26.85-5.74Q26.85-7.04 26.10-7.82Q25.35-8.60 24.08-8.60L24.08-8.60Q22.82-8.60 22.07-7.83Q21.31-7.05 21.31-5.74L21.31-5.74Q21.31-4.47 22.05-3.69Q22.79-2.91 24.10-2.91L24.10-2.91Q25.39-2.91 26.12-3.66Q26.85-4.42 26.85-5.74ZM26.44-14.42L26.44-14.42Q26.44-15.59 25.83-16.29Q25.21-16.99 24.09-16.99L24.09-16.99Q22.98-16.99 22.37-16.31Q21.75-15.63 21.75-14.42L21.75-14.42Q21.75-13.23 22.37-12.51Q22.98-11.79 24.10-11.79Q25.22-11.79 25.83-12.51Q26.44-13.23 26.44-14.42Z" fill="#343434" />
            </g>
        </svg>
    