
        <svg width="64" height="64" xmlns="http://www.w3.org/2000/svg">
            <circle cx="32" cy="32" r="32" fill="#FFAA00" />
            <g transform="translate(3.37109375 42.08984375)">
                <path d="M1.78-19.91L7.14-19.91L12.25-5.47L17.34-19.91L22.72-19.91L22.72 0L18.61 0L18.61-5.44L19.02-14.83L13.64 0L10.83 0L5.47-14.82L5.88-5.44L5.88 0L1.78 0L1.78-19.91ZM39.53-3.19L39.53 0L25.88 0L25.88-2.71L32.32-9.57Q33.65-11.02 34.28-12.10Q34.92-13.18 34.92-14.15L34.92-14.15Q34.92-15.48 34.25-16.24Q33.58-16.99 32.33-16.99L32.33-16.99Q30.99-16.99 30.22-16.07Q29.45-15.15 29.45-13.64L29.45-13.64L25.48-13.64Q25.48-15.46 26.35-16.97Q27.22-18.47 28.81-19.33Q30.39-20.18 32.40-20.18L32.40-20.18Q35.48-20.18 37.18-18.70Q38.88-17.23 38.88-14.53L38.88-14.53Q38.88-13.06 38.12-11.53Q37.35-9.99 35.49-7.96L35.49-7.96L30.97-3.19L39.53-3.19ZM55.48-19.91L55.48-17.69L47.78 0L43.61 0L51.32-16.71L41.43-16.71L41.43-19.91L55.48-19.91Z" fill="#343434" />
            </g>
        </svg>
    