
        <svg width="64" height="64" xmlns="http://www.w3.org/2000/svg">
            <circle cx="32" cy="32" r="32" fill="#FFAA00" />
            <g transform="translate(8.1220703125 41.953125)">
                <path d="M5.88-19.91L5.88-3.29L14.59-3.29L14.59 0L1.78 0L1.78-19.91L5.88-19.91ZM29.49-14.62L29.49-14.62Q29.49-13.17 28.77-12.04Q28.04-10.92 26.77-10.25L26.77-10.25Q28.22-9.56 29.07-8.33Q29.91-7.11 29.91-5.46L29.91-5.46Q29.91-2.80 28.11-1.26Q26.30 0.27 23.20 0.27Q20.10 0.27 18.28-1.27Q16.46-2.82 16.46-5.46L16.46-5.46Q16.46-7.11 17.31-8.34Q18.16-9.57 19.59-10.25L19.59-10.25Q18.32-10.92 17.60-12.04Q16.88-13.17 16.88-14.62L16.88-14.62Q16.88-17.16 18.58-18.67Q20.28-20.18 23.19-20.18L23.19-20.18Q26.09-20.18 27.79-18.68Q29.49-17.19 29.49-14.62ZM25.95-5.74L25.95-5.74Q25.95-7.04 25.20-7.82Q24.45-8.60 23.17-8.60L23.17-8.60Q21.92-8.60 21.16-7.83Q20.41-7.05 20.41-5.74L20.41-5.74Q20.41-4.47 21.15-3.69Q21.89-2.91 23.20-2.91L23.20-2.91Q24.49-2.91 25.22-3.66Q25.95-4.42 25.95-5.74ZM25.54-14.42L25.54-14.42Q25.54-15.59 24.92-16.29Q24.31-16.99 23.19-16.99L23.19-16.99Q22.08-16.99 21.46-16.31Q20.85-15.63 20.85-14.42L20.85-14.42Q20.85-13.23 21.46-12.51Q22.08-11.79 23.20-11.79Q24.32-11.79 24.93-12.51Q25.54-13.23 25.54-14.42ZM45.98-11.89L45.98-8.23Q45.98-4.10 44.27-1.91Q42.56 0.27 39.27 0.27L39.27 0.27Q36.01 0.27 34.29-1.87Q32.57-4.02 32.53-8.03L32.53-8.03L32.53-11.69Q32.53-15.86 34.25-18.02Q35.98-20.18 39.24-20.18Q42.49-20.18 44.21-18.04Q45.94-15.90 45.98-11.89L45.98-11.89ZM42.03-7.52L42.03-12.25Q42.03-14.72 41.35-15.85Q40.67-16.98 39.24-16.98L39.24-16.98Q37.84-16.98 37.18-15.91Q36.52-14.83 36.48-12.55L36.48-12.55L36.48-7.71Q36.48-5.28 37.14-4.09Q37.80-2.91 39.27-2.91L39.27-2.91Q40.71-2.91 41.36-4.05Q42-5.18 42.03-7.52L42.03-7.52Z" fill="#343434" />
            </g>
        </svg>
    