
        <svg width="64" height="64" xmlns="http://www.w3.org/2000/svg">
            <circle cx="32" cy="32" r="32" fill="#FFAA00" />
            <g transform="translate(8.0537109375 41.994140625)">
                <path d="M5.88-19.91L5.88-3.29L14.59-3.29L14.59 0L1.78 0L1.78-19.91L5.88-19.91ZM25.76-7.96L25.76-7.96Q24.21-6.44 22.15-6.44L22.15-6.44Q19.51-6.44 17.92-8.25Q16.34-10.06 16.34-13.14L16.34-13.14Q16.34-15.09 17.19-16.73Q18.05-18.36 19.58-19.27Q21.11-20.18 23.02-20.18L23.02-20.18Q24.99-20.18 26.52-19.20Q28.05-18.21 28.90-16.37Q29.75-14.52 29.76-12.14L29.76-12.14L29.76-10.68Q29.76-5.70 27.29-2.86Q24.81-0.01 20.28 0.18L20.28 0.18L19.30 0.19L19.30-3.10L20.18-3.12Q25.33-3.35 25.76-7.96ZM23.12-9.46L23.12-9.46Q24.08-9.46 24.77-9.95Q25.46-10.45 25.81-11.14L25.81-11.14L25.81-12.77Q25.81-14.78 25.05-15.89Q24.28-16.99 23.00-16.99L23.00-16.99Q21.81-16.99 21.04-15.91Q20.28-14.82 20.28-13.18L20.28-13.18Q20.28-11.55 21.02-10.51Q21.77-9.46 23.12-9.46ZM46.12-19.91L46.12-17.69L38.42 0L34.25 0L41.96-16.71L32.06-16.71L32.06-19.91L46.12-19.91Z" fill="#343434" />
            </g>
        </svg>
    