
        <svg width="64" height="64" xmlns="http://www.w3.org/2000/svg">
            <circle cx="32" cy="32" r="32" fill="#FFAA00" />
            <g transform="translate(7.5751953125 41.953125)">
                <path d="M5.17-19.91L8.90-13.04L12.63-19.91L17.35-19.91L11.55-10.04L17.50 0L12.73 0L8.90-6.97L5.07 0L0.30 0L6.25-10.04L0.45-19.91L5.17-19.91ZM30.83-19.91L30.83-7.49L33.09-7.49L33.09-4.31L30.83-4.31L30.83 0L26.88 0L26.88-4.31L18.72-4.31L18.54-6.79L26.84-19.91L30.83-19.91ZM26.62-14.07L22.48-7.49L26.88-7.49L26.88-14.52L26.62-14.07ZM39.22-8.61L39.22-11.70L41.33-11.70Q42.83-11.70 43.56-12.46Q44.28-13.21 44.28-14.45L44.28-14.45Q44.28-15.65 43.57-16.32Q42.85-16.99 41.59-16.99L41.59-16.99Q40.46-16.99 39.69-16.37Q38.92-15.75 38.92-14.75L38.92-14.75L34.97-14.75Q34.97-16.31 35.81-17.55Q36.65-18.79 38.17-19.48Q39.68-20.18 41.49-20.18L41.49-20.18Q44.65-20.18 46.44-18.67Q48.23-17.16 48.23-14.51L48.23-14.51Q48.23-13.14 47.40-11.99Q46.57-10.84 45.21-10.23L45.21-10.23Q46.89-9.63 47.72-8.42Q48.55-7.22 48.55-5.58L48.55-5.58Q48.55-2.93 46.61-1.33Q44.68 0.27 41.49 0.27L41.49 0.27Q38.51 0.27 36.62-1.30Q34.73-2.87 34.73-5.46L34.73-5.46L38.68-5.46Q38.68-4.33 39.52-3.62Q40.36-2.91 41.59-2.91L41.59-2.91Q43.00-2.91 43.80-3.66Q44.60-4.40 44.60-5.63L44.60-5.63Q44.60-8.61 41.32-8.61L41.32-8.61L39.22-8.61Z" fill="#343434" />
            </g>
        </svg>
    