<?xml version="1.0" encoding="UTF-8" standalone="no"?>
<svg
   xmlns:dc="http://purl.org/dc/elements/1.1/"
   xmlns:cc="http://creativecommons.org/ns#"
   xmlns:rdf="http://www.w3.org/1999/02/22-rdf-syntax-ns#"
   xmlns:svg="http://www.w3.org/2000/svg"
   xmlns="http://www.w3.org/2000/svg"
   xmlns:sodipodi="http://sodipodi.sourceforge.net/DTD/sodipodi-0.dtd"
   xmlns:inkscape="http://www.inkscape.org/namespaces/inkscape"
   width="25mm"
   height="25mm"
   viewBox="0 0 25 25"
   version="1.1"
   id="svg2016"
   inkscape:version="1.0.2-2 (e86c870879, 2021-01-15)"
   sodipodi:docname="amb.svg">
  <defs
     id="defs2010" />
  <sodipodi:namedview
     id="base"
     pagecolor="#ffffff"
     bordercolor="#666666"
     borderopacity="1.0"
     inkscape:pageopacity="0.0"
     inkscape:pageshadow="2"
     inkscape:zoom="4.8992523"
     inkscape:cx="29.471353"
     inkscape:cy="38.495243"
     inkscape:document-units="mm"
     inkscape:current-layer="layer1"
     inkscape:document-rotation="0"
     showgrid="false"
     inkscape:window-width="1267"
     inkscape:window-height="1041"
     inkscape:window-x="78"
     inkscape:window-y="0"
     inkscape:window-maximized="0" />
  <metadata
     id="metadata2013">
    <rdf:RDF>
      <cc:Work
         rdf:about="">
        <dc:format>image/svg+xml</dc:format>
        <dc:type
           rdf:resource="http://purl.org/dc/dcmitype/StillImage" />
        <dc:title></dc:title>
      </cc:Work>
    </rdf:RDF>
  </metadata>
  <g
     inkscape:label="Layer 1"
     inkscape:groupmode="layer"
     id="layer1"
     transform="translate(6.9703536,158.14428)">
    <g
       id="g2034"
       transform="translate(0.97208716,1.0800968)">
      <path
         class="st1"
         d="m 8.3357921,-139.76898 v 0 c 0.3174999,0.3175 0.3174999,0.82021 0,1.13771 l -3.2279167,3.22792 c -0.3175,0.3175 -0.8202083,0.3175 -1.1377083,0 l -3.22791662,-3.22792 c -0.31749999,-0.3175 -0.31749999,-0.82021 0,-1.13771 l 3.22791662,-3.22791 c 0.3175,-0.3175 0.8202083,-0.3175 1.1377083,0"
         id="path1776"
         style="fill:#ed3123;stroke-width:0.264583" />
      <path
         class="st1"
         d="m 5.0285004,-157.94585 v 0 c -0.2910416,-0.26458 -0.7408333,-0.26458 -1.0054166,0 l -10.7949999,10.76854 c -0.2645833,0.29104 -0.2645833,0.74083 0,1.03188 l 2.9104166,2.91041 c 0.2910417,0.29104 0.7408334,0.29104 1.031875,0 l 6.8527083,-6.85271 c 0.2910416,-0.26458 0.7408333,-0.26458 1.0054166,0 l 6.8527086,6.85271 c 0.291041,0.29104 0.740833,0.29104 1.031875,0 l 2.910416,-2.91041 c 0.291042,-0.29105 0.291042,-0.74084 0,-1.03188"
         id="path1780"
         style="fill:#ed3123;stroke-width:0.264583" />
    </g>
  </g>
</svg>
