
        <svg width="64" height="64" viewBox="0 0 64 64" xmlns="http://www.w3.org/2000/svg">
            <circle cx="32" cy="32" r="32" fill="#FFAA00" />
            <g transform="translate(1.47998046875 42.7080078125)">
                <path d="M1.90-21.33L7.65-21.33L13.13-5.86L18.57-21.33L24.35-21.33L24.35 0L19.94 0L19.94-5.83L20.38-15.89L14.62 0L11.60 0L5.86-15.88L6.30-5.83L6.30 0L1.90 0L1.90-21.33ZM38.01-21.36L38.01 0L33.78 0L33.78-16.32L28.73-14.75L28.73-18.19L37.56-21.36L38.01-21.36ZM54.84-8.53L54.84-8.53Q53.19-6.90 50.98-6.90L50.98-6.90Q48.15-6.90 46.45-8.84Q44.75-10.78 44.75-14.08L44.75-14.08Q44.75-16.17 45.67-17.92Q46.58-19.67 48.22-20.65Q49.86-21.62 51.91-21.62L51.91-21.62Q54.02-21.62 55.66-20.57Q57.30-19.51 58.21-17.53Q59.12-15.56 59.14-13.01L59.14-13.01L59.14-11.44Q59.14-6.11 56.48-3.06Q53.83-0.01 48.97 0.19L48.97 0.19L47.93 0.21L47.93-3.33L48.87-3.34Q54.39-3.59 54.84-8.53ZM52.02-10.14L52.02-10.14Q53.04-10.14 53.78-10.66Q54.52-11.19 54.90-11.94L54.90-11.94L54.90-13.68Q54.90-15.83 54.08-17.02Q53.26-18.21 51.88-18.21L51.88-18.21Q50.61-18.21 49.79-17.04Q48.97-15.88 48.97-14.12L48.97-14.12Q48.97-12.38 49.77-11.26Q50.57-10.14 52.02-10.14Z" fill="#343434" />
            </g>
        </svg>
    