
        <svg width="64" height="64" xmlns="http://www.w3.org/2000/svg">
            <circle cx="32" cy="32" r="32" fill="#0062A1" />
            <g transform="translate(13.92578125 41.994140625)">
                <path d="M17.96-19.91L17.96 0L13.86 0L5.88-13.10L5.88 0L1.78 0L1.78-19.91L5.88-19.91L13.88-6.78L13.88-19.91L17.96-19.91ZM30.37-7.96L30.37-7.96Q28.82-6.44 26.76-6.44L26.76-6.44Q24.12-6.44 22.53-8.25Q20.95-10.06 20.95-13.14L20.95-13.14Q20.95-15.09 21.80-16.73Q22.65-18.36 24.19-19.27Q25.72-20.18 27.63-20.18L27.63-20.18Q29.60-20.18 31.13-19.20Q32.66-18.21 33.51-16.37Q34.36-14.52 34.37-12.14L34.37-12.14L34.37-10.68Q34.37-5.70 31.90-2.86Q29.42-0.01 24.88 0.18L24.88 0.18L23.91 0.19L23.91-3.10L24.79-3.12Q29.94-3.35 30.37-7.96ZM27.73-9.46L27.73-9.46Q28.68-9.46 29.37-9.95Q30.06-10.45 30.42-11.14L30.42-11.14L30.42-12.77Q30.42-14.78 29.65-15.89Q28.89-16.99 27.60-16.99L27.60-16.99Q26.41-16.99 25.65-15.91Q24.88-14.82 24.88-13.18L24.88-13.18Q24.88-11.55 25.63-10.51Q26.37-9.46 27.73-9.46Z" fill="#FAFAFA" />
            </g>
        </svg>
    