
        <svg width="64" height="64" xmlns="http://www.w3.org/2000/svg">
            <circle cx="32" cy="32" r="32" fill="#0062A1" />
            <g transform="translate(5.818359375 41.953125)">
                <path d="M17.96-19.91L17.96 0L13.86 0L5.88-13.10L5.88 0L1.78 0L1.78-19.91L5.88-19.91L13.88-6.78L13.88-19.91L17.96-19.91ZM34.77-3.19L34.77 0L21.12 0L21.12-2.71L27.56-9.57Q28.89-11.02 29.52-12.10Q30.16-13.18 30.16-14.15L30.16-14.15Q30.16-15.48 29.49-16.24Q28.82-16.99 27.58-16.99L27.58-16.99Q26.24-16.99 25.46-16.07Q24.69-15.15 24.69-13.64L24.69-13.64L20.73-13.64Q20.73-15.46 21.59-16.97Q22.46-18.47 24.05-19.33Q25.63-20.18 27.64-20.18L27.64-20.18Q30.72-20.18 32.42-18.70Q34.13-17.23 34.13-14.53L34.13-14.53Q34.13-13.06 33.36-11.53Q32.59-9.99 30.73-7.96L30.73-7.96L26.21-3.19L34.77-3.19ZM50.59-11.89L50.59-8.23Q50.59-4.10 48.88-1.91Q47.17 0.27 43.87 0.27L43.87 0.27Q40.62 0.27 38.90-1.87Q37.17-4.02 37.13-8.03L37.13-8.03L37.13-11.69Q37.13-15.86 38.86-18.02Q40.59-20.18 43.85-20.18Q47.10-20.18 48.82-18.04Q50.54-15.90 50.59-11.89L50.59-11.89ZM46.63-7.52L46.63-12.25Q46.63-14.72 45.96-15.85Q45.28-16.98 43.85-16.98L43.85-16.98Q42.45-16.98 41.79-15.91Q41.13-14.83 41.08-12.55L41.08-12.55L41.08-7.71Q41.08-5.28 41.75-4.09Q42.41-2.91 43.87-2.91L43.87-2.91Q45.32-2.91 45.96-4.05Q46.61-5.18 46.63-7.52L46.63-7.52Z" fill="#FAF9F9" />
            </g>
        </svg>
    