
        <svg width="64" height="64" xmlns="http://www.w3.org/2000/svg">
            <circle cx="32" cy="32" r="32" fill="#FFAA00" />
            <g transform="translate(7.8486328125 41.953125)">
                <path d="M5.88-19.91L5.88-3.29L14.59-3.29L14.59 0L1.78 0L1.78-19.91L5.88-19.91ZM28.21-19.91L28.21-7.49L30.46-7.49L30.46-4.31L28.21-4.31L28.21 0L24.25 0L24.25-4.31L16.09-4.31L15.91-6.79L24.21-19.91L28.21-19.91ZM23.99-14.07L19.85-7.49L24.25-7.49L24.25-14.52L23.99-14.07ZM44.27-19.91L44.27-7.49L46.53-7.49L46.53-4.31L44.27-4.31L44.27 0L40.32 0L40.32-4.31L32.16-4.31L31.98-6.79L40.28-19.91L44.27-19.91ZM40.06-14.07L35.92-7.49L40.32-7.49L40.32-14.52L40.06-14.07Z" fill="#343434" />
            </g>
        </svg>
    