
        <svg width="64" height="64" xmlns="http://www.w3.org/2000/svg">
            <circle cx="32" cy="32" r="32" fill="#FFAA00" />
            <g transform="translate(7.5478515625 41.953125)">
                <path d="M5.17-19.91L8.90-13.04L12.63-19.91L17.35-19.91L11.55-10.04L17.50 0L12.73 0L8.90-6.97L5.07 0L0.30 0L6.25-10.04L0.45-19.91L5.17-19.91ZM32.68-19.91L32.68-17.69L24.98 0L20.81 0L28.52-16.71L18.62-16.71L18.62-19.91L32.68-19.91ZM48.60-11.89L48.60-8.23Q48.60-4.10 46.89-1.91Q45.19 0.27 41.89 0.27L41.89 0.27Q38.64 0.27 36.91-1.87Q35.19-4.02 35.15-8.03L35.15-8.03L35.15-11.69Q35.15-15.86 36.88-18.02Q38.61-20.18 41.86-20.18Q45.12-20.18 46.84-18.04Q48.56-15.90 48.60-11.89L48.60-11.89ZM44.65-7.52L44.65-12.25Q44.65-14.72 43.98-15.85Q43.30-16.98 41.86-16.98L41.86-16.98Q40.47-16.98 39.81-15.91Q39.14-14.83 39.10-12.55L39.10-12.55L39.10-7.71Q39.10-5.28 39.76-4.09Q40.43-2.91 41.89-2.91L41.89-2.91Q43.34-2.91 43.98-4.05Q44.63-5.18 44.65-7.52L44.65-7.52Z" fill="#343434" />
            </g>
        </svg>
    