
        <svg width="64" height="64" xmlns="http://www.w3.org/2000/svg">
            <circle cx="32" cy="32" r="32" fill="#0062A1" />
            <g transform="translate(13.6865234375 41.9189453125)">
                <path d="M17.96-19.91L17.96 0L13.86 0L5.88-13.10L5.88 0L1.78 0L1.78-19.91L5.88-19.91L13.88-6.78L13.88-19.91L17.96-19.91ZM31.19-20.11L31.84-20.11L31.84-16.86L31.46-16.86Q28.78-16.82 27.15-15.46Q25.51-14.11 25.18-11.70L25.18-11.70Q26.77-13.32 29.19-13.32L29.19-13.32Q31.79-13.32 33.32-11.46Q34.85-9.60 34.85-6.56L34.85-6.56Q34.85-4.62 34.01-3.05Q33.17-1.48 31.63-0.60Q30.09 0.27 28.15 0.27L28.15 0.27Q25.01 0.27 23.07-1.91Q21.14-4.10 21.14-7.75L21.14-7.75L21.14-9.17Q21.14-12.41 22.36-14.90Q23.58-17.38 25.87-18.74Q28.16-20.10 31.19-20.11L31.19-20.11ZM27.99-10.14L27.99-10.14Q27.03-10.14 26.25-9.65Q25.47-9.15 25.10-8.33L25.10-8.33L25.10-7.12Q25.10-5.14 25.88-4.03Q26.66-2.91 28.07-2.91L28.07-2.91Q29.34-2.91 30.13-3.92Q30.91-4.92 30.91-6.52L30.91-6.52Q30.91-8.15 30.12-9.15Q29.33-10.14 27.99-10.14Z" fill="#FCFCFC" />
            </g>
        </svg>
    