
        <svg width="64" height="64" xmlns="http://www.w3.org/2000/svg">
            <circle cx="32" cy="32" r="32" fill="#FFAA00" />
            <g transform="translate(15.525390625 41.81640625)">
                <path d="M9.80-6.13L9.80-19.91L13.90-19.91L13.90-6.13Q13.90-4.22 13.06-2.77Q12.22-1.31 10.69-0.52Q9.16 0.27 7.23 0.27L7.23 0.27Q4.07 0.27 2.31-1.33Q0.55-2.94 0.55-5.88L0.55-5.88L4.68-5.88Q4.68-4.42 5.29-3.72Q5.91-3.02 7.23-3.02L7.23-3.02Q8.41-3.02 9.11-3.83Q9.80-4.63 9.80-6.13L9.80-6.13ZM32.40-19.91L32.40-16.58L26.30-16.58L26.30 0L22.20 0L22.20-16.58L16.19-16.58L16.19-19.91L32.40-19.91Z" fill="#343434" />
            </g>
        </svg>
    