
        <svg width="64" height="64" viewBox="0 0 64 64" xmlns="http://www.w3.org/2000/svg">
            <circle cx="32" cy="32" r="32" fill="#FFAA00" />
            <g transform="translate(4.666015625 42.6640625)">
                <path d="M12.96-5.60L12.96-5.60Q12.96-6.84 12.08-7.51Q11.21-8.17 8.92-8.91Q6.64-9.65 5.30-10.37L5.30-10.37Q1.67-12.33 1.67-15.66L1.67-15.66Q1.67-17.39 2.64-18.74Q3.62-20.10 5.44-20.86Q7.27-21.62 9.54-21.62L9.54-21.62Q11.82-21.62 13.61-20.79Q15.40-19.97 16.38-18.46Q17.37-16.95 17.37-15.03L17.37-15.03L12.98-15.03Q12.98-16.49 12.06-17.31Q11.13-18.12 9.46-18.12L9.46-18.12Q7.85-18.12 6.96-17.44Q6.06-16.76 6.06-15.64L6.06-15.64Q6.06-14.60 7.11-13.90Q8.16-13.20 10.20-12.58L10.20-12.58Q13.95-11.46 15.66-9.79Q17.37-8.12 17.37-5.63L17.37-5.63Q17.37-2.86 15.28-1.28Q13.18 0.29 9.64 0.29L9.64 0.29Q7.18 0.29 5.16-0.61Q3.13-1.51 2.07-3.08Q1.01-4.64 1.01-6.71L1.01-6.71L5.42-6.71Q5.42-3.18 9.64-3.18L9.64-3.18Q11.21-3.18 12.08-3.82Q12.96-4.45 12.96-5.60ZM28.64 0L20.35 0L20.35-21.33L27.82-21.33Q31.70-21.33 33.71-19.84Q35.71-18.35 35.71-15.48L35.71-15.48Q35.71-13.92 34.91-12.72Q34.10-11.53 32.67-10.97L32.67-10.97Q34.31-10.56 35.25-9.32Q36.20-8.07 36.20-6.27L36.20-6.27Q36.20-3.19 34.23-1.61Q32.27-0.03 28.64 0L28.64 0ZM28.77-9.29L24.74-9.29L24.74-3.53L28.51-3.53Q30.06-3.53 30.93-4.27Q31.80-5.01 31.80-6.31L31.80-6.31Q31.80-9.24 28.77-9.29L28.77-9.29ZM24.74-17.77L24.74-12.39L27.99-12.39Q31.32-12.45 31.32-15.04L31.32-15.04Q31.32-16.49 30.48-17.13Q29.63-17.77 27.82-17.77L27.82-17.77L24.74-17.77ZM53.66-3.41L53.66 0L39.04 0L39.04-2.90L45.94-10.25Q47.36-11.81 48.04-12.96Q48.72-14.12 48.72-15.16L48.72-15.16Q48.72-16.58 48.00-17.40Q47.29-18.21 45.95-18.21L45.95-18.21Q44.52-18.21 43.69-17.22Q42.86-16.23 42.86-14.62L42.86-14.62L38.61-14.62Q38.61-16.57 39.54-18.18Q40.47-19.79 42.17-20.71Q43.87-21.62 46.03-21.62L46.03-21.62Q49.32-21.62 51.15-20.04Q52.97-18.46 52.97-15.57L52.97-15.57Q52.97-13.99 52.15-12.35Q51.33-10.71 49.34-8.53L49.34-8.53L44.49-3.41L53.66-3.41Z" fill="#343434" />
            </g>
        </svg>
    