
        <svg width="64" height="64" xmlns="http://www.w3.org/2000/svg">
            <circle cx="32" cy="32" r="32" fill="#0062A1" />
            <g transform="translate(13.8505859375 41.953125)">
                <path d="M17.96-19.91L17.96 0L13.86 0L5.88-13.10L5.88 0L1.78 0L1.78-19.91L5.88-19.91L13.88-6.78L13.88-19.91L17.96-19.91ZM34.52-11.89L34.52-8.23Q34.52-4.10 32.81-1.91Q31.10 0.27 27.81 0.27L27.81 0.27Q24.55 0.27 22.83-1.87Q21.11-4.02 21.07-8.03L21.07-8.03L21.07-11.69Q21.07-15.86 22.80-18.02Q24.53-20.18 27.78-20.18Q31.04-20.18 32.76-18.04Q34.48-15.90 34.52-11.89L34.52-11.89ZM30.57-7.52L30.57-12.25Q30.57-14.72 29.89-15.85Q29.22-16.98 27.78-16.98L27.78-16.98Q26.39-16.98 25.72-15.91Q25.06-14.83 25.02-12.55L25.02-12.55L25.02-7.71Q25.02-5.28 25.68-4.09Q26.35-2.91 27.81-2.91L27.81-2.91Q29.26-2.91 29.90-4.05Q30.54-5.18 30.57-7.52L30.57-7.52Z" fill="#FFFFFF" />
            </g>
        </svg>
    