
        <svg width="64" height="64" xmlns="http://www.w3.org/2000/svg">
            <circle cx="32" cy="32" r="32" fill="#FFAA00" />
            <g transform="translate(7.5478515625 41.953125)">
                <path d="M5.17-19.91L8.90-13.04L12.63-19.91L17.35-19.91L11.55-10.04L17.50 0L12.73 0L8.90-6.97L5.07 0L0.30 0L6.25-10.04L0.45-19.91L5.17-19.91ZM23.16-8.61L23.16-11.70L25.27-11.70Q26.77-11.70 27.49-12.46Q28.22-13.21 28.22-14.45L28.22-14.45Q28.22-15.65 27.50-16.32Q26.78-16.99 25.53-16.99L25.53-16.99Q24.39-16.99 23.63-16.37Q22.86-15.75 22.86-14.75L22.86-14.75L18.91-14.75Q18.91-16.31 19.75-17.55Q20.59-18.79 22.10-19.48Q23.61-20.18 25.43-20.18L25.43-20.18Q28.59-20.18 30.38-18.67Q32.17-17.16 32.17-14.51L32.17-14.51Q32.17-13.14 31.34-11.99Q30.50-10.84 29.15-10.23L29.15-10.23Q30.83-9.63 31.66-8.42Q32.48-7.22 32.48-5.58L32.48-5.58Q32.48-2.93 30.55-1.33Q28.62 0.27 25.43 0.27L25.43 0.27Q22.45 0.27 20.56-1.30Q18.66-2.87 18.66-5.46L18.66-5.46L22.61-5.46Q22.61-4.33 23.45-3.62Q24.29-2.91 25.53-2.91L25.53-2.91Q26.93-2.91 27.73-3.66Q28.53-4.40 28.53-5.63L28.53-5.63Q28.53-8.61 25.25-8.61L25.25-8.61L23.16-8.61ZM48.60-11.89L48.60-8.23Q48.60-4.10 46.89-1.91Q45.19 0.27 41.89 0.27L41.89 0.27Q38.64 0.27 36.91-1.87Q35.19-4.02 35.15-8.03L35.15-8.03L35.15-11.69Q35.15-15.86 36.88-18.02Q38.61-20.18 41.86-20.18Q45.12-20.18 46.84-18.04Q48.56-15.90 48.60-11.89L48.60-11.89ZM44.65-7.52L44.65-12.25Q44.65-14.72 43.98-15.85Q43.30-16.98 41.86-16.98L41.86-16.98Q40.47-16.98 39.81-15.91Q39.14-14.83 39.10-12.55L39.10-12.55L39.10-7.71Q39.10-5.28 39.76-4.09Q40.43-2.91 41.89-2.91L41.89-2.91Q43.34-2.91 43.98-4.05Q44.63-5.18 44.65-7.52L44.65-7.52Z" fill="#343434" />
            </g>
        </svg>
    