
        <svg width="64" height="64" xmlns="http://www.w3.org/2000/svg">
            <circle cx="32" cy="32" r="32" fill="#FFAA00" />
            <g transform="translate(7.9580078125 41.9189453125)">
                <path d="M5.88-19.91L5.88-3.29L14.59-3.29L14.59 0L1.78 0L1.78-19.91L5.88-19.91ZM30.05-19.91L30.05-17.69L22.35 0L18.18 0L25.89-16.71L16.00-16.71L16.00-19.91L30.05-19.91ZM42.64-20.11L43.30-20.11L43.30-16.86L42.92-16.86Q40.24-16.82 38.60-15.46Q36.97-14.11 36.64-11.70L36.64-11.70Q38.23-13.32 40.65-13.32L40.65-13.32Q43.24-13.32 44.78-11.46Q46.31-9.60 46.31-6.56L46.31-6.56Q46.31-4.62 45.47-3.05Q44.63-1.48 43.09-0.60Q41.55 0.27 39.61 0.27L39.61 0.27Q36.46 0.27 34.53-1.91Q32.59-4.10 32.59-7.75L32.59-7.75L32.59-9.17Q32.59-12.41 33.82-14.90Q35.04-17.38 37.33-18.74Q39.62-20.10 42.64-20.11L42.64-20.11ZM39.44-10.14L39.44-10.14Q38.49-10.14 37.71-9.65Q36.93-9.15 36.56-8.33L36.56-8.33L36.56-7.12Q36.56-5.14 37.34-4.03Q38.12-2.91 39.53-2.91L39.53-2.91Q40.80-2.91 41.58-3.92Q42.37-4.92 42.37-6.52L42.37-6.52Q42.37-8.15 41.58-9.15Q40.78-10.14 39.44-10.14Z" fill="#343434" />
            </g>
        </svg>
    