
        <svg width="64" height="64" xmlns="http://www.w3.org/2000/svg">
            <circle cx="32" cy="32" r="32" fill="#FFAA00" />
            <g transform="translate(7.9990234375 41.953125)">
                <path d="M5.88-19.91L5.88-3.29L14.59-3.29L14.59 0L1.78 0L1.78-19.91L5.88-19.91ZM20.25-9.01L17.10-9.79L18.25-19.91L29.41-19.91L29.41-16.61L21.49-16.61L21-12.33Q22.41-13.08 23.99-13.08L23.99-13.08Q26.84-13.08 28.45-11.32Q30.06-9.56 30.06-6.38L30.06-6.38Q30.06-4.46 29.25-2.93Q28.44-1.41 26.92-0.57Q25.40 0.27 23.34 0.27L23.34 0.27Q21.53 0.27 19.99-0.46Q18.44-1.19 17.55-2.52Q16.65-3.84 16.60-5.54L16.60-5.54L20.51-5.54Q20.63-4.29 21.38-3.60Q22.12-2.91 23.32-2.91L23.32-2.91Q24.66-2.91 25.39-3.88Q26.11-4.84 26.11-6.60L26.11-6.60Q26.11-8.30 25.28-9.20Q24.45-10.10 22.91-10.10L22.91-10.10Q21.51-10.10 20.63-9.37L20.63-9.37L20.25-9.01ZM46.22-3.19L46.22 0L32.58 0L32.58-2.71L39.02-9.57Q40.35-11.02 40.98-12.10Q41.62-13.18 41.62-14.15L41.62-14.15Q41.62-15.48 40.95-16.24Q40.28-16.99 39.03-16.99L39.03-16.99Q37.69-16.99 36.92-16.07Q36.15-15.15 36.15-13.64L36.15-13.64L32.18-13.64Q32.18-15.46 33.05-16.97Q33.92-18.47 35.51-19.33Q37.09-20.18 39.10-20.18L39.10-20.18Q42.18-20.18 43.88-18.70Q45.58-17.23 45.58-14.53L45.58-14.53Q45.58-13.06 44.82-11.53Q44.05-9.99 42.19-7.96L42.19-7.96L37.67-3.19L46.22-3.19Z" fill="#343434" />
            </g>
        </svg>
    