
        <svg width="64" height="64" xmlns="http://www.w3.org/2000/svg">
            <circle cx="32" cy="32" r="32" fill="#0062A1" />
            <g transform="translate(5.845703125 41.953125)">
                <path d="M17.96-19.91L17.96 0L13.86 0L5.88-13.10L5.88 0L1.78 0L1.78-19.91L5.88-19.91L13.88-6.78L13.88-19.91L17.96-19.91ZM30.72-19.93L30.72 0L26.77 0L26.77-15.23L22.05-13.77L22.05-16.98L30.30-19.93L30.72-19.93ZM41.21-8.61L41.21-11.70L43.31-11.70Q44.82-11.70 45.54-12.46Q46.27-13.21 46.27-14.45L46.27-14.45Q46.27-15.65 45.55-16.32Q44.83-16.99 43.57-16.99L43.57-16.99Q42.44-16.99 41.67-16.37Q40.91-15.75 40.91-14.75L40.91-14.75L36.96-14.75Q36.96-16.31 37.80-17.55Q38.64-18.79 40.15-19.48Q41.66-20.18 43.48-20.18L43.48-20.18Q46.63-20.18 48.43-18.67Q50.22-17.16 50.22-14.51L50.22-14.51Q50.22-13.14 49.38-11.99Q48.55-10.84 47.20-10.23L47.20-10.23Q48.88-9.63 49.70-8.42Q50.53-7.22 50.53-5.58L50.53-5.58Q50.53-2.93 48.60-1.33Q46.66 0.27 43.48 0.27L43.48 0.27Q40.50 0.27 38.60-1.30Q36.71-2.87 36.71-5.46L36.71-5.46L40.66-5.46Q40.66-4.33 41.50-3.62Q42.34-2.91 43.57-2.91L43.57-2.91Q44.98-2.91 45.78-3.66Q46.58-4.40 46.58-5.63L46.58-5.63Q46.58-8.61 43.30-8.61L43.30-8.61L41.21-8.61Z" fill="#FCFCFC" />
            </g>
        </svg>
    