
        <svg width="64" height="64" xmlns="http://www.w3.org/2000/svg">
            <circle cx="32" cy="32" r="32" fill="#FFAA00" />
            <g transform="translate(7.623046875 41.994140625)">
                <path d="M5.17-19.91L8.90-13.04L12.63-19.91L17.35-19.91L11.55-10.04L17.50 0L12.73 0L8.90-6.97L5.07 0L0.30 0L6.25-10.04L0.45-19.91L5.17-19.91ZM32.68-19.91L32.68-17.69L24.98 0L20.81 0L28.52-16.71L18.62-16.71L18.62-19.91L32.68-19.91ZM44.45-7.96L44.45-7.96Q42.90-6.44 40.84-6.44L40.84-6.44Q38.20-6.44 36.61-8.25Q35.03-10.06 35.03-13.14L35.03-13.14Q35.03-15.09 35.88-16.73Q36.74-18.36 38.27-19.27Q39.80-20.18 41.71-20.18L41.71-20.18Q43.68-20.18 45.21-19.20Q46.74-18.21 47.59-16.37Q48.44-14.52 48.45-12.14L48.45-12.14L48.45-10.68Q48.45-5.70 45.98-2.86Q43.50-0.01 38.96 0.18L38.96 0.18L37.99 0.19L37.99-3.10L38.87-3.12Q44.02-3.35 44.45-7.96ZM41.81-9.46L41.81-9.46Q42.77-9.46 43.46-9.95Q44.15-10.45 44.50-11.14L44.50-11.14L44.50-12.77Q44.50-14.78 43.74-15.89Q42.97-16.99 41.69-16.99L41.69-16.99Q40.50-16.99 39.73-15.91Q38.96-14.82 38.96-13.18L38.96-13.18Q38.96-11.55 39.71-10.51Q40.46-9.46 41.81-9.46Z" fill="#343434" />
            </g>
        </svg>
    