
        <svg width="64" height="64" xmlns="http://www.w3.org/2000/svg">
            <circle cx="32" cy="32" r="32" fill="#0062A1" />
            <g transform="translate(13.7275390625 42.08984375)">
                <path d="M17.96-19.91L17.96 0L13.86 0L5.88-13.10L5.88 0L1.78 0L1.78-19.91L5.88-19.91L13.88-6.78L13.88-19.91L17.96-19.91ZM34.77-3.19L34.77 0L21.12 0L21.12-2.71L27.56-9.57Q28.89-11.02 29.52-12.10Q30.16-13.18 30.16-14.15L30.16-14.15Q30.16-15.48 29.49-16.24Q28.82-16.99 27.58-16.99L27.58-16.99Q26.24-16.99 25.46-16.07Q24.69-15.15 24.69-13.64L24.69-13.64L20.73-13.64Q20.73-15.46 21.59-16.97Q22.46-18.47 24.05-19.33Q25.63-20.18 27.64-20.18L27.64-20.18Q30.72-20.18 32.42-18.70Q34.13-17.23 34.13-14.53L34.13-14.53Q34.13-13.06 33.36-11.53Q32.59-9.99 30.73-7.96L30.73-7.96L26.21-3.19L34.77-3.19Z" fill="#FCFCFC" />
            </g>
        </svg>
    