
        <svg width="64" height="64" xmlns="http://www.w3.org/2000/svg">
            <circle cx="32" cy="32" r="32" fill="#FFAA00" />
            <g transform="translate(3.166015625 41.966796875)">
                <path d="M1.78-19.91L7.14-19.91L12.25-5.47L17.34-19.91L22.72-19.91L22.72 0L18.61 0L18.61-5.44L19.02-14.83L13.64 0L10.83 0L5.47-14.82L5.88-5.44L5.88 0L1.78 0L1.78-19.91ZM35.48-19.93L35.48 0L31.53 0L31.53-15.23L26.81-13.77L26.81-16.98L35.05-19.93L35.48-19.93ZM53.63-19.91L53.63-7.49L55.89-7.49L55.89-4.31L53.63-4.31L53.63 0L49.68 0L49.68-4.31L41.52-4.31L41.34-6.79L49.64-19.91L53.63-19.91ZM49.42-14.07L45.28-7.49L49.68-7.49L49.68-14.52L49.42-14.07Z" fill="#343434" />
            </g>
        </svg>
    