
        <svg width="64" height="64" xmlns="http://www.w3.org/2000/svg">
            <circle cx="32" cy="32" r="32" fill="#FFAA00" />
            <g transform="translate(8.1630859375 41.966796875)">
                <path d="M5.88-19.91L5.88-3.29L14.59-3.29L14.59 0L1.78 0L1.78-19.91L5.88-19.91ZM33.14-19.91L33.14 0L29.04 0L29.04-8.53L21.04-8.53L21.04 0L16.94 0L16.94-19.91L21.04-19.91L21.04-11.84L29.04-11.84L29.04-19.91L33.14-19.91ZM45.90-19.93L45.90 0L41.95 0L41.95-15.23L37.23-13.77L37.23-16.98L45.47-19.93L45.90-19.93Z" fill="#343434" />
            </g>
        </svg>
    