
        <svg width="64" height="64" xmlns="http://www.w3.org/2000/svg">
            <circle cx="32" cy="32" r="32" fill="#FFAA00" />
            <g transform="translate(6.84375 41.994140625)">
                <path d="M9.52 0L1.78 0L1.78-19.91L8.75-19.91Q12.37-19.91 14.25-18.52Q16.12-17.13 16.12-14.45L16.12-14.45Q16.12-12.99 15.37-11.87Q14.62-10.76 13.28-10.24L13.28-10.24Q14.81-9.86 15.69-8.70Q16.57-7.53 16.57-5.85L16.57-5.85Q16.57-2.98 14.74-1.50Q12.91-0.03 9.52 0L9.52 0ZM9.64-8.67L5.88-8.67L5.88-3.29L9.39-3.29Q10.84-3.29 11.66-3.99Q12.47-4.68 12.47-5.89L12.47-5.89Q12.47-8.63 9.64-8.67L9.64-8.67ZM5.88-16.58L5.88-11.57L8.91-11.57Q12.02-11.62 12.02-14.04L12.02-14.04Q12.02-15.39 11.23-15.99Q10.45-16.58 8.75-16.58L8.75-16.58L5.88-16.58ZM32.87-3.19L32.87 0L19.22 0L19.22-2.71L25.66-9.57Q26.99-11.02 27.62-12.10Q28.26-13.18 28.26-14.15L28.26-14.15Q28.26-15.48 27.59-16.24Q26.92-16.99 25.68-16.99L25.68-16.99Q24.34-16.99 23.56-16.07Q22.79-15.15 22.79-13.64L22.79-13.64L18.83-13.64Q18.83-15.46 19.69-16.97Q20.56-18.47 22.15-19.33Q23.73-20.18 25.74-20.18L25.74-20.18Q28.82-20.18 30.52-18.70Q32.22-17.23 32.22-14.53L32.22-14.53Q32.22-13.06 31.46-11.53Q30.69-9.99 28.83-7.96L28.83-7.96L24.31-3.19L32.87-3.19ZM44.53-7.96L44.53-7.96Q42.98-6.44 40.92-6.44L40.92-6.44Q38.28-6.44 36.70-8.25Q35.11-10.06 35.11-13.14L35.11-13.14Q35.11-15.09 35.96-16.73Q36.82-18.36 38.35-19.27Q39.88-20.18 41.79-20.18L41.79-20.18Q43.76-20.18 45.29-19.20Q46.83-18.21 47.67-16.37Q48.52-14.52 48.54-12.14L48.54-12.14L48.54-10.68Q48.54-5.70 46.06-2.86Q43.59-0.01 39.05 0.18L39.05 0.18L38.08 0.19L38.08-3.10L38.95-3.12Q44.11-3.35 44.53-7.96ZM41.89-9.46L41.89-9.46Q42.85-9.46 43.54-9.95Q44.23-10.45 44.58-11.14L44.58-11.14L44.58-12.77Q44.58-14.78 43.82-15.89Q43.05-16.99 41.77-16.99L41.77-16.99Q40.58-16.99 39.81-15.91Q39.05-14.82 39.05-13.18L39.05-13.18Q39.05-11.55 39.79-10.51Q40.54-9.46 41.89-9.46Z" fill="#343434" />
            </g>
        </svg>
    