
        <svg width="64" height="64" xmlns="http://www.w3.org/2000/svg">
            <circle cx="32" cy="32" r="32" fill="#0062A1" />
            <g transform="translate(5.544921875 41.966796875)">
                <path d="M17.96-19.91L17.96 0L13.86 0L5.88-13.10L5.88 0L1.78 0L1.78-19.91L5.88-19.91L13.88-6.78L13.88-19.91L17.96-19.91ZM30.72-19.93L30.72 0L26.77 0L26.77-15.23L22.05-13.77L22.05-16.98L30.30-19.93L30.72-19.93ZM48.88-19.91L48.88-7.49L51.13-7.49L51.13-4.31L48.88-4.31L48.88 0L44.93 0L44.93-4.31L36.76-4.31L36.59-6.79L44.88-19.91L48.88-19.91ZM44.67-14.07L40.52-7.49L44.93-7.49L44.93-14.52L44.67-14.07Z" fill="#FAF9F9" />
            </g>
        </svg>
    