
        <svg width="64" height="64" xmlns="http://www.w3.org/2000/svg">
            <circle cx="32" cy="32" r="32" fill="#FFAA00" />
            <g transform="translate(7.3837890625 41.953125)">
                <path d="M5.17-19.91L8.90-13.04L12.63-19.91L17.35-19.91L11.55-10.04L17.50 0L12.73 0L8.90-6.97L5.07 0L0.30 0L6.25-10.04L0.45-19.91L5.17-19.91ZM32.12-14.62L32.12-14.62Q32.12-13.17 31.39-12.04Q30.67-10.92 29.39-10.25L29.39-10.25Q30.84-9.56 31.69-8.33Q32.54-7.11 32.54-5.46L32.54-5.46Q32.54-2.80 30.73-1.26Q28.93 0.27 25.83 0.27Q22.72 0.27 20.90-1.27Q19.09-2.82 19.09-5.46L19.09-5.46Q19.09-7.11 19.93-8.34Q20.78-9.57 22.22-10.25L22.22-10.25Q20.95-10.92 20.23-12.04Q19.51-13.17 19.51-14.62L19.51-14.62Q19.51-17.16 21.21-18.67Q22.90-20.18 25.81-20.18L25.81-20.18Q28.71-20.18 30.41-18.68Q32.12-17.19 32.12-14.62ZM28.57-5.74L28.57-5.74Q28.57-7.04 27.82-7.82Q27.07-8.60 25.80-8.60L25.80-8.60Q24.54-8.60 23.79-7.83Q23.04-7.05 23.04-5.74L23.04-5.74Q23.04-4.47 23.78-3.69Q24.51-2.91 25.83-2.91L25.83-2.91Q27.11-2.91 27.84-3.66Q28.57-4.42 28.57-5.74ZM28.16-14.42L28.16-14.42Q28.16-15.59 27.55-16.29Q26.93-16.99 25.81-16.99L25.81-16.99Q24.71-16.99 24.09-16.31Q23.47-15.63 23.47-14.42L23.47-14.42Q23.47-13.23 24.09-12.51Q24.71-11.79 25.83-11.79Q26.95-11.79 27.56-12.51Q28.16-13.23 28.16-14.42ZM45.27-20.11L45.92-20.11L45.92-16.86L45.54-16.86Q42.86-16.82 41.23-15.46Q39.59-14.11 39.27-11.70L39.27-11.70Q40.85-13.32 43.27-13.32L43.27-13.32Q45.87-13.32 47.40-11.46Q48.93-9.60 48.93-6.56L48.93-6.56Q48.93-4.62 48.09-3.05Q47.25-1.48 45.71-0.60Q44.17 0.27 42.23 0.27L42.23 0.27Q39.09 0.27 37.15-1.91Q35.22-4.10 35.22-7.75L35.22-7.75L35.22-9.17Q35.22-12.41 36.44-14.90Q37.67-17.38 39.96-18.74Q42.25-20.10 45.27-20.11L45.27-20.11ZM42.07-10.14L42.07-10.14Q41.11-10.14 40.33-9.65Q39.55-9.15 39.18-8.33L39.18-8.33L39.18-7.12Q39.18-5.14 39.96-4.03Q40.74-2.91 42.15-2.91L42.15-2.91Q43.42-2.91 44.21-3.92Q44.99-4.92 44.99-6.52L44.99-6.52Q44.99-8.15 44.20-9.15Q43.41-10.14 42.07-10.14Z" fill="#343434" />
            </g>
        </svg>
    