
        <svg width="64" height="64" xmlns="http://www.w3.org/2000/svg">
            <circle cx="32" cy="32" r="32" fill="#FFAA00" />
            <g transform="translate(7.4794921875 41.994140625)">
                <path d="M5.17-19.91L8.90-13.04L12.63-19.91L17.35-19.91L11.55-10.04L17.50 0L12.73 0L8.90-6.97L5.07 0L0.30 0L6.25-10.04L0.45-19.91L5.17-19.91ZM28.38-7.96L28.38-7.96Q26.84-6.44 24.77-6.44L24.77-6.44Q22.13-6.44 20.55-8.25Q18.96-10.06 18.96-13.14L18.96-13.14Q18.96-15.09 19.82-16.73Q20.67-18.36 22.20-19.27Q23.73-20.18 25.65-20.18L25.65-20.18Q27.62-20.18 29.15-19.20Q30.68-18.21 31.53-16.37Q32.38-14.52 32.39-12.14L32.39-12.14L32.39-10.68Q32.39-5.70 29.91-2.86Q27.44-0.01 22.90 0.18L22.90 0.18L21.93 0.19L21.93-3.10L22.80-3.12Q27.96-3.35 28.38-7.96ZM25.74-9.46L25.74-9.46Q26.70-9.46 27.39-9.95Q28.08-10.45 28.44-11.14L28.44-11.14L28.44-12.77Q28.44-14.78 27.67-15.89Q26.91-16.99 25.62-16.99L25.62-16.99Q24.43-16.99 23.67-15.91Q22.90-14.82 22.90-13.18L22.90-13.18Q22.90-11.55 23.65-10.51Q24.39-9.46 25.74-9.46ZM48.74-19.91L48.74-17.69L41.04 0L36.87 0L44.58-16.71L34.69-16.71L34.69-19.91L48.74-19.91Z" fill="#343434" />
            </g>
        </svg>
    