
        <svg width="64" height="64" xmlns="http://www.w3.org/2000/svg">
            <circle cx="32" cy="32" r="32" fill="#FFAA00" />
            <g transform="translate(7.9580078125 41.953125)">
                <path d="M5.88-19.91L5.88-3.29L14.59-3.29L14.59 0L1.78 0L1.78-19.91L5.88-19.91ZM29.49-14.62L29.49-14.62Q29.49-13.17 28.77-12.04Q28.04-10.92 26.77-10.25L26.77-10.25Q28.22-9.56 29.07-8.33Q29.91-7.11 29.91-5.46L29.91-5.46Q29.91-2.80 28.11-1.26Q26.30 0.27 23.20 0.27Q20.10 0.27 18.28-1.27Q16.46-2.82 16.46-5.46L16.46-5.46Q16.46-7.11 17.31-8.34Q18.16-9.57 19.59-10.25L19.59-10.25Q18.32-10.92 17.60-12.04Q16.88-13.17 16.88-14.62L16.88-14.62Q16.88-17.16 18.58-18.67Q20.28-20.18 23.19-20.18L23.19-20.18Q26.09-20.18 27.79-18.68Q29.49-17.19 29.49-14.62ZM25.95-5.74L25.95-5.74Q25.95-7.04 25.20-7.82Q24.45-8.60 23.17-8.60L23.17-8.60Q21.92-8.60 21.16-7.83Q20.41-7.05 20.41-5.74L20.41-5.74Q20.41-4.47 21.15-3.69Q21.89-2.91 23.20-2.91L23.20-2.91Q24.49-2.91 25.22-3.66Q25.95-4.42 25.95-5.74ZM25.54-14.42L25.54-14.42Q25.54-15.59 24.92-16.29Q24.31-16.99 23.19-16.99L23.19-16.99Q22.08-16.99 21.46-16.31Q20.85-15.63 20.85-14.42L20.85-14.42Q20.85-13.23 21.46-12.51Q22.08-11.79 23.20-11.79Q24.32-11.79 24.93-12.51Q25.54-13.23 25.54-14.42ZM42.64-20.11L43.30-20.11L43.30-16.86L42.92-16.86Q40.24-16.82 38.60-15.46Q36.97-14.11 36.64-11.70L36.64-11.70Q38.23-13.32 40.65-13.32L40.65-13.32Q43.24-13.32 44.78-11.46Q46.31-9.60 46.31-6.56L46.31-6.56Q46.31-4.62 45.47-3.05Q44.63-1.48 43.09-0.60Q41.55 0.27 39.61 0.27L39.61 0.27Q36.46 0.27 34.53-1.91Q32.59-4.10 32.59-7.75L32.59-7.75L32.59-9.17Q32.59-12.41 33.82-14.90Q35.04-17.38 37.33-18.74Q39.62-20.10 42.64-20.11L42.64-20.11ZM39.44-10.14L39.44-10.14Q38.49-10.14 37.71-9.65Q36.93-9.15 36.56-8.33L36.56-8.33L36.56-7.12Q36.56-5.14 37.34-4.03Q38.12-2.91 39.53-2.91L39.53-2.91Q40.80-2.91 41.58-3.92Q42.37-4.92 42.37-6.52L42.37-6.52Q42.37-8.15 41.58-9.15Q40.78-10.14 39.44-10.14Z" fill="#343434" />
            </g>
        </svg>
    