
        <svg width="64" height="64" xmlns="http://www.w3.org/2000/svg">
            <circle cx="32" cy="32" r="32" fill="#FFAA00" />
            <g transform="translate(8.1220703125 41.953125)">
                <path d="M5.88-19.91L5.88-3.29L14.59-3.29L14.59 0L1.78 0L1.78-19.91L5.88-19.91ZM30.05-19.91L30.05-17.69L22.35 0L18.18 0L25.89-16.71L16.00-16.71L16.00-19.91L30.05-19.91ZM45.98-11.89L45.98-8.23Q45.98-4.10 44.27-1.91Q42.56 0.27 39.27 0.27L39.27 0.27Q36.01 0.27 34.29-1.87Q32.57-4.02 32.53-8.03L32.53-8.03L32.53-11.69Q32.53-15.86 34.25-18.02Q35.98-20.18 39.24-20.18Q42.49-20.18 44.21-18.04Q45.94-15.90 45.98-11.89L45.98-11.89ZM42.03-7.52L42.03-12.25Q42.03-14.72 41.35-15.85Q40.67-16.98 39.24-16.98L39.24-16.98Q37.84-16.98 37.18-15.91Q36.52-14.83 36.48-12.55L36.48-12.55L36.48-7.71Q36.48-5.28 37.14-4.09Q37.80-2.91 39.27-2.91L39.27-2.91Q40.71-2.91 41.36-4.05Q42-5.18 42.03-7.52L42.03-7.52Z" fill="#343434" />
            </g>
        </svg>
    