
        <svg width="64" height="64" xmlns="http://www.w3.org/2000/svg">
            <circle cx="32" cy="32" r="32" fill="#FFAA00" />
            <g transform="translate(3.439453125 41.953125)">
                <path d="M1.78-19.91L7.14-19.91L12.25-5.47L17.34-19.91L22.72-19.91L22.72 0L18.61 0L18.61-5.44L19.02-14.83L13.64 0L10.83 0L5.47-14.82L5.88-5.44L5.88 0L1.78 0L1.78-19.91ZM29.90-8.61L29.90-11.70L32.01-11.70Q33.51-11.70 34.23-12.46Q34.96-13.21 34.96-14.45L34.96-14.45Q34.96-15.65 34.24-16.32Q33.52-16.99 32.27-16.99L32.27-16.99Q31.13-16.99 30.37-16.37Q29.60-15.75 29.60-14.75L29.60-14.75L25.65-14.75Q25.65-16.31 26.49-17.55Q27.33-18.79 28.84-19.48Q30.35-20.18 32.17-20.18L32.17-20.18Q35.33-20.18 37.12-18.67Q38.91-17.16 38.91-14.51L38.91-14.51Q38.91-13.14 38.08-11.99Q37.24-10.84 35.89-10.23L35.89-10.23Q37.57-9.63 38.40-8.42Q39.22-7.22 39.22-5.58L39.22-5.58Q39.22-2.93 37.29-1.33Q35.36 0.27 32.17 0.27L32.17 0.27Q29.19 0.27 27.30-1.30Q25.40-2.87 25.40-5.46L25.40-5.46L29.35-5.46Q29.35-4.33 30.19-3.62Q31.04-2.91 32.27-2.91L32.27-2.91Q33.67-2.91 34.47-3.66Q35.27-4.40 35.27-5.63L35.27-5.63Q35.27-8.61 31.99-8.61L31.99-8.61L29.90-8.61ZM55.34-11.89L55.34-8.23Q55.34-4.10 53.63-1.91Q51.93 0.27 48.63 0.27L48.63 0.27Q45.38 0.27 43.65-1.87Q41.93-4.02 41.89-8.03L41.89-8.03L41.89-11.69Q41.89-15.86 43.62-18.02Q45.35-20.18 48.60-20.18Q51.86-20.18 53.58-18.04Q55.30-15.90 55.34-11.89L55.34-11.89ZM51.39-7.52L51.39-12.25Q51.39-14.72 50.72-15.85Q50.04-16.98 48.60-16.98L48.60-16.98Q47.21-16.98 46.55-15.91Q45.88-14.83 45.84-12.55L45.84-12.55L45.84-7.71Q45.84-5.28 46.50-4.09Q47.17-2.91 48.63-2.91L48.63-2.91Q50.08-2.91 50.72-4.05Q51.37-5.18 51.39-7.52L51.39-7.52Z" fill="#343434" />
            </g>
        </svg>
    