
        <svg width="64" height="64" xmlns="http://www.w3.org/2000/svg">
            <circle cx="32" cy="32" r="32" fill="#FFAA00" />
            <g transform="translate(6.70703125 42.08984375)">
                <path d="M13.75-11.84L13.75-8.63L5.88-8.63L5.88-3.29L15.12-3.29L15.12 0L1.78 0L1.78-19.91L15.09-19.91L15.09-16.58L5.88-16.58L5.88-11.84L13.75-11.84ZM25.22-7.01L21.63-7.01L21.63 0L17.53 0L17.53-19.91L25.29-19.91Q27.54-19.91 29.24-19.09Q30.94-18.27 31.86-16.75Q32.77-15.24 32.77-13.32L32.77-13.32Q32.77-10.39 30.77-8.70Q28.77-7.01 25.22-7.01L25.22-7.01ZM21.63-16.58L21.63-10.34L25.29-10.34Q26.92-10.34 27.77-11.10Q28.63-11.87 28.63-13.29L28.63-13.29Q28.63-14.75 27.77-15.65Q26.91-16.56 25.39-16.58L25.39-16.58L21.63-16.58ZM48.81-3.19L48.81 0L35.16 0L35.16-2.71L41.60-9.57Q42.93-11.02 43.57-12.10Q44.20-13.18 44.20-14.15L44.20-14.15Q44.20-15.48 43.53-16.24Q42.86-16.99 41.62-16.99L41.62-16.99Q40.28-16.99 39.50-16.07Q38.73-15.15 38.73-13.64L38.73-13.64L34.77-13.64Q34.77-15.46 35.64-16.97Q36.50-18.47 38.09-19.33Q39.68-20.18 41.69-20.18L41.69-20.18Q44.76-20.18 46.46-18.70Q48.17-17.23 48.17-14.53L48.17-14.53Q48.17-13.06 47.40-11.53Q46.63-9.99 44.78-7.96L44.78-7.96L40.25-3.19L48.81-3.19Z" fill="#343434" />
            </g>
        </svg>
    