
        <svg width="64" height="64" xmlns="http://www.w3.org/2000/svg">
            <circle cx="32" cy="32" r="32" fill="#FFAA00" />
            <g transform="translate(6.26953125 41.953125)">
                <path d="M12.10-5.22L12.10-5.22Q12.10-6.38 11.28-7.01Q10.46-7.63 8.33-8.32Q6.19-9.01 4.95-9.68L4.95-9.68Q1.56-11.51 1.56-14.62L1.56-14.62Q1.56-16.23 2.47-17.49Q3.38-18.76 5.08-19.47Q6.78-20.18 8.90-20.18L8.90-20.18Q11.03-20.18 12.70-19.41Q14.37-18.63 15.29-17.23Q16.21-15.82 16.21-14.03L16.21-14.03L12.11-14.03Q12.11-15.39 11.25-16.15Q10.39-16.91 8.83-16.91L8.83-16.91Q7.33-16.91 6.49-16.28Q5.66-15.64 5.66-14.60L5.66-14.60Q5.66-13.63 6.64-12.97Q7.62-12.32 9.52-11.74L9.52-11.74Q13.02-10.69 14.62-9.13Q16.21-7.57 16.21-5.25L16.21-5.25Q16.21-2.67 14.26-1.20Q12.30 0.27 9.00 0.27L9.00 0.27Q6.70 0.27 4.81-0.57Q2.93-1.41 1.93-2.87Q0.94-4.33 0.94-6.26L0.94-6.26L5.06-6.26Q5.06-2.97 9.00-2.97L9.00-2.97Q10.46-2.97 11.28-3.56Q12.10-4.16 12.10-5.22ZM21.86-19.91L26.35-4.94L30.86-19.91L35.42-19.91L28.49 0L24.21 0L17.31-19.91L21.86-19.91ZM50.52-3.19L50.52 0L36.87 0L36.87-2.71L43.31-9.57Q44.64-11.02 45.27-12.10Q45.91-13.18 45.91-14.15L45.91-14.15Q45.91-15.48 45.24-16.24Q44.57-16.99 43.33-16.99L43.33-16.99Q41.99-16.99 41.21-16.07Q40.44-15.15 40.44-13.64L40.44-13.64L36.48-13.64Q36.48-15.46 37.34-16.97Q38.21-18.47 39.80-19.33Q41.38-20.18 43.39-20.18L43.39-20.18Q46.47-20.18 48.17-18.70Q49.88-17.23 49.88-14.53L49.88-14.53Q49.88-13.06 49.11-11.53Q48.34-9.99 46.48-7.96L46.48-7.96L41.96-3.19L50.52-3.19Z" fill="#343434" />
            </g>
        </svg>
    