
        <svg width="64" height="64" xmlns="http://www.w3.org/2000/svg">
            <circle cx="32" cy="32" r="32" fill="#FFAA00" />
            <g transform="translate(6.7685546875 41.953125)">
                <path d="M9.52 0L1.78 0L1.78-19.91L8.75-19.91Q12.37-19.91 14.25-18.52Q16.12-17.13 16.12-14.45L16.12-14.45Q16.12-12.99 15.37-11.87Q14.62-10.76 13.28-10.24L13.28-10.24Q14.81-9.86 15.69-8.70Q16.57-7.53 16.57-5.85L16.57-5.85Q16.57-2.98 14.74-1.50Q12.91-0.03 9.52 0L9.52 0ZM9.64-8.67L5.88-8.67L5.88-3.29L9.39-3.29Q10.84-3.29 11.66-3.99Q12.47-4.68 12.47-5.89L12.47-5.89Q12.47-8.63 9.64-8.67L9.64-8.67ZM5.88-16.58L5.88-11.57L8.91-11.57Q12.02-11.62 12.02-14.04L12.02-14.04Q12.02-15.39 11.23-15.99Q10.45-16.58 8.75-16.58L8.75-16.58L5.88-16.58ZM32.87-3.19L32.87 0L19.22 0L19.22-2.71L25.66-9.57Q26.99-11.02 27.62-12.10Q28.26-13.18 28.26-14.15L28.26-14.15Q28.26-15.48 27.59-16.24Q26.92-16.99 25.68-16.99L25.68-16.99Q24.34-16.99 23.56-16.07Q22.79-15.15 22.79-13.64L22.79-13.64L18.83-13.64Q18.83-15.46 19.69-16.97Q20.56-18.47 22.15-19.33Q23.73-20.18 25.74-20.18L25.74-20.18Q28.82-20.18 30.52-18.70Q32.22-17.23 32.22-14.53L32.22-14.53Q32.22-13.06 31.46-11.53Q30.69-9.99 28.83-7.96L28.83-7.96L24.31-3.19L32.87-3.19ZM48.69-11.89L48.69-8.23Q48.69-4.10 46.98-1.91Q45.27 0.27 41.97 0.27L41.97 0.27Q38.72 0.27 37.00-1.87Q35.27-4.02 35.23-8.03L35.23-8.03L35.23-11.69Q35.23-15.86 36.96-18.02Q38.69-20.18 41.95-20.18Q45.20-20.18 46.92-18.04Q48.64-15.90 48.69-11.89L48.69-11.89ZM44.73-7.52L44.73-12.25Q44.73-14.72 44.06-15.85Q43.38-16.98 41.95-16.98L41.95-16.98Q40.55-16.98 39.89-15.91Q39.22-14.83 39.18-12.55L39.18-12.55L39.18-7.71Q39.18-5.28 39.85-4.09Q40.51-2.91 41.97-2.91L41.97-2.91Q43.42-2.91 44.06-4.05Q44.71-5.18 44.73-7.52L44.73-7.52Z" fill="#343434" />
            </g>
        </svg>
    