
        <svg width="64" height="64" xmlns="http://www.w3.org/2000/svg">
            <circle cx="32" cy="32" r="32" fill="#FFAA00" />
            <g transform="translate(3.275390625 41.953125)">
                <path d="M1.78-19.91L7.14-19.91L12.25-5.47L17.34-19.91L22.72-19.91L22.72 0L18.61 0L18.61-5.44L19.02-14.83L13.64 0L10.83 0L5.47-14.82L5.88-5.44L5.88 0L1.78 0L1.78-19.91ZM39.53-3.19L39.53 0L25.88 0L25.88-2.71L32.32-9.57Q33.65-11.02 34.28-12.10Q34.92-13.18 34.92-14.15L34.92-14.15Q34.92-15.48 34.25-16.24Q33.58-16.99 32.33-16.99L32.33-16.99Q30.99-16.99 30.22-16.07Q29.45-15.15 29.45-13.64L29.45-13.64L25.48-13.64Q25.48-15.46 26.35-16.97Q27.22-18.47 28.81-19.33Q30.39-20.18 32.40-20.18L32.40-20.18Q35.48-20.18 37.18-18.70Q38.88-17.23 38.88-14.53L38.88-14.53Q38.88-13.06 38.12-11.53Q37.35-9.99 35.49-7.96L35.49-7.96L30.97-3.19L39.53-3.19ZM52.01-20.11L52.66-20.11L52.66-16.86L52.28-16.86Q49.60-16.82 47.97-15.46Q46.33-14.11 46.01-11.70L46.01-11.70Q47.59-13.32 50.01-13.32L50.01-13.32Q52.61-13.32 54.14-11.46Q55.67-9.60 55.67-6.56L55.67-6.56Q55.67-4.62 54.83-3.05Q53.99-1.48 52.45-0.60Q50.91 0.27 48.97 0.27L48.97 0.27Q45.83 0.27 43.89-1.91Q41.96-4.10 41.96-7.75L41.96-7.75L41.96-9.17Q41.96-12.41 43.18-14.90Q44.41-17.38 46.70-18.74Q48.99-20.10 52.01-20.11L52.01-20.11ZM48.81-10.14L48.81-10.14Q47.85-10.14 47.07-9.65Q46.29-9.15 45.92-8.33L45.92-8.33L45.92-7.12Q45.92-5.14 46.70-4.03Q47.48-2.91 48.89-2.91L48.89-2.91Q50.16-2.91 50.95-3.92Q51.73-4.92 51.73-6.52L51.73-6.52Q51.73-8.15 50.94-9.15Q50.15-10.14 48.81-10.14Z" fill="#343434" />
            </g>
        </svg>
    