
        <svg width="64" height="64" xmlns="http://www.w3.org/2000/svg">
            <circle cx="32" cy="32" r="32" fill="#FFAA00" />
            <g transform="translate(2.4140625 42.08984375)">
                <path d="M1.78-19.91L7.14-19.91L12.25-5.47L17.34-19.91L22.72-19.91L22.72 0L18.61 0L18.61-5.44L19.02-14.83L13.64 0L10.83 0L5.47-14.82L5.88-5.44L5.88 0L1.78 0L1.78-19.91ZM34.04 0L26.30 0L26.30-19.91L33.28-19.91Q36.90-19.91 38.77-18.52Q40.65-17.13 40.65-14.45L40.65-14.45Q40.65-12.99 39.89-11.87Q39.14-10.76 37.80-10.24L37.80-10.24Q39.33-9.86 40.22-8.70Q41.10-7.53 41.10-5.85L41.10-5.85Q41.10-2.98 39.27-1.50Q37.43-0.03 34.04 0L34.04 0ZM34.17-8.67L30.41-8.67L30.41-3.29L33.92-3.29Q35.37-3.29 36.18-3.99Q37.00-4.68 37.00-5.89L37.00-5.89Q37.00-8.63 34.17-8.67L34.17-8.67ZM30.41-16.58L30.41-11.57L33.44-11.57Q36.54-11.62 36.54-14.04L36.54-14.04Q36.54-15.39 35.76-15.99Q34.97-16.58 33.28-16.58L33.28-16.58L30.41-16.58ZM57.39-3.19L57.39 0L43.75 0L43.75-2.71L50.19-9.57Q51.52-11.02 52.15-12.10Q52.79-13.18 52.79-14.15L52.79-14.15Q52.79-15.48 52.12-16.24Q51.45-16.99 50.20-16.99L50.20-16.99Q48.86-16.99 48.09-16.07Q47.32-15.15 47.32-13.64L47.32-13.64L43.35-13.64Q43.35-15.46 44.22-16.97Q45.09-18.47 46.68-19.33Q48.26-20.18 50.27-20.18L50.27-20.18Q53.35-20.18 55.05-18.70Q56.75-17.23 56.75-14.53L56.75-14.53Q56.75-13.06 55.99-11.53Q55.22-9.99 53.36-7.96L53.36-7.96L48.84-3.19L57.39-3.19Z" fill="#343434" />
            </g>
        </svg>
    