
        <svg width="64" height="64" xmlns="http://www.w3.org/2000/svg">
            <circle cx="32" cy="32" r="32" fill="#FFAA00" />
            <g transform="translate(8.046875 41.953125)">
                <path d="M5.88-19.91L5.88-3.29L14.59-3.29L14.59 0L1.78 0L1.78-19.91L5.88-19.91ZM29.49-14.62L29.49-14.62Q29.49-13.17 28.77-12.04Q28.04-10.92 26.77-10.25L26.77-10.25Q28.22-9.56 29.07-8.33Q29.91-7.11 29.91-5.46L29.91-5.46Q29.91-2.80 28.11-1.26Q26.30 0.27 23.20 0.27Q20.10 0.27 18.28-1.27Q16.46-2.82 16.46-5.46L16.46-5.46Q16.46-7.11 17.31-8.34Q18.16-9.57 19.59-10.25L19.59-10.25Q18.32-10.92 17.60-12.04Q16.88-13.17 16.88-14.62L16.88-14.62Q16.88-17.16 18.58-18.67Q20.28-20.18 23.19-20.18L23.19-20.18Q26.09-20.18 27.79-18.68Q29.49-17.19 29.49-14.62ZM25.95-5.74L25.95-5.74Q25.95-7.04 25.20-7.82Q24.45-8.60 23.17-8.60L23.17-8.60Q21.92-8.60 21.16-7.83Q20.41-7.05 20.41-5.74L20.41-5.74Q20.41-4.47 21.15-3.69Q21.89-2.91 23.20-2.91L23.20-2.91Q24.49-2.91 25.22-3.66Q25.95-4.42 25.95-5.74ZM25.54-14.42L25.54-14.42Q25.54-15.59 24.92-16.29Q24.31-16.99 23.19-16.99L23.19-16.99Q22.08-16.99 21.46-16.31Q20.85-15.63 20.85-14.42L20.85-14.42Q20.85-13.23 21.46-12.51Q22.08-11.79 23.20-11.79Q24.32-11.79 24.93-12.51Q25.54-13.23 25.54-14.42ZM36.31-9.01L33.17-9.79L34.32-19.91L45.47-19.91L45.47-16.61L37.56-16.61L37.06-12.33Q38.47-13.08 40.06-13.08L40.06-13.08Q42.90-13.08 44.52-11.32Q46.13-9.56 46.13-6.38L46.13-6.38Q46.13-4.46 45.32-2.93Q44.50-1.41 42.98-0.57Q41.47 0.27 39.40 0.27L39.40 0.27Q37.60 0.27 36.05-0.46Q34.51-1.19 33.61-2.52Q32.72-3.84 32.66-5.54L32.66-5.54L36.57-5.54Q36.70-4.29 37.44-3.60Q38.19-2.91 39.39-2.91L39.39-2.91Q40.73-2.91 41.45-3.88Q42.18-4.84 42.18-6.60L42.18-6.60Q42.18-8.30 41.34-9.20Q40.51-10.10 38.98-10.10L38.98-10.10Q37.57-10.10 36.70-9.37L36.70-9.37L36.31-9.01Z" fill="#343434" />
            </g>
        </svg>
    