
        <svg width="64" height="64" xmlns="http://www.w3.org/2000/svg">
            <circle cx="32" cy="32" r="32" fill="#FFAA00" />
            <g transform="translate(3.3642578125 41.81640625)">
                <path d="M1.78-19.91L7.14-19.91L12.25-5.47L17.34-19.91L22.72-19.91L22.72 0L18.61 0L18.61-5.44L19.02-14.83L13.64 0L10.83 0L5.47-14.82L5.88-5.44L5.88 0L1.78 0L1.78-19.91ZM39.42-19.91L39.42-17.69L31.72 0L27.55 0L35.26-16.71L25.36-16.71L25.36-19.91L39.42-19.91ZM45.68-9.01L42.53-9.79L43.68-19.91L54.84-19.91L54.84-16.61L46.92-16.61L46.43-12.33Q47.84-13.08 49.42-13.08L49.42-13.08Q52.27-13.08 53.88-11.32Q55.49-9.56 55.49-6.38L55.49-6.38Q55.49-4.46 54.68-2.93Q53.87-1.41 52.35-0.57Q50.83 0.27 48.77 0.27L48.77 0.27Q46.96 0.27 45.42-0.46Q43.87-1.19 42.98-2.52Q42.08-3.84 42.03-5.54L42.03-5.54L45.94-5.54Q46.06-4.29 46.81-3.60Q47.55-2.91 48.75-2.91L48.75-2.91Q50.09-2.91 50.82-3.88Q51.54-4.84 51.54-6.60L51.54-6.60Q51.54-8.30 50.71-9.20Q49.88-10.10 48.34-10.10L48.34-10.10Q46.94-10.10 46.06-9.37L46.06-9.37L45.68-9.01Z" fill="#343434" />
            </g>
        </svg>
    