
        <svg width="64" height="64" xmlns="http://www.w3.org/2000/svg">
            <circle cx="32" cy="32" r="32" fill="#0062A1" />
            <g transform="translate(13.8779296875 41.953125)">
                <path d="M17.96-19.91L17.96 0L13.86 0L5.88-13.10L5.88 0L1.78 0L1.78-19.91L5.88-19.91L13.88-6.78L13.88-19.91L17.96-19.91ZM25.14-8.61L25.14-11.70L27.25-11.70Q28.75-11.70 29.48-12.46Q30.20-13.21 30.20-14.45L30.20-14.45Q30.20-15.65 29.48-16.32Q28.77-16.99 27.51-16.99L27.51-16.99Q26.37-16.99 25.61-16.37Q24.84-15.75 24.84-14.75L24.84-14.75L20.89-14.75Q20.89-16.31 21.73-17.55Q22.57-18.79 24.08-19.48Q25.59-20.18 27.41-20.18L27.41-20.18Q30.57-20.18 32.36-18.67Q34.15-17.16 34.15-14.51L34.15-14.51Q34.15-13.14 33.32-11.99Q32.48-10.84 31.13-10.23L31.13-10.23Q32.81-9.63 33.64-8.42Q34.47-7.22 34.47-5.58L34.47-5.58Q34.47-2.93 32.53-1.33Q30.60 0.27 27.41 0.27L27.41 0.27Q24.43 0.27 22.54-1.30Q20.64-2.87 20.64-5.46L20.64-5.46L24.60-5.46Q24.60-4.33 25.44-3.62Q26.28-2.91 27.51-2.91L27.51-2.91Q28.92-2.91 29.72-3.66Q30.52-4.40 30.52-5.63L30.52-5.63Q30.52-8.61 27.23-8.61L27.23-8.61L25.14-8.61Z" fill="#FDFCFC" />
            </g>
        </svg>
    