
        <svg width="64" height="64" xmlns="http://www.w3.org/2000/svg">
            <circle cx="32" cy="32" r="32" fill="#FFAA00" />
            <g transform="translate(7.8486328125 41.953125)">
                <path d="M5.88-19.91L5.88-3.29L14.59-3.29L14.59 0L1.78 0L1.78-19.91L5.88-19.91ZM30.05-19.91L30.05-17.69L22.35 0L18.18 0L25.89-16.71L16.00-16.71L16.00-19.91L30.05-19.91ZM44.27-19.91L44.27-7.49L46.53-7.49L46.53-4.31L44.27-4.31L44.27 0L40.32 0L40.32-4.31L32.16-4.31L31.98-6.79L40.28-19.91L44.27-19.91ZM40.06-14.07L35.92-7.49L40.32-7.49L40.32-14.52L40.06-14.07Z" fill="#343434" />
            </g>
        </svg>
    