
        <svg width="64" height="64" xmlns="http://www.w3.org/2000/svg">
            <circle cx="32" cy="32" r="32" fill="#FFAA00" />
            <g transform="translate(8.197265625 41.994140625)">
                <path d="M5.88-19.91L5.88-3.29L14.59-3.29L14.59 0L1.78 0L1.78-19.91L5.88-19.91ZM25.76-7.96L25.76-7.96Q24.21-6.44 22.15-6.44L22.15-6.44Q19.51-6.44 17.92-8.25Q16.34-10.06 16.34-13.14L16.34-13.14Q16.34-15.09 17.19-16.73Q18.05-18.36 19.58-19.27Q21.11-20.18 23.02-20.18L23.02-20.18Q24.99-20.18 26.52-19.20Q28.05-18.21 28.90-16.37Q29.75-14.52 29.76-12.14L29.76-12.14L29.76-10.68Q29.76-5.70 27.29-2.86Q24.81-0.01 20.28 0.18L20.28 0.18L19.30 0.19L19.30-3.10L20.18-3.12Q25.33-3.35 25.76-7.96ZM23.12-9.46L23.12-9.46Q24.08-9.46 24.77-9.95Q25.46-10.45 25.81-11.14L25.81-11.14L25.81-12.77Q25.81-14.78 25.05-15.89Q24.28-16.99 23.00-16.99L23.00-16.99Q21.81-16.99 21.04-15.91Q20.28-14.82 20.28-13.18L20.28-13.18Q20.28-11.55 21.02-10.51Q21.77-9.46 23.12-9.46ZM41.82-7.96L41.82-7.96Q40.28-6.44 38.21-6.44L38.21-6.44Q35.57-6.44 33.99-8.25Q32.40-10.06 32.40-13.14L32.40-13.14Q32.40-15.09 33.26-16.73Q34.11-18.36 35.64-19.27Q37.17-20.18 39.09-20.18L39.09-20.18Q41.06-20.18 42.59-19.20Q44.12-18.21 44.97-16.37Q45.81-14.52 45.83-12.14L45.83-12.14L45.83-10.68Q45.83-5.70 43.35-2.86Q40.88-0.01 36.34 0.18L36.34 0.18L35.37 0.19L35.37-3.10L36.24-3.12Q41.40-3.35 41.82-7.96ZM39.18-9.46L39.18-9.46Q40.14-9.46 40.83-9.95Q41.52-10.45 41.88-11.14L41.88-11.14L41.88-12.77Q41.88-14.78 41.11-15.89Q40.35-16.99 39.06-16.99L39.06-16.99Q37.87-16.99 37.11-15.91Q36.34-14.82 36.34-13.18L36.34-13.18Q36.34-11.55 37.08-10.51Q37.83-9.46 39.18-9.46Z" fill="#343434" />
            </g>
        </svg>
    