
        <svg width="64" height="64" xmlns="http://www.w3.org/2000/svg">
            <circle cx="32" cy="32" r="32" fill="#0062A1" />
            <g transform="translate(5.654296875 41.9189453125)">
                <path d="M17.96-19.91L17.96 0L13.86 0L5.88-13.10L5.88 0L1.78 0L1.78-19.91L5.88-19.91L13.88-6.78L13.88-19.91L17.96-19.91ZM30.72-19.93L30.72 0L26.77 0L26.77-15.23L22.05-13.77L22.05-16.98L30.30-19.93L30.72-19.93ZM47.25-20.11L47.91-20.11L47.91-16.86L47.52-16.86Q44.84-16.82 43.21-15.46Q41.58-14.11 41.25-11.70L41.25-11.70Q42.83-13.32 45.25-13.32L45.25-13.32Q47.85-13.32 49.38-11.46Q50.91-9.60 50.91-6.56L50.91-6.56Q50.91-4.62 50.07-3.05Q49.23-1.48 47.69-0.60Q46.16 0.27 44.21 0.27L44.21 0.27Q41.07 0.27 39.14-1.91Q37.20-4.10 37.20-7.75L37.20-7.75L37.20-9.17Q37.20-12.41 38.42-14.90Q39.65-17.38 41.94-18.74Q44.23-20.10 47.25-20.11L47.25-20.11ZM44.05-10.14L44.05-10.14Q43.09-10.14 42.31-9.65Q41.54-9.15 41.17-8.33L41.17-8.33L41.17-7.12Q41.17-5.14 41.95-4.03Q42.72-2.91 44.13-2.91L44.13-2.91Q45.40-2.91 46.19-3.92Q46.98-4.92 46.98-6.52L46.98-6.52Q46.98-8.15 46.18-9.15Q45.39-10.14 44.05-10.14Z" fill="#FAFAFA" />
            </g>
        </svg>
    