
        <svg width="64" height="64" xmlns="http://www.w3.org/2000/svg">
            <circle cx="32" cy="32" r="32" fill="#FFAA00" />
            <g transform="translate(6.6455078125 42.08984375)">
                <path d="M9.52 0L1.78 0L1.78-19.91L8.75-19.91Q12.37-19.91 14.25-18.52Q16.12-17.13 16.12-14.45L16.12-14.45Q16.12-12.99 15.37-11.87Q14.62-10.76 13.28-10.24L13.28-10.24Q14.81-9.86 15.69-8.70Q16.57-7.53 16.57-5.85L16.57-5.85Q16.57-2.98 14.74-1.50Q12.91-0.03 9.52 0L9.52 0ZM9.64-8.67L5.88-8.67L5.88-3.29L9.39-3.29Q10.84-3.29 11.66-3.99Q12.47-4.68 12.47-5.89L12.47-5.89Q12.47-8.63 9.64-8.67L9.64-8.67ZM5.88-16.58L5.88-11.57L8.91-11.57Q12.02-11.62 12.02-14.04L12.02-14.04Q12.02-15.39 11.23-15.99Q10.45-16.58 8.75-16.58L8.75-16.58L5.88-16.58ZM28.82-19.93L28.82 0L24.87 0L24.87-15.23L20.15-13.77L20.15-16.98L28.40-19.93L28.82-19.93ZM48.93-3.19L48.93 0L35.29 0L35.29-2.71L41.73-9.57Q43.05-11.02 43.69-12.10Q44.32-13.18 44.32-14.15L44.32-14.15Q44.32-15.48 43.65-16.24Q42.98-16.99 41.74-16.99L41.74-16.99Q40.40-16.99 39.63-16.07Q38.86-15.15 38.86-13.64L38.86-13.64L34.89-13.64Q34.89-15.46 35.76-16.97Q36.63-18.47 38.21-19.33Q39.80-20.18 41.81-20.18L41.81-20.18Q44.88-20.18 46.59-18.70Q48.29-17.23 48.29-14.53L48.29-14.53Q48.29-13.06 47.52-11.53Q46.76-9.99 44.90-7.96L44.90-7.96L40.37-3.19L48.93-3.19Z" fill="#343434" />
            </g>
        </svg>
    