<?xml version="1.0" encoding="UTF-8" standalone="yes"?>
<svg xmlns="http://www.w3.org/2000/svg" xmlns:xlink="http://www.w3.org/1999/xlink" width="64px" height="64px" viewBox="0 0 64 64" version="1.1">
  <g id="surface1">
    <path style=" stroke:none;fill-rule:nonzero;fill:rgb(12.54902%,21.960784%,36.470589%);fill-opacity:1;" d="M 64 32 C 64 49.671875 49.671875 64 32 64 C 14.328125 64 0 49.671875 0 32 C 0 14.328125 14.328125 0 32 0 C 49.671875 0 64 14.328125 64 32 Z M 64 32 "/>
    <path style=" stroke:none;fill-rule:nonzero;fill:rgb(100%,23.137255%,5.882353%);fill-opacity:1;" d="M 30.042969 26.640625 L 25.839844 42.722656 L 29.925781 42.722656 L 34.128906 26.640625 Z M 30.042969 26.640625 "/>
    <path style=" stroke:none;fill-rule:nonzero;fill:rgb(100%,23.137255%,5.882353%);fill-opacity:1;" d="M 32.773438 25.21875 C 34.09375 25.21875 35.128906 24.15625 35.128906 22.890625 C 35.128906 21.628906 34.09375 20.507812 32.773438 20.507812 C 31.449219 20.507812 30.414062 21.570312 30.414062 22.894531 C 30.414062 24.214844 31.480469 25.222656 32.773438 25.222656 Z M 32.773438 25.21875 "/>
    <path style=" stroke:none;fill-rule:nonzero;fill:rgb(100%,23.137255%,5.882353%);fill-opacity:1;" d="M 53.023438 25.21875 C 54.347656 25.21875 55.382812 24.15625 55.382812 22.890625 C 55.382812 21.628906 54.347656 20.507812 53.023438 20.507812 C 51.703125 20.507812 50.667969 21.570312 50.667969 22.890625 C 50.667969 24.214844 51.730469 25.21875 53.023438 25.21875 Z M 53.023438 25.21875 "/>
    <path style=" stroke:none;fill-rule:nonzero;fill:rgb(100%,23.137255%,5.882353%);fill-opacity:1;" d="M 42.378906 39.363281 C 39.921875 39.363281 38.113281 37.589844 38.113281 34.714844 C 38.113281 31.839844 39.984375 30.0625 42.378906 30.0625 C 44.058594 30.0625 45.480469 30.773438 46.414062 32.808594 L 49.742188 30.609375 C 48.613281 27.867188 45.964844 26.25 42.410156 26.25 C 37.855469 26.25 33.976562 29.609375 33.976562 34.714844 C 33.976562 39.816406 37.660156 43.175781 42.410156 43.175781 C 45.769531 43.175781 48.386719 41.59375 49.902344 38.558594 L 46.609375 36.425781 C 45.703125 38.300781 44.507812 39.367188 42.375 39.367188 Z M 42.378906 39.363281 "/>
    <path style=" stroke:none;fill-rule:nonzero;fill:rgb(100%,23.137255%,5.882353%);fill-opacity:1;" d="M 18.25 26.1875 C 16.109375 26.1875 14.167969 27.097656 12.964844 28.621094 L 12.964844 20.6875 L 8.882812 20.6875 L 8.882812 42.722656 L 12.964844 42.722656 L 12.964844 40.742188 C 13.9375 42.074219 15.65625 43.175781 18.1875 43.175781 C 22.398438 43.175781 25.933594 40.03125 25.933594 34.683594 C 25.933594 29.332031 22.5625 26.1875 18.25 26.1875 Z M 17.246094 39.351562 C 14.621094 39.351562 12.707031 37.40625 12.707031 34.683594 C 12.707031 31.957031 14.621094 30.015625 17.246094 30.015625 C 19.871094 30.015625 21.785156 31.960938 21.785156 34.683594 C 21.785156 37.40625 19.871094 39.351562 17.246094 39.351562 Z M 17.246094 39.351562 "/>
    <path style=" stroke:none;fill-rule:nonzero;fill:rgb(100%,23.137255%,5.882353%);fill-opacity:1;" d="M 55.0625 26.703125 L 50.992188 26.703125 L 50.992188 42.726562 L 55.0625 42.726562 Z M 55.0625 26.703125 "/>
  </g>
</svg>