<?xml version="1.0" encoding="UTF-8" standalone="yes"?>
<svg xmlns="http://www.w3.org/2000/svg" xmlns:xlink="http://www.w3.org/1999/xlink" width="64px" height="27px" viewBox="0 0 64 27" version="1.1">
  <g id="surface1">
    <path style=" stroke:none;fill-rule:nonzero;fill:rgb(100%,23.137255%,5.882353%);fill-opacity:1;" d="M 42.886719 21.273438 L 45.816406 21.273438 L 48.824219 9.941406 L 45.898438 9.941406 Z M 42.886719 21.273438 "/>
    <path style=" stroke:none;fill-rule:nonzero;fill:rgb(100%,23.137255%,5.882353%);fill-opacity:1;" d="M 46.167969 7.1875 C 46.167969 8.082031 46.929688 8.828125 47.855469 8.828125 C 48.800781 8.828125 49.542969 8.082031 49.542969 7.1875 C 49.542969 6.257812 48.800781 5.507812 47.855469 5.507812 C 46.929688 5.507812 46.167969 6.257812 46.167969 7.1875 "/>
    <path style=" stroke:none;fill-rule:nonzero;fill:rgb(100%,23.137255%,5.882353%);fill-opacity:1;" d="M 60.675781 7.1875 C 60.675781 8.082031 61.4375 8.828125 62.367188 8.828125 C 63.3125 8.828125 64.054688 8.082031 64.054688 7.1875 C 64.054688 6.257812 63.3125 5.507812 62.367188 5.507812 C 61.4375 5.507812 60.675781 6.257812 60.675781 7.1875 "/>
    <path style=" stroke:none;fill-rule:nonzero;fill:rgb(100%,23.137255%,5.882353%);fill-opacity:1;" d="M 57.769531 16.726562 C 57.121094 18.046875 56.265625 18.800781 54.738281 18.800781 C 52.976562 18.800781 51.683594 17.546875 51.683594 15.519531 C 51.683594 13.515625 53.023438 12.242188 54.738281 12.242188 C 55.941406 12.242188 56.960938 12.742188 57.628906 14.179688 L 60.015625 12.628906 C 59.203125 10.695312 57.308594 9.554688 54.761719 9.554688 C 51.496094 9.554688 48.71875 11.921875 48.71875 15.519531 C 48.71875 19.121094 51.359375 21.488281 54.761719 21.488281 C 57.167969 21.488281 59.042969 20.371094 60.128906 18.230469 Z M 57.769531 16.726562 "/>
    <path style=" stroke:none;fill-rule:nonzero;fill:rgb(100%,23.137255%,5.882353%);fill-opacity:1;" d="M 36.730469 18.789062 C 34.847656 18.789062 33.476562 17.417969 33.476562 15.5 C 33.476562 13.582031 34.847656 12.207031 36.730469 12.207031 C 38.613281 12.207031 39.980469 13.578125 39.980469 15.5 C 39.980469 17.417969 38.613281 18.789062 36.730469 18.789062 M 37.449219 9.511719 C 35.917969 9.511719 34.523438 10.152344 33.664062 11.226562 L 33.664062 5.636719 L 30.738281 5.636719 L 30.738281 21.167969 L 33.664062 21.167969 L 33.664062 19.773438 C 34.359375 20.710938 35.59375 21.488281 37.402344 21.488281 C 40.421875 21.488281 42.957031 19.269531 42.957031 15.5 C 42.957031 11.730469 40.539062 9.511719 37.449219 9.511719 "/>
    <path style=" stroke:none;fill-rule:nonzero;fill:rgb(100%,23.137255%,5.882353%);fill-opacity:1;" d="M 25.316406 9.511719 C 23.898438 9.511719 22.480469 10.128906 21.644531 11.453125 C 21.160156 10.242188 20.136719 9.511719 18.441406 9.511719 C 17.234375 9.511719 15.953125 10.039062 15.09375 11.339844 L 15.09375 9.832031 L 12.167969 9.832031 L 12.167969 21.167969 L 15.09375 21.167969 L 15.09375 14.8125 C 15.09375 12.984375 16.140625 12.027344 17.277344 12.027344 C 18.554688 12.027344 19.136719 12.824219 19.136719 14.195312 L 19.136719 21.167969 L 22.0625 21.167969 L 22.0625 14.859375 C 22.0625 12.984375 22.992188 12.027344 24.292969 12.027344 C 25.570312 12.027344 26.105469 12.824219 26.105469 14.152344 L 26.105469 21.167969 L 29.03125 21.167969 L 29.03125 13.238281 C 29.03125 10.996094 27.707031 9.511719 25.316406 9.511719 "/>
    <path style=" stroke:none;fill-rule:nonzero;fill:rgb(100%,23.137255%,5.882353%);fill-opacity:1;" d="M 7.574219 15.867188 C 7.574219 18.058594 6.273438 19.15625 4.574219 19.15625 C 3.554688 19.15625 2.855469 18.699219 2.855469 17.785156 C 2.855469 16.871094 3.53125 16.324219 4.785156 16.117188 L 7.574219 15.660156 Z M 10.5 13.625 C 10.5 10.859375 8.6875 9.511719 5.457031 9.511719 C 2.371094 9.511719 0.605469 11.226562 0.605469 12.984375 C 0.605469 13.304688 0.671875 13.648438 0.8125 13.945312 L 3.4375 13.078125 C 3.390625 12.941406 3.390625 12.894531 3.390625 12.804688 C 3.390625 12.09375 4.113281 11.523438 5.457031 11.523438 C 6.875 11.523438 7.574219 12.140625 7.574219 13.238281 L 7.574219 13.671875 L 4.113281 14.199219 C 1.929688 14.515625 0 15.636719 0 17.945312 C 0 20.09375 1.601562 21.488281 3.878906 21.488281 C 5.527344 21.488281 6.921875 20.777344 7.734375 19.363281 C 7.734375 20.34375 8.105469 20.9375 8.292969 21.167969 L 11.265625 21.167969 C 10.707031 20.367188 10.5 19.660156 10.5 18.355469 Z M 10.5 13.625 "/>
    <path style=" stroke:none;fill-rule:evenodd;fill:rgb(100%,23.137255%,5.882353%);fill-opacity:1;" d="M 60.90625 9.960938 L 63.824219 9.960938 L 63.824219 21.253906 L 60.90625 21.253906 Z M 60.90625 9.960938 "/>
  </g>
</svg>