<svg width="40" height="40" viewBox="0 0 40 40" fill="none" xmlns="http://www.w3.org/2000/svg">
<g clip-path="url(#clip0_3855_1830)">
<path d="M9.42221 34.4491C8.85171 34.4491 8.30616 34.4522 7.7606 34.443C7.71384 34.443 7.6546 34.364 7.62759 34.3096C7.60473 34.2624 7.61927 34.1967 7.61927 34.1392C7.61927 31.9915 7.61927 29.8427 7.61927 27.6949C7.61927 27.3717 7.62135 27.3696 7.94349 27.3696C8.42358 27.3686 8.90471 27.3696 9.41909 27.3696V28.2295C9.99167 27.5564 10.6723 27.1685 11.5618 27.1757C12.4482 27.1839 13.1372 27.5133 13.5238 28.3804C13.8573 27.9166 14.2335 27.5789 14.725 27.385C15.4161 27.112 16.1237 27.0792 16.8148 27.347C17.7677 27.7165 18.1148 28.4974 18.1251 29.4414C18.1428 31.0484 18.1303 32.6554 18.1293 34.2624C18.1293 34.3178 18.1127 34.3722 18.1023 34.4379H16.3222C16.3222 34.3281 16.3222 34.2326 16.3222 34.1372C16.3222 32.8011 16.3222 31.464 16.3212 30.1279C16.3212 29.9648 16.3253 29.7965 16.291 29.6385C16.1632 29.0371 15.8276 28.7478 15.2592 28.7283C14.6076 28.7057 14.0787 29.0464 13.9155 29.6426C13.8303 29.9545 13.7846 30.286 13.7804 30.6092C13.7648 31.7975 13.769 32.9869 13.7784 34.1752C13.7804 34.3865 13.7254 34.4656 13.5009 34.4563C13.1029 34.4399 12.7039 34.4522 12.3048 34.4522C11.9744 34.4522 11.9733 34.4522 11.9733 34.1351C11.9733 32.8319 11.9744 31.5276 11.9702 30.2244C11.9702 30.012 11.9619 29.7955 11.9172 29.5892C11.8362 29.2065 11.6304 28.9048 11.2293 28.7888C10.7492 28.6513 10.3045 28.7211 9.93659 29.0751C9.56354 29.4343 9.42741 29.893 9.42533 30.3927C9.42013 31.6385 9.42325 32.8853 9.42325 34.131C9.42325 34.2275 9.42325 34.3239 9.42325 34.4491H9.42221Z" fill="#FF3B0F"/>
<path d="M21.0275 28.1659C21.3517 27.935 21.6209 27.697 21.9285 27.5328C23.6576 26.6092 25.9095 27.4661 26.5506 29.3152C27.0151 30.6544 26.9673 31.9802 26.1745 33.2095C25.4813 34.2829 24.0858 34.8432 22.818 34.6133C22.1643 34.4953 21.6084 34.2285 21.1657 33.738C21.1491 33.7195 21.1304 33.7031 21.1106 33.6877C21.0992 33.6795 21.0826 33.6764 21.0265 33.6569C21.0265 33.8632 21.0202 34.0551 21.0286 34.246C21.0348 34.3876 20.9932 34.4563 20.8353 34.4543C20.3541 34.4481 19.872 34.4502 19.3898 34.4532C19.2641 34.4532 19.2038 34.406 19.2142 34.2788C19.2183 34.2295 19.2142 34.1803 19.2142 34.131C19.2142 31.1059 19.2173 28.0807 19.2079 25.0556C19.2079 24.8052 19.2724 24.7272 19.5259 24.7395C19.9322 24.759 20.3396 24.7529 20.7469 24.7395C20.9579 24.7324 21.0358 24.7888 21.0327 25.0125C21.0202 25.972 21.0265 26.9304 21.0265 27.8899C21.0265 27.9771 21.0265 28.0654 21.0265 28.1649L21.0275 28.1659ZM24.995 30.9099C24.995 29.7103 24.1304 28.835 22.9468 28.837C21.7726 28.8391 20.8966 29.7277 20.8945 30.9191C20.8924 32.1187 21.7653 32.9827 22.9801 32.9838C24.145 32.9838 24.995 32.1095 24.994 30.9099H24.995Z" fill="#FF3B0F"/>
<path d="M0.511442 29.9248C0.246457 29.229 0.431427 28.6544 0.867872 28.1413C1.24301 27.7011 1.74076 27.4394 2.30295 27.3121C3.31405 27.0833 4.31787 27.0956 5.2739 27.5317C6.07924 27.8981 6.48971 28.5661 6.52192 29.424C6.55829 30.3814 6.53959 31.3419 6.53439 32.3014C6.53024 33.0351 6.54894 33.7596 7.00305 34.4543C6.71936 34.4543 6.48347 34.4543 6.24759 34.4543C5.98988 34.4543 5.73112 34.4368 5.47549 34.4584C5.22713 34.4789 5.07854 34.3865 5.01099 34.1598C4.93929 33.9186 4.87486 33.6744 4.80004 33.4035C4.75536 33.4579 4.70652 33.5143 4.66183 33.5738C3.97703 34.4881 3.03867 34.7652 1.93924 34.6164C1.20872 34.5169 0.614318 34.1813 0.268279 33.5184C-0.26273 32.4994 -0.0975042 30.9807 1.54748 30.3927C2.1398 30.1803 2.78616 30.1105 3.41069 29.9884C3.80869 29.9114 4.21292 29.8642 4.61091 29.7893C4.66495 29.7791 4.73561 29.6898 4.74289 29.6303C4.81251 29.0351 4.48102 28.5908 3.88974 28.4604C3.46472 28.367 3.04698 28.3876 2.64275 28.5456C2.3175 28.6728 2.10863 28.8935 2.09512 29.2639C2.09304 29.3245 2.02757 29.4158 1.97146 29.4363C1.49656 29.6046 1.01751 29.7585 0.508324 29.9268L0.511442 29.9248ZM4.746 31.0063C4.21292 31.0905 3.7162 31.1685 3.21948 31.2485C3.08855 31.2701 2.95346 31.2824 2.83084 31.3275C2.5856 31.4189 2.3175 31.4897 2.11278 31.6405C1.57969 32.0346 1.67634 32.8986 2.27489 33.1151C2.93372 33.3542 3.56033 33.2362 4.09341 32.7909C4.63897 32.3352 4.74497 31.7052 4.746 31.0063Z" fill="#FF3B0F"/>
<path d="M36.1202 31.7165C36.5982 32.0212 37.0679 32.3198 37.5574 32.6318C37.1469 33.4178 36.5837 34.0069 35.7721 34.3568C34.1988 35.0351 32.2338 34.5784 31.2216 33.2783C30.727 32.6421 30.4932 31.9135 30.4662 31.11C30.4267 29.9402 30.779 28.9284 31.6716 28.1372C32.4572 27.4414 33.3966 27.1644 34.4461 27.2106C35.2733 27.2475 36.0464 27.4466 36.6637 28.0089C36.9557 28.2747 37.1698 28.6267 37.4057 28.9499C37.44 28.9971 37.4233 29.1418 37.3807 29.1716C36.9391 29.4733 36.487 29.7596 36.0267 30.0592C35.9695 29.9627 35.9259 29.8847 35.8791 29.8088C35.3544 28.9499 34.6332 28.757 33.7759 28.9099C32.956 29.0566 32.373 29.7739 32.3024 30.6164C32.2473 31.2752 32.3367 31.8991 32.8022 32.4091C33.5805 33.2629 35.0717 33.1787 35.7721 32.247C35.8937 32.0849 35.9955 31.9073 36.1202 31.7154V31.7165Z" fill="#FF3B0F"/>
<path d="M39.8456 34.4502C39.2917 34.4502 38.7451 34.4532 38.1996 34.445C38.157 34.445 38.0925 34.3753 38.078 34.327C38.0562 34.2511 38.0676 34.1649 38.0676 34.0828C38.0676 31.9586 38.0697 29.8355 38.0624 27.7113C38.0624 27.4815 38.1154 27.3891 38.3648 27.4004C38.7961 27.4189 39.2283 27.4086 39.6606 27.4045C39.7978 27.4035 39.8747 27.4322 39.8747 27.5933C39.8705 29.8396 39.8705 32.0869 39.8695 34.3332C39.8695 34.3568 39.8601 34.3804 39.8456 34.4502Z" fill="#FF3B0F"/>
<path d="M30.488 27.3717C30.3976 27.7308 30.3228 28.0387 30.2407 28.3455C29.7159 30.3229 29.1901 32.3014 28.6601 34.2778C28.6425 34.3424 28.5697 34.442 28.5209 34.443C27.967 34.4543 27.4121 34.4502 26.8229 34.4502C26.931 34.0294 27.0286 33.6426 27.1305 33.2578C27.6178 31.4137 28.1062 29.5707 28.5926 27.7267C28.6851 27.3737 28.6799 27.3727 29.0446 27.3727C29.5081 27.3727 29.9715 27.3727 30.488 27.3727V27.3717Z" fill="#FF3B0F"/>
<path d="M29.8988 24.6677C30.4838 24.6667 30.9598 25.1367 30.9525 25.7113C30.9463 26.2583 30.4745 26.7139 29.9113 26.7159C29.3262 26.718 28.8742 26.2757 28.8731 25.698C28.8721 25.1161 29.3169 24.6677 29.8988 24.6667V24.6677Z" fill="#FF3B0F"/>
<path d="M38.9654 26.717C38.3887 26.7129 37.9367 26.2675 37.9388 25.7041C37.9408 25.1182 38.3908 24.6667 38.9706 24.6677C39.5515 24.6687 40.0212 25.1295 40.0223 25.697C40.0223 26.2614 39.5463 26.7211 38.9665 26.718L38.9654 26.717Z" fill="#FF3B0F"/>
<path d="M4.00016 19.8333C5.3335 18.6667 6.66683 18.1667 8.00016 18.1667C8.3335 18.1667 8.66683 18.1667 9.00016 18.3333L7.50016 21.6667H10.1668L11.1668 19.3333C11.3335 19.5 11.6668 19.5 11.6668 19.6667C12.1668 20.3333 12.6668 21 13.0002 21.6667H15.6668C15.3335 20.5 14.6668 19.1667 13.6668 18C13.3335 17.6667 12.8335 17.3333 12.5002 17L13.8335 14L17.8335 21.6667H26.1668C26.5002 21 26.8335 20.3333 27.3335 19.8333C27.5002 19.8333 27.5002 19.6667 27.6668 19.6667L28.8335 21.6667H31.6668L29.8335 18.3333C30.3335 18.1667 30.8335 18.1667 31.1668 18.1667C32.5002 18.1667 34.0002 18.8333 35.0002 19.6667C35.5002 20.3333 36.0002 21 36.3335 21.6667H39.0002C38.6668 20.5 38.0002 19.1667 37.0002 18C35.5002 16.5 33.5002 15.6667 31.3335 15.6667C30.5002 15.6667 29.6668 15.8333 28.6668 16.1667L25.6668 10.6667L27.8335 7.5H30.5002C31.1668 7.5 31.8335 7 31.8335 6.16667C31.8335 5.33333 31.1668 5 30.3335 5H27.0002H22.8335C22.1668 5 21.6668 5.5 21.6668 6.33333C21.6668 7.16667 22.1668 7.66667 23.0002 7.66667H24.8335L23.1668 10.1667H14.5002C13.5002 7.83333 11.3335 5 8.00016 5C7.3335 5 6.66683 5.5 6.66683 6.33333C6.66683 7.16667 7.16683 7.66667 8.00016 7.66667C10.1668 7.66667 11.6668 10 12.3335 11.3333L10.0002 16C9.3335 15.8333 8.66683 15.6667 8.00016 15.6667C6.00016 15.6667 4.16683 16.5 2.3335 18C1.3335 19 0.666829 20.3333 0.333496 21.6667H3.00016C3.16683 21 3.50016 20.3333 4.00016 19.8333ZM23.5002 12.5C23.6668 12.5 23.6668 12.5 23.6668 12.5L26.3335 17.5C26.0002 17.6667 25.8335 17.8333 25.5002 18.1667C24.6668 19 24.1668 20 23.6668 21H20.0002L15.6668 12.6667H23.5002V12.5Z" fill="#323232"/>
</g>
<defs>
<clipPath id="clip0_3855_1830">
<rect width="40" height="40" fill="white"/>
</clipPath>
</defs>
</svg>
