<?xml version="1.0" encoding="UTF-8" standalone="no"?>
<svg
   xmlns:dc="http://purl.org/dc/elements/1.1/"
   xmlns:cc="http://creativecommons.org/ns#"
   xmlns:rdf="http://www.w3.org/1999/02/22-rdf-syntax-ns#"
   xmlns:svg="http://www.w3.org/2000/svg"
   xmlns="http://www.w3.org/2000/svg"
   xmlns:sodipodi="http://sodipodi.sourceforge.net/DTD/sodipodi-0.dtd"
   xmlns:inkscape="http://www.inkscape.org/namespaces/inkscape"
   width="64"
   height="64"
   viewBox="0 0 64 64"
   fill="none"
   version="1.1"
   id="svg8"
   sodipodi:docname="AMBICI_ESTACIO.svg"
   inkscape:version="1.0.2-2 (e86c870879, 2021-01-15)">
  <metadata
     id="metadata14">
    <rdf:RDF>
      <cc:Work
         rdf:about="">
        <dc:format>image/svg+xml</dc:format>
        <dc:type
           rdf:resource="http://purl.org/dc/dcmitype/StillImage" />
        <dc:title></dc:title>
      </cc:Work>
    </rdf:RDF>
  </metadata>
  <defs
     id="defs12" />
  <sodipodi:namedview
     pagecolor="#ffffff"
     bordercolor="#666666"
     borderopacity="1"
     objecttolerance="10"
     gridtolerance="10"
     guidetolerance="10"
     inkscape:pageopacity="0"
     inkscape:pageshadow="2"
     inkscape:window-width="1920"
     inkscape:window-height="1017"
     id="namedview10"
     showgrid="false"
     showguides="true"
     inkscape:lockguides="false"
     inkscape:document-units="px"
     inkscape:zoom="8.8541667"
     inkscape:cx="27.314444"
     inkscape:cy="32.963088"
     inkscape:window-x="-8"
     inkscape:window-y="-8"
     inkscape:window-maximized="1"
     inkscape:current-layer="svg8" />
  <circle
     cx="32"
     cy="32"
     fill="#20385d"
     id="circle150"
     style="stroke-width:4.57143"
     r="32" />
  <path
     d="m 30.042364,26.642548 -4.201829,16.081029 h 4.084472 l 4.2036,-16.081029 z"
     fill="#ff3b0f"
     id="path152"
     style="stroke-width:4.42857" />
  <path
     d="m 32.772578,25.220091 c 1.321487,0 2.356443,-1.062858 2.356443,-2.327613 0,-1.264711 -1.034956,-2.384343 -2.356443,-2.384343 -1.321486,0 -2.356886,1.062945 -2.356886,2.385761 0,1.32268 1.062858,2.327523 2.356886,2.327523 z"
     fill="#ff3b0f"
     id="path154"
     style="stroke-width:4.42857" />
  <path
     d="m 53.024879,25.220091 c 1.321486,0 2.356886,-1.062858 2.356886,-2.327613 0,-1.264711 -1.0354,-2.385715 -2.356886,-2.385715 -1.321043,0 -2.356443,1.062946 -2.356443,2.385715 0,1.322771 1.062857,2.327613 2.356443,2.327613 z"
     fill="#ff3b0f"
     id="path156"
     style="stroke-width:4.42857" />
  <path
     d="m 42.377707,39.364506 c -2.454757,0 -4.264272,-1.775857 -4.264272,-4.650885 0,-2.875472 1.872843,-4.65133 4.264272,-4.65133 1.679315,0 3.101771,0.710343 4.037529,2.74483 l 3.327187,-2.19613 c -1.131058,-2.745272 -3.779345,-4.360814 -7.33283,-4.360814 -4.554786,0 -8.432,3.359957 -8.432,8.463444 0,5.103042 3.682357,8.463443 8.432,8.463443 3.359958,0 5.9768,-1.582772 7.494472,-4.619443 l -3.2953,-2.131473 c -0.903872,1.874173 -2.099586,2.939687 -4.232386,2.939687 z"
     fill="#ff3b0f"
     id="path158"
     style="stroke-width:4.42857" />
  <path
     d="m 18.250583,26.189063 c -2.139709,0 -4.084515,0.9083 -5.284305,2.431285 V 20.689219 H 8.8817627 V 42.72225 h 4.0845153 v -1.978244 c 0.97309,1.329901 2.691243,2.431729 5.219338,2.431729 4.214495,0 7.748804,-3.144729 7.748804,-8.494001 0,-5.349271 -3.371205,-8.494 -7.683837,-8.494 z m -1.004887,13.163044 c -2.626231,0 -4.539286,-1.944586 -4.539286,-4.669043 0,-2.724459 1.913055,-4.667716 4.539286,-4.667716 2.626275,0 4.539286,1.944586 4.539286,4.667716 0,2.723127 -1.913011,4.669043 -4.539286,4.669043 z"
     fill="#ff3b0f"
     id="path160"
     style="stroke-width:4.42857" />
  <path
     d="m 55.061136,26.701891 h -4.070742 v 16.023016 h 4.070742 z"
     fill="#ff3b0f"
     id="path162"
     style="stroke-width:4.42857" />
</svg>
