<?xml version="1.0" encoding="UTF-8" standalone="no"?>
<svg xmlns="http://www.w3.org/2000/svg" xmlns:xlink="http://www.w3.org/1999/xlink" xmlns:serif="http://www.serif.com/" width="100%" height="100%" viewBox="0 0 583 250" version="1.1" xml:space="preserve" style="fill-rule:evenodd;clip-rule:evenodd;stroke-linejoin:round;stroke-miterlimit:2;">
    <g transform="matrix(1,0,0,1,-165.095,41.468)">
        <path d="M555.778,155.526L582.44,155.526L609.869,50.571L583.208,50.571L555.778,155.526Z" style="fill:rgb(255,59,15);fill-rule:nonzero;"></path>
    </g>
    <g transform="matrix(1,0,0,1,-165.095,40.468)">
        <path d="M585.64,26.099C585.64,34.351 592.58,41.291 601.02,41.291C609.648,41.291 616.401,34.351 616.401,26.099C616.401,17.471 609.648,10.532 601.02,10.532C592.58,10.532 585.64,17.471 585.64,26.099" style="fill:rgb(255,59,15);fill-rule:nonzero;"></path>
    </g>
    <g transform="matrix(1,0,0,1,-165.095,40.468)">
        <path d="M717.829,26.099C717.829,34.351 724.769,41.291 733.209,41.291C741.837,41.291 748.59,34.351 748.59,26.099C748.59,17.471 741.837,10.532 733.209,10.532C724.769,10.532 717.829,17.471 717.829,26.099" style="fill:rgb(255,59,15);fill-rule:nonzero;"></path>
    </g>
    <g transform="matrix(1,0,0,1,-165.095,40.468)">
        <path d="M691.34,114.422C685.437,126.65 677.635,133.609 663.72,133.609C647.696,133.609 635.889,122.013 635.889,103.248C635.889,84.694 648.117,72.887 663.72,72.887C674.684,72.887 683.961,77.525 690.076,90.808L711.792,76.471C704.413,58.549 687.123,48.007 663.931,48.007C634.202,48.007 608.901,69.936 608.901,103.249C608.901,136.562 632.937,158.49 663.931,158.49C685.859,158.49 702.937,148.159 712.847,128.34L691.341,114.424L691.34,114.422Z" style="fill:rgb(255,59,15);fill-rule:nonzero;"></path>
    </g>
    <g transform="matrix(1,0,0,1,-165.095,40.468)">
        <path d="M499.683,133.519C482.544,133.519 470.059,120.822 470.059,103.048C470.059,85.274 482.544,72.577 499.683,72.577C516.822,72.577 529.308,85.273 529.308,103.048C529.308,120.823 516.823,133.519 499.683,133.519M506.243,47.608C492.278,47.608 479.581,53.533 471.752,63.478L471.752,11.715L445.09,11.715L445.09,155.526L471.752,155.526L471.752,142.618C478.1,151.295 489.315,158.488 505.82,158.488C533.329,158.488 556.393,137.963 556.393,103.049C556.393,68.135 534.386,47.609 506.243,47.609" style="fill:rgb(255,59,15);fill-rule:nonzero;"></path>
    </g>
    <g transform="matrix(1,0,0,1,-165.095,40.468)">
        <path d="M395.711,47.608C382.803,47.608 369.895,53.322 362.277,65.594C357.834,54.379 348.523,47.608 333.076,47.608C322.073,47.608 310.435,52.475 302.605,64.536L302.605,50.571L275.943,50.571L275.943,155.526L302.605,155.526L302.605,96.7C302.605,79.772 312.127,70.884 322.496,70.884C334.134,70.884 339.424,78.29 339.424,90.987L339.424,155.525L366.086,155.525L366.086,97.123C366.086,79.771 374.55,70.884 386.4,70.884C398.038,70.884 402.904,78.29 402.904,90.563L402.904,155.525L429.566,155.525L429.566,82.1C429.566,61.363 417.505,47.609 395.71,47.609" style="fill:rgb(255,59,15);fill-rule:nonzero;"></path>
    </g>
    <g transform="matrix(1,0,0,1,-165.095,40.468)">
        <path d="M234.077,106.434C234.077,126.747 222.228,136.905 206.78,136.905C197.469,136.905 191.122,132.673 191.122,124.208C191.122,115.743 197.258,110.665 208.684,108.761L234.077,104.528L234.077,106.434ZM260.739,85.697C260.739,60.093 244.234,47.608 214.821,47.608C186.678,47.608 170.597,63.478 170.597,79.772C170.597,82.734 171.231,85.908 172.501,88.659L196.413,80.619C195.989,79.349 195.989,78.927 195.989,78.08C195.989,71.521 202.548,66.231 214.821,66.231C227.729,66.231 234.078,71.944 234.078,82.101L234.078,86.122L202.548,90.989C182.658,93.951 165.095,104.32 165.095,125.691C165.095,145.582 179.696,158.489 200.432,158.489C215.456,158.489 228.152,151.93 235.559,138.811C235.559,147.909 238.944,153.412 240.637,155.527L267.722,155.527C262.643,148.121 260.739,141.561 260.739,129.5L260.739,85.697Z" style="fill:rgb(255,59,15);fill-rule:nonzero;"></path>
    </g>
    <g transform="matrix(1,0,0,1,-165.095,41.2695)">
        <rect x="719.926" y="50.958" width="26.566" height="104.578" style="fill:rgb(255,59,15);"></rect>
    </g>
</svg>
