<?xml version="1.0" encoding="utf-8"?>
<!-- Generator: Adobe Illustrator 27.3.1, SVG Export Plug-In . SVG Version: 6.00 Build 0)  -->
<svg version="1.1" id="Capa_1" xmlns="http://www.w3.org/2000/svg" xmlns:xlink="http://www.w3.org/1999/xlink" x="0px" y="0px"
	 viewBox="0 0 35 35" style="enable-background:new 0 0 35 35;" xml:space="preserve">
<style type="text/css">
	.st0{fill:#871E68;}
	.st1{fill:#98989D;}
</style>
<g>
	<path class="st0" d="M23.8,13.3v-0.3h-1c-2,0-2.9,0.4-3.8,1.7C18,15.8,15,19.9,15,19.9l1.6,2.1c0,0,5-6.8,5.4-7.3
		c0.4-0.5,0.7-1,0.9-1.2C23.2,13.3,23.5,13.3,23.8,13.3"/>
	<path class="st1" d="M29.5,19.1h-4.4c0.5-0.6,1.7-2.3,1.7-2.3h4.4l0.6-0.8h-4.4c0,0,1.3-1.7,1.4-1.9c0.1-0.2,0.3-0.3,0.6-0.3h4
		l0.6-0.8h-5c-2,0-2.9,0.4-3.8,1.7c-0.6,0.9-2.3,3.1-3.2,4.4c-0.1,0.1-0.2,0.2-0.3,0.3c-0.3,0.2-0.6,0.3-0.8,0.3v0.3h8L29.5,19.1z"
		/>
	<path class="st1" d="M11.2,19.1C11,18.8,6.7,13,6.7,13s-0.6,0-0.6,0h0l-5.1,7h1.3l1.3-1.7h3.8c0,0,0,0,0,0.1
		c0.9,1.2,1.8,1.7,3.8,1.7h1v-0.3C12.1,19.6,11.6,19.6,11.2,19.1 M4.2,17.4l1.3-1.8l1.3,1.8H4.2z"/>
	<path class="st1" d="M11.9,15.7c0.8,1.1,1.7,2.3,2.4,3.2c0.4-0.6,1-1.4,1.6-2.1c-0.6-0.9-1.2-1.7-1.5-2.1c-0.9-1.2-1.8-1.7-3.8-1.7
		H9.9L11.9,15.7z"/>
</g>
<g>
	<path d="M34.7,0.3v34.4H0.3V0.3H34.7 M35,0H0v35h35V0L35,0z"/>
</g>
</svg>
