<?xml version="1.0" encoding="UTF-8"?><svg id="Capa_1" xmlns="http://www.w3.org/2000/svg" viewBox="0 0 70 70"><defs><style>.cls-1{fill:#98989a;}.cls-2{fill:#1a171b;}.cls-3{fill:#851765;}</style></defs><g><path class="cls-3" d="M8.86,24.09c.15-.31,.05-.71-.29-.78-.23-.05-.4-.05-.59,0-.43,.1-.67,.33-.82,.71-.06,.14-.14,.41-.17,.6,.46,.03,.88,.02,1.19-.04,.29-.06,.52-.14,.68-.48m.42-1.08c.72,.14,.89,.62,.67,1.21-.22,.6-.99,.7-1.39,.74-.45,.05-1.09,.06-1.61,0,0,0-.14,.72,.45,.82,.3,.05,1.19,.08,1.98-.05l-.28,.37c-.83,.13-1.58,.15-2.58,.07-.74-.06-.85-.6-.79-1.19,.03-.33,.12-.7,.24-.99,.23-.55,.73-.86,1.65-.98,.64-.09,1.13-.08,1.67,.02m12.41,0c.72,.14,.89,.62,.67,1.21-.22,.6-.99,.7-1.39,.74-.45,.05-1.09,.06-1.61,0,0,0-.14,.72,.45,.82,.3,.05,1.19,.08,1.98-.05l-.28,.37c-.83,.13-1.58,.15-2.58,.07-.74-.06-.85-.6-.79-1.19,.03-.33,.12-.7,.24-.99,.23-.55,.73-.86,1.65-.98,.64-.09,1.14-.08,1.67,.02m-.42,1.08c.15-.31,.05-.71-.29-.78-.23-.05-.4-.05-.59,0-.44,.1-.67,.33-.83,.71-.06,.14-.14,.41-.17,.6,.46,.03,.88,.02,1.2-.04,.29-.06,.52-.14,.68-.48m-17.51,.03c-.06,.34-.23,1.52-.32,2.02h-1.27c.09-.43,.32-1.95,.4-2.25,.13-.56,.45-.74,1.33-.87,.62-.09,1.65-.05,2.27,0l-.26,.39c-.41-.05-1.12-.05-1.49,.02-.42,.08-.58,.3-.65,.69m13.36-.08c-.11,.64-.33,1.8-.33,1.81-.17,.76-.32,1.47-1.04,1.98-.38,.27-.92,.46-1.6,.43l.2-.3c.53,0,.85-.43,.95-.72,.08-.23,.19-.71,.31-1.42l.51-2.81c.17-.76,.29-1.41,1.01-1.92,.38-.27,1.04-.43,1.7-.43l-.23,.31c-.48,0-.82,.29-.96,.58-.11,.21-.23,.83-.33,1.46h.96l-.23,.33c-.52,0-.83,.25-.91,.71"/><path class="cls-3" d="M9.28,23.01c-.53-.1-1.02-.1-1.67-.02-.92,.12-1.42,.44-1.65,.98-.12,.3-.21,.67-.24,.99-.06,.59,.05,1.13,.79,1.19,1,.08,1.75,.06,2.58-.07l.28-.37c-.79,.13-1.68,.1-1.98,.05-.59-.1-.45-.82-.45-.82,.53,.06,1.16,.05,1.61,0,.39-.04,1.17-.14,1.39-.74,.22-.6,.05-1.08-.67-1.21m-.42,1.08c-.17,.35-.39,.42-.68,.48-.32,.06-.73,.07-1.19,.04,.03-.19,.11-.46,.17-.6,.16-.37,.39-.61,.82-.71,.19-.04,.36-.04,.59,0,.34,.07,.45,.47,.29,.78"/><path class="cls-3" d="M21.69,23.01c-.53-.1-1.02-.1-1.67-.02-.92,.12-1.42,.44-1.65,.98-.12,.3-.21,.67-.24,.99-.06,.59,.05,1.13,.79,1.19,1,.08,1.75,.06,2.58-.07l.28-.37c-.79,.13-1.68,.1-1.98,.05-.59-.1-.45-.82-.45-.82,.52,.06,1.16,.05,1.61,0,.39-.04,1.16-.14,1.39-.74,.22-.6,.05-1.08-.67-1.21m-.42,1.08c-.17,.35-.39,.42-.68,.48-.32,.06-.74,.07-1.2,.04,.03-.19,.11-.46,.17-.6,.16-.37,.39-.61,.83-.71,.19-.04,.36-.04,.59,0,.34,.07,.44,.47,.29,.78"/><path class="cls-3" d="M3.76,24.12c.07-.38,.23-.61,.65-.69,.37-.07,1.08-.07,1.49-.02l.26-.39c-.62-.05-1.65-.09-2.27,0-.88,.13-1.2,.31-1.33,.87-.07,.3-.31,1.81-.4,2.25h1.27c.09-.5,.26-1.68,.32-2.02"/><path class="cls-3" d="M17.12,24.04c-.11,.64-.33,1.8-.33,1.81-.17,.76-.32,1.47-1.04,1.98-.38,.27-.92,.46-1.6,.43l.2-.3c.53,0,.85-.43,.95-.72,.08-.23,.19-.71,.31-1.42l.51-2.81c.17-.76,.29-1.41,1.01-1.92,.38-.27,1.04-.43,1.7-.43l-.23,.31c-.48,0-.82,.29-.96,.58-.11,.21-.23,.83-.33,1.46h.96l-.23,.33c-.52,0-.83,.25-.91,.71"/><path class="cls-3" d="M13.83,22.99h-2.83c-.15,.88-.43,2.4-.54,3.15h1.18c.09-.58,.37-2.09,.49-2.76h.95c.4,0,.7,.27,.63,.74-.05,.37-.22,1.25-.37,2.02h1.19c.13-.53,.29-1.58,.37-2.01,.12-.64-.25-1.14-1.08-1.14"/><path class="cls-1" d="M59.28,43.33h-8.85c.92-1.24,3.49-4.73,3.49-4.73h8.85l1.25-1.69h-8.85s2.54-3.43,2.82-3.82c.24-.33,.57-.53,1.15-.53h8.09l1.27-1.7h-10.07c-3.99,0-5.84,.9-7.7,3.39-1.3,1.74-4.67,6.31-6.58,8.91-.22,.28-.41,.5-.57,.65-.53,.48-1.24,.58-1.71,.58v.64h16.16l1.25-1.7Z"/><path class="cls-1" d="M22.29,43.29c-.43-.57-9.16-12.42-9.16-12.42,0,0-1.18,0-1.18,0h0L1.5,45.03h2.7l2.59-3.51h7.79s.06,.09,.09,.13c1.86,2.49,3.71,3.39,7.7,3.39h2.1v-.64c-.49-.02-1.34,0-2.17-1.1m-14.25-3.47l2.64-3.58,2.64,3.58h-5.28Z"/><path class="cls-3" d="M47.71,31.5v-.64h-2.1c-3.99,0-5.84,.9-7.7,3.39-1.86,2.49-7.96,10.78-7.96,10.78l3.22,4.32s10.19-13.81,10.99-14.91c.81-1.09,1.41-1.97,1.83-2.36,.53-.48,1.24-.58,1.71-.58"/><path class="cls-1" d="M23.57,36.36c1.59,2.14,3.43,4.66,4.79,6.5,.87-1.18,2.05-2.79,3.2-4.35-1.28-1.73-2.48-3.36-3.15-4.25-1.86-2.49-3.71-3.39-7.7-3.39h-1.17l4.02,5.49Z"/></g><path class="cls-2" d="M69,1V69H1V1H69m1-1H0V70H70V0h0Z"/></svg>