<?xml version="1.0" encoding="utf-8"?>
<!-- Generator: Adobe Illustrator 27.3.1, SVG Export Plug-In . SVG Version: 6.00 Build 0)  -->
<svg version="1.1" id="Capa_1" xmlns="http://www.w3.org/2000/svg" xmlns:xlink="http://www.w3.org/1999/xlink" x="0px" y="0px"
	 viewBox="0 0 200 200" style="enable-background:new 0 0 200 200;" xml:space="preserve">
<style type="text/css">
	.st0{fill:#FFFFFF;stroke:#000000;stroke-width:3.8469;stroke-miterlimit:3.864;}
	.st1{fill:none;stroke:#000000;stroke-width:3.808;stroke-miterlimit:3.864;}
	.st2{fill:none;stroke:#000000;stroke-width:3.8398;stroke-miterlimit:3.864;}
	.st3{fill:#0D0802;}
	.st4{fill-rule:evenodd;clip-rule:evenodd;}
	.st5{fill:#E30613;}
</style>
<polygon class="st0" points="133,56.8 183.6,56.6 183.6,190.4 133,190.6 "/>
<rect x="15.8" y="56.6" class="st0" width="52" height="133.9"/>
<line class="st1" x1="2.5" y1="56.6" x2="197.5" y2="56.6"/>
<line class="st2" x1="198.7" y1="190.6" x2="1.3" y2="190.6"/>
<path class="st3" d="M155.4,85.1l2.9,3.3l-5.7,6.3l-0.6,0.3h0.1h21.7c0,2.6,0.1,1.9,0,4.6h-21.6c0.1,0.1,0.4,0.2,0.6,0.3l5.4,6.1
	l-2.9,3.2l-10.8-12L155.4,85.1z"/>
<path class="st3" d="M46.9,85.1l-2.9,3.3l5.7,6.3l0.5,0.3h-0.1H28.3c0,2.6,0,1.9,0,4.6h21.6c-0.1,0.1-0.4,0.2-0.6,0.3l-5.4,6.1
	l2.9,3.2l10.8-12L46.9,85.1z"/>
<path class="st4" d="M108.3,82.8c0-5.6-4.6-10.2-10.3-10.2c-5.7,0-10.3,4.6-10.3,10.2c0,5.7,4.6,10.3,10.3,10.3
	C103.7,93.1,108.3,88.5,108.3,82.8"/>
<g>
	<polygon class="st4" points="68.3,128.8 68.3,127.5 68.3,127.5 	"/>
	<path class="st4" d="M141.9,155.7h-1.7h-16.7l1.2-17.4c0-9.7-4.2-17.2-4.2-17.2l-7.5-13.7l-0.1-0.2h11l13.1,12.3l0.1-0.1
		c0.8,1.1,2.1,1.8,3.6,1.8c2.5,0,4.5-2,4.5-4.5c0-1.4-0.6-2.6-1.6-3.4l-13.2-13.5c-2.2-3.7-7.5-3.4-7.5-3.4h-3.5H102
		c-9.9-0.2-13.1,4.8-13.1,4.8l-0.3,0.4L77,116.6h-8.5l-0.2,10.9l10.1,0c3.8,0,4.9-1.8,4.9-1.8l8.5-10.9l9,17
		c0.9,1.5,0.4,2.4,0.4,2.4l-21.7,44.8c-1.4,2.9-0.2,6.4,2.7,7.8c2.9,1.4,6.4,0.2,7.8-2.7l0.8-1.5l20.9-43.4h1.4l-1.2,20
		c-0.2,8.3,7.6,8,7.6,8h22.4c3.2,0,5.8-2.6,5.8-5.8C147.7,158.3,145.1,155.7,141.9,155.7z"/>
</g>
<g>
	<polygon points="75,23.1 75,34.6 80.2,34.6 91.8,43.3 91.8,14.4 80.2,23.1 	"/>
	<path d="M100.4,18.2c-0.7-0.7-1.8-0.7-2.5,0c-0.7,0.7-0.7,1.8,0,2.5h0c2.2,2.2,3.4,5.2,3.4,8.1c0,3-1.1,5.9-3.4,8.1
		c-0.7,0.7-0.7,1.8,0,2.5c0.3,0.3,0.8,0.5,1.2,0.5c0.4,0,0.9-0.2,1.2-0.5c2.9-2.9,4.4-6.8,4.4-10.6C104.8,25,103.3,21.2,100.4,18.2z
		"/>
	<path d="M108.2,12.7c-0.7-0.7-1.8-0.7-2.5,0c-0.7,0.7-0.7,1.8,0,2.5l0,0c3.8,3.8,5.7,8.7,5.7,13.7c0,5-1.9,9.9-5.7,13.7
		c-0.7,0.7-0.7,1.8,0,2.5c0.3,0.3,0.8,0.5,1.2,0.5c0.4,0,0.9-0.2,1.2-0.5c4.5-4.5,6.7-10.3,6.7-16.2C114.9,23,112.7,17.1,108.2,12.7
		z"/>
	<path d="M116,7c-0.7-0.7-1.8-0.7-2.5,0c-0.7,0.7-0.7,1.8,0,2.5c5.3,5.3,8,12.3,8,19.3c0,7-2.7,14-8,19.4c-0.7,0.7-0.7,1.8,0,2.5
		c0.3,0.3,0.8,0.5,1.2,0.5c0.4,0,0.9-0.2,1.2-0.5c6-6,9-13.9,9-21.8C125,20.9,122,13.1,116,7z"/>
</g>
<polygon class="st5" points="1.3,1.3 1.3,11.4 188.5,198.7 198.7,198.7 198.7,188.6 11.5,1.3 "/>
<path class="st3" d="M197.5,2.5v195H2.5V2.5H197.5 M200,0H0v200h200V0z"/>
</svg>
