<?xml version="1.0" encoding="UTF-8" standalone="yes"?>
<svg xmlns="http://www.w3.org/2000/svg" xmlns:xlink="http://www.w3.org/1999/xlink" width="64px" height="54px" viewBox="0 0 64 54" version="1.1">
  <g id="surface1">
    <path style=" stroke:none;fill-rule:nonzero;fill:rgb(80.000001%,0%,9.411765%);fill-opacity:1;" d="M 0 26.257812 C 1.523438 24.808594 3.046875 23.410156 4.488281 21.960938 C 9.484375 17.007812 14.371094 11.945312 19.472656 7.097656 C 24.976562 1.90625 31.683594 -0.414062 39.242188 0.0585938 C 52.039062 0.851562 62.375 10.65625 63.816406 23.199219 C 65.125 34.558594 59.304688 45.101562 48.992188 50.132812 C 39.160156 54.90625 26.875 52.929688 19.125 45.285156 C 12.902344 39.144531 6.703125 32.953125 0.480469 26.785156 C 0.375 26.679688 0.265625 26.546875 0 26.257812 Z M 6.222656 26.257812 C 6.492188 26.546875 6.597656 26.652344 6.730469 26.785156 C 11.832031 31.871094 16.882812 37.011719 22.09375 41.992188 C 28.128906 47.761719 35.367188 49.660156 43.488281 47.472656 C 54.601562 44.46875 61.414062 33.347656 59.222656 22.144531 C 57.246094 12.132812 48.859375 4.855469 38.519531 4.382812 C 32.054688 4.09375 26.472656 6.304688 21.90625 10.8125 C 17.953125 14.714844 14.050781 18.667969 10.097656 22.566406 C 8.84375 23.804688 7.558594 24.992188 6.25 26.230469 Z M 6.222656 26.257812 "/>
    <path style=" stroke:none;fill-rule:nonzero;fill:rgb(80.000001%,0%,9.411765%);fill-opacity:1;" d="M 27.515625 38.378906 L 27.515625 14.292969 C 27.753906 14.292969 27.96875 14.238281 28.183594 14.238281 C 31.683594 14.238281 35.179688 14.1875 38.679688 14.265625 C 39.988281 14.292969 41.324219 14.503906 42.582031 14.898438 C 44.664062 15.558594 45.867188 17.085938 46.160156 19.246094 C 46.453125 21.488281 45.785156 23.359375 43.917969 24.730469 C 43.757812 24.859375 43.570312 24.964844 43.355469 25.125 C 43.488281 25.203125 43.597656 25.28125 43.703125 25.308594 C 45.734375 26.179688 46.828125 27.757812 47.070312 29.867188 C 47.203125 30.949219 47.121094 32.082031 46.882812 33.136719 C 46.214844 36.246094 43.96875 37.640625 40.976562 38.167969 C 40.203125 38.300781 39.375 38.355469 38.574219 38.378906 C 35.046875 38.378906 31.523438 38.378906 28.023438 38.378906 C 27.886719 38.378906 27.726562 38.378906 27.515625 38.328125 Z M 33.339844 33.347656 C 35.261719 33.347656 37.078125 33.425781 38.867188 33.347656 C 40.496094 33.242188 41.296875 32.1875 41.273438 30.554688 C 41.21875 28.972656 40.308594 27.945312 38.707031 27.890625 C 37.078125 27.8125 35.421875 27.839844 33.792969 27.863281 C 33.632812 27.863281 33.363281 28.101562 33.363281 28.207031 C 33.339844 29.894531 33.363281 31.605469 33.363281 33.371094 Z M 33.390625 23.726562 C 35.101562 23.726562 36.757812 23.804688 38.414062 23.726562 C 39.617188 23.648438 40.335938 22.699219 40.363281 21.488281 C 40.390625 20.273438 39.75 19.273438 38.601562 19.195312 C 36.890625 19.089844 35.15625 19.167969 33.390625 19.167969 L 33.390625 23.753906 Z M 33.390625 23.726562 "/>
  </g>
</svg>