<?xml version="1.0" encoding="UTF-8" standalone="yes"?>
<svg xmlns="http://www.w3.org/2000/svg" xmlns:xlink="http://www.w3.org/1999/xlink" width="64px" height="64px" viewBox="0 0 64 64" version="1.1">
  <g id="surface1">
    <path style=" stroke:none;fill-rule:nonzero;fill:rgb(100%,100%,100%);fill-opacity:1;" d="M 30.738281 62.464844 C 47.1875 62.464844 60.519531 49.140625 60.519531 32.703125 C 60.519531 16.269531 47.1875 2.945312 30.738281 2.945312 C 14.292969 2.945312 0.960938 16.269531 0.960938 32.703125 C 0.960938 49.140625 14.292969 62.464844 30.738281 62.464844 Z M 30.738281 62.464844 "/>
    <path style=" stroke:none;fill-rule:nonzero;fill:rgb(80.000001%,80.000001%,80.000001%);fill-opacity:1;" d="M 30.738281 3.90625 C 46.617188 3.90625 59.558594 16.824219 59.558594 32.703125 C 59.558594 48.582031 46.636719 61.503906 30.738281 61.503906 C 14.839844 61.503906 1.921875 48.582031 1.921875 32.703125 C 1.921875 16.824219 14.839844 3.90625 30.738281 3.90625 Z M 30.738281 1.984375 C 13.765625 1.984375 0 15.730469 0 32.703125 C 0 49.675781 13.765625 63.425781 30.738281 63.425781 C 47.710938 63.425781 61.476562 49.675781 61.476562 32.703125 C 61.476562 15.730469 47.710938 1.984375 30.738281 1.984375 Z M 30.738281 1.984375 "/>
    <path style=" stroke:none;fill-rule:nonzero;fill:rgb(80.000001%,0%,9.411765%);fill-opacity:1;" d="M 5.222656 32.628906 C 6.316406 31.570312 7.390625 30.574219 8.429688 29.554688 C 12 26.003906 15.511719 22.394531 19.160156 18.898438 C 23.078125 15.15625 27.878906 13.523438 33.292969 13.851562 C 42.453125 14.40625 49.84375 21.433594 50.878906 30.417969 C 51.820312 38.558594 47.671875 46.105469 40.28125 49.714844 C 33.253906 53.152344 24.441406 51.710938 18.910156 46.242188 C 14.457031 41.84375 10.023438 37.410156 5.546875 32.972656 C 5.472656 32.894531 5.394531 32.800781 5.203125 32.609375 Z M 9.675781 32.628906 C 9.847656 32.839844 9.964844 32.914062 10.042969 33.011719 C 13.691406 36.640625 17.300781 40.328125 21.042969 43.917969 C 25.382812 48.0625 30.566406 49.390625 36.34375 47.832031 C 44.3125 45.683594 49.191406 37.714844 47.597656 29.710938 C 46.175781 22.546875 40.1875 17.324219 32.792969 16.980469 C 28.1875 16.769531 24.191406 18.363281 20.890625 21.585938 C 18.066406 24.371094 15.265625 27.195312 12.441406 30.015625 C 11.558594 30.917969 10.617188 31.761719 9.695312 32.648438 Z M 9.675781 32.628906 "/>
    <path style=" stroke:none;fill-rule:nonzero;fill:rgb(80.000001%,0%,9.411765%);fill-opacity:1;" d="M 24.902344 41.304688 L 24.902344 24.046875 C 25.054688 24.046875 25.246094 24.027344 25.402344 24.027344 C 27.917969 24.027344 30.414062 23.96875 32.929688 24.027344 C 33.867188 24.027344 34.828125 24.199219 35.730469 24.488281 C 37.230469 24.949219 38.09375 26.042969 38.304688 27.617188 C 38.515625 29.210938 38.035156 30.554688 36.691406 31.550781 C 36.558594 31.628906 36.460938 31.726562 36.269531 31.839844 C 36.363281 31.898438 36.421875 31.9375 36.5 31.976562 C 37.957031 32.589844 38.726562 33.742188 38.917969 35.21875 C 38.996094 35.988281 38.9375 36.8125 38.785156 37.582031 C 38.324219 39.808594 36.691406 40.808594 34.558594 41.191406 C 33.984375 41.285156 33.425781 41.34375 32.851562 41.34375 L 25.285156 41.34375 C 25.191406 41.34375 25.074219 41.34375 24.921875 41.324219 Z M 29.070312 37.695312 C 30.453125 37.695312 31.738281 37.753906 33.042969 37.695312 C 34.214844 37.621094 34.789062 36.871094 34.753906 35.699219 C 34.734375 34.566406 34.078125 33.835938 32.910156 33.78125 C 31.738281 33.722656 30.546875 33.761719 29.375 33.78125 C 29.28125 33.78125 29.070312 33.933594 29.070312 34.027344 L 29.070312 37.714844 Z M 29.089844 30.785156 C 30.296875 30.785156 31.507812 30.84375 32.699219 30.785156 C 33.5625 30.726562 34.078125 30.035156 34.097656 29.171875 C 34.097656 28.308594 33.65625 27.578125 32.832031 27.539062 C 31.621094 27.460938 30.375 27.539062 29.089844 27.539062 L 29.089844 30.824219 Z M 29.089844 30.785156 "/>
  </g>
</svg>