<svg width="32" height="27" viewBox="0 0 32 27" fill="none" xmlns="http://www.w3.org/2000/svg">
<path d="M0 13.1286C0.761325 12.4038 1.52265 11.7054 2.24391 10.9806C4.74159 8.50328 7.18584 5.97321 9.73695 3.54856C12.4884 0.952606 15.8409 -0.207009 19.6208 0.0301845C26.0186 0.425508 31.1876 5.32752 31.9089 11.6C32.5633 17.2795 29.6516 22.5504 24.496 25.0673C19.5807 27.4524 13.4367 26.4641 9.56331 22.6427C6.45123 19.5723 3.3525 16.4756 0.240418 13.3921C0.186992 13.3394 0.133566 13.2735 0 13.1286ZM3.11208 13.1286C3.24565 13.2735 3.29908 13.3262 3.36586 13.3921C5.91696 15.9354 8.44136 18.505 11.0459 20.9955C14.0645 23.8814 17.6841 24.8301 21.7445 23.7364C27.3009 22.2342 30.7068 16.6733 29.6115 11.0729C28.6232 6.06545 24.4292 2.42848 19.2602 2.19129C16.0279 2.04633 13.2364 3.15324 10.9524 5.40658C8.97562 7.35684 7.02556 9.33346 5.04879 11.2837C4.42103 11.9031 3.77991 12.496 3.12544 13.1154L3.11208 13.1286Z" fill="#CC0018"/>
<path d="M13.7573 19.1902V7.146C13.8775 7.146 13.9843 7.11965 14.0912 7.11965C15.8409 7.11965 17.5906 7.09329 19.3403 7.13283C19.9948 7.146 20.6626 7.25142 21.2904 7.44909C22.3322 7.77852 22.9332 8.54281 23.0802 9.62336C23.2271 10.7434 22.8932 11.679 21.9582 12.3643C21.8781 12.4302 21.7846 12.4829 21.6777 12.5619C21.7445 12.6015 21.7979 12.641 21.8514 12.6542C22.8665 13.089 23.4141 13.8797 23.5343 14.9339C23.6011 15.4741 23.561 16.0408 23.4408 16.5679C23.1069 18.1228 21.9849 18.8212 20.489 19.0848C20.1017 19.1507 19.6876 19.177 19.2869 19.1902C17.5238 19.1902 15.7608 19.1902 14.0111 19.1902C13.9443 19.1902 13.8641 19.1902 13.7573 19.1638V19.1902ZM16.669 16.6733C17.6307 16.6733 18.5389 16.7128 19.4338 16.6733C20.2486 16.6206 20.6493 16.0935 20.6359 15.2765C20.6092 14.4858 20.1551 13.9719 19.3537 13.9456C18.5389 13.906 17.7108 13.9192 16.8961 13.9324C16.8159 13.9324 16.6824 14.051 16.6824 14.1037C16.669 14.9471 16.6824 15.8036 16.6824 16.6865L16.669 16.6733ZM16.6957 11.8635C17.5505 11.8635 18.3787 11.9031 19.2068 11.8635C19.8078 11.824 20.1684 11.3496 20.1818 10.7434C20.1951 10.1373 19.8746 9.63654 19.3003 9.59701C18.4454 9.5443 17.5773 9.58383 16.6957 9.58383V11.8767V11.8635Z" fill="#CC0018"/>
</svg>
