<svg width="25" height="25" viewBox="0 0 25 25" fill="none" xmlns="http://www.w3.org/2000/svg">
<path d="M12.0075 24.4001C18.432 24.4001 23.64 19.1955 23.64 12.7751C23.64 6.35484 18.432 1.15015 12.0075 1.15015C5.58305 1.15015 0.375 6.35484 0.375 12.7751C0.375 19.1955 5.58305 24.4001 12.0075 24.4001Z" fill="white"/>
<path d="M12.0075 1.52515C18.21 1.52515 23.265 6.57265 23.265 12.7751C23.265 18.9776 18.2175 24.0251 12.0075 24.0251C5.7975 24.0251 0.75 18.9776 0.75 12.7751C0.75 6.57265 5.7975 1.52515 12.0075 1.52515ZM12.0075 0.775146C5.3775 0.775146 0 6.14515 0 12.7751C0 19.4051 5.3775 24.7751 12.0075 24.7751C18.6375 24.7751 24.015 19.4051 24.015 12.7751C24.015 6.14515 18.6375 0.775146 12.0075 0.775146Z" fill="#CCCCCC"/>
<path d="M2.04 12.7451C2.4675 12.3326 2.8875 11.9426 3.2925 11.5451C4.6875 10.1576 6.06 8.74765 7.485 7.38265C9.015 5.92015 10.89 5.28265 13.005 5.41015C16.5825 5.62765 19.47 8.37265 19.875 11.8826C20.2425 15.0626 18.6225 18.0101 15.735 19.4201C12.99 20.7626 9.5475 20.2001 7.3875 18.0626C5.6475 16.3451 3.915 14.6126 2.1675 12.8801C2.1375 12.8501 2.1075 12.8126 2.0325 12.7376L2.04 12.7451ZM3.78 12.7451C3.8475 12.8276 3.8925 12.8576 3.9225 12.8951C5.3475 14.3126 6.7575 15.7526 8.22 17.1551C9.915 18.7751 11.94 19.2926 14.1975 18.6851C17.31 17.8451 19.215 14.7326 18.5925 11.6051C18.0375 8.80765 15.6975 6.76765 12.81 6.63265C11.01 6.55015 9.45 7.17265 8.16 8.43265C7.0575 9.52015 5.9625 10.6226 4.86 11.7251C4.515 12.0776 4.1475 12.4076 3.7875 12.7526L3.78 12.7451Z" fill="#CC0018"/>
<path d="M9.7275 16.1351V9.39265C9.7875 9.39265 9.8625 9.38515 9.9225 9.38515C10.905 9.38515 11.88 9.36265 12.8625 9.38515C13.23 9.38515 13.605 9.45265 13.9575 9.56515C14.5425 9.74515 14.88 10.1726 14.9625 10.7876C15.045 11.4101 14.8575 11.9351 14.3325 12.3251C14.28 12.3551 14.2425 12.3926 14.1675 12.4376C14.205 12.4601 14.2275 12.4751 14.2575 12.4901C14.8275 12.7301 15.1275 13.1801 15.2025 13.7576C15.2325 14.0576 15.21 14.3801 15.15 14.6801C14.97 15.5501 14.3325 15.9401 13.5 16.0901C13.275 16.1276 13.0575 16.1501 12.8325 16.1501H9.8775C9.84 16.1501 9.795 16.1501 9.735 16.1426L9.7275 16.1351ZM11.355 14.7251C11.895 14.7251 12.3975 14.7476 12.9075 14.7251C13.365 14.6951 13.59 14.4026 13.575 13.9451C13.5675 13.5026 13.3125 13.2176 12.855 13.1951C12.3975 13.1726 11.9325 13.1876 11.475 13.1951C11.4375 13.1951 11.355 13.2551 11.355 13.2926V14.7326V14.7251ZM11.3625 12.0251C11.835 12.0251 12.3075 12.0476 12.7725 12.0251C13.11 12.0026 13.3125 11.7326 13.32 11.3951C13.32 11.0576 13.1475 10.7726 12.825 10.7576C12.3525 10.7276 11.865 10.7576 11.3625 10.7576V12.0401V12.0251Z" fill="#CC0018"/>
</svg>
