<svg xmlns="http://www.w3.org/2000/svg" width="64" height="64" viewBox="0 0 48 48">
    <path fill="#fff" d="M23.05469 46.84766c12.33593 0 22.33593-9.9922 22.33593-22.32032 0-12.32421-10-22.3203-22.33593-22.3203-12.33594 0-22.33594 9.99609-22.33594 22.3203 0 12.32813 10 22.32032 22.33594 22.32032Zm0 0"/>
    <path fill="#ccc" d="M23.05469 2.92969c11.91015 0 21.61328 9.6914 21.61328 21.59765 0 11.91016-9.6914 21.60157-21.61328 21.60157S1.4414 36.4375 1.4414 24.52734c0-11.90625 9.6914-21.59765 21.61328-21.59765Zm0-1.4414C10.32422 1.48828 0 11.79686 0 24.52733S10.32422 47.5664 23.05469 47.5664s23.05468-10.3086 23.05468-23.03907c0-12.73046-10.32421-23.03906-23.05468-23.03906Zm0 0"/>
    <path fill="#cc0018" d="M3.91797 24.46875c.82031-.78906 1.625-1.53906 2.40234-2.30078C9 19.5039 11.63671 16.79687 14.3711 14.17578c2.9375-2.8086 6.53907-4.03125 10.59766-3.78906 6.8711.41797 12.41406 5.6875 13.1914 12.42969.70704 6.10546-2.40624 11.76171-7.94921 14.46875-5.26953 2.57812-11.8789 1.5-16.02735-2.60547-3.33984-3.29688-6.66797-6.625-10.02343-9.94922-.0547-.0586-.11329-.1289-.25782-.27344Zm3.33984 0c.1289.16016.21485.21875.27344.28906 2.73438 2.72266 5.4414 5.48828 8.25 8.17969 3.2539 3.10938 7.14453 4.10547 11.47656 2.9375 5.97657-1.61328 9.63672-7.58984 8.4414-13.59375-1.0664-5.3711-5.55859-9.28906-11.10546-9.54688-3.45313-.15625-6.44922 1.03907-8.92578 3.45704-2.11719 2.08593-4.21875 4.20312-6.33594 6.3203-.66406.67579-1.36719 1.3125-2.0586 1.97266Zm0 0"/>
    <path fill="#cc0018" d="M18.67578 30.98047V18.03516c.11719 0 .26172-.01563.375-.01563 1.88672 0 3.75781-.04297 5.64453 0 .70703 0 1.42578.1289 2.10157.34375 1.125.34766 1.77343 1.16797 1.92968 2.34766.16016 1.19531-.19922 2.20312-1.20703 2.95312-.10156.0586-.17578.1289-.3164.21485.0703.04296.11328.07421.17187.10156 1.09375.46094 1.66797 1.32422 1.8125 2.4336.0586.57812.01563 1.1953-.09766 1.77343-.34765 1.66797-1.5703 2.41797-3.16796 2.70703-.4336.07031-.85157.11328-1.28516.11328h-5.67188c-.0703 0-.16015 0-.27343-.01562Zm3.125-2.70703c1.03906 0 2.0039.04297 2.98047 0 .8789-.0586 1.3125-.6211 1.28125-1.5-.01172-.84766-.5039-1.39453-1.38281-1.4375-.875-.04297-1.76953-.01563-2.64844 0-.07031 0-.23047.11328-.23047.1875v2.76172Zm.01563-5.1836c.90625 0 1.8125.04297 2.70703 0 .64843-.04296 1.03515-.5625 1.05078-1.21093 0-.64844-.33203-1.19532-.94922-1.22266-.90625-.0586-1.84375 0-2.8086 0v2.46094Zm0 0"/>
</svg>
