<svg width="64" height="64" viewBox="0 0 64 64" fill="none" xmlns="http://www.w3.org/2000/svg">
<circle cx="32" cy="32" r="32" fill="#229FFF"/>
<path d="M32.9167 41.4613C35.0204 41.4613 36.8038 40.7298 38.2668 39.2668C39.7298 37.8038 40.4613 36.0204 40.4613 33.9167C40.4613 31.8129 39.7298 30.0295 38.2668 28.5665C36.8038 27.1035 35.0204 26.372 32.9167 26.372C30.8129 26.372 29.0295 27.1035 27.5665 28.5665C26.1035 30.0295 25.372 31.8129 25.372 33.9167C25.372 36.0204 26.1035 37.8038 27.5665 39.2668C29.0295 40.7298 30.8129 41.4613 32.9167 41.4613ZM32.9167 38.7118C31.5627 38.7118 30.4252 38.251 29.5039 37.3294C28.5824 36.4082 28.1216 35.2706 28.1216 33.9167C28.1216 32.5627 28.5824 31.4252 29.5039 30.5039C30.4252 29.5824 31.5627 29.1216 32.9167 29.1216C34.2706 29.1216 35.4082 29.5824 36.3294 30.5039C37.251 31.4252 37.7118 32.5627 37.7118 33.9167C37.7118 35.2706 37.251 36.4082 36.3294 37.3294C35.4082 38.251 34.2706 38.7118 32.9167 38.7118ZM18.8142 47.6667C17.8881 47.6667 17.1042 47.3458 16.4625 46.7042C15.8208 46.0625 15.5 45.2786 15.5 44.3525V23.4809C15.5 22.5547 15.8208 21.7708 16.4625 21.1292C17.1042 20.4875 17.8881 20.1667 18.8142 20.1667H24.4127L27.8044 16.5H38.0289L41.4206 20.1667H47.0191C47.9453 20.1667 48.7292 20.4875 49.3708 21.1292C50.0125 21.7708 50.3333 22.5547 50.3333 23.4809V44.3525C50.3333 45.2786 50.0125 46.0625 49.3708 46.7042C48.7292 47.3458 47.9453 47.6667 47.0191 47.6667H18.8142ZM18.8142 44.9167H47.0191C47.1838 44.9167 47.319 44.8638 47.4247 44.7581C47.5305 44.6524 47.5833 44.5172 47.5833 44.3525V23.4809C47.5833 23.3162 47.5305 23.181 47.4247 23.0753C47.319 22.9695 47.1838 22.9167 47.0191 22.9167H40.1936L36.8299 19.25H29.0034L25.6397 22.9167H18.8142C18.6495 22.9167 18.5143 22.9695 18.4086 23.0753C18.3029 23.181 18.25 23.3162 18.25 23.4809V44.3525C18.25 44.5172 18.3029 44.6524 18.4086 44.7581C18.5143 44.8638 18.6495 44.9167 18.8142 44.9167Z" fill="white"/>
</svg>
