<?xml version="1.0" encoding="UTF-8" standalone="yes"?>
<svg xmlns="http://www.w3.org/2000/svg" xmlns:xlink="http://www.w3.org/1999/xlink" width="64px" height="22px" viewBox="0 0 64 22" version="1.1">
  <g id="surface1">
    <path style=" stroke:none;fill-rule:evenodd;fill:rgb(83.529413%,9.803922%,13.333334%);fill-opacity:1;" d="M 51.328125 20.921875 C 50.820312 20.851562 50.457031 20.699219 50.246094 20.46875 C 50.050781 20.25 49.945312 19.980469 49.933594 19.667969 C 49.925781 19.402344 49.984375 19.117188 50.113281 18.8125 C 50.253906 18.507812 50.421875 18.210938 50.613281 17.929688 C 50.820312 17.65625 51.027344 17.40625 51.234375 17.171875 C 51.453125 16.949219 51.640625 16.78125 51.785156 16.660156 C 51.949219 16.542969 52.144531 16.417969 52.382812 16.28125 C 52.617188 16.136719 52.855469 16.003906 53.089844 15.882812 C 53.339844 15.757812 53.570312 15.65625 53.785156 15.574219 C 54.007812 15.492188 54.191406 15.445312 54.332031 15.441406 C 55.109375 15.414062 55.570312 15.609375 55.59375 16.246094 C 55.609375 16.621094 55.070312 16.933594 54.324219 17.441406 C 53.859375 17.808594 53.765625 18.273438 53.765625 18.273438 C 55.382812 18.820312 57.324219 19.054688 59.589844 18.976562 C 59.894531 18.964844 60.101562 18.957031 60.21875 18.953125 C 60.332031 18.949219 60.386719 18.941406 60.386719 18.929688 C 60.375 18.5625 60.285156 18.140625 60.113281 17.65625 C 59.945312 17.183594 59.738281 16.699219 59.492188 16.207031 C 59.257812 15.710938 58.257812 13.632812 58 13.164062 C 57.742188 12.695312 57.519531 12.289062 57.332031 11.945312 C 57.058594 12.140625 56.730469 12.335938 56.34375 12.523438 C 55.957031 12.703125 55.535156 12.859375 55.085938 13.003906 C 54.632812 13.128906 54.167969 13.242188 53.691406 13.332031 C 53.210938 13.414062 52.742188 13.460938 52.289062 13.476562 C 51.488281 13.503906 50.738281 13.46875 50.039062 13.363281 C 49.351562 13.25 48.75 13.078125 48.234375 12.84375 C 47.71875 12.609375 47.308594 12.320312 47.003906 11.980469 C 46.699219 11.625 46.539062 11.222656 46.523438 10.769531 C 46.507812 10.269531 46.609375 9.730469 46.828125 9.15625 L 46.828125 9.175781 C 47.140625 8.296875 47.601562 7.496094 48.210938 6.769531 C 48.828125 6.03125 49.519531 5.398438 50.273438 4.871094 C 51.027344 4.328125 51.8125 3.90625 52.625 3.601562 C 53.4375 3.285156 54.203125 3.113281 54.925781 3.085938 C 55.308594 3.074219 55.695312 3.117188 56.089844 3.214844 C 56.488281 3.304688 56.855469 3.449219 57.191406 3.648438 C 57.527344 3.851562 57.816406 4.113281 58.054688 4.429688 C 58.292969 4.738281 58.453125 5.097656 58.53125 5.507812 C 58.59375 5.910156 58.640625 6.234375 58.660156 6.484375 C 58.679688 6.734375 58.714844 6.972656 58.761719 7.199219 C 58.820312 7.421875 58.902344 7.664062 59.015625 7.925781 C 59.125 8.183594 59.316406 8.523438 59.582031 8.941406 C 59.90625 9.472656 60.238281 10.019531 60.574219 10.585938 C 60.910156 11.152344 61.234375 11.738281 61.546875 12.34375 C 61.859375 12.9375 62.90625 15.140625 63.167969 15.757812 C 63.429688 16.378906 63.648438 17 63.824219 17.621094 C 63.835938 17.683594 63.84375 17.742188 63.847656 17.789062 C 63.863281 17.839844 63.871094 17.894531 63.871094 17.960938 C 63.886719 18.335938 63.792969 18.734375 63.589844 19.15625 C 63.402344 19.578125 63.15625 19.976562 62.851562 20.351562 C 62.5625 20.726562 62.230469 21.050781 61.859375 21.328125 C 61.503906 21.605469 61.160156 21.789062 60.835938 21.875 C 60.65625 21.917969 60.460938 21.945312 60.246094 21.949219 C 60.03125 21.972656 59.816406 21.984375 59.601562 21.992188 C 58.890625 22.015625 58.117188 21.980469 57.277344 21.882812 C 56.449219 21.800781 55.648438 21.6875 54.867188 21.550781 C 54.105469 21.429688 53.402344 21.300781 52.761719 21.171875 C 52.125 21.054688 51.648438 20.972656 51.328125 20.921875 Z M 53.5625 10.753906 C 53.960938 10.5625 54.28125 10.390625 54.53125 10.230469 C 54.78125 10.070312 54.96875 9.914062 55.105469 9.757812 C 55.238281 9.589844 55.328125 9.410156 55.371094 9.21875 C 55.414062 9.015625 55.632812 6.371094 55.628906 6.269531 C 55.621094 6.09375 55.523438 5.964844 55.328125 5.882812 C 55.148438 5.789062 54.988281 5.746094 54.847656 5.75 C 54.59375 5.757812 54.308594 5.835938 53.984375 5.988281 C 53.671875 6.136719 53.339844 6.335938 52.996094 6.585938 C 52.664062 6.835938 52.335938 7.117188 52.015625 7.429688 C 51.699219 7.746094 51.410156 8.070312 51.15625 8.402344 C 50.902344 8.726562 50.699219 9.054688 50.546875 9.386719 C 50.40625 9.707031 50.339844 9.996094 50.347656 10.261719 C 50.355469 10.414062 50.402344 10.542969 50.496094 10.652344 C 50.601562 10.761719 50.738281 10.851562 50.902344 10.921875 C 51.070312 10.980469 51.257812 11.023438 51.460938 11.054688 C 51.675781 11.082031 51.894531 11.09375 52.109375 11.085938 C 52.359375 11.078125 52.613281 11.050781 52.867188 11.003906 C 53.117188 10.945312 53.347656 10.863281 53.5625 10.753906 "/>
    <path style=" stroke:none;fill-rule:evenodd;fill:rgb(14.117648%,12.941177%,13.333334%);fill-opacity:1;" d="M 0.9375 1.496094 C 0.925781 1.472656 0.914062 1.449219 0.898438 1.421875 C 0.886719 1.398438 0.871094 1.375 0.859375 1.347656 C 0.871094 1.375 0.886719 1.398438 0.898438 1.421875 C 0.914062 1.449219 0.925781 1.472656 0.9375 1.496094 Z M 5.878906 14.265625 C 5.785156 14.132812 5.628906 14.378906 5.578125 14.445312 C 5.53125 14.496094 5.476562 14.5625 5.414062 14.636719 C 5.355469 14.703125 5.292969 14.761719 5.230469 14.8125 C 4.886719 15.183594 4.417969 15.269531 4.265625 15.300781 C 4.152344 15.3125 3.921875 15.359375 3.691406 15.394531 C 3.171875 15.503906 3.238281 15.3125 3.246094 15.257812 C 3.28125 15.027344 3.300781 14.867188 3.308594 14.785156 C 3.316406 14.671875 3.320312 14.574219 3.316406 14.484375 C 3.308594 14.234375 3.273438 13.957031 3.210938 13.660156 C 3.152344 13.347656 3.054688 13.011719 2.929688 12.648438 L 2.882812 12.445312 L 2.886719 12.460938 C 2.730469 11.992188 2.566406 11.507812 2.398438 11.007812 C 2.226562 10.511719 2.054688 9.996094 1.886719 9.460938 L 1.886719 9.480469 C 1.789062 9.230469 1.6875 8.859375 1.582031 8.359375 C 1.472656 7.847656 1.371094 7.316406 1.277344 6.765625 C 1.167969 6.203125 1.066406 5.679688 0.972656 5.191406 C 0.867188 4.707031 0.773438 4.363281 0.691406 4.164062 C 0.621094 4.003906 0.558594 3.804688 0.5 3.566406 C 0.441406 3.332031 0.378906 3.09375 0.320312 2.855469 C 0.261719 2.609375 0.214844 2.378906 0.183594 2.164062 C 0.148438 1.9375 0.132812 1.765625 0.125 1.636719 C 0.148438 1.214844 0.246094 0.964844 0.363281 0.839844 C 0.523438 0.644531 1.011719 0.390625 1.21875 0.285156 C 1.394531 0.191406 2.070312 -0.0664062 2.867188 0.015625 C 3.003906 0.0117188 3.667969 0.167969 3.796875 0.53125 C 3.953125 0.925781 4.167969 1.714844 4.351562 2.285156 C 4.378906 2.347656 4.414062 2.453125 4.460938 2.601562 C 4.503906 2.738281 4.554688 2.960938 4.617188 3.273438 C 4.675781 3.585938 4.757812 4.011719 4.851562 4.550781 C 4.945312 5.074219 5.066406 5.761719 5.207031 6.609375 L 5.207031 6.59375 L 5.347656 7.324219 C 5.425781 7.683594 5.488281 8.046875 5.539062 8.410156 C 5.601562 8.773438 5.65625 9.074219 5.703125 9.308594 C 5.738281 9.246094 5.804688 9.179688 5.90625 9.113281 C 6.003906 9.046875 6.097656 8.976562 6.183594 8.898438 L 6.164062 8.917969 C 6.347656 8.734375 6.5 8.578125 6.625 8.449219 C 6.757812 8.316406 6.882812 8.199219 6.992188 8.097656 C 7.101562 7.980469 7.210938 7.863281 7.320312 7.746094 C 7.433594 7.628906 7.566406 7.480469 7.726562 7.296875 C 7.808594 7.207031 7.964844 7.074219 8.1875 6.902344 C 8.410156 6.734375 8.636719 6.5625 8.871094 6.390625 C 9.105469 6.207031 9.320312 6.042969 9.519531 5.894531 C 9.730469 5.738281 9.867188 5.632812 9.925781 5.582031 C 10.160156 5.394531 10.402344 5.21875 10.652344 5.046875 C 10.898438 4.859375 11.558594 4.421875 11.75 4.40625 C 12.332031 4.222656 12.855469 4.226562 13.308594 4.40625 C 13.429688 4.457031 13.542969 4.53125 13.542969 4.53125 C 13.75 4.636719 13.945312 4.789062 14.128906 4.980469 C 14.3125 5.164062 14.472656 5.367188 14.605469 5.589844 C 14.753906 5.808594 14.882812 6.03125 14.992188 6.253906 C 15.101562 6.464844 15.222656 6.683594 15.277344 6.851562 C 15.40625 7.226562 15.632812 7.851562 15.710938 8.304688 C 15.789062 8.753906 15.835938 9.140625 15.847656 9.46875 C 15.867188 10.007812 15.832031 10.488281 15.746094 10.90625 C 15.671875 11.320312 15.5625 11.714844 15.425781 12.085938 C 15.296875 12.441406 15.152344 12.785156 14.984375 13.117188 C 14.832031 13.4375 14.683594 13.769531 14.546875 14.113281 C 14.414062 14.371094 14.257812 14.589844 14.074219 14.773438 C 13.902344 14.941406 13.710938 15.113281 13.503906 15.28125 C 13.304688 15.453125 13.097656 15.640625 12.875 15.851562 C 12.65625 16.058594 12.1875 16.667969 12.164062 16.667969 C 12.148438 16.679688 11.804688 17.132812 11.59375 17.253906 C 11.394531 17.375 11.167969 17.4375 10.917969 17.445312 C 10.675781 17.453125 10.40625 17.414062 10.113281 17.324219 C 9.832031 17.246094 9.542969 17.140625 9.246094 17.015625 C 8.960938 16.898438 8.699219 16.769531 8.453125 16.625 C 8.207031 16.484375 8.003906 16.367188 7.851562 16.269531 C 7.851562 16.269531 7.734375 16.171875 7.691406 16.125 C 6.730469 15.285156 6.078125 14.535156 5.878906 14.265625 Z M 11.21875 13.644531 L 11.199219 13.644531 Z M 11.21875 13.644531 C 11.796875 13.4375 12.191406 13.132812 12.40625 12.738281 C 12.617188 12.328125 12.714844 11.839844 12.695312 11.273438 C 12.683594 10.972656 12.640625 10.667969 12.566406 10.355469 C 12.507812 10.03125 12.417969 9.726562 12.308594 9.441406 C 12.207031 9.140625 12.089844 8.863281 11.953125 8.601562 C 11.832031 8.34375 11.570312 7.9375 11.570312 7.9375 C 11.421875 7.691406 11.285156 7.570312 11.15625 7.574219 C 10.953125 7.582031 10.742188 7.640625 10.515625 7.746094 C 10.292969 7.855469 10.074219 7.984375 9.863281 8.128906 C 9.65625 8.273438 9.46875 8.425781 9.308594 8.582031 C 9.152344 8.726562 9.039062 8.84375 8.980469 8.933594 C 8.8125 9.175781 8.65625 9.402344 8.507812 9.609375 C 8.363281 9.816406 8.109375 10.152344 8.109375 10.152344 C 8.039062 10.265625 8.003906 10.363281 8.007812 10.4375 C 8.011719 10.5625 8.105469 10.761719 8.292969 11.03125 C 8.492188 11.289062 8.738281 11.570312 9.027344 11.871094 C 9.328125 12.175781 9.664062 12.480469 10.027344 12.78125 C 10.394531 13.082031 11.21875 13.644531 11.21875 13.644531 "/>
    <path style=" stroke:none;fill-rule:nonzero;fill:rgb(83.529413%,9.803922%,13.333334%);fill-opacity:1;" d="M 17.78125 15.851562 C 17.335938 15.035156 16.96875 14.320312 16.679688 13.703125 C 16.40625 13.070312 16.179688 12.449219 16.007812 11.839844 C 15.84375 11.214844 15.726562 10.554688 15.652344 9.851562 C 15.5625 9.152344 15.5 8.316406 15.46875 7.351562 C 15.453125 6.960938 15.460938 6.640625 15.492188 6.386719 C 15.519531 6.136719 15.570312 5.933594 15.640625 5.777344 C 15.84375 5.332031 16.226562 5.191406 16.226562 5.191406 C 16.503906 5.09375 16.792969 5.039062 17.097656 5.03125 C 17.753906 5.007812 18.203125 5.117188 18.441406 5.359375 C 18.691406 5.589844 18.847656 5.949219 18.917969 6.4375 C 18.984375 6.925781 19.023438 7.539062 19.039062 8.28125 C 19.050781 9.023438 19.152344 9.886719 19.339844 10.875 C 19.417969 11.3125 19.515625 11.75 19.632812 12.183594 C 19.75 12.621094 19.859375 13.03125 19.960938 13.417969 C 20.074219 13.804688 20.171875 14.152344 20.246094 14.464844 C 20.320312 14.777344 20.359375 15.027344 20.367188 15.214844 C 20.375 15.453125 20.378906 15.589844 20.308594 15.757812 C 20.160156 16.035156 18.304688 16.605469 17.78125 15.851562 "/>
    <path style=" stroke:none;fill-rule:nonzero;fill:rgb(14.117648%,12.941177%,13.333334%);fill-opacity:1;" d="M 25.855469 16.351562 C 24.578125 16.398438 23.519531 16.261719 22.683594 15.953125 C 21.863281 15.65625 21.207031 15.273438 20.722656 14.8125 C 20.238281 14.351562 19.898438 13.855469 19.699219 13.320312 C 19.503906 12.773438 19.398438 12.289062 19.382812 11.863281 C 19.367188 11.421875 19.433594 10.957031 19.582031 10.460938 C 19.726562 9.964844 19.925781 9.484375 20.175781 9.023438 C 20.425781 8.5625 20.710938 8.136719 21.027344 7.75 C 21.339844 7.347656 21.660156 7.035156 21.980469 6.8125 C 22.230469 6.628906 22.507812 6.433594 22.816406 6.234375 C 23.128906 6.023438 23.820312 5.542969 23.820312 5.542969 C 24.105469 5.316406 24.414062 5.148438 24.753906 5.039062 C 25.09375 4.925781 25.445312 4.863281 25.8125 4.851562 C 26.066406 4.839844 26.414062 4.878906 26.863281 4.964844 C 27.320312 5.050781 27.777344 5.210938 28.230469 5.445312 C 28.695312 5.667969 29.109375 5.980469 29.480469 6.382812 C 29.859375 6.769531 30.101562 7.273438 30.199219 7.886719 C 30.195312 8.136719 29.621094 8.863281 28.4375 8.9375 C 27.582031 8.992188 27.011719 8.71875 26.625 8.519531 C 26.25 8.304688 25.890625 7.941406 25.542969 7.425781 C 25.460938 7.351562 25.390625 7.316406 25.328125 7.316406 C 25.238281 7.320312 25.152344 7.382812 25.066406 7.496094 C 24.996094 7.613281 24.488281 8.277344 24.304688 8.523438 C 24.136719 8.769531 23.980469 9.019531 23.839844 9.273438 C 23.707031 9.519531 23.601562 9.773438 23.523438 10.039062 C 23.441406 10.292969 23.40625 10.558594 23.417969 10.835938 C 23.425781 11.085938 23.472656 11.347656 23.558594 11.621094 C 23.65625 11.894531 24.199219 13.488281 25.78125 13.714844 C 26.089844 13.78125 26.394531 13.8125 26.699219 13.816406 C 27.003906 13.804688 27.289062 13.796875 27.554688 13.785156 C 28.125 13.765625 28.675781 13.644531 29.214844 13.425781 C 29.75 13.207031 30.199219 12.976562 30.558594 12.738281 C 30.898438 12.480469 31.511719 12.441406 31.675781 12.515625 C 31.929688 12.632812 32.097656 12.703125 32.332031 12.847656 C 32.578125 12.976562 32.777344 13.257812 32.933594 13.695312 C 32.421875 14.265625 31.871094 14.722656 31.289062 15.070312 C 30.703125 15.40625 30.105469 15.664062 29.488281 15.847656 C 28.886719 16.035156 28.277344 16.15625 27.65625 16.214844 C 27.039062 16.285156 26.4375 16.332031 25.855469 16.351562 "/>
    <path style=" stroke:none;fill-rule:evenodd;fill:rgb(83.529413%,9.803922%,13.333334%);fill-opacity:1;" d="M 33.253906 15.304688 C 32.808594 14.488281 32.441406 13.773438 32.152344 13.15625 C 31.878906 12.523438 31.652344 11.902344 31.480469 11.292969 C 31.316406 10.667969 31.199219 10.007812 31.125 9.304688 C 31.035156 8.605469 30.976562 7.769531 30.941406 6.804688 C 30.925781 6.414062 30.933594 6.09375 30.964844 5.839844 C 30.992188 5.589844 31.042969 5.386719 31.113281 5.230469 C 31.246094 4.851562 31.699219 4.644531 31.699219 4.644531 C 31.976562 4.546875 32.265625 4.496094 32.570312 4.484375 C 33.230469 4.460938 33.675781 4.570312 33.914062 4.8125 C 34.164062 5.042969 34.320312 5.402344 34.390625 5.890625 C 34.457031 6.378906 34.496094 6.996094 34.511719 7.734375 C 34.523438 8.476562 34.625 9.339844 34.8125 10.328125 C 34.890625 10.765625 34.988281 11.203125 35.105469 11.636719 C 35.222656 12.074219 35.332031 12.484375 35.433594 12.871094 C 35.546875 13.257812 35.644531 13.605469 35.71875 13.917969 C 35.792969 14.230469 35.835938 14.480469 35.839844 14.667969 C 35.851562 15.5 34.007812 16.550781 33.253906 15.304688 Z M 32.757812 3.398438 C 32.394531 3.523438 32.019531 3.59375 31.640625 3.605469 C 31.183594 3.621094 30.851562 3.511719 30.640625 3.28125 C 30.429688 3.039062 30.300781 2.539062 30.292969 1.992188 C 30.289062 1.929688 30.296875 1.835938 30.320312 1.707031 C 30.339844 1.582031 30.347656 1.117188 30.921875 0.953125 C 31.109375 0.898438 31.855469 0.65625 32.03125 0.648438 C 32.144531 0.644531 32.234375 0.691406 32.511719 0.820312 C 32.613281 0.863281 32.652344 0.871094 32.703125 0.851562 C 32.765625 0.824219 32.828125 0.804688 32.894531 0.789062 C 32.957031 0.773438 33.019531 0.765625 33.082031 0.765625 C 33.285156 0.757812 33.4375 0.816406 33.542969 0.9375 C 33.648438 1.046875 33.722656 1.183594 33.769531 1.34375 C 33.824219 1.503906 33.867188 1.667969 33.898438 1.832031 C 33.941406 1.992188 34.003906 2.109375 34.082031 2.183594 C 34.039062 2.777344 33.121094 3.273438 32.757812 3.398438 "/>
    <path style=" stroke:none;fill-rule:nonzero;fill:rgb(14.117648%,12.941177%,13.333334%);fill-opacity:1;" d="M 46.238281 15.664062 C 46.082031 15.519531 45.007812 14.113281 44.683594 13.570312 C 44.359375 13.015625 44.074219 12.484375 43.828125 11.976562 C 43.582031 11.46875 43.355469 10.996094 43.148438 10.546875 C 42.957031 10.101562 42.757812 9.695312 42.554688 9.324219 C 42.457031 9.769531 42.378906 10.253906 42.320312 10.785156 C 42.277344 11.3125 42.238281 11.851562 42.207031 12.390625 C 42.175781 12.933594 42.140625 13.464844 42.109375 13.980469 C 42.09375 14.398438 42.074219 14.785156 42.046875 15.136719 C 42.039062 15.402344 41.730469 15.425781 41.589844 15.429688 C 41.464844 15.445312 41.324219 15.457031 41.171875 15.464844 C 41.023438 15.46875 39.546875 15.636719 39.253906 15.492188 C 38.917969 15.328125 38.566406 15.015625 38.195312 14.546875 C 37.820312 14.070312 37.453125 13.519531 37.089844 12.890625 C 36.722656 12.261719 36.371094 11.589844 36.027344 10.871094 C 35.699219 10.152344 35.402344 9.472656 35.140625 8.828125 C 34.875 8.167969 34.664062 7.59375 34.507812 7.09375 C 34.335938 6.585938 34.242188 6.222656 34.222656 6.011719 C 34.214844 5.773438 34.289062 5.59375 34.449219 5.476562 C 34.609375 5.34375 34.808594 5.25 35.046875 5.191406 C 35.273438 5.132812 35.515625 5.097656 35.769531 5.089844 C 36.035156 5.082031 36.261719 5.074219 36.453125 5.066406 C 36.617188 5.058594 36.804688 5.054688 37.023438 5.046875 C 37.199219 5.039062 37.398438 5.039062 37.617188 5.050781 C 37.726562 5.050781 37.820312 5.097656 37.859375 5.183594 C 37.929688 5.332031 38.003906 5.515625 38.09375 5.726562 C 38.203125 6 38.3125 6.277344 38.425781 6.5625 C 38.550781 6.835938 38.660156 7.089844 38.757812 7.324219 C 38.855469 7.558594 38.929688 7.726562 38.984375 7.824219 C 39.140625 7.253906 39.332031 6.6875 39.550781 6.128906 C 39.773438 5.554688 40.597656 3.847656 40.71875 3.65625 C 40.839844 3.449219 41.015625 3.398438 41.222656 3.335938 C 41.613281 3.214844 42.515625 2.949219 42.84375 2.941406 C 42.957031 2.9375 43.90625 2.859375 44.304688 3.378906 C 44.867188 4.042969 45.246094 5.433594 45.527344 6.242188 C 45.808594 7.035156 46.097656 7.835938 46.390625 8.644531 C 46.699219 9.453125 47.019531 10.25 47.351562 11.042969 C 47.695312 11.835938 48.628906 13.519531 48.699219 13.65625 C 48.765625 13.792969 48.828125 13.941406 48.886719 14.101562 C 48.941406 14.253906 48.984375 14.402344 49.015625 14.550781 C 49.058594 14.699219 49.082031 14.800781 49.082031 14.851562 C 49.085938 14.925781 49.050781 15.035156 48.980469 15.175781 C 48.910156 15.316406 48.804688 15.457031 48.671875 15.601562 C 48.539062 15.742188 48.378906 15.867188 48.191406 15.976562 C 48.003906 16.09375 47.796875 16.160156 47.570312 16.167969 C 46.933594 16.171875 46.398438 15.824219 46.238281 15.664062 "/>
    <path style=" stroke:none;fill-rule:nonzero;fill:rgb(83.529413%,9.803922%,13.333334%);fill-opacity:1;" d="M 17.125 3.785156 C 16.761719 3.910156 16.390625 3.980469 16.011719 3.996094 C 15.554688 4.011719 15.222656 3.902344 15.011719 3.671875 C 14.796875 3.425781 14.667969 2.925781 14.660156 2.382812 C 14.65625 2.320312 14.667969 2.222656 14.6875 2.097656 C 14.710938 1.972656 14.71875 1.503906 15.289062 1.339844 C 15.476562 1.289062 16.195312 1.207031 16.375 1.203125 C 16.824219 1.164062 17.386719 1.15625 17.449219 1.152344 C 17.652344 1.144531 17.808594 1.203125 17.914062 1.324219 C 18.019531 1.433594 18.09375 1.570312 18.136719 1.734375 C 18.191406 1.894531 18.238281 2.054688 18.269531 2.21875 C 18.3125 2.378906 18.375 2.5 18.453125 2.570312 C 18.40625 3.164062 17.488281 3.660156 17.125 3.785156 "/>
  </g>
</svg>