<svg width="64" height="64" viewBox="0 0 64 64" fill="none" xmlns="http://www.w3.org/2000/svg">
<g clip-path="url(#clip0_3291_19667)">
<path d="M6.39987 31.7333C8.5332 29.8667 10.6665 29.0667 12.7999 29.0667C13.3332 29.0667 13.8665 29.0667 14.3999 29.3333L11.9999 34.6667H16.2665L17.8665 30.9333C18.1332 31.2 18.6665 31.2 18.6665 31.4667C19.4665 32.5333 20.2665 33.6 20.7999 34.6667H25.0665C24.5332 32.8 23.4665 30.6667 21.8665 28.8C21.3332 28.2667 20.5332 27.7333 19.9999 27.2L22.1332 22.4L28.5332 34.6667H41.8665C42.3999 33.6 42.9332 32.5333 43.7332 31.7333C43.9999 31.7333 43.9999 31.4667 44.2665 31.4667L46.1332 34.6667H50.6665L47.7332 29.3333C48.5332 29.0667 49.3332 29.0667 49.8665 29.0667C51.9999 29.0667 54.3999 30.1333 55.9999 31.4667C56.7999 32.5333 57.5999 33.6 58.1332 34.6667H62.3999C61.8665 32.8 60.7999 30.6667 59.1999 28.8C56.7999 26.4 53.5999 25.0667 50.1332 25.0667C48.7999 25.0667 47.4665 25.3333 45.8665 25.8667L41.0665 17.0667L44.5332 12H48.7999C49.8665 12 50.9332 11.2 50.9332 9.86667C50.9332 8.53333 49.8665 8 48.5332 8H43.1999H36.5332C35.4665 8 34.6665 8.8 34.6665 10.1333C34.6665 11.4667 35.4665 12.2667 36.7999 12.2667H39.7332L37.0665 16.2667H23.1999C21.5999 12.5333 18.1332 8 12.7999 8C11.7332 8 10.6665 8.8 10.6665 10.1333C10.6665 11.4667 11.4665 12.2667 12.7999 12.2667C16.2665 12.2667 18.6665 16 19.7332 18.1333L15.9999 25.6C14.9332 25.3333 13.8665 25.0667 12.7999 25.0667C9.59987 25.0667 6.66654 26.4 3.7332 28.8C2.1332 30.4 1.06654 32.5333 0.533203 34.6667H4.79987C5.06654 33.6 5.59987 32.5333 6.39987 31.7333ZM37.5999 20C37.8665 20 37.8665 20 37.8665 20L42.1332 28C41.5999 28.2667 41.3332 28.5333 40.7999 29.0667C39.4665 30.4 38.6665 32 37.8665 33.6H31.9999L25.0665 20.2667H37.5999V20Z" fill="#323232"/>
<path fill-rule="evenodd" clip-rule="evenodd" d="M51.3678 59.5452C50.8561 59.4748 50.4958 59.3213 50.2826 59.0868C50.0843 58.865 49.9798 58.5943 49.9692 58.2766C49.9606 58.0101 50.0203 57.7201 50.1483 57.411C50.2911 57.0997 50.4574 56.8033 50.6514 56.5155C50.8582 56.2405 51.065 55.9846 51.274 55.7501C51.4957 55.5262 51.6791 55.3535 51.8283 55.2341C51.9904 55.1147 52.1886 54.9868 52.4253 54.8504C52.662 54.7033 52.8986 54.5668 53.1353 54.4431C53.3847 54.3195 53.6171 54.2171 53.8303 54.1319C54.0563 54.0487 54.2397 54.0018 54.3783 53.9975C55.1607 53.9698 55.6234 54.1681 55.6468 54.812C55.6596 55.1915 55.1202 55.507 54.3719 56.0209C53.9049 56.394 53.809 56.8609 53.809 56.8609C55.4315 57.4152 57.3802 57.6519 59.6551 57.573C59.96 57.5624 60.1711 57.556 60.2841 57.5517C60.3992 57.5474 60.4546 57.5389 60.4546 57.5261C60.4418 57.1573 60.3502 56.7287 60.1796 56.2383C60.009 55.7608 59.8022 55.2725 59.5549 54.7715C59.3204 54.2705 58.3162 52.1682 58.0582 51.6928C57.8002 51.2195 57.5742 50.8058 57.3845 50.4562C57.1116 50.6566 56.7811 50.8528 56.3931 51.0446C56.005 51.2237 55.585 51.3858 55.1309 51.5286C54.6768 51.6587 54.2098 51.7717 53.7301 51.8634C53.2504 51.9444 52.7813 51.9913 52.323 52.0083C51.5234 52.036 50.7708 51.9998 50.0672 51.8953C49.3764 51.7802 48.7731 51.6032 48.255 51.3666C47.7369 51.1299 47.3275 50.84 47.0226 50.4946C46.7178 50.1364 46.5579 49.7292 46.5408 49.2708C46.5216 48.7633 46.624 48.2175 46.8457 47.6376V47.6568C47.1591 46.7677 47.6196 45.9575 48.2315 45.222C48.8541 44.4758 49.5449 43.834 50.3018 43.2989C51.0586 42.7509 51.8454 42.3224 52.662 42.0132C53.4785 41.6934 54.2482 41.5186 54.971 41.493C55.3526 41.4802 55.7407 41.5228 56.1393 41.6231C56.5359 41.7105 56.9048 41.8576 57.2416 42.0623C57.5806 42.2669 57.8685 42.5313 58.1094 42.8533C58.3482 43.1624 58.5081 43.527 58.587 43.9427C58.6509 44.3478 58.6957 44.6783 58.717 44.9299C58.7383 45.1836 58.7724 45.4245 58.8194 45.6505C58.8769 45.8787 58.9622 46.1217 59.0731 46.3861C59.1839 46.6505 59.3737 46.9937 59.6445 47.4159C59.9685 47.951 60.299 48.5075 60.638 49.0789C60.9749 49.6524 61.3011 50.2451 61.6166 50.8591C61.93 51.4583 62.9769 53.6863 63.2412 54.3131C63.5056 54.9399 63.7231 55.5689 63.8979 56.1978C63.9129 56.2618 63.9214 56.3172 63.9235 56.3684C63.9384 56.4174 63.9448 56.475 63.9491 56.539C63.9619 56.9206 63.8681 57.3236 63.6677 57.7521C63.4779 58.1785 63.2327 58.5815 62.9278 58.961C62.6357 59.3405 62.3031 59.6688 61.9322 59.9503C61.5718 60.2296 61.2286 60.4129 60.9024 60.5025C60.7254 60.5472 60.5293 60.5728 60.3139 60.5792C60.0986 60.6005 59.8833 60.6133 59.6658 60.6219C58.9537 60.6474 58.1776 60.6091 57.3333 60.5131C56.5039 60.4278 55.698 60.3148 54.9177 60.1784C54.1501 60.0526 53.4466 59.9247 52.8048 59.7946C52.1652 59.6774 51.6855 59.5921 51.3657 59.5388L51.3678 59.5452ZM53.6086 49.258C54.0094 49.0661 54.3335 48.8891 54.5829 48.7271C54.8324 48.565 55.0221 48.4073 55.1586 48.2495C55.2929 48.0789 55.3825 47.8977 55.4251 47.7058C55.4677 47.5012 55.6874 44.8211 55.6831 44.7188C55.6767 44.5418 55.5765 44.4118 55.3825 44.3286C55.2012 44.2327 55.0392 44.1879 54.9006 44.1922C54.6469 44.2007 54.3569 44.2817 54.0307 44.4331C53.7173 44.5845 53.3869 44.787 53.0415 45.0408C52.7067 45.2945 52.3805 45.5802 52.0586 45.8957C51.7388 46.2134 51.4509 46.5396 51.1972 46.8807C50.9414 47.2091 50.7367 47.5395 50.5832 47.8764C50.4425 48.1983 50.3764 48.4947 50.3849 48.7612C50.3913 48.9126 50.4403 49.0448 50.532 49.1556C50.6386 49.2665 50.7751 49.3582 50.9414 49.4285C51.1077 49.4861 51.2953 49.5309 51.5 49.5607C51.7174 49.5906 51.9349 49.6034 52.1503 49.5948C52.404 49.5863 52.6577 49.5586 52.9093 49.5117C53.1609 49.452 53.3933 49.3667 53.6065 49.258" fill="#D51B24"/>
<path fill-rule="evenodd" clip-rule="evenodd" d="M5.7651 52.81C5.67342 52.6778 5.51565 52.9273 5.46661 52.9912C5.41757 53.0445 5.36214 53.1085 5.30244 53.1874C5.24061 53.2535 5.17878 53.3132 5.11908 53.3643C4.77369 53.7374 4.3025 53.8248 4.15113 53.8547C4.03813 53.8696 3.8036 53.9144 3.57547 53.9506C3.05311 54.0594 3.11921 53.8654 3.12774 53.8099C3.16398 53.5754 3.1853 53.4176 3.1917 53.3345C3.20023 53.2193 3.20236 53.117 3.20023 53.0296C3.1917 52.7759 3.15545 52.4966 3.09362 52.1938C3.03179 51.8783 2.93798 51.5371 2.81006 51.1726L2.76529 50.9636V50.9828C2.60964 50.5052 2.44548 50.0149 2.27704 49.5117C2.10648 49.0085 1.93591 48.4862 1.76322 47.9446V47.9638C1.66727 47.7122 1.56493 47.3349 1.45833 46.8296C1.35173 46.3115 1.24939 45.7742 1.15345 45.2177C1.04471 44.6484 0.942372 44.1176 0.848561 43.6251C0.741958 43.1326 0.648147 42.7872 0.564997 42.5846C0.496771 42.4226 0.430677 42.22 0.373111 41.9812C0.313413 41.7424 0.253715 41.5015 0.19615 41.2627C0.136452 41.0112 0.0895466 40.7766 0.0575657 40.5613C0.0234527 40.3332 0.00426413 40.1562 0 40.0283C0.0234527 39.6019 0.121528 39.346 0.238791 39.2181C0.396564 39.0198 0.88907 38.7661 1.09588 38.6574C1.26431 38.5699 1.94444 38.3098 2.74183 38.393C2.88042 38.3887 3.54775 38.5465 3.67568 38.9132C3.83345 39.314 4.04879 40.1114 4.23428 40.6871C4.26199 40.751 4.29611 40.8576 4.34088 41.0069C4.38352 41.1455 4.43682 41.3736 4.49865 41.6891C4.56048 42.0047 4.63937 42.4354 4.73531 42.979C4.83125 43.5099 4.95065 44.205 5.0935 45.0663V45.0471L5.23421 45.787C5.31097 46.1537 5.37493 46.5204 5.4261 46.8871C5.49006 47.2538 5.5455 47.5566 5.5924 47.7975C5.62865 47.7335 5.69474 47.6675 5.79495 47.5992C5.89515 47.5331 5.98683 47.4585 6.07425 47.3796L6.05506 47.3988C6.23842 47.2155 6.39192 47.0555 6.51558 46.9255C6.6499 46.7933 6.77356 46.6739 6.88443 46.5694C6.9953 46.4522 7.10617 46.3328 7.2149 46.2134C7.32577 46.0961 7.46009 45.9447 7.61786 45.7614C7.70314 45.6697 7.85878 45.5375 8.08052 45.3627C8.30439 45.19 8.53252 45.0152 8.76917 44.8425C9.0037 44.657 9.22117 44.4885 9.41945 44.3414C9.63053 44.1815 9.76698 44.0749 9.82881 44.0216C10.0633 43.8361 10.3064 43.6549 10.5537 43.4801C10.801 43.2925 11.4662 42.8511 11.6581 42.8319C12.2444 42.6486 12.7668 42.6507 13.2231 42.8341C13.3424 42.8852 13.4576 42.9599 13.4576 42.9599C13.6644 43.0665 13.8605 43.22 14.046 43.4161C14.2294 43.5995 14.3893 43.8042 14.5257 44.0302C14.6729 44.254 14.8029 44.4779 14.9116 44.7039C15.0204 44.9171 15.144 45.1388 15.1973 45.3094C15.3295 45.6868 15.5534 46.3221 15.6323 46.7762C15.7112 47.2304 15.7559 47.6248 15.7687 47.9553C15.7879 48.5011 15.7538 48.9872 15.6664 49.4093C15.5918 49.8315 15.4852 50.2302 15.3466 50.6033C15.2187 50.9636 15.0716 51.3133 14.9053 51.6501C14.7517 51.9742 14.6046 52.309 14.4639 52.6586C14.3317 52.9187 14.1761 53.1405 13.9906 53.3238C13.8179 53.4944 13.626 53.6671 13.4171 53.8398C13.2188 54.0125 13.0098 54.2044 12.7881 54.4154C12.5664 54.6265 12.0973 55.2405 12.0717 55.2427C12.0589 55.2555 11.7136 55.7117 11.5003 55.8354C11.2999 55.9569 11.0739 56.0209 10.8202 56.0315C10.5793 56.0401 10.3107 55.9974 10.0143 55.9079C9.73073 55.829 9.44077 55.7245 9.14442 55.5945C8.86085 55.4772 8.59435 55.3471 8.34916 55.2022C8.10184 55.0572 7.90142 54.9378 7.74578 54.8418C7.74578 54.8418 7.62852 54.7438 7.58801 54.6947C6.62432 53.844 5.96764 53.085 5.76723 52.8121L5.7651 52.81ZM11.1251 52.1832C11.7029 51.9721 12.0995 51.6651 12.3148 51.2642C12.5301 50.8506 12.6261 50.356 12.6069 49.7846C12.5962 49.4797 12.5536 49.1706 12.479 48.855C12.4171 48.5267 12.3297 48.2175 12.2167 47.9297C12.1165 47.6269 11.9992 47.3455 11.8628 47.0833C11.7391 46.821 11.4769 46.4095 11.4769 46.4095C11.3277 46.1601 11.1912 46.0386 11.0633 46.0428C10.8586 46.0492 10.6454 46.1089 10.4194 46.2176C10.1934 46.3264 9.97592 46.4564 9.76485 46.6036C9.55377 46.7507 9.36828 46.9042 9.20838 47.0619C9.04848 47.2069 8.93761 47.3263 8.87791 47.4159C8.70734 47.6632 8.5517 47.8913 8.40672 48.1003C8.26174 48.3092 8.0059 48.6482 8.0059 48.6482C7.93341 48.7655 7.89929 48.8614 7.90142 48.9382C7.90569 49.0661 8.00163 49.2665 8.18925 49.5394C8.38967 49.7995 8.63486 50.0831 8.92482 50.3922C9.22757 50.6992 9.56443 51.0063 9.93115 51.3111C10.2979 51.616 11.1251 52.1853 11.1251 52.1853" fill="#242122"/>
<path d="M17.7089 54.4154C17.2612 53.5903 16.8902 52.8676 16.6024 52.2407C16.3252 51.6011 16.0992 50.9743 15.9265 50.356C15.7645 49.7249 15.6451 49.0554 15.5705 48.3454C15.483 47.6355 15.4212 46.7912 15.3871 45.8147C15.3743 45.4203 15.3807 45.0962 15.4105 44.8403C15.4404 44.5845 15.4894 44.3798 15.5598 44.2242C15.7645 43.7722 16.1504 43.6315 16.1504 43.6315C16.4275 43.5334 16.7175 43.4779 17.0224 43.4673C17.6833 43.4438 18.1332 43.5568 18.3699 43.802C18.6193 44.0344 18.7792 44.399 18.8474 44.8915C18.9157 45.3861 18.9562 46.0066 18.969 46.7571C18.9818 47.5075 19.0841 48.3817 19.2717 49.3816C19.3506 49.8251 19.4487 50.2664 19.5659 50.7078C19.6832 51.1491 19.7919 51.5649 19.8964 51.955C20.0115 52.3452 20.1075 52.6991 20.1821 53.0125C20.2567 53.3281 20.2972 53.5818 20.3036 53.7715C20.3122 54.0125 20.3143 54.1511 20.2461 54.3216C20.099 54.6009 18.2355 55.1766 17.7132 54.4154" fill="#D51B24"/>
<path d="M25.8086 54.9229C24.5251 54.9676 23.4655 54.8333 22.6276 54.5199C21.8025 54.2193 21.1479 53.8334 20.6597 53.3665C20.1736 52.8995 19.8303 52.3964 19.6342 51.857C19.4359 51.3048 19.3314 50.8122 19.3165 50.3794C19.3016 49.9338 19.3677 49.4626 19.5148 48.9595C19.6619 48.4584 19.8623 47.9745 20.1139 47.5075C20.3655 47.0406 20.649 46.6121 20.9667 46.2176C21.2844 45.8126 21.6021 45.4949 21.9261 45.2689C22.1735 45.0834 22.4528 44.8872 22.764 44.6868C23.0753 44.4736 23.7704 43.9832 23.7704 43.9832C24.0539 43.7572 24.3673 43.5867 24.7063 43.4737C25.0453 43.3607 25.3993 43.2967 25.7681 43.2839C26.0218 43.2754 26.3736 43.3138 26.8214 43.3991C27.2819 43.4843 27.7403 43.6464 28.1923 43.8852C28.6592 44.1112 29.0771 44.4267 29.4459 44.8339C29.8276 45.2284 30.0685 45.7337 30.1666 46.3541C30.1666 46.6078 29.5888 47.3434 28.3991 47.418C27.5399 47.4713 26.9706 47.1963 26.5804 46.9937C26.2031 46.7784 25.8406 46.4095 25.4931 45.8872C25.4142 45.8126 25.3438 45.7784 25.2799 45.7806C25.1903 45.7827 25.1029 45.8445 25.0198 45.9618C24.9473 46.0791 24.4377 46.7528 24.2543 47.0001C24.0838 47.2474 23.9281 47.5012 23.7853 47.7613C23.6531 48.0064 23.5486 48.2666 23.4697 48.5352C23.3887 48.7932 23.3546 49.0597 23.3631 49.3411C23.3717 49.5948 23.4186 49.8613 23.506 50.1385C23.6041 50.4157 24.1477 52.0275 25.7361 52.2557C26.0431 52.3217 26.3502 52.3559 26.6551 52.358C26.9599 52.3473 27.2456 52.3367 27.5121 52.3281C28.0835 52.3068 28.64 52.1874 29.1794 51.9657C29.7188 51.744 30.1687 51.5116 30.529 51.2706C30.868 51.0084 31.4863 50.97 31.6505 51.0446C31.9042 51.1619 32.0748 51.2344 32.3093 51.3794C32.5545 51.5116 32.7549 51.7973 32.9105 52.2365C32.3967 52.8143 31.8466 53.279 31.2603 53.6308C30.674 53.9698 30.0727 54.2321 29.4566 54.4197C28.8532 54.6052 28.2392 54.7288 27.6187 54.7885C26.9983 54.861 26.3949 54.9079 25.8108 54.9271" fill="#242122"/>
<path fill-rule="evenodd" clip-rule="evenodd" d="M33.2346 53.8632C32.7869 53.0381 32.418 52.3153 32.1281 51.6885C31.8509 51.0489 31.6249 50.4221 31.4522 49.8038C31.2902 49.1727 31.1708 48.5032 31.0961 47.7932C31.0087 47.0833 30.9469 46.2411 30.9128 45.2625C30.9 44.8681 30.9064 44.544 30.9362 44.2881C30.9661 44.0323 31.0151 43.8276 31.0855 43.672C31.2177 43.2861 31.6761 43.0793 31.6761 43.0793C31.9532 42.9812 32.2432 42.9257 32.5481 42.9151C33.209 42.8916 33.6567 43.0046 33.8955 43.2498C34.145 43.4822 34.3049 43.8468 34.3731 44.3414C34.4413 44.8361 34.4818 45.4565 34.4946 46.207C34.5074 46.9575 34.6076 47.8316 34.7953 48.8294C34.8741 49.2729 34.9722 49.7142 35.0895 50.1556C35.2067 50.5969 35.3155 51.0127 35.42 51.4028C35.5351 51.793 35.631 52.1469 35.7057 52.4603C35.7803 52.7759 35.8251 53.0296 35.8272 53.2193C35.84 54.0636 33.9915 55.1254 33.2346 53.8632ZM32.7336 41.8149C32.369 41.9429 31.9959 42.0132 31.6142 42.026C31.1558 42.0431 30.8232 41.9322 30.61 41.6977C30.399 41.4504 30.2668 40.9451 30.2582 40.3929C30.2561 40.3289 30.2646 40.2329 30.286 40.105C30.3073 39.9771 30.3158 39.5059 30.8893 39.3396C31.0791 39.2842 31.8274 39.039 32.0044 39.0326C32.1195 39.0283 32.2091 39.0752 32.4884 39.2074C32.5864 39.2479 32.627 39.2565 32.6803 39.2394C32.7421 39.2117 32.806 39.1904 32.8679 39.1754C32.9318 39.1605 32.9937 39.152 33.0576 39.1499C33.2602 39.1435 33.4158 39.201 33.5224 39.3247C33.6269 39.4356 33.7015 39.572 33.7463 39.7362C33.8017 39.9003 33.8465 40.0645 33.8785 40.2287C33.9232 40.3929 33.9829 40.5101 34.0618 40.5847C34.0171 41.186 33.096 41.687 32.7314 41.8149" fill="#D51B24"/>
<path d="M46.2636 54.2278C46.1059 54.0807 45.0249 52.6565 44.7008 52.1064C44.3746 51.5457 44.0889 51.0084 43.8437 50.4946C43.5964 49.9807 43.3704 49.4989 43.1636 49.049C42.9696 48.597 42.7713 48.1855 42.5666 47.8103C42.4686 48.2602 42.3897 48.7505 42.3321 49.2878C42.2873 49.823 42.249 50.3666 42.217 50.9146C42.185 51.4625 42.153 51.9977 42.121 52.52C42.1061 52.9443 42.0827 53.3345 42.0571 53.6927C42.0507 53.9634 41.7394 53.9848 41.6008 53.989C41.475 54.0061 41.3343 54.0167 41.1829 54.0231C41.0294 54.0295 39.5498 54.198 39.2555 54.053C38.9187 53.8867 38.5648 53.569 38.1916 53.0978C37.8185 52.6138 37.4497 52.0552 37.083 51.4199C36.7184 50.7845 36.3623 50.1023 36.0191 49.3774C35.6886 48.6503 35.3901 47.9617 35.1257 47.3093C34.8614 46.6441 34.6503 46.0599 34.4925 45.5567C34.3219 45.0408 34.226 44.6762 34.2068 44.4608C34.1983 44.2199 34.275 44.0387 34.4349 43.9193C34.597 43.7871 34.7953 43.6912 35.0362 43.6315C35.2643 43.5718 35.5031 43.5398 35.759 43.5291C36.0255 43.5185 36.2536 43.5121 36.4455 43.5057C36.6097 43.4993 36.8015 43.4929 37.0169 43.4865C37.196 43.4801 37.3943 43.4801 37.6117 43.4886C37.7247 43.4886 37.8185 43.5398 37.8569 43.6229C37.9251 43.7764 38.004 43.9598 38.0893 44.173C38.2002 44.4502 38.3132 44.7316 38.424 45.0194C38.5477 45.2945 38.6586 45.5524 38.7566 45.7912C38.8526 46.03 38.9293 46.1985 38.9848 46.2987C39.1425 45.7209 39.3323 45.1474 39.554 44.5802C39.7758 44.0003 40.6051 42.2733 40.7267 42.0772C40.8461 41.8704 41.0252 41.8192 41.2298 41.7552C41.6243 41.6316 42.5261 41.3672 42.8566 41.3544C42.9717 41.3501 43.9226 41.2734 44.3213 41.8C44.8863 42.4737 45.2658 43.8788 45.5494 44.6954C45.8308 45.4991 46.1208 46.3093 46.4171 47.1259C46.7263 47.9425 47.0461 48.7527 47.3787 49.5543C47.7241 50.356 48.6622 52.0616 48.7304 52.1981C48.7987 52.3367 48.8605 52.4859 48.918 52.6501C48.9735 52.8015 49.0183 52.9507 49.0481 53.1042C49.0907 53.2556 49.1142 53.3558 49.1163 53.407C49.1185 53.4837 49.0844 53.5925 49.014 53.7353C48.9436 53.8782 48.8392 54.021 48.7048 54.166C48.5705 54.311 48.4085 54.4368 48.2209 54.5455C48.0332 54.667 47.8264 54.731 47.5983 54.7395C46.9608 54.7459 46.4214 54.392 46.2636 54.2321" fill="#242122"/>
<path d="M17.0501 42.2072C16.6855 42.3352 16.3124 42.4055 15.9329 42.4183C15.4745 42.4332 15.1419 42.3245 14.9287 42.09C14.7176 41.8427 14.5854 41.3374 14.5769 40.7852C14.5769 40.7212 14.5833 40.6252 14.6046 40.4973C14.626 40.3694 14.6345 39.8982 15.208 39.7319C15.3978 39.6765 16.1184 39.5976 16.2954 39.5912C16.7474 39.5507 17.3124 39.5443 17.3763 39.5422C17.5789 39.5358 17.7345 39.5933 17.8411 39.717C17.9477 39.8279 18.0223 39.9664 18.065 40.1285C18.1204 40.2926 18.1652 40.4547 18.1972 40.6189C18.2419 40.783 18.3016 40.9024 18.3805 40.9749C18.3357 41.5761 17.4126 42.0772 17.0501 42.2051" fill="#D51B24"/>
</g>
<defs>
<clipPath id="clip0_3291_19667">
<rect width="64" height="64" fill="white"/>
</clipPath>
</defs>
</svg>
