<?xml version="1.0" encoding="UTF-8" standalone="yes"?>
<svg xmlns="http://www.w3.org/2000/svg" xmlns:xlink="http://www.w3.org/1999/xlink" width="64px" height="64px" viewBox="0 0 64 64" version="1.1">
  <defs>
    <filter id="alpha" filterUnits="objectBoundingBox" x="0%" y="0%" width="100%" height="100%">
      <feColorMatrix type="matrix" in="SourceGraphic" values="0 0 0 0 1 0 0 0 0 1 0 0 0 0 1 0 0 0 1 0"/>
    </filter>
    <mask id="mask0">
      <g filter="url(#alpha)">
        <rect x="0" y="0" width="64" height="64" style="fill:rgb(0%,0%,0%);fill-opacity:0.994;stroke:none;"/>
      </g>
    </mask>
    <clipPath id="clip1">
      <rect x="0" y="0" width="64" height="64"/>
    </clipPath>
    <g id="surface5" clip-path="url(#clip1)">
      <path style="fill-rule:nonzero;fill:rgb(100%,100%,100%);fill-opacity:1;stroke-width:2.46153;stroke-linecap:butt;stroke-linejoin:miter;stroke:rgb(0%,0%,0%);stroke-opacity:1;stroke-miterlimit:4;" d="M 62.769531 32 C 62.769531 48.992188 48.992188 62.769531 32 62.769531 C 15.007812 62.769531 1.230469 48.992188 1.230469 32 C 1.230469 15.007812 15.007812 1.230469 32 1.230469 C 48.992188 1.230469 62.769531 15.007812 62.769531 32 Z M 62.769531 32 "/>
    </g>
  </defs>
  <g id="surface1">
    <use xlink:href="#surface5" mask="url(#mask0)"/>
    <path style=" stroke:none;fill-rule:evenodd;fill:rgb(83.529413%,10.588235%,14.117648%);fill-opacity:1;" d="M 15.859375 15.902344 C 15.832031 15.84375 15.796875 15.789062 15.769531 15.730469 C 15.738281 15.671875 15.707031 15.621094 15.675781 15.5625 C 15.707031 15.621094 15.738281 15.671875 15.769531 15.730469 C 15.796875 15.789062 15.832031 15.84375 15.859375 15.902344 Z M 27.050781 45.527344 C 26.84375 45.226562 26.488281 45.796875 26.378906 45.945312 C 26.265625 46.066406 26.140625 46.210938 26.007812 46.394531 C 25.867188 46.546875 25.726562 46.683594 25.59375 46.800781 C 24.8125 47.65625 23.75 47.855469 23.40625 47.925781 C 23.152344 47.957031 22.621094 48.0625 22.105469 48.144531 C 20.925781 48.394531 21.074219 47.949219 21.09375 47.820312 C 21.175781 47.285156 21.226562 46.921875 21.238281 46.730469 C 21.257812 46.46875 21.261719 46.230469 21.257812 46.03125 C 21.238281 45.449219 21.15625 44.808594 21.019531 44.113281 C 20.878906 43.390625 20.667969 42.609375 20.378906 41.773438 L 20.277344 41.292969 L 20.277344 41.339844 C 19.925781 40.242188 19.554688 39.117188 19.171875 37.964844 C 18.789062 36.808594 18.402344 35.613281 18.011719 34.371094 L 18.011719 34.414062 C 17.796875 33.835938 17.566406 32.972656 17.324219 31.8125 C 17.082031 30.625 16.851562 29.394531 16.636719 28.117188 C 16.390625 26.8125 16.160156 25.59375 15.945312 24.464844 C 15.707031 23.335938 15.492188 22.542969 15.304688 22.078125 C 15.152344 21.707031 15.003906 21.242188 14.871094 20.695312 C 14.738281 20.148438 14.601562 19.59375 14.472656 19.046875 C 14.335938 18.46875 14.230469 17.933594 14.160156 17.4375 C 14.082031 16.914062 14.039062 16.507812 14.03125 16.214844 C 14.082031 15.238281 14.304688 14.652344 14.570312 14.359375 C 14.925781 13.902344 16.039062 13.320312 16.503906 13.074219 C 16.886719 12.871094 18.421875 12.277344 20.222656 12.464844 C 20.535156 12.457031 22.042969 12.816406 22.332031 13.660156 C 22.6875 14.578125 23.175781 16.40625 23.59375 17.726562 C 23.65625 17.875 23.734375 18.117188 23.835938 18.460938 C 23.929688 18.777344 24.050781 19.300781 24.191406 20.023438 C 24.332031 20.75 24.507812 21.738281 24.726562 22.984375 C 24.941406 24.199219 25.210938 25.792969 25.535156 27.769531 L 25.535156 27.726562 L 25.851562 29.421875 C 26.027344 30.261719 26.171875 31.105469 26.285156 31.945312 C 26.429688 32.785156 26.554688 33.480469 26.660156 34.03125 C 26.742188 33.886719 26.894531 33.734375 27.121094 33.578125 C 27.347656 33.425781 27.554688 33.253906 27.75 33.074219 L 27.707031 33.117188 C 28.121094 32.699219 28.46875 32.332031 28.746094 32.035156 C 29.050781 31.730469 29.328125 31.457031 29.582031 31.21875 C 29.832031 30.949219 30.082031 30.675781 30.328125 30.402344 C 30.578125 30.132812 30.878906 29.785156 31.238281 29.363281 C 31.429688 29.152344 31.78125 28.851562 32.28125 28.449219 C 32.789062 28.054688 33.304688 27.652344 33.835938 27.257812 C 34.367188 26.832031 34.859375 26.445312 35.304688 26.109375 C 35.785156 25.742188 36.089844 25.496094 36.230469 25.375 C 36.761719 24.949219 37.308594 24.53125 37.867188 24.132812 C 38.425781 23.703125 39.929688 22.691406 40.363281 22.644531 C 41.6875 22.226562 42.867188 22.230469 43.898438 22.652344 C 44.167969 22.769531 44.429688 22.9375 44.429688 22.9375 C 44.894531 23.183594 45.339844 23.535156 45.757812 23.984375 C 46.171875 24.40625 46.53125 24.875 46.839844 25.394531 C 47.171875 25.90625 47.46875 26.421875 47.710938 26.9375 C 47.957031 27.425781 48.238281 27.9375 48.359375 28.328125 C 48.65625 29.191406 49.160156 30.648438 49.339844 31.691406 C 49.519531 32.734375 49.621094 33.636719 49.648438 34.394531 C 49.691406 35.648438 49.613281 36.761719 49.417969 37.730469 C 49.25 38.699219 49.007812 39.613281 48.695312 40.46875 C 48.40625 41.292969 48.074219 42.097656 47.699219 42.867188 C 47.351562 43.613281 47.019531 44.378906 46.703125 45.179688 C 46.402344 45.777344 46.050781 46.285156 45.632812 46.707031 C 45.242188 47.097656 44.808594 47.492188 44.335938 47.890625 C 43.890625 48.285156 43.417969 48.726562 42.914062 49.210938 C 42.414062 49.695312 41.355469 51.101562 41.296875 51.105469 C 41.269531 51.136719 40.488281 52.183594 40.007812 52.464844 C 39.554688 52.746094 39.042969 52.890625 38.46875 52.914062 C 37.925781 52.933594 37.320312 52.835938 36.648438 52.632812 C 36.011719 52.453125 35.355469 52.210938 34.683594 51.914062 C 34.042969 51.644531 33.441406 51.347656 32.890625 51.015625 C 32.332031 50.679688 31.878906 50.40625 31.527344 50.1875 C 31.527344 50.1875 31.261719 49.964844 31.167969 49.851562 C 28.992188 47.898438 27.507812 46.160156 27.058594 45.53125 Z M 39.160156 44.089844 L 39.117188 44.089844 Z M 39.160156 44.089844 C 40.464844 43.605469 41.359375 42.902344 41.847656 41.984375 C 42.332031 41.035156 42.550781 39.902344 42.507812 38.589844 C 42.480469 37.890625 42.386719 37.183594 42.21875 36.457031 C 42.078125 35.707031 41.878906 34.996094 41.625 34.335938 C 41.398438 33.640625 41.132812 32.996094 40.824219 32.394531 C 40.546875 31.792969 39.953125 30.851562 39.953125 30.851562 C 39.617188 30.277344 39.308594 30 39.019531 30.007812 C 38.558594 30.023438 38.074219 30.160156 37.566406 30.410156 C 37.054688 30.660156 36.5625 30.957031 36.085938 31.296875 C 35.609375 31.632812 35.191406 31.984375 34.828125 32.347656 C 34.46875 32.679688 34.21875 32.953125 34.082031 33.15625 C 33.699219 33.726562 33.347656 34.25 33.019531 34.726562 C 32.691406 35.207031 32.113281 35.984375 32.113281 35.984375 C 31.949219 36.253906 31.871094 36.472656 31.878906 36.648438 C 31.886719 36.941406 32.105469 37.402344 32.527344 38.027344 C 32.980469 38.625 33.535156 39.273438 34.1875 39.984375 C 34.875 40.6875 35.632812 41.390625 36.460938 42.089844 C 37.289062 42.789062 39.160156 44.09375 39.160156 44.09375 "/>
  </g>
</svg>