<svg width="64" height="64" viewBox="0 0 64 64" fill="none" xmlns="http://www.w3.org/2000/svg">
<circle cx="32" cy="32" r="32" fill="white"/>
<path fill-rule="evenodd" clip-rule="evenodd" d="M15.0022 14.9589C14.9728 14.8993 14.9386 14.8447 14.9092 14.785C14.8798 14.7254 14.8456 14.6708 14.8162 14.6112C14.8456 14.6708 14.8798 14.7254 14.9092 14.785C14.9386 14.8447 14.9728 14.8993 15.0022 14.9589ZM26.3752 45.0618C26.1647 44.7538 25.8026 45.3351 25.69 45.4841C25.5775 45.6083 25.4502 45.7574 25.3132 45.9412C25.1713 46.0952 25.0294 46.2343 24.8924 46.3536C24.0996 47.223 23.0181 47.4267 22.6706 47.4963C22.4113 47.531 21.8729 47.6354 21.3493 47.7198C20.1504 47.9732 20.3021 47.5211 20.3216 47.3919C20.4048 46.8454 20.4538 46.4778 20.4685 46.284C20.488 46.0157 20.4929 45.7772 20.488 45.5735C20.4685 44.9823 20.3853 44.3315 20.2433 43.626C20.1014 42.8907 19.8861 42.0957 19.5925 41.2462L19.4897 40.7593V40.804C19.1325 39.6911 18.7557 38.5484 18.3691 37.3759C17.9776 36.2033 17.5861 34.9861 17.1897 33.7242V33.7689C16.9695 33.1826 16.7346 32.3032 16.4899 31.1258C16.2452 29.9185 16.0103 28.6664 15.7901 27.3697C15.5405 26.0432 15.3056 24.8061 15.0903 23.6584C14.8456 22.5107 14.6303 21.7059 14.4394 21.2339C14.2828 20.8563 14.1311 20.3843 13.999 19.8279C13.862 19.2714 13.7249 18.71 13.5928 18.1535C13.4558 17.5673 13.3481 17.0208 13.2747 16.519C13.1964 15.9874 13.1524 15.575 13.1426 15.2769C13.1964 14.2832 13.4215 13.6871 13.6907 13.389C14.0528 12.9269 15.1833 12.3357 15.6579 12.0823C16.0445 11.8786 17.6056 11.2725 19.4359 11.4662C19.754 11.4563 21.2857 11.8239 21.5793 12.6785C21.9415 13.6125 22.4357 15.4707 22.8615 16.8121C22.9251 16.9612 23.0034 17.2096 23.1062 17.5574C23.204 17.8803 23.3264 18.4119 23.4683 19.1472C23.6102 19.8825 23.7913 20.8861 24.0115 22.153C24.2317 23.3901 24.5058 25.0098 24.8336 27.017V26.9723L25.1566 28.6963C25.3328 29.5508 25.4796 30.4053 25.5971 31.2599C25.7439 32.1144 25.8711 32.8199 25.9788 33.3814C26.062 33.2323 26.2137 33.0783 26.4437 32.9193C26.6737 32.7653 26.8841 32.5914 27.0847 32.4076L27.0407 32.4523C27.4616 32.025 27.8139 31.6524 28.0977 31.3493C28.406 31.0413 28.6899 30.7631 28.9443 30.5196C29.1988 30.2464 29.4533 29.9681 29.7029 29.6899C29.9573 29.4167 30.2656 29.0639 30.6278 28.6366C30.8235 28.423 31.1808 28.115 31.6897 27.7076C32.2036 27.3051 32.7272 26.8977 33.2704 26.4953C33.8087 26.0631 34.3078 25.6706 34.763 25.3278C35.2474 24.9551 35.5606 24.7067 35.7026 24.5825C36.2409 24.1503 36.7987 23.728 37.3664 23.3206C37.9341 22.8834 39.4609 21.8549 39.9013 21.8102C41.2471 21.3829 42.4461 21.3879 43.4933 21.8152C43.7674 21.9344 44.0316 22.1083 44.0316 22.1083C44.5063 22.3567 44.9565 22.7144 45.3823 23.1715C45.8032 23.5988 46.1702 24.0757 46.4834 24.6024C46.821 25.1241 47.1196 25.6457 47.3691 26.1724C47.6187 26.6692 47.9025 27.1859 48.0249 27.5834C48.3283 28.4627 48.8421 29.9433 49.0232 31.0015C49.2043 32.0598 49.307 32.9789 49.3364 33.749C49.3805 35.0209 49.3022 36.1537 49.1015 37.1374C48.9302 38.1211 48.6855 39.0502 48.3675 39.9196C48.0738 40.7593 47.7362 41.5741 47.3545 42.3591C47.0021 43.1142 46.6644 43.8943 46.3415 44.7091C46.0381 45.3152 45.6808 45.8319 45.2551 46.2592C44.8587 46.6566 44.4182 47.0591 43.9387 47.4615C43.4835 47.8639 43.004 48.3111 42.495 48.8029C41.9861 49.2948 40.9095 50.7257 40.8507 50.7306C40.8214 50.7604 40.0286 51.8237 39.5392 52.1118C39.0792 52.395 38.5605 52.5441 37.9781 52.5689C37.4251 52.5888 36.8085 52.4894 36.1283 52.2807C35.4774 52.0969 34.8119 51.8535 34.1317 51.5504C33.4808 51.2771 32.8691 50.9741 32.3063 50.6362C31.7386 50.2984 31.2786 50.0202 30.9214 49.7966C30.9214 49.7966 30.6522 49.5681 30.5593 49.4538C28.3473 47.4714 26.8401 45.7027 26.38 45.0668L26.3752 45.0618ZM38.6779 43.6011H38.6339H38.6779ZM38.6779 43.6011C40.0041 43.1093 40.9143 42.3938 41.4086 41.4598C41.9029 40.4959 42.1231 39.3433 42.079 38.0118C42.0546 37.3013 41.9567 36.5809 41.7854 35.8456C41.6435 35.0805 41.4429 34.3601 41.1835 33.6894C40.9535 32.9839 40.6843 32.3281 40.3711 31.717C40.0873 31.1059 39.4854 30.147 39.4854 30.147C39.1428 29.5657 38.8296 29.2825 38.536 29.2925C38.0662 29.3074 37.5768 29.4465 37.0581 29.6999C36.5394 29.9532 36.0402 30.2563 35.5557 30.5991C35.0713 30.9419 34.6455 31.2996 34.2785 31.6673C33.9115 32.0051 33.657 32.2834 33.52 32.492C33.1285 33.0684 32.7712 33.6 32.4384 34.0869C32.1057 34.5737 31.5184 35.3637 31.5184 35.3637C31.352 35.637 31.2737 35.8605 31.2786 36.0394C31.2884 36.3375 31.5086 36.8045 31.9393 37.4404C32.3993 38.0466 32.9621 38.7074 33.6276 39.4278C34.3225 40.1432 35.0957 40.8586 35.9374 41.5691C36.7792 42.2796 38.6779 43.6061 38.6779 43.6061" fill="#D51B24"/>
</svg>
