<?xml version="1.0" encoding="UTF-8" standalone="yes"?>
<svg xmlns="http://www.w3.org/2000/svg" xmlns:xlink="http://www.w3.org/1999/xlink" width="64px" height="38px" viewBox="0 0 64 38" version="1.1">
  <g id="surface1">
    <path style=" stroke:none;fill-rule:evenodd;fill:rgb(20.392157%,81.960785%,52.549022%);fill-opacity:1;" d="M 51.011719 1.109375 L 44.429688 2.492188 L 44.429688 28.800781 L 51.011719 28.800781 Z M 51.011719 1.109375 "/>
    <path style=" stroke:none;fill-rule:evenodd;fill:rgb(20.392157%,81.960785%,52.549022%);fill-opacity:1;" d="M 32.273438 22.289062 C 30.453125 22.289062 28.976562 20.824219 28.976562 19.027344 C 28.976562 17.226562 30.453125 15.765625 32.273438 15.765625 C 34.089844 15.765625 35.570312 17.226562 35.570312 19.027344 C 35.570312 20.824219 34.089844 22.289062 32.273438 22.289062 Z M 32.273438 8.972656 C 26.664062 8.972656 22.113281 13.476562 22.113281 19.027344 C 22.113281 24.574219 26.664062 29.078125 32.273438 29.078125 C 37.878906 29.078125 42.429688 24.574219 42.429688 19.027344 C 42.429688 13.476562 37.878906 8.972656 32.273438 8.972656 Z M 32.273438 8.972656 "/>
    <path style=" stroke:none;fill-rule:evenodd;fill:rgb(20.392157%,81.960785%,52.549022%);fill-opacity:1;" d="M 32.273438 31.433594 C 34.089844 31.433594 35.570312 32.898438 35.570312 34.695312 C 35.570312 36.496094 34.089844 37.960938 32.273438 37.960938 C 30.453125 37.960938 28.976562 36.496094 28.976562 34.695312 C 28.976562 32.882812 30.453125 31.433594 32.273438 31.433594 Z M 32.273438 31.433594 "/>
    <path style=" stroke:none;fill-rule:evenodd;fill:rgb(20.392157%,81.960785%,52.549022%);fill-opacity:1;" d="M 11.5625 22.289062 L 6.617188 22.289062 L 6.617188 18.21875 L 11.5625 18.21875 C 12.703125 18.246094 13.589844 19.179688 13.5625 20.308594 C 13.535156 21.382812 12.648438 22.261719 11.5625 22.289062 Z M 6.617188 7.636719 L 10.28125 7.636719 C 11.421875 7.664062 12.308594 8.597656 12.28125 9.726562 C 12.253906 10.816406 11.363281 11.679688 10.28125 11.707031 L 6.617188 11.707031 Z M 17.621094 14.160156 C 20.128906 10.144531 18.875 4.875 14.800781 2.394531 C 13.4375 1.558594 11.871094 1.125 10.265625 1.109375 L 0.0234375 1.109375 L 0.0234375 28.800781 L 11.546875 28.800781 C 16.324219 28.800781 20.183594 24.964844 20.183594 20.238281 C 20.183594 17.96875 19.269531 15.777344 17.621094 14.160156 Z M 17.621094 14.160156 "/>
    <path style=" stroke:none;fill-rule:evenodd;fill:rgb(20.392157%,81.960785%,52.549022%);fill-opacity:1;" d="M 63.464844 15.863281 L 63.464844 9.351562 L 60.167969 9.351562 L 60.167969 4.375 L 53.589844 5.753906 L 53.589844 22.609375 C 53.589844 26.582031 56.082031 28.871094 59.757812 29.066406 C 59.800781 29.066406 59.84375 29.078125 59.871094 29.078125 L 59.941406 29.078125 C 60.027344 29.078125 60.097656 29.09375 60.183594 29.09375 L 60.265625 29.09375 C 61.394531 29.09375 62.492188 28.8125 63.480469 28.285156 L 63.480469 23.472656 C 63 23.597656 62.507812 23.667969 62.011719 23.667969 C 60.703125 23.667969 60.195312 22.527344 60.195312 20.976562 L 60.195312 15.863281 Z M 63.464844 15.863281 "/>
  </g>
</svg>