<svg width="55" height="33" viewBox="0 0 55 33" fill="none" xmlns="http://www.w3.org/2000/svg">
<path fill-rule="evenodd" clip-rule="evenodd" d="M43.8369 0.964844L38.1827 2.16348V25.0102H43.8369V0.964844Z" fill="#34D186"/>
<path fill-rule="evenodd" clip-rule="evenodd" d="M27.734 19.3561C26.1721 19.3561 24.9008 18.0848 24.9008 16.5229C24.9008 14.9611 26.1721 13.6898 27.734 13.6898C29.2958 13.6898 30.5671 14.9611 30.5671 16.5229C30.5671 18.0848 29.2958 19.3561 27.734 19.3561ZM27.734 7.79344C22.9152 7.79344 19.0045 11.7041 19.0045 16.5229C19.0045 21.3417 22.9152 25.2524 27.734 25.2524C32.5528 25.2524 36.4635 21.3417 36.4635 16.5229C36.4635 11.7041 32.5528 7.79344 27.734 7.79344Z" fill="#34D186"/>
<path fill-rule="evenodd" clip-rule="evenodd" d="M27.734 27.2986C29.2958 27.2986 30.5671 28.5698 30.5671 30.1317C30.5671 31.6936 29.2958 32.9648 27.734 32.9648C26.1721 32.9648 24.9008 31.6936 24.9008 30.1317C24.9008 28.5577 26.1721 27.2986 27.734 27.2986Z" fill="#34D186"/>
<path fill-rule="evenodd" clip-rule="evenodd" d="M9.93602 19.3561H5.68631V15.8207H9.93602C10.9167 15.8449 11.6795 16.6561 11.6553 17.6368C11.6311 18.5691 10.8683 19.3319 9.93602 19.3561ZM5.68631 6.63113H8.83424C9.81495 6.65535 10.5777 7.46655 10.5535 8.44725C10.5293 9.39163 9.76652 10.1423 8.83424 10.1665H5.68631V6.63113ZM15.1422 12.2974C17.2974 8.81047 16.2198 4.23386 12.7207 2.07873C11.5463 1.35228 10.2024 0.976951 8.82214 0.964844H0.0200195V25.0102H9.92392C14.0283 25.0102 17.3458 21.6807 17.3458 17.5763C17.3458 15.6028 16.5588 13.7019 15.1422 12.2974Z" fill="#34D186"/>
<path fill-rule="evenodd" clip-rule="evenodd" d="M54.5399 13.7745V8.12034H51.7067V3.79798L46.0526 4.99661V19.6345C46.0526 23.0851 48.1956 25.0708 51.3556 25.2403C51.3919 25.2403 51.4283 25.2524 51.4525 25.2524H51.513C51.5857 25.2524 51.6462 25.2645 51.7188 25.2645H51.7915C52.7601 25.2645 53.7045 25.0223 54.552 24.5623V20.3852C54.1403 20.4942 53.7166 20.5547 53.2928 20.5547C52.1668 20.5547 51.731 19.5619 51.731 18.218V13.7745H54.5399Z" fill="#34D186"/>
</svg>
