<?xml version="1.0" encoding="UTF-8" standalone="yes"?>
<svg xmlns="http://www.w3.org/2000/svg" xmlns:xlink="http://www.w3.org/1999/xlink" width="64px" height="64px" viewBox="0 0 64 64" version="1.1">
  <g id="surface1">
    <path style=" stroke:none;fill-rule:nonzero;fill:rgb(88.235295%,14.509805%,10.588235%);fill-opacity:1;" d="M 32 64 C 49.664062 64 64 49.664062 64 32 C 64 14.335938 49.664062 0 32 0 C 14.335938 0 0 14.335938 0 32 C 0 49.664062 14.335938 64 32 64 "/>
    <path style=" stroke:none;fill-rule:nonzero;fill:rgb(100%,100%,100%);fill-opacity:1;" d="M 27.648438 21.3125 L 34.625 21.3125 C 36.542969 21.3125 38.335938 22.144531 38.335938 24.769531 C 38.335938 27.328125 36.222656 28.160156 34.625 28.160156 L 27.648438 28.160156 Z M 18.558594 49.921875 L 35.199219 49.921875 C 42.625 49.921875 48.703125 47.296875 48.703125 38.785156 C 48.703125 34.6875 46.398438 31.425781 42.753906 30.335938 C 45.441406 28.929688 47.296875 26.304688 47.296875 23.105469 C 47.296875 15.617188 40.769531 14.015625 34.753906 14.144531 L 18.558594 14.144531 Z M 27.648438 34.175781 L 34.878906 34.175781 C 37.632812 34.175781 39.742188 35.199219 39.742188 38.398438 C 39.742188 41.34375 37.761719 42.433594 34.878906 42.433594 L 27.648438 42.433594 Z M 27.648438 34.175781 "/>
  </g>
</svg>