<?xml version="1.0" encoding="utf-8"?>
<!-- Generator: Adobe Illustrator 24.0.1, SVG Export Plug-In . SVG Version: 6.00 Build 0)  -->
<svg version="1.1" id="Capa_1" xmlns="http://www.w3.org/2000/svg" xmlns:xlink="http://www.w3.org/1999/xlink" x="0px" y="0px"
	 viewBox="0 0 100 100" style="enable-background:new 0 0 100 100;" xml:space="preserve">
<style type="text/css">
	.st0{fill:#E1251B;}
	.st1{fill:#FFFFFF;}
</style>
<g>
	<path class="st0" d="M50,100c27.6,0,50-22.4,50-50S77.6,0,50,0C22.4,0,0,22.4,0,50S22.4,100,50,100"/>
	<path class="st1" d="M43.2,33.3h10.9c3,0,5.8,1.3,5.8,5.4c0,4-3.3,5.3-5.8,5.3H43.2V33.3z M29,78h26c11.6,0,21.1-4.1,21.1-17.4
		c0-6.4-3.6-11.5-9.3-13.2c4.2-2.2,7.1-6.3,7.1-11.3c0-11.7-10.2-14.2-19.6-14H29V78z M43.2,53.4h11.3c4.3,0,7.6,1.6,7.6,6.6
		c0,4.6-3.1,6.3-7.6,6.3H43.2V53.4z"/>
</g>
</svg>
