<?xml version="1.0" encoding="utf-8"?>
<!-- Generator: Adobe Illustrator 26.5.0, SVG Export Plug-In . SVG Version: 6.00 Build 0)  -->
<svg version="1.1" id="Capa_1" xmlns="http://www.w3.org/2000/svg" xmlns:xlink="http://www.w3.org/1999/xlink" x="0px" y="0px"
	 viewBox="0 0 140 140" style="enable-background:new 0 0 140 140;" xml:space="preserve">
<style type="text/css">
	.st0{fill:none;}
	.st1{fill:#E30613;}
	.st2{enable-background:new    ;}
	.st3{fill:#FFFFFF;}
</style>
<rect y="40.9" class="st0" width="140" height="58.2"/>
<g>
	<g>
		<path class="st1" d="M140,70c0-38.7-31.3-70-70-70S0,31.3,0,70s31.3,70,70,70S140,108.7,140,70"/>
	</g>
	<g class="st2">
		<path class="st3" d="M36.3,98H25V61.7H10.9v-8.6c7.9,0.2,15.2-2.6,16.4-11.1h9V98z"/>
	</g>
	<g class="st2">
		<path class="st3" d="M46.2,63.5c-0.4-12.8,6.7-22.6,19.7-22.6c9.9,0,18.6,6.6,18.6,17.5c0,8.4-4.3,13-9.7,17
			c-5.4,3.9-11.7,7.1-15.7,12.9h25.7V98H44.9c0.1-13,7.8-18.5,17.2-25c4.8-3.4,11.3-6.8,11.4-13.7c0-5.3-3.4-8.6-8.1-8.6
			c-6.5,0-8.6,7-8.6,12.9H46.2z"/>
	</g>
	<g class="st2">
		<path class="st3" d="M108.3,40.9c13.5,0,18.2,9.6,18.2,15c0,5.5-2.8,10-7.9,11.8v0.2c6.4,1.5,10.2,6.6,10.2,13.7
			c0,11.8-10.2,17.6-20.3,17.6c-10.5,0-20.6-5.4-20.6-17.5c0-7.1,3.9-12.2,10.2-13.8v-0.2c-5.3-1.5-8-6-8-11.5
			C90,46.1,99.5,40.9,108.3,40.9z M108.4,90.6c5.3,0,9.3-3.8,9.3-9.4c0-5.4-4.2-9-9.3-9c-5.4,0-9.6,3.1-9.6,8.9
			C98.8,86.8,103.1,90.6,108.4,90.6z M108.3,64.6c4.5,0,8.1-2.6,8.1-7.4c0-2.9-1.3-7.8-8.1-7.8c-4.4,0-8.3,2.8-8.3,7.8
			C100,62.1,103.9,64.6,108.3,64.6z"/>
	</g>
</g>
</svg>
