<?xml version="1.0" encoding="utf-8"?>
<!-- Generator: Adobe Illustrator 26.5.0, SVG Export Plug-In . SVG Version: 6.00 Build 0)  -->
<svg version="1.1" id="Capa_1" xmlns="http://www.w3.org/2000/svg" xmlns:xlink="http://www.w3.org/1999/xlink" x="0px" y="0px"
	 viewBox="0 0 140 140" style="enable-background:new 0 0 140 140;" xml:space="preserve">
<style type="text/css">
	.st0{fill:none;}
	.st1{fill:#E30613;}
	.st2{enable-background:new    ;}
	.st3{fill:#FFFFFF;}
</style>
<rect y="40.9" class="st0" width="140" height="58.2"/>
<g>
	<g>
		<path class="st1" d="M140,70c0-38.7-31.3-70-70-70S0,31.3,0,70s31.3,70,70,70S140,108.7,140,70"/>
	</g>
	<g class="st2">
		<path class="st3" d="M56.5,56.4c-0.7-3.8-3.6-7-7.5-7c-8.2,0-10.4,10.8-10.7,17l0.2,0.2c3.1-4.4,7.2-6.2,12.6-6.2
			c4.8,0,9.7,2.2,12.9,5.8c3,3.4,4.3,8.1,4.3,12.5c0,11.4-7.9,20.5-19.6,20.5c-17,0-21.5-14.8-21.5-29c0-13.7,6.1-29.3,22-29.3
			c9.7,0,16.9,5.7,18.2,15.5H56.5z M39.3,79.4c0,5.2,3.4,10.4,9,10.4c5.4,0,8.6-5.2,8.6-10.2c0-5.3-2.7-10.6-8.6-10.6
			C42.2,69,39.3,73.8,39.3,79.4z"/>
	</g>
	<g class="st2">
		<path class="st3" d="M93.9,40.9c11.2,0,20.6,7,20.6,28.9c0,22.3-9.4,29.4-20.6,29.4c-11,0-20.5-7-20.5-29.4
			C73.4,47.9,82.9,40.9,93.9,40.9z M93.9,89.8c9.3,0,9.3-13.7,9.3-20c0-5.8,0-19.5-9.3-19.5c-9.1,0-9.1,13.7-9.1,19.5
			C84.8,76.1,84.8,89.8,93.9,89.8z"/>
	</g>
</g>
</svg>
