<?xml version="1.0" encoding="utf-8"?>
<!-- Generator: Adobe Illustrator 26.5.0, SVG Export Plug-In . SVG Version: 6.00 Build 0)  -->
<svg version="1.1" id="Capa_1" xmlns="http://www.w3.org/2000/svg" xmlns:xlink="http://www.w3.org/1999/xlink" x="0px" y="0px"
	 viewBox="0 0 140 140" style="enable-background:new 0 0 140 140;" xml:space="preserve">
<style type="text/css">
	.st0{fill:none;}
	.st1{fill:#E30613;}
	.st2{enable-background:new    ;}
	.st3{fill:#FFFFFF;}
</style>
<rect y="40.9" class="st0" width="140" height="58.2"/>
<g>
	<g>
		<path class="st1" d="M140,70c0-38.7-31.3-70-70-70S0,31.3,0,70s31.3,70,70,70S140,108.7,140,70"/>
	</g>
	<g class="st2">
		<path class="st3" d="M36.8,98H25.4V61.7H11.3v-8.6c7.9,0.2,15.2-2.6,16.4-11.1h9V98z"/>
	</g>
	<g class="st2">
		<path class="st3" d="M63.6,40.9c10.9,0,20,7,20,28.9c0,22.3-9.2,29.4-20,29.4c-10.7,0-19.9-7-19.9-29.4
			C43.7,47.9,52.9,40.9,63.6,40.9z M63.6,89.8c9,0,9-13.7,9-20c0-5.8,0-19.5-9-19.5c-8.8,0-8.8,13.7-8.8,19.5
			C54.7,76.1,54.7,89.8,63.6,89.8z"/>
	</g>
	<g class="st2">
		<path class="st3" d="M98.5,83.6c0.7,3.8,3.5,7,7.3,7c8,0,10.1-10.8,10.4-17l-0.2-0.2c-3,4.4-7,6.2-12.3,6.2
			c-4.7,0-9.4-2.2-12.5-5.8c-2.9-3.4-4.2-8.1-4.2-12.5c0-11.4,7.7-20.5,19-20.5c16.5,0,20.9,14.8,20.9,29c0,13.7-5.9,29.3-21.3,29.3
			c-9.4,0-16.4-5.7-17.6-15.5H98.5z M115.2,60.6c0-5.2-3.3-10.4-8.8-10.4c-5.3,0-8.3,5.2-8.3,10.2c0,5.3,2.6,10.6,8.3,10.6
			C112.3,71,115.2,66.2,115.2,60.6z"/>
	</g>
</g>
</svg>
