<?xml version="1.0" encoding="utf-8"?>
<!-- Generator: Adobe Illustrator 26.5.0, SVG Export Plug-In . SVG Version: 6.00 Build 0)  -->
<svg version="1.1" id="Capa_1" xmlns="http://www.w3.org/2000/svg" xmlns:xlink="http://www.w3.org/1999/xlink" x="0px" y="0px"
	 viewBox="0 0 140 140" style="enable-background:new 0 0 140 140;" xml:space="preserve">
<style type="text/css">
	.st0{fill:none;}
	.st1{fill:#E30613;}
	.st2{enable-background:new    ;}
	.st3{fill:#FFFFFF;}
</style>
<rect y="40.9" class="st0" width="140" height="58.2"/>
<g>
	<g>
		<path class="st1" d="M140,70c0-38.7-31.3-70-70-70S0,31.3,0,70s31.3,70,70,70S140,108.7,140,70"/>
	</g>
	<g class="st2">
		<path class="st3" d="M35.8,98H24.5V61.7H10.4v-8.6c7.9,0.2,15.2-2.6,16.4-11.1h9V98z"/>
	</g>
	<g class="st2">
		<path class="st3" d="M44.1,63.5c-0.4-12.8,6.7-22.6,19.7-22.6c9.9,0,18.6,6.6,18.6,17.5c0,8.4-4.3,13-9.7,17
			C67.3,79.3,61,82.5,57,88.2h25.7V98H42.8c0.1-13,7.8-18.5,17.2-25c4.8-3.4,11.3-6.8,11.4-13.7c0-5.3-3.4-8.6-8.1-8.6
			c-6.5,0-8.6,7-8.6,12.9H44.1z"/>
	</g>
	<g class="st2">
		<path class="st3" d="M89.5,63.5c-0.4-12.8,6.7-22.6,19.7-22.6c9.9,0,18.6,6.6,18.6,17.5c0,8.4-4.3,13-9.7,17s-11.7,7.1-15.7,12.9
			h25.7V98H88.2c0.1-13,7.8-18.5,17.2-25c4.8-3.4,11.3-6.8,11.4-13.7c0-5.3-3.4-8.6-8.1-8.6c-6.5,0-8.6,7-8.6,12.9H89.5z"/>
	</g>
</g>
</svg>
