<?xml version="1.0" encoding="utf-8"?>
<!-- Generator: Adobe Illustrator 26.5.0, SVG Export Plug-In . SVG Version: 6.00 Build 0)  -->
<svg version="1.1" id="Capa_1" xmlns="http://www.w3.org/2000/svg" xmlns:xlink="http://www.w3.org/1999/xlink" x="0px" y="0px"
	 viewBox="0 0 140 140" style="enable-background:new 0 0 140 140;" xml:space="preserve">
<style type="text/css">
	.st0{fill:none;}
	.st1{fill:#E30613;}
	.st2{enable-background:new    ;}
	.st3{fill:#FFFFFF;}
</style>
<rect y="40.9" class="st0" width="140" height="58.2"/>
<g>
	<g>
		<path class="st1" d="M140,70c0-38.7-31.3-70-70-70S0,31.3,0,70s31.3,70,70,70S140,108.7,140,70"/>
	</g>
	<g class="st2">
		<path class="st3" d="M35.5,98H24.1V61.7H10v-8.6c7.9,0.2,15.2-2.6,16.4-11.1h9V98z"/>
	</g>
	<g class="st2">
		<path class="st3" d="M64,40.9c13.9,0,18.7,9.6,18.7,15c0,5.5-2.9,10-8.2,11.8v0.2c6.6,1.5,10.5,6.6,10.5,13.7
			c0,11.8-10.6,17.6-21,17.6c-10.8,0-21.3-5.4-21.3-17.5c0-7.1,4-12.2,10.6-13.8v-0.2c-5.4-1.5-8.2-6-8.2-11.5
			C45.1,46.1,54.9,40.9,64,40.9z M64.1,90.6c5.4,0,9.6-3.8,9.6-9.4c0-5.4-4.3-9-9.6-9c-5.5,0-9.9,3.1-9.9,8.9
			C54.2,86.8,58.7,90.6,64.1,90.6z M64,64.6c4.6,0,8.4-2.6,8.4-7.4c0-2.9-1.4-7.8-8.4-7.8c-4.6,0-8.6,2.8-8.6,7.8
			C55.5,62.1,59.5,64.6,64,64.6z"/>
	</g>
	<g class="st2">
		<path class="st3" d="M88.7,63.5c-0.4-12.8,6.9-22.6,20.3-22.6c10.2,0,19.2,6.6,19.2,17.5c0,8.4-4.5,13-10,17
			c-5.5,3.9-12.1,7.1-16.2,12.9h26.5V98H87.4c0.1-13,8-18.5,17.7-25c5-3.4,11.7-6.8,11.8-13.7c0-5.3-3.5-8.6-8.4-8.6
			c-6.7,0-8.9,7-8.9,12.9H88.7z"/>
	</g>
</g>
</svg>
