<?xml version="1.0" encoding="utf-8"?>
<!-- Generator: Adobe Illustrator 26.5.0, SVG Export Plug-In . SVG Version: 6.00 Build 0)  -->
<svg version="1.1" id="Capa_1" xmlns="http://www.w3.org/2000/svg" xmlns:xlink="http://www.w3.org/1999/xlink" x="0px" y="0px"
	 viewBox="0 0 140 140" style="enable-background:new 0 0 140 140;" xml:space="preserve">
<style type="text/css">
	.st0{fill:#6AB023;}
	.st1{enable-background:new    ;}
	.st2{fill:#FFFFFF;}
</style>
<g>
	<path class="st0" d="M140,70c0-38.7-31.3-70-70-70S0,31.3,0,70s31.3,70,70,70S140,108.7,140,70"/>
</g>
<g class="st1">
	<path class="st2" d="M41.2,98H27.7L10.1,40.9h12.3L34.5,81h0.2l12.2-40.2h12.3L41.2,98z"/>
</g>
<g class="st1">
	<path class="st2" d="M57.2,63.5c-0.4-12.8,6.5-22.6,19.1-22.6c9.6,0,18,6.6,18,17.5c0,8.4-4.2,13-9.4,17s-11.4,7.1-15.2,12.9h24.9
		V98H56c0.1-13,7.5-18.5,16.6-25c4.7-3.4,11-6.8,11.1-13.7c0-5.3-3.3-8.6-7.9-8.6c-6.3,0-8.3,7-8.3,12.9H57.2z"/>
</g>
<g class="st1">
	<path class="st2" d="M107.8,83.6c0.7,3.8,3.4,7,7.1,7c7.7,0,9.8-10.8,10.1-17l-0.2-0.2c-2.9,4.4-6.8,6.2-11.9,6.2
		c-4.5,0-9.1-2.2-12.1-5.8c-2.8-3.4-4.1-8.1-4.1-12.5c0-11.4,7.4-20.5,18.4-20.5c15.9,0,20.2,14.8,20.2,29
		c0,13.7-5.7,29.3-20.7,29.3c-9.1,0-15.9-5.7-17.1-15.5H107.8z M124,60.6c0-5.2-3.2-10.4-8.5-10.4c-5.1,0-8,5.2-8,10.2
		c0,5.3,2.6,10.6,8,10.6C121.2,71,124,66.2,124,60.6z"/>
</g>
</svg>
