<?xml version="1.0" encoding="utf-8"?>
<!-- Generator: Adobe Illustrator 26.5.0, SVG Export Plug-In . SVG Version: 6.00 Build 0)  -->
<svg version="1.1" id="Capa_1" xmlns="http://www.w3.org/2000/svg" xmlns:xlink="http://www.w3.org/1999/xlink" x="0px" y="0px"
	 viewBox="0 0 140 140" style="enable-background:new 0 0 140 140;" xml:space="preserve">
<style type="text/css">
	.st0{fill:#6AB023;}
	.st1{enable-background:new    ;}
	.st2{fill:#FFFFFF;}
</style>
<g>
	<path class="st0" d="M140,70c0-38.7-31.3-70-70-70S0,31.3,0,70s31.3,70,70,70S140,108.7,140,70"/>
</g>
<g class="st1">
	<path class="st2" d="M41.1,96.9H27.7L10.1,39.7h12.3l12.1,40.2h0.2l12.2-40.2h12.3L41.1,96.9z"/>
</g>
<g class="st1">
	<path class="st2" d="M70.9,64.6c4.4,0.4,10.8-0.6,10.8-7c0-4.7-3.4-7.4-7.2-7.4c-5.2,0-7.9,4.2-7.9,10h-9.8
		c0.4-11.4,7.1-19.4,17.6-19.4c8.2,0,17.1,5.5,17.1,15.5c0,5.3-2.4,10-7.1,11.4V68c5.6,1.4,9,6.5,9,12.7c0,11.8-9,18.4-18.9,18.4
		c-11.4,0-19.1-7.5-18.9-20.4h9.8c0.2,6.1,3,11,9,11c4.7,0,8.3-3.5,8.3-8.8c0-8.5-6.8-8.3-11.8-8.3V64.6z"/>
</g>
<g class="st1">
	<path class="st2" d="M111.1,63.5c4.4,0.4,10.8-0.6,10.8-7c0-4.7-3.4-7.4-7.2-7.4c-5.2,0-7.9,4.2-7.9,10h-9.8
		c0.4-11.4,7.1-19.4,17.6-19.4c8.2,0,17.1,5.5,17.1,15.5c0,5.3-2.4,10-7.1,11.4v0.2c5.6,1.4,9,6.5,9,12.7c0,11.8-9,18.4-18.9,18.4
		c-11.4,0-19.1-7.5-18.9-20.4h9.8c0.2,6.1,3,11,9,11c4.7,0,8.3-3.5,8.3-8.8c0-8.5-6.8-8.3-11.8-8.3V63.5z"/>
</g>
</svg>
