<?xml version="1.0" encoding="utf-8"?>
<!-- Generator: Adobe Illustrator 26.5.0, SVG Export Plug-In . SVG Version: 6.00 Build 0)  -->
<svg version="1.1" id="Capa_1" xmlns="http://www.w3.org/2000/svg" xmlns:xlink="http://www.w3.org/1999/xlink" x="0px" y="0px"
	 viewBox="0 0 140 140" style="enable-background:new 0 0 140 140;" xml:space="preserve">
<style type="text/css">
	.st0{fill:none;}
	.st1{fill:#003888;}
	.st2{enable-background:new    ;}
	.st3{fill:#FFFFFF;}
</style>
<rect y="40.9" class="st0" width="140" height="58.2"/>
<g>
	<g>
		<path class="st1" d="M140,70c0-38.7-31.3-70-70-70S0,31.3,0,70s31.3,70,70,70S140,108.7,140,70"/>
	</g>
	<g class="st2">
		<path class="st3" d="M14.3,40.9h10.8v21.9h19.9V40.9h10.8V98H44.9V73.4H25.1V98H14.3V40.9z"/>
	</g>
	<g class="st2">
		<path class="st3" d="M83.7,98H72.7V61.7H59.2v-8.6C66.8,53.3,73.8,50.6,75,42h8.7V98z"/>
	</g>
	<g class="st2">
		<path class="st3" d="M91.5,63.5c-0.4-12.8,6.6-22.6,19.5-22.6c9.8,0,18.4,6.6,18.4,17.5c0,8.4-4.3,13-9.6,17
			c-5.3,3.9-11.6,7.1-15.5,12.9h25.4V98H90.3c0.1-13,7.7-18.5,17-25c4.8-3.4,11.2-6.8,11.3-13.7c0-5.3-3.4-8.6-8.1-8.6
			c-6.5,0-8.5,7-8.5,12.9H91.5z"/>
	</g>
</g>
</svg>
