<svg xmlns="http://www.w3.org/2000/svg" width="64" height="64" viewBox="0 0 48 48">
    <path fill="#e1081a" d="M24 44c11.04688 0 20-8.95313 20-20 0-11.04688-8.95313-20-20-20C12.95312 4 4 12.95313 4 24c0 11.04688 8.95313 20 20 20Zm0 0"/>
    <path fill="#fff" d="M30.58203 23.05078c1.75-.88281 2.86719-2.5 2.86719-4.5 0-4.75-4.11719-5.75-7.86719-5.63281h-10.25v22.5h10.5c4.75 0 8.5-1.61719 8.5-7 0-2.61719-1.5-4.61719-3.75-5.36719Zm-9.5-5.63281h4.36719c1.25 0 2.36719.5 2.36719 2.13281s-1.3672 2.25-2.3672 2.25h-4.36718Zm4.5 13.38281h-4.63281v-5.25h4.63281c1.75 0 3.13281.63281 3.13281 2.75 0 1.86719-1.3828 2.5-3.1328 2.5Zm0 0"/>
</svg>
