<?xml version="1.0" encoding="utf-8"?>
<!-- Generator: Adobe Illustrator 26.5.0, SVG Export Plug-In . SVG Version: 6.00 Build 0)  -->
<svg version="1.1" id="Capa_1" xmlns="http://www.w3.org/2000/svg" xmlns:xlink="http://www.w3.org/1999/xlink" x="0px" y="0px"
	 viewBox="0 0 140 140" style="enable-background:new 0 0 140 140;" xml:space="preserve">
<style type="text/css">
	.st0{fill:#6AB023;}
	.st1{enable-background:new    ;}
	.st2{fill:#FFFFFF;}
</style>
<g>
	<path class="st0" d="M140,70c0-38.7-31.3-70-70-70S0,31.3,0,70s31.3,70,70,70S140,108.7,140,70"/>
</g>
<g class="st1">
	<path class="st2" d="M43.4,98H29.8L12,40.9h12.4L36.7,81h0.2l12.4-40.2h12.4L43.4,98z"/>
</g>
<g class="st1">
	<path class="st2" d="M85.9,98H75V61.7H61.5v-8.6c7.6,0.2,14.6-2.6,15.7-11.1h8.7V98z"/>
</g>
<g class="st1">
	<path class="st2" d="M128.9,51.8C117.6,62,111.4,83,111.3,98H99.6c1.2-16.6,7.8-32.6,18-45.4H92.2V42h36.7V51.8z"/>
</g>
</svg>
