<?xml version="1.0" encoding="utf-8"?>
<!-- Generator: Adobe Illustrator 26.5.0, SVG Export Plug-In . SVG Version: 6.00 Build 0)  -->
<svg version="1.1" id="Capa_1" xmlns="http://www.w3.org/2000/svg" xmlns:xlink="http://www.w3.org/1999/xlink" x="0px" y="0px"
	 viewBox="0 0 140 140" style="enable-background:new 0 0 140 140;" xml:space="preserve">
<style type="text/css">
	.st0{fill:none;}
	.st1{fill:#E30613;}
	.st2{enable-background:new    ;}
	.st3{fill:#FFFFFF;}
</style>
<rect y="40.9" class="st0" width="140" height="58.2"/>
<g>
	<g>
		<path class="st1" d="M140,70c0-38.7-31.3-70-70-70S0,31.3,0,70s31.3,70,70,70S140,108.7,140,70"/>
	</g>
	<g class="st2">
		<path class="st3" d="M34.7,98H23.3V61.7H9.2v-8.6c7.9,0.2,15.2-2.6,16.4-11.1h9V98z"/>
	</g>
	<g class="st2">
		<path class="st3" d="M63.2,40.9c13.9,0,18.7,9.6,18.7,15c0,5.5-2.9,10-8.2,11.8v0.2c6.6,1.5,10.5,6.6,10.5,13.7
			c0,11.8-10.6,17.6-21,17.6C52.5,99.1,42,93.7,42,81.6c0-7.1,4-12.2,10.6-13.8v-0.2c-5.4-1.5-8.2-6-8.2-11.5
			C44.3,46.1,54.1,40.9,63.2,40.9z M63.3,90.6c5.4,0,9.6-3.8,9.6-9.4c0-5.4-4.3-9-9.6-9c-5.5,0-9.9,3.1-9.9,8.9
			C53.4,86.8,57.9,90.6,63.3,90.6z M63.2,64.6c4.6,0,8.4-2.6,8.4-7.4c0-2.9-1.4-7.8-8.4-7.8c-4.6,0-8.6,2.8-8.6,7.8
			C54.7,62.1,58.7,64.6,63.2,64.6z"/>
	</g>
	<g class="st2">
		<path class="st3" d="M126.5,51.4h-23.1l-2.2,12.7l0.2,0.2c3-3.1,6.6-4.3,11-4.3c11,0,17.3,8.6,17.3,19c0,11.5-9.5,20.4-20.8,20.2
			c-10.9,0-20.6-6-20.8-17.8h11.4c0.6,5,4.2,8.4,9.2,8.4c5.9,0,9.7-5.2,9.7-10.8c0-5.8-3.6-10.5-9.7-10.5c-4.1,0-6.3,1.4-8.6,4.5
			H89.7l5.5-31h31.3V51.4z"/>
	</g>
</g>
</svg>
