<?xml version="1.0" encoding="utf-8"?>
<!-- Generator: Adobe Illustrator 26.5.0, SVG Export Plug-In . SVG Version: 6.00 Build 0)  -->
<svg version="1.1" id="Capa_1" xmlns="http://www.w3.org/2000/svg" xmlns:xlink="http://www.w3.org/1999/xlink" x="0px" y="0px"
	 viewBox="0 0 140 140" style="enable-background:new 0 0 140 140;" xml:space="preserve">
<style type="text/css">
	.st0{fill:#6AB023;}
	.st1{enable-background:new    ;}
	.st2{fill:#FFFFFF;}
</style>
<g>
	<path class="st0" d="M140,70c0-38.7-31.3-70-70-70S0,31.3,0,70s31.3,70,70,70S140,108.7,140,70"/>
</g>
<g class="st1">
	<path class="st2" d="M40.2,98H26.8L9.2,40.9h12.3L33.6,81h0.2l12.2-40.2h12.3L40.2,98z"/>
</g>
<g class="st1">
	<path class="st2" d="M55.6,63.5C55.3,50.7,62,40.9,74.5,40.9c9.5,0,17.9,6.6,17.9,17.5c0,8.4-4.2,13-9.3,17
		c-5.1,3.9-11.2,7.1-15,12.9h24.6V98H54.5c0.1-13,7.4-18.5,16.4-25c4.6-3.4,10.9-6.8,10.9-13.7c0-5.3-3.3-8.6-7.8-8.6
		c-6.2,0-8.3,7-8.3,12.9H55.6z"/>
</g>
<g class="st1">
	<path class="st2" d="M129.9,51.4h-21.5l-2.1,12.7l0.1,0.2c2.8-3.1,6.1-4.3,10.2-4.3c10.3,0,16.1,8.6,16.1,19
		c0,11.5-8.9,20.4-19.3,20.2c-10.1,0-19.2-6-19.3-17.8h10.6c0.5,5,3.9,8.4,8.6,8.4c5.5,0,9-5.2,9-10.8c0-5.8-3.3-10.5-9-10.5
		c-3.8,0-5.9,1.4-8,4.5h-9.5l5.1-31h29.1V51.4z"/>
</g>
</svg>
