<svg width="24" height="24" viewBox="0 0 24 24" fill="none" xmlns="http://www.w3.org/2000/svg">
<path d="M12 22C17.5228 22 22 17.5228 22 12C22 6.47715 17.5228 2 12 2C6.47715 2 2 6.47715 2 12C2 17.5228 6.47715 22 12 22Z" fill="#E1081A"/>
<path d="M15.2917 11.525C16.1667 11.0833 16.725 10.275 16.725 9.275C16.725 6.9 14.6667 6.4 12.7917 6.45833H7.66667V17.7083H12.9167C15.2917 17.7083 17.1667 16.9 17.1667 14.2083C17.1667 12.9 16.4167 11.9 15.2917 11.525ZM10.5417 8.70833H12.725C13.35 8.70833 13.9083 8.95833 13.9083 9.775C13.9083 10.5917 13.225 10.9 12.725 10.9H10.5417V8.70833ZM12.7917 15.4H10.475V12.775H12.7917C13.6667 12.775 14.3583 13.0917 14.3583 14.15C14.3583 15.0833 13.6667 15.4 12.7917 15.4Z" fill="white"/>
</svg>
