<?xml version="1.0" encoding="utf-8"?>
<!-- Generator: Adobe Illustrator 26.5.0, SVG Export Plug-In . SVG Version: 6.00 Build 0)  -->
<svg version="1.1" id="Capa_1" xmlns="http://www.w3.org/2000/svg" xmlns:xlink="http://www.w3.org/1999/xlink" x="0px" y="0px"
	 viewBox="0 0 140 140" style="enable-background:new 0 0 140 140;" xml:space="preserve">
<style type="text/css">
	.st0{fill:none;}
	.st1{fill:#E30613;}
	.st2{enable-background:new    ;}
	.st3{fill:#FFFFFF;}
</style>
<rect y="40.9" class="st0" width="140" height="58.2"/>
<g>
	<g>
		<path class="st1" d="M140,70c0-38.7-31.3-70-70-70S0,31.3,0,70s31.3,70,70,70S140,108.7,140,70"/>
	</g>
	<g class="st2">
		<path class="st3" d="M36.6,98H25.2V61.7H11.1v-8.6C19,53.3,26.3,50.6,27.5,42h9V98z"/>
	</g>
	<g class="st2">
		<path class="st3" d="M82.8,51.4H59.7l-2.2,12.7l0.2,0.2c3-3.1,6.6-4.3,11-4.3c11,0,17.3,8.6,17.3,19c0,11.5-9.5,20.4-20.8,20.2
			c-10.9,0-20.6-6-20.8-17.8h11.4c0.6,5,4.2,8.4,9.2,8.4c5.9,0,9.7-5.2,9.7-10.8c0-5.8-3.6-10.5-9.7-10.5c-4.1,0-6.3,1.4-8.6,4.5H46
			l5.5-31h31.3V51.4z"/>
	</g>
	<g class="st2">
		<path class="st3" d="M128.2,51.8C116.4,62,110,83,109.8,98H97.7c1.3-16.6,8.2-32.6,18.8-45.4H89.9V42h38.2V51.8z"/>
	</g>
</g>
</svg>
