<?xml version="1.0" encoding="utf-8"?>
<!-- Generator: Adobe Illustrator 26.5.0, SVG Export Plug-In . SVG Version: 6.00 Build 0)  -->
<svg version="1.1" id="Capa_1" xmlns="http://www.w3.org/2000/svg" xmlns:xlink="http://www.w3.org/1999/xlink" x="0px" y="0px"
	 viewBox="0 0 140 140" style="enable-background:new 0 0 140 140;" xml:space="preserve">
<style type="text/css">
	.st0{fill:#6AB023;}
	.st1{enable-background:new    ;}
	.st2{fill:#FFFFFF;}
</style>
<g>
	<path class="st0" d="M140,70c0-38.7-31.3-70-70-70S0,31.3,0,70s31.3,70,70,70S140,108.7,140,70"/>
</g>
<g class="st1">
	<path class="st2" d="M43.8,98H30.2L12.4,40.9h12.4L37.1,81h0.2l12.4-40.2H62L43.8,98z"/>
</g>
<g class="st1">
	<path class="st2" d="M86.6,98H75.7V61.7H62.2v-8.6C69.8,53.3,76.8,50.6,78,42h8.7V98z"/>
</g>
<g class="st1">
	<path class="st2" d="M128.9,51.4h-22.2l-2.2,12.7l0.2,0.2c2.9-3.1,6.3-4.3,10.5-4.3c10.6,0,16.6,8.6,16.6,19
		c0,11.5-9.1,20.4-20,20.2c-10.4,0-19.8-6-20-17.8h10.9c0.5,5,4.1,8.4,8.8,8.4c5.7,0,9.3-5.2,9.3-10.8c0-5.8-3.5-10.5-9.3-10.5
		c-3.9,0-6.1,1.4-8.2,4.5h-9.8l5.3-31h30V51.4z"/>
</g>
</svg>
