<?xml version="1.0" encoding="utf-8"?>
<!-- Generator: Adobe Illustrator 26.5.0, SVG Export Plug-In . SVG Version: 6.00 Build 0)  -->
<svg version="1.1" id="Capa_1" xmlns="http://www.w3.org/2000/svg" xmlns:xlink="http://www.w3.org/1999/xlink" x="0px" y="0px"
	 viewBox="0 0 140 140" style="enable-background:new 0 0 140 140;" xml:space="preserve">
<style type="text/css">
	.st0{fill:none;}
	.st1{fill:#003888;}
	.st2{enable-background:new    ;}
	.st3{fill:#FFFFFF;}
</style>
<rect y="40.9" class="st0" width="140" height="58.2"/>
<g>
	<g>
		<path class="st1" d="M140,70c0-38.7-31.3-70-70-70S0,31.3,0,70s31.3,70,70,70S140,108.7,140,70"/>
	</g>
	<g class="st2">
		<path class="st3" d="M26.5,40.9h10.8v21.9h19.9V40.9H68V98H57.2V73.4H37.3V98H26.5V40.9z"/>
	</g>
	<g class="st2">
		<path class="st3" d="M76.7,63.5C76.3,50.7,83.6,40.9,97,40.9c10.2,0,19.2,6.6,19.2,17.5c0,8.4-4.5,13-10,17s-12.1,7.1-16.2,12.9
			h26.5V98H75.4c0.1-13,8-18.5,17.7-25c5-3.4,11.7-6.8,11.8-13.7c0-5.3-3.5-8.6-8.4-8.6c-6.7,0-8.9,7-8.9,12.9H76.7z"/>
	</g>
</g>
</svg>
