<?xml version="1.0" encoding="utf-8"?>
<!-- Generator: Adobe Illustrator 26.5.0, SVG Export Plug-In . SVG Version: 6.00 Build 0)  -->
<svg version="1.1" id="Capa_1" xmlns="http://www.w3.org/2000/svg" xmlns:xlink="http://www.w3.org/1999/xlink" x="0px" y="0px"
	 viewBox="0 0 140 140" style="enable-background:new 0 0 140 140;" xml:space="preserve">
<style type="text/css">
	.st0{enable-background:new    ;}
	.st1{fill:#FFFFFF;}
</style>
<g>
	<path d="M140,70c0-38.7-31.3-70-70-70S0,31.3,0,70s31.3,70,70,70S140,108.7,140,70"/>
</g>
<g>
	<g class="st0">
		<path class="st1" d="M44.3,67.9l-13.1-27h13.4l7.9,18.9l14.3-18.9h14.6L58.2,68.5L72.1,98H58.5l-8.8-20.4L33.8,98H18.9L44.3,67.9z
			"/>
	</g>
	<g class="st0">
		<path class="st1" d="M99.3,98H87.5L95,61.7H81.6l1.8-8.6c8.2-0.4,14.4-2.4,18.4-11.1h9.1L99.3,98z"/>
	</g>
</g>
</svg>
