<?xml version="1.0" encoding="utf-8"?>
<!-- Generator: Adobe Illustrator 26.5.0, SVG Export Plug-In . SVG Version: 6.00 Build 0)  -->
<svg version="1.1" id="Capa_1" xmlns="http://www.w3.org/2000/svg" xmlns:xlink="http://www.w3.org/1999/xlink" x="0px" y="0px"
	 viewBox="0 0 140 140" style="enable-background:new 0 0 140 140;" xml:space="preserve">
<style type="text/css">
	.st0{fill:none;}
	.st1{fill:#E30613;}
	.st2{enable-background:new    ;}
	.st3{fill:#FFFFFF;}
</style>
<rect y="40.9" class="st0" width="140" height="58.2"/>
<g>
	<g>
		<path class="st1" d="M140,70c0-38.7-31.3-70-70-70S0,31.3,0,70s31.3,70,70,70S140,108.7,140,70"/>
	</g>
	<g class="st2">
		<path class="st3" d="M36.3,98H25V61.7H10.9v-8.6c7.9,0.2,15.2-2.6,16.4-11.1h9V98z"/>
	</g>
	<g class="st2">
		<path class="st3" d="M44.6,63.5c-0.4-12.8,6.7-22.6,19.9-22.6c10,0,18.8,6.6,18.8,17.5c0,8.4-4.4,13-9.8,17
			c-5.4,3.9-11.8,7.1-15.8,12.9h26V98H43.3c0.1-13,7.8-18.5,17.3-25c4.9-3.4,11.4-6.8,11.5-13.7c0-5.3-3.4-8.6-8.2-8.6
			c-6.6,0-8.7,7-8.7,12.9H44.6z"/>
	</g>
	<g class="st2">
		<path class="st3" d="M99.7,83.6c0.7,3.8,3.5,7,7.3,7c8,0,10.1-10.8,10.4-17l-0.2-0.2c-3,4.4-7,6.2-12.3,6.2
			c-4.7,0-9.4-2.2-12.5-5.8c-2.9-3.4-4.2-8.1-4.2-12.5c0-11.4,7.7-20.5,19-20.5c16.5,0,20.9,14.8,20.9,29c0,13.7-5.9,29.3-21.3,29.3
			c-9.4,0-16.4-5.7-17.6-15.5H99.7z M116.4,60.6c0-5.2-3.3-10.4-8.8-10.4c-5.3,0-8.3,5.2-8.3,10.2c0,5.3,2.6,10.6,8.3,10.6
			C113.5,71,116.4,66.2,116.4,60.6z"/>
	</g>
</g>
</svg>
