<?xml version="1.0" encoding="utf-8"?>
<!-- Generator: Adobe Illustrator 26.5.0, SVG Export Plug-In . SVG Version: 6.00 Build 0)  -->
<svg version="1.1" id="Capa_1" xmlns="http://www.w3.org/2000/svg" xmlns:xlink="http://www.w3.org/1999/xlink" x="0px" y="0px"
	 viewBox="0 0 140 140" style="enable-background:new 0 0 140 140;" xml:space="preserve">
<style type="text/css">
	.st0{fill:#6AB023;}
	.st1{enable-background:new    ;}
	.st2{fill:#FFFFFF;}
</style>
<g>
	<path class="st0" d="M140,70c0-38.7-31.3-70-70-70S0,31.3,0,70s31.3,70,70,70S140,108.7,140,70"/>
</g>
<g class="st1">
	<path class="st2" d="M40.9,98H27.5L9.8,40.9h12.3L34.2,81h0.2l12.2-40.2h12.3L40.9,98z"/>
</g>
<g class="st1">
	<path class="st2" d="M56.3,63.5C56,50.7,62.7,40.9,75.2,40.9c9.5,0,17.9,6.6,17.9,17.5c0,8.4-4.2,13-9.3,17s-11.2,7.1-15,12.9h24.6
		V98H55.1c0.1-13,7.4-18.5,16.4-25c4.6-3.4,10.9-6.8,10.9-13.7c0-5.3-3.3-8.6-7.8-8.6c-6.2,0-8.3,7-8.3,12.9H56.3z"/>
</g>
<g class="st1">
	<path class="st2" d="M130.5,51.8C119.6,62,113.6,83,113.5,98h-11.3c1.2-16.6,7.6-32.6,17.5-45.4H94.9V42h35.6V51.8z"/>
</g>
</svg>
