<?xml version="1.0" encoding="utf-8"?>
<!-- Generator: Adobe Illustrator 26.5.0, SVG Export Plug-In . SVG Version: 6.00 Build 0)  -->
<svg version="1.1" id="Capa_1" xmlns="http://www.w3.org/2000/svg" xmlns:xlink="http://www.w3.org/1999/xlink" x="0px" y="0px"
	 viewBox="0 0 140 140" style="enable-background:new 0 0 140 140;" xml:space="preserve">
<style type="text/css">
	.st0{fill:none;}
	.st1{fill:#E30613;}
	.st2{enable-background:new    ;}
	.st3{fill:#FFFFFF;}
</style>
<rect y="40.9" class="st0" width="140" height="58.2"/>
<g>
	<g>
		<path class="st1" d="M140,70c0-38.7-31.3-70-70-70S0,31.3,0,70s31.3,70,70,70S140,108.7,140,70"/>
	</g>
	<g class="st2">
		<path class="st3" d="M40.8,98H29.4V61.7H15.3v-8.6c7.9,0.2,15.2-2.6,16.4-11.1h9V98z"/>
	</g>
	<g class="st2">
		<path class="st3" d="M74.3,98H62.9V61.7H48.8v-8.6C56.7,53.3,64,50.6,65.2,42h9V98z"/>
	</g>
	<g class="st2">
		<path class="st3" d="M103.8,40.9c13.9,0,18.7,9.6,18.7,15c0,5.5-2.9,10-8.2,11.8v0.2c6.6,1.5,10.5,6.6,10.5,13.7
			c0,11.8-10.6,17.6-21,17.6c-10.8,0-21.3-5.4-21.3-17.5c0-7.1,4-12.2,10.6-13.8v-0.2c-5.4-1.5-8.2-6-8.2-11.5
			C84.9,46.1,94.7,40.9,103.8,40.9z M103.9,90.6c5.4,0,9.6-3.8,9.6-9.4c0-5.4-4.3-9-9.6-9c-5.5,0-9.9,3.1-9.9,8.9
			C94,86.8,98.5,90.6,103.9,90.6z M103.8,64.6c4.6,0,8.4-2.6,8.4-7.4c0-2.9-1.4-7.8-8.4-7.8c-4.6,0-8.6,2.8-8.6,7.8
			C95.3,62.1,99.3,64.6,103.8,64.6z"/>
	</g>
</g>
</svg>
