<?xml version="1.0" encoding="utf-8"?>
<!-- Generator: Adobe Illustrator 26.5.0, SVG Export Plug-In . SVG Version: 6.00 Build 0)  -->
<svg version="1.1" id="Capa_1" xmlns="http://www.w3.org/2000/svg" xmlns:xlink="http://www.w3.org/1999/xlink" x="0px" y="0px"
	 viewBox="0 0 140 140" style="enable-background:new 0 0 140 140;" xml:space="preserve">
<style type="text/css">
	.st0{fill:none;}
	.st1{fill:#E30613;}
	.st2{enable-background:new    ;}
	.st3{fill:#FFFFFF;}
</style>
<rect y="40.9" class="st0" width="140" height="58.2"/>
<g>
	<g>
		<path class="st1" d="M140,70c0-38.7-31.3-70-70-70S0,31.3,0,70s31.3,70,70,70S140,108.7,140,70"/>
	</g>
	<g class="st2">
		<path class="st3" d="M40.8,98H29.4V61.7H15.3v-8.6c7.9,0.2,15.2-2.6,16.4-11.1h9V98z"/>
	</g>
	<g class="st2">
		<path class="st3" d="M74.3,98H62.9V61.7H48.8v-8.6C56.7,53.3,64,50.6,65.2,42h9V98z"/>
	</g>
	<g class="st2">
		<path class="st3" d="M106.5,85H82.8V74.6L107.1,42h10.2v33.7h7.4V85h-7.4v13h-10.8V85z M106.5,56.2h-0.2L91.7,75.7h14.7V56.2z"/>
	</g>
</g>
</svg>
