<?xml version="1.0" encoding="utf-8"?>
<!-- Generator: Adobe Illustrator 26.5.0, SVG Export Plug-In . SVG Version: 6.00 Build 0)  -->
<svg version="1.1" id="Capa_1" xmlns="http://www.w3.org/2000/svg" xmlns:xlink="http://www.w3.org/1999/xlink" x="0px" y="0px"
	 viewBox="0 0 140 140" style="enable-background:new 0 0 140 140;" xml:space="preserve">
<style type="text/css">
	.st0{fill:none;}
	.st1{fill:#E30613;}
	.st2{enable-background:new    ;}
	.st3{fill:#FFFFFF;}
</style>
<rect y="40.9" class="st0" width="140" height="58.2"/>
<g>
	<g>
		<path class="st1" d="M140,70c0-38.7-31.3-70-70-70S0,31.3,0,70s31.3,70,70,70S140,108.7,140,70"/>
	</g>
	<g class="st2">
		<path class="st3" d="M69.2,51.8C57.4,62,51,83,50.9,98H38.7c1.3-16.6,8.2-32.6,18.8-45.4H31V42h38.2V51.8z"/>
		<path class="st3" d="M92.6,40.9c13.9,0,18.7,9.6,18.7,15c0,5.5-2.9,10-8.2,11.8v0.2c6.6,1.5,10.5,6.6,10.5,13.7
			c0,11.8-10.6,17.6-21,17.6c-10.8,0-21.3-5.4-21.3-17.5c0-7.1,4-12.2,10.6-13.8v-0.2c-5.4-1.5-8.2-6-8.2-11.5
			C73.8,46.1,83.5,40.9,92.6,40.9z M92.7,90.6c5.4,0,9.6-3.8,9.6-9.4c0-5.4-4.3-9-9.6-9c-5.5,0-9.9,3.1-9.9,8.9
			C82.8,86.8,87.3,90.6,92.7,90.6z M92.6,64.6c4.6,0,8.4-2.6,8.4-7.4c0-2.9-1.4-7.8-8.4-7.8c-4.6,0-8.6,2.8-8.6,7.8
			C84.1,62.1,88.1,64.6,92.6,64.6z"/>
	</g>
</g>
</svg>
