<?xml version="1.0" encoding="utf-8"?>
<!-- Generator: Adobe Illustrator 26.5.0, SVG Export Plug-In . SVG Version: 6.00 Build 0)  -->
<svg version="1.1" id="Capa_1" xmlns="http://www.w3.org/2000/svg" xmlns:xlink="http://www.w3.org/1999/xlink" x="0px" y="0px"
	 viewBox="0 0 140 140" style="enable-background:new 0 0 140 140;" xml:space="preserve">
<style type="text/css">
	.st0{fill:none;}
	.st1{fill:#E30613;}
	.st2{enable-background:new    ;}
	.st3{fill:#FFFFFF;}
</style>
<rect y="40.9" class="st0" width="140" height="58.2"/>
<g>
	<g>
		<path class="st1" d="M140,70c0-38.7-31.3-70-70-70S0,31.3,0,70s31.3,70,70,70S140,108.7,140,70"/>
	</g>
	<g class="st2">
		<path class="st3" d="M36.3,98H24.9V61.7H10.8v-8.6C18.8,53.3,26,50.6,27.2,42h9V98z"/>
	</g>
	<g class="st2">
		<path class="st3" d="M59.1,64.6c4.7,0.4,11.4-0.6,11.4-7c0-4.7-3.6-7.4-7.6-7.4c-5.5,0-8.4,4.2-8.3,10H44.3
			c0.4-11.4,7.5-19.4,18.6-19.4c8.6,0,18,5.5,18,15.5c0,5.3-2.5,10-7.5,11.4V68c5.9,1.4,9.5,6.5,9.5,12.7c0,11.8-9.4,18.4-20,18.4
			c-12.1,0-20.2-7.5-20-20.4h10.4c0.2,6.1,3.1,11,9.4,11c4.9,0,8.8-3.5,8.8-8.8c0-8.5-7.1-8.3-12.4-8.3V64.6z"/>
	</g>
	<g class="st2">
		<path class="st3" d="M88.2,63.5c-0.4-12.8,6.6-22.6,19.5-22.6c9.8,0,18.4,6.6,18.4,17.5c0,8.4-4.3,13-9.6,17s-11.6,7.1-15.5,12.9
			h25.4V98H86.9c0.1-13,7.7-18.5,17-25c4.8-3.4,11.2-6.8,11.3-13.7c0-5.3-3.4-8.6-8.1-8.6c-6.5,0-8.5,7-8.5,12.9H88.2z"/>
	</g>
</g>
</svg>
