<?xml version="1.0" encoding="utf-8"?>
<!-- Generator: Adobe Illustrator 26.5.0, SVG Export Plug-In . SVG Version: 6.00 Build 0)  -->
<svg version="1.1" id="Capa_1" xmlns="http://www.w3.org/2000/svg" xmlns:xlink="http://www.w3.org/1999/xlink" x="0px" y="0px"
	 viewBox="0 0 140 140" style="enable-background:new 0 0 140 140;" xml:space="preserve">
<style type="text/css">
	.st0{fill:none;}
	.st1{fill:#E30613;}
	.st2{enable-background:new    ;}
	.st3{fill:#FFFFFF;}
</style>
<rect y="40.9" class="st0" width="140" height="58.2"/>
<g>
	<g>
		<path class="st1" d="M140,70c0-38.7-31.3-70-70-70S0,31.3,0,70s31.3,70,70,70S140,108.7,140,70"/>
	</g>
	<g class="st2">
		<path class="st3" d="M66.2,51.4H43.1l-2.2,12.7l0.2,0.2c3-3.1,6.6-4.3,11-4.3c11,0,17.3,8.6,17.3,19c0,11.5-9.5,20.4-20.8,20.2
			c-10.9,0-20.6-6-20.8-17.8H39c0.6,5,4.2,8.4,9.2,8.4c5.9,0,9.7-5.2,9.7-10.8c0-5.8-3.6-10.5-9.7-10.5c-4.1,0-6.3,1.4-8.6,4.5H29.4
			L35,42h31.3V51.4z"/>
	</g>
	<g class="st2">
		<path class="st3" d="M73.9,63.5c-0.4-12.8,6.9-22.6,20.3-22.6c10.2,0,19.2,6.6,19.2,17.5c0,8.4-4.5,13-10,17s-12.1,7.1-16.2,12.9
			h26.5V98H72.6c0.1-13,8-18.5,17.7-25c5-3.4,11.7-6.8,11.8-13.7c0-5.3-3.5-8.6-8.4-8.6c-6.7,0-8.9,7-8.9,12.9H73.9z"/>
	</g>
</g>
</svg>
