<?xml version="1.0" encoding="utf-8"?>
<!-- Generator: Adobe Illustrator 26.5.0, SVG Export Plug-In . SVG Version: 6.00 Build 0)  -->
<svg version="1.1" id="Capa_1" xmlns="http://www.w3.org/2000/svg" xmlns:xlink="http://www.w3.org/1999/xlink" x="0px" y="0px"
	 viewBox="0 0 140 140" style="enable-background:new 0 0 140 140;" xml:space="preserve">
<style type="text/css">
	.st0{fill:none;}
	.st1{fill:#E30613;}
	.st2{enable-background:new    ;}
	.st3{fill:#FFFFFF;}
</style>
<rect y="40.9" class="st0" width="140" height="58.2"/>
<g>
	<g>
		<path class="st1" d="M140,70c0-38.7-31.3-70-70-70S0,31.3,0,70s31.3,70,70,70S140,108.7,140,70"/>
	</g>
	<g class="st2">
		<path class="st3" d="M35.2,98H23.9V61.7H9.8v-8.6C17.7,53.3,25,50.6,26.2,42h9V98z"/>
	</g>
	<g class="st2">
		<path class="st3" d="M64.3,40.9c11.2,0,20.6,7,20.6,28.9c0,22.3-9.4,29.4-20.6,29.4c-11,0-20.5-7-20.5-29.4
			C43.9,47.9,53.3,40.9,64.3,40.9z M64.3,89.8c9.3,0,9.3-13.7,9.3-20c0-5.8,0-19.5-9.3-19.5c-9.1,0-9.1,13.7-9.1,19.5
			C55.2,76.1,55.2,89.8,64.3,89.8z"/>
	</g>
	<g class="st2">
		<path class="st3" d="M88.2,63.5c-0.4-12.8,6.7-22.6,19.7-22.6c9.9,0,18.6,6.6,18.6,17.5c0,8.4-4.3,13-9.7,17s-11.7,7.1-15.7,12.9
			h25.7V98H86.9c0.1-13,7.8-18.5,17.2-25c4.8-3.4,11.3-6.8,11.4-13.7c0-5.3-3.4-8.6-8.1-8.6c-6.5,0-8.6,7-8.6,12.9H88.2z"/>
	</g>
</g>
</svg>
