<svg width="168" height="33" viewBox="0 0 168 33" fill="none" xmlns="http://www.w3.org/2000/svg">
<path d="M131.816 6.62715C132.726 6.63032 133.668 6.72442 134.611 6.82856C135.788 6.95861 136.958 7.1394 138.124 7.3498C140.305 7.7431 142.465 8.22786 144.588 8.87174C145.331 9.09746 146.069 9.34381 146.807 9.58698C147.193 9.71385 147.562 9.88248 147.927 10.0606C149.741 10.9466 151.534 12.799 152.05 15.5257C152.694 18.9375 150.994 22.206 148.155 23.7454C147.694 23.9954 147.211 24.2 146.715 24.3713C145.26 24.8725 143.784 25.3049 142.292 25.6818C141.111 25.9799 139.922 26.2411 138.726 26.4668C137.246 26.7465 135.758 26.9711 134.26 27.1271C133.35 27.2217 132.441 27.3068 131.527 27.3116C130.332 27.3174 129.169 27.1329 128.039 26.7406C126.645 26.2569 125.408 25.51 124.333 24.504C122.689 22.9651 121.673 21.0763 121.23 18.8772C121.103 18.246 121.066 17.6053 121.067 16.963C121.071 14.5662 121.804 12.4141 123.302 10.5396C124.916 8.51966 127.016 7.27949 129.554 6.77887C130.287 6.63402 131.031 6.60654 131.816 6.62715ZM131.923 22.5782C131.923 22.5813 131.923 22.585 131.923 22.5882C132.328 22.5655 132.734 22.5539 133.139 22.5163C133.644 22.4698 134.147 22.4016 134.651 22.3445C135.794 22.215 136.927 22.0141 138.057 21.7995C138.804 21.6573 139.546 21.485 140.289 21.3179C141.94 20.9458 143.564 20.4784 145.161 19.9202C145.368 19.8478 145.574 19.7674 145.771 19.6723C146.813 19.1695 147.738 17.9442 147.375 16.2795C147.178 15.3755 146.639 14.6957 145.805 14.2723C145.55 14.1428 145.278 14.0434 145.007 13.9487C143.953 13.5808 142.883 13.2615 141.804 12.9798C140.921 12.7493 140.033 12.5352 139.14 12.3449C138.264 12.1583 137.38 12.0034 136.498 11.8479C135.948 11.7512 135.395 11.6746 134.842 11.5984C134.155 11.5038 133.465 11.434 132.772 11.3822C132.316 11.3484 131.861 11.3114 131.404 11.3193C130.221 11.3394 129.134 11.6698 128.172 12.3618C126.727 13.4011 125.935 14.8215 125.791 16.5866C125.701 17.6904 125.956 18.7324 126.493 19.7024C127.451 21.4295 129.29 22.5047 131.059 22.5766C131.346 22.5882 131.635 22.5782 131.923 22.5782Z" fill="#018AFF"/>
<path d="M105.958 16.9802C105.958 19.8998 105.958 22.8189 105.958 25.7386C105.958 25.8903 105.958 26.0426 105.953 26.1943C105.951 26.3037 105.876 26.3703 105.755 26.3751C105.688 26.3777 105.62 26.3782 105.552 26.3782C104.249 26.3782 102.947 26.3782 101.644 26.3782C101.559 26.3782 101.475 26.3761 101.391 26.3719C101.306 26.3677 101.235 26.2952 101.233 26.2054C101.229 25.9352 101.231 25.6656 101.226 25.3955C101.224 25.312 101.216 25.2274 101.199 25.146C101.195 25.1259 101.137 25.0942 101.122 25.1021C101.063 25.1328 101.01 25.1756 100.958 25.2174C100.775 25.3664 100.599 25.5266 100.409 25.6662C99.6288 26.2387 98.7456 26.5585 97.7935 26.6959C96.8494 26.8323 95.9037 26.8212 94.9607 26.6875C94.1372 26.5707 93.3365 26.3587 92.5713 26.0309C89.5548 24.7384 87.6539 22.4811 86.8072 19.3358C86.4743 18.0988 86.4479 16.8353 86.6315 15.5687C86.9337 13.4806 87.8439 11.6833 89.2924 10.1618C90.6085 8.77893 92.2205 7.89294 94.0806 7.45946C95.0088 7.24325 95.9503 7.16977 96.9029 7.22633C97.9369 7.28818 98.8911 7.60166 99.7807 8.12131C100.176 8.35232 100.543 8.62193 100.89 8.92008C100.954 8.97453 101.025 9.01999 101.094 9.06862C101.123 9.08924 101.207 9.04378 101.208 9.00572C101.215 8.82069 101.223 8.6362 101.228 8.45118C101.233 8.19849 101.235 7.94527 101.241 7.69259C101.243 7.63127 101.312 7.56677 101.374 7.56254C101.441 7.55779 101.509 7.55303 101.576 7.55303C102.913 7.5525 104.249 7.5525 105.586 7.55303C105.67 7.55303 105.756 7.55408 105.837 7.57312C105.878 7.58263 105.934 7.63074 105.938 7.66668C105.955 7.7999 105.958 7.93523 105.958 8.07003C105.959 9.33558 105.958 10.6011 105.958 11.8667C105.958 13.571 105.958 15.2759 105.958 16.9802ZM101.231 16.9897C101.232 16.4288 101.16 15.8806 100.987 15.3446C100.336 13.3247 98.3248 11.568 95.5275 11.9465C94.5654 12.0766 93.7112 12.4788 92.9857 13.1238C91.5902 14.364 91.0488 15.9266 91.261 17.7647C91.5261 19.2306 92.2475 20.4068 93.4937 21.2452C94.5839 21.9789 95.7937 22.2115 97.0786 22.0191C98.0391 21.8753 98.8816 21.4498 99.5886 20.7811C100.677 19.7529 101.218 18.4836 101.231 16.9897Z" fill="#018AFF"/>
<path d="M34.7689 17.0117C34.7895 22.2684 30.4982 26.8189 24.8865 26.7946C19.3965 26.7708 15.0972 22.271 15.1152 16.9472C15.1327 11.7782 19.3245 7.16583 24.977 7.18856C30.6358 7.21129 34.8112 11.8268 34.7689 17.0117ZM24.9442 11.8971C22.3182 11.8501 19.8426 14.0227 19.8299 16.9773C19.8183 19.6818 21.9986 22.0617 24.9204 22.0876C27.6505 22.1119 30.06 19.9207 30.0584 16.9757C30.0568 14.0323 27.6114 11.8601 24.9442 11.8971Z" fill="#018AFF"/>
<path d="M56.2228 16.9973C56.2673 22.2821 51.931 26.7971 46.4119 26.7955C40.8282 26.794 36.5565 22.2424 36.5745 16.9614C36.5919 11.7564 40.7796 7.18267 46.4235 7.18848C52.0998 7.1943 56.2853 11.8542 56.2228 16.9973ZM46.3992 22.0865C49.2336 22.1081 51.5166 19.7673 51.5208 17.0089C51.5251 14.0702 49.0637 11.897 46.4352 11.887C43.8008 11.8769 41.2786 13.9809 41.2913 16.9973C41.304 20.0195 43.7807 22.1129 46.3992 22.0865Z" fill="#018AFF"/>
<path d="M160.2 16.8538C160.21 17.7329 160.136 18.6062 160.037 19.479C159.815 21.4206 159.307 23.2867 158.539 25.0798C157.689 27.0643 156.554 28.8744 155.136 30.5073C154.47 31.2739 153.735 31.9727 153.021 32.6917C152.973 32.7392 152.924 32.7863 152.869 32.8254C152.602 33.0189 152.279 33.0104 152.024 32.8037C151.972 32.7614 151.923 32.7139 151.875 32.6658C151.157 31.95 150.439 31.2337 149.722 30.5174C149.674 30.4698 149.627 30.4212 149.582 30.371C149.45 30.224 149.405 30.049 149.417 29.8555C149.426 29.7165 149.468 29.5896 149.558 29.4834C149.635 29.3935 149.719 29.31 149.802 29.2265C150.137 28.8918 150.473 28.5588 150.807 28.2236C152.168 26.8571 153.251 25.2987 154.049 23.5442C154.717 22.0746 155.155 20.5399 155.353 18.9371C155.497 17.7762 155.512 16.6111 155.403 15.4508C155.245 13.7607 154.823 12.1331 154.135 10.5752C153.315 8.71543 152.185 7.07032 150.742 5.63719C150.43 5.32741 150.12 5.0171 149.809 4.70626C149.737 4.63437 149.664 4.56406 149.596 4.48952C149.35 4.22098 149.355 3.77428 149.601 3.51948C149.671 3.44653 149.742 3.3741 149.813 3.30221C150.46 2.6578 151.105 2.0134 151.752 1.36952C151.824 1.29816 151.896 1.22679 151.97 1.15807C152.249 0.902208 152.67 0.900093 152.937 1.15384C152.949 1.16547 152.962 1.17604 152.974 1.1882C153.759 1.97957 154.573 2.74344 155.292 3.59824C157.404 6.10979 158.863 8.94803 159.625 12.1415C159.995 13.6909 160.189 15.2605 160.2 16.8527V16.8538Z" fill="#018AFF"/>
<path d="M9.76175 7.17868C11.6738 7.19031 13.3794 7.66819 14.9548 8.60916C14.9982 8.63506 15.04 8.66414 15.0819 8.69269C15.1395 8.7318 15.1596 8.8185 15.121 8.86925C15.0602 8.95013 14.9977 9.02995 14.9347 9.10925C14.1547 10.0973 13.5318 11.1757 13.0719 12.3471C13.0227 12.473 12.9724 12.5982 12.9216 12.7235C12.8835 12.816 12.8216 12.8308 12.7195 12.7695C12.647 12.7262 12.5771 12.6781 12.5046 12.6347C11.6886 12.1441 10.8085 11.9052 9.85118 11.893C7.83438 11.8677 5.69797 13.1787 4.96661 15.4883C4.80679 15.9937 4.75017 16.5112 4.74911 17.0367C4.7454 19.3806 6.41822 21.519 8.88009 21.999C10.1168 22.24 11.3065 22.0455 12.4088 21.4095C12.5406 21.3334 12.6697 21.2536 12.8036 21.1817C12.8232 21.1711 12.8761 21.1864 12.8883 21.2055C12.9238 21.262 12.9492 21.3255 12.973 21.3884C13.4614 22.6962 14.142 23.8952 15.021 24.982C15.0316 24.9953 15.0422 25.0085 15.0522 25.0217C15.1798 25.1866 15.1739 25.2411 15.012 25.3399C14.6511 25.5609 14.2801 25.7623 13.8927 25.9346C12.5914 26.514 11.2298 26.8116 9.80355 26.7984C7.69043 26.7794 5.771 26.1572 4.06696 24.9117C2.08985 23.467 0.826105 21.5385 0.26938 19.1612C0.0137738 18.0691 -0.0476141 16.9589 0.0958007 15.8404C0.413853 13.3584 1.50561 11.2819 3.38005 9.62255C4.64591 8.50132 6.11816 7.76916 7.7714 7.40863C8.45037 7.26061 9.14046 7.18238 9.76175 7.17868Z" fill="#018AFF"/>
<path d="M66.1185 11.8332C66.1185 9.09966 66.1185 6.36662 66.1185 3.63305C66.1185 3.49825 66.1174 3.36292 66.1185 3.22812C66.1227 2.8697 66.1285 2.85966 66.4884 2.85913C67.8077 2.85702 69.1275 2.85807 70.4468 2.85913C70.531 2.85913 70.6151 2.86812 70.6993 2.87499C70.7575 2.87975 70.8173 2.94741 70.8189 3.01402C70.8231 3.16574 70.8279 3.31746 70.8279 3.46918C70.8284 4.63323 70.8279 5.79781 70.8289 6.96186C70.8289 7.11358 70.8353 7.2653 70.8406 7.41649C70.8427 7.47834 70.9083 7.54178 70.9723 7.54442C71.1073 7.54971 71.2422 7.55552 71.3777 7.55552C72.2742 7.55658 73.1707 7.55552 74.0677 7.55658C74.2026 7.55658 74.3386 7.55764 74.4725 7.57297C74.5106 7.5772 74.5556 7.62636 74.5746 7.66601C74.5953 7.70883 74.5947 7.76433 74.5947 7.81455C74.5958 9.21491 74.5958 10.6153 74.5947 12.0161C74.5947 12.0658 74.5831 12.1155 74.5768 12.1652C74.5688 12.2244 74.5191 12.2593 74.4757 12.2641C74.3418 12.2783 74.2058 12.2805 74.0708 12.2805C73.1744 12.2815 72.2779 12.2805 71.3809 12.2815C71.2459 12.2815 71.111 12.2879 70.976 12.2942C70.9136 12.2974 70.8432 12.364 70.84 12.4216C70.8347 12.5226 70.8294 12.6235 70.8289 12.7245C70.8284 15.0024 70.83 17.2803 70.8268 19.5582C70.8268 19.814 70.8527 20.063 70.9332 20.3057C71.0575 20.6831 71.2687 21.0035 71.5725 21.2614C71.8651 21.5099 72.1959 21.6621 72.5891 21.6542C72.7245 21.6516 72.8595 21.6553 72.995 21.6553C73.4347 21.6553 73.8745 21.6542 74.3143 21.6569C74.5471 21.6584 74.5942 21.6991 74.5947 21.9095C74.5963 23.3099 74.5958 24.7102 74.5947 26.1111C74.5947 26.1608 74.5826 26.2105 74.5762 26.2607C74.5688 26.3205 74.5201 26.3517 74.4757 26.3601C74.3937 26.376 74.3074 26.376 74.2232 26.376C73.648 26.377 73.0728 26.3876 72.498 26.3744C70.8877 26.3369 69.4493 25.8299 68.2094 24.789C67.2727 24.0029 66.6641 23.0133 66.3577 21.8355C66.2344 21.3608 66.1613 20.8771 66.1386 20.3871C66.1248 20.0836 66.1195 19.7802 66.119 19.4762C66.1174 16.9282 66.1185 14.3813 66.1185 11.8332Z" fill="#018AFF"/>
<path d="M58.3497 14.5978C58.3497 10.9021 58.3497 7.20646 58.3497 3.51077C58.3497 3.34214 58.3555 3.17351 58.3608 3.00487C58.3624 2.95095 58.4391 2.87588 58.4937 2.87113C58.5609 2.86531 58.6281 2.85844 58.6953 2.85844C60.1162 2.85791 61.5377 2.85738 62.9586 2.85897C63.0422 2.85897 63.1269 2.86954 63.2094 2.88487C63.2364 2.89016 63.2634 2.92346 63.2787 2.95042C63.2941 2.97791 63.301 3.01386 63.3015 3.0461C63.3052 3.21474 63.3068 3.38337 63.3068 3.55201C63.3068 10.9434 63.3068 18.3342 63.3068 25.7256C63.3068 25.8942 63.3015 26.0623 63.2962 26.231C63.2941 26.297 63.2311 26.36 63.1676 26.3642C63.0835 26.37 62.9988 26.3758 62.9146 26.3758C61.5271 26.3763 60.14 26.3763 58.7524 26.3758C58.6683 26.3758 58.5836 26.3705 58.4995 26.3652C58.4349 26.3615 58.3651 26.2986 58.3629 26.2394C58.3566 26.0713 58.3492 25.9027 58.3492 25.7346C58.3486 22.022 58.3487 18.3094 58.3487 14.5973L58.3497 14.5978Z" fill="#018AFF"/>
<path d="M77.4408 19.8395C77.4408 18.0004 77.4419 16.1618 77.4403 14.3227C77.4398 13.6798 77.4938 13.0434 77.6176 12.4117C77.9023 10.9563 78.6395 9.78487 79.8249 8.89359C80.6203 8.29518 81.5094 7.89394 82.4836 7.69465C82.88 7.61324 83.2833 7.55509 83.6918 7.55667C84.3348 7.55879 84.9773 7.55667 85.6202 7.5572C85.6875 7.5572 85.7547 7.56566 85.8219 7.57147C85.879 7.57676 85.9087 7.61958 85.9288 7.66451C85.9425 7.69412 85.9447 7.73059 85.9447 7.7639C85.9457 9.19808 85.9457 10.6317 85.9447 12.0659C85.9447 12.0992 85.9357 12.1325 85.9293 12.1653C85.9182 12.2219 85.8732 12.2531 85.8261 12.2615C85.7436 12.2763 85.6584 12.28 85.5742 12.2806C85.1175 12.2821 84.6608 12.2811 84.2041 12.2816C84.0855 12.2816 83.9675 12.2832 83.849 12.2843C83.4754 12.288 83.1563 12.4323 82.8858 12.6786C82.4551 13.0709 82.2063 13.5551 82.1836 14.1435C82.1772 14.3121 82.1799 14.4807 82.1799 14.6494C82.1799 18.344 82.1799 22.0391 82.1794 25.7338C82.1794 25.9019 82.1719 26.0705 82.1661 26.2386C82.164 26.2984 82.0952 26.3613 82.0306 26.365C81.9465 26.3703 81.8624 26.3761 81.7777 26.3761C80.4584 26.3766 79.1391 26.3766 77.8198 26.3761C77.7356 26.3761 77.6494 26.375 77.5684 26.3565C77.5276 26.347 77.4731 26.3015 77.4657 26.264C77.4456 26.1662 77.4424 26.0636 77.4424 25.9632C77.4408 25.1702 77.4414 24.3773 77.4414 23.5843C77.4414 22.3357 77.4408 21.0881 77.4408 19.8395Z" fill="#018AFF"/>
<path d="M167.02 16.8787C167.001 17.9561 166.667 18.8326 165.995 19.579C165.938 19.6419 165.88 19.7027 165.82 19.7619C165.187 20.3936 164.554 21.0254 163.92 21.656C163.849 21.7269 163.775 21.7982 163.693 21.8569C163.575 21.9415 163.446 21.9531 163.312 21.8823C163.163 21.8035 163.093 21.6777 163.093 21.5133C163.093 21.4636 163.109 21.4139 163.117 21.3642C163.17 21.0148 163.224 20.6648 163.276 20.3154C163.459 19.1128 163.532 17.9022 163.515 16.6879C163.505 15.9473 163.469 15.2067 163.388 14.4682C163.316 13.7979 163.218 13.1318 163.102 12.4678C163.088 12.3832 163.09 12.3029 163.12 12.2204C163.207 11.9899 163.482 11.8985 163.711 12.0417C163.781 12.0856 163.837 12.1527 163.897 12.212C164.542 12.8548 165.187 13.4987 165.833 14.1415C166.437 14.7431 166.821 15.4599 166.96 16.3009C166.995 16.5161 167.006 16.736 167.02 16.8787Z" fill="#07E501"/>
</svg>
