<?xml version="1.0" encoding="UTF-8" standalone="yes"?>
<svg xmlns="http://www.w3.org/2000/svg" xmlns:xlink="http://www.w3.org/1999/xlink" width="64px" height="12px" viewBox="0 0 64 12" version="1.1">
  <g id="surface1">
    <path style=" stroke:none;fill-rule:nonzero;fill:rgb(0.392157%,54.11765%,100%);fill-opacity:1;" d="M 50.214844 2.410156 C 50.5625 2.410156 50.921875 2.445312 51.28125 2.484375 C 51.730469 2.53125 52.175781 2.597656 52.617188 2.671875 C 53.449219 2.816406 54.273438 2.992188 55.082031 3.226562 C 55.363281 3.308594 55.644531 3.398438 55.925781 3.484375 C 56.074219 3.53125 56.214844 3.59375 56.351562 3.660156 C 57.042969 3.980469 57.726562 4.652344 57.921875 5.644531 C 58.167969 6.886719 57.523438 8.074219 56.441406 8.632812 C 56.265625 8.726562 56.082031 8.800781 55.890625 8.863281 C 55.335938 9.042969 54.773438 9.203125 54.207031 9.339844 C 53.757812 9.445312 53.304688 9.542969 52.847656 9.625 C 52.285156 9.726562 51.71875 9.808594 51.148438 9.863281 C 50.800781 9.898438 50.453125 9.929688 50.105469 9.929688 C 49.648438 9.933594 49.207031 9.867188 48.777344 9.722656 C 48.246094 9.546875 47.773438 9.277344 47.363281 8.910156 C 46.738281 8.351562 46.351562 7.664062 46.183594 6.863281 C 46.132812 6.636719 46.121094 6.402344 46.121094 6.167969 C 46.121094 5.296875 46.402344 4.515625 46.972656 3.832031 C 47.585938 3.097656 48.386719 2.648438 49.355469 2.464844 C 49.632812 2.414062 49.917969 2.402344 50.214844 2.410156 Z M 50.257812 8.210938 C 50.257812 8.210938 50.257812 8.210938 50.257812 8.214844 C 50.410156 8.207031 50.566406 8.203125 50.71875 8.1875 C 50.910156 8.171875 51.105469 8.144531 51.296875 8.125 C 51.730469 8.078125 52.164062 8.003906 52.59375 7.925781 C 52.878906 7.875 53.160156 7.8125 53.445312 7.753906 C 54.074219 7.617188 54.691406 7.445312 55.300781 7.242188 C 55.378906 7.21875 55.457031 7.1875 55.53125 7.152344 C 55.929688 6.972656 56.28125 6.523438 56.144531 5.917969 C 56.066406 5.589844 55.863281 5.34375 55.542969 5.191406 C 55.449219 5.144531 55.34375 5.105469 55.242188 5.070312 C 54.839844 4.9375 54.429688 4.824219 54.019531 4.71875 C 53.683594 4.636719 53.347656 4.558594 53.003906 4.488281 C 52.671875 4.421875 52.335938 4.363281 52 4.308594 C 51.789062 4.273438 51.578125 4.246094 51.367188 4.21875 C 51.105469 4.183594 50.84375 4.15625 50.578125 4.140625 C 50.40625 4.125 50.234375 4.113281 50.058594 4.117188 C 49.609375 4.125 49.195312 4.242188 48.828125 4.496094 C 48.277344 4.875 47.976562 5.390625 47.921875 6.03125 C 47.886719 6.433594 47.984375 6.8125 48.1875 7.164062 C 48.554688 7.792969 49.253906 8.183594 49.925781 8.210938 C 50.035156 8.214844 50.148438 8.210938 50.257812 8.210938 Z M 50.257812 8.210938 "/>
    <path style=" stroke:none;fill-rule:nonzero;fill:rgb(0.392157%,54.11765%,100%);fill-opacity:1;" d="M 40.363281 6.175781 C 40.363281 7.234375 40.363281 8.296875 40.363281 9.359375 C 40.363281 9.414062 40.363281 9.46875 40.363281 9.523438 C 40.363281 9.566406 40.332031 9.589844 40.289062 9.589844 C 40.261719 9.59375 40.234375 9.59375 40.210938 9.59375 C 39.714844 9.59375 39.21875 9.59375 38.722656 9.59375 C 38.6875 9.59375 38.65625 9.589844 38.625 9.589844 C 38.59375 9.589844 38.566406 9.5625 38.566406 9.527344 C 38.5625 9.429688 38.5625 9.332031 38.5625 9.234375 C 38.5625 9.203125 38.558594 9.171875 38.550781 9.144531 C 38.550781 9.136719 38.527344 9.125 38.523438 9.128906 C 38.5 9.140625 38.480469 9.15625 38.460938 9.171875 C 38.390625 9.222656 38.324219 9.28125 38.25 9.332031 C 37.953125 9.542969 37.617188 9.65625 37.253906 9.707031 C 36.894531 9.757812 36.535156 9.753906 36.175781 9.703125 C 35.863281 9.660156 35.558594 9.585938 35.265625 9.464844 C 34.117188 8.996094 33.390625 8.175781 33.070312 7.03125 C 32.941406 6.582031 32.933594 6.121094 33.003906 5.660156 C 33.117188 4.902344 33.464844 4.25 34.015625 3.695312 C 34.515625 3.191406 35.132812 2.871094 35.839844 2.710938 C 36.195312 2.632812 36.550781 2.605469 36.914062 2.628906 C 37.308594 2.648438 37.671875 2.765625 38.011719 2.953125 C 38.164062 3.039062 38.300781 3.136719 38.433594 3.242188 C 38.457031 3.261719 38.484375 3.28125 38.511719 3.296875 C 38.523438 3.304688 38.554688 3.289062 38.554688 3.273438 C 38.558594 3.207031 38.5625 3.140625 38.5625 3.074219 C 38.566406 2.980469 38.566406 2.890625 38.566406 2.796875 C 38.570312 2.773438 38.59375 2.75 38.617188 2.75 C 38.644531 2.75 38.671875 2.746094 38.695312 2.746094 C 39.203125 2.746094 39.714844 2.746094 40.222656 2.746094 C 40.253906 2.746094 40.289062 2.746094 40.320312 2.753906 C 40.335938 2.757812 40.355469 2.773438 40.355469 2.789062 C 40.363281 2.835938 40.363281 2.886719 40.363281 2.933594 C 40.367188 3.394531 40.363281 3.855469 40.363281 4.316406 C 40.363281 4.933594 40.363281 5.554688 40.363281 6.175781 Z M 38.5625 6.179688 C 38.566406 5.972656 38.539062 5.773438 38.472656 5.578125 C 38.222656 4.84375 37.457031 4.207031 36.390625 4.34375 C 36.023438 4.390625 35.699219 4.539062 35.421875 4.773438 C 34.890625 5.222656 34.683594 5.792969 34.765625 6.460938 C 34.867188 6.992188 35.140625 7.421875 35.617188 7.726562 C 36.03125 7.992188 36.492188 8.078125 36.980469 8.007812 C 37.347656 7.953125 37.667969 7.800781 37.9375 7.558594 C 38.351562 7.183594 38.558594 6.722656 38.5625 6.179688 Z M 38.5625 6.179688 "/>
    <path style=" stroke:none;fill-rule:nonzero;fill:rgb(0.392157%,54.11765%,100%);fill-opacity:1;" d="M 13.246094 6.1875 C 13.253906 8.097656 11.617188 9.753906 9.480469 9.742188 C 7.390625 9.734375 5.75 8.097656 5.757812 6.164062 C 5.765625 4.28125 7.363281 2.605469 9.515625 2.613281 C 11.671875 2.621094 13.261719 4.300781 13.246094 6.1875 Z M 9.503906 4.328125 C 8.503906 4.308594 7.558594 5.097656 7.554688 6.171875 C 7.550781 7.15625 8.378906 8.023438 9.492188 8.03125 C 10.535156 8.039062 11.453125 7.242188 11.449219 6.171875 C 11.449219 5.101562 10.519531 4.3125 9.503906 4.328125 Z M 9.503906 4.328125 "/>
    <path style=" stroke:none;fill-rule:nonzero;fill:rgb(0.392157%,54.11765%,100%);fill-opacity:1;" d="M 21.417969 6.179688 C 21.433594 8.101562 19.785156 9.746094 17.679688 9.742188 C 15.554688 9.742188 13.925781 8.089844 13.933594 6.167969 C 13.941406 4.273438 15.535156 2.613281 17.683594 2.613281 C 19.847656 2.617188 21.441406 4.3125 21.417969 6.179688 Z M 17.675781 8.03125 C 18.753906 8.039062 19.625 7.1875 19.628906 6.183594 C 19.628906 5.117188 18.691406 4.328125 17.691406 4.324219 C 16.6875 4.320312 15.726562 5.082031 15.730469 6.179688 C 15.734375 7.28125 16.679688 8.042969 17.675781 8.03125 Z M 17.675781 8.03125 "/>
    <path style=" stroke:none;fill-rule:nonzero;fill:rgb(0.392157%,54.11765%,100%);fill-opacity:1;" d="M 61.027344 6.128906 C 61.03125 6.449219 61.003906 6.765625 60.964844 7.082031 C 60.882812 7.789062 60.6875 8.46875 60.394531 9.121094 C 60.070312 9.839844 59.640625 10.5 59.097656 11.09375 C 58.847656 11.371094 58.566406 11.625 58.292969 11.886719 C 58.277344 11.90625 58.257812 11.921875 58.234375 11.9375 C 58.132812 12.007812 58.011719 12.003906 57.914062 11.929688 C 57.894531 11.914062 57.875 11.894531 57.855469 11.878906 C 57.582031 11.617188 57.308594 11.359375 57.035156 11.097656 C 57.019531 11.078125 57 11.0625 56.984375 11.042969 C 56.933594 10.992188 56.917969 10.925781 56.921875 10.855469 C 56.925781 10.804688 56.941406 10.761719 56.972656 10.722656 C 57.003906 10.6875 57.035156 10.65625 57.066406 10.628906 C 57.195312 10.507812 57.324219 10.386719 57.449219 10.261719 C 57.96875 9.765625 58.382812 9.199219 58.683594 8.5625 C 58.941406 8.027344 59.105469 7.46875 59.183594 6.886719 C 59.238281 6.464844 59.242188 6.039062 59.199219 5.617188 C 59.140625 5.003906 58.980469 4.410156 58.71875 3.84375 C 58.40625 3.167969 57.976562 2.570312 57.425781 2.050781 C 57.308594 1.9375 57.1875 1.824219 57.070312 1.710938 C 57.042969 1.683594 57.015625 1.660156 56.988281 1.632812 C 56.894531 1.535156 56.898438 1.371094 56.992188 1.28125 C 57.015625 1.253906 57.042969 1.226562 57.070312 1.199219 C 57.316406 0.964844 57.5625 0.730469 57.808594 0.496094 C 57.835938 0.472656 57.863281 0.445312 57.894531 0.421875 C 58 0.328125 58.160156 0.328125 58.261719 0.417969 C 58.265625 0.421875 58.269531 0.425781 58.277344 0.433594 C 58.574219 0.71875 58.886719 0.996094 59.160156 1.308594 C 59.964844 2.222656 60.519531 3.253906 60.808594 4.414062 C 60.949219 4.976562 61.023438 5.550781 61.027344 6.128906 Z M 61.027344 6.128906 "/>
    <path style=" stroke:none;fill-rule:nonzero;fill:rgb(0.392157%,54.11765%,100%);fill-opacity:1;" d="M 3.71875 2.609375 C 4.445312 2.613281 5.097656 2.789062 5.695312 3.128906 C 5.714844 3.140625 5.730469 3.152344 5.746094 3.160156 C 5.765625 3.175781 5.773438 3.207031 5.761719 3.226562 C 5.738281 3.253906 5.714844 3.285156 5.6875 3.3125 C 5.390625 3.671875 5.15625 4.0625 4.980469 4.488281 C 4.960938 4.535156 4.941406 4.582031 4.921875 4.625 C 4.90625 4.660156 4.882812 4.664062 4.84375 4.644531 C 4.816406 4.628906 4.792969 4.609375 4.761719 4.59375 C 4.453125 4.417969 4.117188 4.328125 3.753906 4.324219 C 2.984375 4.316406 2.171875 4.792969 1.890625 5.632812 C 1.832031 5.816406 1.808594 6.003906 1.808594 6.195312 C 1.808594 7.046875 2.445312 7.824219 3.382812 8 C 3.855469 8.085938 4.308594 8.015625 4.726562 7.785156 C 4.777344 7.757812 4.828125 7.730469 4.878906 7.703125 C 4.886719 7.699219 4.90625 7.703125 4.910156 7.710938 C 4.921875 7.730469 4.933594 7.753906 4.941406 7.777344 C 5.128906 8.253906 5.386719 8.6875 5.722656 9.085938 C 5.726562 9.089844 5.730469 9.09375 5.734375 9.097656 C 5.78125 9.160156 5.78125 9.179688 5.71875 9.214844 C 5.582031 9.292969 5.441406 9.367188 5.292969 9.429688 C 4.796875 9.640625 4.277344 9.75 3.734375 9.746094 C 2.929688 9.738281 2.199219 9.511719 1.550781 9.058594 C 0.796875 8.535156 0.316406 7.832031 0.101562 6.96875 C 0.00390625 6.570312 -0.0195312 6.167969 0.0351562 5.761719 C 0.15625 4.859375 0.574219 4.101562 1.289062 3.5 C 1.769531 3.089844 2.332031 2.824219 2.960938 2.695312 C 3.21875 2.640625 3.480469 2.613281 3.71875 2.609375 Z M 3.71875 2.609375 "/>
    <path style=" stroke:none;fill-rule:nonzero;fill:rgb(0.392157%,54.11765%,100%);fill-opacity:1;" d="M 25.1875 4.304688 C 25.1875 3.308594 25.1875 2.316406 25.1875 1.320312 C 25.1875 1.273438 25.1875 1.222656 25.1875 1.175781 C 25.191406 1.042969 25.191406 1.039062 25.328125 1.039062 C 25.832031 1.039062 26.335938 1.039062 26.835938 1.039062 C 26.867188 1.039062 26.902344 1.042969 26.933594 1.046875 C 26.957031 1.046875 26.976562 1.070312 26.980469 1.097656 C 26.980469 1.152344 26.980469 1.207031 26.980469 1.261719 C 26.980469 1.683594 26.980469 2.109375 26.984375 2.53125 C 26.984375 2.585938 26.984375 2.640625 26.988281 2.695312 C 26.988281 2.71875 27.011719 2.742188 27.035156 2.742188 C 27.089844 2.746094 27.140625 2.746094 27.191406 2.746094 C 27.53125 2.746094 27.875 2.746094 28.214844 2.746094 C 28.269531 2.746094 28.320312 2.75 28.371094 2.753906 C 28.386719 2.753906 28.402344 2.773438 28.410156 2.789062 C 28.417969 2.804688 28.417969 2.824219 28.417969 2.839844 C 28.417969 3.351562 28.417969 3.859375 28.417969 4.371094 C 28.417969 4.386719 28.414062 4.40625 28.410156 4.421875 C 28.40625 4.445312 28.386719 4.457031 28.371094 4.460938 C 28.320312 4.464844 28.269531 4.464844 28.21875 4.464844 C 27.875 4.464844 27.535156 4.464844 27.191406 4.464844 C 27.140625 4.464844 27.089844 4.46875 27.039062 4.46875 C 27.015625 4.472656 26.988281 4.496094 26.988281 4.515625 C 26.984375 4.554688 26.984375 4.589844 26.984375 4.628906 C 26.980469 5.457031 26.984375 6.285156 26.980469 7.113281 C 26.980469 7.207031 26.992188 7.296875 27.023438 7.382812 C 27.070312 7.519531 27.148438 7.636719 27.265625 7.730469 C 27.378906 7.820312 27.503906 7.878906 27.652344 7.875 C 27.703125 7.875 27.757812 7.875 27.808594 7.875 C 27.976562 7.875 28.144531 7.875 28.308594 7.875 C 28.398438 7.875 28.417969 7.890625 28.417969 7.96875 C 28.417969 8.476562 28.417969 8.984375 28.417969 9.496094 C 28.417969 9.511719 28.414062 9.53125 28.410156 9.550781 C 28.40625 9.570312 28.386719 9.582031 28.371094 9.585938 C 28.339844 9.589844 28.308594 9.589844 28.277344 9.589844 C 28.054688 9.589844 27.835938 9.59375 27.617188 9.589844 C 27.003906 9.578125 26.457031 9.394531 25.984375 9.015625 C 25.628906 8.726562 25.394531 8.367188 25.277344 7.941406 C 25.230469 7.765625 25.203125 7.589844 25.195312 7.414062 C 25.191406 7.304688 25.1875 7.191406 25.1875 7.082031 C 25.1875 6.15625 25.1875 5.230469 25.1875 4.304688 Z M 25.1875 4.304688 "/>
    <path style=" stroke:none;fill-rule:nonzero;fill:rgb(0.392157%,54.11765%,100%);fill-opacity:1;" d="M 22.226562 5.308594 C 22.226562 3.964844 22.226562 2.621094 22.226562 1.277344 C 22.226562 1.214844 22.230469 1.152344 22.234375 1.09375 C 22.234375 1.074219 22.261719 1.046875 22.285156 1.042969 C 22.308594 1.042969 22.335938 1.039062 22.359375 1.039062 C 22.902344 1.039062 23.441406 1.039062 23.984375 1.039062 C 24.015625 1.039062 24.046875 1.042969 24.078125 1.050781 C 24.089844 1.050781 24.101562 1.0625 24.105469 1.074219 C 24.113281 1.082031 24.113281 1.097656 24.113281 1.109375 C 24.117188 1.167969 24.117188 1.230469 24.117188 1.292969 C 24.117188 3.980469 24.117188 6.667969 24.117188 9.355469 C 24.117188 9.417969 24.113281 9.476562 24.113281 9.539062 C 24.113281 9.5625 24.089844 9.585938 24.0625 9.585938 C 24.03125 9.589844 24 9.589844 23.96875 9.589844 C 23.4375 9.589844 22.910156 9.589844 22.382812 9.589844 C 22.351562 9.589844 22.316406 9.589844 22.285156 9.585938 C 22.261719 9.585938 22.234375 9.5625 22.234375 9.542969 C 22.230469 9.480469 22.226562 9.417969 22.226562 9.359375 C 22.226562 8.007812 22.226562 6.65625 22.226562 5.308594 Z M 22.226562 5.308594 "/>
    <path style=" stroke:none;fill-rule:nonzero;fill:rgb(0.392157%,54.11765%,100%);fill-opacity:1;" d="M 29.5 7.214844 C 29.5 6.546875 29.5 5.878906 29.5 5.207031 C 29.5 4.972656 29.519531 4.742188 29.570312 4.511719 C 29.675781 3.984375 29.957031 3.558594 30.410156 3.234375 C 30.710938 3.015625 31.050781 2.871094 31.421875 2.796875 C 31.574219 2.769531 31.726562 2.746094 31.882812 2.746094 C 32.128906 2.75 32.371094 2.746094 32.617188 2.75 C 32.644531 2.75 32.667969 2.75 32.695312 2.753906 C 32.714844 2.753906 32.726562 2.769531 32.734375 2.785156 C 32.738281 2.796875 32.742188 2.8125 32.742188 2.824219 C 32.742188 3.34375 32.742188 3.867188 32.742188 4.386719 C 32.742188 4.398438 32.738281 4.410156 32.734375 4.421875 C 32.730469 4.445312 32.714844 4.457031 32.695312 4.457031 C 32.664062 4.464844 32.632812 4.464844 32.601562 4.464844 C 32.425781 4.464844 32.25 4.464844 32.078125 4.464844 C 32.03125 4.464844 31.988281 4.464844 31.941406 4.46875 C 31.800781 4.46875 31.679688 4.519531 31.574219 4.609375 C 31.410156 4.753906 31.316406 4.929688 31.308594 5.144531 C 31.304688 5.203125 31.304688 5.265625 31.304688 5.328125 C 31.304688 6.671875 31.304688 8.015625 31.304688 9.359375 C 31.304688 9.417969 31.304688 9.480469 31.300781 9.542969 C 31.300781 9.5625 31.273438 9.585938 31.25 9.585938 C 31.21875 9.589844 31.1875 9.589844 31.152344 9.589844 C 30.652344 9.589844 30.148438 9.589844 29.644531 9.589844 C 29.613281 9.589844 29.582031 9.589844 29.550781 9.585938 C 29.535156 9.582031 29.511719 9.5625 29.511719 9.550781 C 29.503906 9.515625 29.5 9.476562 29.5 9.441406 C 29.5 9.152344 29.5 8.863281 29.5 8.574219 C 29.5 8.121094 29.5 7.667969 29.5 7.214844 Z M 29.5 7.214844 "/>
    <path style=" stroke:none;fill-rule:nonzero;fill:rgb(2.745098%,89.803922%,0.392157%);fill-opacity:1;" d="M 63.625 6.136719 C 63.621094 6.53125 63.492188 6.847656 63.234375 7.121094 C 63.214844 7.140625 63.191406 7.164062 63.167969 7.1875 C 62.929688 7.414062 62.6875 7.644531 62.445312 7.875 C 62.417969 7.902344 62.390625 7.925781 62.359375 7.949219 C 62.3125 7.980469 62.265625 7.984375 62.214844 7.957031 C 62.15625 7.929688 62.128906 7.882812 62.128906 7.824219 C 62.128906 7.804688 62.136719 7.785156 62.140625 7.769531 C 62.160156 7.640625 62.179688 7.515625 62.199219 7.386719 C 62.269531 6.949219 62.296875 6.511719 62.292969 6.066406 C 62.289062 5.800781 62.273438 5.53125 62.242188 5.261719 C 62.214844 5.015625 62.179688 4.773438 62.132812 4.535156 C 62.128906 4.503906 62.128906 4.472656 62.140625 4.445312 C 62.175781 4.359375 62.277344 4.328125 62.367188 4.378906 C 62.394531 4.394531 62.414062 4.417969 62.4375 4.441406 C 62.683594 4.675781 62.929688 4.910156 63.175781 5.140625 C 63.40625 5.359375 63.550781 5.621094 63.605469 5.925781 C 63.617188 6.003906 63.621094 6.085938 63.625 6.136719 Z M 63.625 6.136719 "/>
  </g>
</svg>