<?xml version="1.0" encoding="utf-8"?>
<!-- Generator: Adobe Illustrator 26.5.0, SVG Export Plug-In . SVG Version: 6.00 Build 0)  -->
<svg version="1.1" id="Capa_1" xmlns="http://www.w3.org/2000/svg" xmlns:xlink="http://www.w3.org/1999/xlink" x="0px" y="0px"
	 viewBox="0 0 140 140" style="enable-background:new 0 0 140 140;" xml:space="preserve">
<style type="text/css">
	.st0{fill:none;}
	.st1{fill:#93107E;}
	.st2{enable-background:new    ;}
	.st3{fill:#FFFFFF;}
</style>
<rect y="40.9" class="st0" width="140" height="58.2"/>
<g>
	<g>
		<path class="st1" d="M140,70c0-38.7-31.3-70-70-70S0,31.3,0,70s31.3,70,70,70S140,108.7,140,70"/>
	</g>
	<g class="st2">
		<path class="st3" d="M10.3,40.9h21.4c12.9,0,22.5,9.3,22.5,28.2c0,16.6-7.4,28.9-22.5,28.9H10.3V40.9z M21.2,87.4h9.7
			c6.3,0,12.4-4.5,12.4-17.1c0-11.5-3.5-18.9-14.3-18.9h-7.8V87.4z"/>
	</g>
	<g class="st2">
		<path class="st3" d="M56.5,63.5c-0.4-12.8,6.3-22.6,18.7-22.6c9.4,0,17.7,6.6,17.7,17.5c0,8.4-4.1,13-9.2,17s-11.1,7.1-14.9,12.9
			h24.4V98H55.3c0.1-13,7.4-18.5,16.3-25c4.6-3.4,10.7-6.8,10.8-13.7c0-5.3-3.2-8.6-7.7-8.6c-6.2,0-8.2,7-8.2,12.9H56.5z"/>
	</g>
	<g class="st2">
		<path class="st3" d="M114.4,40.9c10.5,0,19.4,7,19.4,28.9c0,22.3-8.9,29.4-19.4,29.4c-10.4,0-19.2-7-19.2-29.4
			C95.2,47.9,104,40.9,114.4,40.9z M114.4,89.8c8.7,0,8.7-13.7,8.7-20c0-5.8,0-19.5-8.7-19.5c-8.6,0-8.6,13.7-8.6,19.5
			C105.8,76.1,105.8,89.8,114.4,89.8z"/>
	</g>
</g>
</svg>
