<?xml version="1.0" encoding="utf-8"?>
<!-- Generator: Adobe Illustrator 26.5.0, SVG Export Plug-In . SVG Version: 6.00 Build 0)  -->
<svg version="1.1" id="Capa_1" xmlns="http://www.w3.org/2000/svg" xmlns:xlink="http://www.w3.org/1999/xlink" x="0px" y="0px"
	 viewBox="0 0 140 140" style="enable-background:new 0 0 140 140;" xml:space="preserve">
<style type="text/css">
	.st0{fill:none;}
	.st1{fill:#93107E;}
	.st2{enable-background:new    ;}
	.st3{fill:#FFFFFF;}
</style>
<rect y="40.9" class="st0" width="140" height="58.2"/>
<g>
	<g>
		<path class="st1" d="M140,70c0-38.7-31.3-70-70-70S0,31.3,0,70s31.3,70,70,70S140,108.7,140,70"/>
	</g>
	<g class="st2">
		<path class="st3" d="M11.1,40.9h21.4c12.9,0,22.5,9.3,22.5,28.2c0,16.6-7.4,28.9-22.5,28.9H11.1V40.9z M22,87.4h9.7
			c6.3,0,12.4-4.5,12.4-17.1c0-11.5-3.5-18.9-14.3-18.9H22V87.4z"/>
	</g>
	<g class="st2">
		<path class="st3" d="M78.3,85H56.5V74.6L78.9,42h9.3v33.7h6.8V85h-6.8v13h-9.9V85z M78.3,56.2h-0.2L64.7,75.7h13.5V56.2z"/>
	</g>
	<g class="st2">
		<path class="st3" d="M115.9,40.9c10.5,0,19.4,7,19.4,28.9c0,22.3-8.9,29.4-19.4,29.4c-10.4,0-19.2-7-19.2-29.4
			C96.6,47.9,105.5,40.9,115.9,40.9z M115.9,89.8c8.7,0,8.7-13.7,8.7-20c0-5.8,0-19.5-8.7-19.5c-8.6,0-8.6,13.7-8.6,19.5
			C107.3,76.1,107.3,89.8,115.9,89.8z"/>
	</g>
</g>
</svg>
