<?xml version="1.0" encoding="utf-8"?>
<!-- Generator: Adobe Illustrator 26.5.0, SVG Export Plug-In . SVG Version: 6.00 Build 0)  -->
<svg version="1.1" id="Capa_1" xmlns="http://www.w3.org/2000/svg" xmlns:xlink="http://www.w3.org/1999/xlink" x="0px" y="0px"
	 viewBox="0 0 140 140" style="enable-background:new 0 0 140 140;" xml:space="preserve">
<style type="text/css">
	.st0{fill:none;}
	.st1{fill:#93107E;}
	.st2{enable-background:new    ;}
	.st3{fill:#FFFFFF;}
</style>
<rect y="40.9" class="st0" width="140" height="58.2"/>
<g>
	<g>
		<path class="st1" d="M140,70c0-38.7-31.3-70-70-70S0,31.3,0,70s31.3,70,70,70S140,108.7,140,70"/>
	</g>
	<g class="st2">
		<path class="st3" d="M10.8,40.9H32c12.7,0,22.3,9.3,22.3,28.2C54.3,85.7,47,98,32,98H10.8V40.9z M21.6,87.4h9.6
			c6.3,0,12.2-4.5,12.2-17.1c0-11.5-3.4-18.9-14.2-18.9h-7.7V87.4z"/>
	</g>
	<g class="st2">
		<path class="st3" d="M90.9,51.4H69.6l-2.1,12.7l0.1,0.2c2.8-3.1,6-4.3,10.1-4.3c10.2,0,15.9,8.6,15.9,19
			c0,11.5-8.8,20.4-19.1,20.2c-10,0-19-6-19.1-17.8h10.5c0.5,5,3.9,8.4,8.5,8.4c5.4,0,8.9-5.2,8.9-10.8c0-5.8-3.3-10.5-8.9-10.5
			c-3.8,0-5.8,1.4-7.9,4.5H57l5.1-31h28.8V51.4z"/>
	</g>
	<g class="st2">
		<path class="st3" d="M115.2,40.9c10.5,0,19.4,7,19.4,28.9c0,22.3-8.9,29.4-19.4,29.4c-10.4,0-19.2-7-19.2-29.4
			C95.9,47.9,104.8,40.9,115.2,40.9z M115.2,89.8c8.7,0,8.7-13.7,8.7-20c0-5.8,0-19.5-8.7-19.5c-8.6,0-8.6,13.7-8.6,19.5
			C106.6,76.1,106.6,89.8,115.2,89.8z"/>
	</g>
</g>
</svg>
