<?xml version="1.0" encoding="UTF-8" standalone="yes"?>
<svg xmlns="http://www.w3.org/2000/svg" xmlns:xlink="http://www.w3.org/1999/xlink" width="64px" height="64px" viewBox="0 0 64 64" version="1.1">
  <defs>
    <filter id="alpha" filterUnits="objectBoundingBox" x="0%" y="0%" width="100%" height="100%">
      <feColorMatrix type="matrix" in="SourceGraphic" values="0 0 0 0 1 0 0 0 0 1 0 0 0 0 1 0 0 0 1 0"/>
    </filter>
    <mask id="mask0">
      <g filter="url(#alpha)">
        <rect x="0" y="0" width="64" height="64" style="fill:rgb(0%,0%,0%);fill-opacity:0.994;stroke:none;"/>
      </g>
    </mask>
    <clipPath id="clip1">
      <rect x="0" y="0" width="64" height="64"/>
    </clipPath>
    <g id="surface5" clip-path="url(#clip1)">
      <path style="fill-rule:nonzero;fill:rgb(100%,100%,100%);fill-opacity:1;stroke-width:2.462;stroke-linecap:butt;stroke-linejoin:miter;stroke:rgb(100%,100%,100%);stroke-opacity:1;stroke-miterlimit:4;" d="M 62.769531 32 C 62.769531 48.992188 48.992188 62.769531 32 62.769531 C 15.007812 62.769531 1.230469 48.992188 1.230469 32 C 1.230469 15.007812 15.007812 1.230469 32 1.230469 C 48.992188 1.230469 62.769531 15.007812 62.769531 32 Z M 62.769531 32 "/>
    </g>
  </defs>
  <g id="surface1">
    <use xlink:href="#surface5" mask="url(#mask0)"/>
    <path style=" stroke:none;fill-rule:nonzero;fill:rgb(80.000001%,80.000001%,80.000001%);fill-opacity:1;" d="M 31.984375 61.503906 C 15.746094 61.503906 2.460938 48.21875 2.460938 31.984375 C 2.460938 15.746094 15.746094 2.460938 31.984375 2.460938 C 48.21875 2.460938 61.503906 15.746094 61.503906 31.984375 C 61.503906 48.21875 48.21875 61.503906 31.984375 61.503906 Z M 31.984375 61.503906 "/>
    <path style=" stroke:none;fill-rule:nonzero;fill:rgb(100%,100%,100%);fill-opacity:1;" d="M 21.652344 49.328125 C 22.574219 48.40625 23.3125 47.296875 24.050781 46.375 C 24.601562 45.636719 24.972656 44.53125 25.527344 43.792969 C 25.894531 43.238281 26.265625 42.683594 26.816406 42.132812 C 27.1875 41.761719 27.371094 41.578125 27.738281 41.210938 C 27.925781 41.023438 28.292969 41.023438 28.476562 41.210938 C 29.214844 41.945312 30.136719 42.5 31.246094 43.054688 C 32.535156 43.792969 33.828125 44.53125 34.382812 45.820312 C 34.566406 46.191406 34.75 46.558594 34.566406 46.929688 C 34.382812 47.667969 34.75 48.21875 35.304688 48.773438 C 36.042969 49.328125 36.964844 49.882812 38.074219 49.695312 C 38.996094 49.511719 39.734375 49.511719 40.65625 49.328125 C 42.5 49.144531 43.421875 48.40625 43.421875 46.558594 C 43.421875 46.007812 43.421875 45.453125 43.421875 44.898438 C 43.238281 43.792969 43.238281 42.683594 42.871094 41.578125 C 42.5 40.472656 42.5 39.363281 42.5 38.257812 C 42.5 36.964844 42.683594 35.671875 42.5 34.382812 C 42.316406 32.535156 41.945312 30.875 40.839844 29.214844 C 40.65625 29.03125 40.65625 28.664062 40.839844 28.476562 C 41.578125 27.554688 41.945312 26.449219 42.132812 25.15625 C 42.683594 23.128906 43.054688 21.097656 43.609375 19.066406 C 43.792969 18.144531 43.976562 17.222656 44.898438 16.855469 C 45.082031 16.667969 45.269531 16.484375 45.269531 16.117188 C 45.269531 15.746094 45.269531 15.191406 45.453125 14.824219 C 45.453125 14.640625 45.453125 14.457031 45.082031 14.457031 C 44.714844 14.457031 44.347656 14.457031 43.976562 14.640625 C 43.238281 15.191406 42.5 15.5625 41.945312 16.300781 C 41.210938 17.222656 40.65625 18.144531 40.101562 19.253906 C 39.546875 20.542969 38.808594 21.835938 38.257812 22.941406 C 37.886719 23.863281 36.964844 24.050781 36.042969 24.050781 C 35.488281 24.050781 35.121094 23.863281 34.566406 23.679688 C 34.011719 23.496094 33.460938 23.496094 33.089844 24.050781 C 32.90625 24.234375 32.535156 24.417969 32.351562 24.234375 C 31.984375 24.050781 31.800781 23.679688 31.429688 23.3125 C 30.507812 22.019531 30.136719 20.359375 29.402344 19.066406 C 29.03125 17.960938 28.476562 16.855469 27.925781 15.746094 C 27.371094 14.640625 26.449219 14.085938 25.527344 13.347656 C 25.15625 12.980469 24.789062 13.164062 24.601562 13.53125 C 24.601562 13.71875 24.417969 14.085938 24.601562 14.269531 C 24.972656 15.191406 24.972656 16.300781 24.972656 17.222656 C 24.972656 17.960938 24.789062 18.882812 24.789062 19.621094 C 24.789062 20.175781 24.789062 20.542969 24.601562 21.097656 C 24.417969 21.835938 24.417969 22.574219 24.789062 23.128906 C 24.789062 23.3125 24.972656 23.679688 24.789062 23.863281 C 24.417969 24.601562 23.863281 24.972656 23.128906 25.339844 C 22.574219 25.527344 21.835938 25.894531 21.28125 26.265625 C 19.992188 27.1875 18.515625 28.292969 17.222656 29.214844 C 17.039062 29.214844 17.039062 29.402344 16.855469 29.402344 C 15.378906 29.585938 13.902344 30.324219 12.609375 31.0625 C 11.132812 31.800781 9.65625 32.351562 7.996094 32.351562 C 7.445312 32.351562 6.707031 32.351562 6.152344 32.351562 C 5.230469 32.351562 4.308594 32.535156 3.382812 32.722656 C 3.570312 42.5 8.917969 51.171875 16.667969 56.15625 C 16.855469 55.785156 17.039062 55.417969 17.222656 55.230469 C 18.515625 53.019531 20.175781 51.171875 21.652344 49.328125 Z M 21.652344 49.328125 "/>
  </g>
</svg>