<?xml version="1.0" encoding="UTF-8" standalone="yes"?>
<svg xmlns="http://www.w3.org/2000/svg" xmlns:xlink="http://www.w3.org/1999/xlink" width="64px" height="16px" viewBox="0 0 64 16" version="1.1">
  <g id="surface1">
    <path style=" stroke:none;fill-rule:evenodd;fill:rgb(100%,39.215687%,0%);fill-opacity:1;" d="M 12.304688 15.375 C 12.367188 15.484375 12.421875 15.589844 12.480469 15.699219 C 12.546875 15.828125 12.511719 15.910156 12.371094 15.945312 C 12.246094 15.972656 12.113281 16 11.984375 16 C 11.699219 16 11.417969 15.984375 11.136719 15.972656 C 11.03125 15.972656 10.964844 15.941406 10.933594 15.832031 C 10.835938 15.519531 10.714844 15.214844 10.652344 14.894531 C 10.59375 14.601562 10.605469 14.324219 10.675781 14.035156 C 10.761719 13.683594 10.800781 13.332031 10.726562 12.972656 C 10.695312 12.820312 10.691406 12.660156 10.683594 12.5 C 10.667969 12.257812 10.644531 12.015625 10.652344 11.769531 C 10.652344 11.46875 10.683594 11.167969 10.695312 10.863281 C 10.699219 10.71875 10.703125 10.578125 10.699219 10.433594 C 10.699219 10.363281 10.644531 10.320312 10.574219 10.328125 C 10.417969 10.347656 10.269531 10.371094 10.113281 10.394531 C 9.78125 10.4375 9.441406 10.488281 9.105469 10.535156 C 8.585938 10.605469 8.058594 10.605469 7.539062 10.578125 C 6.878906 10.550781 6.214844 10.488281 5.589844 10.261719 C 5.386719 10.183594 5.183594 10.101562 4.984375 10.019531 C 4.8125 9.953125 4.742188 9.945312 4.609375 10.078125 C 4.261719 10.429688 3.902344 10.773438 3.574219 11.140625 C 3.269531 11.480469 3.066406 11.875 2.996094 12.316406 C 2.9375 12.664062 2.996094 13 3.136719 13.332031 C 3.265625 13.636719 3.46875 13.894531 3.652344 14.171875 C 3.757812 14.332031 3.75 14.359375 3.554688 14.421875 C 3.429688 14.457031 3.320312 14.503906 3.265625 14.632812 C 3.226562 14.722656 3.140625 14.734375 3.046875 14.710938 C 2.984375 14.695312 2.929688 14.671875 2.871094 14.648438 C 2.71875 14.601562 2.613281 14.648438 2.554688 14.785156 C 2.53125 14.835938 2.519531 14.890625 2.511719 14.945312 C 2.492188 15.03125 2.449219 15.085938 2.339844 15.074219 C 2.164062 15.050781 1.980469 15.039062 1.804688 15 C 1.574219 14.949219 1.351562 14.875 1.121094 14.824219 C 1.003906 14.796875 1.007812 14.734375 1.011719 14.65625 C 1.011719 14.503906 1.023438 14.351562 1.011719 14.199219 C 1.007812 14.054688 0.980469 13.917969 0.976562 13.773438 C 0.976562 13.46875 0.980469 13.160156 0.988281 12.847656 C 0.988281 12.664062 0.910156 12.492188 0.773438 12.386719 C 0.734375 12.585938 0.5625 12.660156 0.386719 12.714844 C 0.296875 12.742188 0.234375 12.714844 0.207031 12.625 C 0.0898438 12.246094 -0.0195312 11.867188 0.00390625 11.46875 C 0.0234375 11.15625 0.0273438 10.839844 0.0351562 10.527344 C 0.0390625 10.355469 0.0625 10.179688 0.0625 10.003906 C 0.0585938 9.507812 0.03125 9.007812 0.0390625 8.511719 C 0.0390625 8.242188 0.0859375 7.972656 0.128906 7.707031 C 0.195312 7.296875 0.269531 6.886719 0.359375 6.480469 C 0.453125 6.042969 0.617188 5.628906 0.988281 5.324219 C 1.390625 4.984375 1.820312 4.679688 2.296875 4.433594 C 2.738281 4.207031 3.203125 4.035156 3.695312 3.945312 C 3.902344 3.910156 4.109375 3.878906 4.320312 3.878906 C 4.652344 3.878906 4.984375 3.894531 5.3125 3.929688 C 5.558594 3.957031 5.796875 4.015625 6.042969 4.0625 C 6.390625 4.125 6.734375 4.191406 7.085938 4.242188 C 7.421875 4.292969 7.757812 4.335938 8.101562 4.375 C 8.402344 4.402344 8.703125 4.414062 9.007812 4.445312 C 9.535156 4.511719 10.039062 4.402344 10.535156 4.273438 C 10.933594 4.167969 11.335938 4.066406 11.753906 4.066406 C 11.890625 4.066406 12.023438 4.046875 12.160156 4.050781 C 12.53125 4.0625 12.863281 3.945312 13.179688 3.777344 C 13.472656 3.625 13.769531 3.472656 14.117188 3.4375 C 14.144531 3.4375 14.164062 3.417969 14.1875 3.40625 C 14.484375 3.195312 14.785156 2.980469 15.085938 2.78125 C 15.207031 2.707031 15.351562 2.660156 15.488281 2.605469 C 15.652344 2.539062 15.792969 2.457031 15.859375 2.296875 C 15.875 2.253906 15.875 2.1875 15.859375 2.148438 C 15.796875 2.003906 15.792969 1.855469 15.820312 1.707031 C 15.835938 1.609375 15.839844 1.507812 15.851562 1.40625 C 15.867188 1.230469 15.886719 1.058594 15.898438 0.886719 C 15.917969 0.667969 15.902344 0.453125 15.8125 0.246094 C 15.796875 0.199219 15.8125 0.132812 15.828125 0.0859375 C 15.859375 0.00390625 15.96875 -0.0273438 16.039062 0.0234375 C 16.246094 0.167969 16.46875 0.304688 16.578125 0.527344 C 16.695312 0.757812 16.796875 0.992188 16.898438 1.222656 C 17.03125 1.53125 17.125 1.863281 17.339844 2.144531 C 17.390625 2.214844 17.457031 2.277344 17.523438 2.332031 C 17.585938 2.382812 17.664062 2.367188 17.703125 2.3125 C 17.792969 2.195312 17.894531 2.1875 18.027344 2.234375 C 18.125 2.269531 18.230469 2.289062 18.332031 2.304688 C 18.542969 2.328125 18.714844 2.261719 18.816406 2.082031 C 18.964844 1.820312 19.105469 1.558594 19.234375 1.289062 C 19.34375 1.0625 19.453125 0.835938 19.632812 0.652344 C 19.765625 0.515625 19.933594 0.40625 20.097656 0.304688 C 20.164062 0.261719 20.261719 0.265625 20.34375 0.257812 C 20.402344 0.25 20.421875 0.289062 20.417969 0.339844 C 20.410156 0.433594 20.410156 0.523438 20.390625 0.617188 C 20.382812 0.667969 20.359375 0.738281 20.320312 0.765625 C 20.140625 0.875 20.066406 1.042969 20.023438 1.222656 C 19.914062 1.652344 19.8125 2.082031 19.707031 2.511719 C 19.644531 2.757812 19.5625 3 19.398438 3.207031 C 19.359375 3.257812 19.355469 3.308594 19.394531 3.359375 C 19.621094 3.6875 19.722656 4.058594 19.75 4.441406 C 19.769531 4.71875 19.75 4.992188 19.75 5.265625 C 19.75 5.503906 19.785156 5.738281 19.851562 5.976562 C 19.914062 6.199219 19.941406 6.433594 19.972656 6.660156 C 19.992188 6.78125 19.996094 6.902344 19.992188 7.023438 C 19.976562 7.417969 19.746094 7.585938 19.355469 7.628906 C 19.164062 7.648438 18.976562 7.671875 18.785156 7.699219 C 18.550781 7.722656 18.355469 7.640625 18.183594 7.5 C 18.058594 7.402344 17.984375 7.289062 18.035156 7.125 C 18.054688 7.058594 18.019531 6.976562 17.988281 6.90625 C 17.84375 6.621094 17.578125 6.453125 17.289062 6.3125 C 17.070312 6.207031 16.859375 6.109375 16.691406 5.9375 C 16.640625 5.886719 16.582031 5.886719 16.535156 5.9375 C 16.46875 6.003906 16.394531 6.070312 16.335938 6.140625 C 16.234375 6.25 16.132812 6.359375 16.058594 6.484375 C 15.941406 6.664062 15.867188 6.867188 15.742188 7.039062 C 15.578125 7.261719 15.382812 7.46875 15.1875 7.671875 C 14.828125 8.054688 14.464844 8.425781 14.21875 8.890625 C 14.121094 9.074219 14.019531 9.257812 13.898438 9.429688 C 13.835938 9.523438 13.738281 9.59375 13.65625 9.671875 C 13.421875 9.878906 13.320312 10.136719 13.261719 10.429688 C 13.226562 10.609375 13.152344 10.789062 13.0625 10.953125 C 12.894531 11.265625 12.757812 11.585938 12.675781 11.929688 C 12.570312 12.378906 12.484375 12.828125 12.402344 13.277344 C 12.367188 13.46875 12.332031 13.664062 12.335938 13.851562 C 12.335938 14.261719 12.46875 14.632812 12.816406 14.902344 C 12.917969 14.984375 13.050781 15.027344 13.164062 15.09375 C 13.246094 15.136719 13.320312 15.1875 13.390625 15.242188 C 13.46875 15.304688 13.460938 15.410156 13.375 15.453125 C 13.304688 15.492188 13.222656 15.507812 13.144531 15.519531 C 12.921875 15.5625 12.730469 15.476562 12.535156 15.394531 C 12.472656 15.367188 12.402344 15.359375 12.339844 15.34375 C 12.335938 15.351562 12.332031 15.359375 12.324219 15.367188 M 0.988281 8.390625 C 0.988281 8.390625 0.960938 8.390625 0.945312 8.390625 C 0.9375 8.421875 0.925781 8.457031 0.925781 8.488281 C 0.925781 9.269531 0.925781 10.050781 0.925781 10.832031 L 0.925781 10.839844 C 0.957031 10.886719 0.976562 10.960938 1.023438 10.972656 C 1.058594 10.984375 1.136719 10.941406 1.167969 10.910156 C 1.25 10.820312 1.316406 10.722656 1.382812 10.621094 C 1.5 10.433594 1.570312 10.226562 1.5625 10.015625 C 1.5625 9.78125 1.496094 9.550781 1.394531 9.332031 C 1.273438 9.089844 1.175781 8.828125 1.066406 8.578125 C 1.039062 8.515625 1.011719 8.453125 0.988281 8.390625 Z M 1.886719 12.761719 C 1.886719 12.761719 1.875 12.777344 1.867188 12.785156 C 1.867188 12.808594 1.871094 12.832031 1.875 12.859375 C 1.902344 13.144531 1.917969 13.4375 1.957031 13.722656 C 1.984375 13.964844 2.074219 14.183594 2.199219 14.394531 C 2.25 14.476562 2.320312 14.46875 2.390625 14.4375 C 2.460938 14.40625 2.46875 14.355469 2.4375 14.285156 C 2.402344 14.195312 2.382812 14.101562 2.351562 14.007812 C 2.226562 13.617188 2.097656 13.222656 1.96875 12.828125 C 1.960938 12.796875 1.914062 12.78125 1.882812 12.757812 "/>
    <path style=" stroke:none;fill-rule:nonzero;fill:rgb(100%,39.215687%,0%);fill-opacity:1;" d="M 27.785156 7.695312 L 27.792969 5.285156 C 27.839844 5.28125 27.917969 5.277344 28.046875 5.277344 C 28.398438 5.277344 28.671875 5.378906 28.863281 5.585938 C 29.054688 5.789062 29.152344 6.082031 29.148438 6.460938 C 29.148438 6.839844 29.054688 7.144531 28.875 7.367188 C 28.691406 7.59375 28.40625 7.707031 28.023438 7.703125 C 27.910156 7.703125 27.828125 7.703125 27.789062 7.695312 M 25.761719 4.019531 L 25.746094 9.015625 C 26.847656 9.132812 27.757812 9.152344 28.476562 9.074219 C 28.78125 9.042969 29.105469 8.96875 29.445312 8.859375 C 29.789062 8.75 30.082031 8.601562 30.328125 8.421875 C 30.570312 8.242188 30.78125 7.992188 30.941406 7.671875 C 31.105469 7.355469 31.183594 6.980469 31.1875 6.554688 C 31.191406 5.71875 30.886719 5.070312 30.269531 4.601562 C 29.652344 4.136719 28.828125 3.90625 27.800781 3.898438 C 27.039062 3.898438 26.359375 3.9375 25.761719 4.023438 M 34.484375 7.414062 C 34.328125 7.210938 34.25 6.917969 34.25 6.539062 C 34.25 6.152344 34.328125 5.859375 34.488281 5.65625 C 34.648438 5.453125 34.878906 5.351562 35.195312 5.351562 C 35.503906 5.351562 35.734375 5.457031 35.890625 5.660156 C 36.046875 5.863281 36.121094 6.160156 36.121094 6.542969 C 36.121094 6.929688 36.039062 7.21875 35.886719 7.417969 C 35.730469 7.621094 35.5 7.722656 35.1875 7.722656 C 34.875 7.722656 34.640625 7.617188 34.484375 7.414062 Z M 33.035156 4.613281 C 32.488281 5.078125 32.21875 5.71875 32.214844 6.53125 C 32.214844 7.347656 32.480469 7.988281 33.023438 8.449219 C 33.570312 8.914062 34.285156 9.152344 35.179688 9.152344 C 36.070312 9.15625 36.792969 8.925781 37.339844 8.464844 C 37.882812 8.003906 38.15625 7.363281 38.160156 6.546875 C 38.160156 5.730469 37.894531 5.089844 37.351562 4.621094 C 36.808594 4.152344 36.089844 3.917969 35.195312 3.917969 C 34.304688 3.917969 33.582031 4.140625 33.035156 4.601562 M 43.046875 6.605469 L 41.5 4.03125 L 39.460938 4.03125 L 39.445312 9.058594 L 41.324219 9.058594 L 41.332031 6.480469 L 42.976562 9.070312 L 44.917969 9.070312 L 44.9375 4.042969 L 43.0625 4.042969 L 43.050781 6.605469 Z M 48.445312 7.042969 L 49.574219 9.09375 L 51.90625 9.101562 L 50.15625 6.324219 L 51.785156 4.066406 L 49.59375 4.058594 L 48.457031 5.839844 L 48.457031 4.050781 L 46.425781 4.042969 L 46.40625 9.078125 L 48.445312 9.089844 L 48.445312 7.039062 Z M 57.246094 4.082031 L 52.882812 4.070312 L 52.863281 9.105469 L 57.226562 9.117188 L 57.226562 7.703125 L 54.855469 7.695312 L 54.855469 7.242188 L 56.9375 7.246094 L 56.9375 5.941406 L 54.863281 5.9375 L 54.863281 5.488281 L 57.238281 5.496094 L 57.238281 4.082031 Z M 61.96875 7.335938 L 63.886719 4.101562 L 61.835938 4.101562 L 60.941406 5.910156 L 60.089844 4.09375 L 58.023438 4.09375 L 59.929688 7.332031 L 59.929688 9.125 L 61.957031 9.128906 L 61.957031 7.335938 Z M 61.96875 7.335938 "/>
    <path style=" stroke:none;fill-rule:nonzero;fill:rgb(100%,39.215687%,0%);fill-opacity:1;" d="M 26.8125 11.964844 L 26.8125 11.433594 C 26.855469 11.429688 26.902344 11.425781 26.941406 11.425781 C 27.058594 11.425781 27.171875 11.445312 27.269531 11.484375 C 27.367188 11.527344 27.414062 11.589844 27.414062 11.675781 C 27.414062 11.761719 27.382812 11.824219 27.324219 11.867188 C 27.226562 11.933594 27.097656 11.96875 26.9375 11.964844 C 26.875 11.964844 26.832031 11.964844 26.816406 11.960938 M 27.007812 12.601562 C 27.070312 12.601562 27.113281 12.625 27.144531 12.652344 C 27.175781 12.683594 27.203125 12.71875 27.238281 12.753906 C 27.308594 12.84375 27.378906 13.074219 27.457031 13.449219 L 28.554688 13.449219 C 28.457031 12.761719 28.261719 12.386719 27.96875 12.332031 C 28.316406 12.183594 28.496094 11.945312 28.496094 11.625 C 28.496094 10.992188 27.953125 10.675781 26.863281 10.675781 C 26.457031 10.675781 26.082031 10.703125 25.75 10.757812 L 25.742188 13.449219 L 26.816406 13.449219 L 26.816406 12.601562 C 26.878906 12.601562 26.941406 12.601562 27.003906 12.609375 M 33.566406 10.753906 L 31.207031 10.746094 L 31.195312 13.46875 L 33.558594 13.476562 L 33.558594 12.710938 L 32.273438 12.710938 L 32.273438 12.464844 L 33.398438 12.464844 L 33.398438 11.761719 L 32.277344 11.761719 L 32.277344 11.519531 L 33.5625 11.519531 L 33.5625 10.753906 Z M 37.816406 11.96875 C 37.742188 12.015625 37.671875 12.042969 37.601562 12.054688 C 37.527344 12.0625 37.453125 12.0625 37.378906 12.054688 L 37.378906 11.476562 C 37.550781 11.457031 37.699219 11.484375 37.816406 11.566406 C 37.890625 11.613281 37.925781 11.679688 37.925781 11.765625 C 37.925781 11.855469 37.890625 11.917969 37.816406 11.964844 M 36.316406 10.769531 L 36.308594 13.480469 L 37.382812 13.480469 L 37.382812 12.78125 C 37.578125 12.792969 37.769531 12.785156 37.953125 12.753906 C 38.378906 12.6875 38.679688 12.523438 38.847656 12.269531 C 38.945312 12.125 39 11.957031 39 11.761719 C 39 11.566406 38.949219 11.394531 38.847656 11.253906 C 38.746094 11.109375 38.613281 11 38.445312 10.921875 C 38.277344 10.847656 38.097656 10.789062 37.914062 10.757812 C 37.734375 10.722656 37.488281 10.707031 37.191406 10.703125 C 36.894531 10.703125 36.601562 10.722656 36.3125 10.765625 M 43.265625 12.410156 C 43.265625 12.519531 43.246094 12.601562 43.207031 12.660156 C 43.167969 12.71875 43.097656 12.742188 42.988281 12.742188 C 42.882812 12.742188 42.808594 12.714844 42.769531 12.652344 C 42.726562 12.59375 42.710938 12.515625 42.710938 12.40625 L 42.710938 10.769531 L 41.613281 10.769531 L 41.613281 12.417969 C 41.613281 12.792969 41.726562 13.078125 41.964844 13.265625 C 42.199219 13.449219 42.535156 13.542969 42.980469 13.546875 C 43.425781 13.546875 43.761719 13.453125 44.003906 13.273438 C 44.242188 13.085938 44.363281 12.800781 44.363281 12.425781 L 44.363281 10.777344 L 43.265625 10.777344 L 43.265625 12.414062 Z M 48.1875 12.871094 L 48.1875 12.386719 C 48.246094 12.382812 48.304688 12.378906 48.367188 12.378906 C 48.660156 12.378906 48.800781 12.464844 48.800781 12.628906 C 48.800781 12.71875 48.757812 12.78125 48.671875 12.820312 C 48.589844 12.859375 48.492188 12.875 48.378906 12.875 C 48.269531 12.875 48.207031 12.875 48.1875 12.871094 Z M 48.1875 11.847656 L 48.1875 11.402344 C 48.246094 11.394531 48.304688 11.390625 48.363281 11.390625 C 48.597656 11.390625 48.71875 11.464844 48.71875 11.613281 C 48.71875 11.773438 48.59375 11.847656 48.34375 11.847656 C 48.265625 11.847656 48.214844 11.847656 48.1875 11.84375 M 47.152344 10.800781 L 47.144531 13.5 C 47.460938 13.539062 47.828125 13.5625 48.25 13.5625 C 48.675781 13.5625 49.03125 13.507812 49.328125 13.414062 C 49.667969 13.292969 49.835938 13.074219 49.839844 12.742188 C 49.839844 12.574219 49.789062 12.433594 49.671875 12.328125 C 49.5625 12.21875 49.445312 12.15625 49.332031 12.128906 C 49.597656 12.007812 49.730469 11.816406 49.734375 11.550781 C 49.734375 11.007812 49.183594 10.734375 48.074219 10.730469 C 47.828125 10.730469 47.523438 10.753906 47.15625 10.796875 M 52.511719 10.796875 L 52.503906 13.519531 L 54.691406 13.519531 L 54.691406 12.761719 L 53.605469 12.761719 L 53.609375 10.800781 L 52.507812 10.800781 Z M 57.300781 13.527344 L 58.402344 13.527344 L 58.414062 10.808594 L 57.3125 10.808594 Z M 62.390625 12.632812 C 62.265625 12.527344 62.199219 12.375 62.203125 12.179688 C 62.203125 11.984375 62.265625 11.835938 62.394531 11.726562 C 62.523438 11.621094 62.691406 11.566406 62.910156 11.566406 C 63.128906 11.566406 63.320312 11.601562 63.484375 11.671875 L 63.695312 10.9375 C 63.339844 10.824219 63 10.769531 62.660156 10.765625 C 62.191406 10.765625 61.8125 10.886719 61.527344 11.140625 C 61.242188 11.394531 61.101562 11.738281 61.101562 12.171875 C 61.101562 12.601562 61.238281 12.949219 61.523438 13.210938 C 61.804688 13.464844 62.179688 13.59375 62.652344 13.59375 C 62.988281 13.59375 63.332031 13.539062 63.6875 13.429688 L 63.480469 12.695312 C 63.308594 12.765625 63.117188 12.792969 62.902344 12.792969 C 62.6875 12.792969 62.515625 12.738281 62.390625 12.628906 "/>
  </g>
</svg>