<svg width="122" height="32" viewBox="0 0 122 32" fill="none" xmlns="http://www.w3.org/2000/svg">
<path fill-rule="evenodd" clip-rule="evenodd" d="M23.4541 30.7464C23.5727 30.9666 23.6828 31.1784 23.7929 31.3986C23.92 31.6527 23.8522 31.8221 23.5812 31.8899C23.344 31.9492 23.0899 32 22.8443 32C22.3022 32 21.7686 31.9661 21.2265 31.9492C21.0316 31.9492 20.9046 31.8814 20.8453 31.6612C20.659 31.0429 20.4218 30.433 20.3032 29.7893C20.1931 29.2048 20.2185 28.6458 20.354 28.0698C20.515 27.3668 20.5912 26.6637 20.4472 25.9438C20.3879 25.6388 20.3794 25.317 20.3625 25.0036C20.3371 24.5123 20.2947 24.0295 20.3032 23.5382C20.3032 22.9368 20.3625 22.3354 20.3879 21.7256C20.3964 21.4376 20.4048 21.1581 20.3964 20.8701C20.3964 20.7261 20.2947 20.6414 20.1592 20.6583C19.8628 20.6922 19.5748 20.743 19.2783 20.7854C18.643 20.8786 17.9993 20.9802 17.3556 21.0734C16.3645 21.2089 15.365 21.2089 14.374 21.1581C13.112 21.0988 11.8499 20.9802 10.6556 20.5228C10.266 20.3703 9.88479 20.2009 9.50363 20.04C9.17329 19.9045 9.03776 19.8875 8.78366 20.1586C8.12298 20.8616 7.43689 21.5477 6.81009 22.2846C6.23411 22.9622 5.84448 23.75 5.70896 24.6309C5.59884 25.3254 5.70896 26.0031 5.98 26.6637C6.22564 27.2736 6.61527 27.7903 6.96255 28.3409C7.16584 28.6627 7.1489 28.722 6.77621 28.8406C6.53904 28.9168 6.32728 29.01 6.22564 29.2641C6.14941 29.442 5.98847 29.4674 5.8106 29.425C5.69202 29.3912 5.5819 29.3403 5.47179 29.298C5.1838 29.2048 4.98051 29.298 4.8704 29.569C4.82805 29.6707 4.80264 29.7808 4.7857 29.8909C4.75182 30.0603 4.66711 30.1704 4.46383 30.145C4.12502 30.1027 3.77774 30.0773 3.43893 30.001C2.99847 29.8994 2.57496 29.7469 2.13451 29.6453C1.91428 29.5944 1.92275 29.4674 1.93122 29.3149C1.93122 29.01 1.94816 28.7051 1.93122 28.4001C1.92275 28.1122 1.87193 27.8326 1.86346 27.5446C1.86346 26.9348 1.87193 26.3165 1.8804 25.6981C1.8804 25.3254 1.73641 24.9866 1.47383 24.7749C1.3976 25.173 1.07573 25.317 0.736916 25.4271C0.567511 25.4864 0.448927 25.4271 0.398106 25.2492C0.169409 24.4954 -0.0338772 23.733 0.00847403 22.9368C0.042355 22.31 0.0508253 21.6832 0.0677658 21.0564C0.0762361 20.7092 0.118587 20.3619 0.118587 20.0061C0.110117 19.0151 0.0592956 18.0156 0.0762361 17.0246C0.0762361 16.4825 0.160939 15.9489 0.245641 15.4152C0.372695 14.5936 0.516689 13.772 0.686094 12.9589C0.86397 12.0864 1.17737 11.2563 1.8804 10.6465C2.65119 9.96887 3.47281 9.35901 4.37913 8.86773C5.21768 8.41034 6.10706 8.07153 7.04725 7.89365C7.43689 7.81742 7.83499 7.75813 8.23309 7.75813C8.86836 7.75813 9.50363 7.79201 10.1304 7.85977C10.5963 7.9106 11.0537 8.02918 11.5196 8.12235C12.1802 8.24941 12.8409 8.38493 13.5101 8.48657C14.1453 8.58822 14.7891 8.67292 15.4413 8.74915C16.0173 8.80844 16.5932 8.82538 17.1692 8.89314C18.1772 9.0202 19.1343 8.80844 20.083 8.54586C20.8453 8.33411 21.6076 8.13082 22.4038 8.13082C22.6664 8.13082 22.9205 8.09694 23.1831 8.10541C23.8861 8.12235 24.5214 7.89365 25.1228 7.55484C25.6818 7.24992 26.2493 6.94499 26.91 6.87722C26.9608 6.87722 27.0032 6.83487 27.0455 6.80946C27.613 6.39442 28.1805 5.96244 28.7565 5.56433C28.9852 5.41187 29.2647 5.3187 29.5273 5.20858C29.8407 5.08153 30.1033 4.91213 30.2303 4.59026C30.2642 4.50555 30.2642 4.3785 30.2303 4.2938C30.1118 4.00581 30.1033 3.70935 30.1541 3.41289C30.188 3.21807 30.1965 3.01479 30.2134 2.8115C30.2473 2.46422 30.2812 2.11694 30.3066 1.76966C30.3405 1.33768 30.315 0.905695 30.1456 0.490652C30.1118 0.397479 30.1456 0.261955 30.1711 0.168782C30.2303 0.00784753 30.4421 -0.0514442 30.5776 0.0501988C30.9673 0.338187 31.3908 0.609236 31.6025 1.05816C31.8228 1.51555 32.0176 1.98142 32.2124 2.44728C32.4665 3.06561 32.6444 3.72629 33.0509 4.28533C33.1526 4.42932 33.2796 4.55637 33.4067 4.66649C33.5253 4.76813 33.6693 4.73425 33.7455 4.62414C33.9149 4.38697 34.1097 4.3785 34.3638 4.47167C34.5502 4.53943 34.7535 4.58179 34.9483 4.6072C35.3464 4.65802 35.6767 4.52249 35.8715 4.16674C36.1511 3.64159 36.4221 3.11643 36.6677 2.57433C36.871 2.12541 37.0828 1.66802 37.4216 1.3038C37.6757 1.03275 37.9976 0.812522 38.311 0.609236C38.438 0.524533 38.6244 0.533003 38.7768 0.516063C38.8954 0.499122 38.9293 0.575355 38.9208 0.676998C38.9039 0.863343 38.9039 1.04969 38.87 1.23603C38.8531 1.33768 38.8107 1.4732 38.7345 1.53249C38.3957 1.75272 38.2517 2.08306 38.167 2.44728C37.9637 3.30278 37.7689 4.16674 37.5656 5.02224C37.447 5.51351 37.2945 5.99632 36.9811 6.41136C36.9049 6.513 36.8964 6.61465 36.9727 6.71629C37.4047 7.37697 37.5995 8.11388 37.6503 8.88467C37.6842 9.43524 37.6503 9.98581 37.6503 10.5279C37.6503 11.0107 37.7181 11.4766 37.8451 11.9509C37.9637 12.3998 38.0145 12.8657 38.0738 13.3231C38.1077 13.5603 38.1161 13.8059 38.1077 14.0431C38.0823 14.8393 37.6418 15.1696 36.8964 15.2543C36.5322 15.2967 36.1765 15.3475 35.8122 15.3983C35.3633 15.4491 34.9906 15.2797 34.6603 15.0002C34.4231 14.8054 34.2791 14.5767 34.3808 14.2463C34.4146 14.1193 34.3469 13.9499 34.2876 13.8144C34.0165 13.2384 33.5083 12.908 32.9578 12.6285C32.5427 12.4168 32.1362 12.222 31.8143 11.8747C31.7211 11.773 31.611 11.773 31.5178 11.8747C31.3908 12.0102 31.2552 12.1373 31.1367 12.2812C30.9503 12.5015 30.7555 12.7217 30.6115 12.9673C30.3913 13.3316 30.2473 13.7381 30.0101 14.0769C29.6967 14.5259 29.324 14.9409 28.9513 15.3475C28.2652 16.1098 27.5707 16.8552 27.1048 17.7784C26.9185 18.1511 26.7237 18.5154 26.495 18.8626C26.3764 19.049 26.19 19.1845 26.0291 19.3454C25.5886 19.7605 25.3938 20.2772 25.2837 20.8616C25.216 21.2174 25.072 21.5816 24.9026 21.9035C24.5807 22.5303 24.3181 23.174 24.1656 23.8601C23.9624 24.7579 23.8014 25.6558 23.6405 26.5536C23.5727 26.9348 23.505 27.3244 23.5134 27.7056C23.5134 28.5272 23.7675 29.2641 24.4282 29.8062C24.623 29.9671 24.8771 30.0518 25.0974 30.1874C25.2498 30.2721 25.3938 30.3737 25.5294 30.4838C25.6733 30.6109 25.6564 30.8226 25.4955 30.9073C25.3599 30.9836 25.2075 31.0175 25.055 31.0429C24.6315 31.1276 24.2673 30.9497 23.8946 30.7888C23.776 30.7379 23.6405 30.721 23.5219 30.6871C23.5134 30.7041 23.505 30.721 23.4965 30.7379M1.8804 16.7789C1.8804 16.7789 1.82958 16.7789 1.80417 16.7789C1.78723 16.8467 1.76182 16.9145 1.76182 16.9738C1.76182 18.5408 1.76182 20.0993 1.76182 21.6663V21.6832C1.82111 21.7764 1.86346 21.9204 1.94816 21.9458C2.01592 21.9712 2.16839 21.8865 2.22768 21.8188C2.38015 21.6409 2.5072 21.4461 2.63425 21.2428C2.86295 20.8701 2.99 20.455 2.98153 20.0315C2.98153 19.5657 2.85448 19.0998 2.65966 18.6678C2.43097 18.1765 2.24462 17.6599 2.03287 17.1601C1.98204 17.0331 1.93122 16.906 1.8804 16.7789ZM3.59986 25.5203C3.59986 25.5203 3.57445 25.5541 3.55751 25.5711C3.55751 25.6134 3.56598 25.6642 3.57445 25.7151C3.62527 26.291 3.65915 26.8755 3.72692 27.443C3.78621 27.9258 3.95561 28.3663 4.19278 28.7898C4.28595 28.9507 4.42148 28.9338 4.557 28.8745C4.69252 28.8152 4.70947 28.7135 4.65017 28.5695C4.58241 28.3917 4.54006 28.2053 4.48077 28.019C4.2436 27.2312 3.99796 26.4435 3.75233 25.6558C3.73539 25.5965 3.65068 25.5626 3.59139 25.5118" fill="#FF6400"/>
<path d="M52.9645 15.3895L52.9815 10.5699C53.0662 10.5615 53.2186 10.553 53.4643 10.553C54.1334 10.553 54.6586 10.7563 55.0228 11.1713C55.387 11.5779 55.5734 12.1624 55.5649 12.9247C55.5649 13.6785 55.387 14.2884 55.0397 14.7373C54.6924 15.1862 54.1504 15.4149 53.4219 15.4065C53.2017 15.4065 53.0492 15.4065 52.973 15.3895M49.1105 8.03734L49.0767 18.0322C51.1773 18.2694 52.9137 18.3033 54.2859 18.1508C54.8619 18.0831 55.4802 17.9391 56.1324 17.7188C56.7846 17.4986 57.3436 17.2022 57.8095 16.8464C58.2754 16.4822 58.6735 15.9824 58.9784 15.3472C59.2918 14.7119 59.4443 13.958 59.4527 13.111C59.4612 11.4339 58.8768 10.138 57.6994 9.20623C56.522 8.2745 54.955 7.80864 52.9984 7.80017C51.5415 7.80017 50.2456 7.8764 49.1105 8.04581M65.7377 14.8305C65.4412 14.4239 65.2887 13.8395 65.2887 13.0771C65.2887 12.3063 65.4412 11.7219 65.7461 11.3153C66.0511 10.9088 66.4915 10.7055 67.0929 10.7055C67.6773 10.7055 68.1178 10.9172 68.4143 11.3238C68.7107 11.7304 68.8547 12.3233 68.8547 13.0856C68.8547 13.8564 68.7022 14.4409 68.4058 14.839C68.1093 15.2455 67.6689 15.4488 67.076 15.4488C66.483 15.4488 66.0341 15.2371 65.7377 14.8305ZM62.9764 9.22317C61.9345 10.1549 61.4178 11.4339 61.4094 13.0602C61.4094 14.695 61.9176 15.974 62.9509 16.8972C63.9928 17.829 65.3565 18.3033 67.059 18.3033C68.7615 18.3118 70.1337 17.8544 71.1756 16.9311C72.2174 16.0078 72.7341 14.7288 72.7426 13.0941C72.7426 11.4593 72.2343 10.1803 71.201 9.24011C70.1676 8.30838 68.7954 7.83405 67.0929 7.83405C65.3904 7.83405 64.0182 8.28297 62.9764 9.20623M82.0598 13.2127L79.1122 8.06275H75.2243L75.1905 18.1169H78.7734L78.7903 12.9586L81.9243 18.1424H85.6258L85.6597 8.08816H82.0853L82.0683 13.2127H82.0598ZM92.3512 14.0851L94.5026 18.1847L98.9495 18.2016L95.6122 12.6452L98.7124 8.13051L94.5365 8.11357L92.3681 11.6795V8.1051L88.4972 8.08816L88.4634 18.1593L92.3512 18.1762V14.0766V14.0851ZM109.122 8.16439L100.805 8.13898L100.771 18.2101L109.088 18.2355V15.4065L104.565 15.3895V14.4832L108.538 14.4917V11.8828L104.582 11.8744V10.9765L109.114 10.9935V8.16439H109.122ZM118.126 14.6695L121.785 8.20674H117.872L116.17 11.8235L114.543 8.1898H110.605L114.238 14.6611V18.2525L118.109 18.2609V14.6695H118.126Z" fill="#FF6400"/>
<path d="M51.1095 23.9278V22.869C51.1942 22.8605 51.2789 22.8521 51.3552 22.8521C51.5839 22.8521 51.7956 22.8944 51.982 22.9707C52.1683 23.0554 52.2615 23.1824 52.2615 23.3518C52.2615 23.5212 52.2022 23.6483 52.0836 23.733C51.8973 23.8685 51.6516 23.9363 51.3467 23.9278C51.2281 23.9278 51.1519 23.9278 51.118 23.9193M51.4822 25.2068C51.6008 25.2068 51.6855 25.2492 51.7448 25.3084C51.8041 25.3677 51.8549 25.4355 51.9227 25.5117C52.0582 25.6896 52.1937 26.147 52.3377 26.9009H54.4299C54.2435 25.5202 53.8708 24.7748 53.3118 24.6647C53.981 24.3682 54.3198 23.8939 54.3198 23.2502C54.3198 21.9881 53.2864 21.3528 51.2112 21.3528C50.4319 21.3528 49.7204 21.4037 49.0851 21.5138L49.0682 26.9009H51.118V25.2068C51.2366 25.2068 51.3552 25.2068 51.4738 25.2153M63.9843 21.5053L59.4866 21.4884L59.4697 26.9347L63.9674 26.9517V25.4186H61.5195V24.9273H63.6625V23.5212H61.528V23.0384H63.9759V21.5053H63.9843ZM72.0904 23.9363C71.9464 24.0294 71.8108 24.0887 71.6753 24.1057C71.5398 24.1226 71.3958 24.1226 71.2518 24.1057V22.9537C71.5821 22.9114 71.8617 22.9707 72.0904 23.1316C72.2259 23.2248 72.2936 23.3603 72.2936 23.5297C72.2936 23.7076 72.2259 23.8346 72.0904 23.9278M69.2274 21.5392L69.2105 26.9601H71.2603V25.5626C71.633 25.588 71.9972 25.571 72.3445 25.5117C73.1576 25.3762 73.7336 25.0459 74.0555 24.5376C74.2418 24.2497 74.3434 23.9109 74.3434 23.5212C74.3434 23.1316 74.2503 22.7928 74.0555 22.5048C73.8606 22.2168 73.6065 21.9966 73.2847 21.8441C72.9628 21.6916 72.624 21.5815 72.2767 21.5138C71.9294 21.446 71.4636 21.4121 70.896 21.4037C70.3285 21.4037 69.7695 21.446 69.2189 21.5307M82.4749 24.8172C82.4749 25.0374 82.441 25.2068 82.3648 25.3169C82.2885 25.4355 82.153 25.4863 81.9497 25.4863C81.7464 25.4863 81.6025 25.427 81.5262 25.3084C81.45 25.1899 81.4161 25.0289 81.4161 24.8087V21.5392H79.324V24.8341C79.324 25.588 79.5442 26.1555 79.9931 26.5282C80.442 26.9009 81.0858 27.0872 81.9328 27.0957C82.7798 27.0957 83.4236 26.9093 83.881 26.5451C84.3383 26.1724 84.567 25.6049 84.567 24.851V21.5561H82.4749V24.8256V24.8172ZM91.8599 25.7404V24.7748C91.97 24.7663 92.0802 24.7579 92.1987 24.7579C92.7578 24.7579 93.0288 24.9273 93.0288 25.2576C93.0288 25.4355 92.9441 25.5626 92.7832 25.6388C92.6223 25.715 92.4359 25.7489 92.2242 25.7489C92.0124 25.7489 91.8938 25.7489 91.8599 25.7404ZM91.8599 23.6991V22.8012C91.97 22.7928 92.0802 22.7843 92.1903 22.7843C92.6392 22.7843 92.8679 22.9283 92.8679 23.2248C92.8679 23.5466 92.6307 23.6991 92.1564 23.6991C92.0039 23.6991 91.9107 23.6991 91.8599 23.6906M89.8864 21.5985L89.8694 27.0025C90.4708 27.0787 91.1738 27.1211 91.9785 27.1211C92.7916 27.1211 93.4693 27.0194 94.0283 26.8246C94.6805 26.5875 95.0024 26.147 95.0109 25.4863C95.0109 25.1475 94.9092 24.868 94.689 24.6562C94.4772 24.436 94.257 24.309 94.0368 24.2581C94.545 24.0125 94.7991 23.6313 94.8076 23.0977C94.8076 22.0135 93.7573 21.4714 91.6397 21.4629C91.1738 21.4629 90.5894 21.5053 89.8948 21.59M100.101 21.59L100.085 27.0364H104.252V25.5202H102.185L102.194 21.5985H100.093L100.101 21.59ZM109.232 27.0533H111.333L111.35 21.6154H109.249L109.232 27.0533ZM118.931 25.2661C118.694 25.0543 118.567 24.7494 118.575 24.3598C118.575 23.9701 118.694 23.6737 118.939 23.4535C119.185 23.2417 119.507 23.1316 119.922 23.1316C120.337 23.1316 120.701 23.1994 121.015 23.3433L121.421 21.878C120.744 21.6493 120.091 21.5392 119.448 21.5307C118.55 21.5307 117.83 21.7763 117.288 22.2846C116.746 22.7928 116.474 23.4789 116.474 24.3428C116.474 25.2068 116.737 25.9014 117.279 26.418C117.813 26.9263 118.533 27.1888 119.431 27.1888C120.074 27.1888 120.727 27.0787 121.404 26.8585L121.006 25.3931C120.684 25.5287 120.32 25.588 119.905 25.588C119.498 25.588 119.168 25.4778 118.931 25.2576" fill="#FF6400"/>
</svg>
