<?xml version="1.0" encoding="UTF-8" standalone="no"?>
<svg
   xmlns:dc="http://purl.org/dc/elements/1.1/"
   xmlns:cc="http://creativecommons.org/ns#"
   xmlns:rdf="http://www.w3.org/1999/02/22-rdf-syntax-ns#"
   xmlns:svg="http://www.w3.org/2000/svg"
   xmlns="http://www.w3.org/2000/svg"
   xmlns:sodipodi="http://sodipodi.sourceforge.net/DTD/sodipodi-0.dtd"
   xmlns:inkscape="http://www.inkscape.org/namespaces/inkscape"
   width="64"
   height="64"
   viewBox="0 0 64 64"
   fill="none"
   version="1.1"
   id="svg8"
   sodipodi:docname="DONKEY_ESTACIO_EMPTY.svg"
   inkscape:version="1.0.2-2 (e86c870879, 2021-01-15)">
  <metadata
     id="metadata14">
    <rdf:RDF>
      <cc:Work
         rdf:about="">
        <dc:format>image/svg+xml</dc:format>
        <dc:type
           rdf:resource="http://purl.org/dc/dcmitype/StillImage" />
        <dc:title></dc:title>
      </cc:Work>
    </rdf:RDF>
  </metadata>
  <defs
     id="defs12" />
  <sodipodi:namedview
     pagecolor="#ffffff"
     bordercolor="#666666"
     borderopacity="1"
     objecttolerance="10"
     gridtolerance="10"
     guidetolerance="10"
     inkscape:pageopacity="0"
     inkscape:pageshadow="2"
     inkscape:window-width="1920"
     inkscape:window-height="1017"
     id="namedview10"
     showgrid="false"
     showguides="true"
     inkscape:lockguides="false"
     inkscape:document-units="px"
     inkscape:zoom="8.8541667"
     inkscape:cx="27.314444"
     inkscape:cy="32.963088"
     inkscape:window-x="-8"
     inkscape:window-y="-8"
     inkscape:window-maximized="1"
     inkscape:current-layer="svg8"
     inkscape:document-rotation="0" />
  <ellipse
     style="opacity:0.994;fill:#ffffff;fill-opacity:1;stroke:#ffffff;stroke-width:2.462;stroke-miterlimit:4;stroke-dasharray:none;stroke-opacity:1"
     id="path842"
     cx="32"
     cy="31.999998"
     rx="30.769236"
     ry="30.769234" />
  <g
     id="g863"
     transform="translate(-0.1645963,-0.1197501)">
    <path
       d="m 32.148164,61.624888 c -16.236862,0 -29.5215677,-13.284706 -29.5215677,-29.521569 0,-16.236863 13.2847057,-29.5215689 29.5215677,-29.5215689 16.236864,0 29.52157,13.2847059 29.52157,29.5215689 0,16.236863 -13.284706,29.521569 -29.52157,29.521569 z"
       fill="#ff6400"
       id="path4"
       style="stroke-width:3.69021;fill:#cccccc" />
    <path
       d="m 21.815616,49.447242 c 0.922548,-0.92255 1.660588,-2.029609 2.398626,-2.952159 0.553531,-0.738039 0.92255,-1.845097 1.47608,-2.583136 0.369018,-0.553531 0.738039,-1.10706 1.291568,-1.660589 0.369019,-0.369019 0.553529,-0.55353 0.92255,-0.922549 0.184509,-0.184511 0.553529,-0.184511 0.738038,0 0.738039,0.738039 1.660589,1.291568 2.767647,1.845097 1.291569,0.738041 2.583138,1.47608 3.136667,2.767648 0.18451,0.36902 0.369019,0.73804 0.18451,1.107059 -0.18451,0.73804 0.184509,1.291569 0.738038,1.845098 0.73804,0.553531 1.660589,1.10706 2.767648,0.922549 0.922548,-0.18451 1.660587,-0.18451 2.583137,-0.369018 1.845098,-0.184511 2.767647,-0.92255 2.767647,-2.767648 0,-0.553529 0,-1.107059 0,-1.660588 -0.184509,-1.107059 -0.184509,-2.214119 -0.55353,-3.321178 -0.369019,-1.107059 -0.369019,-2.214118 -0.369019,-3.321176 0,-1.291569 0.184511,-2.583137 0,-3.874706 -0.18451,-1.845098 -0.553529,-3.505686 -1.660589,-5.166274 -0.184509,-0.18451 -0.184509,-0.55353 0,-0.738039 0.73804,-0.92255 1.10706,-2.029608 1.29157,-3.321177 0.55353,-2.029608 0.922548,-4.059217 1.476079,-6.088823 0.184509,-0.92255 0.369018,-1.845099 1.291568,-2.214118 0.18451,-0.18451 0.36902,-0.36902 0.36902,-0.73804 0,-0.369019 0,-0.922548 0.184509,-1.291567 0,-0.18451 0,-0.369021 -0.369019,-0.369021 -0.369019,0 -0.738039,0 -1.10706,0.184511 -0.738038,0.553529 -1.476078,0.922548 -2.029607,1.660588 -0.738039,0.922548 -1.291569,1.845097 -1.845098,2.952156 -0.553529,1.291568 -1.291568,2.583138 -1.845098,3.690197 -0.36902,0.922548 -1.291569,1.107059 -2.214118,1.107059 -0.553529,0 -0.922549,-0.184511 -1.476078,-0.369021 -0.55353,-0.184509 -1.10706,-0.184509 -1.476079,0.369021 -0.18451,0.18451 -0.553529,0.369018 -0.738039,0.18451 -0.36902,-0.18451 -0.553529,-0.553531 -0.92255,-0.92255 -0.922548,-1.291569 -1.291567,-2.952157 -2.029606,-4.243725 -0.369021,-1.107058 -0.92255,-2.214118 -1.476079,-3.321177 -0.55353,-1.107058 -1.47608,-1.660588 -2.398627,-2.398628 -0.36902,-0.369018 -0.738041,-0.184509 -0.922549,0.184511 0,0.184509 -0.18451,0.553529 0,0.738038 0.369019,0.92255 0.369019,2.029609 0.369019,2.952157 0,0.738041 -0.184511,1.660588 -0.184511,2.398628 0,0.55353 0,0.922548 -0.184508,1.476077 -0.18451,0.738041 -0.18451,1.47608 0.184508,2.029609 0,0.18451 0.184511,0.553529 0,0.738039 -0.369018,0.73804 -0.922547,1.107059 -1.660587,1.476079 -0.55353,0.184509 -1.291569,0.553529 -1.845098,0.922549 -1.291568,0.922549 -2.767647,2.029607 -4.059216,2.952157 -0.18451,0 -0.18451,0.184509 -0.369019,0.184509 -1.47608,0.184511 -2.952157,0.92255 -4.243726,1.660588 -1.476078,0.73804 -2.9521567,1.29157 -4.6127448,1.29157 -0.5535293,0 -1.2915683,0 -1.8450986,0 -0.9225478,0 -1.8450977,0.184509 -2.7676475,0.369019 0.1845108,9.779019 5.535296,18.45098 13.2847069,23.432745 0.18451,-0.36902 0.369019,-0.738038 0.553529,-0.922549 1.291569,-2.214118 2.952157,-4.059216 4.428236,-5.904312 z"
       fill="#ffffff"
       id="path8"
       style="stroke-width:3.69021" />
  </g>
</svg>
