<svg width="64" height="65" viewBox="0 0 64 65" fill="none" xmlns="http://www.w3.org/2000/svg">
<circle cx="32" cy="32.4004" r="32" fill="#FF6400"/>
<g clip-path="url(#clip0_3292_30770)">
<path d="M52.14 32.0507C50.38 30.2907 47.86 29.2507 45.4 29.2507C44.34 29.2507 43.3 29.4707 42.28 29.8507L38.7 23.1907L41.24 19.4707H44.46C45.28 19.4707 45.96 18.7907 45.96 17.9707C45.96 17.1507 45.28 16.4707 44.46 16.4707H40.46H40.42H35.48C34.66 16.4707 33.98 17.1507 33.98 17.9707C33.98 18.7907 34.66 19.4707 35.48 19.4707H37.62L35.64 22.3907H25.34C24.1 19.8307 21.46 16.4707 17.5 16.4707C16.68 16.4707 16 17.1507 16 17.9707C16 18.7907 16.68 19.4707 17.5 19.4707C20.12 19.4707 21.98 22.2707 22.72 23.8507L20.06 29.6507C19.22 29.4107 18.36 29.2507 17.5 29.2507C15.2 29.2507 12.96 30.1707 10.76 32.0507C8.99996 33.8107 7.95996 36.3307 7.95996 38.7907C7.95996 41.0907 8.87996 43.3307 10.68 45.4507C10.72 45.5107 10.78 45.5707 10.84 45.6107C12.96 47.4107 15.18 48.3307 17.5 48.3307C19.82 48.3307 22.04 47.4107 24.24 45.5307C26 43.7707 27.04 41.2507 27.04 38.7907C27.04 36.4907 26.12 34.2507 24.24 32.0507C23.8 31.6107 23.32 31.2107 22.8 30.8707L24.46 27.2707L29.9 37.5907C30.16 38.0907 30.66 38.3907 31.22 38.3907H35.92C35.92 38.5307 35.88 38.6507 35.88 38.7907C35.88 41.0907 36.8 43.3307 38.68 45.5307C40.44 47.2907 42.96 48.3307 45.42 48.3307C47.72 48.3307 49.96 47.4107 52.16 45.5307C53.92 43.7707 54.96 41.2507 54.96 38.7907C54.96 36.4907 54.04 34.2507 52.16 32.0507H52.14ZM22.02 34.0907C23.36 35.6707 24.02 37.1907 24.02 38.7907C24.02 40.3907 23.28 42.2107 22.18 43.3307C19.06 46.0107 15.98 46.0307 12.86 43.4107C11.56 41.8707 10.94 40.3507 10.94 38.7907C10.94 37.1307 11.68 35.3707 12.78 34.2507C14.36 32.9107 15.9 32.2507 17.48 32.2507C17.9 32.2507 18.34 32.3107 18.78 32.3907L16.12 38.1707C15.78 38.9307 16.12 39.8107 16.86 40.1507C17.06 40.2507 17.28 40.2907 17.48 40.2907C18.04 40.2907 18.58 39.9707 18.84 39.4107L21.48 33.6707C21.66 33.8107 21.86 33.9307 22 34.0907H22.02ZM36.52 35.3907H32.1L26.82 25.3707H36.16C36.16 25.3707 36.24 25.3707 36.28 25.3707C36.32 25.3707 36.38 25.3707 36.42 25.3707L39.64 31.3107C39.32 31.5507 38.98 31.7707 38.66 32.0507C37.72 32.9907 37 34.1507 36.52 35.3907ZM50.1 43.3307C48.52 44.6707 46.98 45.3307 45.4 45.3307C43.82 45.3307 41.98 44.5907 40.86 43.4907C39.52 41.9107 38.86 40.3707 38.86 38.7907C38.86 37.2107 39.6 35.3707 40.7 34.2507C40.82 34.1507 40.96 34.0707 41.08 33.9707L44.08 39.5107C44.36 40.0107 44.86 40.2907 45.4 40.2907C45.64 40.2907 45.88 40.2307 46.12 40.1107C46.84 39.7107 47.12 38.8107 46.72 38.0707L43.72 32.5107C44.28 32.3507 44.84 32.2307 45.4 32.2307C47.06 32.2307 48.82 32.9707 49.94 34.0707C51.28 35.6507 51.94 37.1707 51.94 38.7707C51.94 40.3707 51.2 42.1907 50.1 43.3107V43.3307Z" fill="white"/>
</g>
<defs>
<clipPath id="clip0_3292_30770">
<rect width="48" height="48" fill="white" transform="translate(7.95996 8.4707)"/>
</clipPath>
</defs>
</svg>
