<?xml version="1.0" encoding="UTF-8" standalone="no"?>
<!-- Created with Inkscape (http://www.inkscape.org/) -->

<svg
   xmlns:dc="http://purl.org/dc/elements/1.1/"
   xmlns:cc="http://creativecommons.org/ns#"
   xmlns:rdf="http://www.w3.org/1999/02/22-rdf-syntax-ns#"
   xmlns:svg="http://www.w3.org/2000/svg"
   xmlns="http://www.w3.org/2000/svg"
   xmlns:sodipodi="http://sodipodi.sourceforge.net/DTD/sodipodi-0.dtd"
   xmlns:inkscape="http://www.inkscape.org/namespaces/inkscape"
   width="64"
   height="64"
   viewBox="0 0 64 64"
   id="svg2"
   sodipodi:version="0.32"
   inkscape:version="0.91 r13725"
   version="1.0"
   sodipodi:docname="elevator.svg">
  <defs
     id="defs4" />
  <sodipodi:namedview
     id="base"
     pagecolor="#ffffff"
     bordercolor="#666666"
     borderopacity="1.0"
     inkscape:pageopacity="0"
     inkscape:pageshadow="2"
     inkscape:zoom="6.7121951"
     inkscape:cx="5.0903771"
     inkscape:cy="63.672966"
     inkscape:document-units="px"
     inkscape:current-layer="layer1"
     inkscape:window-width="2560"
     inkscape:window-height="1334"
     inkscape:window-x="0"
     inkscape:window-y="27"
     showgrid="false"
     showguides="true"
     inkscape:guide-bbox="true"
     fit-margin-top="0"
     fit-margin-left="0"
     fit-margin-right="0"
     fit-margin-bottom="0"
     inkscape:window-maximized="1">
    <sodipodi:guide
       position="491.60553,-295.86089"
       orientation="0,1"
       id="guide4185" />
  </sodipodi:namedview>
  <metadata
     id="metadata7">
    <rdf:RDF>
      <cc:Work
         rdf:about="">
        <dc:format>image/svg+xml</dc:format>
        <dc:type
           rdf:resource="http://purl.org/dc/dcmitype/StillImage" />
        <dc:title></dc:title>
      </cc:Work>
    </rdf:RDF>
  </metadata>
  <g
     inkscape:label="Capa 1"
     inkscape:groupmode="layer"
     id="layer1"
     transform="translate(-219.93518,-675.83933)">
    <g
       id="g4187"
       transform="matrix(0.13084003,0,0,0.13084003,204.81234,643.19467)">
      <rect
         ry="36.481171"
         y="441.14871"
         x="209.20844"
         height="297.49875"
         width="299.18427"
         id="rect11925"
         style="fill:#000000;fill-opacity:1;stroke:none;stroke-width:1.60000002;stroke-linecap:square;stroke-linejoin:round;stroke-miterlimit:4;stroke-dasharray:none;stroke-opacity:1"
         rx="36.481171" />
      <rect
         ry="0"
         y="482.86597"
         x="251.34706"
         height="214.90701"
         width="216.17117"
         id="rect14834"
         style="fill:#ffffff;fill-opacity:1;stroke:none;stroke-width:1.60000002;stroke-linecap:square;stroke-linejoin:round;stroke-miterlimit:4;stroke-dasharray:none;stroke-opacity:1" />
      <g
         style="fill:#000000;fill-opacity:1;stroke:#000000;stroke-opacity:1"
         id="g9962">
        <path
           sodipodi:type="arc"
           style="opacity:1;fill:#000000;fill-opacity:1;stroke:#000000;stroke-width:1.60000002;stroke-linecap:square;stroke-linejoin:round;stroke-miterlimit:4;stroke-dasharray:none;stroke-opacity:1"
           id="path8981"
           sodipodi:cx="195.94464"
           sodipodi:cy="135.46239"
           sodipodi:rx="22.326078"
           sodipodi:ry="26.754066"
           d="m 208.53936,113.37186 a 22.326078,26.754066 0 0 1 8.69695,30.13976 22.326078,26.754066 0 0 1 -21.55543,18.70297 22.326078,26.754066 0 0 1 -21.18067,-19.30803"
           transform="matrix(0.7846,0,0,0.6619453,188.9583,244.23362)"
           sodipodi:start="5.3117634"
           sodipodi:end="2.8596268"
           sodipodi:open="true" />
        <path
           sodipodi:type="arc"
           style="opacity:1;fill:#000000;fill-opacity:1;stroke:#000000;stroke-width:1.60000002;stroke-linecap:square;stroke-linejoin:round;stroke-miterlimit:4;stroke-dasharray:none;stroke-opacity:1"
           id="path8983"
           sodipodi:cx="195.94464"
           sodipodi:cy="135.46239"
           sodipodi:rx="24.01902"
           sodipodi:ry="27.39011"
           d="m 216.23704,120.80847 a 24.01902,27.39011 0 0 1 -3.78297,34.54813 24.01902,27.39011 0 0 1 -30.45848,2.40357 24.01902,27.39011 0 0 1 -7.91996,-33.62461"
           transform="matrix(0.8327303,0,0,0.6840878,124.34249,315.60749)"
           sodipodi:start="5.7186684"
           sodipodi:end="3.5679281"
           sodipodi:open="true" />
        <path
           sodipodi:type="arc"
           style="opacity:1;fill:#000000;fill-opacity:1;stroke:#000000;stroke-width:1.60000002;stroke-linecap:square;stroke-linejoin:round;stroke-miterlimit:4;stroke-dasharray:none;stroke-opacity:1"
           id="path8985"
           sodipodi:cx="195.94464"
           sodipodi:cy="135.46239"
           sodipodi:rx="24.01902"
           sodipodi:ry="27.39011"
           d="m 173.4785,125.77371 a 24.01902,27.39011 0 0 1 20.25362,-17.58498 24.01902,27.39011 0 0 1 22.73879,13.04962"
           transform="matrix(0.6881213,0,0,0.557277,152.46715,190.5677)"
           sodipodi:start="3.5031474"
           sodipodi:end="5.7371385"
           sodipodi:open="true" />
        <rect
           style="opacity:1;fill:#000000;fill-opacity:1;stroke:#000000;stroke-width:1.59614193;stroke-linecap:square;stroke-linejoin:round;stroke-miterlimit:4;stroke-dasharray:none;stroke-opacity:1"
           id="rect8987"
           width="99.277641"
           height="34.652412"
           x="-114.34281"
           y="374.90018"
           transform="matrix(0.6373949,-0.7705373,0.7674411,0.6411195,0,0)"
           ry="8.317997" />
        <rect
           style="opacity:1;fill:#000000;fill-opacity:1;stroke:#000000;stroke-width:1.59614193;stroke-linecap:square;stroke-linejoin:round;stroke-miterlimit:4;stroke-dasharray:none;stroke-opacity:1"
           id="rect8989"
           width="102.2452"
           height="34.815559"
           x="-483.82874"
           y="31.089006"
           transform="matrix(-0.6419541,-0.7667431,0.7698433,-0.6382329,0,0)"
           ry="9.8207321" />
        <path
           sodipodi:type="arc"
           style="opacity:1;fill:#000000;fill-opacity:1;stroke:#000000;stroke-width:1.60000002;stroke-linecap:square;stroke-linejoin:round;stroke-miterlimit:4;stroke-dasharray:none;stroke-opacity:1"
           id="path7041"
           sodipodi:cx="195.94464"
           sodipodi:cy="135.46239"
           sodipodi:rx="24.01902"
           sodipodi:ry="27.39011"
           d="m 218.87387,143.61918 a 24.01902,27.39011 0 0 1 -23.5211,19.225 24.01902,27.39011 0 0 1 -22.66193,-20.52316 24.01902,27.39011 0 0 1 11.09393,-30.47934"
           transform="matrix(0.7290548,0,0,0.6627706,90.146547,244.19724)"
           sodipodi:start="0.30238796"
           sodipodi:end="4.1815463"
           sodipodi:open="true" />
        <rect
           style="opacity:1;fill:#000000;fill-opacity:1;stroke:#000000;stroke-width:1.9489578;stroke-linecap:square;stroke-linejoin:round;stroke-miterlimit:4;stroke-dasharray:none;stroke-opacity:1"
           id="rect8991"
           width="125.00758"
           height="39.519062"
           x="-413.78915"
           y="268.87262"
           transform="matrix(0.00315005,-0.999995,0.9999515,0.00985288,0,0)"
           ry="9.4316044"
           inkscape:transform-center-x="-44.91277"
           inkscape:transform-center-y="-20.501219" />
      </g>
      <g
         style="fill:#000000;fill-opacity:1;stroke:#000200;stroke-opacity:1"
         transform="matrix(-0.9999956,-0.00294749,0.00294749,-0.9999956,724.39415,677.89352)"
         id="g9971">
        <path
           sodipodi:type="arc"
           style="opacity:1;fill:#000000;fill-opacity:1;stroke:#000200;stroke-width:1.60000002;stroke-linecap:square;stroke-linejoin:round;stroke-miterlimit:4;stroke-dasharray:none;stroke-opacity:1"
           id="path9973"
           sodipodi:cx="195.94464"
           sodipodi:cy="135.46239"
           sodipodi:rx="22.326078"
           sodipodi:ry="26.754066"
           d="m 208.53936,113.37186 a 22.326078,26.754066 0 0 1 8.69695,30.13976 22.326078,26.754066 0 0 1 -21.55543,18.70297 22.326078,26.754066 0 0 1 -21.18067,-19.30803"
           transform="matrix(0.7846,0,0,0.6619453,188.9583,244.23362)"
           sodipodi:start="5.3117634"
           sodipodi:end="2.8596268"
           sodipodi:open="true" />
        <path
           sodipodi:type="arc"
           style="opacity:1;fill:#000000;fill-opacity:1;stroke:#000200;stroke-width:1.60000002;stroke-linecap:square;stroke-linejoin:round;stroke-miterlimit:4;stroke-dasharray:none;stroke-opacity:1"
           id="path9975"
           sodipodi:cx="195.94464"
           sodipodi:cy="135.46239"
           sodipodi:rx="24.01902"
           sodipodi:ry="27.39011"
           d="m 216.23704,120.80847 a 24.01902,27.39011 0 0 1 -3.78297,34.54813 24.01902,27.39011 0 0 1 -30.45848,2.40357 24.01902,27.39011 0 0 1 -7.91996,-33.62461"
           transform="matrix(0.8327303,0,0,0.6840878,124.34249,315.60749)"
           sodipodi:start="5.7186684"
           sodipodi:end="3.5679281"
           sodipodi:open="true" />
        <path
           sodipodi:type="arc"
           style="opacity:1;fill:#000000;fill-opacity:1;stroke:#000200;stroke-width:1.60000002;stroke-linecap:square;stroke-linejoin:round;stroke-miterlimit:4;stroke-dasharray:none;stroke-opacity:1"
           id="path9977"
           sodipodi:cx="195.94464"
           sodipodi:cy="135.46239"
           sodipodi:rx="24.01902"
           sodipodi:ry="27.39011"
           d="m 173.4785,125.77371 a 24.01902,27.39011 0 0 1 20.25362,-17.58498 24.01902,27.39011 0 0 1 22.73879,13.04962"
           transform="matrix(0.6881213,0,0,0.557277,152.46715,190.5677)"
           sodipodi:start="3.5031474"
           sodipodi:end="5.7371385"
           sodipodi:open="true" />
        <rect
           style="opacity:1;fill:#000000;fill-opacity:1;stroke:#000200;stroke-width:1.59614193;stroke-linecap:square;stroke-linejoin:round;stroke-miterlimit:4;stroke-dasharray:none;stroke-opacity:1"
           id="rect9979"
           width="99.277641"
           height="34.652412"
           x="-114.34281"
           y="374.90018"
           transform="matrix(0.6373949,-0.7705373,0.7674411,0.6411195,0,0)"
           ry="8.317997" />
        <rect
           style="opacity:1;fill:#000000;fill-opacity:1;stroke:#000200;stroke-width:1.59614193;stroke-linecap:square;stroke-linejoin:round;stroke-miterlimit:4;stroke-dasharray:none;stroke-opacity:1"
           id="rect9981"
           width="102.2452"
           height="34.815559"
           x="-483.82874"
           y="31.089006"
           transform="matrix(-0.6419541,-0.7667431,0.7698433,-0.6382329,0,0)"
           ry="9.8207321" />
        <path
           sodipodi:type="arc"
           style="opacity:1;fill:#000000;fill-opacity:1;stroke:#000200;stroke-width:1.60000002;stroke-linecap:square;stroke-linejoin:round;stroke-miterlimit:4;stroke-dasharray:none;stroke-opacity:1"
           id="path9983"
           sodipodi:cx="195.94464"
           sodipodi:cy="135.46239"
           sodipodi:rx="24.01902"
           sodipodi:ry="27.39011"
           d="m 218.87387,143.61918 a 24.01902,27.39011 0 0 1 -23.5211,19.225 24.01902,27.39011 0 0 1 -22.66193,-20.52316 24.01902,27.39011 0 0 1 11.09393,-30.47934"
           transform="matrix(0.7290548,0,0,0.6627706,90.146547,244.19724)"
           sodipodi:start="0.30238796"
           sodipodi:end="4.1815463"
           sodipodi:open="true" />
        <rect
           style="opacity:1;fill:#000000;fill-opacity:1;stroke:#000200;stroke-width:1.9489578;stroke-linecap:square;stroke-linejoin:round;stroke-miterlimit:4;stroke-dasharray:none;stroke-opacity:1"
           id="rect9985"
           width="125.00758"
           height="39.519062"
           x="-413.78915"
           y="268.87262"
           transform="matrix(0.00315005,-0.999995,0.9999515,0.00985288,0,0)"
           ry="9.4316044"
           inkscape:transform-center-x="-44.91277"
           inkscape:transform-center-y="-20.501219" />
      </g>
      <g
         style="fill:#000000;fill-opacity:1"
         id="g21645">
        <path
           sodipodi:type="arc"
           style="opacity:1;fill:#000000;fill-opacity:1;stroke:none;stroke-width:1.60000002;stroke-linecap:square;stroke-linejoin:round;stroke-miterlimit:4;stroke-dasharray:none;stroke-opacity:1"
           id="path16774"
           sodipodi:cx="242.92921"
           sodipodi:cy="322.76859"
           sodipodi:rx="12.852283"
           sodipodi:ry="13.273668"
           d="m 236.4626,311.29749 a 12.852283,13.273668 0 0 1 17.56772,4.78213 12.852283,13.273668 0 0 1 -4.61449,18.14801 12.852283,13.273668 0 0 1 -17.57604,-4.74943 12.852283,13.273668 0 0 1 4.58283,-18.15657 l 6.50659,11.44696 z"
           transform="matrix(1.0819611,0,0,1.0793614,34.221343,175.85014)"
           sodipodi:start="4.1851502"
           sodipodi:end="4.1815467" />
        <rect
           style="opacity:1;fill:#000000;fill-opacity:1;stroke:none;stroke-width:1.60000002;stroke-linecap:square;stroke-linejoin:round;stroke-miterlimit:4;stroke-dasharray:none;stroke-opacity:1"
           id="rect19687"
           width="62.78656"
           height="69.950119"
           x="265.45734"
           y="542.35376"
           ry="8.4277267" />
        <rect
           style="opacity:1;fill:#000000;fill-opacity:1;stroke:none;stroke-width:1.60000002;stroke-linecap:square;stroke-linejoin:round;stroke-miterlimit:4;stroke-dasharray:none;stroke-opacity:1"
           id="rect21633"
           width="18.119612"
           height="89.755287"
           x="277.25613"
           y="601.34778"
           ry="9.0598059" />
        <rect
           style="opacity:1;fill:#000000;fill-opacity:1;stroke:none;stroke-width:1.60000002;stroke-linecap:square;stroke-linejoin:round;stroke-miterlimit:4;stroke-dasharray:none;stroke-opacity:1"
           id="rect21635"
           width="18.119612"
           height="89.755287"
           x="298.42447"
           y="601.5332"
           ry="9.0598059" />
      </g>
      <g
         style="fill:#000000;fill-opacity:1"
         id="g21651">
        <path
           sodipodi:type="arc"
           style="opacity:1;fill:#000000;fill-opacity:1;stroke:none;stroke-width:1.60000002;stroke-linecap:square;stroke-linejoin:round;stroke-miterlimit:4;stroke-dasharray:none;stroke-opacity:1"
           id="path17745"
           sodipodi:cx="242.92921"
           sodipodi:cy="322.76859"
           sodipodi:rx="12.852283"
           sodipodi:ry="13.273668"
           d="m 236.4626,311.29749 a 12.852283,13.273668 0 0 1 17.56772,4.78213 12.852283,13.273668 0 0 1 -4.61449,18.14801 12.852283,13.273668 0 0 1 -17.57604,-4.74943 12.852283,13.273668 0 0 1 4.58283,-18.15657 l 6.50659,11.44696 z"
           transform="matrix(1.0819611,0,0,1.0793614,100.26767,175.82486)"
           sodipodi:start="4.1851502"
           sodipodi:end="4.1815467" />
        <rect
           style="opacity:1;fill:#000000;fill-opacity:1;stroke:none;stroke-width:1.60000002;stroke-linecap:square;stroke-linejoin:round;stroke-miterlimit:4;stroke-dasharray:none;stroke-opacity:1"
           id="rect21627"
           width="62.78656"
           height="69.950119"
           x="331.71396"
           y="542.32843"
           ry="8.4277267" />
        <rect
           style="opacity:1;fill:#000000;fill-opacity:1;stroke:none;stroke-width:1.60000002;stroke-linecap:square;stroke-linejoin:round;stroke-miterlimit:4;stroke-dasharray:none;stroke-opacity:1"
           id="rect21637"
           width="18.119612"
           height="89.755287"
           x="343.0914"
           y="601.5332"
           ry="9.0598059" />
        <rect
           style="opacity:1;fill:#000000;fill-opacity:1;stroke:none;stroke-width:1.60000002;stroke-linecap:square;stroke-linejoin:round;stroke-miterlimit:4;stroke-dasharray:none;stroke-opacity:1"
           id="rect21639"
           width="18.119612"
           height="89.755287"
           x="364.16074"
           y="601.5332"
           ry="9.0598059" />
      </g>
      <g
         style="fill:#000000;fill-opacity:1"
         id="g21657">
        <path
           sodipodi:type="arc"
           style="opacity:1;fill:#000000;fill-opacity:1;stroke:none;stroke-width:1.60000002;stroke-linecap:square;stroke-linejoin:round;stroke-miterlimit:4;stroke-dasharray:none;stroke-opacity:1"
           id="path18716"
           sodipodi:cx="242.92921"
           sodipodi:cy="322.76859"
           sodipodi:rx="12.852283"
           sodipodi:ry="13.273668"
           d="m 236.4626,311.29749 a 12.852283,13.273668 0 0 1 17.56772,4.78213 12.852283,13.273668 0 0 1 -4.61449,18.14801 12.852283,13.273668 0 0 1 -17.57604,-4.74943 12.852283,13.273668 0 0 1 4.58283,-18.15657 l 6.50659,11.44696 z"
           transform="matrix(1.0819611,0,0,1.0793614,166.42532,175.82486)"
           sodipodi:start="4.1851502"
           sodipodi:end="4.1815467" />
        <rect
           style="opacity:1;fill:#000000;fill-opacity:1;stroke:none;stroke-width:1.60000002;stroke-linecap:square;stroke-linejoin:round;stroke-miterlimit:4;stroke-dasharray:none;stroke-opacity:1"
           id="rect21631"
           width="62.78656"
           height="69.950119"
           x="397.45023"
           y="542.32843"
           ry="8.4277267" />
        <rect
           style="opacity:1;fill:#000000;fill-opacity:1;stroke:none;stroke-width:1.60000002;stroke-linecap:square;stroke-linejoin:round;stroke-miterlimit:4;stroke-dasharray:none;stroke-opacity:1"
           id="rect21641"
           width="18.119612"
           height="89.755287"
           x="409.24908"
           y="601.11182"
           ry="9.0598059" />
        <rect
           style="opacity:1;fill:#000000;fill-opacity:1;stroke:none;stroke-width:1.60000002;stroke-linecap:square;stroke-linejoin:round;stroke-miterlimit:4;stroke-dasharray:none;stroke-opacity:1"
           id="rect21643"
           width="18.119612"
           height="89.755287"
           x="430.31836"
           y="601.5332"
           ry="9.0598059" />
      </g>
    </g>
  </g>
</svg>
