<?xml version="1.0" encoding="UTF-8" standalone="no"?>
<!-- Uploaded to: SVG Repo, www.svgrepo.com, Generator: SVG Repo Mixer Tools -->

<svg
   height="64px"
   width="64px"
   version="1.1"
   id="Capa_1"
   viewBox="0 0 47.5 47.5"
   xml:space="preserve"
   sodipodi:docname="ESTA_BUS.svg"
   inkscape:version="1.2.2 (732a01da63, 2022-12-09)"
   xmlns:inkscape="http://www.inkscape.org/namespaces/inkscape"
   xmlns:sodipodi="http://sodipodi.sourceforge.net/DTD/sodipodi-0.dtd"
   xmlns="http://www.w3.org/2000/svg"
   xmlns:svg="http://www.w3.org/2000/svg"><defs
   id="defs6837" /><sodipodi:namedview
   id="namedview6835"
   pagecolor="#ffffff"
   bordercolor="#000000"
   borderopacity="0.25"
   inkscape:showpageshadow="2"
   inkscape:pageopacity="0.0"
   inkscape:pagecheckerboard="0"
   inkscape:deskcolor="#d1d1d1"
   showgrid="false"
   inkscape:zoom="9.6895726"
   inkscape:cx="29.103451"
   inkscape:cy="31.58034"
   inkscape:window-width="1350"
   inkscape:window-height="1041"
   inkscape:window-x="1011"
   inkscape:window-y="42"
   inkscape:window-maximized="0"
   inkscape:current-layer="g6832" />
<g
   id="g6832">
<rect
   style="fill:white;stroke:#000000;stroke-width:1.29292"
   id="rect6937"
   width="46.199162"
   height="46.199162"
   x="0.60703963"
   y="0.68363613" />
	<path
   style="fill:#010002;stroke-width:0.810808"
   d="m 11.474462,28.21546 c 1.82292,0 3.300602,1.396955 3.300602,3.120286 0,1.72333 -1.477682,3.120285 -3.300602,3.120285 -1.8229175,0 -3.3005976,-1.396955 -3.3005976,-3.120285 0,-1.722542 1.4776801,-3.120286 3.3005976,-3.120286 z m 22.446261,0 c 1.82292,0 3.300602,1.396955 3.300602,3.120286 0,1.72333 -1.477682,3.120285 -3.300602,3.120285 -1.822919,0 -3.300602,-1.396955 -3.300602,-3.120285 0,-1.722542 1.477683,-3.120286 3.300602,-3.120286 z m 9.90264,2.496702 h -5.327829 c -0.32022,-2.117506 -2.246544,-3.744657 -4.574811,-3.744657 -2.328267,0 -4.253757,1.627151 -4.574811,3.744657 H 16.049273 c -0.32022,-2.117506 -2.246544,-3.744657 -4.574811,-3.744657 -2.3282626,0 -4.2537527,1.627151 -4.5748068,3.744657 H 4.2128085 V 16.981488 c 0,-1.378822 1.1824794,-2.496701 2.6409819,-2.496701 H 40.522761 c 1.458503,0 2.640982,1.117879 2.640982,2.496701 z M 42.173062,16.981488 h -2.310755 v 8.737271 h 2.640982 z m -4.951737,4.993402 v -4.992614 h -6.602038 v 4.992614 z m -7.922111,-4.993402 h -6.602039 v 4.992614 h 6.602039 z m -7.922113,0 h -6.602037 v 4.992614 h 6.602037 z m -7.922111,0 H 6.8537904 v 4.992614 h 6.6020336 v -4.992614 z"
   id="path6830"
   sodipodi:nodetypes="ssssssssssccsccsccssscccccccccccccccccccccccccccc" />
   </g>
</svg>
