<?xml version="1.0" encoding="utf-8"?>
<!-- Generator: Adobe Illustrator 24.0.1, SVG Export Plug-In . SVG Version: 6.00 Build 0)  -->
<svg version="1.1" id="Capa_1" xmlns="http://www.w3.org/2000/svg" xmlns:xlink="http://www.w3.org/1999/xlink" x="0px" y="0px"
	 viewBox="0 0 95 95" style="enable-background:new 0 0 95 95;" xml:space="preserve">
<style type="text/css">
	.st0{fill:#93D500;}
	.st1{fill:#FFFFFF;}
</style>
<g>
	<rect y="0" class="st0" width="95" height="95"/>
	<g>
		<path class="st1" d="M70.1,90.3H59.6c-0.7,0-1-0.8-0.5-1.3l20.4-19c1.4-1.3,2.2-3.2,2.2-5.1v-9.3c0-2.3-1.8-4.1-4.1-4.1h-9.9
			c-1.4,0-2.8,0.5-3.9,1.5L41.2,73.4c-0.1,0.1-0.3,0.2-0.5,0.2h-5.1c-0.4,0-0.8-0.3-0.8-0.8v-5c0-0.2,0.1-0.4,0.2-0.6L59,45.5
			c2.1-1.9,4.8-3,7.6-3H78c6.9,0,12.6,5.6,12.6,12.6v9.3c0,4.7-2,9.2-5.5,12.4L70.6,90.1C70.5,90.2,70.3,90.3,70.1,90.3"/>
		<path class="st1" d="M38.3,42.7L23.9,56c-3.5,3.2-5.5,7.7-5.5,12.4v9.3c0,6.9,5.6,12.6,12.6,12.6h11.4c2.8,0,5.6-1.1,7.6-3
			l23.9-21.8c0.2-0.1,0.2-0.3,0.2-0.6v-5c0-0.4-0.3-0.8-0.8-0.8h-5.1c-0.2,0-0.4,0.1-0.5,0.2L45.1,79.8c-1.1,1-2.4,1.5-3.9,1.5h-9.9
			c-2.3,0-4.1-1.8-4.1-4.1v-9.3c0-1.9,0.8-3.8,2.2-5.1l20.4-19c0.5-0.5,0.2-1.3-0.5-1.3H38.8C38.6,42.5,38.4,42.6,38.3,42.7"/>
	</g>
	<g>
		<path class="st1" d="M70.1,90.3H59.6c-0.7,0-1-0.8-0.5-1.3l20.4-19c1.4-1.3,2.2-3.2,2.2-5.1v-9.3c0-2.3-1.8-4.1-4.1-4.1h-9.9
			c-1.4,0-2.8,0.5-3.9,1.5L41.2,73.4c-0.1,0.1-0.3,0.2-0.5,0.2h-5.1c-0.4,0-0.8-0.3-0.8-0.8v-5c0-0.2,0.1-0.4,0.2-0.6L59,45.5
			c2.1-1.9,4.8-3,7.6-3H78c6.9,0,12.6,5.6,12.6,12.6v9.3c0,4.7-2,9.2-5.5,12.4L70.6,90.1C70.5,90.2,70.3,90.3,70.1,90.3"/>
		<path class="st1" d="M38.3,42.7L23.9,56c-3.5,3.2-5.5,7.7-5.5,12.4v9.3c0,6.9,5.6,12.6,12.6,12.6h11.4c2.8,0,5.6-1.1,7.6-3
			l23.9-21.8c0.2-0.1,0.2-0.3,0.2-0.6v-5c0-0.4-0.3-0.8-0.8-0.8h-5.1c-0.2,0-0.4,0.1-0.5,0.2L45.1,79.8c-1.1,1-2.4,1.5-3.9,1.5h-9.9
			c-2.3,0-4.1-1.8-4.1-4.1v-9.3c0-1.9,0.8-3.8,2.2-5.1l20.4-19c0.5-0.5,0.2-1.3-0.5-1.3H38.8C38.6,42.5,38.4,42.6,38.3,42.7"/>
	</g>
</g>
</svg>
