<?xml version="1.0" encoding="utf-8"?>
<!-- Generator: Adobe Illustrator 24.0.1, SVG Export Plug-In . SVG Version: 6.00 Build 0)  -->
<svg version="1.1" id="Capa_1" xmlns="http://www.w3.org/2000/svg" xmlns:xlink="http://www.w3.org/1999/xlink" x="0px" y="0px"
	 viewBox="0 0 35 35" style="enable-background:new 0 0 35 35;" xml:space="preserve">
<style type="text/css">
	.st0{fill:#1095A6;}
	.st1{fill:#FFFFFF;}
</style>
<g>
	<rect class="st0" width="35" height="35"/>
	<path class="st1" d="M6.8,16.1h4.4c1.8,0,2.8-0.8,2.8-2.6c0-1.8-1-2.6-2.8-2.6H6.8V16.1z M2.7,7.7h10c3.3,0,5.4,2.3,5.4,5.1
		c0,2.2-0.9,3.8-2.9,4.6v0.1c2,0.5,2.6,2.5,2.7,4.3c0.1,1.2,0.1,3.3,0.8,4.4h-4.1c-0.5-1.2-0.4-2.9-0.6-4.4c-0.3-1.9-1-2.8-3.1-2.8
		H6.8v7.2H2.7V7.7z"/>
	<path class="st1" d="M32.5,11.1h-7.5l-0.7,4.1l0.1,0.1c1-1,2.1-1.4,3.5-1.4c3.6,0,5.6,2.8,5.6,6.2c0,3.7-3.1,6.6-6.7,6.5
		c-3.5,0-6.7-1.9-6.7-5.7h3.7c0.2,1.6,1.4,2.7,3,2.7c1.9,0,3.1-1.7,3.1-3.5c0-1.9-1.2-3.4-3.1-3.4c-1.3,0-2,0.5-2.8,1.4h-3.3l1.8-10
		h10.1V11.1z"/>
</g>
</svg>
