<?xml version="1.0" encoding="UTF-8" standalone="yes"?>
<svg xmlns="http://www.w3.org/2000/svg" xmlns:xlink="http://www.w3.org/1999/xlink" width="64px" height="64px" viewBox="0 0 64 64" version="1.1">
  <g id="surface1">
    <rect x="0" y="0" width="64" height="64" style="fill:rgb(57.647061%,83.529413%,0%);fill-opacity:1;stroke:none;"/>
    <path style=" stroke:none;fill-rule:nonzero;fill:rgb(100%,100%,100%);fill-opacity:1;" d="M 47.222656 60.832031 L 40.152344 60.832031 C 39.683594 60.832031 39.480469 60.296875 39.8125 59.957031 L 53.558594 47.15625 C 54.5 46.28125 55.042969 45 55.042969 43.722656 L 55.042969 37.457031 C 55.042969 35.90625 53.828125 34.691406 52.277344 34.691406 L 45.609375 34.691406 C 44.667969 34.691406 43.722656 35.03125 42.980469 35.703125 L 27.753906 49.449219 C 27.6875 49.515625 27.550781 49.582031 27.417969 49.582031 L 23.984375 49.582031 C 23.714844 49.582031 23.441406 49.378906 23.441406 49.042969 L 23.441406 45.675781 C 23.441406 45.542969 23.511719 45.40625 23.578125 45.269531 L 39.746094 30.652344 C 41.160156 29.375 42.980469 28.628906 44.871094 28.628906 L 52.546875 28.628906 C 57.199219 28.628906 61.035156 32.40625 61.035156 37.121094 L 61.035156 43.386719 C 61.035156 46.550781 59.6875 49.582031 57.328125 51.738281 L 47.5625 60.699219 C 47.496094 60.765625 47.359375 60.832031 47.222656 60.832031 "/>
    <path style=" stroke:none;fill-rule:nonzero;fill:rgb(100%,100%,100%);fill-opacity:1;" d="M 25.800781 28.765625 L 16.097656 37.722656 C 13.746094 39.878906 12.394531 42.910156 12.394531 46.078125 L 12.394531 52.34375 C 12.394531 56.996094 16.167969 60.832031 20.886719 60.832031 L 28.5625 60.832031 C 30.453125 60.832031 32.339844 60.09375 33.683594 58.8125 L 49.785156 44.125 C 49.921875 44.058594 49.921875 43.921875 49.921875 43.722656 L 49.921875 40.355469 C 49.921875 40.082031 49.71875 39.8125 49.378906 39.8125 L 45.941406 39.8125 C 45.8125 39.8125 45.675781 39.878906 45.609375 39.949219 L 30.386719 53.761719 C 29.640625 54.433594 28.765625 54.769531 27.753906 54.769531 L 21.089844 54.769531 C 19.535156 54.769531 18.324219 53.558594 18.324219 52.011719 L 18.324219 45.746094 C 18.324219 44.464844 18.863281 43.183594 19.808594 42.308594 L 33.546875 29.503906 C 33.886719 29.171875 33.683594 28.628906 33.214844 28.628906 L 26.140625 28.628906 C 26.003906 28.628906 25.871094 28.699219 25.800781 28.765625 "/>
    <path style=" stroke:none;fill-rule:nonzero;fill:rgb(100%,100%,100%);fill-opacity:1;" d="M 47.222656 60.832031 L 40.152344 60.832031 C 39.683594 60.832031 39.480469 60.296875 39.8125 59.957031 L 53.558594 47.15625 C 54.5 46.28125 55.042969 45 55.042969 43.722656 L 55.042969 37.457031 C 55.042969 35.90625 53.828125 34.691406 52.277344 34.691406 L 45.609375 34.691406 C 44.667969 34.691406 43.722656 35.03125 42.980469 35.703125 L 27.753906 49.449219 C 27.6875 49.515625 27.550781 49.582031 27.417969 49.582031 L 23.984375 49.582031 C 23.714844 49.582031 23.441406 49.378906 23.441406 49.042969 L 23.441406 45.675781 C 23.441406 45.542969 23.511719 45.40625 23.578125 45.269531 L 39.746094 30.652344 C 41.160156 29.375 42.980469 28.628906 44.871094 28.628906 L 52.546875 28.628906 C 57.199219 28.628906 61.035156 32.40625 61.035156 37.121094 L 61.035156 43.386719 C 61.035156 46.550781 59.6875 49.582031 57.328125 51.738281 L 47.5625 60.699219 C 47.496094 60.765625 47.359375 60.832031 47.222656 60.832031 "/>
    <path style=" stroke:none;fill-rule:nonzero;fill:rgb(100%,100%,100%);fill-opacity:1;" d="M 25.800781 28.765625 L 16.097656 37.722656 C 13.746094 39.878906 12.394531 42.910156 12.394531 46.078125 L 12.394531 52.34375 C 12.394531 56.996094 16.167969 60.832031 20.886719 60.832031 L 28.5625 60.832031 C 30.453125 60.832031 32.339844 60.09375 33.683594 58.8125 L 49.785156 44.125 C 49.921875 44.058594 49.921875 43.921875 49.921875 43.722656 L 49.921875 40.355469 C 49.921875 40.082031 49.71875 39.8125 49.378906 39.8125 L 45.941406 39.8125 C 45.8125 39.8125 45.675781 39.878906 45.609375 39.949219 L 30.386719 53.761719 C 29.640625 54.433594 28.765625 54.769531 27.753906 54.769531 L 21.089844 54.769531 C 19.535156 54.769531 18.324219 53.558594 18.324219 52.011719 L 18.324219 45.746094 C 18.324219 44.464844 18.863281 43.183594 19.808594 42.308594 L 33.546875 29.503906 C 33.886719 29.171875 33.683594 28.628906 33.214844 28.628906 L 26.140625 28.628906 C 26.003906 28.628906 25.871094 28.699219 25.800781 28.765625 "/>
  </g>
</svg>