<?xml version="1.0" encoding="utf-8"?>
<!-- Generator: Adobe Illustrator 24.0.1, SVG Export Plug-In . SVG Version: 6.00 Build 0)  -->
<svg version="1.1" id="Capa_1" xmlns="http://www.w3.org/2000/svg" xmlns:xlink="http://www.w3.org/1999/xlink" x="0px" y="0px"
	 viewBox="0 0 35 35" style="enable-background:new 0 0 35 35;" xml:space="preserve">
<style type="text/css">
	.st0{fill:#4C858E;}
	.st1{fill:#FFFFFF;}
</style>
<g>
	<rect class="st0" width="35" height="35"/>
	<path class="st1" d="M6.7,20.6c0,2.5,1.9,3.4,4.1,3.4c1.4,0,3.6-0.4,3.6-2.3c0-2-2.8-2.3-5.5-3.1c-2.8-0.7-5.5-1.8-5.5-5.3
		c0-3.8,3.6-5.6,7-5.6c3.9,0,7.4,1.7,7.4,6h-4c-0.1-2.2-1.7-2.8-3.7-2.8c-1.3,0-2.8,0.5-2.8,2.1c0,1.4,0.9,1.6,5.5,2.8
		c1.4,0.3,5.5,1.2,5.5,5.4c0,3.4-2.7,6-7.7,6c-4.1,0-8-2-7.9-6.6H6.7z"/>
	<path class="st1" d="M24.2,15.9c1.6,0.1,3.9-0.2,3.9-2.3c0-1.5-1.2-2.4-2.6-2.4c-1.8,0-2.8,1.4-2.8,3.2h-3.5
		c0.1-3.7,2.6-6.3,6.3-6.3c2.9,0,6.1,1.8,6.1,5.1c0,1.7-0.9,3.2-2.5,3.7v0c2,0.4,3.2,2.1,3.2,4.1c0,3.8-3.2,6-6.8,6
		c-4.1,0-6.8-2.5-6.8-6.6h3.5c0.1,2,1.1,3.6,3.2,3.6c1.7,0,3-1.1,3-2.9c0-2.8-2.4-2.7-4.2-2.7V15.9z"/>
</g>
</svg>
