<?xml version="1.0" encoding="utf-8"?>
<!-- Generator: Adobe Illustrator 24.0.1, SVG Export Plug-In . SVG Version: 6.00 Build 0)  -->
<svg version="1.1" id="Capa_1" xmlns="http://www.w3.org/2000/svg" xmlns:xlink="http://www.w3.org/1999/xlink" x="0px" y="0px"
	 viewBox="0 0 35 35" style="enable-background:new 0 0 35 35;" xml:space="preserve">
<style type="text/css">
	.st0{fill:#61C4DD;}
	.st1{fill:#FFFFFF;}
</style>
<g>
	<rect class="st0" width="35" height="35"/>
	<path class="st1" d="M7.1,20.1c0,2.5,1.9,3.4,4.1,3.4c1.4,0,3.6-0.4,3.6-2.3c0-2-2.8-2.3-5.5-3c-2.7-0.7-5.5-1.8-5.5-5.2
		c0-3.8,3.6-5.6,6.9-5.6c3.9,0,7.4,1.7,7.4,5.9h-3.9c-0.1-2.2-1.7-2.8-3.6-2.8c-1.3,0-2.8,0.5-2.8,2.1c0,1.4,0.9,1.6,5.5,2.8
		c1.3,0.3,5.5,1.2,5.5,5.4c0,3.4-2.7,5.9-7.7,5.9c-4.1,0-7.9-2-7.9-6.6H7.1z"/>
	<path class="st1" d="M25.2,15.4c1.5,0,2.7-0.8,2.7-2.4c0-0.9-0.4-2.5-2.7-2.5c-1.5,0-2.8,0.9-2.8,2.5
		C22.4,14.6,23.7,15.4,25.2,15.4 M25.2,23.8c1.8,0,3.1-1.2,3.1-3c0-1.7-1.4-2.9-3.1-2.9c-1.8,0-3.2,1-3.2,2.9
		C22,22.6,23.5,23.8,25.2,23.8 M25.2,7.7c4.5,0,6,3.1,6,4.9c0,1.8-0.9,3.2-2.6,3.9v-0.1v0v0c2.1,0.5,3.4,2.1,3.4,4.4
		c0,3.8-3.4,5.7-6.8,5.7c-3.5,0-6.9-1.8-6.9-5.7c0-2.3,1.3-3.9,3.4-4.4v-0.1c-1.8-0.5-2.7-1.9-2.7-3.7C19.1,9.4,22.3,7.7,25.2,7.7"
		/>
</g>
</svg>
