<svg xmlns="http://www.w3.org/2000/svg" width="64" height="64" viewBox="0 0 48 48">
    <path fill="#93d500" d="M0 0h48v48H0z"/>
    <path fill="#fff" d="M35.41797 45.625h-5.30469c-.35156 0-.5039-.40234-.2539-.65625l10.30859-9.60156c.70703-.65625 1.11328-1.61719 1.11328-2.57422v-4.69922c0-1.16406-.91016-2.07422-2.07422-2.07422h-5c-.70703 0-1.41406.2539-1.97266.75781l-11.41796 10.3086c-.05079.05078-.15235.10156-.25391.10156h-2.57422c-.20312 0-.40625-.15234-.40625-.40625v-2.52344c0-.10156.05078-.20312.10156-.30468l12.125-10.96485c1.0625-.95703 2.42579-1.51562 3.84375-1.51562h5.75782c3.48828 0 6.36718 2.83203 6.36718 6.36718v4.69922c0 2.375-1.01172 4.64844-2.78125 6.26563l-7.32422 6.71875c-.05078.05078-.15234.10156-.2539.10156"/>
    <path fill="#fff" d="m19.35156 21.57422-7.27734 6.71875c-1.76563 1.61719-2.77735 3.89062-2.77735 6.26562v4.69922c0 3.48828 2.82813 6.36719 6.3672 6.36719h5.7578c1.41797 0 2.83204-.55469 3.83985-1.51563l12.07812-11.01562c.10157-.05078.10157-.15234.10157-.30078v-2.52734c0-.20313-.15235-.40626-.40625-.40626h-2.57813c-.09766 0-.19922.05079-.25.10157L22.78906 40.3203c-.5586.5039-1.21484.75782-1.97265.75782h-5c-1.16407 0-2.07422-.91016-2.07422-2.07032v-4.6992c0-.96093.40625-1.92187 1.11328-2.57812l10.30469-9.60156c.2539-.25.10156-.65625-.25-.65625h-5.3047c-.10155 0-.20312.05078-.2539.10156"/>
    <path fill="#fff" d="M35.41797 45.625h-5.30469c-.35156 0-.5039-.40234-.2539-.65625l10.30859-9.60156c.70703-.65625 1.11328-1.61719 1.11328-2.57422v-4.69922c0-1.16406-.91016-2.07422-2.07422-2.07422h-5c-.70703 0-1.41406.2539-1.97266.75781l-11.41796 10.3086c-.05079.05078-.15235.10156-.25391.10156h-2.57422c-.20312 0-.40625-.15234-.40625-.40625v-2.52344c0-.10156.05078-.20312.10156-.30468l12.125-10.96485c1.0625-.95703 2.42579-1.51562 3.84375-1.51562h5.75782c3.48828 0 6.36718 2.83203 6.36718 6.36718v4.69922c0 2.375-1.01172 4.64844-2.78125 6.26563l-7.32422 6.71875c-.05078.05078-.15234.10156-.2539.10156"/>
    <path fill="#fff" d="m19.35156 21.57422-7.27734 6.71875c-1.76563 1.61719-2.77735 3.89062-2.77735 6.26562v4.69922c0 3.48828 2.82813 6.36719 6.3672 6.36719h5.7578c1.41797 0 2.83204-.55469 3.83985-1.51563l12.07812-11.01562c.10157-.05078.10157-.15234.10157-.30078v-2.52734c0-.20313-.15235-.40626-.40625-.40626h-2.57813c-.09766 0-.19922.05079-.25.10157L22.78906 40.3203c-.5586.5039-1.21484.75782-1.97265.75782h-5c-1.16407 0-2.07422-.91016-2.07422-2.07032v-4.6992c0-.96093.40625-1.92187 1.11328-2.57812l10.30469-9.60156c.2539-.25.10156-.65625-.25-.65625h-5.3047c-.10155 0-.20312.05078-.2539.10156"/>
</svg>
