<?xml version="1.0" encoding="UTF-8" standalone="yes"?>
<svg xmlns="http://www.w3.org/2000/svg" xmlns:xlink="http://www.w3.org/1999/xlink" width="64px" height="64px" viewBox="0 0 64 64" version="1.1">
  <g id="surface1">
    <rect x="0" y="0" width="64" height="64" style="fill:rgb(57.647061%,83.529413%,0%);fill-opacity:1;stroke:none;"/>
    <path style=" stroke:none;fill-rule:nonzero;fill:rgb(100%,100%,100%);fill-opacity:1;" d="M 47.226562 60.832031 L 40.152344 60.832031 C 39.679688 60.832031 39.476562 60.292969 39.816406 59.957031 L 53.558594 47.15625 C 54.5 46.28125 55.039062 45.003906 55.039062 43.722656 L 55.039062 37.457031 C 55.039062 35.90625 53.828125 34.695312 52.277344 34.695312 L 45.609375 34.695312 C 44.664062 34.695312 43.722656 35.03125 42.980469 35.707031 L 27.753906 49.449219 C 27.6875 49.515625 27.554688 49.582031 27.417969 49.582031 L 23.984375 49.582031 C 23.714844 49.582031 23.445312 49.382812 23.445312 49.042969 L 23.445312 45.675781 C 23.445312 45.542969 23.511719 45.40625 23.578125 45.273438 L 39.746094 30.652344 C 41.160156 29.371094 42.980469 28.632812 44.867188 28.632812 L 52.546875 28.632812 C 57.195312 28.632812 61.035156 32.402344 61.035156 37.121094 L 61.035156 43.386719 C 61.035156 46.550781 59.6875 49.582031 57.332031 51.738281 L 47.5625 60.699219 C 47.496094 60.765625 47.359375 60.832031 47.226562 60.832031 "/>
    <path style=" stroke:none;fill-rule:nonzero;fill:rgb(100%,100%,100%);fill-opacity:1;" d="M 25.800781 28.765625 L 16.101562 37.726562 C 13.742188 39.882812 12.394531 42.914062 12.394531 46.078125 L 12.394531 52.34375 C 12.394531 56.992188 16.167969 60.832031 20.882812 60.832031 L 28.5625 60.832031 C 30.449219 60.832031 32.335938 60.09375 33.683594 58.8125 L 49.785156 44.125 C 49.921875 44.058594 49.921875 43.925781 49.921875 43.722656 L 49.921875 40.355469 C 49.921875 40.085938 49.71875 39.816406 49.382812 39.816406 L 45.945312 39.816406 C 45.808594 39.816406 45.675781 39.882812 45.609375 39.949219 L 30.382812 53.761719 C 29.640625 54.433594 28.765625 54.769531 27.753906 54.769531 L 21.085938 54.769531 C 19.535156 54.769531 18.324219 53.558594 18.324219 52.007812 L 18.324219 45.742188 C 18.324219 44.464844 18.863281 43.183594 19.804688 42.308594 L 33.550781 29.507812 C 33.886719 29.171875 33.683594 28.632812 33.210938 28.632812 L 26.140625 28.632812 C 26.003906 28.632812 25.871094 28.699219 25.800781 28.765625 "/>
    <path style=" stroke:none;fill-rule:nonzero;fill:rgb(100%,100%,100%);fill-opacity:1;" d="M 47.226562 60.832031 L 40.152344 60.832031 C 39.679688 60.832031 39.476562 60.292969 39.816406 59.957031 L 53.558594 47.15625 C 54.5 46.28125 55.039062 45.003906 55.039062 43.722656 L 55.039062 37.457031 C 55.039062 35.90625 53.828125 34.695312 52.277344 34.695312 L 45.609375 34.695312 C 44.664062 34.695312 43.722656 35.03125 42.980469 35.707031 L 27.753906 49.449219 C 27.6875 49.515625 27.554688 49.582031 27.417969 49.582031 L 23.984375 49.582031 C 23.714844 49.582031 23.445312 49.382812 23.445312 49.042969 L 23.445312 45.675781 C 23.445312 45.542969 23.511719 45.40625 23.578125 45.273438 L 39.746094 30.652344 C 41.160156 29.371094 42.980469 28.632812 44.867188 28.632812 L 52.546875 28.632812 C 57.195312 28.632812 61.035156 32.402344 61.035156 37.121094 L 61.035156 43.386719 C 61.035156 46.550781 59.6875 49.582031 57.332031 51.738281 L 47.5625 60.699219 C 47.496094 60.765625 47.359375 60.832031 47.226562 60.832031 "/>
    <path style=" stroke:none;fill-rule:nonzero;fill:rgb(100%,100%,100%);fill-opacity:1;" d="M 25.800781 28.765625 L 16.101562 37.726562 C 13.742188 39.882812 12.394531 42.914062 12.394531 46.078125 L 12.394531 52.34375 C 12.394531 56.992188 16.167969 60.832031 20.882812 60.832031 L 28.5625 60.832031 C 30.449219 60.832031 32.335938 60.09375 33.683594 58.8125 L 49.785156 44.125 C 49.921875 44.058594 49.921875 43.925781 49.921875 43.722656 L 49.921875 40.355469 C 49.921875 40.085938 49.71875 39.816406 49.382812 39.816406 L 45.945312 39.816406 C 45.808594 39.816406 45.675781 39.882812 45.609375 39.949219 L 30.382812 53.761719 C 29.640625 54.433594 28.765625 54.769531 27.753906 54.769531 L 21.085938 54.769531 C 19.535156 54.769531 18.324219 53.558594 18.324219 52.007812 L 18.324219 45.742188 C 18.324219 44.464844 18.863281 43.183594 19.804688 42.308594 L 33.550781 29.507812 C 33.886719 29.171875 33.683594 28.632812 33.210938 28.632812 L 26.140625 28.632812 C 26.003906 28.632812 25.871094 28.699219 25.800781 28.765625 "/>
  </g>
</svg>