<?xml version="1.0" encoding="utf-8"?>
<!-- Generator: Adobe Illustrator 24.0.1, SVG Export Plug-In . SVG Version: 6.00 Build 0)  -->
<svg version="1.1" id="Capa_1" xmlns="http://www.w3.org/2000/svg" xmlns:xlink="http://www.w3.org/1999/xlink" x="0px" y="0px"
	 viewBox="0 0 35 35" style="enable-background:new 0 0 35 35;" xml:space="preserve">
<style type="text/css">
	.st0{fill:#717073;}
	.st1{fill:#FFFFFF;}
</style>
<g>
	<rect class="st0" width="35" height="35"/>
	<g>
		<path class="st1" d="M8.6,10c0.6,0,1.1,0.1,1.5,0.3c0.5,0.2,0.8,0.5,1.2,0.9c0.3,0.4,0.6,0.8,0.7,1.3c0.2,0.5,0.3,1.1,0.3,1.7
			c0,0.9-0.2,1.7-0.5,2.4c-0.3,0.7-0.8,1.2-1.5,1.5v0c0.3,0.1,0.6,0.3,0.9,0.5c0.2,0.2,0.4,0.5,0.5,0.8c0.1,0.3,0.2,0.7,0.3,1.1
			c0.1,0.4,0.1,0.8,0.1,1.2c0,0.2,0,0.5,0,0.9c0,0.3,0,0.7,0.1,1c0,0.3,0.1,0.7,0.1,1c0.1,0.3,0.2,0.6,0.3,0.8H9.9
			c-0.2-0.5-0.2-1.1-0.3-1.8c0-0.7-0.1-1.3-0.2-1.9C9.3,21,9.1,20.4,8.8,20c-0.3-0.4-0.8-0.6-1.5-0.6H4.5v6H1.8V10H8.6z M7.6,17
			c0.6,0,1.1-0.2,1.4-0.5c0.3-0.3,0.5-0.9,0.5-1.7c0-0.7-0.2-1.3-0.5-1.6c-0.3-0.3-0.8-0.5-1.4-0.5h-3V17H7.6z"/>
		<path class="st1" d="M19.6,12.9c-0.3-0.4-0.7-0.6-1.1-0.6c-0.4,0-0.8,0.2-1.1,0.5c-0.3,0.3-0.5,0.7-0.7,1.2
			c-0.2,0.5-0.3,1-0.4,1.5c-0.1,0.5-0.1,1-0.1,1.4l0,0c0.3-0.6,0.7-1,1.2-1.3c0.5-0.3,1-0.4,1.6-0.4c0.5,0,1.1,0.1,1.6,0.4
			c0.5,0.3,0.9,0.7,1.3,1.1c0.3,0.5,0.6,1,0.7,1.6c0.2,0.6,0.2,1.2,0.2,1.8c0,0.8-0.1,1.5-0.3,2.2c-0.2,0.7-0.5,1.3-0.9,1.7
			c-0.4,0.5-0.8,0.9-1.4,1.2c-0.5,0.3-1.1,0.4-1.8,0.4c-0.9,0-1.7-0.2-2.3-0.7c-0.6-0.5-1.1-1-1.5-1.8c-0.4-0.7-0.6-1.6-0.8-2.5
			s-0.2-1.9-0.2-2.8c0-0.9,0.1-1.9,0.3-2.8c0.2-0.9,0.5-1.8,0.9-2.5c0.4-0.8,0.9-1.4,1.5-1.8c0.6-0.5,1.4-0.7,2.3-0.7
			c0.5,0,1,0.1,1.5,0.3c0.5,0.2,0.9,0.5,1.2,0.8c0.4,0.4,0.6,0.8,0.9,1.3s0.4,1.1,0.4,1.8h-2.4C20.1,13.7,19.9,13.3,19.6,12.9z
			 M17.5,17.8c-0.3,0.2-0.5,0.4-0.6,0.6c-0.2,0.3-0.3,0.6-0.4,0.9s-0.1,0.7-0.1,1.1c0,0.3,0,0.7,0.1,1c0.1,0.3,0.2,0.6,0.4,0.9
			s0.4,0.5,0.6,0.6c0.2,0.2,0.5,0.2,0.9,0.2c0.3,0,0.6-0.1,0.8-0.2c0.2-0.2,0.4-0.4,0.6-0.6c0.2-0.3,0.3-0.6,0.4-0.9
			c0.1-0.3,0.1-0.7,0.1-1c0-0.4,0-0.7-0.1-1c-0.1-0.3-0.2-0.6-0.3-0.9c-0.2-0.3-0.4-0.5-0.6-0.6c-0.2-0.2-0.5-0.2-0.8-0.2
			C18.1,17.6,17.8,17.7,17.5,17.8z"/>
	</g>
	<g>
		<path class="st1" d="M24,14.1c0.2-1,0.6-1.8,1-2.4c0.4-0.6,0.9-1,1.4-1.3c0.5-0.3,1.1-0.4,1.7-0.4c0.6,0,1.2,0.1,1.8,0.4
			c0.5,0.3,1,0.7,1.5,1.3c0.4,0.6,0.7,1.4,1,2.4c0.2,1,0.4,2.2,0.4,3.7c0,1.5-0.1,2.8-0.4,3.8c-0.2,1-0.6,1.8-1,2.4
			c-0.4,0.6-0.9,1-1.5,1.3c-0.5,0.3-1.1,0.4-1.8,0.4c-0.6,0-1.2-0.1-1.7-0.4c-0.5-0.3-1-0.7-1.4-1.3c-0.4-0.6-0.7-1.4-1-2.4
			c-0.2-1-0.4-2.3-0.4-3.8C23.7,16.4,23.8,15.1,24,14.1z M26.2,19.4c0,0.6,0.1,1.2,0.2,1.8c0.1,0.6,0.3,1.1,0.6,1.5
			c0.3,0.4,0.7,0.6,1.2,0.6c0.5,0,0.9-0.2,1.2-0.6c0.3-0.4,0.5-0.9,0.6-1.5c0.1-0.6,0.2-1.2,0.2-1.8c0-0.6,0-1.1,0-1.6
			c0-0.3,0-0.6,0-0.9c0-0.4,0-0.7-0.1-1.1c0-0.4-0.1-0.8-0.2-1.2s-0.2-0.7-0.3-1c-0.2-0.3-0.3-0.5-0.6-0.7c-0.2-0.2-0.5-0.3-0.9-0.3
			c-0.3,0-0.6,0.1-0.9,0.3s-0.4,0.4-0.6,0.7c-0.1,0.3-0.3,0.6-0.3,1c-0.1,0.4-0.1,0.8-0.2,1.2c0,0.4-0.1,0.8-0.1,1.1
			c0,0.4,0,0.7,0,0.9C26.2,18.3,26.2,18.8,26.2,19.4z"/>
	</g>
</g>
</svg>
