<?xml version="1.0" encoding="utf-8"?>
<!-- Generator: Adobe Illustrator 24.0.1, SVG Export Plug-In . SVG Version: 6.00 Build 0)  -->
<svg version="1.1" id="Capa_1" xmlns="http://www.w3.org/2000/svg" xmlns:xlink="http://www.w3.org/1999/xlink" x="0px" y="0px"
	 viewBox="0 0 35 35" style="enable-background:new 0 0 35 35;" xml:space="preserve">
<style type="text/css">
	.st0{fill:#A88B12;}
	.st1{fill:#FFFFFF;}
</style>
<g>
	<rect class="st0" width="35" height="35"/>
	<path class="st1" d="M7.1,20.1c0,2.5,1.9,3.4,4.1,3.4c1.4,0,3.6-0.4,3.6-2.3c0-2-2.8-2.3-5.5-3.1c-2.8-0.7-5.6-1.8-5.6-5.3
		c0-3.8,3.6-5.6,7-5.6c3.9,0,7.5,1.7,7.5,6h-4c-0.1-2.2-1.7-2.8-3.7-2.8c-1.3,0-2.8,0.6-2.8,2.1c0,1.4,0.9,1.6,5.6,2.8
		c1.4,0.3,5.5,1.2,5.5,5.4c0,3.4-2.7,6-7.7,6c-4.1,0-8-2-7.9-6.6H7.1z"/>
	<path class="st1" d="M26.3,12.6L26.3,12.6L21.5,19h4.8V12.6z M26.3,22h-7.7v-3.4L26.5,8h3.3v11h2.4V22h-2.4v4.2h-3.5V22z"/>
</g>
</svg>
