<?xml version="1.0" encoding="UTF-8" standalone="no"?>
<!-- Created with Inkscape (http://www.inkscape.org/) -->

<svg
   xmlns:dc="http://purl.org/dc/elements/1.1/"
   xmlns:cc="http://creativecommons.org/ns#"
   xmlns:rdf="http://www.w3.org/1999/02/22-rdf-syntax-ns#"
   xmlns:svg="http://www.w3.org/2000/svg"
   xmlns="http://www.w3.org/2000/svg"
   xmlns:sodipodi="http://sodipodi.sourceforge.net/DTD/sodipodi-0.dtd"
   xmlns:inkscape="http://www.inkscape.org/namespaces/inkscape"
   id="svg2"
   sodipodi:version="0.32"
   inkscape:version="0.91 r13725"
   width="64"
   height="64"
   viewBox="0 0 64 64"
   xml:space="preserve"
   sodipodi:docname="funicular_vallvidrera.svg"
   version="1.0"
   inkscape:output_extension="org.inkscape.output.svg.inkscape"><metadata
     id="metadata7"><rdf:RDF><cc:Work
         rdf:about=""><dc:format>image/svg+xml</dc:format><dc:type
           rdf:resource="http://purl.org/dc/dcmitype/StillImage" /><dc:title></dc:title></cc:Work></rdf:RDF></metadata><defs
     id="defs5"><inkscape:perspective
       sodipodi:type="inkscape:persp3d"
       inkscape:vp_x="0 : 526.18109 : 1"
       inkscape:vp_y="0 : 1000 : 0"
       inkscape:vp_z="744.09448 : 526.18109 : 1"
       inkscape:persp3d-origin="372.04724 : 350.78739 : 1"
       id="perspective9" /><clipPath
       clipPathUnits="userSpaceOnUse"
       id="clipPath19"><path
         d="m 0,2551.181 2551.181,0 L 2551.181,0 0,0 0,2551.181 Z"
         id="path21"
         inkscape:connector-curvature="0" /></clipPath><clipPath
       clipPathUnits="userSpaceOnUse"
       id="clipPath61"><path
         d="m 0,2551.181 2551.181,0 L 2551.181,0 0,0 0,2551.181 Z"
         id="path63"
         inkscape:connector-curvature="0" /></clipPath><clipPath
       clipPathUnits="userSpaceOnUse"
       id="clipPath243"><path
         d="m 0,2551.181 2551.181,0 L 2551.181,0 0,0 0,2551.181 Z"
         id="path245"
         inkscape:connector-curvature="0" /></clipPath><clipPath
       clipPathUnits="userSpaceOnUse"
       id="clipPath313"><path
         d="m 0,2551.181 2551.181,0 L 2551.181,0 0,0 0,2551.181 Z"
         id="path315"
         inkscape:connector-curvature="0" /></clipPath><clipPath
       clipPathUnits="userSpaceOnUse"
       id="clipPath327"><path
         d="m 0,2551.181 2551.181,0 L 2551.181,0 0,0 0,2551.181 Z"
         id="path329"
         inkscape:connector-curvature="0" /></clipPath><clipPath
       clipPathUnits="userSpaceOnUse"
       id="clipPath341"><path
         d="m 0,2551.181 2551.181,0 L 2551.181,0 0,0 0,2551.181 Z"
         id="path343"
         inkscape:connector-curvature="0" /></clipPath><clipPath
       clipPathUnits="userSpaceOnUse"
       id="clipPath355"><path
         d="m 0,2551.181 2551.181,0 L 2551.181,0 0,0 0,2551.181 Z"
         id="path357"
         inkscape:connector-curvature="0" /></clipPath><clipPath
       clipPathUnits="userSpaceOnUse"
       id="clipPath369"><path
         d="m 0,2551.181 2551.181,0 L 2551.181,0 0,0 0,2551.181 Z"
         id="path371"
         inkscape:connector-curvature="0" /></clipPath><clipPath
       clipPathUnits="userSpaceOnUse"
       id="clipPath383"><path
         d="m 0,2551.181 2551.181,0 L 2551.181,0 0,0 0,2551.181 Z"
         id="path385"
         inkscape:connector-curvature="0" /></clipPath><clipPath
       clipPathUnits="userSpaceOnUse"
       id="clipPath397"><path
         d="m 0,2551.181 2551.181,0 L 2551.181,0 0,0 0,2551.181 Z"
         id="path399"
         inkscape:connector-curvature="0" /></clipPath><clipPath
       clipPathUnits="userSpaceOnUse"
       id="clipPath411"><path
         d="m 0,2551.181 2551.181,0 L 2551.181,0 0,0 0,2551.181 Z"
         id="path413"
         inkscape:connector-curvature="0" /></clipPath><clipPath
       clipPathUnits="userSpaceOnUse"
       id="clipPath425"><path
         d="m 0,2551.181 2551.181,0 L 2551.181,0 0,0 0,2551.181 Z"
         id="path427"
         inkscape:connector-curvature="0" /></clipPath><clipPath
       clipPathUnits="userSpaceOnUse"
       id="clipPath439"><path
         d="m 0,2551.181 2551.181,0 L 2551.181,0 0,0 0,2551.181 Z"
         id="path441"
         inkscape:connector-curvature="0" /></clipPath><clipPath
       clipPathUnits="userSpaceOnUse"
       id="clipPath453"><path
         d="m 0,2551.181 2551.181,0 L 2551.181,0 0,0 0,2551.181 Z"
         id="path455"
         inkscape:connector-curvature="0" /></clipPath><clipPath
       clipPathUnits="userSpaceOnUse"
       id="clipPath467"><path
         d="m 0,2551.181 2551.181,0 L 2551.181,0 0,0 0,2551.181 Z"
         id="path469"
         inkscape:connector-curvature="0" /></clipPath><clipPath
       clipPathUnits="userSpaceOnUse"
       id="clipPath481"><path
         d="m 0,2551.181 2551.181,0 L 2551.181,0 0,0 0,2551.181 Z"
         id="path483"
         inkscape:connector-curvature="0" /></clipPath><clipPath
       clipPathUnits="userSpaceOnUse"
       id="clipPath495"><path
         d="m 0,2551.181 2551.181,0 L 2551.181,0 0,0 0,2551.181 Z"
         id="path497"
         inkscape:connector-curvature="0" /></clipPath><clipPath
       clipPathUnits="userSpaceOnUse"
       id="clipPath509"><path
         d="m 0,2551.181 2551.181,0 L 2551.181,0 0,0 0,2551.181 Z"
         id="path511"
         inkscape:connector-curvature="0" /></clipPath><clipPath
       clipPathUnits="userSpaceOnUse"
       id="clipPath523"><path
         d="m 0,2551.181 2551.181,0 L 2551.181,0 0,0 0,2551.181 Z"
         id="path525"
         inkscape:connector-curvature="0" /></clipPath><clipPath
       clipPathUnits="userSpaceOnUse"
       id="clipPath537"><path
         d="m 0,2551.181 2551.181,0 L 2551.181,0 0,0 0,2551.181 Z"
         id="path539"
         inkscape:connector-curvature="0" /></clipPath><clipPath
       clipPathUnits="userSpaceOnUse"
       id="clipPath551"><path
         d="m 0,2551.181 2551.181,0 L 2551.181,0 0,0 0,2551.181 Z"
         id="path553"
         inkscape:connector-curvature="0" /></clipPath><clipPath
       clipPathUnits="userSpaceOnUse"
       id="clipPath565"><path
         d="m 0,2551.181 2551.181,0 L 2551.181,0 0,0 0,2551.181 Z"
         id="path567"
         inkscape:connector-curvature="0" /></clipPath><clipPath
       clipPathUnits="userSpaceOnUse"
       id="clipPath579"><path
         d="m 0,2551.181 2551.181,0 L 2551.181,0 0,0 0,2551.181 Z"
         id="path581"
         inkscape:connector-curvature="0" /></clipPath><clipPath
       clipPathUnits="userSpaceOnUse"
       id="clipPath593"><path
         d="m 0,2551.181 2551.181,0 L 2551.181,0 0,0 0,2551.181 Z"
         id="path595"
         inkscape:connector-curvature="0" /></clipPath><clipPath
       clipPathUnits="userSpaceOnUse"
       id="clipPath607"><path
         d="m 0,2551.181 2551.181,0 L 2551.181,0 0,0 0,2551.181 Z"
         id="path609"
         inkscape:connector-curvature="0" /></clipPath><clipPath
       clipPathUnits="userSpaceOnUse"
       id="clipPath621"><path
         d="m 0,2551.181 2551.181,0 L 2551.181,0 0,0 0,2551.181 Z"
         id="path623"
         inkscape:connector-curvature="0" /></clipPath><clipPath
       clipPathUnits="userSpaceOnUse"
       id="clipPath635"><path
         d="m 0,2551.181 2551.181,0 L 2551.181,0 0,0 0,2551.181 Z"
         id="path637"
         inkscape:connector-curvature="0" /></clipPath><clipPath
       clipPathUnits="userSpaceOnUse"
       id="clipPath649"><path
         d="m 0,2551.181 2551.181,0 L 2551.181,0 0,0 0,2551.181 Z"
         id="path651"
         inkscape:connector-curvature="0" /></clipPath><clipPath
       clipPathUnits="userSpaceOnUse"
       id="clipPath663"><path
         d="m 0,2551.181 2551.181,0 L 2551.181,0 0,0 0,2551.181 Z"
         id="path665"
         inkscape:connector-curvature="0" /></clipPath><clipPath
       clipPathUnits="userSpaceOnUse"
       id="clipPath677"><path
         d="m 0,2551.181 2551.181,0 L 2551.181,0 0,0 0,2551.181 Z"
         id="path679"
         inkscape:connector-curvature="0" /></clipPath><clipPath
       clipPathUnits="userSpaceOnUse"
       id="clipPath693"><path
         d="m 0,2551.181 2551.181,0 L 2551.181,0 0,0 0,2551.181 Z"
         id="path695"
         inkscape:connector-curvature="0" /></clipPath><clipPath
       clipPathUnits="userSpaceOnUse"
       id="clipPath707"><path
         d="m 0,2551.181 2551.181,0 L 2551.181,0 0,0 0,2551.181 Z"
         id="path709"
         inkscape:connector-curvature="0" /></clipPath><clipPath
       clipPathUnits="userSpaceOnUse"
       id="clipPath721"><path
         d="m 0,2551.181 2551.181,0 L 2551.181,0 0,0 0,2551.181 Z"
         id="path723"
         inkscape:connector-curvature="0" /></clipPath><clipPath
       clipPathUnits="userSpaceOnUse"
       id="clipPath735"><path
         d="m 0,2551.181 2551.181,0 L 2551.181,0 0,0 0,2551.181 Z"
         id="path737"
         inkscape:connector-curvature="0" /></clipPath><clipPath
       clipPathUnits="userSpaceOnUse"
       id="clipPath749"><path
         d="m 0,2551.181 2551.181,0 L 2551.181,0 0,0 0,2551.181 Z"
         id="path751"
         inkscape:connector-curvature="0" /></clipPath><clipPath
       clipPathUnits="userSpaceOnUse"
       id="clipPath763"><path
         d="m 0,2551.181 2551.181,0 L 2551.181,0 0,0 0,2551.181 Z"
         id="path765"
         inkscape:connector-curvature="0" /></clipPath><clipPath
       clipPathUnits="userSpaceOnUse"
       id="clipPath777"><path
         d="m 0,2551.181 2551.181,0 L 2551.181,0 0,0 0,2551.181 Z"
         id="path779"
         inkscape:connector-curvature="0" /></clipPath><clipPath
       clipPathUnits="userSpaceOnUse"
       id="clipPath791"><path
         d="m 0,2551.181 2551.181,0 L 2551.181,0 0,0 0,2551.181 Z"
         id="path793"
         inkscape:connector-curvature="0" /></clipPath><clipPath
       clipPathUnits="userSpaceOnUse"
       id="clipPath805"><path
         d="m 0,2551.181 2551.181,0 L 2551.181,0 0,0 0,2551.181 Z"
         id="path807"
         inkscape:connector-curvature="0" /></clipPath><clipPath
       clipPathUnits="userSpaceOnUse"
       id="clipPath819"><path
         d="m 0,2551.181 2551.181,0 L 2551.181,0 0,0 0,2551.181 Z"
         id="path821"
         inkscape:connector-curvature="0" /></clipPath><clipPath
       clipPathUnits="userSpaceOnUse"
       id="clipPath833"><path
         d="m 0,2551.181 2551.181,0 L 2551.181,0 0,0 0,2551.181 Z"
         id="path835"
         inkscape:connector-curvature="0" /></clipPath><clipPath
       clipPathUnits="userSpaceOnUse"
       id="clipPath847"><path
         d="m 0,2551.181 2551.181,0 L 2551.181,0 0,0 0,2551.181 Z"
         id="path849"
         inkscape:connector-curvature="0" /></clipPath><clipPath
       clipPathUnits="userSpaceOnUse"
       id="clipPath861"><path
         d="m 0,2551.181 2551.181,0 L 2551.181,0 0,0 0,2551.181 Z"
         id="path863"
         inkscape:connector-curvature="0" /></clipPath><clipPath
       clipPathUnits="userSpaceOnUse"
       id="clipPath875"><path
         d="m 0,2551.181 2551.181,0 L 2551.181,0 0,0 0,2551.181 Z"
         id="path877"
         inkscape:connector-curvature="0" /></clipPath><clipPath
       clipPathUnits="userSpaceOnUse"
       id="clipPath889"><path
         d="m 0,2551.181 2551.181,0 L 2551.181,0 0,0 0,2551.181 Z"
         id="path891"
         inkscape:connector-curvature="0" /></clipPath><clipPath
       clipPathUnits="userSpaceOnUse"
       id="clipPath903"><path
         d="m 0,2551.181 2551.181,0 L 2551.181,0 0,0 0,2551.181 Z"
         id="path905"
         inkscape:connector-curvature="0" /></clipPath><clipPath
       clipPathUnits="userSpaceOnUse"
       id="clipPath917"><path
         d="m 0,2551.181 2551.181,0 L 2551.181,0 0,0 0,2551.181 Z"
         id="path919"
         inkscape:connector-curvature="0" /></clipPath><clipPath
       clipPathUnits="userSpaceOnUse"
       id="clipPath931"><path
         d="m 0,2551.181 2551.181,0 L 2551.181,0 0,0 0,2551.181 Z"
         id="path933"
         inkscape:connector-curvature="0" /></clipPath><clipPath
       clipPathUnits="userSpaceOnUse"
       id="clipPath945"><path
         d="m 0,2551.181 2551.181,0 L 2551.181,0 0,0 0,2551.181 Z"
         id="path947"
         inkscape:connector-curvature="0" /></clipPath><clipPath
       clipPathUnits="userSpaceOnUse"
       id="clipPath959"><path
         d="m 0,2551.181 2551.181,0 L 2551.181,0 0,0 0,2551.181 Z"
         id="path961"
         inkscape:connector-curvature="0" /></clipPath><clipPath
       clipPathUnits="userSpaceOnUse"
       id="clipPath973"><path
         d="m 0,2551.181 2551.181,0 L 2551.181,0 0,0 0,2551.181 Z"
         id="path975"
         inkscape:connector-curvature="0" /></clipPath><clipPath
       clipPathUnits="userSpaceOnUse"
       id="clipPath991"><path
         d="m 0,2551.181 2551.181,0 L 2551.181,0 0,0 0,2551.181 Z"
         id="path993"
         inkscape:connector-curvature="0" /></clipPath><clipPath
       clipPathUnits="userSpaceOnUse"
       id="clipPath1005"><path
         d="m 0,2551.181 2551.181,0 L 2551.181,0 0,0 0,2551.181 Z"
         id="path1007"
         inkscape:connector-curvature="0" /></clipPath><clipPath
       clipPathUnits="userSpaceOnUse"
       id="clipPath1317"><path
         d="m 1125.159,1227.031 22.417,0 0,22.676 -22.417,0 0,-22.676 z"
         id="path1319"
         inkscape:connector-curvature="0" /></clipPath><clipPath
       clipPathUnits="userSpaceOnUse"
       id="clipPath1333"><path
         d="m 0,2551.181 2551.181,0 L 2551.181,0 0,0 0,2551.181 Z"
         id="path1335"
         inkscape:connector-curvature="0" /></clipPath><clipPath
       clipPathUnits="userSpaceOnUse"
       id="clipPath1601"><path
         d="m 0,2551.181 2551.181,0 L 2551.181,0 0,0 0,2551.181 Z"
         id="path1603"
         inkscape:connector-curvature="0" /></clipPath><clipPath
       clipPathUnits="userSpaceOnUse"
       id="clipPath1617"><path
         d="m 0,2551.181 2551.181,0 L 2551.181,0 0,0 0,2551.181 Z"
         id="path1619"
         inkscape:connector-curvature="0" /></clipPath><clipPath
       clipPathUnits="userSpaceOnUse"
       id="clipPath2059"><path
         d="m 0,2551.181 2551.181,0 L 2551.181,0 0,0 0,2551.181 Z"
         id="path2061"
         inkscape:connector-curvature="0" /></clipPath><clipPath
       clipPathUnits="userSpaceOnUse"
       id="clipPath2579"><path
         d="m 0,2551.181 2551.181,0 L 2551.181,0 0,0 0,2551.181 Z"
         id="path2581"
         inkscape:connector-curvature="0" /></clipPath><clipPath
       clipPathUnits="userSpaceOnUse"
       id="clipPath3035"><path
         d="m 0,2551.181 2551.181,0 L 2551.181,0 0,0 0,2551.181 Z"
         id="path3037"
         inkscape:connector-curvature="0" /></clipPath><clipPath
       clipPathUnits="userSpaceOnUse"
       id="clipPath3067"><path
         d="m 0,2551.181 2551.181,0 L 2551.181,0 0,0 0,2551.181 Z"
         id="path3069"
         inkscape:connector-curvature="0" /></clipPath><clipPath
       clipPathUnits="userSpaceOnUse"
       id="clipPath3777"><path
         d="m 0,2551.181 2551.181,0 L 2551.181,0 0,0 0,2551.181 Z"
         id="path3779"
         inkscape:connector-curvature="0" /></clipPath><clipPath
       clipPathUnits="userSpaceOnUse"
       id="clipPath3813"><path
         d="m 0,2551.181 2551.181,0 L 2551.181,0 0,0 0,2551.181 Z"
         id="path3815"
         inkscape:connector-curvature="0" /></clipPath><clipPath
       clipPathUnits="userSpaceOnUse"
       id="clipPath3827"><path
         d="m 0,2551.181 2551.181,0 L 2551.181,0 0,0 0,2551.181 Z"
         id="path3829"
         inkscape:connector-curvature="0" /></clipPath><clipPath
       clipPathUnits="userSpaceOnUse"
       id="clipPath3841"><path
         d="m 0,2551.181 2551.181,0 L 2551.181,0 0,0 0,2551.181 Z"
         id="path3843"
         inkscape:connector-curvature="0" /></clipPath><clipPath
       clipPathUnits="userSpaceOnUse"
       id="clipPath3855"><path
         d="m 0,2551.181 2551.181,0 L 2551.181,0 0,0 0,2551.181 Z"
         id="path3857"
         inkscape:connector-curvature="0" /></clipPath><clipPath
       clipPathUnits="userSpaceOnUse"
       id="clipPath3869"><path
         d="m 0,2551.181 2551.181,0 L 2551.181,0 0,0 0,2551.181 Z"
         id="path3871"
         inkscape:connector-curvature="0" /></clipPath><clipPath
       clipPathUnits="userSpaceOnUse"
       id="clipPath3883"><path
         d="m 0,2551.181 2551.181,0 L 2551.181,0 0,0 0,2551.181 Z"
         id="path3885"
         inkscape:connector-curvature="0" /></clipPath><clipPath
       clipPathUnits="userSpaceOnUse"
       id="clipPath3897"><path
         d="m 0,2551.181 2551.181,0 L 2551.181,0 0,0 0,2551.181 Z"
         id="path3899"
         inkscape:connector-curvature="0" /></clipPath><clipPath
       clipPathUnits="userSpaceOnUse"
       id="clipPath3911"><path
         d="m 0,2551.181 2551.181,0 L 2551.181,0 0,0 0,2551.181 Z"
         id="path3913"
         inkscape:connector-curvature="0" /></clipPath><clipPath
       clipPathUnits="userSpaceOnUse"
       id="clipPath3935"><path
         d="m 0,2551.181 2551.181,0 L 2551.181,0 0,0 0,2551.181 Z"
         id="path3937"
         inkscape:connector-curvature="0" /></clipPath><clipPath
       clipPathUnits="userSpaceOnUse"
       id="clipPath4549"><path
         d="m 671.825,639.382 24.167,0 0,24.166 -24.167,0 0,-24.166 z"
         id="path4551"
         inkscape:connector-curvature="0" /></clipPath><clipPath
       clipPathUnits="userSpaceOnUse"
       id="clipPath4561"><path
         d="m 0,2551.181 2551.181,0 L 2551.181,0 0,0 0,2551.181 Z"
         id="path4563"
         inkscape:connector-curvature="0" /></clipPath><clipPath
       clipPathUnits="userSpaceOnUse"
       id="clipPath4697"><path
         d="m 2174.937,644.338 19.383,0 0,19.605 -19.383,0 0,-19.605 z"
         id="path4699"
         inkscape:connector-curvature="0" /></clipPath><clipPath
       clipPathUnits="userSpaceOnUse"
       id="clipPath4713"><path
         d="m 0,2551.181 2551.181,0 L 2551.181,0 0,0 0,2551.181 Z"
         id="path4715"
         inkscape:connector-curvature="0" /></clipPath><clipPath
       clipPathUnits="userSpaceOnUse"
       id="clipPath4973"><path
         d="m 0,2551.181 2551.181,0 L 2551.181,0 0,0 0,2551.181 Z"
         id="path4975"
         inkscape:connector-curvature="0" /></clipPath><clipPath
       clipPathUnits="userSpaceOnUse"
       id="clipPath5369"><path
         d="m 0,2551.181 2551.181,0 L 2551.181,0 0,0 0,2551.181 Z"
         id="path5371"
         inkscape:connector-curvature="0" /></clipPath><clipPath
       clipPathUnits="userSpaceOnUse"
       id="clipPath5707"><path
         d="m 0,2551.181 2551.181,0 L 2551.181,0 0,0 0,2551.181 Z"
         id="path5709"
         inkscape:connector-curvature="0" /></clipPath></defs><sodipodi:namedview
     inkscape:window-height="1007"
     inkscape:window-width="1920"
     inkscape:pageshadow="2"
     inkscape:pageopacity="0.0"
     guidetolerance="10.0"
     gridtolerance="10.0"
     objecttolerance="10.0"
     borderopacity="1.0"
     bordercolor="#666666"
     pagecolor="#ffffff"
     id="base"
     showgrid="false"
     inkscape:zoom="12.844299"
     inkscape:cx="31.5056"
     inkscape:cy="34.059493"
     inkscape:window-x="0"
     inkscape:window-y="27"
     inkscape:current-layer="g11"
     inkscape:window-maximized="1" /><g
     id="g11"
     inkscape:groupmode="layer"
     inkscape:label="A3ATM_Central"
     transform="matrix(1.25,0,0,-1.25,-1410.8664,798.20701)"><path
       d="m 1128.7259,638.91031 51.1583,0 0,-51.63773 -51.1583,0 0,51.63773 z"
       style="fill:#114681;fill-opacity:1;fill-rule:nonzero;stroke:none"
       id="path3929"
       inkscape:connector-curvature="0" /><path
       id="path3941"
       style="fill:#ffffff;fill-opacity:1;fill-rule:nonzero;stroke:none"
       d="m 1132.9773,593.62171 0,16.27024 c 0,0 -0.2226,1.52611 1.1606,2.29707 1.3828,0.76043 36.173,21.21677 36.173,21.21677 0,0 1.3829,1.02271 1.8732,-0.3073 l 0,-16.78689 -39.2068,-22.68989 z"
       inkscape:connector-curvature="0" /><path
       id="path3945"
       style="fill:#114681;fill-opacity:1;fill-rule:nonzero;stroke:none"
       d="m 1141.6787,607.67091 0,7.06344 -5.201,-2.92765 0,-7.06077 5.201,2.92498 z"
       inkscape:connector-curvature="0" /><path
       id="path3949"
       style="fill:#114681;fill-opacity:1;fill-rule:nonzero;stroke:none"
       d="m 1148.2039,611.23099 0,7.06875 -5.1954,-2.93295 0,-7.06876 5.1954,2.93296 z"
       inkscape:connector-curvature="0" /><path
       id="path3953"
       style="fill:#114681;fill-opacity:1;fill-rule:nonzero;stroke:none"
       d="m 1154.9492,615.14318 0,7.06343 -5.1902,-2.93826 0,-7.05813 5.1902,2.93296 z"
       inkscape:connector-curvature="0" /><path
       id="path3957"
       style="fill:#114681;fill-opacity:1;fill-rule:nonzero;stroke:none"
       d="m 1161.7241,619.05007 0,7.0634 -5.2035,-2.93293 0,-7.06343 5.2035,2.93296 z"
       inkscape:connector-curvature="0" /><path
       id="path3961"
       style="fill:#114681;fill-opacity:1;fill-rule:nonzero;stroke:none"
       d="m 1168.4719,622.95694 0,7.06342 -5.2008,-2.93296 0,-7.06343 5.2008,2.93297 z"
       inkscape:connector-curvature="0" /><path
       id="path3965"
       style="fill:none;stroke:#ffffff;stroke-width:1.31147659;stroke-linecap:butt;stroke-linejoin:miter;stroke-miterlimit:4;stroke-dasharray:none;stroke-opacity:1"
       d="m 1128.2425,587.66046 51.5319,28.67761"
       inkscape:connector-curvature="0" /></g></svg>