<?xml version="1.0" encoding="utf-8"?>
<!-- Generator: Adobe Illustrator 24.0.1, SVG Export Plug-In . SVG Version: 6.00 Build 0)  -->
<svg version="1.1" id="Capa_1" xmlns="http://www.w3.org/2000/svg" xmlns:xlink="http://www.w3.org/1999/xlink" x="0px" y="0px"
	 viewBox="0 0 35 35" style="enable-background:new 0 0 35 35;" xml:space="preserve">
<style type="text/css">
	.st0{fill:#A4A3A3;}
	.st1{fill:#FFFFFF;}
</style>
<g>
	<rect class="st0" width="35" height="35"/>
	<path class="st1" d="M6.8,16.1h4.4c1.8,0,2.8-0.8,2.8-2.6c0-1.8-1-2.6-2.8-2.6H6.8V16.1z M2.7,7.7h10c3.3,0,5.4,2.3,5.4,5.1
		c0,2.2-0.9,3.8-2.9,4.6v0c2,0.5,2.6,2.5,2.7,4.3c0.1,1.2,0,3.3,0.8,4.4h-4.1c-0.5-1.2-0.4-2.9-0.6-4.4c-0.3-1.9-1-2.8-3.1-2.8H6.8
		v7.2H2.7V7.7z"/>
	<path class="st1" d="M24.1,20.2c0,1.7,1.1,3.4,2.9,3.4c1.8,0,2.8-1.7,2.8-3.3c0-1.7-0.9-3.4-2.8-3.4C25,16.8,24.1,18.4,24.1,20.2
		 M29.6,12.8c-0.2-1.2-1.2-2.2-2.4-2.2c-2.7,0-3.4,3.5-3.5,5.5l0.1,0.1c1-1.4,2.3-2,4.1-2c1.6,0,3.1,0.7,4.2,1.9
		c1,1.1,1.4,2.6,1.4,4c0,3.7-2.6,6.6-6.3,6.6c-5.5,0-7-4.8-7-9.4c0-4.4,2-9.5,7.1-9.5c3.1,0,5.5,1.8,5.9,5H29.6z"/>
</g>
</svg>
