<?xml version="1.0" encoding="utf-8"?>
<!-- Generator: Adobe Illustrator 26.5.0, SVG Export Plug-In . SVG Version: 6.00 Build 0)  -->
<svg version="1.1" id="Capa_1" xmlns="http://www.w3.org/2000/svg" xmlns:xlink="http://www.w3.org/1999/xlink" x="0px" y="0px"
	 viewBox="0 0 140 140" style="enable-background:new 0 0 140 140;" xml:space="preserve">
<style type="text/css">
	.st0{fill:none;}
	.st1{fill:#003888;}
	.st2{enable-background:new    ;}
	.st3{fill:#FFFFFF;}
</style>
<rect y="40.9" class="st0" width="140" height="58.2"/>
<g>
	<g>
		<path class="st1" d="M140,70c0-38.7-31.3-70-70-70S0,31.3,0,70s31.3,70,70,70S140,108.7,140,70"/>
	</g>
	<g class="st2">
		<path class="st3" d="M14.3,40.9h10.8v21.9h19.9V40.9h10.8V98H44.9V73.4H25.1V98H14.3V40.9z"/>
	</g>
	<g class="st2">
		<path class="st3" d="M83.7,98H72.7V61.7H59.2v-8.6C66.8,53.3,73.8,50.6,75,42h8.7V98z"/>
	</g>
	<g class="st2">
		<path class="st3" d="M111.5,40.9c10.8,0,19.8,7,19.8,28.9c0,22.3-9.1,29.4-19.8,29.4c-10.6,0-19.7-7-19.7-29.4
			C91.8,47.9,100.9,40.9,111.5,40.9z M111.5,89.8c8.9,0,8.9-13.7,8.9-20c0-5.8,0-19.5-8.9-19.5c-8.8,0-8.8,13.7-8.8,19.5
			C102.7,76.1,102.7,89.8,111.5,89.8z"/>
	</g>
</g>
</svg>
