<?xml version="1.0" encoding="utf-8"?>
<!-- Generator: Adobe Illustrator 26.5.0, SVG Export Plug-In . SVG Version: 6.00 Build 0)  -->
<svg version="1.1" id="Capa_1" xmlns="http://www.w3.org/2000/svg" xmlns:xlink="http://www.w3.org/1999/xlink" x="0px" y="0px"
	 viewBox="0 0 140 140" style="enable-background:new 0 0 140 140;" xml:space="preserve">
<style type="text/css">
	.st0{fill:none;}
	.st1{fill:#003888;}
	.st2{enable-background:new    ;}
	.st3{fill:#FFFFFF;}
</style>
<rect y="40.9" class="st0" width="140" height="58.2"/>
<g>
	<g>
		<path class="st1" d="M140,70c0-38.7-31.3-70-70-70S0,31.3,0,70s31.3,70,70,70S140,108.7,140,70"/>
	</g>
	<g class="st2">
		<path class="st3" d="M13.9,40.9h10.8v21.9h19.9V40.9h10.8V98H44.6V73.4H24.7V98H13.9V40.9z"/>
	</g>
	<g class="st2">
		<path class="st3" d="M84.5,98H73.2V61.7H59.1v-8.6C67,53.3,74.3,50.6,75.5,42h9V98z"/>
	</g>
	<g class="st2">
		<path class="st3" d="M112.7,85H90V74.6L113.3,42h9.8v33.7h7.1V85h-7.1v13h-10.4V85z M112.7,56.2h-0.2L98.6,75.7h14.1V56.2z"/>
	</g>
</g>
</svg>
