<?xml version="1.0" encoding="utf-8"?>
<!-- Generator: Adobe Illustrator 26.5.0, SVG Export Plug-In . SVG Version: 6.00 Build 0)  -->
<svg version="1.1" id="Capa_1" xmlns="http://www.w3.org/2000/svg" xmlns:xlink="http://www.w3.org/1999/xlink" x="0px" y="0px"
	 viewBox="0 0 140 140" style="enable-background:new 0 0 140 140;" xml:space="preserve">
<style type="text/css">
	.st0{fill:none;}
	.st1{fill:#003888;}
	.st2{enable-background:new    ;}
	.st3{fill:#FFFFFF;}
</style>
<rect y="40.9" class="st0" width="140" height="58.2"/>
<g>
	<g>
		<path class="st1" d="M140,70c0-38.7-31.3-70-70-70S0,31.3,0,70s31.3,70,70,70S140,108.7,140,70"/>
	</g>
	<g class="st2">
		<path class="st3" d="M14.3,40.9h10.8v21.9h19.9V40.9h10.8V98H44.9V73.4H25.1V98H14.3V40.9z"/>
	</g>
	<g class="st2">
		<path class="st3" d="M84.9,98H73.5V61.7H59.5v-8.6c7.9,0.2,15.2-2.6,16.4-11.1h9V98z"/>
	</g>
	<g class="st2">
		<path class="st3" d="M119.1,56.4c-0.7-3.8-3.5-7-7.2-7c-7.9,0-10,10.8-10.3,17l0.2,0.2c3-4.4,6.9-6.2,12.1-6.2
			c4.6,0,9.3,2.2,12.4,5.8c2.8,3.4,4.1,8.1,4.1,12.5c0,11.4-7.6,20.5-18.8,20.5c-16.3,0-20.7-14.8-20.7-29
			c0-13.7,5.8-29.3,21.1-29.3c9.3,0,16.2,5.7,17.4,15.5H119.1z M102.6,79.4c0,5.2,3.2,10.4,8.7,10.4c5.2,0,8.2-5.2,8.2-10.2
			c0-5.3-2.6-10.6-8.2-10.6C105.5,69,102.6,73.8,102.6,79.4z"/>
	</g>
</g>
</svg>
