<?xml version="1.0" encoding="utf-8"?>
<!-- Generator: Adobe Illustrator 27.3.1, SVG Export Plug-In . SVG Version: 6.00 Build 0)  -->
<svg version="1.1" id="Capa_1" xmlns="http://www.w3.org/2000/svg" xmlns:xlink="http://www.w3.org/1999/xlink" x="0px" y="0px"
	 viewBox="0 0 200 200" style="enable-background:new 0 0 200 200;" xml:space="preserve">
<style type="text/css">
	.st0{fill:#0B0907;}
	.st1{fill:#E30613;}
	.st2{fill:none;stroke:#000000;stroke-width:4;}
	.st3{fill:#FFFFFF;}
</style>
<path class="st0" d="M197.5,2.5v195H2.5V2.5H197.5 M200,0H0v200h200V0z"/>
<path d="M1144.4,2275.7c0-5.5-4.5-10-10.1-10c-5.6,0-10.1,4.5-10.1,10c0,5.5,4.5,10,10.1,10
	C1139.9,2285.6,1144.4,2281.2,1144.4,2275.7 M1174,2392.3h-5.7c0.8,2.4,3.1,4.2,5.7,4.2c4.1,0,7.5-4.4,5.4-8.6
	c-0.8-1.7-2.5-3-4.4-3.2c-3.2-0.4-5.9,1.4-6.6,4.1h5.7c1,0,1.8,0.8,1.8,1.8C1175.8,2391.5,1174.9,2392.3,1174,2392.3 M1103.6,2396.5
	c2.8,0,5.3-1.9,5.9-4.6c0.7-3.4-1.3-6-4.1-7v5.6c0,1-0.8,1.8-1.8,1.8c-1,0-1.8-0.8-1.8-1.8v-5.6c-2.4,0.8-4.2,3-4.2,5.6
	C1097.6,2393.7,1100.2,2396.5,1103.6,2396.5 M1099.9,2381.7v-10c0-1.3,0.8-2.4,1.8-3.1v-39.5c-1.5-0.6-2.8-1.9-3.1-3.7
	c-0.5-2.6,1.3-5.1,4.1-5.6l24.5-4.2c0,0,7.8-23,8.3-23.8c0.3-0.5,0.7-1,1.1-1.3c0.6-0.6,1.6-1.3,2.4-1.6c3.4-1.4,9.7-1.3,11.7,3.2
	l12.4,29.2c1.4,3.4,0.8,7.3-1.8,10l6.3,15.6l25.9,0c2.6,0,5.1,1.6,5.8,4c1.1,3.7-1.8,7.2-5.5,7.2h-30.1c-2.3,0-4.4-1.3-5.2-3.4
	l-18.8-44.9l-4.1,12c-0.6,1.8-2.1,2.9-3.9,3.2l-26.5,4.5v39.2c0.5,0.3,1,0.6,1.3,1.1l19.2,18.8h32.7c0.8-7.7,7.5-13.6,15.4-13.6
	c1,0,1.8,0.8,1.8,1.8c0,1-0.8,1.8-1.8,1.8c-6,0-10.9,4.3-11.7,10h2.3c0.9-5,6-8.7,11.6-7.5c3.5,0.8,6.4,3.6,7.3,7.1
	c1.5,6.3-3.4,11.9-9.5,11.9c-4.7,0-8.6-3.4-9.4-7.7h-39.3c-0.2,0-0.5,0-0.7-0.2c-0.2-0.2-0.3-0.2-0.5-0.3l-16.7-16.5v6.3
	c4.1,1.7,6.7,5.8,5.9,10.6c-0.6,3.6-3.4,6.5-6.9,7.5c-6.5,1.7-12.4-3.1-12.4-9.3C1093.9,2386.5,1096.3,2383.2,1099.9,2381.7
	L1099.9,2381.7z M1151.7,2342.9l-10.7,12.4v24.9c0,3.9-2.9,5.6-5.7,5.6c-3.1,0-5.7-2.5-5.7-5.6l-0.1-27c0-1.4,0.5-2.7,1.5-3.7
	l15.9-18L1151.7,2342.9z"/>
<polygon class="st1" points="1072.8,2256 1072.8,2264.1 1221.6,2413 1229.8,2413 1229.8,2404.9 1081,2256 "/>
<rect x="1071.8" y="2255" class="st2" width="159" height="159"/>
<polygon points="1744.6,1564.3 1746.2,1565.8 1745.7,1566.3 1744.2,1564.7 "/>
<path d="M1750.6,1566.9l-1.6-1.6l-1.3,0.9l0,0c0.4,0,0.7,0.2,1,0.4c0.7,0.7,0.8,1.7-0.1,2.6c-0.7,0.7-1.8,0.8-2.7-0.1
	c-0.7-0.7-0.8-1.6-0.1-2.3l0.5,0.5c-0.4,0.4-0.3,1,0.1,1.5c0.4,0.4,1.1,0.5,1.7-0.1c0.5-0.5,0.5-1.2,0-1.7c-0.3-0.3-0.7-0.4-1.1-0.4
	l-0.4-0.4l2.4-1.6l1.9,1.9L1750.6,1566.9z"/>
<path d="M1749.5,1571.9c0.8,0.8,1.8-0.2,2.4-0.8c0.6-0.6,1.6-1.6,0.8-2.3c-0.8-0.8-1.8,0.2-2.4,0.8
	C1749.7,1570.1,1748.7,1571.1,1749.5,1571.9 M1753.1,1568.4c1.2,1.2,0.2,2.4-0.7,3.3c-0.9,0.8-2.1,1.9-3.3,0.7s-0.2-2.4,0.7-3.2
	C1750.6,1568.2,1751.8,1567.2,1753.1,1568.4"/>
<path d="M1756.3,1575.5c0.3-0.4,0.2-0.9-0.1-1.3c-0.7-0.7-1.4-0.3-2,0.2c-0.5,0.5-0.8,1.3-0.2,1.9c0.4,0.4,1,0.4,1.5,0.1l0.5,0.5
	c-0.8,0.6-1.6,0.6-2.4-0.1c-0.9-0.9-0.7-1.9,0.1-2.8c0.8-0.8,2-1.1,2.9-0.2c0.6,0.6,0.9,1.4,0.3,2.2L1756.3,1575.5z"/>
<path d="M1758.2,1575.6l0.4,0.4l-0.4,0.4l0,0c0.5-0.1,1,0,1.4,0.4c0.3,0.3,0.5,0.8,0.3,1.3c0.5-0.1,1,0,1.4,0.4
	c0.6,0.6,0.7,1.2,0.1,1.8l-2.1,2.1l-0.5-0.5l1.9-1.8c0.3-0.3,0.5-0.7,0.1-1.2c-0.4-0.4-1-0.4-1.5,0l-1.8,1.8l-0.5-0.5l1.9-1.8
	c0.4-0.4,0.5-0.7,0.1-1.2c-0.6-0.5-1.3-0.2-1.5,0l-1.8,1.8l-0.5-0.5L1758.2,1575.6z"/>
<polygon points="1760.7,1582.5 1761.3,1583.1 1760.7,1583.7 1760.1,1583.1 "/>
<path d="M1721.7,1633c-3.2,0-5.8-2.7-6.3-6.2l0,0.1l-5-20.8h0l-16-25.5h-1.2l-0.3,0.8l-18.7,40.8l-2,4.5c-1.8,3.9-3.4,8.6-8.9,7.8
	c-3.6-0.6-5.8-4.1-4.2-7.8l20.9-49.8v-36.1l-10.9,13.8v20.7c0,2.6-2.2,4.7-4.8,4.7c-2.7,0-4.8-2.1-4.8-4.7l0-22.8c0,0-0.4-3.5,1-4.5
	l10.9-14.4c5-6.8,10-6.2,10-6.2l0.4,0h17.8l2.1,0c7.7,0,8.9,2.4,14.1,8l23.4,24.4l0,0c1.8,1.9,1.7,4.9-0.3,6.7
	c-1.9,1.8-5,1.7-6.8-0.2l-24.7-25.4l0,4.2v31.9l13,21.7l2.6,5.4l5,22.7C1728.5,1629.6,1725.8,1633.3,1721.7,1633"/>
<path d="M1684.6,1513.2c0-6.1,5.1-11.1,11.3-11.1c6.2,0,11.3,5,11.3,11.1s-5,11.1-11.3,11.1
	C1689.7,1524.3,1684.6,1519.3,1684.6,1513.2"/>
<polygon points="1764.5,1589.7 1763,1591.6 1731.5,1559.9 1733.2,1558.3 "/>
<path d="M1733.4,1559.5c-0.2,0.6-0.9,0.9-1.5,0.7c-0.6-0.2-0.9-0.9-0.7-1.5c0.2-0.6,0.9-0.9,1.5-0.7
	C1733.3,1558.3,1733.7,1558.9,1733.4,1559.5"/>
<path d="M1749.1,1612.7h17.9v15.8c0,2.6,2.1,4.7,4.7,4.7c2.6,0,4.7-2.1,4.7-4.7v-15.8c1.4,0,1.6-0.9,1.6-2v-11.8l-14.9-7.2h-31.7
	l-4.1-2.3c-1.3-0.7-3-0.3-3.7,1c-0.7,1.3-0.3,3,1,3.7l6.5,3.7v30.8c0,2.6,2.1,4.7,4.7,4.7s4.7-2.1,4.7-4.7l0-12.1l8.6,14.3
	c1.3,2.2,4.2,2.9,6.5,1.6c2.2-1.3,3-4.2,1.6-6.4L1749.1,1612.7z"/>
<path d="M1792,1585.5l-3.2,6.7l-10.9,0v3.9l-13.4-6.3v-19.5l26.7,12.6C1791.2,1582.9,1792.9,1583.7,1792,1585.5"/>
<path class="st3" d="M1790.5,1585.7l-2.5,5.4l-8.7,0l4.3-10.5l6.3,3C1789.8,1583.6,1791.2,1584.2,1790.5,1585.7"/>
<path d="M1768.9,1545.6c-12.2,0-22.1-10.1-22.1-22.4h3.5c0,10.4,8.3,18.9,18.6,18.9c10.2,0,18.6-8.5,18.6-18.9h3.5
	C1791.1,1535.5,1781.1,1545.6,1768.9,1545.6 M1791.1,1523.1h-3.5c0-10.4-8.3-18.9-18.6-18.9c-10.2,0-18.6,8.5-18.6,18.9h-3.5
	c0-12.4,9.9-22.4,22.1-22.4S1791.1,1510.8,1791.1,1523.1"/>
<polygon points="1766.3,1529.8 1766.3,1508.6 1769.9,1508.6 1769.9,1522.2 1776.1,1517.2 1778.3,1519.9 "/>
<rect x="1645.3" y="1486.5" class="st2" width="160" height="160"/>
<polygon points="1744.6,1564.3 1746.2,1565.8 1745.7,1566.3 1744.2,1564.7 "/>
<path d="M1750.6,1566.9l-1.6-1.6l-1.3,0.9l0,0c0.4,0,0.7,0.2,1,0.4c0.7,0.7,0.8,1.7-0.1,2.6c-0.7,0.7-1.8,0.8-2.7-0.1
	c-0.7-0.7-0.8-1.6-0.1-2.3l0.5,0.5c-0.4,0.4-0.3,1,0.1,1.5c0.4,0.4,1.1,0.5,1.7-0.1c0.5-0.5,0.5-1.2,0-1.7c-0.3-0.3-0.7-0.4-1.1-0.4
	l-0.4-0.4l2.4-1.6l1.9,1.9L1750.6,1566.9z"/>
<path d="M1749.5,1571.9c0.8,0.8,1.8-0.2,2.4-0.8c0.6-0.6,1.6-1.6,0.8-2.3c-0.8-0.8-1.8,0.2-2.4,0.8
	C1749.7,1570.1,1748.7,1571.1,1749.5,1571.9 M1753.1,1568.4c1.2,1.2,0.2,2.4-0.7,3.3c-0.9,0.8-2.1,1.9-3.3,0.7s-0.2-2.4,0.7-3.2
	C1750.6,1568.2,1751.8,1567.2,1753.1,1568.4"/>
<path d="M1756.3,1575.5c0.3-0.4,0.2-0.9-0.1-1.3c-0.7-0.7-1.4-0.3-2,0.2c-0.5,0.5-0.8,1.3-0.2,1.9c0.4,0.4,1,0.4,1.5,0.1l0.5,0.5
	c-0.8,0.6-1.6,0.6-2.4-0.1c-0.9-0.9-0.7-1.9,0.1-2.8c0.8-0.8,2-1.1,2.9-0.2c0.6,0.6,0.9,1.4,0.3,2.2L1756.3,1575.5z"/>
<path d="M1758.2,1575.6l0.4,0.4l-0.4,0.4l0,0c0.5-0.1,1,0,1.4,0.4c0.3,0.3,0.5,0.8,0.3,1.3c0.5-0.1,1,0,1.4,0.4
	c0.6,0.6,0.7,1.2,0.1,1.8l-2.1,2.1l-0.5-0.5l1.9-1.8c0.3-0.3,0.5-0.7,0.1-1.2c-0.4-0.4-1-0.4-1.5,0l-1.8,1.8l-0.5-0.5l1.9-1.8
	c0.4-0.4,0.5-0.7,0.1-1.2c-0.6-0.5-1.3-0.2-1.5,0l-1.8,1.8l-0.5-0.5L1758.2,1575.6z"/>
<polygon points="1760.7,1582.5 1761.3,1583.1 1760.7,1583.7 1760.1,1583.1 "/>
<path d="M1721.7,1633c-3.2,0-5.8-2.7-6.3-6.2l0,0.1l-5-20.8h0l-16-25.5h-1.2l-0.3,0.8l-18.7,40.8l-2,4.5c-1.8,3.9-3.4,8.6-8.9,7.8
	c-3.6-0.6-5.8-4.1-4.2-7.8l20.9-49.8v-36.1l-10.9,13.8v20.7c0,2.6-2.2,4.7-4.8,4.7c-2.7,0-4.8-2.1-4.8-4.7l0-22.8c0,0-0.4-3.5,1-4.5
	l10.9-14.4c5-6.8,10-6.2,10-6.2l0.4,0h17.8l2.1,0c7.7,0,8.9,2.4,14.1,8l23.4,24.4l0,0c1.8,1.9,1.7,4.9-0.3,6.7
	c-1.9,1.8-5,1.7-6.8-0.2l-24.7-25.4l0,4.2v31.9l13,21.7l2.6,5.4l5,22.7C1728.5,1629.6,1725.8,1633.3,1721.7,1633"/>
<path d="M1684.6,1513.2c0-6.1,5.1-11.1,11.3-11.1c6.2,0,11.3,5,11.3,11.1s-5,11.1-11.3,11.1
	C1689.7,1524.3,1684.6,1519.3,1684.6,1513.2"/>
<polygon points="1764.5,1589.7 1763,1591.6 1731.5,1559.9 1733.2,1558.3 "/>
<path d="M1733.4,1559.5c-0.2,0.6-0.9,0.9-1.5,0.7c-0.6-0.2-0.9-0.9-0.7-1.5c0.2-0.6,0.9-0.9,1.5-0.7
	C1733.3,1558.3,1733.7,1558.9,1733.4,1559.5"/>
<path d="M1749.1,1612.7h17.9v15.8c0,2.6,2.1,4.7,4.7,4.7c2.6,0,4.7-2.1,4.7-4.7v-15.8c1.4,0,1.6-0.9,1.6-2v-11.8l-14.9-7.2h-31.7
	l-4.1-2.3c-1.3-0.7-3-0.3-3.7,1c-0.7,1.3-0.3,3,1,3.7l6.5,3.7v30.8c0,2.6,2.1,4.7,4.7,4.7s4.7-2.1,4.7-4.7l0-12.1l8.6,14.3
	c1.3,2.2,4.2,2.9,6.5,1.6c2.2-1.3,3-4.2,1.6-6.4L1749.1,1612.7z"/>
<path d="M1792,1585.5l-3.2,6.7l-10.9,0v3.9l-13.4-6.3v-19.5l26.7,12.6C1791.2,1582.9,1792.9,1583.7,1792,1585.5"/>
<path class="st3" d="M1790.5,1585.7l-2.5,5.4l-8.7,0l4.3-10.5l6.3,3C1789.8,1583.6,1791.2,1584.2,1790.5,1585.7"/>
<path d="M1768.9,1545.6c-12.2,0-22.1-10.1-22.1-22.4h3.5c0,10.4,8.3,18.9,18.6,18.9c10.2,0,18.6-8.5,18.6-18.9h3.5
	C1791.1,1535.5,1781.1,1545.6,1768.9,1545.6 M1791.1,1523.1h-3.5c0-10.4-8.3-18.9-18.6-18.9c-10.2,0-18.6,8.5-18.6,18.9h-3.5
	c0-12.4,9.9-22.4,22.1-22.4S1791.1,1510.8,1791.1,1523.1"/>
<polygon points="1766.3,1529.8 1766.3,1508.6 1769.9,1508.6 1769.9,1522.2 1776.1,1517.2 1778.3,1519.9 "/>
<rect x="1645.3" y="1486.5" class="st2" width="160" height="160"/>
<path d="M66.2,92.2h17.6c2.3,0,4.2-1.8,4.2-4.1c0-2.3-1.9-4.1-4.2-4.1H66.2c-2.3,0-4.2,1.8-4.2,4.1C62,90.3,63.9,92.2,66.2,92.2"/>
<path d="M147.3,166c-12.8,0-23.2-10.3-23.2-22.9c0-8.1,4.3-15.3,10.8-19.3l10.3,22.7c0.7,1.5,2.2,2.4,3.8,2.4c0.6,0,1.1-0.1,1.7-0.4
	c2.1-0.9,3-3.4,2.1-5.4l-10.2-22.4c1.5-0.3,3.1-0.5,4.7-0.5c12.8,0,23.2,10.3,23.2,22.9C170.5,155.7,160.1,166,147.3,166
	 M98.5,137.5l-18.2-31.7h41L98.5,137.5z M49.9,165.6c-12.8,0-23.2-10.3-23.2-22.9c0-12.6,10.4-22.9,23.2-22.9c2.5,0,4.8,0.4,7.1,1.1
	l-9.8,17.4c-0.2,0-0.4-0.1-0.6-0.1c-2.8,0-5,2.2-5,4.9c0,2.7,2.2,4.9,5,4.9c1.7,0,3.1-0.8,4-2.1h22.2
	C71.2,157,61.5,165.6,49.9,165.6 M64.3,124.7c4.1,3.2,7.1,7.8,8.2,13H56.9L64.3,124.7z M72.8,109.5L89,137.7h-7.8
	c-1.3-8.4-6.1-15.7-12.7-20.5L72.8,109.5z M147.3,111.6c-2.9,0-5.6,0.4-8.3,1.1l-15-32.9h-23.6c-2.3,0-4.2,1.8-4.2,4.1
	c0,2.3,1.9,4.1,4.2,4.1h18.2l4.3,9.5H72.4c-1.5,0-2.9,0.8-3.6,2.1l-7.7,13.6c-3.5-1.3-7.3-2.1-11.3-2.1c-17.6,0-31.8,14.1-31.8,31.4
	c0,17.3,14.2,31.4,31.8,31.4c16.4,0,30-12.3,31.6-28.1h19c1.3,0,2.6-0.6,3.4-1.7l24.8-34.4l2.8,6.1c-9.5,5.4-15.8,15.5-15.8,27.1
	c0,17.3,14.2,31.4,31.8,31.4s31.8-14.1,31.8-31.4C179.1,125.7,164.9,111.6,147.3,111.6"/>
<path d="M154.8,80.6c-15,0-27.1-12.3-27.1-27.5h4.3c0,12.7,10.2,23.1,22.8,23.1c12.6,0,22.8-10.4,22.8-23.1h4.3
	C181.9,68.2,169.8,80.6,154.8,80.6 M181.9,53.1h-4.3c0-12.7-10.2-23.1-22.8-23.1c-12.6,0-22.8,10.4-22.8,23.1h-4.3
	c0-15.2,12.2-27.5,27.1-27.5C169.8,25.5,181.9,37.9,181.9,53.1"/>
<polygon points="151.6,61.2 151.6,35.2 156,35.2 156,52 163.5,45.7 166.3,49.2 "/>
</svg>
