<?xml version="1.0" encoding="utf-8"?>
<!-- Generator: Adobe Illustrator 27.3.1, SVG Export Plug-In . SVG Version: 6.00 Build 0)  -->
<svg version="1.1" id="Capa_1" xmlns="http://www.w3.org/2000/svg" xmlns:xlink="http://www.w3.org/1999/xlink" x="0px" y="0px"
	 viewBox="0 0 200 200" style="enable-background:new 0 0 200 200;" xml:space="preserve">
<style type="text/css">
	.st0{fill:#FFFFFF;}
	.st1{fill:#0D0802;}
	.st2{fill:#1A171B;}
</style>
<g id="Capa_2_00000076598928854421026550000011302869014277050284_">
	<rect class="st0" width="200" height="200"/>
</g>
<g id="Capa_1_00000141439936078759946950000002404461097908763316_">
	<path class="st1" d="M197.5,2.5v195H2.5V2.5H197.5 M200,0H0v200h200V0z"/>
	<path class="st2" d="M100.8,85.3l-0.3-1.2H37.7c-2.5,0-4.6-2.1-4.6-4.6V26.4c0-2.5,2.1-4.6,4.6-4.6h89.9c2.5,0,4.6,2.1,4.6,4.6V53
		c1.5-0.3,3.1-0.3,4.6,0V26.4c0-5.1-4.1-9.2-9.2-9.2H37.7c-5.1,0-9.2,4.1-9.2,9.2v53.1c0,5.1,4.1,9.2,9.2,9.2h59.5L100.8,85.3z"/>
	<polygon class="st2" points="37.6,70.4 46,76.2 46,64.5 	"/>
	<polygon class="st2" points="48.4,70.4 56.8,76.2 56.8,64.5 	"/>
	<path class="st2" d="M170.2,102.6l-28.8-41.8c-2.1-3.6-6.5-5-10.3-3.2l-15.8,5.1c-3.7,1.7-6.7,4.7-8.4,8.4l-2.5,5.5
		c-0.7,1.4-0.8,3-0.5,4.6l6.1-5.5c4.6-4.2,11.4-4.8,16.7-1.6l24,15.1c1.1,0.6,1.6,2,0.9,3.2s-2,1.5-3.2,0.9l0,0l-24.1-15.2
		c-3.6-2.2-8.1-1.7-11.2,1.1L95,96.5c-3.9,3.6-4.5,9.5-1.5,13.8l10.6-13.6c3.8-4.9,10.4-6.7,16.1-4.5l0.2,0.1l24.2,12.5
		c1.1,0.6,1.6,2,1.1,3.2l0,0c-0.5,1.1-1.7,1.6-2.8,1.1c0,0-0.1,0-0.1-0.1l-24.2-12.5c-0.1,0-0.2-0.1-0.3-0.1
		c-3.8-1.4-8.1-0.1-10.6,3.1l-15.2,19.6c-2.6,3.3-2.5,8,0.1,11.3c1.4,1.8,2.9,3.5,3.8,4.5c-0.5-2.3,0-4.7,1.4-6.6l9.6-12.9
		c2.4-3.2,6.7-4.2,10.3-2.3l23.4,12.4c1.1,0.6,1.6,1.9,1.1,3.1c-0.6,1.1-1.9,1.6-3.1,1.1c0,0,0,0-0.1,0l-23.5-12.4
		c-1.5-0.8-3.3-0.4-4.4,1l-9.6,12.9c-1.1,1.5-0.8,3.5,0.6,4.7l9.6,7.8l0,0c0.8-0.9,1.3-2,1.5-3.2c0.4-2.3-0.4-4.5-2.1-6l4.7-5.9
		l16,9.3c1.1,0.7,1.4,2.1,0.8,3.2c-0.1,0.2-15,24.3-5.6,39c0.7,1.1,0.4,2.5-0.7,3.2c-1.1,0.7-2.5,0.4-3.2-0.7l0,0
		c-4.5-7.2-5-17.1-1.2-28.8c1.5-4.6,3.4-8.9,5.6-13.1l-10.4-6.1c0.7,1.4,1,3,1,4.6c0,2.8-1,5.6-2.9,7.7l-0.9,1.1
		c-1,1.2-2.8,1.3-4,0.3l-9-7.3c-0.8,1-1.5,2.2-1.9,3.4c-6.6,18.4,4,35.2,4,35.2l-1.8,17.9h42.1v-12.4l27.4-73.9
		C172,108.3,171.7,105.2,170.2,102.6z"/>
</g>
</svg>
