<?xml version="1.0" encoding="UTF-8" standalone="no"?>
<!-- Created with Inkscape (http://www.inkscape.org/) -->
<svg id="svg2" xmlns:rdf="http://www.w3.org/1999/02/22-rdf-syntax-ns#" xmlns="http://www.w3.org/2000/svg" height="64" width="64" version="1.0" xmlns:cc="http://creativecommons.org/ns#" xmlns:dc="http://purl.org/dc/elements/1.1/">
 <metadata id="metadata7">
  <rdf:RDF>
   <cc:Work rdf:about="">
    <dc:format>image/svg+xml</dc:format>
    <dc:type rdf:resource="http://purl.org/dc/dcmitype/StillImage"/>
    <dc:title/>
   </cc:Work>
  </rdf:RDF>
 </metadata>
 <g id="capa1" transform="translate(-39.67 -26.442)">
  <path id="path5545" d="m103.67 90.442v-64h-64v64h64z" fill="#ff6500"/>
  <g fill="#fff">
   <g id="g5547" transform="matrix(0 -8.2783 -8.2235 0 46.845 71.269)">
    <path id="path5549" d="m0 0v-2.611h0.681v1.797h3.01v0.814h-3.691" fill="#fff"/>
   </g>
   <g id="g5551" transform="matrix(0 -8.2783 -8.2235 0 77.492 41.285)">
    <path id="path5553" d="m0 0v0.585c-0.554 0.076-0.733 0.549-0.721 1.059h-0.553v-0.907h-2.348v-0.737h3.622" fill="#fff"/>
   </g>
   <path id="text5988" d="m84.798 56.148c-0.000007-0.51755-0.000007-1.1358 0-1.8546 0.02874-0.74758 0.08626-1.5095 0.17252-2.2859 0.08625-0.77633 0.23002-1.5383 0.4313-2.2859 0.20127-0.77633 0.47443-1.4664 0.81948-2.0703 0.37379-0.6038 0.83384-1.0926 1.3802-1.4664 0.57506-0.37377 1.2795-0.56067 2.1134-0.5607 0.83384 0.000027 1.5383 0.18692 2.1134 0.5607 0.57506 0.37382 1.0495 0.86263 1.4233 1.4664 0.37378 0.60385 0.64694 1.2939 0.81948 2.0703 0.20126 0.74762 0.34503 1.5096 0.4313 2.2859 0.11499 0.77637 0.1725 1.5383 0.17252 2.2859 0.02873 0.71886 0.04312 1.3371 0.04313 1.8546-0.000017 0.86262-0.02877 1.9121-0.08626 3.1485-0.05753 1.2077-0.24442 2.3866-0.5607 3.5367-0.28755 1.1214-0.77636 2.0846-1.4664 2.8897-0.66135 0.80511-1.6246 1.2077-2.8897 1.2077-1.2364 0.000004-2.1853-0.40255-2.8466-1.2077-0.66134-0.8051-1.1502-1.7683-1.4664-2.8897-0.288-1.15-0.46-2.329-0.518-3.537-0.057-1.236-0.086-2.286-0.086-3.148m-6.1245 0c-0.000002 3.0191 0.28753 5.5495 0.86261 7.591 0.60382 2.0128 1.4089 3.623 2.4153 4.8306 1.0064 1.2077 2.1709 2.0703 3.4936 2.5878 1.3514 0.51756 2.7747 0.77635 4.2699 0.77635 1.5239 0 2.9472-0.25878 4.2699-0.77635 1.3514-0.51756 2.5303-1.3802 3.5367-2.5878 1.0351-1.2076 1.8402-2.8178 2.4153-4.8306 0.6038-2.0415 0.90572-4.5718 0.90574-7.591-0.00002-2.9329-0.30194-5.3913-0.90574-7.3753-0.57509-2.0127-1.3802-3.6229-2.4153-4.8306-1.0064-1.2076-2.1853-2.0702-3.5367-2.5878-1.3227-0.51753-2.746-0.77632-4.2699-0.77635-1.4952 0.000031-2.9185 0.25881-4.2699 0.77635-1.3227 0.5176-2.4872 1.3802-3.4936 2.5878-1.0064 1.2077-1.8115 2.8179-2.4153 4.8306-0.57508 1.984-0.86261 4.4425-0.86261 7.3753"/>
  </g>
 </g>
</svg>
