<?xml version="1.0" encoding="UTF-8" standalone="no"?>
<svg id="svg21844" xmlns:rdf="http://www.w3.org/1999/02/22-rdf-syntax-ns#" xmlns="http://www.w3.org/2000/svg" height="64" width="64" version="1.0" xmlns:cc="http://creativecommons.org/ns#" xmlns:dc="http://purl.org/dc/elements/1.1/">
 <metadata id="metadata21849">
  <rdf:RDF>
   <cc:Work rdf:about="">
    <dc:format>image/svg+xml</dc:format>
    <dc:type rdf:resource="http://purl.org/dc/dcmitype/StillImage"/>
    <dc:title/>
   </cc:Work>
  </rdf:RDF>
 </metadata>
 <g id="layer1" transform="translate(-.78733 136.13)">
  <rect id="rect21854" height="64" width="64" y="-136.13" x=".78733" fill="#00adef"/>
  <g fill="#fff">
   <path id="text2382" d="m7.9528-127.36v30.933h21.623v-5.7187h-14.9v-25.214h-6.7223"/>
   <path id="text22626" d="m38.577-96.42v-30.388h-4.8212c-0.17068 1.1576-0.52622 2.1272-1.0666 2.9085-0.54045 0.78141-1.2089 1.4181-2.0053 1.9101-0.768 0.46308-1.6498 0.7959-2.6453 0.99845-0.9671 0.17367-1.9769 0.24602-3.0293 0.21705v4.645h7.5092v19.709h6.0586"/>
   <path id="text2389" d="m45.933-111.93c-0.000007-0.51682-0.000007-1.1341 0-1.852 0.02887-0.74652 0.08664-1.5074 0.17329-2.2826 0.08664-0.77523 0.23105-1.5361 0.43323-2.2827 0.20217-0.77522 0.47654-1.4643 0.82314-2.0673 0.37546-0.60295 0.83757-1.0911 1.3863-1.4643 0.57763-0.37324 1.2852-0.55987 2.1228-0.5599 0.83756 0.00003 1.5452 0.18666 2.1228 0.5599 0.57762 0.37328 1.0542 0.86139 1.4297 1.4643 0.37545 0.60298 0.64983 1.2921 0.82314 2.0673 0.20216 0.74655 0.34657 1.5074 0.43323 2.2827 0.11551 0.77525 0.17328 1.5361 0.17329 2.2826 0.02886 0.71783 0.04331 1.3351 0.04332 1.852-0.000017 0.86139-0.0289 1.9094-0.08665 3.144-0.05778 1.2059-0.24551 2.3832-0.5632 3.5317-0.28884 1.1198-0.77983 2.0817-1.473 2.8856-0.6643 0.80396-1.6318 1.2059-2.9026 1.2059-1.2419 0.00001-2.195-0.40197-2.8593-1.2059-0.66429-0.80394-1.1553-1.7658-1.473-2.8856-0.28883-1.1485-0.46212-2.3257-0.51988-3.5317-0.05777-1.2346-0.08665-2.2826-0.08665-3.144m-6.1519 0c-0.000001 3.0148 0.28882 5.5415 0.86646 7.5801 0.60652 2.0099 1.4152 3.6178 2.4261 4.8237s2.1806 2.0673 3.5092 2.5841c1.3574 0.51683 2.7871 0.77524 4.289 0.77524 1.5307 0 2.9604-0.25841 4.289-0.77524 1.3574-0.51683 2.5416-1.3782 3.5525-2.5841 1.0397-1.2059 1.8484-2.8138 2.4261-4.8237 0.6065-2.0386 0.90976-4.5653 0.90978-7.5801-0.000023-2.9287-0.30328-5.3836-0.90978-7.3648-0.57766-2.0099-1.3864-3.6178-2.4261-4.8237-1.0109-1.2059-2.195-2.0673-3.5525-2.5841-1.3286-0.5168-2.7582-0.77522-4.289-0.77525-1.5019 0.00003-2.9315 0.25845-4.289 0.77525-1.3286 0.51685-2.4983 1.3782-3.5092 2.5841-1.0109 1.206-1.8196 2.8139-2.4261 4.8237-0.57764 1.9812-0.86646 4.4361-0.86646 7.3648"/>
   <g id="text2996">
    <path id="path3350" d="m14.566-81.993-4.7969-8.4766q0.039063 0.34375 0.070312 0.6875 0.03125 0.29688 0.046875 0.64062 0.023437 0.34375 0.023437 0.65625v6.4922h-2.0469v-11.008h2.6328l4.8672 8.5469q-0.03906-0.32812-0.07031-0.6875-0.03125-0.30469-0.05469-0.6875-0.01563-0.38281-0.01563-0.77344v-6.3984h2.0469v11.008h-2.7031z"/>
    <path id="path3352" d="m26.754-86.228q0 0.96875-0.27344 1.7734-0.26562 0.80469-0.80469 1.3906-0.53906 0.57812-1.3438 0.90625-0.80469 0.32031-1.875 0.32031-1.0312 0-1.8203-0.32031-0.78906-0.32031-1.3281-0.89844-0.53125-0.57812-0.80469-1.3828-0.27344-0.8125-0.27344-1.7891 0-0.94531 0.25781-1.7422 0.26562-0.80469 0.79688-1.3906 0.53125-0.58594 1.3359-0.91406 0.80469-0.32812 1.8828-0.32812 1.1406 0 1.9453 0.32812 0.80469 0.32812 1.3125 0.91406 0.51562 0.57812 0.75 1.3828 0.24219 0.79688 0.24219 1.75zm-2.2969 0q0-1.5078-0.49219-2.1875-0.49219-0.67969-1.4297-0.67969-0.96875 0-1.4844 0.6875-0.51562 0.6875-0.51562 2.1797 0 0.75781 0.13281 1.3047 0.14062 0.54688 0.39062 0.89844t0.60156 0.52344q0.35156 0.16406 0.77344 0.16406 0.48438 0 0.85938-0.16406 0.38281-0.17188 0.64062-0.52344t0.39062-0.89844 0.13281-1.3047z"/>
    <path id="path3354" d="m27.754-81.993v-6.4688q0-0.27344-0.0078-0.57812 0-0.30469-0.01563-0.57812-0.0078-0.28125-0.01563-0.5-0.0078-0.22656-0.02344-0.32812h2.0938q0.01563 0.09375 0.03125 0.32812 0.01563 0.22656 0.03125 0.5 0.01563 0.27344 0.02344 0.54688 0.01563 0.26562 0.01563 0.42969h0.03125q0.16406-0.46094 0.32812-0.82031 0.16406-0.36719 0.38281-0.61719 0.22656-0.25781 0.53906-0.39062 0.3125-0.14062 0.77344-0.14062 0.19531 0 0.38281 0.03906 0.19531 0.03125 0.29688 0.07813v1.8359q-0.21094-0.04687-0.42969-0.07813-0.21094-0.03906-0.50781-0.03906-0.82031 0-1.2812 0.66406-0.45312 0.66406-0.45312 1.9688v4.1484h-2.1953z"/>
    <path id="path3356" d="m38.699-81.993q-0.01563-0.0625-0.03906-0.21875-0.01563-0.16406-0.03906-0.36719-0.01563-0.20312-0.03125-0.41406-0.0078-0.21094-0.0078-0.375h-0.03125q-0.38281 0.82031-1.0703 1.1797-0.67969 0.35156-1.6328 0.35156-0.79688 0-1.3828-0.32812-0.57812-0.32812-0.96094-0.91406-0.375-0.58594-0.5625-1.3828-0.17969-0.80469-0.17969-1.75 0-0.96094 0.1875-1.7656 0.19531-0.80469 0.59375-1.3828 0.39844-0.58594 1.0078-0.91406 0.61719-0.32812 1.4609-0.32812 0.41406 0 0.79688 0.08594 0.38281 0.08594 0.71094 0.26562 0.32812 0.17969 0.59375 0.46094 0.26562 0.28125 0.45312 0.67969h0.01563q0-0.07813-0.0078-0.22656 0-0.15625 0-0.35156t-0.0078-0.40625q0-0.21094 0-0.40625v-3.0859h2.1953v9.75q0 0.61719 0.02344 1.1016 0.02344 0.47656 0.03906 0.74219h-2.125zm-0.10156-4.2734q0-0.83594-0.15625-1.3828-0.15625-0.55469-0.41406-0.875-0.25-0.32812-0.57812-0.45312-0.32031-0.13281-0.65625-0.13281-0.42188 0-0.75 0.16406-0.32031 0.16406-0.54688 0.51562-0.21875 0.35156-0.33594 0.89844-0.10938 0.54688-0.10938 1.3203 0 2.875 1.7266 2.875 0.32812 0 0.65625-0.14062 0.32812-0.14062 0.58594-0.47656 0.25781-0.33594 0.41406-0.89844 0.16406-0.57031 0.16406-1.4141z"/>
   </g>
  </g>
 </g>
</svg>
