<?xml version="1.0" encoding="UTF-8" standalone="no"?>
<!-- Created with Inkscape (http://www.inkscape.org/) -->

<svg
   xmlns:dc="http://purl.org/dc/elements/1.1/"
   xmlns:cc="http://creativecommons.org/ns#"
   xmlns:rdf="http://www.w3.org/1999/02/22-rdf-syntax-ns#"
   xmlns:svg="http://www.w3.org/2000/svg"
   xmlns="http://www.w3.org/2000/svg"
   xmlns:sodipodi="http://sodipodi.sourceforge.net/DTD/sodipodi-0.dtd"
   xmlns:inkscape="http://www.inkscape.org/namespaces/inkscape"
   width="64"
   height="64"
   id="svg21844"
   sodipodi:version="0.32"
   inkscape:version="0.48.3.1 r9886"
   sodipodi:docname="L12.svg"
   inkscape:output_extension="org.inkscape.output.svg.inkscape"
   version="1.0">
  <defs
     id="defs21846">
    <inkscape:perspective
       sodipodi:type="inkscape:persp3d"
       inkscape:vp_x="0 : 32 : 1"
       inkscape:vp_y="0 : 1000 : 0"
       inkscape:vp_z="64 : 32 : 1"
       inkscape:persp3d-origin="32 : 21.333333 : 1"
       id="perspective21852" />
  </defs>
  <sodipodi:namedview
     id="base"
     pagecolor="#ffffff"
     bordercolor="#666666"
     borderopacity="1.0"
     inkscape:pageopacity="0.0"
     inkscape:pageshadow="2"
     inkscape:zoom="8.34375"
     inkscape:cx="31.807041"
     inkscape:cy="27.205994"
     inkscape:current-layer="layer1"
     showgrid="true"
     inkscape:document-units="px"
     inkscape:grid-bbox="true"
     inkscape:window-width="1243"
     inkscape:window-height="945"
     inkscape:window-x="7"
     inkscape:window-y="24"
     showguides="true"
     inkscape:guide-bbox="true"
     inkscape:window-maximized="0">
    <sodipodi:guide
       orientation="0,1"
       position="-12.639138,49.982047"
       id="guide2386" />
    <sodipodi:guide
       orientation="1,0"
       position="7.0055659,64.949907"
       id="guide2388" />
    <sodipodi:guide
       orientation="0,1"
       position="-17.694794,15.971275"
       id="guide2390" />
    <sodipodi:guide
       orientation="1,0"
       position="14.011132,65.187384"
       id="guide2392" />
    <sodipodi:guide
       orientation="1,0"
       position="37.996289,59.725417"
       id="guide2394" />
    <sodipodi:guide
       orientation="1,0"
       position="23.985158,56.400742"
       id="guide2393" />
    <sodipodi:guide
       orientation="1,0"
       position="38.951311,56.329588"
       id="guide3165" />
    <sodipodi:guide
       orientation="1,0"
       position="61.003745,47.940075"
       id="guide3167" />
    <sodipodi:guide
       orientation="0,1"
       position="6.2322097,19.05618"
       id="guide3169" />
  </sodipodi:namedview>
  <metadata
     id="metadata21849">
    <rdf:RDF>
      <cc:Work
         rdf:about="">
        <dc:format>image/svg+xml</dc:format>
        <dc:type
           rdf:resource="http://purl.org/dc/dcmitype/StillImage" />
      </cc:Work>
    </rdf:RDF>
  </metadata>
  <g
     id="layer1"
     inkscape:label="Layer 1"
     inkscape:groupmode="layer"
     transform="translate(-0.7873347,136.12828)">
    <rect
       style="opacity:1;fill:#b6b3e1;fill-opacity:1;fill-rule:nonzero;stroke:none;stroke-width:7.08599996999999960;stroke-linecap:round;stroke-linejoin:round;stroke-miterlimit:4;stroke-dasharray:7.08600000000000030, 14.17200000000000100;stroke-dashoffset:0;stroke-opacity:1"
       id="rect21854"
       width="64"
       height="64"
       x="0.78733474"
       y="-136.12828" />
    <path
       transform="scale(0.9941422,1.0058923)"
       style="font-size:43.06978225999999665px;font-style:normal;font-variant:normal;font-weight:bold;font-stretch:normal;text-align:start;line-height:125%;writing-mode:lr-tb;text-anchor:start;fill:#1a1a1a;fill-opacity:1;stroke:none;stroke-width:1px;stroke-linecap:butt;stroke-linejoin:miter;stroke-opacity:1;font-family:Helvetica Neue;-inkscape-font-specification:Helvetica Neue Bold"
       d="M 7.9996427,-120.6471 L 7.9996427,-89.895271 L 29.749883,-89.895271 L 29.749883,-95.580483 L 14.761599,-95.580483 L 14.761599,-120.6471 L 7.9996427,-120.6471"
       id="text2382" />
    <path
       transform="scale(0.9913828,1.0086921)"
       style="font-size:43.03677368000000314px;font-style:normal;font-variant:normal;font-weight:bold;font-stretch:normal;text-align:start;line-height:125%;writing-mode:lr-tb;text-anchor:start;fill:#1a1a1a;fill-opacity:1;stroke:none;stroke-width:1px;stroke-linecap:butt;stroke-linejoin:miter;stroke-opacity:1;font-family:Helvetica Neue;-inkscape-font-specification:Helvetica Neue Bold"
       d="M 38.912129,-89.640846 L 38.912129,-119.76659 L 34.048974,-119.76659 C 33.876815,-118.61891 33.518175,-117.65776 32.973054,-116.88312 C 32.427911,-116.10844 31.753669,-115.47723 30.950326,-114.98951 C 30.175656,-114.53042 29.28623,-114.20047 28.282046,-113.99966 C 27.30654,-113.82749 26.288004,-113.75576 25.226435,-113.78448 L 25.226435,-109.17954 L 32.800907,-109.17954 L 32.800907,-89.640846 L 38.912129,-89.640846"
       id="text22626" />
    <path
       transform="scale(1.0029446,0.997064)"
       style="font-size:43.19571685999999744px;font-style:normal;font-variant:normal;font-weight:bold;font-stretch:normal;text-align:start;line-height:125%;writing-mode:lr-tb;text-anchor:start;fill:#1a1a1a;fill-opacity:1;stroke:none;stroke-width:1px;stroke-linecap:butt;stroke-linejoin:miter;stroke-opacity:1;font-family:Helvetica Neue;-inkscape-font-specification:Helvetica Neue Bold"
       d="M 40.355875,-109.6062 L 46.230492,-109.6062 C 46.230485,-110.4125 46.302478,-111.21882 46.446471,-112.02516 C 46.619246,-112.86026 46.892818,-113.60898 47.267189,-114.27134 C 47.641543,-114.96244 48.131094,-115.50959 48.735844,-115.91277 C 49.36937,-116.34471 50.132494,-116.56068 51.025217,-116.56071 C 52.349872,-116.56068 53.429764,-116.14313 54.264896,-115.30803 C 55.128794,-114.50169 55.56075,-113.3642 55.560767,-111.89557 C 55.56075,-110.97404 55.344772,-110.15333 54.912831,-109.43342 C 54.509656,-108.71347 53.991307,-108.06554 53.357786,-107.48961 C 52.753031,-106.91365 52.076299,-106.3809 51.327587,-105.89137 C 50.578849,-105.4306 49.87332,-104.96985 49.210997,-104.50911 C 47.915116,-103.61638 46.67684,-102.73807 45.496165,-101.87417 C 44.344274,-101.01024 43.336375,-100.05994 42.472465,-99.023249 C 41.608548,-98.015342 40.917417,-96.863457 40.39907,-95.567592 C 39.909518,-94.271717 39.664742,-92.74547 39.664743,-90.988846 L 61.867342,-90.988846 L 61.867342,-96.258723 L 47.569559,-96.258723 C 48.318276,-97.295414 49.182189,-98.202523 50.161302,-98.980053 C 51.140393,-99.757568 52.148292,-100.4775 53.185003,-101.13984 C 54.221684,-101.83096 55.243982,-102.52209 56.251899,-103.21323 C 57.288577,-103.90435 58.210085,-104.66748 59.016424,-105.50261 C 59.822723,-106.36651 60.470659,-107.34561 60.960232,-108.43992 C 61.44976,-109.53419 61.694536,-110.84446 61.694559,-112.37073 C 61.694536,-113.83936 61.406565,-115.16402 60.830645,-116.34473 C 60.283477,-117.52539 59.534752,-118.51889 58.584467,-119.32524 C 57.634143,-120.13153 56.525454,-120.75066 55.258397,-121.18265 C 54.020105,-121.61458 52.709836,-121.83056 51.327587,-121.83059 C 49.513356,-121.83056 47.900717,-121.51379 46.489667,-120.88028 C 45.107397,-120.27551 43.955513,-119.4116 43.034009,-118.28854 C 42.112497,-117.19422 41.421366,-115.89835 40.960615,-114.40092 C 40.499859,-112.93225 40.298279,-111.33401 40.355875,-109.6062"
       id="text2389" />
  </g>
</svg>
