<?xml version="1.0" encoding="UTF-8" standalone="no"?>
<svg id="svg21844" xmlns:rdf="http://www.w3.org/1999/02/22-rdf-syntax-ns#" xmlns="http://www.w3.org/2000/svg" height="64" width="128" viewBox="0 0 128 64" version="1.0" xmlns:cc="http://creativecommons.org/ns#" xmlns:dc="http://purl.org/dc/elements/1.1/">
 <metadata id="metadata21849">
  <rdf:RDF>
   <cc:Work rdf:about="">
    <dc:format>image/svg+xml</dc:format>
    <dc:type rdf:resource="http://purl.org/dc/dcmitype/StillImage"/>
    <dc:title/>
   </cc:Work>
  </rdf:RDF>
 </metadata>
 <g id="layer1" transform="translate(-.78733 136.13)">
  <g id="g3461">
   <rect id="rect21854" height="64" width="64" y="-136.13" x=".78733" fill="#e1393e"/>
   <path id="text2382" fill="#fff" d="m10.919-122.08v33.929h23.998v-6.2726h-16.537v-27.657h-7.4606"/>
   <path id="text22626" fill="#fff" d="m51.201-88.263v-33.264h-5.3698c-0.19009 1.2672-0.58609 2.3285-1.188 3.1838-0.60193 0.85539-1.3464 1.5524-2.2334 2.0909-0.85537 0.50691-1.8374 0.87123-2.9462 1.093-1.0771 0.19011-2.2018 0.26931-3.3739 0.2376v5.0846h8.3635v21.574h6.7478"/>
  </g>
  <g id="layer1-5" transform="translate(64 6.3965e-7)">
   <rect id="rect21854-9" height="64" width="64" y="-136.13" x=".78733" fill="#febd10"/>
   <path id="text2382-2" fill="#231f20" d="m10.919-122.08v33.929h23.998v-6.2726h-16.537v-27.657h-7.4606"/>
   <path id="text22626-2" fill="#231f20" d="m47.4-113.07v11.547h-8.7437l8.6011-11.547h0.14256m0 17.107v7.6982h6.4152v-7.6982h4.4194v-5.5598h-4.4194v-20.006h-6.035l-14.446 19.388v6.1776h14.066"/>
  </g>
 </g>
</svg>
