<?xml version="1.0" encoding="UTF-8" standalone="no"?>
<svg id="svg21844" xmlns:rdf="http://www.w3.org/1999/02/22-rdf-syntax-ns#" xmlns="http://www.w3.org/2000/svg" height="64" width="128" viewBox="0 0 128 64" version="1.0" xmlns:cc="http://creativecommons.org/ns#" xmlns:dc="http://purl.org/dc/elements/1.1/">
 <metadata id="metadata21849">
  <rdf:RDF>
   <cc:Work rdf:about="">
    <dc:format>image/svg+xml</dc:format>
    <dc:type rdf:resource="http://purl.org/dc/dcmitype/StillImage"/>
    <dc:title/>
   </cc:Work>
  </rdf:RDF>
 </metadata>
 <g id="layer1" transform="translate(-.78733 136.13)">
  <rect id="rect21854" height="64" width="64" y="-136.13" x=".78733" fill="#e1393e"/>
  <path id="text2382" fill="#fff" d="m10.919-122.08v33.929h23.998v-6.2726h-16.537v-27.657h-7.4606"/>
  <path id="text22626" fill="#fff" d="m51.201-88.263v-33.264h-5.3698c-0.19009 1.2672-0.58609 2.3285-1.188 3.1838-0.60193 0.85539-1.3464 1.5524-2.2334 2.0909-0.85537 0.50691-1.8374 0.87123-2.9462 1.093-1.0771 0.19011-2.2018 0.26931-3.3739 0.2376v5.0846h8.3635v21.574h6.7478"/>
  <rect id="rect21854-9" height="64" width="64" y="-136.13" x="64.787" fill="#317bc8"/>
  <path id="text2382-3" fill="#fff" d="m74.919-122.08v33.929h23.998v-6.2726h-16.537v-27.657h-7.4606"/>
  <path id="text22626-1" fill="#fff" d="m120.33-115.97v-5.5598h-18.58l-3.2789 18.39h6.0826c0.66528-0.9187 1.3781-1.584 2.1384-1.9958 0.76031-0.4435 1.7424-0.66526 2.9462-0.66528 0.91871 0.00002 1.7266 0.15842 2.4235 0.4752 0.69695 0.31682 1.2989 0.76034 1.8058 1.3306 0.50687 0.57026 0.88703 1.2355 1.1405 1.9958 0.25343 0.76033 0.38015 1.5682 0.38016 2.4235-0.00001 0.82369-0.14257 1.6315-0.42768 2.4235-0.25345 0.76033-0.63361 1.4414-1.1405 2.0434-0.47521 0.57025-1.0771 1.0454-1.8058 1.4256-0.69697 0.34848-1.489 0.52272-2.376 0.52272-1.5206 0.000005-2.772-0.44352-3.7541-1.3306-0.98208-0.91871-1.5523-2.1384-1.7107-3.659h-6.7478c0.03168 1.7424 0.38016 3.2789 1.0454 4.6094 0.69696 1.2989 1.6157 2.3918 2.7562 3.2789 1.1405 0.88704 2.4394 1.5523 3.8966 1.9958 1.489 0.41184 3.0413 0.61776 4.657 0.61776 1.679 0.03168 3.263-0.2376 4.752-0.80784 1.489-0.60192 2.7878-1.4414 3.8966-2.5186 1.1405-1.0771 2.0433-2.3443 2.7086-3.8016 0.66526-1.489 0.9979-3.0888 0.99793-4.7995-0.00003-1.5523-0.23763-3.0096-0.71281-4.3718-0.44354-1.3939-1.1088-2.5977-1.9958-3.6115-0.85538-1.0137-1.9167-1.8216-3.1838-2.4235-1.2672-0.6019-2.7245-0.90286-4.3718-0.90288-1.3306 0.00002-2.5186 0.20594-3.564 0.61776-1.0454 0.38018-2.0275 1.0296-2.9462 1.9483l-0.095-0.095 1.3306-7.5557h13.733"/>
 </g>
</svg>
