<?xml version="1.0" encoding="UTF-8" standalone="no"?>
<svg id="svg21844" xmlns:rdf="http://www.w3.org/1999/02/22-rdf-syntax-ns#" xmlns="http://www.w3.org/2000/svg" height="128" width="128" viewBox="0 0 128 128" version="1.0" xmlns:cc="http://creativecommons.org/ns#" xmlns:dc="http://purl.org/dc/elements/1.1/">
 <metadata id="metadata21849">
  <rdf:RDF>
   <cc:Work rdf:about="">
    <dc:format>image/svg+xml</dc:format>
    <dc:type rdf:resource="http://purl.org/dc/dcmitype/StillImage"/>
    <dc:title/>
   </cc:Work>
  </rdf:RDF>
 </metadata>
 <g id="layer1" transform="translate(-.78733 136.13)">
  <g id="layer1-6">
   <rect id="rect21854" height="64" width="64" y="-136.13" x=".78733" fill="#e1393e"/>
   <path id="text2382" fill="#fff" d="m10.919-122.08v33.929h23.998v-6.2726h-16.537v-27.657h-7.4606"/>
   <path id="text22626" fill="#fff" d="m51.201-88.263v-33.264h-5.3698c-0.19009 1.2672-0.58609 2.3285-1.188 3.1838-0.60193 0.85539-1.3464 1.5524-2.2334 2.0909-0.85537 0.50691-1.8374 0.87123-2.9462 1.093-1.0771 0.19011-2.2018 0.26931-3.3739 0.2376v5.0846h8.3635v21.574h6.7478"/>
  </g>
  <g id="layer1-64" transform="translate(64)">
   <rect id="rect21854-9" height="64" width="64" y="-136.13" x=".78733" fill="#317bc8"/>
   <path id="text2382-5" fill="#fff" d="m10.919-122.08v33.929h23.998v-6.2726h-16.537v-27.657h-7.4606"/>
   <path id="text22626-0" fill="#fff" d="m56.333-115.97v-5.5598h-18.58l-3.2789 18.39h6.0826c0.66527-0.9187 1.3781-1.584 2.1384-1.9958 0.76031-0.4435 1.7424-0.66526 2.9462-0.66528 0.91871 0.00002 1.7265 0.15842 2.4235 0.4752 0.69694 0.31682 1.2989 0.76034 1.8058 1.3306 0.50686 0.57026 0.88702 1.2355 1.1405 1.9958 0.25342 0.76033 0.38014 1.5682 0.38016 2.4235-0.000018 0.82369-0.14258 1.6315-0.42768 2.4235-0.25346 0.76033-0.63362 1.4414-1.1405 2.0434-0.47522 0.57025-1.0771 1.0454-1.8058 1.4256-0.69697 0.34848-1.489 0.52272-2.376 0.52272-1.5207 0.000005-2.772-0.44352-3.7541-1.3306-0.98209-0.91871-1.5523-2.1384-1.7107-3.659h-6.7478c0.03168 1.7424 0.38016 3.2789 1.0454 4.6094 0.69696 1.2989 1.6157 2.3918 2.7562 3.2789 1.1405 0.88704 2.4394 1.5523 3.8966 1.9958 1.489 0.41184 3.0413 0.61776 4.657 0.61776 1.679 0.03168 3.263-0.2376 4.752-0.80784 1.4889-0.60192 2.7878-1.4414 3.8966-2.5186 1.1405-1.0771 2.0433-2.3443 2.7086-3.8016 0.66526-1.489 0.9979-3.0888 0.99792-4.7995-0.000026-1.5523-0.23763-3.0096-0.7128-4.3718-0.44354-1.3939-1.1088-2.5977-1.9958-3.6115-0.85538-1.0137-1.9167-1.8216-3.1838-2.4235-1.2672-0.6019-2.7245-0.90286-4.3718-0.90288-1.3306 0.00002-2.5186 0.20594-3.564 0.61776-1.0454 0.38018-2.0275 1.0296-2.9462 1.9483l-0.09504-0.095 1.3306-7.5557h13.733"/>
  </g>
  <g id="layer1-4" transform="translate(669.93 -223.92)">
   <rect id="rect3" height="64" width="64" y="151.79" x="-669.14" fill="#f1832d"/>
   <g id="g7" transform="matrix(.022049 0 0 .022049 -669.14 151.79)">
    <g id="g9" fill="#fff">
     <path id="path11" d="m444.93 381.65h337.69v1254.3h750.26v284.46h-1088v-1538.7z"/>
     <path id="path13" d="m1839.6 1532.1c10.034 50.165 33.011 93.884 68.88 131.13 35.869 37.272 80.342 55.883 133.44 55.883 55.936 0 101.86-16.141 137.73-48.449 35.869-32.283 64.591-71.766 86.112-118.45 21.521-46.656 36.936-96.535 46.267-149.66 9.305-53.128 15.413-100.48 18.298-142.12l-4.573-4.315c-41.693 60.51-90.532 103.74-146.57 129.68-56.039 25.941-120.68 38.885-193.95 38.885-64.669 0-127.88-13.984-189.66-42.004-61.783-28.02-114.21-65.734-157.3-113.14-40.236-45.979-69.711-98.432-88.373-157.33-18.688-58.898-28.02-118.5-28.02-178.85 0-77.561 12.554-149.77 37.715-216.57 25.134-66.8 61.055-125 107.76-174.56 46.709-49.567 102.38-88.712 167.05-117.46 64.67-28.722 136.51-43.095 215.56-43.095 113.51 0 207.63 22.639 282.35 67.892 74.701 45.252 134.35 104.88 178.9 178.85 44.552 73.974 75.431 157.67 92.688 251.03 17.233 93.364 25.862 187.46 25.862 282.25 0 91.961-10.787 184.96-32.309 279.05-21.547 94.092-56.013 178.85-103.4 254.28-47.384 75.43-108.41 136.82-183.09 184.23-74.677 47.383-165.86 71.088-273.54 71.088-130.69 0-240.53-36.285-329.56-108.86-89.05-72.57-142.18-175.71-159.38-309.39h291.11zm218.93-338.65c40.236 0 75.793-7.511 106.67-22.562 30.878-15.049 56.377-35.479 76.495-61.263 20.118-25.785 35.192-55.545 45.253-89.231 10.058-33.686 15.102-69.139 15.102-106.41 0-34.388-5.407-68.412-16.168-102.1-10.787-33.686-26.59-63.785-47.41-90.297-20.846-26.512-46.344-47.644-76.495-63.421-30.177-15.751-64.669-23.653-103.45-23.653-37.352 0-70.023 7.902-98.043 23.653-28.02 15.777-52.088 36.57-72.207 62.355-20.117 25.784-35.192 55.181-45.252 88.14-10.059 32.958-15.075 66.645-15.075 101.03 0 35.817 4.652 70.568 14.01 104.26 9.331 33.686 23.341 63.785 42.004 90.297 18.661 26.512 42.73 48.008 72.206 64.486 29.448 16.481 63.575 24.72 102.36 24.72z"/>
    </g>
   </g>
   <g id="text3036" fill="#fff">
    <path id="path3360" d="m-653.73 206.84-3.9992-7.067q0.0326 0.28659 0.0586 0.57318 0.0261 0.2475 0.0391 0.53409 0.0195 0.28659 0.0195 0.54713v5.4126h-1.7065v-9.1774h2.195l4.0578 7.1256q-0.0326-0.27356-0.0586-0.57318-0.026-0.25402-0.0456-0.57318-0.013-0.31915-0.013-0.64482v-5.3345h1.7065v9.1774h-2.2536z"/>
    <path id="path3362" d="m-643.39 203.31q0 0.80766-0.22797 1.4785-0.22145 0.67088-0.67088 1.1594-0.44942 0.48199-1.1203 0.75555-0.67088 0.26705-1.5632 0.26705-0.85977 0-1.5176-0.26705-0.65785-0.26705-1.1073-0.74904-0.44291-0.48199-0.67088-1.1529-0.22797-0.6774-0.22797-1.4916 0-0.78812 0.21494-1.4525 0.22146-0.67088 0.66437-1.1594 0.44291-0.48851 1.1138-0.76207 0.67087-0.27356 1.5697-0.27356 0.95095 0 1.6218 0.27356 0.67088 0.27356 1.0942 0.76207 0.42988 0.48199 0.62528 1.1529 0.20192 0.66436 0.20192 1.459zm-1.9149 0q0-1.2571-0.41035-1.8237-0.41034-0.56667-1.192-0.56667-0.80765 0-1.2375 0.57318-0.42988 0.57318-0.42988 1.8172 0 0.6318 0.11073 1.0877 0.11724 0.45593 0.32567 0.74903 0.20842 0.29311 0.50153 0.4364 0.2931 0.13678 0.64482 0.13678 0.40383 0 0.71647-0.13678 0.31916-0.14329 0.5341-0.4364 0.21494-0.2931 0.32567-0.74903 0.11073-0.45594 0.11073-1.0877z"/>
    <path id="path3364" d="m-642.37 206.84v-5.3931q0-0.22797-0.007-0.48199 0-0.25403-0.013-0.48199-0.007-0.23449-0.013-0.41686-0.007-0.18889-0.0195-0.27356h1.7456q0.013 0.0782 0.026 0.27356 0.013 0.18889 0.0261 0.41686 0.013 0.22796 0.0195 0.45593 0.013 0.22146 0.013 0.35824h0.0261q0.13678-0.38429 0.27357-0.68391 0.13678-0.30613 0.31915-0.51455 0.18889-0.21494 0.44942-0.32567 0.26054-0.11724 0.64483-0.11724 0.16283 0 0.31915 0.0326 0.16284 0.0261 0.24751 0.0651v1.5306q-0.17586-0.0391-0.35823-0.0651-0.17586-0.0326-0.42337-0.0326-0.68391 0-1.0682 0.55364-0.37777 0.55364-0.37777 1.6414v3.4586h-1.8303z"/>
    <path id="path3366" d="m-633.06 206.84q-0.013-0.0521-0.0326-0.18237-0.013-0.13678-0.0326-0.30613-0.013-0.16935-0.0261-0.34521-0.007-0.17586-0.007-0.31264h-0.0261q-0.31916 0.6839-0.89233 0.98352-0.56667 0.2931-1.3613 0.2931-0.66436 0-1.1529-0.27356-0.48199-0.27356-0.80114-0.76207-0.31265-0.4885-0.46897-1.1529-0.1498-0.67088-0.1498-1.459 0-0.80115 0.15632-1.472 0.16283-0.67088 0.49501-1.1529 0.33219-0.48851 0.84023-0.76207 0.51456-0.27356 1.218-0.27356 0.34521 0 0.66437 0.0716 0.31915 0.0716 0.59271 0.22145 0.27356 0.14981 0.49502 0.38429 0.22145 0.23448 0.37778 0.56667h0.013q0-0.0651-0.007-0.18889 0-0.13027 0-0.2931 0-0.16284-0.007-0.3387 0-0.17586 0-0.3387v-2.5728h1.8302v8.1287q0 0.51455 0.0195 0.91838 0.0195 0.39732 0.0326 0.61877h-1.7716zm-0.0847-3.5628q0-0.69694-0.13027-1.1529-0.13027-0.46245-0.34521-0.7295-0.20843-0.27356-0.48199-0.37778-0.26705-0.11072-0.54712-0.11072-0.35172 0-0.62529 0.13678-0.26704 0.13678-0.45593 0.42988-0.18238 0.2931-0.28008 0.74904-0.0912 0.45593-0.0912 1.1008 0 2.3969 1.4394 2.3969 0.27356 0 0.54713-0.11724 0.27356-0.11724 0.4885-0.39732 0.21494-0.28007 0.34521-0.74903 0.13678-0.47548 0.13678-1.1789z"/>
   </g>
  </g>
  <g id="layer1-7" transform="translate(64,64)">
   <rect id="rect21854-2" height="64" width="64" y="-136.13" x=".78733" fill="#00adef"/>
   <g fill="#fff">
    <path id="text2382-2" d="m7.9996-120.65v30.752h21.75v-5.6852h-14.988v-25.067h-6.762" transform="scale(.99414 1.0059)"/>
    <path id="text22626-6" d="m38.912-89.641v-30.126h-4.8632c-0.17216 1.1477-0.5308 2.1088-1.0759 2.8835-0.54514 0.77468-1.2194 1.4059-2.0227 1.8936-0.77467 0.45909-1.6641 0.78904-2.6683 0.98985-0.97551 0.17217-1.994 0.2439-3.0556 0.21518v4.6049h7.5745v19.539h6.1112" transform="scale(.99138 1.0087)"/>
    <path id="text2389" d="m45.799-106.24c-0.000007-0.51834-0.000007-1.1375 0-1.8574 0.02879-0.74871 0.08638-1.5118 0.17278-2.2894 0.08638-0.77751 0.23037-1.5406 0.43196-2.2894 0.20157-0.7775 0.47514-1.4686 0.82072-2.0734 0.37435-0.60472 0.83511-1.0943 1.3823-1.4686 0.57593-0.37434 1.2815-0.56152 2.1166-0.56155 0.8351 0.00003 1.5406 0.18721 2.1166 0.56155 0.57593 0.37438 1.0511 0.86393 1.4255 1.4686 0.37435 0.60476 0.64792 1.2959 0.82072 2.0734 0.20156 0.74875 0.34555 1.5119 0.43196 2.2894 0.11517 0.77754 0.17277 1.5407 0.17278 2.2894 0.02878 0.71995 0.04318 1.3391 0.0432 1.8574-0.000017 0.86392-0.02881 1.915-0.08639 3.1533-0.05761 1.2095-0.24479 2.3902-0.56154 3.5421-0.28799 1.1231-0.77754 2.0878-1.4687 2.8941-0.66235 0.80632-1.6271 1.2095-2.8941 1.2095-1.2383 0.000005-2.1886-0.40316-2.8509-1.2095-0.66234-0.80631-1.1519-1.771-1.4687-2.8941-0.28798-1.1519-0.46076-2.3326-0.51835-3.5421-0.0576-1.2383-0.0864-2.2894-0.08639-3.1533m-6.1338 0c-0.000001 3.0237 0.28797 5.5578 0.86392 7.6024 0.60474 2.0158 1.4111 3.6284 2.419 4.8379s2.1742 2.0734 3.4989 2.5917c1.3535 0.51835 2.7789 0.77752 4.2764 0.77752 1.5262 0 2.9517-0.25917 4.2764-0.77752 1.3534-0.51835 2.5341-1.3823 3.542-2.5917 1.0367-1.2095 1.843-2.8221 2.419-4.8379 0.60472-2.0446 0.90709-4.5787 0.90711-7.6024-0.000023-2.9373-0.30239-5.3994-0.90711-7.3865-0.57596-2.0158-1.3823-3.6284-2.419-4.8379-1.0079-1.2094-2.1886-2.0734-3.542-2.5917-1.3247-0.51832-2.7501-0.7775-4.2764-0.77753-1.4975 0.00003-2.9229 0.25921-4.2764 0.77753-1.3247 0.51837-2.491 1.3823-3.4989 2.5917-1.0079 1.2095-1.8142 2.8221-2.419 4.8379-0.57594 1.987-0.86392 4.4492-0.86392 7.3865" transform="scale(1.0029 .99706)"/>
   </g>
  </g>
 </g>
</svg>
