<?xml version="1.0" encoding="UTF-8" standalone="no"?>
<svg
   xmlns:dc="http://purl.org/dc/elements/1.1/"
   xmlns:cc="http://creativecommons.org/ns#"
   xmlns:rdf="http://www.w3.org/1999/02/22-rdf-syntax-ns#"
   xmlns:svg="http://www.w3.org/2000/svg"
   xmlns="http://www.w3.org/2000/svg"
   xmlns:sodipodi="http://sodipodi.sourceforge.net/DTD/sodipodi-0.dtd"
   xmlns:inkscape="http://www.inkscape.org/namespaces/inkscape"
   id="svg21844"
   height="128"
   width="128"
   viewBox="0 0 128 128" 
   version="1.0"
   sodipodi:docname="L1L9SL10S.svg"
   inkscape:version="0.92.3 (2405546, 2018-03-11)">
  <defs
     id="defs21" />
  <sodipodi:namedview
     pagecolor="#ffffff"
     bordercolor="#666666"
     borderopacity="1"
     objecttolerance="10"
     gridtolerance="10"
     guidetolerance="10"
     inkscape:pageopacity="0"
     inkscape:pageshadow="2"
     inkscape:window-width="959"
     inkscape:window-height="1027"
     id="namedview19"
     showgrid="false"
     fit-margin-top="0"
     fit-margin-left="0"
     fit-margin-right="0"
     fit-margin-bottom="0"
     inkscape:zoom="2.1640625"
     inkscape:cx="64"
     inkscape:cy="95.999995"
     inkscape:window-x="960"
     inkscape:window-y="0"
     inkscape:window-maximized="0"
     inkscape:current-layer="svg21844" />
  <metadata
     id="metadata21849">
    <rdf:RDF>
      <cc:Work
         rdf:about="">
        <dc:format>image/svg+xml</dc:format>
        <dc:type
           rdf:resource="http://purl.org/dc/dcmitype/StillImage" />
        <dc:title></dc:title>
      </cc:Work>
    </rdf:RDF>
  </metadata>
  <g
     id="g3461"
     transform="translate(-0.78732997,136.13)">
    <rect
       id="rect21854"
       height="64"
       width="64"
       y="-136.13"
       x="0.78732997"
       style="fill:#e1393e" />
    <path
       id="text2382"
       d="m 10.919,-122.08 v 33.929 h 23.998 v -6.2726 H 18.38 v -27.657 h -7.4606"
       inkscape:connector-curvature="0"
       style="fill:#ffffff" />
    <path
       id="text22626"
       d="m 51.201,-88.263 v -33.264 h -5.3698 c -0.19009,1.2672 -0.58609,2.3285 -1.188,3.1838 -0.60193,0.85539 -1.3464,1.5524 -2.2334,2.0909 -0.85537,0.50691 -1.8374,0.87123 -2.9462,1.093 -1.0771,0.19011 -2.2018,0.26931 -3.3739,0.2376 v 5.0846 h 8.3635 v 21.574 h 6.7478"
       inkscape:connector-curvature="0"
       style="fill:#ffffff" />
  </g>
  <g
     id="g4260"
     transform="translate(64,4.8828125e-6)">
    <rect
       id="rect3"
       height="64"
       width="64"
       y="0"
       x="0"
       style="fill:#f1832d" />
    <g
       id="g5"
       transform="matrix(0.022049,0,0,0.022049,0,-3.1641e-5)">
      <g
         id="g7">
        <g
           id="g9"
           style="fill:#ffffff">
          <path
             id="path11"
             d="m 444.93,381.65 h 337.69 v 1254.3 h 750.26 v 284.46 h -1088 V 381.71 Z"
             inkscape:connector-curvature="0" />
          <path
             id="path13"
             d="m 1839.6,1532.1 c 10.034,50.165 33.011,93.884 68.88,131.13 35.869,37.272 80.342,55.883 133.44,55.883 55.936,0 101.86,-16.141 137.73,-48.449 35.869,-32.283 64.591,-71.766 86.112,-118.45 21.521,-46.656 36.936,-96.535 46.267,-149.66 9.305,-53.128 15.413,-100.48 18.298,-142.12 l -4.573,-4.315 c -41.693,60.51 -90.532,103.74 -146.57,129.68 -56.039,25.941 -120.68,38.885 -193.95,38.885 -64.669,0 -127.88,-13.984 -189.66,-42.004 -61.783,-28.02 -114.21,-65.734 -157.3,-113.14 -40.236,-45.979 -69.711,-98.432 -88.373,-157.33 -18.688,-58.898 -28.02,-118.5 -28.02,-178.85 0,-77.561 12.554,-149.77 37.715,-216.57 25.134,-66.8 61.055,-125 107.76,-174.56 46.709,-49.567 102.38,-88.712 167.05,-117.46 64.67,-28.722 136.51,-43.095 215.56,-43.095 113.51,0 207.63,22.639 282.35,67.892 74.701,45.252 134.35,104.88 178.9,178.85 44.552,73.974 75.431,157.67 92.688,251.03 17.233,93.364 25.862,187.46 25.862,282.25 0,91.961 -10.787,184.96 -32.309,279.05 -21.547,94.092 -56.013,178.85 -103.4,254.28 -47.384,75.43 -108.41,136.82 -183.09,184.23 -74.677,47.383 -165.86,71.088 -273.54,71.088 -130.69,0 -240.53,-36.285 -329.56,-108.86 -89.05,-72.57 -142.18,-175.71 -159.38,-309.39 h 291.11 z m 218.93,-338.65 c 40.236,0 75.793,-7.511 106.67,-22.562 30.878,-15.049 56.377,-35.479 76.495,-61.263 20.118,-25.785 35.192,-55.545 45.253,-89.231 10.058,-33.686 15.102,-69.139 15.102,-106.41 0,-34.388 -5.407,-68.412 -16.168,-102.1 -10.787,-33.686 -26.59,-63.785 -47.41,-90.297 -20.846,-26.512 -46.344,-47.644 -76.495,-63.421 -30.177,-15.751 -64.669,-23.653 -103.45,-23.653 -37.352,0 -70.023,7.902 -98.043,23.653 -28.02,15.777 -52.088,36.57 -72.207,62.355 -20.117,25.784 -35.192,55.181 -45.252,88.14 -10.059,32.958 -15.075,66.645 -15.075,101.03 0,35.817 4.652,70.568 14.01,104.26 9.331,33.686 23.341,63.785 42.004,90.297 18.661,26.512 42.73,48.008 72.206,64.486 29.448,16.481 63.575,24.72 102.36,24.72 z"
             inkscape:connector-curvature="0" />
        </g>
      </g>
      <g
         id="g15"
         style="fill:#ffffff">
        <path
           id="path17"
           d="m 537.86,2365.9 c 0,14.665 2.646,27.09 7.944,37.274 5.298,10.184 12.329,18.43 21.091,24.738 8.762,6.315 18.954,11.002 30.567,14.053 11.614,3.059 23.95,4.584 36.994,4.584 8.556,0 17.723,-0.707 27.509,-2.137 9.787,-1.43 18.954,-4.179 27.517,-8.254 8.556,-4.075 15.689,-9.676 21.393,-16.81 5.704,-7.134 8.563,-16.197 8.563,-27.207 0,-11.813 -3.773,-21.386 -11.312,-28.726 -7.546,-7.332 -17.428,-13.545 -29.654,-18.645 -12.233,-5.092 -26.095,-9.365 -41.584,-12.829 -15.49,-3.464 -31.187,-7.436 -47.083,-11.916 -16.301,-4.068 -32.204,-9.058 -47.693,-14.968 -15.49,-5.902 -29.352,-13.537 -41.578,-22.91 -12.233,-9.366 -22.115,-20.973 -29.654,-34.82 -7.546,-13.847 -11.312,-30.95 -11.312,-51.319 0,-22.395 4.79,-41.843 14.37,-58.335 9.58,-16.492 22.115,-30.243 37.605,-41.238 15.49,-10.994 33.021,-19.145 52.594,-24.436 19.565,-5.291 39.131,-7.944 58.704,-7.944 22.83,0 44.738,2.55 65.733,7.642 20.995,5.092 39.646,13.338 55.955,24.746 16.301,11.407 29.249,25.977 38.829,43.692 9.58,17.723 14.37,39.212 14.37,64.466 h -92.911 c -0.818,-13.043 -3.574,-23.84 -8.261,-32.402 -4.694,-8.556 -10.914,-15.276 -18.659,-20.17 -7.752,-4.893 -16.721,-8.356 -26.92,-10.397 -10.199,-2.034 -21.002,-3.059 -32.425,-3.059 -7.752,0 -15.498,0.818 -23.25,2.446 -7.752,1.637 -14.783,4.488 -21.105,8.563 -6.322,4.075 -11.525,9.271 -15.601,15.593 -4.083,6.323 -6.117,13.965 -6.117,22.926 0,8.563 1.629,15.498 4.893,20.797 3.257,5.298 9.676,10.088 19.256,14.369 9.58,4.282 22.823,8.763 39.743,13.449 16.919,4.687 39.035,10.494 66.345,17.414 5.298,1.223 12.226,2.955 20.789,5.195 8.563,2.24 17.635,5.298 27.214,9.159 9.58,3.869 19.16,8.858 28.74,14.968 9.58,6.108 18.342,13.64 26.293,22.601 7.944,8.962 14.363,19.646 19.256,32.071 4.893,12.425 7.34,26.772 7.34,43.059 0,19.956 -3.876,38.489 -11.614,55.594 -7.745,17.104 -19.256,31.864 -34.54,44.281 -15.284,12.425 -34.237,22.196 -56.854,29.322 -22.624,7.119 -48.807,10.686 -78.556,10.686 -24.046,0 -47.377,-3.059 -69.993,-9.16 -22.624,-6.109 -42.491,-15.475 -59.602,-28.106 -17.119,-12.623 -30.877,-28.71 -41.268,-48.261 -10.391,-19.543 -15.387,-42.756 -14.974,-69.64 h 92.913 z"
           inkscape:connector-curvature="0" />
        <path
           id="path19"
           d="m 1156.7,2510.7 h -82.536 v -43.861 l -1.798,-0.162 c -11.017,17.914 -25.299,31.142 -42.838,39.69 -17.539,8.549 -35.49,12.822 -53.839,12.822 -23.257,0 -42.329,-3.161 -57.215,-9.469 -14.886,-6.316 -26.618,-15.078 -35.181,-26.279 -8.563,-11.201 -14.584,-24.842 -18.047,-40.936 -3.471,-16.095 -5.203,-33.921 -5.203,-53.479 v -194.32 h 86.78 v 178.48 c 0,26.08 4.178,45.535 12.55,58.372 8.372,12.837 22.764,19.248 43.184,19.248 23.677,0 40.826,-7.022 51.438,-21.083 10.612,-14.061 15.925,-37.186 15.925,-69.374 v -165.64 h 86.78 v 315.99 z"
           inkscape:connector-curvature="0" />
        <path
           id="path21"
           d="m 1447.9,2470.1 -1.186,0.037 c -10.199,17.155 -23.655,29.617 -40.369,37.377 -16.721,7.753 -35.276,11.636 -55.66,11.636 -24.061,0 -44.96,-4.687 -62.698,-14.053 -17.737,-9.366 -32.417,-21.887 -44.039,-37.568 -11.621,-15.682 -20.391,-33.699 -26.301,-54.068 -5.91,-20.369 -8.865,-41.548 -8.865,-63.545 0,-21.18 2.948,-41.644 8.858,-61.4 5.91,-19.75 14.665,-37.163 26.279,-52.233 11.614,-15.07 26.175,-27.185 43.7,-36.353 17.517,-9.167 37.885,-13.751 61.113,-13.751 18.74,0 36.566,3.987 53.479,11.945 16.905,7.967 30.25,19.706 40.029,35.218 l 1.415,0.015 v -158.95 h 86.78 v 436.26 h -82.536 v -40.562 z m -1.414,-118.35 c 0,-12.602 -1.224,-25.004 -3.67,-37.2 -2.447,-12.195 -6.618,-22.866 -12.528,-32.02 -5.91,-9.145 -13.648,-16.565 -23.221,-22.255 -9.573,-5.688 -21.282,-8.541 -35.129,-8.541 -14.26,0 -26.279,2.853 -36.05,8.541 -9.779,5.689 -17.62,13.213 -23.522,22.564 -5.91,9.352 -10.185,20.022 -12.83,32.013 -2.653,11.997 -3.972,24.495 -3.972,37.509 0,12.196 1.422,24.393 4.274,36.589 2.852,12.203 7.436,23.08 13.751,32.631 6.308,9.551 14.252,17.273 23.825,23.169 9.572,5.896 21.083,8.843 34.525,8.843 14.252,0 26.168,-2.845 35.741,-8.533 9.573,-5.689 17.215,-13.316 22.918,-22.875 5.704,-9.55 9.771,-20.427 12.218,-32.623 2.446,-12.197 3.67,-24.798 3.67,-37.812 z"
           inkscape:connector-curvature="0" />
      </g>
    </g>
  </g>
  <g
     transform="translate(-0.78732997,200.13)"
     id="g842">
    <rect
       style="fill:#00adef"
       x="0.78732997"
       y="-136.13"
       width="64"
       height="64"
       id="rect21854-3" />
    <g
       style="fill:#ffffff"
       id="g11">
      <path
         inkscape:connector-curvature="0"
         d="m 7.9528,-127.36 v 30.933 h 21.623 v -5.7187 h -14.9 v -25.214 H 7.9535"
         id="text2382-6" />
      <path
         inkscape:connector-curvature="0"
         d="m 38.577,-96.42 v -30.388 h -4.8212 c -0.17068,1.1576 -0.52622,2.1272 -1.0666,2.9085 -0.54045,0.78141 -1.2089,1.4181 -2.0053,1.9101 -0.768,0.46308 -1.6498,0.7959 -2.6453,0.99845 -0.9671,0.17367 -1.9769,0.24602 -3.0293,0.21705 v 4.645 h 7.5092 v 19.709 h 6.0586"
         id="text22626-7" />
      <path
         inkscape:connector-curvature="0"
         d="m 45.933,-111.93 c -7e-6,-0.51682 -7e-6,-1.1341 0,-1.852 0.02887,-0.74652 0.08664,-1.5074 0.17329,-2.2826 0.08664,-0.77523 0.23105,-1.5361 0.43323,-2.2827 0.20217,-0.77522 0.47654,-1.4643 0.82314,-2.0673 0.37546,-0.60295 0.83757,-1.0911 1.3863,-1.4643 0.57763,-0.37324 1.2852,-0.55987 2.1228,-0.5599 0.83756,3e-5 1.5452,0.18666 2.1228,0.5599 0.57762,0.37328 1.0542,0.86139 1.4297,1.4643 0.37545,0.60298 0.64983,1.2921 0.82314,2.0673 0.20216,0.74655 0.34657,1.5074 0.43323,2.2827 0.11551,0.77525 0.17328,1.5361 0.17329,2.2826 0.02886,0.71783 0.04331,1.3351 0.04332,1.852 -1.7e-5,0.86139 -0.0289,1.9094 -0.08665,3.144 -0.05778,1.2059 -0.24551,2.3832 -0.5632,3.5317 -0.28884,1.1198 -0.77983,2.0817 -1.473,2.8856 -0.6643,0.80396 -1.6318,1.2059 -2.9026,1.2059 -1.2419,1e-5 -2.195,-0.40197 -2.8593,-1.2059 -0.66429,-0.80394 -1.1553,-1.7658 -1.473,-2.8856 -0.28883,-1.1485 -0.46212,-2.3257 -0.51988,-3.5317 -0.05777,-1.2346 -0.08665,-2.2826 -0.08665,-3.144 m -6.1519,0 c -10e-7,3.0148 0.28882,5.5415 0.86646,7.5801 0.60652,2.0099 1.4152,3.6178 2.4261,4.8237 1.0109,1.2059 2.1806,2.0673 3.5092,2.5841 1.3574,0.51683 2.7871,0.77524 4.289,0.77524 1.5307,0 2.9604,-0.25841 4.289,-0.77524 1.3574,-0.51683 2.5416,-1.3782 3.5525,-2.5841 1.0397,-1.2059 1.8484,-2.8138 2.4261,-4.8237 0.6065,-2.0386 0.90976,-4.5653 0.90978,-7.5801 -2.3e-5,-2.9287 -0.30328,-5.3836 -0.90978,-7.3648 -0.57766,-2.0099 -1.3864,-3.6178 -2.4261,-4.8237 -1.0109,-1.2059 -2.195,-2.0673 -3.5525,-2.5841 -1.3286,-0.5168 -2.7582,-0.77522 -4.289,-0.77525 -1.5019,3e-5 -2.9315,0.25845 -4.289,0.77525 -1.3286,0.51685 -2.4983,1.3782 -3.5092,2.5841 -1.0109,1.206 -1.8196,2.8139 -2.4261,4.8237 -0.57764,1.9812 -0.86646,4.4361 -0.86646,7.3648"
         id="text2389" />
      <g
         id="text2996">
        <path
           inkscape:connector-curvature="0"
           d="m 17.24,-85.165 q 0,0.75 -0.27344,1.3672 -0.27344,0.60938 -0.85156,1.0469 -0.57031,0.4375 -1.4688,0.67969 -0.89062,0.23438 -2.125,0.23438 -1.0938,0 -1.9297,-0.19531 -0.83594,-0.19531 -1.4375,-0.57812 -0.59375,-0.38281 -0.96875,-0.94531 -0.36719,-0.57031 -0.53125,-1.3047 l 2.2266,-0.36719 q 0.09375,0.36719 0.27344,0.67188 0.17969,0.30469 0.49219,0.53125 0.32031,0.21875 0.78906,0.34375 0.47656,0.11719 1.1484,0.11719 1.1719,0 1.7891,-0.35156 0.625,-0.35938 0.625,-1.1172 0,-0.45312 -0.25,-0.74219 -0.25,-0.28906 -0.66406,-0.47656 -0.41406,-0.1875 -0.95312,-0.3125 -0.53906,-0.125 -1.125,-0.24219 -0.46875,-0.10938 -0.9375,-0.22656 -0.46875,-0.11719 -0.89844,-0.28125 -0.42188,-0.16406 -0.78906,-0.39062 -0.36719,-0.22656 -0.64062,-0.55469 -0.26562,-0.33594 -0.42188,-0.78125 -0.14844,-0.44531 -0.14844,-1.0469 0,-0.82031 0.32812,-1.4062 0.32812,-0.58594 0.90625,-0.95312 0.58594,-0.375 1.3906,-0.54688 0.80469,-0.17188 1.7578,-0.17188 1.0781,0 1.8438,0.17188 0.77344,0.16406 1.2891,0.50781 0.52344,0.34375 0.82031,0.86719 0.30469,0.51562 0.44531,1.2109 l -2.2344,0.30469 q -0.17188,-0.71094 -0.70312,-1.0703 -0.52344,-0.35938 -1.5078,-0.35938 -0.60938,0 -1.0156,0.10938 -0.39844,0.10156 -0.64062,0.28125 -0.23438,0.17969 -0.33594,0.42188 -0.10156,0.23438 -0.10156,0.5 0,0.40625 0.19531,0.67188 0.19531,0.25781 0.54688,0.4375 0.35156,0.17188 0.83594,0.29688 0.49219,0.11719 1.0781,0.24219 0.51562,0.10938 1.0234,0.23438 0.50781,0.11719 0.96875,0.28125 0.46094,0.16406 0.85938,0.39844 0.39844,0.23438 0.6875,0.57812 0.29688,0.33594 0.46094,0.80469 0.17188,0.46875 0.17188,1.1094 z"
           id="path3350" />
        <path
           inkscape:connector-curvature="0"
           d="m 20.318,-90.447 v 4.7422 q 0,0.49219 0.07813,0.90625 0.07813,0.40625 0.25781,0.70312 0.17969,0.28906 0.46094,0.45312 0.28906,0.16406 0.70312,0.16406 0.39844,0 0.71875,-0.17188 0.32812,-0.17969 0.5625,-0.5 0.23438,-0.32812 0.35938,-0.77344 0.13281,-0.45312 0.13281,-0.99219 v -4.5312 h 2.1953 v 6.5625 q 0,0.26562 0,0.5625 0.0078,0.28906 0.01563,0.55469 0.01563,0.25781 0.02344,0.46875 0.01563,0.20312 0.02344,0.30469 h -2.0938 q -0.0078,-0.09375 -0.03125,-0.29688 -0.01563,-0.21094 -0.03125,-0.46094 -0.0078,-0.25 -0.02344,-0.5 -0.0078,-0.25 -0.0078,-0.42188 h -0.03906 q -0.4375,0.96094 -1.1172,1.3984 -0.67188,0.4375 -1.6016,0.4375 -0.75781,0 -1.2891,-0.25 -0.53125,-0.25 -0.86719,-0.67969 -0.32812,-0.4375 -0.47656,-1.0312 -0.14844,-0.59375 -0.14844,-1.2812 v -5.3672 h 2.1953 z"
           id="path3352" />
        <path
           inkscape:connector-curvature="0"
           d="m 32.755,-81.993 q -0.01563,-0.0625 -0.03906,-0.21875 -0.01563,-0.16406 -0.03906,-0.36719 -0.01563,-0.20312 -0.03125,-0.41406 -0.0078,-0.21094 -0.0078,-0.375 h -0.03125 q -0.38281,0.82031 -1.0703,1.1797 -0.67969,0.35156 -1.6328,0.35156 -0.79688,0 -1.3828,-0.32812 -0.57812,-0.32812 -0.96094,-0.91406 -0.375,-0.58594 -0.5625,-1.3828 -0.17969,-0.80469 -0.17969,-1.75 0,-0.96094 0.1875,-1.7656 0.19531,-0.80469 0.59375,-1.3828 0.39844,-0.58594 1.0078,-0.91406 0.61719,-0.32812 1.4609,-0.32812 0.41406,0 0.79688,0.08594 0.38281,0.08594 0.71094,0.26562 0.32812,0.17969 0.59375,0.46094 0.26562,0.28125 0.45312,0.67969 h 0.01563 q 0,-0.07813 -0.0078,-0.22656 0,-0.15625 0,-0.35156 0,-0.19531 -0.0078,-0.40625 0,-0.21094 0,-0.40625 v -3.0859 h 2.1953 v 9.75 q 0,0.61719 0.02344,1.1016 0.02344,0.47656 0.03906,0.74219 h -2.125 z m -0.10156,-4.2734 q 0,-0.83594 -0.15625,-1.3828 -0.15625,-0.55469 -0.41406,-0.875 -0.25,-0.32812 -0.57812,-0.45312 -0.32031,-0.13281 -0.65625,-0.13281 -0.42188,0 -0.75,0.16406 -0.32031,0.16406 -0.54688,0.51562 -0.21875,0.35156 -0.33594,0.89844 -0.10938,0.54688 -0.10938,1.3203 0,2.875 1.7266,2.875 0.32812,0 0.65625,-0.14062 0.32812,-0.14062 0.58594,-0.47656 0.25781,-0.33594 0.41406,-0.89844 0.16406,-0.57031 0.16406,-1.4141 z"
           id="path3354" />
      </g>
    </g>
  </g>
</svg>
