<?xml version="1.0" encoding="UTF-8" standalone="no"?>
<svg id="svg21844" xmlns:rdf="http://www.w3.org/1999/02/22-rdf-syntax-ns#" xmlns="http://www.w3.org/2000/svg" height="64" width="128" viewBox="0 0 128 64" version="1.0" xmlns:cc="http://creativecommons.org/ns#" xmlns:dc="http://purl.org/dc/elements/1.1/">
 <metadata id="metadata21849">
  <rdf:RDF>
   <cc:Work rdf:about="">
    <dc:format>image/svg+xml</dc:format>
    <dc:type rdf:resource="http://purl.org/dc/dcmitype/StillImage"/>
    <dc:title/>
   </cc:Work>
  </rdf:RDF>
 </metadata>
 <g id="g3461" transform="translate(-.78733 136.13)">
  <rect id="rect21854" height="64" width="64" y="-136.13" x=".78733" fill="#e1393e"/>
  <path id="text2382" fill="#fff" d="m10.919-122.08v33.929h23.998v-6.2726h-16.537v-27.657h-7.4606"/>
  <path id="text22626" fill="#fff" d="m51.201-88.263v-33.264h-5.3698c-0.19009 1.2672-0.58609 2.3285-1.188 3.1838-0.60193 0.85539-1.3464 1.5524-2.2334 2.0909-0.85537 0.50691-1.8374 0.87123-2.9462 1.093-1.0771 0.19011-2.2018 0.26931-3.3739 0.2376v5.0846h8.3635v21.574h6.7478"/>
 </g>
 <g id="g4260" transform="translate(64)">
  <rect id="rect3" height="64" width="64" y="0" x="0" fill="#f1832d"/>
  <g id="g5" transform="matrix(.022049 0 0 .022049 0 -.000031641)">
   <g id="g7">
    <g id="g9" fill="#fff">
     <path id="path11" d="m444.93 381.65h337.69v1254.3h750.26v284.46h-1088v-1538.7z"/>
     <path id="path13" d="m1839.6 1532.1c10.034 50.165 33.011 93.884 68.88 131.13 35.869 37.272 80.342 55.883 133.44 55.883 55.936 0 101.86-16.141 137.73-48.449 35.869-32.283 64.591-71.766 86.112-118.45 21.521-46.656 36.936-96.535 46.267-149.66 9.305-53.128 15.413-100.48 18.298-142.12l-4.573-4.315c-41.693 60.51-90.532 103.74-146.57 129.68-56.039 25.941-120.68 38.885-193.95 38.885-64.669 0-127.88-13.984-189.66-42.004-61.783-28.02-114.21-65.734-157.3-113.14-40.236-45.979-69.711-98.432-88.373-157.33-18.688-58.898-28.02-118.5-28.02-178.85 0-77.561 12.554-149.77 37.715-216.57 25.134-66.8 61.055-125 107.76-174.56 46.709-49.567 102.38-88.712 167.05-117.46 64.67-28.722 136.51-43.095 215.56-43.095 113.51 0 207.63 22.639 282.35 67.892 74.701 45.252 134.35 104.88 178.9 178.85 44.552 73.974 75.431 157.67 92.688 251.03 17.233 93.364 25.862 187.46 25.862 282.25 0 91.961-10.787 184.96-32.309 279.05-21.547 94.092-56.013 178.85-103.4 254.28-47.384 75.43-108.41 136.82-183.09 184.23-74.677 47.383-165.86 71.088-273.54 71.088-130.69 0-240.53-36.285-329.56-108.86-89.05-72.57-142.18-175.71-159.38-309.39h291.11zm218.93-338.65c40.236 0 75.793-7.511 106.67-22.562 30.878-15.049 56.377-35.479 76.495-61.263 20.118-25.785 35.192-55.545 45.253-89.231 10.058-33.686 15.102-69.139 15.102-106.41 0-34.388-5.407-68.412-16.168-102.1-10.787-33.686-26.59-63.785-47.41-90.297-20.846-26.512-46.344-47.644-76.495-63.421-30.177-15.751-64.669-23.653-103.45-23.653-37.352 0-70.023 7.902-98.043 23.653-28.02 15.777-52.088 36.57-72.207 62.355-20.117 25.784-35.192 55.181-45.252 88.14-10.059 32.958-15.075 66.645-15.075 101.03 0 35.817 4.652 70.568 14.01 104.26 9.331 33.686 23.341 63.785 42.004 90.297 18.661 26.512 42.73 48.008 72.206 64.486 29.448 16.481 63.575 24.72 102.36 24.72z"/>
    </g>
   </g>
   <g id="g15" fill="#fff">
    <path id="path17" d="m537.86 2365.9c0 14.665 2.646 27.09 7.944 37.274s12.329 18.43 21.091 24.738c8.762 6.315 18.954 11.002 30.567 14.053 11.614 3.059 23.95 4.584 36.994 4.584 8.556 0 17.723-0.707 27.509-2.137 9.787-1.43 18.954-4.179 27.517-8.254 8.556-4.075 15.689-9.676 21.393-16.81s8.563-16.197 8.563-27.207c0-11.813-3.773-21.386-11.312-28.726-7.546-7.332-17.428-13.545-29.654-18.645-12.233-5.092-26.095-9.365-41.584-12.829-15.49-3.464-31.187-7.436-47.083-11.916-16.301-4.068-32.204-9.058-47.693-14.968-15.49-5.902-29.352-13.537-41.578-22.91-12.233-9.366-22.115-20.973-29.654-34.82-7.546-13.847-11.312-30.95-11.312-51.319 0-22.395 4.79-41.843 14.37-58.335s22.115-30.243 37.605-41.238c15.49-10.994 33.021-19.145 52.594-24.436 19.565-5.291 39.131-7.944 58.704-7.944 22.83 0 44.738 2.55 65.733 7.642s39.646 13.338 55.955 24.746c16.301 11.407 29.249 25.977 38.829 43.692 9.58 17.723 14.37 39.212 14.37 64.466h-92.911c-0.818-13.043-3.574-23.84-8.261-32.402-4.694-8.556-10.914-15.276-18.659-20.17-7.752-4.893-16.721-8.356-26.92-10.397-10.199-2.034-21.002-3.059-32.425-3.059-7.752 0-15.498 0.818-23.25 2.446-7.752 1.637-14.783 4.488-21.105 8.563s-11.525 9.271-15.601 15.593c-4.083 6.323-6.117 13.965-6.117 22.926 0 8.563 1.629 15.498 4.893 20.797 3.257 5.298 9.676 10.088 19.256 14.369 9.58 4.282 22.823 8.763 39.743 13.449 16.919 4.687 39.035 10.494 66.345 17.414 5.298 1.223 12.226 2.955 20.789 5.195s17.635 5.298 27.214 9.159c9.58 3.869 19.16 8.858 28.74 14.968 9.58 6.108 18.342 13.64 26.293 22.601 7.944 8.962 14.363 19.646 19.256 32.071s7.34 26.772 7.34 43.059c0 19.956-3.876 38.489-11.614 55.594-7.745 17.104-19.256 31.864-34.54 44.281-15.284 12.425-34.237 22.196-56.854 29.322-22.624 7.119-48.807 10.686-78.556 10.686-24.046 0-47.377-3.059-69.993-9.16-22.624-6.109-42.491-15.475-59.602-28.106-17.119-12.623-30.877-28.71-41.268-48.261-10.391-19.543-15.387-42.756-14.974-69.64h92.913z"/>
    <path id="path19" d="m1156.7 2510.7h-82.536v-43.861l-1.798-0.162c-11.017 17.914-25.299 31.142-42.838 39.69-17.539 8.549-35.49 12.822-53.839 12.822-23.257 0-42.329-3.161-57.215-9.469-14.886-6.316-26.618-15.078-35.181-26.279s-14.584-24.842-18.047-40.936c-3.471-16.095-5.203-33.921-5.203-53.479v-194.32h86.78v178.48c0 26.08 4.178 45.535 12.55 58.372s22.764 19.248 43.184 19.248c23.677 0 40.826-7.022 51.438-21.083s15.925-37.186 15.925-69.374v-165.64h86.78v315.99z"/>
    <path id="path21" d="m1447.9 2470.1-1.186 0.037c-10.199 17.155-23.655 29.617-40.369 37.377-16.721 7.753-35.276 11.636-55.66 11.636-24.061 0-44.96-4.687-62.698-14.053-17.737-9.366-32.417-21.887-44.039-37.568-11.621-15.682-20.391-33.699-26.301-54.068s-8.865-41.548-8.865-63.545c0-21.18 2.948-41.644 8.858-61.4 5.91-19.75 14.665-37.163 26.279-52.233s26.175-27.185 43.7-36.353c17.517-9.167 37.885-13.751 61.113-13.751 18.74 0 36.566 3.987 53.479 11.945 16.905 7.967 30.25 19.706 40.029 35.218l1.415 0.015v-158.95h86.78v436.26h-82.536v-40.562zm-1.414-118.35c0-12.602-1.224-25.004-3.67-37.2-2.447-12.195-6.618-22.866-12.528-32.02-5.91-9.145-13.648-16.565-23.221-22.255-9.573-5.688-21.282-8.541-35.129-8.541-14.26 0-26.279 2.853-36.05 8.541-9.779 5.689-17.62 13.213-23.522 22.564-5.91 9.352-10.185 20.022-12.83 32.013-2.653 11.997-3.972 24.495-3.972 37.509 0 12.196 1.422 24.393 4.274 36.589 2.852 12.203 7.436 23.08 13.751 32.631 6.308 9.551 14.252 17.273 23.825 23.169 9.572 5.896 21.083 8.843 34.525 8.843 14.252 0 26.168-2.845 35.741-8.533 9.573-5.689 17.215-13.316 22.918-22.875 5.704-9.55 9.771-20.427 12.218-32.623 2.446-12.197 3.67-24.798 3.67-37.812z"/>
   </g>
  </g>
 </g>
</svg>
