<?xml version="1.0" encoding="utf-8"?>
<!-- Generator: Adobe Illustrator 24.0.1, SVG Export Plug-In . SVG Version: 6.00 Build 0)  -->
<svg version="1.1" id="Capa_1" xmlns="http://www.w3.org/2000/svg" xmlns:xlink="http://www.w3.org/1999/xlink" x="0px" y="0px"
	 viewBox="0 0 95 95" style="enable-background:new 0 0 95 95;" xml:space="preserve">
<style type="text/css">
	.st0{fill:#93358D;}
	.st1{fill:#FFFFFF;}
</style>
<g>
	<rect y="0" class="st0" width="95" height="95"/>
	<polygon class="st1" points="22.3,20.2 22.3,61.1 46.8,61.1 46.8,70.4 11.3,70.4 11.3,20.2 	"/>
	<path class="st1" d="M51.7,32.3c0.7-2.4,1.9-4.5,3.4-6.3c1.5-1.8,3.4-3.2,5.7-4.2c2.3-1,4.9-1.5,7.8-1.5c2.2,0,4.4,0.4,6.4,1.1
		c2,0.7,3.8,1.7,5.4,3c1.5,1.3,2.8,2.9,3.7,4.8c0.9,1.9,1.4,4.1,1.4,6.5c0,2.5-0.4,4.6-1.2,6.4c-0.8,1.8-1.8,3.4-3.2,4.7
		c-1.3,1.4-2.8,2.6-4.5,3.8c-1.7,1.1-3.3,2.2-5,3.3c-1.7,1.1-3.3,2.3-4.9,3.5c-1.6,1.3-3,2.7-4.2,4.4h23.2v8.6H49.6
		c0-2.9,0.4-5.3,1.2-7.4c0.8-2.1,1.9-4,3.3-5.7c1.4-1.7,3.1-3.2,4.9-4.6c1.9-1.4,3.9-2.8,6-4.3c1.1-0.7,2.2-1.5,3.4-2.3
		c1.2-0.8,2.3-1.6,3.3-2.6c1-0.9,1.8-2,2.5-3.2c0.7-1.2,1-2.5,1-4c0-2.4-0.7-4.2-2.1-5.6c-1.4-1.3-3.1-2-5.3-2c-1.5,0-2.7,0.3-3.7,1
		c-1,0.7-1.8,1.6-2.4,2.7c-0.6,1.1-1,2.3-1.3,3.7c-0.3,1.3-0.4,2.7-0.4,4h-9.5C50.6,37.3,50.9,34.7,51.7,32.3"/>
</g>
</svg>
