<?xml version="1.0" encoding="UTF-8" standalone="no"?>
<svg id="svg21844" xmlns:rdf="http://www.w3.org/1999/02/22-rdf-syntax-ns#" xmlns="http://www.w3.org/2000/svg" height="64" width="128" viewBox="0 0 128 64" version="1.0" xmlns:cc="http://creativecommons.org/ns#" xmlns:dc="http://purl.org/dc/elements/1.1/">
 <metadata id="metadata21849">
  <rdf:RDF>
   <cc:Work rdf:about="">
    <dc:format>image/svg+xml</dc:format>
    <dc:type rdf:resource="http://purl.org/dc/dcmitype/StillImage"/>
    <dc:title/>
   </cc:Work>
  </rdf:RDF>
 </metadata>
 <g id="layer1" transform="translate(-.78733 136.13)">
  <g id="layer1-3">
   <rect id="rect21854" height="64" width="64" y="-136.13" x=".78733" fill="#93248F"/>
   <path id="text2382" fill="#fff" d="m10.919-122.08v33.929h23.998v-6.2726h-16.537v-27.657h-7.4606"/>
   <path id="text22626" fill="#fff" d="m34.332-108.74h6.4627c-0.000008-0.88702 0.07919-1.7741 0.2376-2.6611 0.19007-0.91869 0.49103-1.7424 0.90288-2.471 0.41183-0.76029 0.95039-1.3622 1.6157-1.8058 0.69695-0.47517 1.5365-0.71277 2.5186-0.7128 1.4573 0.00003 2.6453 0.45939 3.564 1.3781 0.95038 0.88707 1.4256 2.1384 1.4256 3.7541-0.000018 1.0138-0.23762 1.9167-0.7128 2.7086-0.44354 0.79202-1.0138 1.5048-1.7107 2.1384-0.6653 0.63362-1.4098 1.2197-2.2334 1.7582-0.82369 0.5069-1.5999 1.0138-2.3285 1.5206-1.4256 0.9821-2.7878 1.9483-4.0867 2.8987-1.2672 0.95041-2.376 1.9959-3.3264 3.1363-0.9504 1.1088-1.7107 2.376-2.281 3.8016-0.53856 1.4256-0.80784 3.1046-0.80784 5.0371h24.425v-5.7974h-15.729c0.82367-1.1405 1.7741-2.1384 2.8512-2.9938 1.0771-0.85535 2.1859-1.6474 3.3264-2.376 1.1405-0.76031 2.2651-1.5206 3.3739-2.281 1.1405-0.7603 2.1542-1.5998 3.0413-2.5186 0.88702-0.95038 1.5998-2.0275 2.1384-3.2314 0.53854-1.2038 0.80782-2.6453 0.80784-4.3243-0.000026-1.6156-0.31682-3.0729-0.9504-4.3718-0.60194-1.2988-1.4256-2.3918-2.471-3.2789-1.0455-0.88701-2.2651-1.5681-3.659-2.0434-1.3623-0.47516-2.8037-0.71276-4.3243-0.7128-1.9959 0.00004-3.7699 0.34852-5.3222 1.0454-1.5206 0.66531-2.7878 1.6157-3.8016 2.8512-1.0138 1.2039-1.7741 2.6295-2.281 4.2768-0.50688 1.6157-0.72864 3.3739-0.66528 5.2747"/>
  </g>
  <g id="layer1-0" transform="translate(64 6.3965e-7)">
   <rect id="rect21854-6" height="64" width="64" y="-136.13" x=".78733" fill="#F7A30E"/>
   <path id="text2382-1" fill="#231f20" d="m10.919-122.08v33.929h23.998v-6.2726h-16.537v-27.657h-7.4606"/>
   <path id="text22626-5" fill="#231f20" d="m47.4-113.07v11.547h-8.7437l8.6011-11.547h0.14256m0 17.107v7.6982h6.4152v-7.6982h4.4194v-5.5598h-4.4194v-20.006h-6.035l-14.446 19.388v6.1776h14.066"/>
  </g>
 </g>
</svg>
