<?xml version="1.0" encoding="UTF-8" standalone="no"?>
<svg id="svg21844" xmlns:rdf="http://www.w3.org/1999/02/22-rdf-syntax-ns#" xmlns="http://www.w3.org/2000/svg" height="64" width="128" viewBox="0 0 128 64" version="1.0" xmlns:cc="http://creativecommons.org/ns#" xmlns:dc="http://purl.org/dc/elements/1.1/">
 <metadata id="metadata21849">
  <rdf:RDF>
   <cc:Work rdf:about="">
    <dc:format>image/svg+xml</dc:format>
    <dc:type rdf:resource="http://purl.org/dc/dcmitype/StillImage"/>
    <dc:title/>
   </cc:Work>
  </rdf:RDF>
 </metadata>
 <g id="layer1" transform="translate(-.78733 136.13)">
  <g id="layer1-3">
   <rect id="rect21854" height="64" width="64" y="-136.13" x=".78733" fill="#9c459a"/>
   <path id="text2382" fill="#fff" d="m10.919-122.08v33.929h23.998v-6.2726h-16.537v-27.657h-7.4606"/>
   <path id="text22626" fill="#fff" d="m34.332-108.74h6.4627c-0.000008-0.88702 0.07919-1.7741 0.2376-2.6611 0.19007-0.91869 0.49103-1.7424 0.90288-2.471 0.41183-0.76029 0.95039-1.3622 1.6157-1.8058 0.69695-0.47517 1.5365-0.71277 2.5186-0.7128 1.4573 0.00003 2.6453 0.45939 3.564 1.3781 0.95038 0.88707 1.4256 2.1384 1.4256 3.7541-0.000018 1.0138-0.23762 1.9167-0.7128 2.7086-0.44354 0.79202-1.0138 1.5048-1.7107 2.1384-0.6653 0.63362-1.4098 1.2197-2.2334 1.7582-0.82369 0.5069-1.5999 1.0138-2.3285 1.5206-1.4256 0.9821-2.7878 1.9483-4.0867 2.8987-1.2672 0.95041-2.376 1.9959-3.3264 3.1363-0.9504 1.1088-1.7107 2.376-2.281 3.8016-0.53856 1.4256-0.80784 3.1046-0.80784 5.0371h24.425v-5.7974h-15.729c0.82367-1.1405 1.7741-2.1384 2.8512-2.9938 1.0771-0.85535 2.1859-1.6474 3.3264-2.376 1.1405-0.76031 2.2651-1.5206 3.3739-2.281 1.1405-0.7603 2.1542-1.5998 3.0413-2.5186 0.88702-0.95038 1.5998-2.0275 2.1384-3.2314 0.53854-1.2038 0.80782-2.6453 0.80784-4.3243-0.000026-1.6156-0.31682-3.0729-0.9504-4.3718-0.60194-1.2988-1.4256-2.3918-2.471-3.2789-1.0455-0.88701-2.2651-1.5681-3.659-2.0434-1.3623-0.47516-2.8037-0.71276-4.3243-0.7128-1.9959 0.00004-3.7699 0.34852-5.3222 1.0454-1.5206 0.66531-2.7878 1.6157-3.8016 2.8512-1.0138 1.2039-1.7741 2.6295-2.281 4.2768-0.50688 1.6157-0.72864 3.3739-0.66528 5.2747"/>
  </g>
  <g id="layer1-5" transform="translate(64 6.3965e-7)">
   <rect id="rect21854-3" height="64" width="64" y="-136.13" x=".78733" fill="#317bc8"/>
   <path id="text2382-5" fill="#fff" d="m10.919-122.08v33.929h23.998v-6.2726h-16.537v-27.657h-7.4606"/>
   <path id="text22626-6" fill="#fff" d="m56.333-115.97v-5.5598h-18.58l-3.2789 18.39h6.0826c0.66527-0.9187 1.3781-1.584 2.1384-1.9958 0.76031-0.4435 1.7424-0.66526 2.9462-0.66528 0.91871 0.00002 1.7265 0.15842 2.4235 0.4752 0.69694 0.31682 1.2989 0.76034 1.8058 1.3306 0.50686 0.57026 0.88702 1.2355 1.1405 1.9958 0.25342 0.76033 0.38014 1.5682 0.38016 2.4235-0.000018 0.82369-0.14258 1.6315-0.42768 2.4235-0.25346 0.76033-0.63362 1.4414-1.1405 2.0434-0.47522 0.57025-1.0771 1.0454-1.8058 1.4256-0.69697 0.34848-1.489 0.52272-2.376 0.52272-1.5207 0.000005-2.772-0.44352-3.7541-1.3306-0.98209-0.91871-1.5523-2.1384-1.7107-3.659h-6.7478c0.03168 1.7424 0.38016 3.2789 1.0454 4.6094 0.69696 1.2989 1.6157 2.3918 2.7562 3.2789 1.1405 0.88704 2.4394 1.5523 3.8966 1.9958 1.489 0.41184 3.0413 0.61776 4.657 0.61776 1.679 0.03168 3.263-0.2376 4.752-0.80784 1.4889-0.60192 2.7878-1.4414 3.8966-2.5186 1.1405-1.0771 2.0433-2.3443 2.7086-3.8016 0.66526-1.489 0.9979-3.0888 0.99792-4.7995-0.000026-1.5523-0.23763-3.0096-0.7128-4.3718-0.44354-1.3939-1.1088-2.5977-1.9958-3.6115-0.85538-1.0137-1.9167-1.8216-3.1838-2.4235-1.2672-0.6019-2.7245-0.90286-4.3718-0.90288-1.3306 0.00002-2.5186 0.20594-3.564 0.61776-1.0454 0.38018-2.0275 1.0296-2.9462 1.9483l-0.09504-0.095 1.3306-7.5557h13.733"/>
  </g>
 </g>
</svg>
