<?xml version="1.0" encoding="utf-8"?>
<!-- Generator: Adobe Illustrator 24.0.1, SVG Export Plug-In . SVG Version: 6.00 Build 0)  -->
<svg version="1.1" id="Capa_1" xmlns="http://www.w3.org/2000/svg" xmlns:xlink="http://www.w3.org/1999/xlink" x="0px" y="0px"
	 viewBox="0 0 95 95" style="enable-background:new 0 0 95 95;" xml:space="preserve">
<style type="text/css">
	.st0{fill:#3DAE2B;}
	.st1{fill:#FFFFFF;}
</style>
<g>
	<rect y="0" class="st0" width="95" height="95"/>
	<polygon class="st1" points="23.2,20.4 23.2,61.3 47.7,61.3 47.7,70.5 12.2,70.5 12.2,20.4 	"/>
	<path class="st1" d="M68.4,41.3c1.2-0.1,2.4-0.4,3.4-0.8c1.1-0.4,1.9-1.1,2.6-1.9c0.7-0.8,1-2,1-3.4c0-2.1-0.7-3.7-2.1-4.8
		c-1.4-1.1-3-1.7-4.8-1.7c-2.5,0-4.4,0.8-5.7,2.5c-1.3,1.7-1.9,3.8-1.9,6.3h-9.5c0.1-2.5,0.6-4.8,1.4-6.9c0.8-2.1,2-3.9,3.4-5.4
		c1.5-1.5,3.2-2.7,5.3-3.5c2.1-0.8,4.4-1.2,6.9-1.2c2,0,3.9,0.3,5.9,0.9c2,0.6,3.7,1.5,5.3,2.6c1.6,1.2,2.8,2.6,3.8,4.3
		c1,1.7,1.5,3.6,1.5,5.8c0,2.4-0.6,4.5-1.7,6.3c-1.1,1.8-2.9,3.1-5.2,3.7v0.1c2.7,0.6,4.8,1.9,6.4,3.9c1.5,2,2.3,4.4,2.3,7.2
		c0,2.6-0.5,4.9-1.5,6.9c-1,2-2.4,3.7-4,5.1c-1.7,1.4-3.6,2.4-5.8,3.1c-2.2,0.7-4.5,1.1-6.9,1.1c-2.8,0-5.3-0.4-7.5-1.2
		c-2.3-0.8-4.2-2-5.8-3.5c-1.6-1.5-2.8-3.4-3.7-5.6c-0.9-2.2-1.3-4.7-1.2-7.6h9.5c0,1.3,0.3,2.6,0.6,3.8c0.4,1.2,0.9,2.2,1.6,3.1
		c0.7,0.9,1.6,1.6,2.6,2.1c1.1,0.5,2.3,0.8,3.8,0.8c2.2,0,4.1-0.7,5.7-2.1c1.5-1.4,2.3-3.3,2.3-5.7c0-1.9-0.4-3.3-1.1-4.3
		c-0.7-1-1.7-1.7-2.8-2.1c-1.1-0.4-2.4-0.7-3.7-0.8c-1.3-0.1-2.6-0.1-3.8-0.1v-7C66.1,41.4,67.2,41.4,68.4,41.3"/>
</g>
</svg>
