<?xml version="1.0" encoding="UTF-8" standalone="no"?>
<svg id="svg21844" xmlns:rdf="http://www.w3.org/1999/02/22-rdf-syntax-ns#" xmlns="http://www.w3.org/2000/svg" height="128" width="128" viewBox="0 0 128 128" version="1.0" xmlns:cc="http://creativecommons.org/ns#" xmlns:dc="http://purl.org/dc/elements/1.1/">
 <metadata id="metadata21849">
  <rdf:RDF>
   <cc:Work rdf:about="">
    <dc:format>image/svg+xml</dc:format>
    <dc:type rdf:resource="http://purl.org/dc/dcmitype/StillImage"/>
    <dc:title/>
   </cc:Work>
  </rdf:RDF>
 </metadata>
 <g id="layer1" transform="translate(-.78733 136.13)">
  <g id="layer1-1">
   <rect id="rect21854-5" height="64" width="64" y="-136.13" x=".78733" fill="#53b955"/>
   <path id="text2382-5" fill="#fff" d="m10.919-122.08v33.929h23.998v-6.2726h-16.537v-27.657h-7.4606"/>
   <path id="text22626-4" fill="#fff" d="m43.408-108.08v4.752c0.82367 0.00002 1.679 0.0317 2.5661 0.095 0.91871 0.0317 1.7582 0.20594 2.5186 0.52272 0.7603 0.28514 1.3781 0.76034 1.8533 1.4256 0.50686 0.66529 0.7603 1.6315 0.76032 2.8987-0.000018 1.6157-0.52274 2.8987-1.5682 3.8491-1.0455 0.91872-2.3285 1.3781-3.8491 1.3781-0.98209 0.000005-1.8375-0.17424-2.5661-0.52272-0.69697-0.34847-1.283-0.80783-1.7582-1.3781-0.47521-0.60191-0.83953-1.2989-1.093-2.0909-0.25345-0.82367-0.39601-1.679-0.42768-2.5661h-6.4152c-0.03168 1.9325 0.2376 3.6432 0.80784 5.1322 0.60192 1.489 1.4414 2.7562 2.5186 3.8016 1.0771 1.0138 2.376 1.7899 3.8966 2.3285 1.5523 0.53856 3.263 0.80784 5.1322 0.80784 1.6157-0.000001 3.168-0.2376 4.657-0.7128 1.4889-0.4752 2.8037-1.1722 3.9442-2.0909 1.1405-0.91872 2.0433-2.0592 2.7086-3.4214 0.69694-1.3622 1.0454-2.9146 1.0454-4.657-0.000026-1.9008-0.52275-3.5323-1.5682-4.8946-1.0455-1.3622-2.4869-2.2493-4.3243-2.6611v-0.095c1.5523-0.4435 2.7086-1.283 3.469-2.5186 0.79198-1.2355 1.188-2.6611 1.188-4.2768-0.000024-1.4889-0.33266-2.8036-0.99792-3.9442-0.6653-1.1404-1.5365-2.1067-2.6136-2.8987-1.0455-0.79197-2.2335-1.378-3.564-1.7582-1.3306-0.4118-2.6611-0.61772-3.9917-0.61776-1.7107 0.00004-3.263 0.28516-4.657 0.85536-1.3939 0.53859-2.5978 1.3148-3.6115 2.3285-0.98208 1.0138-1.7582 2.2335-2.3285 3.659-0.53856 1.394-0.83952 2.9463-0.90288 4.657h6.4152c-0.03169-1.7107 0.38015-3.1204 1.2355-4.2293 0.88703-1.1404 2.1859-1.7107 3.8966-1.7107 1.2355 0.00003 2.3285 0.38019 3.2789 1.1405 0.95038 0.76035 1.4256 1.8533 1.4256 3.2789-0.000017 0.95042-0.23762 1.7107-0.7128 2.281-0.44354 0.57026-1.0296 1.0138-1.7582 1.3306-0.69697 0.28514-1.4573 0.45938-2.281 0.52272-0.82369 0.0634-1.5999 0.0634-2.3285 0"/>
  </g>
  <g id="layer1-4" transform="translate(64)">
   <rect id="rect21854" height="64" width="64" y="-136.13" x=".78733" fill="#febd10"/>
   <path id="text2382" fill="#231f20" d="m10.919-122.08v33.929h23.998v-6.2726h-16.537v-27.657h-7.4606"/>
   <path id="text22626" fill="#231f20" d="m47.4-113.07v11.547h-8.7437l8.6011-11.547h0.14256m0 17.107v7.6982h6.4152v-7.6982h4.4194v-5.5598h-4.4194v-20.006h-6.035l-14.446 19.388v6.1776h14.066"/>
  </g>
  <g id="layer1-6" transform="translate(0,64)">
   <rect id="rect21854-8" height="64" width="64" y="-136.13" x=".78733" fill="#a8d164"/>
   <g fill="#231f20">
    <path id="text2382-8" d="m7.9996-120.65v30.752h21.75v-5.6852h-14.988v-25.067h-6.762" transform="scale(.99414 1.0059)"/>
    <path id="text22626-43" d="m41.292-89.641v-30.126h-4.8632c-0.17216 1.1477-0.5308 2.1088-1.0759 2.8835-0.54514 0.77468-1.2194 1.4059-2.0227 1.8936-0.77467 0.45909-1.6641 0.78904-2.6683 0.98985-0.9755 0.17217-1.994 0.2439-3.0556 0.21518v4.6049h7.5745v19.539h6.1112" transform="scale(.99138 1.0087)"/>
    <path id="text2389" d="m58.043-90.989v-30.237h-4.8811c-0.17279 1.1519-0.53276 2.1166-1.0799 2.8941-0.54716 0.77754-1.2239 1.4111-2.0302 1.9006-0.77753 0.46078-1.6702 0.79194-2.6781 0.9935-0.97911 0.17281-2.0014 0.2448-3.0669 0.21598v4.6219h7.6024v19.611h6.1338" transform="scale(1.0029 .99706)"/>
   </g>
  </g>
 </g>
</svg>
