<?xml version="1.0" encoding="UTF-8" standalone="no"?>
<!-- Created with Inkscape (http://www.inkscape.org/) -->

<svg
   xmlns:dc="http://purl.org/dc/elements/1.1/"
   xmlns:cc="http://creativecommons.org/ns#"
   xmlns:rdf="http://www.w3.org/1999/02/22-rdf-syntax-ns#"
   xmlns:svg="http://www.w3.org/2000/svg"
   xmlns="http://www.w3.org/2000/svg"
   xmlns:sodipodi="http://sodipodi.sourceforge.net/DTD/sodipodi-0.dtd"
   xmlns:inkscape="http://www.inkscape.org/namespaces/inkscape"
   width="64"
   height="64"
   viewBox="0 0 64 64"
   id="svg21844"
   sodipodi:version="0.32"
   inkscape:version="0.47 r22583"
   sodipodi:docname="L8_barcelona.svg"
   inkscape:output_extension="org.inkscape.output.svg.inkscape"
   version="1.0">
  <defs
     id="defs21846">
    <inkscape:perspective
       sodipodi:type="inkscape:persp3d"
       inkscape:vp_x="0 : 32 : 1"
       inkscape:vp_y="0 : 1000 : 0"
       inkscape:vp_z="64 : 32 : 1"
       inkscape:persp3d-origin="32 : 21.333333 : 1"
       id="perspective21852" />
  </defs>
  <sodipodi:namedview
     id="base"
     pagecolor="#ffffff"
     bordercolor="#666666"
     borderopacity="1.0"
     inkscape:pageopacity="0.0"
     inkscape:pageshadow="2"
     inkscape:zoom="8.421875"
     inkscape:cx="32"
     inkscape:cy="32.000001"
     inkscape:current-layer="layer1"
     showgrid="true"
     inkscape:document-units="px"
     inkscape:grid-bbox="true"
     inkscape:window-width="952"
     inkscape:window-height="1019"
     inkscape:window-x="960"
     inkscape:window-y="0"
     showguides="true"
     inkscape:guide-bbox="true"
     inkscape:window-maximized="0">
    <sodipodi:guide
       orientation="0,1"
       position="-12.639138,49.982047"
       id="guide2386" />
    <sodipodi:guide
       orientation="1,0"
       position="9.9964093,52.165171"
       id="guide2388" />
    <sodipodi:guide
       orientation="0,1"
       position="-17.694794,15.971275"
       id="guide2390" />
    <sodipodi:guide
       orientation="1,0"
       position="35.964093,59.748654"
       id="guide2392" />
    <sodipodi:guide
       orientation="1,0"
       position="50.441652,60.438061"
       id="guide2394" />
  </sodipodi:namedview>
  <metadata
     id="metadata21849">
    <rdf:RDF>
      <cc:Work
         rdf:about="">
        <dc:format>image/svg+xml</dc:format>
        <dc:type
           rdf:resource="http://purl.org/dc/dcmitype/StillImage" />
      </cc:Work>
    </rdf:RDF>
  </metadata>
  <g
     id="layer1"
     inkscape:label="Layer 1"
     inkscape:groupmode="layer"
     transform="translate(-0.7873347,136.12828)">
    <rect
       style="opacity:1;fill:#e659b4;fill-opacity:1;fill-rule:nonzero;stroke:none;stroke-width:7.08599996999999960;stroke-linecap:round;stroke-linejoin:round;stroke-miterlimit:4;stroke-dasharray:7.08600000000000030, 14.17200000000000100;stroke-dashoffset:0;stroke-opacity:1"
       id="rect21854"
       width="64"
       height="64"
       x="0.78733474"
       y="-136.12828" />
    <path
       style="font-size:47.52000046px;font-style:normal;font-variant:normal;font-weight:bold;font-stretch:normal;text-align:start;line-height:125%;writing-mode:lr-tb;text-anchor:start;fill:#ffffff;fill-opacity:1;stroke:none;stroke-width:1px;stroke-linecap:butt;stroke-linejoin:miter;stroke-opacity:1;font-family:Helvetica Neue;"
       d="M 10.562456,-122.0771 L 10.562456,-88.14782 L 34.560056,-88.14782 L 34.560056,-94.42046 L 18.023096,-94.42046 L 18.023096,-122.0771 L 10.562456,-122.0771"
       id="text2382" />
    <path
       style="font-size:47.52000046px;font-style:normal;font-variant:normal;font-weight:bold;font-stretch:normal;text-align:start;line-height:125%;writing-mode:lr-tb;text-anchor:start;fill:#ffffff;fill-opacity:1;stroke:none;stroke-width:1px;stroke-linecap:butt;stroke-linejoin:miter;stroke-opacity:1;font-family:Helvetica Neue;"
       d="M 41.93419,-112.61665 C 41.934182,-113.37695 42.060902,-114.04223 42.31435,-114.61249 C 42.599461,-115.18271 42.979621,-115.65791 43.45483,-116.03809 C 43.93002,-116.41823 44.468579,-116.70335 45.07051,-116.89345 C 45.704098,-117.11519 46.353537,-117.22607 47.01883,-117.22609 C 48.064256,-117.22607 48.903775,-117.06767 49.53739,-116.75089 C 50.202654,-116.43407 50.709533,-116.03807 51.05803,-115.56289 C 51.438172,-115.08767 51.691612,-114.58079 51.81835,-114.04225 C 51.945052,-113.53535 52.008412,-113.06015 52.00843,-112.61665 C 52.008412,-111.19103 51.533212,-110.09807 50.58283,-109.33777 C 49.632414,-108.60911 48.444415,-108.24479 47.01883,-108.24481 C 45.656578,-108.24479 44.468579,-108.60911 43.45483,-109.33777 C 42.441061,-110.09807 41.934182,-111.19103 41.93419,-112.61665 M 35.80411,-113.23441 C 35.804108,-111.58703 36.215947,-110.14559 37.03963,-108.91009 C 37.863306,-107.67456 39.082985,-106.83504 40.69867,-106.39153 L 40.69867,-106.29649 C 38.702825,-105.82128 37.150506,-104.87088 36.04171,-103.44529 C 34.964589,-102.01968 34.426029,-100.2456 34.42603,-98.123055 C 34.426029,-96.317287 34.774509,-94.764968 35.47147,-93.466095 C 36.200107,-92.167211 37.150506,-91.090092 38.32267,-90.234734 C 39.526504,-89.379373 40.872903,-88.761614 42.36187,-88.381454 C 43.8825,-87.969615 45.450658,-87.763695 47.06635,-87.763694 C 48.618655,-87.763695 50.139294,-87.969615 51.62827,-88.381454 C 53.117211,-88.824974 54.447769,-89.474413 55.61995,-90.329774 C 56.792087,-91.185132 57.726646,-92.262251 58.42363,-93.561135 C 59.152245,-94.860008 59.516564,-96.396487 59.51659,-98.170575 C 59.516564,-100.26144 58.978005,-102.01968 57.90091,-103.44529 C 56.823767,-104.90256 55.287288,-105.85296 53.29147,-106.29649 L 53.29147,-106.39153 C 54.907129,-106.93008 56.110968,-107.81712 56.90299,-109.05265 C 57.726646,-110.28815 58.138486,-111.72959 58.13851,-113.37697 C 58.138486,-114.20063 57.948406,-115.11935 57.56827,-116.13313 C 57.188087,-117.17855 56.554487,-118.14478 55.66747,-119.03185 C 54.812089,-119.95054 53.67161,-120.7267 52.24603,-121.36033 C 50.820413,-121.9939 49.078015,-122.3107 47.01883,-122.31073 C 45.656578,-122.3107 44.310179,-122.12062 42.97963,-121.74049 C 41.649062,-121.3603 40.445223,-120.79006 39.36811,-120.02977 C 38.322665,-119.26942 37.467306,-118.31902 36.80203,-117.17857 C 36.136747,-116.03807 35.804108,-114.72335 35.80411,-113.23441 M 41.17387,-98.455695 C 41.173862,-100.1664 41.744102,-101.46528 42.88459,-102.35233 C 44.02506,-103.27104 45.418978,-103.7304 47.06635,-103.73041 C 47.858336,-103.7304 48.586975,-103.60368 49.25227,-103.35025 C 49.949214,-103.0968 50.551133,-102.73248 51.05803,-102.25729 C 51.596572,-101.78208 52.008412,-101.21184 52.29355,-100.54657 C 52.610331,-99.912963 52.768731,-99.200164 52.76875,-98.408175 C 52.768731,-97.584485 52.626171,-96.824166 52.34107,-96.127215 C 52.055932,-95.430247 51.644092,-94.828328 51.10555,-94.321455 C 50.598653,-93.846249 49.996734,-93.466089 49.29979,-93.180975 C 48.634495,-92.92753 47.890016,-92.80081 47.06635,-92.800815 C 46.274337,-92.80081 45.514018,-92.92753 44.78539,-93.180975 C 44.05674,-93.466089 43.42314,-93.846249 42.88459,-94.321455 C 42.377701,-94.828328 41.965862,-95.430247 41.64907,-96.127215 C 41.332262,-96.824166 41.173862,-97.600325 41.17387,-98.455695"
       id="text22626" />
  </g>
</svg>
