<?xml version="1.0" encoding="UTF-8" standalone="no"?>
<!-- Created with Inkscape (http://www.inkscape.org/) -->

<svg
   xmlns:dc="http://purl.org/dc/elements/1.1/"
   xmlns:cc="http://creativecommons.org/ns#"
   xmlns:rdf="http://www.w3.org/1999/02/22-rdf-syntax-ns#"
   xmlns:svg="http://www.w3.org/2000/svg"
   xmlns="http://www.w3.org/2000/svg"
   xmlns:sodipodi="http://sodipodi.sourceforge.net/DTD/sodipodi-0.dtd"
   xmlns:inkscape="http://www.inkscape.org/namespaces/inkscape"
   width="64"
   height="64"
   viewBox="0 0 64.000002 64.000001"
   id="svg3363"
   version="1.1"
   inkscape:version="0.91 r13725"
   sodipodi:docname="L9N.svg">
  <defs
     id="defs3365" />
  <sodipodi:namedview
     id="base"
     pagecolor="#ffffff"
     bordercolor="#666666"
     borderopacity="1.0"
     inkscape:pageopacity="0.0"
     inkscape:pageshadow="2"
     inkscape:zoom="9.0819027"
     inkscape:cx="1.6879161"
     inkscape:cy="28.264557"
     inkscape:document-units="px"
     inkscape:current-layer="text3036"
     showgrid="false"
     fit-margin-top="0"
     fit-margin-left="0"
     fit-margin-right="0"
     fit-margin-bottom="0"
     inkscape:window-width="1920"
     inkscape:window-height="1007"
     inkscape:window-x="0"
     inkscape:window-y="27"
     inkscape:window-maximized="1"
     units="px" />
  <metadata
     id="metadata3368">
    <rdf:RDF>
      <cc:Work
         rdf:about="">
        <dc:format>image/svg+xml</dc:format>
        <dc:type
           rdf:resource="http://purl.org/dc/dcmitype/StillImage" />
        <dc:title></dc:title>
      </cc:Work>
    </rdf:RDF>
  </metadata>
  <g
     inkscape:label="Layer 1"
     inkscape:groupmode="layer"
     id="layer1"
     transform="translate(669.14288,-151.79077)">
    <rect
       style="fill:#f1832d"
       y="151.79077"
       x="-669.14288"
       id="rect3"
       height="64"
       width="64" />
    <g
       transform="matrix(0.02204859,0,0,0.02204859,-669.14286,151.79074)"
       id="g7">
      <g
         id="g9">
        <path
           inkscape:connector-curvature="0"
           d="m 444.926,381.65 337.691,0 0,1254.28 750.265,0 0,284.458 -1087.956,0 0,-1538.738 z"
           id="path11"
           style="fill:#ffffff" />
        <path
           inkscape:connector-curvature="0"
           d="m 1839.609,1532.091 c 10.034,50.165 33.011,93.884 68.88,131.132 35.869,37.272 80.342,55.883 133.444,55.883 55.936,0 101.863,-16.141 137.732,-48.449 35.869,-32.283 64.591,-71.766 86.112,-118.447 21.521,-46.656 36.936,-96.535 46.267,-149.663 9.305,-53.128 15.413,-100.485 18.298,-142.125 l -4.573,-4.315 c -41.693,60.51 -90.532,103.735 -146.571,129.676 -56.039,25.941 -120.683,38.885 -193.954,38.885 -64.669,0 -127.882,-13.984 -189.665,-42.004 -61.783,-28.02 -114.21,-65.734 -157.305,-113.145 -40.236,-45.979 -69.711,-98.432 -88.373,-157.33 -18.688,-58.898 -28.02,-118.498 -28.02,-178.853 0,-77.561 12.554,-149.768 37.715,-216.567 25.134,-66.8 61.055,-124.996 107.763,-174.563 46.709,-49.567 102.384,-88.712 167.052,-117.459 64.67,-28.722 136.512,-43.095 215.555,-43.095 113.507,0 207.626,22.639 282.353,67.892 74.701,45.252 134.354,104.878 178.904,178.853 44.552,73.974 75.431,157.668 92.688,251.032 17.233,93.364 25.862,187.456 25.862,282.249 0,91.961 -10.787,184.961 -32.309,279.053 -21.547,94.092 -56.013,178.853 -103.397,254.281 -47.384,75.43 -108.413,136.824 -183.088,184.234 -74.677,47.383 -165.856,71.088 -273.542,71.088 -130.689,0 -240.532,-36.285 -329.556,-108.855 -89.05,-72.57 -142.178,-175.707 -159.384,-309.386 l 291.112,0 z m 218.934,-338.653 c 40.236,0 75.793,-7.511 106.672,-22.562 30.878,-15.049 56.377,-35.479 76.495,-61.263 20.118,-25.785 35.192,-55.545 45.253,-89.231 10.058,-33.686 15.102,-69.139 15.102,-106.412 0,-34.388 -5.407,-68.412 -16.168,-102.098 -10.787,-33.686 -26.59,-63.785 -47.41,-90.297 -20.846,-26.512 -46.344,-47.644 -76.495,-63.421 -30.177,-15.751 -64.669,-23.653 -103.448,-23.653 -37.352,0 -70.023,7.902 -98.043,23.653 -28.02,15.777 -52.088,36.57 -72.207,62.355 -20.117,25.784 -35.192,55.181 -45.252,88.14 -10.059,32.958 -15.075,66.645 -15.075,101.031 0,35.817 4.652,70.568 14.01,104.255 9.331,33.686 23.341,63.785 42.004,90.297 18.661,26.512 42.73,48.008 72.206,64.486 29.448,16.481 63.575,24.72 102.356,24.72 z"
           id="path13"
           style="fill:#ffffff" />
      </g>
    </g>
    <g
       style="font-style:normal;font-variant:normal;font-weight:bold;font-stretch:normal;font-size:12.78818321px;line-height:125%;font-family:Arial;;letter-spacing:-0.24253449px;word-spacing:0px;fill:#ffffff;fill-opacity:1;stroke:none"
       id="text3036">
      <path
         d="m -653.73055,206.84155 -3.99922,-7.06701 q 0.0326,0.28659 0.0586,0.57318 0.0261,0.2475 0.0391,0.53409 0.0195,0.28659 0.0195,0.54713 l 0,5.41261 -1.7065,0 0,-9.17735 2.19501,0 4.05783,7.12564 q -0.0326,-0.27356 -0.0586,-0.57318 -0.026,-0.25402 -0.0456,-0.57318 -0.013,-0.31915 -0.013,-0.64482 l 0,-5.33446 1.7065,0 0,9.17735 -2.25362,0 z"
         style="font-size:13.33939743px;letter-spacing:-0.44097179px;fill:#ffffff;fill-opacity:1"
         id="path3360"
         inkscape:connector-curvature="0" />
      <path
         d="m -643.38537,203.3113 q 0,0.80766 -0.22797,1.47854 -0.22145,0.67088 -0.67088,1.15938 -0.44942,0.48199 -1.1203,0.75555 -0.67088,0.26705 -1.56321,0.26705 -0.85977,0 -1.51762,-0.26705 -0.65785,-0.26705 -1.10727,-0.74904 -0.44291,-0.48199 -0.67088,-1.15286 -0.22797,-0.6774 -0.22797,-1.49157 0,-0.78812 0.21494,-1.45248 0.22146,-0.67088 0.66437,-1.15938 0.44291,-0.48851 1.11379,-0.76207 0.67087,-0.27356 1.56972,-0.27356 0.95095,0 1.62183,0.27356 0.67088,0.27356 1.09425,0.76207 0.42988,0.48199 0.62528,1.15287 0.20192,0.66436 0.20192,1.45899 z m -1.91493,0 q 0,-1.25708 -0.41035,-1.82374 -0.41034,-0.56667 -1.19195,-0.56667 -0.80765,0 -1.23754,0.57318 -0.42988,0.57318 -0.42988,1.81723 0,0.6318 0.11073,1.08774 0.11724,0.45593 0.32567,0.74903 0.20842,0.29311 0.50153,0.4364 0.2931,0.13678 0.64482,0.13678 0.40383,0 0.71647,-0.13678 0.31916,-0.14329 0.5341,-0.4364 0.21494,-0.2931 0.32567,-0.74903 0.11073,-0.45594 0.11073,-1.08774 z"
         style="font-size:13.33939743px;letter-spacing:-0.44097179px;fill:#ffffff;fill-opacity:1"
         id="path3362"
         inkscape:connector-curvature="0" />
      <path
         d="m -642.36933,206.84155 0,-5.39307 q 0,-0.22797 -0.007,-0.48199 0,-0.25403 -0.013,-0.48199 -0.007,-0.23449 -0.013,-0.41686 -0.007,-0.18889 -0.0195,-0.27356 l 1.74559,0 q 0.013,0.0782 0.026,0.27356 0.013,0.18889 0.0261,0.41686 0.013,0.22796 0.0195,0.45593 0.013,0.22146 0.013,0.35824 l 0.0261,0 q 0.13678,-0.38429 0.27357,-0.68391 0.13678,-0.30613 0.31915,-0.51455 0.18889,-0.21494 0.44942,-0.32567 0.26054,-0.11724 0.64483,-0.11724 0.16283,0 0.31915,0.0326 0.16284,0.0261 0.24751,0.0651 l 0,1.53064 q -0.17586,-0.0391 -0.35823,-0.0651 -0.17586,-0.0326 -0.42337,-0.0326 -0.68391,0 -1.0682,0.55364 -0.37777,0.55364 -0.37777,1.64137 l 0,3.4586 -1.83026,0 z"
         style="font-size:13.33939743px;letter-spacing:-0.44097179px;fill:#ffffff;fill-opacity:1"
         id="path3364"
         inkscape:connector-curvature="0" />
      <path
         d="m -633.05978,206.84155 q -0.013,-0.0521 -0.0326,-0.18237 -0.013,-0.13678 -0.0326,-0.30613 -0.013,-0.16935 -0.0261,-0.34521 -0.007,-0.17586 -0.007,-0.31264 l -0.0261,0 q -0.31916,0.6839 -0.89233,0.98352 -0.56667,0.2931 -1.3613,0.2931 -0.66436,0 -1.15287,-0.27356 -0.48199,-0.27356 -0.80114,-0.76207 -0.31265,-0.4885 -0.46897,-1.15286 -0.1498,-0.67088 -0.1498,-1.459 0,-0.80115 0.15632,-1.47202 0.16283,-0.67088 0.49501,-1.15287 0.33219,-0.48851 0.84023,-0.76207 0.51456,-0.27356 1.218,-0.27356 0.34521,0 0.66437,0.0716 0.31915,0.0716 0.59271,0.22145 0.27356,0.14981 0.49502,0.38429 0.22145,0.23448 0.37778,0.56667 l 0.013,0 q 0,-0.0651 -0.007,-0.18889 0,-0.13027 0,-0.2931 0,-0.16284 -0.007,-0.3387 0,-0.17586 0,-0.3387 l 0,-2.57278 1.83025,0 0,8.1287 q 0,0.51455 0.0195,0.91838 0.0195,0.39732 0.0326,0.61877 l -1.77164,0 z m -0.0847,-3.56281 q 0,-0.69694 -0.13027,-1.15287 -0.13027,-0.46245 -0.34521,-0.7295 -0.20843,-0.27356 -0.48199,-0.37778 -0.26705,-0.11072 -0.54712,-0.11072 -0.35172,0 -0.62529,0.13678 -0.26704,0.13678 -0.45593,0.42988 -0.18238,0.2931 -0.28008,0.74904 -0.0912,0.45593 -0.0912,1.10076 0,2.39692 1.43945,2.39692 0.27356,0 0.54713,-0.11724 0.27356,-0.11724 0.4885,-0.39732 0.21494,-0.28007 0.34521,-0.74903 0.13678,-0.47548 0.13678,-1.17892 z"
         style="font-size:13.33939743px;letter-spacing:-0.44097179px;fill:#ffffff;fill-opacity:1"
         id="path3366"
         inkscape:connector-curvature="0" />
    </g>
  </g>
</svg>
