<?xml version="1.0" encoding="utf-8"?>
<!-- Generator: Adobe Illustrator 27.0.0, SVG Export Plug-In . SVG Version: 6.00 Build 0)  -->
<svg version="1.1" id="Capa_1" xmlns="http://www.w3.org/2000/svg" xmlns:xlink="http://www.w3.org/1999/xlink" x="0px" y="0px"
	 viewBox="0 0 143 70" style="enable-background:new 0 0 143 70;" xml:space="preserve">
<style type="text/css">
	.st0{fill:#1D1D1B;}
	.st1{fill:#FB712B;}
	.st2{fill:#FFFFFF;}
	.st3{clip-path:url(#SVGID_00000135651509425287032990000010031677336196318399_);fill:#FFFFFF;}
	.st4{fill:#E1271E;}
	.st5{fill:none;stroke:#1D1D1B;stroke-width:2.75;}
</style>
<path class="st0" d="M133.6,46.7l-22.8-7v12l5.3,4.2v4.7l-8-2.5l-8.1,2.6v-4.6l5.1-4.3V39.7l-22.6,7.2v-5.7L105,27.2V11.6
	c0-2.3,0.7-3.8,2.9-3.8c2.4,0,2.9,1.7,2.9,3.6v16l22.8,13.3V46.7z"/>
<rect class="st1" width="70" height="70"/>
<polygon class="st2" points="10.2,9.2 18.3,9.2 18.3,39.5 36.4,39.5 36.4,46.3 10.2,46.3 "/>
<polygon class="st2" points="9.6,48.9 9.6,62 12.3,62 12.3,53.2 12.3,53.2 17.8,62 20.6,62 20.6,48.9 17.9,48.9 17.9,57.7 
	17.9,57.7 12.4,48.9 "/>
<path class="st2" d="M48.3,60.7v1.2h2.5V48.7h-2.6v4.8h0c-0.3-0.5-0.7-0.8-1.2-1.1c-0.5-0.2-1-0.4-1.6-0.4c-0.7,0-1.3,0.1-1.9,0.4
	c-0.5,0.3-1,0.6-1.3,1.1c-0.3,0.5-0.6,1-0.8,1.6C41.1,55.8,41,56.4,41,57c0,0.7,0.1,1.3,0.3,1.9c0.2,0.6,0.5,1.2,0.8,1.6
	c0.4,0.5,0.8,0.9,1.4,1.1c0.6,0.3,1.2,0.4,1.9,0.4c0.6,0,1.2-0.1,1.7-0.3C47.5,61.6,47.9,61.2,48.3,60.7L48.3,60.7z M48.2,57.1
	c0,0.4,0,0.8-0.1,1.1c-0.1,0.4-0.2,0.7-0.4,1c-0.2,0.3-0.4,0.5-0.7,0.7c-0.3,0.2-0.6,0.3-1.1,0.3c-0.4,0-0.8-0.1-1.1-0.3
	c-0.3-0.2-0.5-0.4-0.7-0.7c-0.2-0.3-0.3-0.6-0.4-1c-0.1-0.4-0.1-0.7-0.1-1.1c0-0.4,0-0.8,0.1-1.1c0.1-0.4,0.2-0.7,0.4-1
	c0.2-0.3,0.4-0.5,0.7-0.7S45.5,54,46,54c0.4,0,0.8,0.1,1.1,0.3c0.3,0.2,0.5,0.4,0.7,0.7c0.2,0.3,0.3,0.6,0.4,1
	C48.2,56.3,48.2,56.7,48.2,57.1"/>
<path class="st2" d="M22.9,57.1c0,0.8,0.1,1.5,0.4,2.1c0.2,0.6,0.6,1.1,1,1.6c0.4,0.4,1,0.8,1.6,1c0.6,0.2,1.3,0.3,2,0.3
	s1.4-0.1,2-0.3c0.6-0.2,1.1-0.6,1.6-1c0.4-0.5,0.8-1,1-1.6c0.2-0.6,0.3-1.3,0.3-2.1c0-0.8-0.1-1.5-0.3-2.1c-0.2-0.6-0.6-1.2-1-1.6
	c-0.4-0.4-1-0.8-1.6-1c-0.6-0.2-1.3-0.4-2-0.4s-1.4,0.1-2,0.4c-0.6,0.2-1.1,0.6-1.6,1c-0.4,0.4-0.8,1-1,1.6
	C23,55.7,22.9,56.4,22.9,57.1 M25.5,57.1c0-0.4,0-0.8,0.1-1.1c0.1-0.4,0.2-0.7,0.4-1c0.2-0.3,0.4-0.5,0.7-0.7
	c0.3-0.2,0.7-0.3,1.1-0.3c0.5,0,0.8,0.1,1.1,0.3c0.3,0.2,0.6,0.4,0.7,0.7c0.2,0.3,0.3,0.6,0.4,1c0.1,0.4,0.1,0.7,0.1,1.1
	c0,0.4,0,0.8-0.1,1.1c-0.1,0.4-0.2,0.7-0.4,1c-0.2,0.3-0.4,0.5-0.7,0.7c-0.3,0.2-0.7,0.3-1.1,0.3c-0.4,0-0.8-0.1-1.1-0.3
	c-0.3-0.2-0.5-0.4-0.7-0.7c-0.2-0.3-0.3-0.6-0.4-1C25.5,57.9,25.5,57.5,25.5,57.1"/>
<path class="st2" d="M34.5,52.3v9.6h2.6v-4.3c0-0.4,0-0.8,0.1-1.2c0.1-0.4,0.2-0.7,0.4-1c0.2-0.3,0.5-0.5,0.8-0.7
	c0.3-0.2,0.7-0.2,1.2-0.2c0.2,0,0.3,0,0.5,0c0.2,0,0.3,0,0.5,0.1v-2.4c-0.2-0.1-0.4-0.1-0.6-0.1c-0.3,0-0.7,0.1-1,0.2
	c-0.3,0.1-0.6,0.2-0.9,0.4c-0.3,0.2-0.5,0.4-0.7,0.6c-0.2,0.2-0.4,0.5-0.5,0.8h0v-1.8H34.5z"/>
<g>
	<defs>
		<rect id="SVGID_1_" x="-0.5" y="-0.8" width="150" height="70.8"/>
	</defs>
	<clipPath id="SVGID_00000163055444295034407530000010209199675390298786_">
		<use xlink:href="#SVGID_1_"  style="overflow:visible;"/>
	</clipPath>
	<path style="clip-path:url(#SVGID_00000163055444295034407530000010209199675390298786_);fill:#FFFFFF;" d="M49.7,28.3
		c1,0,1.8-0.2,2.6-0.6c0.8-0.4,1.4-0.9,1.9-1.5c0.5-0.6,0.9-1.4,1.1-2.2c0.2-0.8,0.4-1.7,0.4-2.6c0-0.8-0.1-1.7-0.4-2.5
		s-0.6-1.6-1.2-2.2c-0.5-0.6-1.1-1.2-1.9-1.5c-0.7-0.4-1.6-0.6-2.5-0.6c-0.9,0-1.7,0.2-2.4,0.6c-0.7,0.4-1.3,0.9-1.8,1.5
		c-0.5,0.6-0.9,1.3-1.1,2.2c-0.2,0.8-0.4,1.6-0.4,2.5c0,0.9,0.1,1.7,0.3,2.5c0.2,0.8,0.6,1.6,1,2.2c0.5,0.6,1,1.2,1.8,1.6
		C47.9,28.1,48.8,28.3,49.7,28.3 M44.4,36.5c0.2,1.2,0.8,2.3,1.7,3.2c0.9,0.9,2,1.4,3.3,1.4c1.4,0,2.5-0.4,3.4-1.2
		c0.9-0.8,1.6-1.7,2.1-2.9c0.5-1.1,0.9-2.4,1.1-3.7c0.2-1.3,0.4-2.5,0.5-3.5l-0.1-0.1c-1,1.5-2.2,2.5-3.6,3.2
		c-1.4,0.6-2.9,0.9-4.7,0.9c-1.6,0-3.1-0.3-4.6-1c-1.5-0.7-2.8-1.6-3.8-2.8c-1-1.1-1.7-2.4-2.2-3.8c-0.5-1.4-0.7-2.9-0.7-4.4
		c0-1.9,0.3-3.7,0.9-5.3s1.5-3,2.6-4.3c1.1-1.2,2.5-2.2,4.1-2.9s3.3-1.1,5.3-1.1c2.8,0,5.1,0.6,6.9,1.7c1.8,1.1,3.3,2.6,4.4,4.4
		c1.1,1.8,1.8,3.8,2.3,6.1c0.4,2.3,0.6,4.6,0.6,6.9c0,2.2-0.3,4.5-0.8,6.8c-0.5,2.3-1.4,4.4-2.5,6.2c-1.2,1.8-2.6,3.3-4.5,4.5
		c-1.8,1.1-4,1.7-6.7,1.7c-3.2,0-5.9-0.9-8-2.7c-2.2-1.8-3.5-4.3-3.9-7.6H44.4z"/>
</g>
<path class="st0" d="M133.6,46.7l-22.8-7v12l5.3,4.2v4.7l-8-2.5l-8.1,2.6v-4.6l5.1-4.3V39.7l-22.6,7.2v-5.7L105,27.2V11.6
	c0-2.3,0.7-3.8,2.9-3.8c2.4,0,2.9,1.7,2.9,3.6v16l22.8,13.3V46.7z"/>
<polygon class="st4" points="142.1,-0.1 72.8,69.7 83.5,69.7 142.1,10.5 "/>
<path class="st0" d="M143,70H72.8V-0.2H143V70z M74.6,68.2h66.6V1.6H74.6V68.2z"/>
<g>
	<g>
		<line class="st5" x1="64.2" y1="16.1" x2="96.1" y2="16.1"/>
		<g>
			<polygon class="st0" points="87,27.3 85.1,25.3 95,16.1 85.1,6.9 87,4.9 99.1,16.1 			"/>
		</g>
	</g>
</g>
<path class="st0" d="M143,70.2H72.8V0H143V70.2z M74.6,68.4h66.6V1.8H74.6V68.4z"/>
</svg>
