<?xml version="1.0" encoding="UTF-8" standalone="no"?>
<svg
   xmlns:dc="http://purl.org/dc/elements/1.1/"
   xmlns:cc="http://creativecommons.org/ns#"
   xmlns:rdf="http://www.w3.org/1999/02/22-rdf-syntax-ns#"
   xmlns:svg="http://www.w3.org/2000/svg"
   xmlns="http://www.w3.org/2000/svg"
   version="1.0"
   width="128"
   height="64"
   viewBox="0 0 128 64" 
   id="svg21844">
  <defs
     id="defs164" />
  <metadata
     id="metadata21849">
    <rdf:RDF>
      <cc:Work
         rdf:about="">
        <dc:format>image/svg+xml</dc:format>
        <dc:type
           rdf:resource="http://purl.org/dc/dcmitype/StillImage" />
        <dc:title></dc:title>
      </cc:Work>
    </rdf:RDF>
  </metadata>
  <g
     id="g231">
    <g
       transform="translate(669.14267,-151.79)"
       id="layer1-1">
      <rect
         style="fill:#f1832d"
         x="-669.14001"
         y="151.78999"
         width="64"
         height="64"
         id="rect3" />
      <g
         transform="matrix(0.022049,0,0,0.022049,-669.14,151.79)"
         id="g7">
        <g
           style="fill:#ffffff"
           id="g9">
          <path
             d="m 444.93,381.65 h 337.69 v 1254.3 h 750.26 v 284.46 h -1088 V 381.71 Z"
             id="path11" />
          <path
             d="m 1839.6,1532.1 c 10.034,50.165 33.011,93.884 68.88,131.13 35.869,37.272 80.342,55.883 133.44,55.883 55.936,0 101.86,-16.141 137.73,-48.449 35.869,-32.283 64.591,-71.766 86.112,-118.45 21.521,-46.656 36.936,-96.535 46.267,-149.66 9.305,-53.128 15.413,-100.48 18.298,-142.12 l -4.573,-4.315 c -41.693,60.51 -90.532,103.74 -146.57,129.68 -56.039,25.941 -120.68,38.885 -193.95,38.885 -64.669,0 -127.88,-13.984 -189.66,-42.004 -61.783,-28.02 -114.21,-65.734 -157.3,-113.14 -40.236,-45.979 -69.711,-98.432 -88.373,-157.33 -18.688,-58.898 -28.02,-118.5 -28.02,-178.85 0,-77.561 12.554,-149.77 37.715,-216.57 25.134,-66.8 61.055,-125 107.76,-174.56 46.709,-49.567 102.38,-88.712 167.05,-117.46 64.67,-28.722 136.51,-43.095 215.56,-43.095 113.51,0 207.63,22.639 282.35,67.892 74.701,45.252 134.35,104.88 178.9,178.85 44.552,73.974 75.431,157.67 92.688,251.03 17.233,93.364 25.862,187.46 25.862,282.25 0,91.961 -10.787,184.96 -32.309,279.05 -21.547,94.092 -56.013,178.85 -103.4,254.28 -47.384,75.43 -108.41,136.82 -183.09,184.23 -74.677,47.383 -165.86,71.088 -273.54,71.088 -130.69,0 -240.53,-36.285 -329.56,-108.86 -89.05,-72.57 -142.18,-175.71 -159.38,-309.39 h 291.11 z m 218.93,-338.65 c 40.236,0 75.793,-7.511 106.67,-22.562 30.878,-15.049 56.377,-35.479 76.495,-61.263 20.118,-25.785 35.192,-55.545 45.253,-89.231 10.058,-33.686 15.102,-69.139 15.102,-106.41 0,-34.388 -5.407,-68.412 -16.168,-102.1 -10.787,-33.686 -26.59,-63.785 -47.41,-90.297 -20.846,-26.512 -46.344,-47.644 -76.495,-63.421 -30.177,-15.751 -64.669,-23.653 -103.45,-23.653 -37.352,0 -70.023,7.902 -98.043,23.653 -28.02,15.777 -52.088,36.57 -72.207,62.355 -20.117,25.784 -35.192,55.181 -45.252,88.14 -10.059,32.958 -15.075,66.645 -15.075,101.03 0,35.817 4.652,70.568 14.01,104.26 9.331,33.686 23.341,63.785 42.004,90.297 18.661,26.512 42.73,48.008 72.206,64.486 29.448,16.481 63.575,24.72 102.36,24.72 z"
             id="path13" />
        </g>
      </g>
      <g
         style="fill:#ffffff"
         id="text3036">
        <path
           d="m -653.73,206.84 -3.9992,-7.067 q 0.0326,0.28659 0.0586,0.57318 0.0261,0.2475 0.0391,0.53409 0.0195,0.28659 0.0195,0.54713 v 5.4126 h -1.7065 v -9.1774 h 2.195 l 4.0578,7.1256 q -0.0326,-0.27356 -0.0586,-0.57318 -0.026,-0.25402 -0.0456,-0.57318 -0.013,-0.31915 -0.013,-0.64482 v -5.3345 h 1.7065 v 9.1774 h -2.2536 z"
           id="path3360" />
        <path
           d="m -643.39,203.31 q 0,0.80766 -0.22797,1.4785 -0.22145,0.67088 -0.67088,1.1594 -0.44942,0.48199 -1.1203,0.75555 -0.67088,0.26705 -1.5632,0.26705 -0.85977,0 -1.5176,-0.26705 -0.65785,-0.26705 -1.1073,-0.74904 -0.44291,-0.48199 -0.67088,-1.1529 -0.22797,-0.6774 -0.22797,-1.4916 0,-0.78812 0.21494,-1.4525 0.22146,-0.67088 0.66437,-1.1594 0.44291,-0.48851 1.1138,-0.76207 0.67087,-0.27356 1.5697,-0.27356 0.95095,0 1.6218,0.27356 0.67088,0.27356 1.0942,0.76207 0.42988,0.48199 0.62528,1.1529 0.20192,0.66436 0.20192,1.459 z m -1.9149,0 q 0,-1.2571 -0.41035,-1.8237 -0.41034,-0.56667 -1.192,-0.56667 -0.80765,0 -1.2375,0.57318 -0.42988,0.57318 -0.42988,1.8172 0,0.6318 0.11073,1.0877 0.11724,0.45593 0.32567,0.74903 0.20842,0.29311 0.50153,0.4364 0.2931,0.13678 0.64482,0.13678 0.40383,0 0.71647,-0.13678 0.31916,-0.14329 0.5341,-0.4364 0.21494,-0.2931 0.32567,-0.74903 0.11073,-0.45594 0.11073,-1.0877 z"
           id="path3362" />
        <path
           d="m -642.37,206.84 v -5.3931 q 0,-0.22797 -0.007,-0.48199 0,-0.25403 -0.013,-0.48199 -0.007,-0.23449 -0.013,-0.41686 -0.007,-0.18889 -0.0195,-0.27356 h 1.7456 q 0.013,0.0782 0.026,0.27356 0.013,0.18889 0.0261,0.41686 0.013,0.22796 0.0195,0.45593 0.013,0.22146 0.013,0.35824 h 0.0261 q 0.13678,-0.38429 0.27357,-0.68391 0.13678,-0.30613 0.31915,-0.51455 0.18889,-0.21494 0.44942,-0.32567 0.26054,-0.11724 0.64483,-0.11724 0.16283,0 0.31915,0.0326 0.16284,0.0261 0.24751,0.0651 v 1.5306 q -0.17586,-0.0391 -0.35823,-0.0651 -0.17586,-0.0326 -0.42337,-0.0326 -0.68391,0 -1.0682,0.55364 -0.37777,0.55364 -0.37777,1.6414 v 3.4586 h -1.8303 z"
           id="path3364" />
        <path
           d="m -633.06,206.84 q -0.013,-0.0521 -0.0326,-0.18237 -0.013,-0.13678 -0.0326,-0.30613 -0.013,-0.16935 -0.0261,-0.34521 -0.007,-0.17586 -0.007,-0.31264 h -0.0261 q -0.31916,0.6839 -0.89233,0.98352 -0.56667,0.2931 -1.3613,0.2931 -0.66436,0 -1.1529,-0.27356 -0.48199,-0.27356 -0.80114,-0.76207 -0.31265,-0.4885 -0.46897,-1.1529 -0.1498,-0.67088 -0.1498,-1.459 0,-0.80115 0.15632,-1.472 0.16283,-0.67088 0.49501,-1.1529 0.33219,-0.48851 0.84023,-0.76207 0.51456,-0.27356 1.218,-0.27356 0.34521,0 0.66437,0.0716 0.31915,0.0716 0.59271,0.22145 0.27356,0.14981 0.49502,0.38429 0.22145,0.23448 0.37778,0.56667 h 0.013 q 0,-0.0651 -0.007,-0.18889 0,-0.13027 0,-0.2931 0,-0.16284 -0.007,-0.3387 0,-0.17586 0,-0.3387 v -2.5728 h 1.8302 v 8.1287 q 0,0.51455 0.0195,0.91838 0.0195,0.39732 0.0326,0.61877 h -1.7716 z m -0.0847,-3.5628 q 0,-0.69694 -0.13027,-1.1529 -0.13027,-0.46245 -0.34521,-0.7295 -0.20843,-0.27356 -0.48199,-0.37778 -0.26705,-0.11072 -0.54712,-0.11072 -0.35172,0 -0.62529,0.13678 -0.26704,0.13678 -0.45593,0.42988 -0.18238,0.2931 -0.28008,0.74904 -0.0912,0.45593 -0.0912,1.1008 0,2.3969 1.4394,2.3969 0.27356,0 0.54713,-0.11724 0.27356,-0.11724 0.4885,-0.39732 0.21494,-0.28007 0.34521,-0.74903 0.13678,-0.47548 0.13678,-1.1789 z"
           id="path3366" />
      </g>
    </g>
    <g
       id="layer1"
       transform="translate(63.21267,136.13)">
      <rect
         style="fill:#00adef"
         id="rect21854"
         height="64"
         width="64"
         y="-136.13"
         x="0.78732997" />
      <g
         style="fill:#ffffff"
         id="g12">
        <path
           id="text2382"
           d="m 7.9528,-127.36 v 30.933 h 21.623 v -5.7187 h -14.9 v -25.214 H 7.9535" />
        <path
           id="text22626"
           d="m 38.577,-96.42 v -30.388 h -4.8212 c -0.17068,1.1576 -0.52622,2.1272 -1.0666,2.9085 -0.54045,0.78141 -1.2089,1.4181 -2.0053,1.9101 -0.768,0.46308 -1.6498,0.7959 -2.6453,0.99845 -0.9671,0.17367 -1.9769,0.24602 -3.0293,0.21705 v 4.645 h 7.5092 v 19.709 h 6.0586" />
        <path
           id="text2389"
           d="m 45.933,-111.93 c -7e-6,-0.51682 -7e-6,-1.1341 0,-1.852 0.02887,-0.74652 0.08664,-1.5074 0.17329,-2.2826 0.08664,-0.77523 0.23105,-1.5361 0.43323,-2.2827 0.20217,-0.77522 0.47654,-1.4643 0.82314,-2.0673 0.37546,-0.60295 0.83757,-1.0911 1.3863,-1.4643 0.57763,-0.37324 1.2852,-0.55987 2.1228,-0.5599 0.83756,3e-5 1.5452,0.18666 2.1228,0.5599 0.57762,0.37328 1.0542,0.86139 1.4297,1.4643 0.37545,0.60298 0.64983,1.2921 0.82314,2.0673 0.20216,0.74655 0.34657,1.5074 0.43323,2.2827 0.11551,0.77525 0.17328,1.5361 0.17329,2.2826 0.02886,0.71783 0.04331,1.3351 0.04332,1.852 -1.7e-5,0.86139 -0.0289,1.9094 -0.08665,3.144 -0.05778,1.2059 -0.24551,2.3832 -0.5632,3.5317 -0.28884,1.1198 -0.77983,2.0817 -1.473,2.8856 -0.6643,0.80396 -1.6318,1.2059 -2.9026,1.2059 -1.2419,1e-5 -2.195,-0.40197 -2.8593,-1.2059 -0.66429,-0.80394 -1.1553,-1.7658 -1.473,-2.8856 -0.28883,-1.1485 -0.46212,-2.3257 -0.51988,-3.5317 -0.05777,-1.2346 -0.08665,-2.2826 -0.08665,-3.144 m -6.1519,0 c -10e-7,3.0148 0.28882,5.5415 0.86646,7.5801 0.60652,2.0099 1.4152,3.6178 2.4261,4.8237 1.0109,1.2059 2.1806,2.0673 3.5092,2.5841 1.3574,0.51683 2.7871,0.77524 4.289,0.77524 1.5307,0 2.9604,-0.25841 4.289,-0.77524 1.3574,-0.51683 2.5416,-1.3782 3.5525,-2.5841 1.0397,-1.2059 1.8484,-2.8138 2.4261,-4.8237 0.6065,-2.0386 0.90976,-4.5653 0.90978,-7.5801 -2.3e-5,-2.9287 -0.30328,-5.3836 -0.90978,-7.3648 -0.57766,-2.0099 -1.3864,-3.6178 -2.4261,-4.8237 -1.0109,-1.2059 -2.195,-2.0673 -3.5525,-2.5841 -1.3286,-0.5168 -2.7582,-0.77522 -4.289,-0.77525 -1.5019,3e-5 -2.9315,0.25845 -4.289,0.77525 -1.3286,0.51685 -2.4983,1.3782 -3.5092,2.5841 -1.0109,1.206 -1.8196,2.8139 -2.4261,4.8237 -0.57764,1.9812 -0.86646,4.4361 -0.86646,7.3648" />
        <g
           id="text2996">
          <path
             id="path3350"
             d="m 14.566,-81.993 -4.7969,-8.4766 q 0.039063,0.34375 0.070312,0.6875 0.03125,0.29688 0.046875,0.64062 0.023437,0.34375 0.023437,0.65625 v 6.4922 h -2.0469 v -11.008 h 2.6328 l 4.8672,8.5469 q -0.03906,-0.32812 -0.07031,-0.6875 -0.03125,-0.30469 -0.05469,-0.6875 -0.01563,-0.38281 -0.01563,-0.77344 v -6.3984 h 2.0469 v 11.008 h -2.7031 z" />
          <path
             id="path3352"
             d="m 26.754,-86.228 q 0,0.96875 -0.27344,1.7734 -0.26562,0.80469 -0.80469,1.3906 -0.53906,0.57812 -1.3438,0.90625 -0.80469,0.32031 -1.875,0.32031 -1.0312,0 -1.8203,-0.32031 -0.78906,-0.32031 -1.3281,-0.89844 -0.53125,-0.57812 -0.80469,-1.3828 -0.27344,-0.8125 -0.27344,-1.7891 0,-0.94531 0.25781,-1.7422 0.26562,-0.80469 0.79688,-1.3906 0.53125,-0.58594 1.3359,-0.91406 0.80469,-0.32812 1.8828,-0.32812 1.1406,0 1.9453,0.32812 0.80469,0.32812 1.3125,0.91406 0.51562,0.57812 0.75,1.3828 0.24219,0.79688 0.24219,1.75 z m -2.2969,0 q 0,-1.5078 -0.49219,-2.1875 -0.49219,-0.67969 -1.4297,-0.67969 -0.96875,0 -1.4844,0.6875 -0.51562,0.6875 -0.51562,2.1797 0,0.75781 0.13281,1.3047 0.14062,0.54688 0.39062,0.89844 0.25,0.35156 0.60156,0.52344 0.35156,0.16406 0.77344,0.16406 0.48438,0 0.85938,-0.16406 0.38281,-0.17188 0.64062,-0.52344 0.25781,-0.35156 0.39062,-0.89844 0.13281,-0.54688 0.13281,-1.3047 z" />
          <path
             id="path3354"
             d="m 27.754,-81.993 v -6.4688 q 0,-0.27344 -0.0078,-0.57812 0,-0.30469 -0.01563,-0.57812 -0.0078,-0.28125 -0.01563,-0.5 -0.0078,-0.22656 -0.02344,-0.32812 h 2.0938 q 0.01563,0.09375 0.03125,0.32812 0.01563,0.22656 0.03125,0.5 0.01563,0.27344 0.02344,0.54688 0.01563,0.26562 0.01563,0.42969 h 0.03125 q 0.16406,-0.46094 0.32812,-0.82031 0.16406,-0.36719 0.38281,-0.61719 0.22656,-0.25781 0.53906,-0.39062 0.3125,-0.14062 0.77344,-0.14062 0.19531,0 0.38281,0.03906 0.19531,0.03125 0.29688,0.07813 v 1.8359 q -0.21094,-0.04687 -0.42969,-0.07813 -0.21094,-0.03906 -0.50781,-0.03906 -0.82031,0 -1.2812,0.66406 -0.45312,0.66406 -0.45312,1.9688 v 4.1484 h -2.1953 z" />
          <path
             id="path3356"
             d="m 38.699,-81.993 q -0.01563,-0.0625 -0.03906,-0.21875 -0.01563,-0.16406 -0.03906,-0.36719 -0.01563,-0.20312 -0.03125,-0.41406 -0.0078,-0.21094 -0.0078,-0.375 h -0.03125 q -0.38281,0.82031 -1.0703,1.1797 -0.67969,0.35156 -1.6328,0.35156 -0.79688,0 -1.3828,-0.32812 -0.57812,-0.32812 -0.96094,-0.91406 -0.375,-0.58594 -0.5625,-1.3828 -0.17969,-0.80469 -0.17969,-1.75 0,-0.96094 0.1875,-1.7656 0.19531,-0.80469 0.59375,-1.3828 0.39844,-0.58594 1.0078,-0.91406 0.61719,-0.32812 1.4609,-0.32812 0.41406,0 0.79688,0.08594 0.38281,0.08594 0.71094,0.26562 0.32812,0.17969 0.59375,0.46094 0.26562,0.28125 0.45312,0.67969 h 0.01563 q 0,-0.07813 -0.0078,-0.22656 0,-0.15625 0,-0.35156 0,-0.19531 -0.0078,-0.40625 0,-0.21094 0,-0.40625 v -3.0859 h 2.1953 v 9.75 q 0,0.61719 0.02344,1.1016 0.02344,0.47656 0.03906,0.74219 h -2.125 z m -0.10156,-4.2734 q 0,-0.83594 -0.15625,-1.3828 -0.15625,-0.55469 -0.41406,-0.875 -0.25,-0.32812 -0.57812,-0.45312 -0.32031,-0.13281 -0.65625,-0.13281 -0.42188,0 -0.75,0.16406 -0.32031,0.16406 -0.54688,0.51562 -0.21875,0.35156 -0.33594,0.89844 -0.10938,0.54688 -0.10938,1.3203 0,2.875 1.7266,2.875 0.32812,0 0.65625,-0.14062 0.32812,-0.14062 0.58594,-0.47656 0.25781,-0.33594 0.41406,-0.89844 0.16406,-0.57031 0.16406,-1.4141 z" />
        </g>
      </g>
    </g>
  </g>
</svg>
