<?xml version="1.0" encoding="utf-8"?>
<!-- Generator: Adobe Illustrator 27.0.0, SVG Export Plug-In . SVG Version: 6.00 Build 0)  -->
<svg version="1.1" id="Capa_1" xmlns="http://www.w3.org/2000/svg" xmlns:xlink="http://www.w3.org/1999/xlink" x="0px" y="0px"
	 viewBox="0 0 143 70" style="enable-background:new 0 0 143 70;" xml:space="preserve">
<style type="text/css">
	.st0{fill:#1D1D1B;}
	.st1{fill:#FB712B;}
	.st2{fill:#FFFFFF;}
	.st3{clip-path:url(#SVGID_00000163030939262235498720000007566033351728518304_);fill:#FFFFFF;}
	.st4{fill:#E1271E;}
	.st5{fill:none;stroke:#1D1D1B;stroke-width:2.75;}
</style>
<rect y="-0.1" class="st1" width="70" height="70"/>
<g>
	<path class="st2" d="M16.3,35.8v-30h-8v36.7h26v-6.8H16.3z M49,12.2c1.1,0,2.1,0.3,2.9,0.9c0.9,0.6,1.6,1.4,2,2.4
		c0.5,1,0.8,2.1,0.8,3.4c0,1.9-0.6,3.5-1.6,4.7c-1.1,1.2-2.5,1.8-4.1,1.8c-1.1,0-2.1-0.3-3-0.8c-0.9-0.6-1.6-1.3-2.1-2.3
		c-0.5-1-0.7-2.1-0.7-3.4c0-1.3,0.2-2.4,0.7-3.4c0.5-1,1.2-1.8,2.1-2.4C46.9,12.5,47.9,12.2,49,12.2 M36.7,33.5
		c0.2,1.9,0.8,3.6,1.9,5.1c1,1.5,2.4,2.6,4.2,3.4c1.7,0.8,3.7,1.2,5.9,1.2c2.1,0,4-0.5,5.7-1.3c1.7-0.9,3.2-2.2,4.4-3.9
		c1.2-1.7,2.1-3.7,2.8-6.1c0.6-2.4,1-5,1-8c0-3.6-0.5-6.5-1.3-8.9c-0.7-1.8-1.6-3.3-2.8-4.7c-1.2-1.3-2.6-2.3-4.2-3
		c-1.6-0.7-3.3-1-5.2-1c-1.8,0-3.5,0.3-5.1,1c-1.6,0.6-3,1.5-4.1,2.7c-1.2,1.2-2.1,2.5-2.7,4.1c-0.6,1.6-1,3.3-1,5.1
		c0,2.2,0.5,4.3,1.5,6.1c1,1.8,2.3,3.3,4.1,4.3c1.8,1,3.7,1.5,5.9,1.5c1.7,0,3.1-0.3,4.4-1c1.2-0.7,2.3-1.7,3.4-3.2
		c-0.2,2.5-0.6,4.5-1.2,6.1c-0.5,1.6-1.3,2.8-2.2,3.6c-0.9,0.8-2,1.1-3.4,1.1c-2.7,0-4.3-1.4-4.9-4.1H36.7z"/>
	<path class="st2" d="M19.6,54.1c-0.1-2.8-2-4.3-5.2-4.3c-3.2,0-5.2,1.6-5.2,4.1c0,1.1,0.3,1.9,1,2.6c0.6,0.5,1.5,0.9,3.3,1.4
		l1.2,0.3c2,0.6,2.5,0.9,2.5,1.7c0,1.1-1,1.8-2.5,1.8c-2,0-3-0.8-3.1-2.6h-3c0.1,3.1,2.2,4.9,5.9,4.9c3.4,0,5.6-1.7,5.6-4.4
		c0-1.1-0.4-2.1-1.3-2.8c-0.7-0.6-1.6-0.9-3.5-1.4l-0.9-0.2c-1.9-0.5-2.4-0.8-2.4-1.6c0-1,0.8-1.6,2.2-1.6c1.5,0,2.4,0.7,2.6,2H19.6
		z"/>
	<path class="st2" d="M30.8,53.8h-2.7v4.9c0,2.1-0.6,3-2.1,3c-1.3,0-1.7-0.5-1.7-2.5v-5.4h-2.7v6.2c0,1.1,0.1,1.7,0.4,2.3
		c0.5,1,1.6,1.6,3,1.6c1.4,0,2.4-0.5,3.3-1.7v1.4h2.6V53.8z"/>
	<path class="st2" d="M35.3,58.7c0,1.9,0.9,3.1,2.3,3.1c1.5,0,2.3-1.1,2.3-3s-0.9-3.1-2.3-3.1C36.2,55.7,35.3,56.8,35.3,58.7
		 M42.6,63.7h-2.5v-1.2c-0.7,1-1.7,1.5-3,1.5c-2.7,0-4.5-2-4.5-5.2c0-3.1,1.7-5.2,4.3-5.2c1.3,0,2.4,0.5,3,1.5v-5h2.7V63.7z"/>
</g>
<path class="st0" d="M133.6,46.7l-22.8-7v12l5.3,4.2v4.7l-8-2.5l-8.1,2.6v-4.6l5.1-4.3V39.7l-22.6,7.2v-5.7L105,27.2V11.6
	c0-2.3,0.7-3.8,2.9-3.8c2.4,0,2.9,1.7,2.9,3.6v16l22.8,13.3V46.7z"/>
<path class="st0" d="M143,70.2H72.8V0H143V70.2z M74.6,68.4h66.6V1.8H74.6V68.4z"/>
<g>
	<g>
		<line class="st5" x1="64.2" y1="16.1" x2="96.1" y2="16.1"/>
		<g>
			<polygon class="st0" points="87,27.3 85.1,25.3 95,16.1 85.1,6.9 87,4.9 99.1,16.1 			"/>
		</g>
	</g>
</g>
</svg>
