<?xml version="1.0" encoding="utf-8"?>
<!-- Generator: Adobe Illustrator 14.0.0, SVG Export Plug-In  -->
<!DOCTYPE svg PUBLIC "-//W3C//DTD SVG 1.1//EN" "http://www.w3.org/Graphics/SVG/1.1/DTD/svg11.dtd" [
	<!ENTITY ns_flows "http://ns.adobe.com/Flows/1.0/">
]>
<svg version="1.1"
	 xmlns="http://www.w3.org/2000/svg" xmlns:xlink="http://www.w3.org/1999/xlink" xmlns:a="http://ns.adobe.com/AdobeSVGViewerExtensions/3.0/"
	 x="0px" y="0px" width="100px" height="100px" viewBox="-5.137 -6.894 100 100" enable-background="new -5.137 -6.894 100 100"
	 xml:space="preserve">
<defs>
</defs>
<radialGradient id="SVGID_1_" cx="26.3506" cy="26.3491" r="24.3499" gradientUnits="userSpaceOnUse">
	<stop  offset="0" style="stop-color:#FCE90A"/>
	<stop  offset="1" style="stop-color:#F7B234"/>
</radialGradient>
<circle fill="url(#SVGID_1_)" stroke="#FFFFFF" stroke-width="4" cx="26.351" cy="26.351" r="24.351"/>
<linearGradient id="SVGID_2_" gradientUnits="userSpaceOnUse" x1="51.0391" y1="13.7422" x2="51.0391" y2="51.6327">
	<stop  offset="0" style="stop-color:#CCCCCC"/>
	<stop  offset="0.1845" style="stop-color:#C7C7C7"/>
	<stop  offset="0.3881" style="stop-color:#BABABA"/>
	<stop  offset="0.6009" style="stop-color:#A4A4A4"/>
	<stop  offset="0.8186" style="stop-color:#858585"/>
	<stop  offset="1" style="stop-color:#666666"/>
</linearGradient>
<path fill="url(#SVGID_2_)" stroke="#3B3B3B" stroke-width="4" stroke-linejoin="round" d="M23.9,53.034h56.896
	c0,0,7.383,0.477,6.906-7.617c-0.479-8.102-9.289-8.102-9.289-8.102s2.859-7.141-1.664-10.953c-4.527-3.809-9.766-1.668-9.766-1.668
	s-2.621-10.952-16.193-10.952c-20.264,0-20.244,18.573-20.244,18.573s-16.193-5.008-16.193,10.238
	C14.354,53.315,23.9,53.034,23.9,53.034z"/>
<path fill="#66B8DC" stroke="#FFFFFF" stroke-width="1.5" d="M77.043,54.397l-2.439-1.449l2.439-1.457
	c1.195-0.715,1.588-2.258,0.873-3.453c-0.717-1.191-2.268-1.582-3.465-0.867l-2.24,1.332l0.004-2.617
	c-0.004-1.391-1.129-2.52-2.523-2.516c-1.395,0-2.529,1.133-2.527,2.527l-0.004,2.613l-2.246-1.34
	c-1.199-0.715-2.75-0.324-3.465,0.867c-0.713,1.195-0.322,2.738,0.875,3.453l2.438,1.457l-2.438,1.449
	c-1.195,0.715-1.588,2.258-0.875,3.453c0.236,0.395,0.564,0.699,0.938,0.906c0.762,0.422,1.727,0.441,2.527-0.039l2.238-1.332
	l-0.004,2.621c0,1.391,1.125,2.52,2.523,2.516c0.457-0.004,0.887-0.125,1.258-0.34c0.758-0.438,1.266-1.254,1.266-2.188l0.004-2.617
	l2.25,1.34c0.805,0.48,1.766,0.461,2.527,0.039c0.375-0.207,0.701-0.512,0.939-0.906C78.631,56.655,78.234,55.112,77.043,54.397z"/>
<path fill="#66B8DC" stroke="#FFFFFF" stroke-width="1.5" d="M77.043,78.612l-2.439-1.453l2.439-1.453
	c1.195-0.715,1.588-2.258,0.873-3.453c-0.717-1.191-2.268-1.586-3.465-0.871l-2.24,1.336l0.004-2.617
	c-0.004-1.391-1.129-2.52-2.523-2.52c-1.395,0.004-2.529,1.133-2.527,2.527l-0.004,2.613l-2.246-1.34
	c-1.199-0.715-2.75-0.32-3.465,0.871c-0.713,1.195-0.322,2.738,0.875,3.453l2.438,1.453l-2.438,1.453
	c-1.195,0.711-1.588,2.258-0.875,3.449c0.236,0.395,0.564,0.703,0.938,0.91c0.762,0.422,1.727,0.441,2.527-0.039l2.238-1.332
	l-0.004,2.617c0,1.391,1.125,2.523,2.523,2.516c0.457,0,0.887-0.125,1.258-0.336c0.758-0.438,1.266-1.254,1.266-2.188l0.004-2.617
	l2.25,1.34c0.805,0.48,1.766,0.461,2.527,0.039c0.375-0.207,0.701-0.516,0.939-0.91C78.631,80.87,78.234,79.323,77.043,78.612z"/>
<path fill="#66B8DC" stroke="#FFFFFF" stroke-width="1.5" d="M58.07,69.905l-2.439-1.457l2.439-1.449
	c1.193-0.715,1.586-2.258,0.871-3.457c-0.715-1.191-2.268-1.582-3.463-0.867l-2.242,1.336l0.002-2.621
	c0-1.391-1.125-2.52-2.523-2.516c-1.391,0.004-2.525,1.133-2.523,2.527l-0.004,2.613l-2.25-1.34
	c-1.195-0.715-2.746-0.324-3.461,0.867c-0.719,1.199-0.324,2.742,0.873,3.457l2.439,1.449l-2.439,1.457
	c-1.195,0.707-1.592,2.254-0.873,3.449c0.236,0.395,0.566,0.699,0.938,0.906c0.764,0.426,1.723,0.441,2.527-0.035l2.238-1.332
	l-0.004,2.617c0,1.391,1.125,2.52,2.52,2.516c0.461,0,0.893-0.125,1.26-0.34c0.76-0.438,1.268-1.254,1.268-2.188l0.004-2.617
	l2.25,1.344c0.801,0.477,1.768,0.461,2.527,0.035c0.375-0.207,0.701-0.512,0.938-0.906C59.656,72.159,59.262,70.612,58.07,69.905z"
	/>
<path fill="#EC7C3D" stroke="#FFFFFF" stroke-width="1.5" d="M10.373,85.312c-0.986-0.984-0.986-2.578,0-3.566l0,0L35.15,56.968
	h-11.43c-1.018,0-1.938-0.617-2.328-1.555l0,0c-0.393-0.945-0.178-2.031,0.545-2.75l0,0l17.871-17.875
	c0.984-0.984,2.582-0.984,3.57,0l0,0c0.98,0.988,0.98,2.582,0,3.57l0,0l-13.57,13.566H41.24c1.021,0,1.941,0.613,2.332,1.555l0,0
	c0.389,0.945,0.174,2.027-0.549,2.75l0,0L13.941,85.312c-0.492,0.496-1.137,0.742-1.785,0.742l0,0
	C11.512,86.054,10.865,85.808,10.373,85.312L10.373,85.312z"/>
</svg>
