<?xml version="1.0" encoding="utf-8"?>
<!-- Generator: Adobe Illustrator 14.0.0, SVG Export Plug-In  -->
<!DOCTYPE svg PUBLIC "-//W3C//DTD SVG 1.1//EN" "http://www.w3.org/Graphics/SVG/1.1/DTD/svg11.dtd" [
	<!ENTITY ns_flows "http://ns.adobe.com/Flows/1.0/">
]>
<svg version="1.1"
	 xmlns="http://www.w3.org/2000/svg" xmlns:xlink="http://www.w3.org/1999/xlink" xmlns:a="http://ns.adobe.com/AdobeSVGViewerExtensions/3.0/"
	 x="0px" y="0px" width="100px" height="100px" viewBox="-2.361 -5.486 100 100" enable-background="new -2.361 -5.486 100 100"
	 xml:space="preserve">
<defs>
</defs>
<radialGradient id="SVGID_1_" cx="27.5684" cy="27.5674" r="25.5679" gradientUnits="userSpaceOnUse">
	<stop  offset="0" style="stop-color:#FCE90A"/>
	<stop  offset="1" style="stop-color:#F7B234"/>
</radialGradient>
<path fill="url(#SVGID_1_)" stroke="#FFFFFF" stroke-width="4" d="M53.137,27.566c0,14.121-11.445,25.568-25.566,25.568
	C13.453,53.135,2,41.688,2,27.566C2,13.447,13.453,2,27.57,2C41.691,2,53.137,13.447,53.137,27.566z"/>
<linearGradient id="SVGID_2_" gradientUnits="userSpaceOnUse" x1="55.9497" y1="14.3652" x2="55.9497" y2="52.9214">
	<stop  offset="0" style="stop-color:#CCCCCC"/>
	<stop  offset="0.1845" style="stop-color:#C7C7C7"/>
	<stop  offset="0.3881" style="stop-color:#BABABA"/>
	<stop  offset="0.6009" style="stop-color:#A4A4A4"/>
	<stop  offset="0.8186" style="stop-color:#858585"/>
	<stop  offset="1" style="stop-color:#666666"/>
</linearGradient>
<path fill="url(#SVGID_2_)" stroke="#3B3B3B" stroke-width="3.9338" stroke-linejoin="round" d="M28.332,54.348H86.23
	c0,0,7.51,0.484,7.025-7.752c-0.488-8.24-9.451-8.24-9.451-8.24s2.908-7.27-1.693-11.146c-4.605-3.879-9.938-1.697-9.938-1.697
	s-2.666-11.146-16.477-11.146c-20.619,0-20.6,18.904-20.6,18.904s-16.477-5.098-16.477,10.416
	C18.621,54.635,28.332,54.348,28.332,54.348z"/>
<path fill="#66B8DC" stroke="#FFFFFF" stroke-width="1.4752" d="M43.799,55.809l-2.48-1.48l2.48-1.475
	c1.215-0.73,1.613-2.301,0.887-3.52c-0.725-1.209-2.305-1.607-3.521-0.883l-2.281,1.359l0.002-2.666
	c0-1.414-1.148-2.563-2.568-2.559c-1.418,0.002-2.57,1.152-2.57,2.57v2.658l-2.291-1.363c-1.217-0.725-2.795-0.326-3.521,0.883
	c-0.73,1.219-0.33,2.789,0.887,3.52l2.482,1.475l-2.482,1.48c-1.213,0.725-1.617,2.297-0.887,3.51
	c0.242,0.404,0.576,0.711,0.953,0.926c0.775,0.43,1.754,0.445,2.572-0.039l2.275-1.359l-0.004,2.666
	c0,1.418,1.148,2.566,2.566,2.561c0.469,0,0.906-0.127,1.279-0.344c0.775-0.445,1.295-1.275,1.295-2.227V58.84l2.289,1.365
	c0.814,0.484,1.793,0.469,2.574,0.039c0.375-0.215,0.711-0.521,0.951-0.926C45.412,58.105,45.014,56.533,43.799,55.809z"/>
<path fill="#66B8DC" stroke="#FFFFFF" stroke-width="1.4752" d="M82.408,55.736l-2.482-1.477l2.482-1.479
	c1.217-0.729,1.617-2.301,0.891-3.516c-0.73-1.215-2.309-1.613-3.527-0.885l-2.281,1.357l0.004-2.662
	c0-1.418-1.145-2.563-2.566-2.563c-1.418,0.004-2.574,1.152-2.57,2.57l-0.004,2.66l-2.285-1.363
	c-1.219-0.729-2.797-0.33-3.527,0.885c-0.727,1.215-0.326,2.787,0.893,3.516l2.477,1.479l-2.477,1.477
	c-1.215,0.725-1.619,2.297-0.893,3.514c0.242,0.398,0.576,0.711,0.957,0.922c0.775,0.43,1.756,0.449,2.57-0.039l2.277-1.355
	l-0.004,2.664c-0.004,1.416,1.145,2.564,2.566,2.561c0.465-0.002,0.902-0.127,1.279-0.344c0.771-0.447,1.291-1.277,1.291-2.227
	l0.004-2.662l2.289,1.363c0.818,0.488,1.795,0.469,2.57,0.039c0.381-0.211,0.715-0.523,0.957-0.922
	C84.025,58.033,83.621,56.461,82.408,55.736z"/>
<path fill="#66B8DC" stroke="#FFFFFF" stroke-width="1.4752" d="M43.799,80.447l-2.48-1.48l2.48-1.477
	c1.215-0.727,1.613-2.299,0.887-3.516c-0.725-1.215-2.305-1.609-3.521-0.885l-2.281,1.359l0.002-2.666
	c0-1.416-1.148-2.561-2.568-2.561c-1.418,0.004-2.57,1.154-2.57,2.57v2.66l-2.291-1.363c-1.217-0.725-2.795-0.33-3.521,0.885
	c-0.73,1.217-0.33,2.789,0.887,3.516l2.482,1.477l-2.482,1.48c-1.213,0.723-1.617,2.293-0.887,3.51
	c0.242,0.4,0.576,0.713,0.953,0.924c0.775,0.43,1.754,0.449,2.572-0.039l2.275-1.355L33.73,86.15c0,1.416,1.148,2.564,2.566,2.561
	c0.469,0,0.906-0.127,1.279-0.344c0.775-0.443,1.295-1.277,1.295-2.227v-2.662l2.289,1.363c0.814,0.488,1.793,0.469,2.574,0.039
	c0.375-0.211,0.711-0.523,0.951-0.924C45.412,82.74,45.014,81.17,43.799,80.447z"/>
<path fill="#66B8DC" stroke="#FFFFFF" stroke-width="1.4752" d="M82.408,80.375l-2.482-1.479l2.482-1.48
	c1.217-0.725,1.617-2.297,0.891-3.514c-0.73-1.213-2.309-1.611-3.527-0.885l-2.281,1.359l0.004-2.666
	c0-1.412-1.145-2.561-2.566-2.561c-1.418,0.002-2.574,1.156-2.57,2.572l-0.004,2.658l-2.285-1.363
	c-1.219-0.727-2.797-0.328-3.527,0.885c-0.727,1.217-0.326,2.789,0.893,3.514l2.477,1.48l-2.477,1.479
	c-1.215,0.727-1.619,2.297-0.893,3.512c0.242,0.398,0.576,0.709,0.957,0.922c0.775,0.432,1.756,0.449,2.57-0.039l2.277-1.355
	l-0.004,2.666c-0.004,1.412,1.145,2.566,2.566,2.559c0.465,0,0.902-0.127,1.279-0.342c0.771-0.449,1.291-1.275,1.291-2.229
	l0.004-2.662l2.289,1.363c0.818,0.488,1.795,0.471,2.57,0.039c0.381-0.213,0.715-0.523,0.957-0.922
	C84.025,82.672,83.621,81.102,82.408,80.375z"/>
<path fill="#66B8DC" stroke="#FFFFFF" stroke-width="1.4752" d="M63.104,71.512l-2.482-1.477l2.482-1.477
	c1.213-0.73,1.613-2.303,0.887-3.52c-0.73-1.211-2.309-1.609-3.521-0.881l-2.283,1.357l0.004-2.664
	c-0.004-1.416-1.148-2.564-2.57-2.563c-1.416,0.004-2.57,1.154-2.57,2.572v2.66l-2.289-1.363c-1.217-0.729-2.797-0.33-3.521,0.881
	c-0.73,1.217-0.332,2.789,0.887,3.52l2.48,1.477l-2.48,1.477c-1.219,0.725-1.617,2.297-0.887,3.512
	c0.236,0.4,0.576,0.713,0.951,0.924c0.777,0.432,1.756,0.451,2.574-0.037l2.275-1.355l-0.004,2.664c0,1.414,1.145,2.564,2.564,2.561
	c0.465-0.004,0.908-0.129,1.279-0.346c0.773-0.445,1.291-1.275,1.291-2.225l0.004-2.662l2.291,1.363
	c0.818,0.488,1.797,0.469,2.572,0.037c0.377-0.211,0.711-0.523,0.953-0.924C64.717,73.809,64.316,72.236,63.104,71.512z"/>
</svg>
