<?xml version="1.0" encoding="utf-8"?>
<!-- Generator: Adobe Illustrator 14.0.0, SVG Export Plug-In  -->
<!DOCTYPE svg PUBLIC "-//W3C//DTD SVG 1.1//EN" "http://www.w3.org/Graphics/SVG/1.1/DTD/svg11.dtd" [
	<!ENTITY ns_flows "http://ns.adobe.com/Flows/1.0/">
]>
<svg version="1.1"
	 xmlns="http://www.w3.org/2000/svg" xmlns:xlink="http://www.w3.org/1999/xlink" xmlns:a="http://ns.adobe.com/AdobeSVGViewerExtensions/3.0/"
	 x="0px" y="0px" width="100px" height="100px" viewBox="-9.869 -16.811 100 100" enable-background="new -9.869 -16.811 100 100"
	 xml:space="preserve">
<defs>
</defs>
<linearGradient id="SVGID_1_" gradientUnits="userSpaceOnUse" x1="41.1841" y1="2" x2="41.1841" y2="41.5882">
	<stop  offset="0" style="stop-color:#CCCCCC"/>
	<stop  offset="0.1845" style="stop-color:#C7C7C7"/>
	<stop  offset="0.3881" style="stop-color:#BABABA"/>
	<stop  offset="0.6009" style="stop-color:#A4A4A4"/>
	<stop  offset="0.8186" style="stop-color:#858585"/>
	<stop  offset="1" style="stop-color:#666666"/>
</linearGradient>
<path fill="url(#SVGID_1_)" stroke="#3B3B3B" stroke-width="4" stroke-linejoin="round" d="M12.829,43.053h59.445
	c0,0,7.711,0.498,7.215-7.963c-0.5-8.459-9.703-8.459-9.703-8.459s2.984-7.463-1.742-11.445c-4.73-3.98-10.203-1.74-10.203-1.74
	S55.103,2,40.923,2C19.751,2,19.774,21.406,19.774,21.406S2.856,16.174,2.856,32.104C2.856,43.346,12.829,43.053,12.829,43.053z"/>
<path fill="#EC7C3D" stroke="#FFFFFF" stroke-width="1.5" d="M1.521,75.328c-1.027-1.025-1.027-2.691,0-3.719l0,0l25.832-25.83
	H15.435c-1.059,0-2.02-0.643-2.426-1.623l0,0c-0.41-0.984-0.188-2.115,0.566-2.867l0,0l18.633-18.633
	c1.027-1.025,2.691-1.025,3.723,0l0,0c1.023,1.029,1.023,2.691,0,3.721l0,0L21.782,40.52H33.7c1.066,0,2.023,0.641,2.43,1.623l0,0
	c0.406,0.982,0.184,2.111-0.57,2.867l0,0L5.239,75.328c-0.512,0.516-1.184,0.773-1.859,0.773l0,0
	C2.708,76.102,2.032,75.844,1.521,75.328L1.521,75.328z"/>
<polygon fill="#FFFFFF" stroke="#37A8DB" stroke-width="1.5" stroke-linecap="round" stroke-linejoin="round" points="
	37.212,53.336 43.22,42.926 49.231,53.336 "/>
<polygon fill="#FFFFFF" stroke="#37A8DB" stroke-width="1.5" stroke-linecap="round" stroke-linejoin="round" points="
	50.853,66.977 56.86,56.566 62.872,66.977 "/>
<polygon fill="#FFFFFF" stroke="#37A8DB" stroke-width="1.5" stroke-linecap="round" stroke-linejoin="round" points="
	59.837,49.336 65.845,38.926 71.856,49.336 "/>
</svg>
