<?xml version="1.0" encoding="utf-8"?>
<!-- Generator: Adobe Illustrator 14.0.0, SVG Export Plug-In  -->
<!DOCTYPE svg PUBLIC "-//W3C//DTD SVG 1.1//EN" "http://www.w3.org/Graphics/SVG/1.1/DTD/svg11.dtd" [
	<!ENTITY ns_flows "http://ns.adobe.com/Flows/1.0/">
]>
<svg version="1.1"
	 xmlns="http://www.w3.org/2000/svg" xmlns:xlink="http://www.w3.org/1999/xlink" xmlns:a="http://ns.adobe.com/AdobeSVGViewerExtensions/3.0/"
	 x="0px" y="0px" width="100px" height="100px" viewBox="-10.043 -17.501 100 100" enable-background="new -10.043 -17.501 100 100"
	 xml:space="preserve">
<defs>
</defs>
<linearGradient id="SVGID_2_" gradientUnits="userSpaceOnUse" x1="39.957" y1="2" x2="39.957" y2="41.204">
	<stop  offset="0" style="stop-color:#CCCCCC"/>
	<stop  offset="0.1845" style="stop-color:#C7C7C7"/>
	<stop  offset="0.3881" style="stop-color:#BABABA"/>
	<stop  offset="0.6009" style="stop-color:#A4A4A4"/>
	<stop  offset="0.8186" style="stop-color:#858585"/>
	<stop  offset="1" style="stop-color:#666666"/>
</linearGradient>
<path fill="url(#SVGID_2_)" stroke="#3B3B3B" stroke-width="4" stroke-linejoin="round" d="M11.875,42.654h58.871
	c0,0,7.637,0.492,7.145-7.883c-0.496-8.379-9.609-8.379-9.609-8.379s2.957-7.391-1.723-11.334
	c-4.684-3.943-10.105-1.725-10.105-1.725S53.742,2,39.699,2C18.734,2,18.754,21.221,18.754,21.221S2,16.037,2,31.813
	C2,42.945,11.875,42.654,11.875,42.654z"/>
<path fill="#66B8DC" stroke="#FFFFFF" stroke-width="1.5" d="M27.602,44.141l-2.523-1.506l2.523-1.5
	c1.234-0.742,1.641-2.34,0.902-3.578c-0.738-1.23-2.344-1.635-3.582-0.898l-2.32,1.383l0.004-2.711c0-1.438-1.168-2.605-2.613-2.602
	c-1.441,0.002-2.613,1.172-2.613,2.613v2.703l-2.328-1.387c-1.238-0.736-2.844-0.332-3.582,0.898
	c-0.742,1.238-0.336,2.836,0.902,3.578l2.523,1.5l-2.523,1.506c-1.234,0.736-1.645,2.334-0.902,3.568
	c0.246,0.41,0.586,0.723,0.969,0.941c0.789,0.438,1.785,0.453,2.617-0.041l2.313-1.381l-0.004,2.711
	c0,1.441,1.168,2.609,2.609,2.604c0.477,0,0.922-0.129,1.301-0.35c0.789-0.453,1.316-1.297,1.316-2.264v-2.707l2.328,1.387
	c0.828,0.494,1.824,0.479,2.617,0.041c0.383-0.219,0.723-0.531,0.969-0.941C29.242,46.475,28.836,44.877,27.602,44.141z"/>
<path fill="#66B8DC" stroke="#FFFFFF" stroke-width="1.5" d="M66.859,44.066l-2.523-1.502l2.523-1.504
	c1.238-0.74,1.645-2.338,0.906-3.574c-0.742-1.234-2.348-1.641-3.586-0.898l-2.32,1.379l0.004-2.707
	c0-1.441-1.164-2.605-2.609-2.605c-1.441,0.004-2.617,1.172-2.613,2.613l-0.004,2.705l-2.324-1.385
	c-1.238-0.742-2.844-0.336-3.586,0.898c-0.738,1.236-0.332,2.834,0.906,3.574l2.52,1.504l-2.52,1.502
	c-1.234,0.736-1.645,2.336-0.906,3.572c0.246,0.406,0.586,0.723,0.973,0.938c0.789,0.438,1.785,0.457,2.613-0.039l2.316-1.379
	l-0.004,2.709c-0.004,1.439,1.164,2.607,2.609,2.604c0.473-0.002,0.918-0.129,1.301-0.35c0.785-0.455,1.313-1.299,1.313-2.264
	l0.004-2.707l2.328,1.387c0.832,0.496,1.824,0.477,2.613,0.039c0.387-0.215,0.727-0.531,0.973-0.938
	C68.504,46.402,68.094,44.803,66.859,44.066z"/>
<path fill="#66B8DC" stroke="#FFFFFF" stroke-width="1.5" d="M27.602,69.193l-2.523-1.506l2.523-1.502
	c1.234-0.738,1.641-2.336,0.902-3.574c-0.738-1.234-2.344-1.637-3.582-0.9l-2.32,1.383l0.004-2.711c0-1.439-1.168-2.604-2.613-2.604
	c-1.441,0.004-2.613,1.174-2.613,2.613v2.705l-2.328-1.387c-1.238-0.736-2.844-0.334-3.582,0.9
	c-0.742,1.238-0.336,2.836,0.902,3.574l2.523,1.502l-2.523,1.506c-1.234,0.734-1.645,2.332-0.902,3.568
	c0.246,0.408,0.586,0.725,0.969,0.939c0.789,0.438,1.785,0.457,2.617-0.039l2.313-1.379l-0.004,2.709
	c0,1.439,1.168,2.607,2.609,2.604c0.477,0,0.922-0.129,1.301-0.35c0.789-0.451,1.316-1.299,1.316-2.264v-2.707l2.328,1.387
	c0.828,0.496,1.824,0.477,2.617,0.039c0.383-0.215,0.723-0.531,0.969-0.939C29.242,71.525,28.836,69.928,27.602,69.193z"/>
<path fill="#66B8DC" stroke="#FFFFFF" stroke-width="1.5" d="M66.859,69.119l-2.523-1.504l2.523-1.504
	c1.238-0.738,1.645-2.336,0.906-3.574c-0.742-1.232-2.348-1.637-3.586-0.898l-2.32,1.383l0.004-2.711
	c0-1.438-1.164-2.605-2.609-2.605c-1.441,0.004-2.617,1.176-2.613,2.617l-0.004,2.703l-2.324-1.387
	c-1.238-0.738-2.844-0.334-3.586,0.898c-0.738,1.238-0.332,2.836,0.906,3.574l2.52,1.504l-2.52,1.504
	c-1.234,0.738-1.645,2.336-0.906,3.57c0.246,0.406,0.586,0.723,0.973,0.938c0.789,0.439,1.785,0.457,2.613-0.039l2.316-1.379
	l-0.004,2.711c-0.004,1.438,1.164,2.609,2.609,2.602c0.473,0,0.918-0.129,1.301-0.348c0.785-0.455,1.313-1.297,1.313-2.266
	l0.004-2.707l2.328,1.387c0.832,0.496,1.824,0.479,2.613,0.039c0.387-0.215,0.727-0.531,0.973-0.938
	C68.504,71.455,68.094,69.857,66.859,69.119z"/>
<path fill="#66B8DC" stroke="#FFFFFF" stroke-width="1.5" d="M47.23,60.107l-2.523-1.502l2.523-1.502
	c1.234-0.742,1.641-2.34,0.902-3.578c-0.742-1.23-2.348-1.637-3.582-0.896l-2.32,1.381l0.004-2.709
	c-0.004-1.439-1.168-2.607-2.613-2.605c-1.441,0.004-2.613,1.174-2.613,2.615v2.705l-2.328-1.387
	c-1.238-0.74-2.844-0.334-3.582,0.896c-0.742,1.238-0.336,2.836,0.902,3.578l2.523,1.502L32,60.107
	c-1.238,0.736-1.645,2.336-0.902,3.57c0.242,0.408,0.586,0.725,0.969,0.939c0.789,0.439,1.785,0.459,2.617-0.037l2.313-1.379
	l-0.004,2.709c0,1.438,1.164,2.607,2.609,2.604c0.473-0.004,0.922-0.131,1.301-0.352c0.785-0.453,1.313-1.297,1.313-2.262
	l0.004-2.707l2.328,1.387c0.832,0.496,1.828,0.477,2.617,0.037c0.383-0.215,0.723-0.531,0.969-0.939
	C48.871,62.443,48.465,60.844,47.23,60.107z"/>
</svg>
