<?xml version="1.0" encoding="utf-8"?>
<!-- Generator: Adobe Illustrator 14.0.0, SVG Export Plug-In  -->
<!DOCTYPE svg PUBLIC "-//W3C//DTD SVG 1.1//EN" "http://www.w3.org/Graphics/SVG/1.1/DTD/svg11.dtd" [
	<!ENTITY ns_flows "http://ns.adobe.com/Flows/1.0/">
]>
<svg version="1.1"
	 xmlns="http://www.w3.org/2000/svg" xmlns:xlink="http://www.w3.org/1999/xlink" xmlns:a="http://ns.adobe.com/AdobeSVGViewerExtensions/3.0/"
	 x="0px" y="0px" width="100px" height="100px" viewBox="-3.702 -5.803 100 100" enable-background="new -3.702 -5.803 100 100"
	 xml:space="preserve">
<defs>
</defs>
<radialGradient id="SVGID_2_" cx="26.9375" cy="26.9375" r="24.9375" gradientUnits="userSpaceOnUse">
	<stop  offset="0" style="stop-color:#FCE90A"/>
	<stop  offset="1" style="stop-color:#F7B234"/>
</radialGradient>
<path fill="url(#SVGID_2_)" stroke="#FFFFFF" stroke-width="4" d="M51.875,26.938c0,13.773-11.164,24.938-24.938,24.938
	C13.168,51.875,2,40.711,2,26.938S13.168,2,26.938,2C40.711,2,51.875,13.164,51.875,26.938z"/>
<linearGradient id="SVGID_3_" gradientUnits="userSpaceOnUse" x1="53.0269" y1="14.0234" x2="53.0269" y2="52.8301">
	<stop  offset="0" style="stop-color:#CCCCCC"/>
	<stop  offset="0.1845" style="stop-color:#C7C7C7"/>
	<stop  offset="0.3881" style="stop-color:#BABABA"/>
	<stop  offset="0.6009" style="stop-color:#A4A4A4"/>
	<stop  offset="0.8186" style="stop-color:#858585"/>
	<stop  offset="1" style="stop-color:#666666"/>
</linearGradient>
<path fill="url(#SVGID_3_)" stroke="#3B3B3B" stroke-width="4" stroke-linejoin="round" d="M25.234,54.266h58.27
	c0,0,7.559,0.488,7.07-7.805s-9.512-8.293-9.512-8.293s2.928-7.316-1.705-11.219c-4.635-3.902-10-1.707-10-1.707
	s-2.684-11.219-16.584-11.219c-20.754,0-20.73,19.023-20.73,19.023s-16.586-5.129-16.586,10.484
	C15.457,54.551,25.234,54.266,25.234,54.266z"/>
<path fill="#37A8DB" stroke="#FFFFFF" stroke-width="1.5" d="M41.809,60.641c-0.809,1.348-2.555,1.785-3.902,0.977l0,0
	c-1.346-0.809-1.785-2.555-0.977-3.902l4.859-8.109c0.809-1.348,2.555-1.785,3.902-0.977l0,0c1.348,0.805,1.785,2.555,0.977,3.902
	L41.809,60.641z"/>
<path fill="#37A8DB" stroke="#FFFFFF" stroke-width="1.5" d="M26.801,61.707c-0.809,1.348-2.555,1.785-3.902,0.977l0,0
	c-1.346-0.809-1.785-2.555-0.977-3.902l4.859-8.109c0.809-1.348,2.557-1.785,3.904-0.977l0,0c1.348,0.809,1.783,2.555,0.977,3.902
	L26.801,61.707z"/>
<path fill="#37A8DB" stroke="#FFFFFF" stroke-width="1.5" d="M30.281,75.154c-0.809,1.348-2.555,1.785-3.902,0.977l0,0
	c-1.348-0.809-1.785-2.555-0.977-3.902l4.859-8.107c0.809-1.348,2.555-1.785,3.902-0.977l0,0c1.348,0.809,1.785,2.555,0.977,3.902
	L30.281,75.154z"/>
<path fill="#66B8DC" stroke="#FFFFFF" stroke-width="1.5" d="M79.658,55.664l-2.498-1.488l2.498-1.488
	c1.225-0.734,1.627-2.313,0.895-3.539c-0.732-1.223-2.322-1.621-3.549-0.891l-2.293,1.367l0.002-2.68
	c-0.002-1.426-1.154-2.578-2.584-2.578c-1.426,0.004-2.59,1.16-2.586,2.586l-0.006,2.676l-2.301-1.371
	c-1.225-0.73-2.814-0.332-3.545,0.891c-0.732,1.227-0.332,2.805,0.895,3.539l2.494,1.488l-2.494,1.488
	c-1.223,0.727-1.627,2.313-0.895,3.531c0.24,0.402,0.576,0.719,0.959,0.93c0.779,0.434,1.768,0.453,2.588-0.039l2.293-1.363
	l-0.004,2.68c-0.002,1.426,1.152,2.582,2.582,2.578c0.469,0,0.91-0.129,1.289-0.344c0.775-0.453,1.297-1.285,1.297-2.242l0.004-2.68
	l2.305,1.371c0.824,0.492,1.809,0.473,2.586,0.039c0.383-0.211,0.719-0.527,0.963-0.93C81.285,57.977,80.881,56.391,79.658,55.664z"
	/>
<path fill="#66B8DC" stroke="#FFFFFF" stroke-width="1.5" d="M79.658,80.459l-2.498-1.488l2.498-1.488
	c1.225-0.734,1.627-2.313,0.895-3.539c-0.732-1.219-2.322-1.621-3.549-0.891l-2.293,1.367l0.002-2.68
	c-0.002-1.426-1.154-2.582-2.584-2.578c-1.426,0.004-2.59,1.16-2.586,2.586l-0.006,2.676l-2.301-1.371
	c-1.225-0.73-2.814-0.328-3.545,0.891c-0.732,1.227-0.332,2.805,0.895,3.539l2.494,1.488l-2.494,1.488
	c-1.223,0.73-1.627,2.309-0.895,3.531c0.24,0.402,0.576,0.719,0.959,0.93c0.779,0.434,1.768,0.453,2.588-0.039l2.293-1.363
	l-0.004,2.68c-0.002,1.426,1.152,2.582,2.582,2.578c0.469,0,0.91-0.129,1.289-0.348c0.775-0.449,1.297-1.281,1.297-2.238l0.004-2.68
	l2.305,1.371c0.824,0.492,1.809,0.473,2.586,0.039c0.383-0.211,0.719-0.527,0.963-0.93C81.285,82.768,80.881,81.189,79.658,80.459z"
	/>
<path fill="#66B8DC" stroke="#FFFFFF" stroke-width="1.5" d="M60.229,71.537l-2.498-1.488l2.498-1.482
	c1.223-0.734,1.623-2.316,0.893-3.539c-0.734-1.223-2.322-1.621-3.547-0.891l-2.297,1.367l0.004-2.68
	c0-1.426-1.152-2.582-2.584-2.578c-1.428,0-2.588,1.16-2.586,2.586l-0.004,2.68l-2.303-1.375c-1.227-0.73-2.813-0.332-3.547,0.891
	s-0.33,2.805,0.895,3.539l2.498,1.482l-2.498,1.488c-1.223,0.73-1.629,2.313-0.895,3.535c0.242,0.402,0.58,0.715,0.963,0.93
	c0.779,0.434,1.764,0.453,2.588-0.039l2.293-1.363l-0.006,2.684c0,1.422,1.152,2.578,2.58,2.574c0.471,0,0.914-0.129,1.289-0.348
	c0.779-0.445,1.301-1.281,1.301-2.238l0.004-2.68l2.305,1.371c0.82,0.492,1.809,0.473,2.586,0.039
	c0.383-0.215,0.719-0.527,0.961-0.93C61.852,73.85,61.449,72.268,60.229,71.537z"/>
</svg>
