<?xml version="1.0" encoding="utf-8"?>
<!-- Generator: Adobe Illustrator 14.0.0, SVG Export Plug-In  -->
<!DOCTYPE svg PUBLIC "-//W3C//DTD SVG 1.1//EN" "http://www.w3.org/Graphics/SVG/1.1/DTD/svg11.dtd" [
	<!ENTITY ns_flows "http://ns.adobe.com/Flows/1.0/">
]>
<svg version="1.1"
	 xmlns="http://www.w3.org/2000/svg" xmlns:xlink="http://www.w3.org/1999/xlink" xmlns:a="http://ns.adobe.com/AdobeSVGViewerExtensions/3.0/"
	 x="0px" y="0px" width="100px" height="100px" viewBox="-5.684 -1.009 100 100" enable-background="new -5.684 -1.009 100 100"
	 xml:space="preserve">
<defs>
</defs>
<radialGradient id="SVGID_2_" cx="15.729" cy="18.9702" r="27.9381" gradientUnits="userSpaceOnUse">
	<stop  offset="0" style="stop-color:#F2F2F2"/>
	<stop  offset="1" style="stop-color:#666666"/>
</radialGradient>
<path fill="url(#SVGID_2_)" stroke="#FFFFFF" stroke-width="4" d="M30.397,21.292c-0.668-6.211,1.246-12.102,4.879-16.611
	c-3.875-2.078-8.387-3.055-13.09-2.551C9.772,3.466,0.796,14.617,2.132,27.031c1.336,12.41,12.48,21.391,24.895,20.055
	c6.203-0.668,11.551-3.785,15.18-8.285C35.851,35.386,31.229,29.003,30.397,21.292z"/>
<linearGradient id="SVGID_3_" gradientUnits="userSpaceOnUse" x1="49.063" y1="18.9766" x2="49.063" y2="57.7832">
	<stop  offset="0" style="stop-color:#CCCCCC"/>
	<stop  offset="0.1845" style="stop-color:#C7C7C7"/>
	<stop  offset="0.3881" style="stop-color:#BABABA"/>
	<stop  offset="0.6009" style="stop-color:#A4A4A4"/>
	<stop  offset="0.8186" style="stop-color:#858585"/>
	<stop  offset="1" style="stop-color:#666666"/>
</linearGradient>
<path fill="url(#SVGID_3_)" stroke="#3B3B3B" stroke-width="4" stroke-linejoin="round" d="M21.271,59.219h58.27
	c0,0,7.559,0.488,7.07-7.805s-9.512-8.293-9.512-8.293s2.928-7.316-1.705-11.219c-4.635-3.902-10-1.707-10-1.707
	S62.71,18.977,48.81,18.977C28.056,18.977,28.079,38,28.079,38s-16.586-5.129-16.586,10.484
	C11.493,59.504,21.271,59.219,21.271,59.219z"/>
<path fill="#37A8DB" stroke="#FFFFFF" stroke-width="1.5" d="M37.845,65.594c-0.809,1.348-2.555,1.785-3.902,0.977l0,0
	c-1.346-0.809-1.785-2.555-0.977-3.902l4.859-8.109c0.809-1.348,2.555-1.785,3.902-0.977l0,0c1.348,0.805,1.785,2.555,0.977,3.902
	L37.845,65.594z"/>
<path fill="#37A8DB" stroke="#FFFFFF" stroke-width="1.5" d="M22.837,66.66c-0.809,1.348-2.555,1.785-3.902,0.977l0,0
	c-1.346-0.809-1.785-2.555-0.977-3.902l4.859-8.109c0.809-1.348,2.557-1.785,3.904-0.977l0,0c1.348,0.809,1.783,2.555,0.977,3.902
	L22.837,66.66z"/>
<path fill="#37A8DB" stroke="#FFFFFF" stroke-width="1.5" d="M26.317,80.109c-0.809,1.348-2.555,1.785-3.902,0.977l0,0
	c-1.348-0.809-1.785-2.555-0.977-3.902l4.859-8.109c0.809-1.348,2.555-1.785,3.902-0.977l0,0c1.348,0.809,1.785,2.555,0.977,3.902
	L26.317,80.109z"/>
<path fill="#66B8DC" stroke="#FFFFFF" stroke-width="1.5" d="M75.694,60.617l-2.498-1.488l2.498-1.488
	c1.225-0.734,1.627-2.313,0.895-3.539c-0.732-1.223-2.322-1.621-3.549-0.891l-2.293,1.367l0.002-2.68
	c-0.002-1.426-1.154-2.578-2.584-2.578c-1.426,0.004-2.59,1.16-2.586,2.586l-0.006,2.676l-2.301-1.371
	c-1.225-0.73-2.814-0.332-3.545,0.891c-0.732,1.227-0.332,2.805,0.895,3.539l2.494,1.488l-2.494,1.488
	c-1.223,0.727-1.627,2.313-0.895,3.531c0.24,0.402,0.576,0.719,0.959,0.93c0.779,0.434,1.768,0.453,2.588-0.039l2.293-1.363
	l-0.004,2.68c-0.002,1.426,1.152,2.582,2.582,2.578c0.469,0,0.91-0.129,1.289-0.344c0.775-0.453,1.297-1.285,1.297-2.242l0.004-2.68
	l2.305,1.371c0.824,0.492,1.809,0.473,2.586,0.039c0.383-0.211,0.719-0.527,0.963-0.93C77.321,62.93,76.917,61.344,75.694,60.617z"
	/>
<path fill="#66B8DC" stroke="#FFFFFF" stroke-width="1.5" d="M75.694,85.414l-2.498-1.488l2.498-1.488
	c1.225-0.734,1.627-2.313,0.895-3.539c-0.732-1.219-2.322-1.621-3.549-0.891l-2.293,1.367l0.002-2.68
	c-0.002-1.426-1.154-2.582-2.584-2.578c-1.426,0.004-2.59,1.16-2.586,2.586l-0.006,2.676l-2.301-1.371
	c-1.225-0.73-2.814-0.328-3.545,0.891c-0.732,1.227-0.332,2.805,0.895,3.539l2.494,1.488l-2.494,1.488
	c-1.223,0.73-1.627,2.309-0.895,3.531c0.24,0.402,0.576,0.719,0.959,0.93c0.779,0.434,1.768,0.453,2.588-0.039l2.293-1.363
	l-0.004,2.68c-0.002,1.426,1.152,2.582,2.582,2.578c0.469,0,0.91-0.129,1.289-0.348c0.775-0.449,1.297-1.281,1.297-2.238l0.004-2.68
	l2.305,1.371c0.824,0.492,1.809,0.473,2.586,0.039c0.383-0.211,0.719-0.527,0.963-0.93C77.321,87.723,76.917,86.145,75.694,85.414z"
	/>
<path fill="#66B8DC" stroke="#FFFFFF" stroke-width="1.5" d="M56.265,76.492l-2.498-1.488l2.498-1.484
	c1.223-0.734,1.623-2.316,0.893-3.539c-0.734-1.223-2.322-1.621-3.547-0.891l-2.297,1.367l0.004-2.68
	c0-1.426-1.152-2.582-2.584-2.578c-1.428,0-2.588,1.16-2.586,2.586l-0.004,2.68l-2.303-1.375c-1.227-0.73-2.813-0.332-3.547,0.891
	s-0.33,2.805,0.895,3.539l2.498,1.484l-2.498,1.488c-1.223,0.73-1.629,2.313-0.895,3.535c0.242,0.402,0.58,0.715,0.963,0.93
	c0.779,0.434,1.764,0.453,2.588-0.039l2.293-1.363l-0.006,2.684c0,1.422,1.152,2.578,2.58,2.574c0.471,0,0.914-0.129,1.289-0.348
	c0.779-0.445,1.301-1.281,1.301-2.238l0.004-2.68l2.305,1.371c0.82,0.492,1.809,0.473,2.586,0.039
	c0.383-0.215,0.719-0.527,0.961-0.93C57.888,78.805,57.485,77.223,56.265,76.492z"/>
</svg>
