<?xml version="1.0" encoding="utf-8"?>
<!-- Generator: Adobe Illustrator 14.0.0, SVG Export Plug-In  -->
<!DOCTYPE svg PUBLIC "-//W3C//DTD SVG 1.1//EN" "http://www.w3.org/Graphics/SVG/1.1/DTD/svg11.dtd" [
	<!ENTITY ns_flows "http://ns.adobe.com/Flows/1.0/">
]>
<svg version="1.1"
	 xmlns="http://www.w3.org/2000/svg" xmlns:xlink="http://www.w3.org/1999/xlink" xmlns:a="http://ns.adobe.com/AdobeSVGViewerExtensions/3.0/"
	 x="0px" y="0px" width="100px" height="100px" viewBox="-5.077 -2.193 100 100" enable-background="new -5.077 -2.193 100 100"
	 xml:space="preserve">
<defs>
</defs>
<radialGradient id="SVGID_1_" cx="15.729" cy="18.9707" r="27.9379" gradientUnits="userSpaceOnUse">
	<stop  offset="0" style="stop-color:#F2F2F2"/>
	<stop  offset="1" style="stop-color:#666666"/>
</radialGradient>
<path fill="url(#SVGID_1_)" stroke="#FFFFFF" stroke-width="4" d="M30.399,21.291c-0.67-6.211,1.244-12.102,4.877-16.609
	C31.403,2.603,26.89,1.626,22.188,2.13C9.774,3.466,0.796,14.615,2.132,27.029c1.336,12.412,12.48,21.393,24.895,20.057
	c6.205-0.668,11.551-3.785,15.18-8.285C35.851,35.386,31.229,29.001,30.399,21.291z"/>
<linearGradient id="SVGID_2_" gradientUnits="userSpaceOnUse" x1="50.3579" y1="17.7671" x2="50.3579" y2="56.489">
	<stop  offset="0" style="stop-color:#CCCCCC"/>
	<stop  offset="0.1845" style="stop-color:#C7C7C7"/>
	<stop  offset="0.3881" style="stop-color:#BABABA"/>
	<stop  offset="0.6009" style="stop-color:#A4A4A4"/>
	<stop  offset="0.8186" style="stop-color:#858585"/>
	<stop  offset="1" style="stop-color:#666666"/>
</linearGradient>
<path fill="url(#SVGID_2_)" stroke="#3B3B3B" stroke-width="4" stroke-linejoin="round" d="M22.624,57.921h58.141
	c0,0,7.543,0.488,7.059-7.789c-0.488-8.273-9.492-8.273-9.492-8.273s2.922-7.301-1.703-11.195c-4.625-3.893-9.977-1.705-9.977-1.705
	s-2.68-11.191-16.547-11.191c-20.707,0-20.688,18.982-20.688,18.982S12.87,31.632,12.87,47.21
	C12.87,58.207,22.624,57.921,22.624,57.921z"/>
<path fill="#66B8DC" stroke="#FFFFFF" stroke-width="1.5" d="M44.015,59.386l-2.488-1.484l2.488-1.484
	c1.223-0.73,1.621-2.309,0.891-3.531c-0.73-1.215-2.313-1.617-3.535-0.887l-2.293,1.363l0.004-2.676c0-1.422-1.152-2.574-2.578-2.57
	c-1.422,0-2.586,1.156-2.582,2.578l-0.004,2.672L31.624,52c-1.227-0.73-2.813-0.328-3.539,0.887
	c-0.734,1.223-0.336,2.801,0.891,3.531l2.488,1.484l-2.488,1.484c-1.223,0.727-1.625,2.309-0.891,3.527
	c0.238,0.402,0.574,0.715,0.953,0.926c0.781,0.434,1.766,0.453,2.586-0.039l2.285-1.363l-0.004,2.68c0,1.422,1.152,2.574,2.578,2.57
	c0.469,0,0.91-0.125,1.285-0.344c0.777-0.449,1.297-1.285,1.297-2.238l0.004-2.672l2.297,1.367c0.82,0.492,1.805,0.473,2.582,0.039
	c0.383-0.211,0.719-0.523,0.957-0.926C45.636,61.695,45.237,60.113,44.015,59.386z"/>
<path fill="#66B8DC" stroke="#FFFFFF" stroke-width="1.5" d="M74.616,58.968l-2.488-1.484L74.616,56
	c1.223-0.73,1.625-2.309,0.895-3.531c-0.734-1.219-2.316-1.617-3.543-0.887l-2.289,1.367l0.004-2.68c0-1.422-1.152-2.57-2.578-2.57
	c-1.426,0.004-2.582,1.156-2.582,2.582l-0.004,2.668l-2.297-1.367c-1.223-0.73-2.809-0.332-3.539,0.887
	c-0.73,1.223-0.328,2.801,0.895,3.531l2.488,1.484l-2.488,1.484c-1.223,0.73-1.625,2.309-0.895,3.527
	c0.242,0.402,0.578,0.715,0.961,0.926c0.777,0.434,1.762,0.453,2.578-0.039l2.293-1.359l-0.004,2.676
	c-0.004,1.422,1.148,2.574,2.574,2.57c0.469,0,0.91-0.125,1.285-0.344c0.773-0.449,1.297-1.281,1.297-2.238l0.004-2.672l2.297,1.367
	c0.82,0.492,1.805,0.473,2.582,0.039c0.383-0.211,0.719-0.523,0.961-0.926C76.241,61.277,75.839,59.699,74.616,58.968z"/>
<path fill="#66B8DC" stroke="#FFFFFF" stroke-width="1.5" d="M54.288,77.765l-2.496-1.488l2.496-1.484
	c1.219-0.73,1.617-2.309,0.887-3.531c-0.73-1.215-2.313-1.613-3.535-0.887l-2.293,1.367l0.004-2.68c0-1.422-1.152-2.574-2.578-2.57
	c-1.426,0-2.582,1.16-2.582,2.582l-0.004,2.672l-2.297-1.371c-1.223-0.727-2.809-0.328-3.539,0.887
	c-0.73,1.223-0.332,2.801,0.891,3.531l2.492,1.484l-2.492,1.488c-1.219,0.723-1.621,2.305-0.891,3.523
	c0.242,0.402,0.578,0.715,0.961,0.926c0.777,0.438,1.758,0.453,2.582-0.039l2.285-1.359l-0.004,2.676
	c0,1.422,1.148,2.578,2.574,2.57c0.473,0,0.914-0.129,1.289-0.344c0.773-0.449,1.297-1.281,1.297-2.238v-2.672l2.301,1.367
	c0.82,0.492,1.805,0.477,2.582,0.039c0.383-0.211,0.715-0.523,0.957-0.926C55.905,80.07,55.507,78.488,54.288,77.765z"/>
</svg>
