<?xml version="1.0" encoding="utf-8"?>
<!-- Generator: Adobe Illustrator 14.0.0, SVG Export Plug-In  -->
<!DOCTYPE svg PUBLIC "-//W3C//DTD SVG 1.1//EN" "http://www.w3.org/Graphics/SVG/1.1/DTD/svg11.dtd" [
	<!ENTITY ns_flows "http://ns.adobe.com/Flows/1.0/">
]>
<svg version="1.1"
	 xmlns="http://www.w3.org/2000/svg" xmlns:xlink="http://www.w3.org/1999/xlink" xmlns:a="http://ns.adobe.com/AdobeSVGViewerExtensions/3.0/"
	 x="0px" y="0px" width="100px" height="100px" viewBox="-3.366 -3.887 100 100" enable-background="new -3.366 -3.887 100 100"
	 xml:space="preserve">
<defs>
</defs>
<radialGradient id="SVGID_2_" cx="27.998" cy="27.998" r="25.998" gradientUnits="userSpaceOnUse">
	<stop  offset="0" style="stop-color:#FCE90A"/>
	<stop  offset="1" style="stop-color:#F7B234"/>
</radialGradient>
<path fill="url(#SVGID_2_)" stroke="#FFFFFF" stroke-width="4" d="M53.996,27.996c0,14.359-11.637,26-25.996,26
	c-14.355,0-26-11.641-26-26C2,13.641,13.645,2,28,2C42.359,2,53.996,13.641,53.996,27.996z"/>
<linearGradient id="SVGID_3_" gradientUnits="userSpaceOnUse" x1="53.7832" y1="16.1172" x2="53.7832" y2="54.8372">
	<stop  offset="0" style="stop-color:#CCCCCC"/>
	<stop  offset="0.1845" style="stop-color:#C7C7C7"/>
	<stop  offset="0.3881" style="stop-color:#BABABA"/>
	<stop  offset="0.6009" style="stop-color:#A4A4A4"/>
	<stop  offset="0.8186" style="stop-color:#858585"/>
	<stop  offset="1" style="stop-color:#666666"/>
</linearGradient>
<path fill="url(#SVGID_3_)" stroke="#3B3B3B" stroke-width="4" stroke-linejoin="round" d="M26.051,56.27h58.141
	c0,0,7.543,0.488,7.055-7.785c-0.484-8.277-9.488-8.277-9.488-8.277s2.918-7.297-1.703-11.191c-4.625-3.895-9.977-1.703-9.977-1.703
	s-2.68-11.195-16.551-11.195c-20.707,0-20.684,18.98-20.684,18.98S16.297,29.98,16.297,45.563
	C16.297,56.559,26.051,56.27,26.051,56.27z"/>
<path fill="#66B8DC" stroke="#FFFFFF" stroke-width="1.5" d="M47.438,57.738l-2.488-1.488l2.488-1.484
	c1.227-0.73,1.625-2.305,0.895-3.531c-0.73-1.215-2.316-1.613-3.539-0.887l-2.289,1.367l0.004-2.676
	c-0.004-1.422-1.156-2.574-2.578-2.574c-1.426,0.004-2.586,1.16-2.582,2.582l-0.004,2.672l-2.297-1.371
	c-1.227-0.727-2.809-0.328-3.539,0.887c-0.734,1.227-0.332,2.801,0.891,3.531l2.492,1.484l-2.492,1.488
	c-1.219,0.727-1.625,2.305-0.891,3.523c0.242,0.406,0.578,0.715,0.957,0.93c0.777,0.43,1.762,0.449,2.586-0.039l2.281-1.363v2.676
	c0,1.422,1.148,2.578,2.574,2.57c0.469,0,0.91-0.125,1.285-0.344c0.777-0.445,1.301-1.281,1.301-2.238l0.004-2.672l2.297,1.371
	c0.816,0.488,1.801,0.469,2.582,0.039c0.379-0.215,0.719-0.523,0.957-0.93C49.063,60.043,48.66,58.465,47.438,57.738z"/>
<path fill="#66B8DC" stroke="#FFFFFF" stroke-width="1.5" d="M78.043,57.316l-2.492-1.48l2.492-1.488
	c1.223-0.73,1.625-2.305,0.891-3.527c-0.73-1.219-2.316-1.621-3.539-0.887l-2.289,1.363l0.004-2.676
	c-0.004-1.422-1.152-2.574-2.578-2.574c-1.426,0.004-2.586,1.16-2.582,2.582l-0.004,2.672l-2.301-1.367
	c-1.219-0.734-2.805-0.332-3.535,0.887c-0.73,1.223-0.332,2.797,0.891,3.527l2.492,1.488L63,57.316
	c-1.219,0.73-1.621,2.309-0.891,3.531c0.242,0.398,0.574,0.711,0.957,0.926c0.777,0.434,1.762,0.449,2.582-0.039l2.289-1.363
	l-0.004,2.676c0,1.422,1.148,2.578,2.578,2.574c0.465-0.004,0.906-0.129,1.285-0.348c0.77-0.449,1.293-1.281,1.293-2.234
	l0.004-2.676l2.297,1.371c0.824,0.488,1.805,0.473,2.586,0.039c0.383-0.215,0.715-0.527,0.957-0.926
	C79.668,59.625,79.262,58.047,78.043,57.316z"/>
<path fill="#66B8DC" stroke="#FFFFFF" stroke-width="1.5" d="M57.711,76.113l-2.492-1.484l2.492-1.484
	c1.223-0.734,1.621-2.309,0.891-3.531c-0.73-1.219-2.316-1.617-3.539-0.887l-2.289,1.363v-2.676c0-1.422-1.148-2.574-2.578-2.574
	c-1.422,0.004-2.582,1.16-2.582,2.582v2.672l-2.301-1.367c-1.223-0.73-2.805-0.332-3.539,0.887c-0.73,1.223-0.328,2.797,0.895,3.531
	l2.492,1.484l-2.492,1.484c-1.223,0.727-1.625,2.305-0.895,3.523c0.242,0.402,0.578,0.715,0.961,0.93
	c0.781,0.434,1.762,0.453,2.582-0.039l2.289-1.363l-0.004,2.676c0,1.422,1.148,2.578,2.57,2.574
	c0.473-0.004,0.914-0.129,1.293-0.348c0.773-0.445,1.293-1.281,1.293-2.234l0.004-2.676l2.301,1.371
	c0.816,0.492,1.805,0.473,2.582,0.039c0.379-0.215,0.715-0.527,0.957-0.93C59.332,78.418,58.93,76.84,57.711,76.113z"/>
</svg>
