<?xml version="1.0" encoding="utf-8"?>
<!-- Generator: Adobe Illustrator 14.0.0, SVG Export Plug-In  -->
<!DOCTYPE svg PUBLIC "-//W3C//DTD SVG 1.1//EN" "http://www.w3.org/Graphics/SVG/1.1/DTD/svg11.dtd" [
	<!ENTITY ns_flows "http://ns.adobe.com/Flows/1.0/">
]>
<svg version="1.1"
	 xmlns="http://www.w3.org/2000/svg" xmlns:xlink="http://www.w3.org/1999/xlink" xmlns:a="http://ns.adobe.com/AdobeSVGViewerExtensions/3.0/"
	 x="0px" y="0px" width="100px" height="100px" viewBox="-9.618 -16.795 100 100" enable-background="new -9.618 -16.795 100 100"
	 xml:space="preserve">
<defs>
</defs>
<linearGradient id="SVGID_1_" gradientUnits="userSpaceOnUse" x1="40.3818" y1="2" x2="40.3818" y2="43.1147">
	<stop  offset="0" style="stop-color:#CCCCCC"/>
	<stop  offset="0.1845" style="stop-color:#C7C7C7"/>
	<stop  offset="0.3881" style="stop-color:#BABABA"/>
	<stop  offset="0.6009" style="stop-color:#A4A4A4"/>
	<stop  offset="0.8186" style="stop-color:#858585"/>
	<stop  offset="1" style="stop-color:#666666"/>
</linearGradient>
<path fill="url(#SVGID_1_)" stroke="#3B3B3B" stroke-width="4" stroke-linejoin="round" d="M11.988,43.109h59.527
	c0,0,7.725,0.5,7.225-7.973c-0.5-8.471-9.717-8.471-9.717-8.471s2.992-7.475-1.744-11.461c-4.732-3.986-10.213-1.744-10.213-1.744
	S54.32,2,40.119,2C18.92,2,18.943,21.434,18.943,21.434S2,16.193,2,32.146C2,43.404,11.988,43.109,11.988,43.109z"/>
<path fill="#37A8DB" stroke="#FFFFFF" stroke-width="1.5" d="M62.338,49.354c-0.838,1.398-2.652,1.854-4.053,1.014l0,0
	c-1.396-0.838-1.852-2.652-1.014-4.051l5.047-8.42c0.838-1.4,2.654-1.854,4.053-1.016l0,0c1.398,0.838,1.852,2.652,1.014,4.051
	L62.338,49.354z"/>
<path fill="#37A8DB" stroke="#FFFFFF" stroke-width="1.5" d="M63.383,68.416c-0.838,1.4-2.652,1.855-4.053,1.016l0,0
	c-1.396-0.838-1.852-2.652-1.014-4.051l5.047-8.422c0.838-1.398,2.654-1.854,4.053-1.014l0,0c1.398,0.838,1.852,2.652,1.014,4.051
	L63.383,68.416z"/>
<path fill="#37A8DB" stroke="#FFFFFF" stroke-width="1.5" d="M37.393,69.164c-0.838,1.398-2.652,1.854-4.053,1.014l0,0
	c-1.396-0.838-1.852-2.652-1.014-4.051l5.047-8.42c0.838-1.4,2.654-1.854,4.053-1.016l0,0c1.398,0.838,1.852,2.652,1.014,4.051
	L37.393,69.164z"/>
<path fill="#37A8DB" stroke="#FFFFFF" stroke-width="1.5" d="M46.756,50.461c-0.838,1.4-2.654,1.854-4.053,1.016l0,0
	c-1.398-0.84-1.852-2.652-1.014-4.051l5.047-8.422c0.838-1.398,2.654-1.854,4.053-1.014l0,0c1.398,0.838,1.852,2.652,1.014,4.051
	L46.756,50.461z"/>
<path fill="#37A8DB" stroke="#FFFFFF" stroke-width="1.5" d="M50.369,68.416c-0.838,1.398-2.654,1.854-4.053,1.016l0,0
	c-1.398-0.84-1.852-2.652-1.014-4.051l5.047-8.422c0.838-1.398,2.654-1.854,4.053-1.016l0,0c1.398,0.838,1.852,2.652,1.014,4.051
	L50.369,68.416z"/>
<path fill="#EC7C3D" stroke="#FFFFFF" stroke-width="1.5" d="M3.117,77.438c-1-1-1-2.621,0-3.625l0,0l25.162-25.16H16.672
	c-1.033,0-1.969-0.625-2.363-1.58l0,0c-0.398-0.959-0.182-2.061,0.553-2.793l0,0l18.146-18.15c1.002-0.998,2.623-0.998,3.627,0l0,0
	c0.998,1.002,0.998,2.623,0,3.625l0,0L22.855,43.529h11.609c1.035,0,1.969,0.623,2.367,1.582l0,0
	c0.395,0.957,0.176,2.057-0.559,2.791l0,0L6.738,77.438c-0.496,0.5-1.152,0.752-1.809,0.752l0,0
	C4.273,78.189,3.617,77.938,3.117,77.438L3.117,77.438z"/>
</svg>
