<?xml version="1.0" encoding="utf-8"?>
<!-- Generator: Adobe Illustrator 14.0.0, SVG Export Plug-In  -->
<!DOCTYPE svg PUBLIC "-//W3C//DTD SVG 1.1//EN" "http://www.w3.org/Graphics/SVG/1.1/DTD/svg11.dtd" [
	<!ENTITY ns_flows "http://ns.adobe.com/Flows/1.0/">
]>
<svg version="1.1"
	 xmlns="http://www.w3.org/2000/svg" xmlns:xlink="http://www.w3.org/1999/xlink" xmlns:a="http://ns.adobe.com/AdobeSVGViewerExtensions/3.0/"
	 x="0px" y="0px" width="100px" height="100px" viewBox="-4.882 -3.058 100 100" enable-background="new -4.882 -3.058 100 100"
	 xml:space="preserve">
<defs>
</defs>
<radialGradient id="SVGID_2_" cx="15.729" cy="18.9707" r="27.9379" gradientUnits="userSpaceOnUse">
	<stop  offset="0" style="stop-color:#F2F2F2"/>
	<stop  offset="1" style="stop-color:#666666"/>
</radialGradient>
<path fill="url(#SVGID_2_)" stroke="#FFFFFF" stroke-width="4" d="M30.397,21.291c-0.668-6.211,1.246-12.102,4.879-16.609
	c-3.875-2.078-8.387-3.055-13.09-2.551C9.772,3.466,0.796,14.615,2.132,27.029c1.336,12.412,12.48,21.393,24.895,20.057
	c6.203-0.668,11.551-3.785,15.18-8.285C35.851,35.386,31.229,29.001,30.397,21.291z"/>
<linearGradient id="SVGID_3_" gradientUnits="userSpaceOnUse" x1="49.8535" y1="16.1528" x2="49.8535" y2="57.2686">
	<stop  offset="0" style="stop-color:#CCCCCC"/>
	<stop  offset="0.1845" style="stop-color:#C7C7C7"/>
	<stop  offset="0.3881" style="stop-color:#BABABA"/>
	<stop  offset="0.6009" style="stop-color:#A4A4A4"/>
	<stop  offset="0.8186" style="stop-color:#858585"/>
	<stop  offset="1" style="stop-color:#666666"/>
</linearGradient>
<path fill="url(#SVGID_3_)" stroke="#3B3B3B" stroke-width="4" stroke-linejoin="round" d="M21.46,57.263h59.527
	c0,0,7.725,0.5,7.225-7.973c-0.5-8.472-9.717-8.472-9.717-8.472s2.992-7.475-1.744-11.461c-4.732-3.986-10.213-1.743-10.213-1.743
	s-2.746-11.462-16.947-11.462c-21.199,0-21.176,19.434-21.176,19.434S11.472,30.347,11.472,46.3
	C11.472,57.558,21.46,57.263,21.46,57.263z"/>
<path fill="#37A8DB" stroke="#FFFFFF" stroke-width="1.5" d="M71.81,63.506c-0.838,1.399-2.652,1.854-4.053,1.015l0,0
	c-1.396-0.838-1.852-2.652-1.014-4.051l5.047-8.421c0.838-1.399,2.654-1.854,4.053-1.015l0,0c1.398,0.838,1.852,2.652,1.014,4.051
	L71.81,63.506z"/>
<path fill="#37A8DB" stroke="#FFFFFF" stroke-width="1.5" d="M72.854,82.57c-0.838,1.399-2.652,1.854-4.053,1.015l0,0
	c-1.396-0.838-1.852-2.652-1.014-4.051l5.047-8.421c0.838-1.399,2.654-1.854,4.053-1.015l0,0c1.398,0.838,1.852,2.652,1.014,4.051
	L72.854,82.57z"/>
<path fill="#37A8DB" stroke="#FFFFFF" stroke-width="1.5" d="M46.864,83.317c-0.838,1.399-2.652,1.854-4.053,1.015l0,0
	c-1.396-0.838-1.852-2.652-1.014-4.051l5.047-8.421c0.838-1.399,2.654-1.854,4.053-1.015l0,0c1.398,0.838,1.852,2.652,1.014,4.051
	L46.864,83.317z"/>
<path fill="#37A8DB" stroke="#FFFFFF" stroke-width="1.5" d="M56.228,64.615c-0.838,1.399-2.654,1.854-4.053,1.015l0,0
	c-1.398-0.839-1.852-2.652-1.014-4.051l5.047-8.421c0.838-1.399,2.654-1.854,4.053-1.015l0,0c1.398,0.838,1.852,2.652,1.014,4.051
	L56.228,64.615z"/>
<path fill="#37A8DB" stroke="#FFFFFF" stroke-width="1.5" d="M59.841,82.57c-0.838,1.398-2.654,1.854-4.053,1.015l0,0
	c-1.398-0.839-1.852-2.652-1.014-4.051l5.047-8.421c0.838-1.399,2.654-1.854,4.053-1.016l0,0c1.398,0.838,1.852,2.652,1.014,4.051
	L59.841,82.57z"/>
<path fill="#EC7C3D" stroke="#FFFFFF" stroke-width="1.5" d="M12.589,91.591c-1-1-1-2.622,0-3.625l0,0l25.162-25.16H26.144
	c-1.033,0-1.969-0.626-2.363-1.581l0,0c-0.398-0.958-0.182-2.061,0.553-2.792l0,0l18.146-18.15c1.002-0.999,2.623-0.999,3.627,0l0,0
	c0.998,1.002,0.998,2.622,0,3.624l0,0L32.327,57.683h11.609c1.035,0,1.969,0.623,2.367,1.581l0,0
	c0.395,0.958,0.176,2.057-0.559,2.792l0,0L16.21,91.591c-0.496,0.5-1.152,0.751-1.809,0.751l0,0
	C13.745,92.342,13.089,92.091,12.589,91.591L12.589,91.591z"/>
</svg>
