<?xml version="1.0" encoding="utf-8"?>
<!-- Generator: Adobe Illustrator 14.0.0, SVG Export Plug-In  -->
<!DOCTYPE svg PUBLIC "-//W3C//DTD SVG 1.1//EN" "http://www.w3.org/Graphics/SVG/1.1/DTD/svg11.dtd" [
	<!ENTITY ns_flows "http://ns.adobe.com/Flows/1.0/">
]>
<svg version="1.1"
	 xmlns="http://www.w3.org/2000/svg" xmlns:xlink="http://www.w3.org/1999/xlink" xmlns:a="http://ns.adobe.com/AdobeSVGViewerExtensions/3.0/"
	 x="0px" y="0px" width="100px" height="100px" viewBox="-6.568 -3.401 100 100" enable-background="new -6.568 -3.401 100 100"
	 xml:space="preserve">
<defs>
</defs>
<radialGradient id="SVGID_1_" cx="15.1938" cy="18.3252" r="26.9876" gradientUnits="userSpaceOnUse">
	<stop  offset="0" style="stop-color:#F2F2F2"/>
	<stop  offset="1" style="stop-color:#666666"/>
</radialGradient>
<path fill="url(#SVGID_1_)" stroke="#FFFFFF" stroke-width="3.8639" d="M29.366,20.566c-0.646-6,1.201-11.689,4.711-16.045
	c-3.74-2.006-8.102-2.951-12.643-2.463C9.442,3.348,0.77,14.117,2.059,26.109C3.35,38.1,14.116,46.773,26.108,45.484
	c5.994-0.646,11.158-3.656,14.662-8.004C34.631,34.182,30.168,28.016,29.366,20.566z"/>
<linearGradient id="SVGID_2_" gradientUnits="userSpaceOnUse" x1="48.2666" y1="17.5781" x2="48.2666" y2="55.4488">
	<stop  offset="0" style="stop-color:#CCCCCC"/>
	<stop  offset="0.1845" style="stop-color:#C7C7C7"/>
	<stop  offset="0.3881" style="stop-color:#BABABA"/>
	<stop  offset="0.6009" style="stop-color:#A4A4A4"/>
	<stop  offset="0.8186" style="stop-color:#858585"/>
	<stop  offset="1" style="stop-color:#666666"/>
</linearGradient>
<path fill="url(#SVGID_2_)" stroke="#3B3B3B" stroke-width="3.8639" stroke-linejoin="round" d="M21.139,56.85h56.869
	c0,0,7.377,0.475,6.902-7.615c-0.48-8.094-9.283-8.094-9.283-8.094s2.855-7.139-1.664-10.949c-4.523-3.809-9.762-1.666-9.762-1.666
	s-2.619-10.947-16.184-10.947c-20.252,0-20.232,18.566-20.232,18.566S11.6,31.137,11.6,46.375
	C11.6,57.131,21.139,56.85,21.139,56.85z"/>
<path fill="#66B8DC" stroke="#FFFFFF" stroke-width="1.449" d="M36.333,58.285l-2.439-1.455l2.439-1.449
	c1.191-0.717,1.584-2.26,0.871-3.457c-0.713-1.188-2.264-1.578-3.461-0.867l-2.24,1.336l0.004-2.619
	c0-1.389-1.129-2.516-2.525-2.512c-1.393,0-2.523,1.131-2.523,2.523v2.611l-2.25-1.34c-1.195-0.711-2.746-0.32-3.459,0.867
	c-0.719,1.197-0.326,2.74,0.871,3.457l2.438,1.449l-2.438,1.455c-1.193,0.711-1.59,2.254-0.871,3.447
	c0.236,0.395,0.564,0.697,0.936,0.908c0.762,0.424,1.725,0.438,2.527-0.039l2.234-1.334l-0.004,2.619c0,1.393,1.129,2.52,2.52,2.514
	c0.461,0,0.891-0.123,1.258-0.338c0.762-0.438,1.271-1.252,1.271-2.186v-2.615l2.248,1.34c0.801,0.477,1.764,0.463,2.529,0.039
	c0.369-0.211,0.697-0.514,0.936-0.908C37.917,60.539,37.524,58.996,36.333,58.285z"/>
<path fill="#66B8DC" stroke="#FFFFFF" stroke-width="1.449" d="M74.254,58.213l-2.438-1.451l2.438-1.453
	c1.195-0.715,1.588-2.258,0.875-3.451c-0.717-1.193-2.268-1.586-3.465-0.869l-2.24,1.332l0.004-2.615
	c0-1.391-1.125-2.516-2.521-2.516c-1.393,0.004-2.527,1.131-2.523,2.523l-0.004,2.613l-2.246-1.338
	c-1.195-0.717-2.746-0.324-3.463,0.869c-0.713,1.193-0.32,2.736,0.875,3.451l2.434,1.453l-2.434,1.451
	c-1.193,0.711-1.588,2.256-0.875,3.451c0.236,0.393,0.566,0.697,0.939,0.904c0.762,0.424,1.725,0.443,2.523-0.037l2.238-1.332
	l-0.004,2.617c-0.004,1.391,1.125,2.52,2.521,2.516c0.455-0.002,0.887-0.125,1.256-0.338c0.758-0.439,1.268-1.256,1.268-2.188
	l0.004-2.615l2.248,1.34c0.805,0.48,1.764,0.461,2.525,0.037c0.373-0.207,0.701-0.512,0.939-0.904
	C75.842,60.469,75.446,58.924,74.254,58.213z"/>
<path fill="#66B8DC" stroke="#FFFFFF" stroke-width="1.449" d="M36.333,82.484l-2.439-1.453l2.439-1.451
	c1.191-0.713,1.584-2.258,0.871-3.453c-0.713-1.193-2.264-1.58-3.461-0.869l-2.24,1.336l0.004-2.619
	c0-1.391-1.129-2.516-2.525-2.516c-1.393,0.004-2.523,1.135-2.523,2.525v2.613l-2.25-1.34c-1.195-0.711-2.746-0.324-3.459,0.869
	c-0.719,1.195-0.326,2.74,0.871,3.453l2.438,1.451l-2.438,1.453c-1.193,0.711-1.59,2.254-0.871,3.447
	c0.236,0.395,0.564,0.701,0.936,0.908c0.762,0.422,1.725,0.441,2.527-0.039l2.234-1.33l-0.004,2.615c0,1.391,1.129,2.52,2.52,2.516
	c0.461,0,0.891-0.125,1.258-0.338c0.762-0.436,1.271-1.254,1.271-2.186v-2.615l2.248,1.338c0.801,0.48,1.764,0.461,2.529,0.039
	c0.369-0.207,0.697-0.514,0.936-0.908C37.917,84.738,37.524,83.195,36.333,82.484z"/>
<path fill="#66B8DC" stroke="#FFFFFF" stroke-width="1.449" d="M74.254,82.414l-2.438-1.453l2.438-1.453
	c1.195-0.713,1.588-2.256,0.875-3.453c-0.717-1.189-2.268-1.58-3.465-0.867l-2.24,1.336l0.004-2.619
	c0-1.389-1.125-2.518-2.521-2.518c-1.393,0.004-2.527,1.137-2.523,2.529l-0.004,2.611l-2.246-1.34
	c-1.195-0.713-2.746-0.322-3.463,0.867c-0.713,1.197-0.32,2.74,0.875,3.453l2.434,1.453l-2.434,1.453
	c-1.193,0.713-1.588,2.256-0.875,3.447c0.236,0.393,0.566,0.699,0.939,0.906c0.762,0.424,1.725,0.441,2.523-0.037l2.238-1.332
	l-0.004,2.619c-0.004,1.389,1.125,2.52,2.521,2.512c0.455,0,0.887-0.123,1.256-0.336c0.758-0.439,1.268-1.252,1.268-2.188
	l0.004-2.615l2.248,1.34c0.805,0.479,1.764,0.461,2.525,0.037c0.373-0.207,0.701-0.514,0.939-0.906
	C75.842,84.67,75.446,83.127,74.254,82.414z"/>
<path fill="#66B8DC" stroke="#FFFFFF" stroke-width="1.449" d="M55.293,73.709l-2.438-1.451l2.438-1.451
	c1.191-0.717,1.584-2.26,0.871-3.457c-0.717-1.188-2.268-1.58-3.461-0.865l-2.24,1.334l0.004-2.617
	c-0.004-1.391-1.129-2.52-2.525-2.518c-1.393,0.004-2.523,1.135-2.523,2.527v2.613l-2.25-1.34c-1.195-0.715-2.746-0.322-3.459,0.865
	c-0.717,1.197-0.326,2.74,0.871,3.457l2.438,1.451l-2.438,1.451c-1.197,0.711-1.588,2.256-0.871,3.447
	c0.232,0.395,0.564,0.701,0.936,0.908c0.762,0.424,1.725,0.443,2.527-0.035l2.234-1.332l-0.004,2.617
	c0,1.389,1.125,2.518,2.521,2.514c0.455-0.004,0.889-0.127,1.256-0.34c0.758-0.438,1.268-1.252,1.268-2.184l0.004-2.615l2.248,1.34
	c0.805,0.479,1.768,0.459,2.529,0.035c0.369-0.207,0.697-0.514,0.936-0.908C56.877,75.965,56.485,74.42,55.293,73.709z"/>
</svg>
