<svg xmlns="http://www.w3.org/2000/svg" width="64" height="64" viewBox="0 0 48 48">
    <defs>
        <linearGradient id="a" x1="41.1841" x2="41.1841" y1="2" y2="41.5882" gradientUnits="userSpaceOnUse">
            <stop offset="0" stop-color="#ccc"/>
            <stop offset=".1845" stop-color="#c7c7c7"/>
            <stop offset=".3881" stop-color="#bababa"/>
            <stop offset=".6009" stop-color="#a4a4a4"/>
            <stop offset=".8186" stop-color="#858585"/>
            <stop offset="1" stop-color="#666"/>
        </linearGradient>
    </defs>
    <path fill="url(#a)" stroke="#3b3b3b" stroke-linejoin="round" stroke-width="4" d="M12.82794 43.05228h59.44824s7.7067.49642 7.21029-7.95898c-.49642-8.46354-9.70052-8.46354-9.70052-8.46354s2.98665-7.46257-1.74154-11.44206c-4.72819-3.9795-10.20508-1.74154-10.20508-1.74154S55.10496 1.99596 40.9204 1.99596c-21.167 0-21.14258 19.40919-21.14258 19.40919S2.85887 16.1724 2.85887 32.10665c0 11.2386 9.96907 10.94563 9.96907 10.94563Zm0 0" transform="matrix(.48 0 0 .48 4.73712 8.06928)"/>
    <path fill="#ec7c3d" stroke="#fff" stroke-width=".72" d="M5.46875 44.22656c-.4961-.49219-.4961-1.29296 0-1.78515l12.39843-12.39844h-5.72265c-.50782 0-.96875-.3086-1.16406-.77735-.19532-.47265-.08985-1.01562.27343-1.3789l8.94141-8.9414c.4961-.4922 1.29297-.4922 1.78906 0 .4922.49218.4922 1.28906 0 1.78515l-6.79297 6.78906h5.72266c.51172 0 .96875.3086 1.16406.77734.19532.47266.08985 1.01563-.27343 1.3789L7.25 44.22658c-.24219.24609-.5664.37108-.89062.37108-.32422 0-.64844-.125-.89063-.37108Zm0 0"/>
    <path fill="#fff" stroke="#37a8db" stroke-linecap="round" stroke-linejoin="round" stroke-width=".72" d="m22.59766 33.67188 2.88672-5 2.8828 5Zm6.55078 6.54687 2.88281-4.9961 2.88281 4.9961Zm4.3086-8.46875 2.88671-4.9961 2.88281 4.9961Zm0 0"/>
</svg>
