<?xml version="1.0" encoding="utf-8"?>
<!-- Generator: Adobe Illustrator 14.0.0, SVG Export Plug-In  -->
<!DOCTYPE svg PUBLIC "-//W3C//DTD SVG 1.1//EN" "http://www.w3.org/Graphics/SVG/1.1/DTD/svg11.dtd" [
	<!ENTITY ns_flows "http://ns.adobe.com/Flows/1.0/">
]>
<svg version="1.1"
	 xmlns="http://www.w3.org/2000/svg" xmlns:xlink="http://www.w3.org/1999/xlink" xmlns:a="http://ns.adobe.com/AdobeSVGViewerExtensions/3.0/"
	 x="0px" y="0px" width="100px" height="100px" viewBox="-10.216 -17.755 100 100" enable-background="new -10.216 -17.755 100 100"
	 xml:space="preserve">
<defs>
</defs>
<linearGradient id="SVGID_1_" gradientUnits="userSpaceOnUse" x1="39.7842" y1="2" x2="39.7842" y2="42.4771">
	<stop  offset="0" style="stop-color:#CCCCCC"/>
	<stop  offset="0.1845" style="stop-color:#C7C7C7"/>
	<stop  offset="0.3881" style="stop-color:#BABABA"/>
	<stop  offset="0.6009" style="stop-color:#A4A4A4"/>
	<stop  offset="0.8186" style="stop-color:#858585"/>
	<stop  offset="1" style="stop-color:#666666"/>
</linearGradient>
<path fill="url(#SVGID_1_)" stroke="#3B3B3B" stroke-width="4" stroke-linejoin="round" d="M11.832,42.472h58.602
	c0,0,7.602,0.491,7.111-7.849s-9.564-8.34-9.564-8.34S70.922,18.924,66.262,15s-10.055-1.717-10.055-1.717S53.508,2,39.527,2
	c-20.871,0-20.85,19.133-20.85,19.133S2,15.974,2,31.678C2,42.761,11.832,42.472,11.832,42.472z"/>
<path fill="#37A8DB" stroke="#FFFFFF" stroke-width="1.5" d="M59.762,49.684c-0.813,1.354-2.57,1.794-3.924,0.982l0,0
	c-1.354-0.813-1.795-2.568-0.982-3.922l4.887-8.153c0.813-1.354,2.57-1.794,3.924-0.982l0,0c1.354,0.812,1.795,2.567,0.982,3.922
	L59.762,49.684z"/>
<path fill="#37A8DB" stroke="#FFFFFF" stroke-width="1.5" d="M40.25,47.185c-0.813,1.354-2.57,1.795-3.924,0.982l0,0
	c-1.354-0.812-1.795-2.567-0.982-3.922l4.887-8.153c0.813-1.354,2.568-1.794,3.922-0.982l0,0c1.355,0.812,1.795,2.568,0.982,3.922
	L40.25,47.185z"/>
<path fill="#37A8DB" stroke="#FFFFFF" stroke-width="1.5" d="M56.08,64.879c-0.811,1.354-2.568,1.795-3.924,0.982l0,0
	c-1.352-0.812-1.793-2.567-0.98-3.922l4.885-8.153c0.813-1.354,2.568-1.794,3.924-0.982l0,0c1.355,0.812,1.793,2.568,0.98,3.922
	L56.08,64.879z"/>
<path fill="#37A8DB" stroke="#FFFFFF" stroke-width="1.5" d="M43.188,61.895c-0.813,1.354-2.568,1.795-3.922,0.982l0,0
	c-1.355-0.813-1.795-2.568-0.984-3.922l4.887-8.152c0.813-1.355,2.57-1.795,3.924-0.983l0,0c1.354,0.812,1.795,2.568,0.982,3.922
	L43.188,61.895z"/>
<path fill="#37A8DB" stroke="#FFFFFF" stroke-width="1.5" d="M24.658,51.855c-0.811,1.354-2.568,1.795-3.924,0.982l0,0
	c-1.352-0.813-1.793-2.568-0.98-3.922l4.887-8.152c0.811-1.355,2.566-1.795,3.922-0.982l0,0c1.355,0.811,1.793,2.567,0.98,3.922
	L24.658,51.855z"/>
<path fill="#37A8DB" stroke="#FFFFFF" stroke-width="1.5" d="M25.922,64.665c-0.813,1.354-2.566,1.794-3.922,0.982l0,0
	c-1.354-0.812-1.793-2.567-0.982-3.922l4.885-8.153c0.813-1.354,2.57-1.794,3.926-0.982l0,0c1.354,0.812,1.793,2.568,0.98,3.922
	L25.922,64.665z"/>
</svg>
