<?xml version="1.0" encoding="utf-8"?>
<!-- Generator: Adobe Illustrator 14.0.0, SVG Export Plug-In  -->
<!DOCTYPE svg PUBLIC "-//W3C//DTD SVG 1.1//EN" "http://www.w3.org/Graphics/SVG/1.1/DTD/svg11.dtd" [
	<!ENTITY ns_flows "http://ns.adobe.com/Flows/1.0/">
]>
<svg version="1.1"
	 xmlns="http://www.w3.org/2000/svg" xmlns:xlink="http://www.w3.org/1999/xlink" xmlns:a="http://ns.adobe.com/AdobeSVGViewerExtensions/3.0/"
	 x="0px" y="0px" width="100px" height="100px" viewBox="-6.046 -2.083 100 100" enable-background="new -6.046 -2.083 100 100"
	 xml:space="preserve">
<defs>
</defs>
<path fill="#37A8DB" stroke="#FFFFFF" stroke-width="1.5" d="M51.741,78.717c-0.828,1.381-2.621,1.83-4.002,1.002l0,0
	c-1.381-0.828-1.83-2.621-1.002-4.002l4.982-8.318c0.832-1.381,2.623-1.828,4.006-1l0,0c1.381,0.828,1.828,2.619,1,4L51.741,78.717z
	"/>
<radialGradient id="SVGID_2_" cx="15.729" cy="18.9702" r="27.9381" gradientUnits="userSpaceOnUse">
	<stop  offset="0" style="stop-color:#F2F2F2"/>
	<stop  offset="1" style="stop-color:#666666"/>
</radialGradient>
<path fill="url(#SVGID_2_)" stroke="#FFFFFF" stroke-width="4" d="M30.397,21.291c-0.668-6.211,1.246-12.102,4.879-16.609
	c-3.875-2.078-8.387-3.055-13.09-2.551C9.772,3.466,0.796,14.615,2.132,27.029c1.336,12.412,12.48,21.393,24.895,20.057
	c6.203-0.668,11.551-3.785,15.18-8.285C35.851,35.386,31.229,29.001,30.397,21.291z"/>
<path fill="#FFFFFF" stroke="#808080" stroke-width="4" stroke-linecap="round" stroke-linejoin="round" d="M21.2,58.168h57.686
	c0,0,7.484,0.482,7-7.727c-0.482-8.211-9.416-8.211-9.416-8.211s2.9-7.243-1.689-11.105c-4.586-3.863-9.898-1.691-9.898-1.691
	s-2.656-11.106-16.42-11.106c-20.543,0-20.523,18.834-20.523,18.834s-16.416-5.079-16.416,10.38
	C11.522,58.452,21.2,58.168,21.2,58.168z"/>
<path fill="#37A8DB" stroke="#FFFFFF" stroke-width="1.5" d="M63.563,63.829c-0.828,1.383-2.621,1.832-4.002,1.004l0,0
	c-1.381-0.828-1.83-2.621-1.002-4.002l4.982-8.316c0.83-1.385,2.623-1.83,4.004-1.004l0,0c1.383,0.828,1.83,2.619,1.002,4.002
	L63.563,63.829z"/>
<path fill="#37A8DB" stroke="#FFFFFF" stroke-width="1.5" d="M44.3,64.922c-0.83,1.383-2.623,1.832-4.004,1.004l0,0
	c-1.379-0.828-1.828-2.621-1-4l4.984-8.316c0.828-1.383,2.621-1.832,4.002-1.004l0,0c1.383,0.828,1.832,2.619,1.002,4L44.3,64.922z"
	/>
</svg>
