<?xml version="1.0" encoding="utf-8"?>
<!-- Generator: Adobe Illustrator 24.0.1, SVG Export Plug-In . SVG Version: 6.00 Build 0)  -->
<svg version="1.1" id="Capa_1" xmlns="http://www.w3.org/2000/svg" xmlns:xlink="http://www.w3.org/1999/xlink" x="0px" y="0px"
	 viewBox="0 0 95 95" style="enable-background:new 0 0 95 95;" xml:space="preserve">
<style type="text/css">
	.st0{fill:#89B94C;}
	.st1{fill:#010000;}
</style>
<g>
	<rect y="0" class="st0" width="95" height="95"/>
	<polygon class="st1" points="21.7,24.3 21.7,59 42.5,59 42.5,66.8 12.4,66.8 12.4,24.3 	"/>
	<path class="st1" d="M48.1,66.8v-27H37.6v-6.4c1.5,0,2.9-0.1,4.3-0.3c1.4-0.3,2.6-0.7,3.7-1.4c1.1-0.7,2-1.5,2.8-2.6
		c0.8-1.1,1.2-2.4,1.5-4h6.7v41.7H48.1z"/>
	<path class="st1" d="M75.2,66.8v-27H64.7v-6.4c1.5,0,2.9-0.1,4.3-0.3c1.4-0.3,2.6-0.7,3.7-1.4c1.1-0.7,2-1.5,2.8-2.6
		c0.8-1.1,1.2-2.4,1.5-4h6.7v41.7H75.2z"/>
</g>
</svg>
