<?xml version="1.0" encoding="UTF-8" standalone="no"?>
<!-- Created with Inkscape (http://www.inkscape.org/) -->
<svg
   xmlns:dc="http://purl.org/dc/elements/1.1/"
   xmlns:cc="http://creativecommons.org/ns#"
   xmlns:rdf="http://www.w3.org/1999/02/22-rdf-syntax-ns#"
   xmlns:svg="http://www.w3.org/2000/svg"
   xmlns="http://www.w3.org/2000/svg"
   xmlns:sodipodi="http://sodipodi.sourceforge.net/DTD/sodipodi-0.dtd"
   xmlns:inkscape="http://www.inkscape.org/namespaces/inkscape"
   width="64"
   height="64"
   viewBox="0 0 64 64"
   id="svg21844"
   sodipodi:version="0.32"
   inkscape:version="0.46"
   sodipodi:docname="L9.svg"
   inkscape:output_extension="org.inkscape.output.svg.inkscape"
   version="1.0">
  <defs
     id="defs21846">
    <inkscape:perspective
       sodipodi:type="inkscape:persp3d"
       inkscape:vp_x="0 : 32 : 1"
       inkscape:vp_y="0 : 1000 : 0"
       inkscape:vp_z="64 : 32 : 1"
       inkscape:persp3d-origin="32 : 21.333333 : 1"
       id="perspective21852" />
  </defs>
  <sodipodi:namedview
     id="base"
     pagecolor="#ffffff"
     bordercolor="#666666"
     borderopacity="1.0"
     inkscape:pageopacity="0.0"
     inkscape:pageshadow="2"
     inkscape:zoom="8.703125"
     inkscape:cx="32"
     inkscape:cy="32"
     inkscape:current-layer="layer1"
     showgrid="true"
     inkscape:document-units="px"
     inkscape:grid-bbox="true"
     inkscape:window-width="1136"
     inkscape:window-height="762"
     inkscape:window-x="60"
     inkscape:window-y="60"
     showguides="true"
     inkscape:guide-bbox="true">
    <sodipodi:guide
       orientation="0,1"
       position="-12.639138,49.982047"
       id="guide2386" />
    <sodipodi:guide
       orientation="1,0"
       position="9.9964093,52.165171"
       id="guide2388" />
    <sodipodi:guide
       orientation="0,1"
       position="-17.694794,15.971275"
       id="guide2390" />
    <sodipodi:guide
       orientation="1,0"
       position="35.964093,59.748654"
       id="guide2392" />
    <sodipodi:guide
       orientation="1,0"
       position="50.441652,60.438061"
       id="guide2394" />
  </sodipodi:namedview>
  <metadata
     id="metadata21849">
    <rdf:RDF>
      <cc:Work
         rdf:about="">
        <dc:format>image/svg+xml</dc:format>
        <dc:type
           rdf:resource="http://purl.org/dc/dcmitype/StillImage" />
      </cc:Work>
    </rdf:RDF>
  </metadata>
  <g
     id="layer1"
     inkscape:label="Layer 1"
     inkscape:groupmode="layer"
     transform="translate(-0.7873347,136.12828)">
    <rect
       style="opacity:1;fill:#FB712B;fill-opacity:1;fill-rule:nonzero;stroke:none;stroke-width:7.08599996999999959;stroke-linecap:round;stroke-linejoin:round;stroke-miterlimit:4;stroke-dasharray:7.08600000000000030, 14.17200000000000060;stroke-dashoffset:0;stroke-opacity:1"
       id="rect21854"
       width="64"
       height="64"
       x="0.78733474"
       y="-136.12828" />
    <path
       style="font-size:47.52000046px;font-style:normal;font-variant:normal;font-weight:bold;font-stretch:normal;text-align:start;line-height:125%;writing-mode:lr-tb;text-anchor:start;fill:#ffffff;fill-opacity:1;stroke:none;stroke-width:1px;stroke-linecap:butt;stroke-linejoin:miter;stroke-opacity:1;font-family:Helvetica Neue;"
       d="M 10.573967,-122.0771 L 10.573967,-88.14782 L 34.571568,-88.14782 L 34.571568,-94.42046 L 18.034607,-94.42046 L 18.034607,-122.0771 L 10.573967,-122.0771"
       id="text2382" />
    <path
       style="font-size:47.52000046px;font-style:normal;font-variant:normal;font-weight:bold;font-stretch:normal;text-align:start;line-height:125%;writing-mode:lr-tb;text-anchor:start;fill:#ffffff;fill-opacity:1;stroke:none;stroke-width:1px;stroke-linecap:butt;stroke-linejoin:miter;stroke-opacity:1;font-family:Helvetica Neue;"
       d="M 46.093172,-104.27696 C 45.2378,-104.27694 44.47748,-104.45118 43.812212,-104.79968 C 43.178602,-105.17982 42.655882,-105.65502 42.244052,-106.22528 C 41.832203,-106.82718 41.515403,-107.49246 41.293652,-108.22112 C 41.103564,-108.98142 41.008524,-109.75758 41.008532,-110.5496 C 41.008524,-111.3099 41.119404,-112.05437 41.341172,-112.78304 C 41.562923,-113.51165 41.895563,-114.16109 42.339092,-114.73136 C 42.782602,-115.30157 43.321162,-115.76093 43.954772,-116.10944 C 44.58836,-116.45789 45.30116,-116.63213 46.093172,-116.63216 C 46.948518,-116.63213 47.708837,-116.45789 48.374132,-116.10944 C 49.039396,-115.76093 49.593795,-115.28573 50.037332,-114.68384 C 50.512515,-114.11357 50.860994,-113.44829 51.082772,-112.688 C 51.336194,-111.95933 51.462914,-111.21486 51.462932,-110.45456 C 51.462914,-109.63086 51.352034,-108.83886 51.130292,-108.07856 C 50.908514,-107.3499 50.575874,-106.70046 50.132372,-106.13024 C 49.688835,-105.55998 49.134436,-105.10062 48.469172,-104.75216 C 47.803877,-104.43534 47.011878,-104.27694 46.093172,-104.27696 M 41.246132,-96.816318 L 34.830932,-96.816318 C 35.02101,-95.359031 35.417009,-94.060152 36.018932,-92.919678 C 36.620848,-91.779195 37.397008,-90.812956 38.347412,-90.020958 C 39.297806,-89.228957 40.390765,-88.642878 41.626292,-88.262718 C 42.861802,-87.850879 44.192361,-87.644959 45.617972,-87.644958 C 47.993957,-87.644959 50.005635,-88.151838 51.653012,-89.165598 C 53.300352,-90.211036 54.64675,-91.557435 55.692212,-93.204798 C 56.737628,-94.883832 57.497948,-96.75295 57.973172,-98.812158 C 58.448347,-100.87135 58.685946,-102.93054 58.685972,-104.98976 C 58.685946,-107.08062 58.495867,-109.15566 58.115732,-111.21488 C 57.735547,-113.27405 57.054428,-115.11149 56.072372,-116.7272 C 55.09027,-118.37453 53.775551,-119.68925 52.128212,-120.67136 C 50.512515,-121.68509 48.437477,-122.19196 45.903092,-122.192 C 44.160681,-122.19196 42.576682,-121.87516 41.151092,-121.2416 C 39.725485,-120.60797 38.489966,-119.73677 37.444532,-118.628 C 36.430768,-117.55085 35.638769,-116.26781 35.068532,-114.77888 C 34.52997,-113.32157 34.260691,-111.73757 34.260692,-110.02688 C 34.260691,-108.6963 34.46661,-107.38158 34.878452,-106.08272 C 35.29029,-104.78382 35.939729,-103.6275 36.826772,-102.61376 C 37.777167,-101.56831 38.933486,-100.72879 40.295732,-100.0952 C 41.657963,-99.493267 43.051882,-99.192307 44.477492,-99.192318 C 46.093159,-99.192307 47.518757,-99.477427 48.754292,-100.04768 C 49.989795,-100.61791 51.066914,-101.56831 51.985652,-102.89888 L 52.080692,-102.80384 C 52.017313,-101.8851 51.874753,-100.83967 51.653012,-99.667518 C 51.462914,-98.495348 51.130274,-97.386549 50.655092,-96.341118 C 50.179875,-95.327351 49.546275,-94.456152 48.754292,-93.727518 C 47.962277,-93.030553 46.948518,-92.682074 45.713012,-92.682078 C 44.54084,-92.682074 43.558761,-93.093913 42.766772,-93.917598 C 41.974763,-94.741272 41.467883,-95.707511 41.246132,-96.816318"
       id="text22626" />
  </g>
</svg>
