<svg width="64" height="64" viewBox="0 0 30 30" fill="none" xmlns="http://www.w3.org/2000/svg">
<circle r="15" cx="15" cy="15" fill="#FFFFFF"/>
<g transform="translate(3 3)">
    <path d="M14.75 3.69995H2.75C2.34 3.69995 2 4.03995 2 4.44995V20.45C2 20.86 2.34 21.2 2.75 21.2H14.75C15.16 21.2 15.5 20.86 15.5 20.45V4.44995C15.5 4.03995 15.16 3.69995 14.75 3.69995ZM3.5 5.19995H8V19.7H3.5V5.19995ZM14 19.7H9.5V5.19995H14V19.7Z" fill="#323232"/>
    <path d="M18.47 8.52983L19.11 7.88983V10.8398C19.11 11.2498 19.45 11.5898 19.86 11.5898C20.27 11.5898 20.61 11.2498 20.61 10.8398V7.88983L21.25 8.52983C21.4 8.67983 21.59 8.74983 21.78 8.74983C21.97 8.74983 22.16 8.67983 22.31 8.52983C22.6 8.23983 22.6 7.75983 22.31 7.46983L20.39 5.54983C20.25 5.40983 20.07 5.32983 19.86 5.32983C19.65 5.32983 19.47 5.40983 19.33 5.54983L17.41 7.46983C17.12 7.75983 17.12 8.23983 17.41 8.52983C17.7 8.81983 18.18 8.81983 18.47 8.52983Z" fill="#323232"/>
    <path d="M21.24 17.1699L20.6 17.8099V14.8599C20.6 14.4499 20.26 14.1099 19.85 14.1099C19.44 14.1099 19.1 14.4499 19.1 14.8599V17.8099L18.46 17.1699C18.17 16.8799 17.69 16.8799 17.4 17.1699C17.11 17.4599 17.11 17.9399 17.4 18.2299L19.32 20.1499C19.39 20.2199 19.47 20.2699 19.56 20.3099C19.65 20.3499 19.75 20.3699 19.85 20.3699C19.95 20.3699 20.05 20.3499 20.14 20.3099C20.23 20.2699 20.31 20.2199 20.38 20.1499L22.3 18.2299C22.59 17.9399 22.59 17.4599 22.3 17.1699C22.01 16.8799 21.53 16.8799 21.24 17.1699Z" fill="#323232"/>
</g>
</svg>