<svg xmlns="http://www.w3.org/2000/svg" width="64" height="64" fill="none" viewBox="0 0 48 48">
    <g transform="translate(-11.38026 -13.38026) scale(1.4617)">
        <rect width="28" height="28" x="10" y="10" fill="#fff" rx="14"/>
        <path fill="#323232" d="M22.1458 27.6459c-.1389-.1528-.2083-.3334-.2083-.5417 0-.2083.0694-.3819.2083-.5208l1.875-1.875h-6.9375c-.1944 0-.3611-.0695-.5-.2084-.1389-.1388-.2083-.3055-.2083-.5 0-.2083.0694-.3784.2083-.5104.1389-.1319.3056-.1979.5-.1979h6.9375l-1.8958-1.8958c-.1389-.1389-.2083-.3091-.2083-.5104 0-.2014.0764-.3716.2291-.5105.1528-.1527.3334-.2291.5417-.2291.2083 0 .3819.0694.5208.2083L26.3542 23.5c.0694.0834.1215.1667.1562.25.0347.0834.0521.1667.0521.25 0 .0973-.0174.1841-.0521.2605-.0347.0763-.0868.1562-.1562.2395l-3.1667 3.1667c-.1389.1389-.309.2083-.5104.2083-.2014 0-.3785-.0763-.5313-.2291zm-4.3541 3.9791c-.375 0-.7049-.1423-.9896-.427-.2847-.2848-.4271-.6146-.4271-.9896v-3.5417c0-.1944.0694-.3611.2083-.5.1389-.1389.3056-.2083.5-.2083.2084 0 .3785.0694.5105.2083.1319.1389.1979.3056.1979.5v3.5417h12.4166V17.75H17.7917v3.5834c0 .1944-.0695.3611-.2084.5-.1389.1389-.3055.2083-.5.2083-.2083 0-.3784-.0694-.5104-.2083-.1319-.1389-.1979-.3056-.1979-.5V17.75c0-.3888.1424-.7222.4271-1 .2847-.2777.6146-.4166.9896-.4166h12.4166c.3889 0 .7223.1389 1 .4166.2778.2778.4167.6112.4167 1v12.4584c0 .375-.1389.7048-.4167.9896-.2777.2847-.6111.427-1 .427z"/>
    </g>
</svg>
