<?xml version="1.0" encoding="utf-8"?>
<!-- Generator: Adobe Illustrator 24.0.1, SVG Export Plug-In . SVG Version: 6.00 Build 0)  -->
<svg version="1.1" id="Capa_1" xmlns="http://www.w3.org/2000/svg" xmlns:xlink="http://www.w3.org/1999/xlink" x="0px" y="0px"
	 viewBox="0 0 95 95" style="enable-background:new 0 0 95 95;" xml:space="preserve">
<style type="text/css">
	.st0{fill:#005A97;}
	.st1{fill:#FFFFFF;}
</style>
<g>
	<rect y="0" class="st0" width="95" height="95"/>
	<polygon class="st1" points="23.1,19.9 23.1,60.7 47.6,60.7 47.6,70 12.1,70 12.1,19.9 	"/>
	<path class="st1" d="M63.7,29.1l-2,11.2l0.1,0.1c1.4-1.4,2.8-2.3,4.4-2.9c1.5-0.6,3.3-0.9,5.3-0.9c2.4,0,4.6,0.4,6.5,1.3
		c1.9,0.9,3.4,2.1,4.7,3.6c1.3,1.5,2.3,3.3,2.9,5.3c0.7,2,1,4.2,1,6.5c0,2.5-0.5,4.9-1.5,7.1c-1,2.2-2.3,4.1-4,5.6
		c-1.7,1.6-3.6,2.8-5.8,3.7c-2.2,0.9-4.5,1.3-7,1.2c-2.4,0-4.7-0.3-6.8-0.9c-2.2-0.6-4.1-1.6-5.8-2.9c-1.7-1.3-3-2.9-4-4.9
		c-1-1.9-1.5-4.2-1.6-6.8h10c0.2,2.2,1.1,4,2.5,5.4c1.4,1.3,3.3,2,5.5,2c1.3,0,2.5-0.3,3.5-0.8c1.1-0.5,1.9-1.2,2.7-2.1
		c0.7-0.9,1.3-1.9,1.7-3c0.4-1.1,0.6-2.3,0.6-3.5c0-1.3-0.2-2.5-0.6-3.6c-0.4-1.1-0.9-2.1-1.7-2.9c-0.7-0.8-1.6-1.5-2.7-2
		c-1-0.5-2.2-0.7-3.6-0.7c-1.8,0-3.2,0.3-4.4,0.9c-1.1,0.6-2.2,1.6-3.2,3h-9l4.8-27.2H84v8.2H63.7z"/>
</g>
</svg>
