<?xml version="1.0" encoding="UTF-8" standalone="yes"?>
<svg xmlns="http://www.w3.org/2000/svg" xmlns:xlink="http://www.w3.org/1999/xlink" width="64px" height="64px" viewBox="0 0 64 64" version="1.1">
  <g id="surface1">
    <path style=" stroke:none;fill-rule:nonzero;fill:rgb(19.607843%,19.607843%,19.607843%);fill-opacity:1;" d="M 39.332031 9.867188 L 7.332031 9.867188 C 6.238281 9.867188 5.332031 10.773438 5.332031 11.867188 L 5.332031 54.535156 C 5.332031 55.625 6.238281 56.535156 7.332031 56.535156 L 39.332031 56.535156 C 40.425781 56.535156 41.332031 55.625 41.332031 54.535156 L 41.332031 11.867188 C 41.332031 10.773438 40.425781 9.867188 39.332031 9.867188 Z M 9.332031 13.867188 L 21.332031 13.867188 L 21.332031 52.535156 L 9.332031 52.535156 Z M 37.332031 52.535156 L 25.332031 52.535156 L 25.332031 13.867188 L 37.332031 13.867188 Z M 37.332031 52.535156 "/>
    <path style=" stroke:none;fill-rule:nonzero;fill:rgb(19.607843%,19.607843%,19.607843%);fill-opacity:1;" d="M 49.253906 22.746094 L 50.960938 21.039062 L 50.960938 28.90625 C 50.960938 30 51.867188 30.90625 52.960938 30.90625 C 54.054688 30.90625 54.960938 30 54.960938 28.90625 L 54.960938 21.039062 L 56.667969 22.746094 C 57.066406 23.144531 57.574219 23.332031 58.078125 23.332031 C 58.585938 23.332031 59.09375 23.144531 59.492188 22.746094 C 60.265625 21.972656 60.265625 20.691406 59.492188 19.917969 L 54.375 14.800781 C 54 14.425781 53.519531 14.210938 52.960938 14.210938 C 52.398438 14.210938 51.921875 14.425781 51.546875 14.800781 L 46.425781 19.917969 C 45.652344 20.691406 45.652344 21.972656 46.425781 22.746094 C 47.199219 23.519531 48.480469 23.519531 49.253906 22.746094 Z M 49.253906 22.746094 "/>
    <path style=" stroke:none;fill-rule:nonzero;fill:rgb(19.607843%,19.607843%,19.607843%);fill-opacity:1;" d="M 56.640625 45.785156 L 54.933594 47.492188 L 54.933594 39.625 C 54.933594 38.53125 54.027344 37.625 52.933594 37.625 C 51.839844 37.625 50.933594 38.53125 50.933594 39.625 L 50.933594 47.492188 L 49.226562 45.785156 C 48.453125 45.011719 47.171875 45.011719 46.398438 45.785156 C 45.625 46.558594 45.625 47.839844 46.398438 48.613281 L 51.519531 53.734375 C 51.707031 53.917969 51.921875 54.054688 52.160156 54.160156 C 52.398438 54.265625 52.667969 54.320312 52.933594 54.320312 C 53.199219 54.320312 53.464844 54.265625 53.707031 54.160156 C 53.945312 54.054688 54.160156 53.917969 54.347656 53.734375 L 59.464844 48.613281 C 60.238281 47.839844 60.238281 46.558594 59.464844 45.785156 C 58.691406 45.011719 57.414062 45.011719 56.640625 45.785156 Z M 56.640625 45.785156 "/>
  </g>
</svg>