<?xml version="1.0" encoding="utf-8"?>
<!-- Generator: Adobe Illustrator 24.0.1, SVG Export Plug-In . SVG Version: 6.00 Build 0)  -->
<svg version="1.1" id="Capa_1" xmlns="http://www.w3.org/2000/svg" xmlns:xlink="http://www.w3.org/1999/xlink" x="0px" y="0px"
	 viewBox="0 0 95 95" style="enable-background:new 0 0 95 95;" xml:space="preserve">
<style type="text/css">
	.st0{fill:#FB712B;}
	.st1{fill:#FFFFFF;}
</style>
<g>
	<rect y="0" class="st0" width="95" height="95"/>
	<polygon class="st1" points="10.6,65.5 47.5,65.5 47.5,55.9 22.1,55.9 22.1,13.4 10.6,13.4 	"/>
	<path class="st1" d="M51.2,52.4c1.2,9,7.7,14.2,16.6,14.2c14.5,0,20.1-14.2,20.1-26.7c0-12.9-4.2-26.4-19.6-26.4
		c-10.7,0-17.9,8.2-17.9,18.7c0,4,1.2,8.2,3.9,11.4c2.9,3.2,7.4,5.3,11.7,5.3c5,0,8.7-1.7,11.5-5.7l0.1,0.1
		c-0.3,5.7-2.3,15.5-9.8,15.5c-3.6,0-6.2-2.9-6.9-6.3H51.2z M68.5,40.9c-5.3,0-7.8-4.8-7.8-9.6c0-4.6,2.8-9.3,7.8-9.3
		c5.2,0,8.2,4.7,8.2,9.5C76.8,36.5,74.1,40.9,68.5,40.9"/>
	<path class="st1" d="M10.6,81.8c0,3.9,3.2,5.6,6.7,5.6c4.3,0,6.5-2.2,6.5-5c0-3.6-3.5-4.3-4.7-4.6c-3.9-1-4.7-1.2-4.7-2.4
		c0-1.3,1.3-1.8,2.4-1.8c1.6,0,3,0.5,3.1,2.4h3.3c0-3.6-3-5.1-6.3-5.1c-2.8,0-5.9,1.5-5.9,4.7c0,2.9,2.4,3.8,4.7,4.5
		c2.3,0.6,4.7,0.9,4.7,2.6c0,1.6-1.8,2-3.1,2c-1.8,0-3.5-0.8-3.5-2.9H10.6z M36.2,75.7H33v6c0,2.3-0.7,3.3-2.4,3.3
		c-1.4,0-2-0.9-2-2.8v-6.4h-3.1v7c0,2.8,0.8,4.7,4.2,4.7c1.3,0,2.7-0.6,3.5-1.9h0.1V87h3V75.7z M46.6,87h3V71.4h-3.1v5.7h0
		c-0.7-1.1-2-1.7-3.4-1.7c-3.3,0-5,2.8-5,5.9c0,3.1,1.7,6.1,5.1,6.1c1.4,0,2.7-0.5,3.4-1.8h0V87z M46.6,81.3c0,1.9-0.6,3.7-2.7,3.7
		c-1.9,0-2.7-1.9-2.7-3.6c0-1.9,0.7-3.6,2.7-3.6C45.9,77.7,46.6,79.5,46.6,81.3"/>
</g>
</svg>
