<?xml version="1.0" encoding="utf-8"?>
<svg fill="#000000" height="128px" width="128px" version="1.1" id="Layer_1" xmlns="http://www.w3.org/2000/svg" xmlns:xlink="http://www.w3.org/1999/xlink" 
	 viewBox="0 0 128 128" xml:space="preserve">
<g>
	<rect x="0" y="0" width="128" height="128" style="fill:white;fill-opacity:1;stroke:black;stroke-width:4" />
	<path d="M97.5,110.1c-3.5,1.8-9.1,1.3-13-0.7c-5.4-2.8-8.5-2.1-14.2,0.4c-4.4,2-8.4,2-12.8,0c-5.7-2.5-8.6-3.2-14.1-0.4
		c-3.9,2.1-9.6,2.5-13.1,0.7c-6.2-3.2-10.6-3.8-15.5-0.8c0,0-2.1,1.6-6.8,1.6v11.3c2.9,0,5.2-0.6,7.2-1.8c2.5-1.5,7.2-3.1,12.7-0.3
		c5.6,2.8,10.3,2.8,15,0.4c4.7-2.5,7.3-2.9,13-0.4c5.6,2.8,11.1,2.6,15.8,0.1c5.7-2.5,8.4-2.1,13.1,0.3c4.7,2.5,9.4,2.5,15-0.4
		c5.6-2.8,10.1-1.2,12.6,0.3c2.1,1.3,4.2,1.8,7.3,1.8v-11.3c-4.7,0-6.8-1.6-6.8-1.6C108.2,106.3,103.7,106.9,97.5,110.1z"/>
	<path d="M113.1,92.8c-9.6-5.2-13.8,1.1-19,1.1V68.4l8-18.4c1.2-2.8,0-5.4-2.9-6.7l-4.8-2V25.5h-9.3v-8.4H72V5.9h-8.1h-8.1v11.2h-13
		v8.4h-9.3v15.9l-4.8,2c-2.9,1.2-4.1,3.8-2.9,6.7l8,18.4v25.6c-5.2,0-9.6-6.3-19-1h0c0,0-2.7,1.5-6.8,1.6v11
		c3.2-0.2,4.7-0.7,7.1-2.1c2.6-1.4,7.2-2.8,12.8,0c5.6,2.8,10.3,2.8,15,0.4c4.7-2.5,8.8-2.6,13.2-0.4c5.6,2.8,9.9,2.9,15.5,0.1
		c4.5-2.3,8.6-2.2,13.3,0.3c4.7,2.5,9.4,2.5,15-0.4c5.6-2.8,10.2-1.4,12.8,0c2.3,1.2,3.9,1.9,7.1,2.1V94.4
		C115.7,94.3,113.1,92.8,113.1,92.8z M87.5,38.4l-23.6-9.7l-23.6,9.7V32h9.3v-8.3h14.3h14.3V32h9.3V38.4z"/>
</g>
</svg>