<?xml version="1.0" encoding="utf-8"?>
<!-- Generator: Adobe Illustrator 27.3.1, SVG Export Plug-In . SVG Version: 6.00 Build 0)  -->
<svg version="1.1" id="Capa_1" xmlns="http://www.w3.org/2000/svg" xmlns:xlink="http://www.w3.org/1999/xlink" x="0px" y="0px"
	 viewBox="0 0 200 200" style="enable-background:new 0 0 200 200;" xml:space="preserve">
<style type="text/css">
	.st0{clip-path:url(#SVGID_00000036942726283169046110000016169736370720707765_);}
	.st1{fill:#E30613;}
	.st2{fill:#0B0907;}
	.st3{fill:none;stroke:#000000;stroke-width:4;}
	.st4{fill:#FFFFFF;}
</style>
<g>
	<defs>
		<rect id="SVGID_1_" x="-0.5" y="-0.5" width="201.1" height="201.1"/>
	</defs>
	<clipPath id="SVGID_00000130618222206302114530000001372828826309214386_">
		<use xlink:href="#SVGID_1_"  style="overflow:visible;"/>
	</clipPath>
	<path style="clip-path:url(#SVGID_00000130618222206302114530000001372828826309214386_);" d="M142.3,67.8l-25,43l-8.9,17.1
		l15.9,15.4c3.8,3.8,3.5,8.3,1.2,11.2c-1.9,2.3-6.3,3.9-10.9,0.3l-20.9-20.3c-1.8-1.3-3.1-5.5-1-8.9l9.2-19.4l-32.9,53.1
		c-2.8,4.5-6.6,5.4-10.2,3.2c-4.5-2.7-4.1-8-2.3-10.8l52-87.5l3.9-6.3L73.1,75.7c-2.8,1.3-6,0-7.3-2.7c-1.3-2.8,1.1-6.8,3.9-8.1
		l-1.2,0.8l38.7-17.7c8.1-3.7,9.4-6.6,17.6-3.2l2.2,0.9l18.8,7.9l0.4,0.2c0,0,6.4,2.9,7.4,10.3l0.1,0.8l8.6,40.6
		c0.1,0.5,0.1,0.9,0.2,1.4l39.6,0v120.7h-36.7v-16.6h-171v-15.8h15.7v-3.7l4-2.1v-4.3l-4-2.1v-3.9h26.3v3.9l-3.9,2.1v4.3l3.9,2.1
		v3.7h71.9v-3.7l4-2.1v-4.3l-4-2.1v-3.9h26.3v3.9l-3.9,2.1v4.3l3.9,2.1v3.7h30.7v-76h-14.1V107l-8.8-39.1L142.3,67.8 M127,27.6
		c2.8-6.6,10.3-9.7,16.9-6.9c6.6,2.8,9.7,10.3,6.9,16.9c-2.8,6.6-10.3,9.7-16.9,6.9C127.3,41.7,124.2,34.2,127,27.6"/>
	<path style="clip-path:url(#SVGID_00000130618222206302114530000001372828826309214386_);" d="M142.3,67.8l-25,43l-8.9,17.1
		l15.9,15.4c3.8,3.8,3.5,8.3,1.2,11.2c-1.9,2.3-6.3,3.9-10.9,0.3l-20.9-20.3c-1.8-1.3-3.1-5.5-1-8.9l9.2-19.4l-32.9,53.1
		c-2.8,4.5-6.6,5.4-10.2,3.2c-4.5-2.7-4.1-8-2.3-10.8l52-87.5l3.9-6.3L73.1,75.7c-2.8,1.3-6,0-7.3-2.7c-1.3-2.8,1.1-6.8,3.9-8.1
		l-1.2,0.8l38.7-17.7c8.1-3.7,9.4-6.6,17.6-3.2l2.2,0.9l18.8,7.9l0.4,0.2c0,0,6.4,2.9,7.4,10.3l0.1,0.8l8.6,40.6
		c0.1,0.5,0.1,0.9,0.2,1.4l39.6,0v120.7h-36.7v-16.6h-171v-15.8h15.7v-3.7l4-2.1v-4.3l-4-2.1v-3.9h26.3v3.9l-3.9,2.1v4.3l3.9,2.1
		v3.7h71.9v-3.7l4-2.1v-4.3l-4-2.1v-3.9h26.3v3.9l-3.9,2.1v4.3l3.9,2.1v3.7h30.7v-76h-14.1V107l-8.8-39.1L142.3,67.8 M127,27.6
		c2.8-6.6,10.3-9.7,16.9-6.9c6.6,2.8,9.7,10.3,6.9,16.9c-2.8,6.6-10.3,9.7-16.9,6.9C127.3,41.7,124.2,34.2,127,27.6"/>
</g>
<polygon class="st1" points="1.3,1.3 1.3,11.4 188.5,198.7 198.7,198.7 198.7,188.6 11.5,1.3 "/>
<path class="st2" d="M197.5,2.5v195H2.5V2.5H197.5 M200,0H0v200h200V0z"/>
<path d="M1144.4,2275.7c0-5.5-4.5-10-10.1-10s-10.1,4.5-10.1,10s4.5,10,10.1,10C1139.9,2285.6,1144.4,2281.2,1144.4,2275.7
	 M1174,2392.3h-5.7c0.8,2.4,3.1,4.2,5.7,4.2c4.1,0,7.5-4.4,5.4-8.6c-0.8-1.7-2.5-3-4.4-3.2c-3.2-0.4-5.9,1.4-6.6,4.1h5.7
	c1,0,1.8,0.8,1.8,1.8C1175.8,2391.5,1174.9,2392.3,1174,2392.3 M1103.6,2396.5c2.8,0,5.3-1.9,5.9-4.6c0.7-3.4-1.3-6-4.1-7v5.6
	c0,1-0.8,1.8-1.8,1.8s-1.8-0.8-1.8-1.8v-5.6c-2.4,0.8-4.2,3-4.2,5.6C1097.6,2393.7,1100.2,2396.5,1103.6,2396.5 M1099.9,2381.7v-10
	c0-1.3,0.8-2.4,1.8-3.1v-39.5c-1.5-0.6-2.8-1.9-3.1-3.7c-0.5-2.6,1.3-5.1,4.1-5.6l24.5-4.2c0,0,7.8-23,8.3-23.8
	c0.3-0.5,0.7-1,1.1-1.3c0.6-0.6,1.6-1.3,2.4-1.6c3.4-1.4,9.7-1.3,11.7,3.2l12.4,29.2c1.4,3.4,0.8,7.3-1.8,10l6.3,15.6h25.9
	c2.6,0,5.1,1.6,5.8,4c1.1,3.7-1.8,7.2-5.5,7.2h-30.1c-2.3,0-4.4-1.3-5.2-3.4l-18.8-44.9l-4.1,12c-0.6,1.8-2.1,2.9-3.9,3.2l-26.5,4.5
	v39.2c0.5,0.3,1,0.6,1.3,1.1l19.2,18.8h32.7c0.8-7.7,7.5-13.6,15.4-13.6c1,0,1.8,0.8,1.8,1.8s-0.8,1.8-1.8,1.8
	c-6,0-10.9,4.3-11.7,10h2.3c0.9-5,6-8.7,11.6-7.5c3.5,0.8,6.4,3.6,7.3,7.1c1.5,6.3-3.4,11.9-9.5,11.9c-4.7,0-8.6-3.4-9.4-7.7h-39.3
	c-0.2,0-0.5,0-0.7-0.2s-0.3-0.2-0.5-0.3l-16.7-16.5v6.3c4.1,1.7,6.7,5.8,5.9,10.6c-0.6,3.6-3.4,6.5-6.9,7.5
	c-6.5,1.7-12.4-3.1-12.4-9.3C1093.9,2386.5,1096.3,2383.2,1099.9,2381.7L1099.9,2381.7z M1151.7,2342.9l-10.7,12.4v24.9
	c0,3.9-2.9,5.6-5.7,5.6c-3.1,0-5.7-2.5-5.7-5.6l-0.1-27c0-1.4,0.5-2.7,1.5-3.7l15.9-18L1151.7,2342.9z"/>
<polygon class="st1" points="1072.8,2256 1072.8,2264.1 1221.6,2413 1229.8,2413 1229.8,2404.9 1081,2256 "/>
<rect x="1071.8" y="2255" class="st3" width="159" height="159"/>
<polygon points="1744.6,1564.3 1746.2,1565.8 1745.7,1566.3 1744.2,1564.7 "/>
<path d="M1750.6,1566.9l-1.6-1.6l-1.3,0.9l0,0c0.4,0,0.7,0.2,1,0.4c0.7,0.7,0.8,1.7-0.1,2.6c-0.7,0.7-1.8,0.8-2.7-0.1
	c-0.7-0.7-0.8-1.6-0.1-2.3l0.5,0.5c-0.4,0.4-0.3,1,0.1,1.5c0.4,0.4,1.1,0.5,1.7-0.1c0.5-0.5,0.5-1.2,0-1.7c-0.3-0.3-0.7-0.4-1.1-0.4
	l-0.4-0.4l2.4-1.6l1.9,1.9L1750.6,1566.9z"/>
<path d="M1749.5,1571.9c0.8,0.8,1.8-0.2,2.4-0.8c0.6-0.6,1.6-1.6,0.8-2.3c-0.8-0.8-1.8,0.2-2.4,0.8
	C1749.7,1570.1,1748.7,1571.1,1749.5,1571.9 M1753.1,1568.4c1.2,1.2,0.2,2.4-0.7,3.3c-0.9,0.8-2.1,1.9-3.3,0.7s-0.2-2.4,0.7-3.2
	C1750.6,1568.2,1751.8,1567.2,1753.1,1568.4"/>
<path d="M1756.3,1575.5c0.3-0.4,0.2-0.9-0.1-1.3c-0.7-0.7-1.4-0.3-2,0.2c-0.5,0.5-0.8,1.3-0.2,1.9c0.4,0.4,1,0.4,1.5,0.1l0.5,0.5
	c-0.8,0.6-1.6,0.6-2.4-0.1c-0.9-0.9-0.7-1.9,0.1-2.8c0.8-0.8,2-1.1,2.9-0.2c0.6,0.6,0.9,1.4,0.3,2.2L1756.3,1575.5z"/>
<path d="M1758.2,1575.6l0.4,0.4l-0.4,0.4l0,0c0.5-0.1,1,0,1.4,0.4c0.3,0.3,0.5,0.8,0.3,1.3c0.5-0.1,1,0,1.4,0.4
	c0.6,0.6,0.7,1.2,0.1,1.8l-2.1,2.1l-0.5-0.5l1.9-1.8c0.3-0.3,0.5-0.7,0.1-1.2c-0.4-0.4-1-0.4-1.5,0l-1.8,1.8l-0.5-0.5l1.9-1.8
	c0.4-0.4,0.5-0.7,0.1-1.2c-0.6-0.5-1.3-0.2-1.5,0l-1.8,1.8l-0.5-0.5L1758.2,1575.6z"/>
<polygon points="1760.7,1582.5 1761.3,1583.1 1760.7,1583.7 1760.1,1583.1 "/>
<path d="M1721.7,1633c-3.2,0-5.8-2.7-6.3-6.2v0.1l-5-20.8l0,0l-16-25.5h-1.2l-0.3,0.8l-18.7,40.8l-2,4.5c-1.8,3.9-3.4,8.6-8.9,7.8
	c-3.6-0.6-5.8-4.1-4.2-7.8l20.9-49.8v-36.1l-10.9,13.8v20.7c0,2.6-2.2,4.7-4.8,4.7c-2.7,0-4.8-2.1-4.8-4.7v-22.8c0,0-0.4-3.5,1-4.5
	l10.9-14.4c5-6.8,10-6.2,10-6.2h0.4h17.8h2.1c7.7,0,8.9,2.4,14.1,8l23.4,24.4l0,0c1.8,1.9,1.7,4.9-0.3,6.7c-1.9,1.8-5,1.7-6.8-0.2
	l-24.7-25.4v4.2v31.9l13,21.7l2.6,5.4l5,22.7C1728.5,1629.6,1725.8,1633.3,1721.7,1633"/>
<path d="M1684.6,1513.2c0-6.1,5.1-11.1,11.3-11.1c6.2,0,11.3,5,11.3,11.1s-5,11.1-11.3,11.1
	C1689.7,1524.3,1684.6,1519.3,1684.6,1513.2"/>
<polygon points="1764.5,1589.7 1763,1591.6 1731.5,1559.9 1733.2,1558.3 "/>
<path d="M1733.4,1559.5c-0.2,0.6-0.9,0.9-1.5,0.7c-0.6-0.2-0.9-0.9-0.7-1.5c0.2-0.6,0.9-0.9,1.5-0.7
	C1733.3,1558.3,1733.7,1558.9,1733.4,1559.5"/>
<path d="M1749.1,1612.7h17.9v15.8c0,2.6,2.1,4.7,4.7,4.7s4.7-2.1,4.7-4.7v-15.8c1.4,0,1.6-0.9,1.6-2v-11.8l-14.9-7.2h-31.7l-4.1-2.3
	c-1.3-0.7-3-0.3-3.7,1s-0.3,3,1,3.7l6.5,3.7v30.8c0,2.6,2.1,4.7,4.7,4.7s4.7-2.1,4.7-4.7v-12.1l8.6,14.3c1.3,2.2,4.2,2.9,6.5,1.6
	c2.2-1.3,3-4.2,1.6-6.4L1749.1,1612.7z"/>
<path d="M1792,1585.5l-3.2,6.7h-10.9v3.9l-13.4-6.3v-19.5l26.7,12.6C1791.2,1582.9,1792.9,1583.7,1792,1585.5"/>
<path class="st4" d="M1790.5,1585.7l-2.5,5.4h-8.7l4.3-10.5l6.3,3C1789.8,1583.6,1791.2,1584.2,1790.5,1585.7"/>
<path d="M1768.9,1545.6c-12.2,0-22.1-10.1-22.1-22.4h3.5c0,10.4,8.3,18.9,18.6,18.9c10.2,0,18.6-8.5,18.6-18.9h3.5
	C1791.1,1535.5,1781.1,1545.6,1768.9,1545.6 M1791.1,1523.1h-3.5c0-10.4-8.3-18.9-18.6-18.9c-10.2,0-18.6,8.5-18.6,18.9h-3.5
	c0-12.4,9.9-22.4,22.1-22.4S1791.1,1510.8,1791.1,1523.1"/>
<polygon points="1766.3,1529.8 1766.3,1508.6 1769.9,1508.6 1769.9,1522.2 1776.1,1517.2 1778.3,1519.9 "/>
<rect x="1645.3" y="1486.5" class="st3" width="160" height="160"/>
<polygon points="1744.6,1564.3 1746.2,1565.8 1745.7,1566.3 1744.2,1564.7 "/>
<path d="M1750.6,1566.9l-1.6-1.6l-1.3,0.9l0,0c0.4,0,0.7,0.2,1,0.4c0.7,0.7,0.8,1.7-0.1,2.6c-0.7,0.7-1.8,0.8-2.7-0.1
	c-0.7-0.7-0.8-1.6-0.1-2.3l0.5,0.5c-0.4,0.4-0.3,1,0.1,1.5c0.4,0.4,1.1,0.5,1.7-0.1c0.5-0.5,0.5-1.2,0-1.7c-0.3-0.3-0.7-0.4-1.1-0.4
	l-0.4-0.4l2.4-1.6l1.9,1.9L1750.6,1566.9z"/>
<path d="M1749.5,1571.9c0.8,0.8,1.8-0.2,2.4-0.8c0.6-0.6,1.6-1.6,0.8-2.3c-0.8-0.8-1.8,0.2-2.4,0.8
	C1749.7,1570.1,1748.7,1571.1,1749.5,1571.9 M1753.1,1568.4c1.2,1.2,0.2,2.4-0.7,3.3c-0.9,0.8-2.1,1.9-3.3,0.7s-0.2-2.4,0.7-3.2
	C1750.6,1568.2,1751.8,1567.2,1753.1,1568.4"/>
<path d="M1756.3,1575.5c0.3-0.4,0.2-0.9-0.1-1.3c-0.7-0.7-1.4-0.3-2,0.2c-0.5,0.5-0.8,1.3-0.2,1.9c0.4,0.4,1,0.4,1.5,0.1l0.5,0.5
	c-0.8,0.6-1.6,0.6-2.4-0.1c-0.9-0.9-0.7-1.9,0.1-2.8c0.8-0.8,2-1.1,2.9-0.2c0.6,0.6,0.9,1.4,0.3,2.2L1756.3,1575.5z"/>
<path d="M1758.2,1575.6l0.4,0.4l-0.4,0.4l0,0c0.5-0.1,1,0,1.4,0.4c0.3,0.3,0.5,0.8,0.3,1.3c0.5-0.1,1,0,1.4,0.4
	c0.6,0.6,0.7,1.2,0.1,1.8l-2.1,2.1l-0.5-0.5l1.9-1.8c0.3-0.3,0.5-0.7,0.1-1.2c-0.4-0.4-1-0.4-1.5,0l-1.8,1.8l-0.5-0.5l1.9-1.8
	c0.4-0.4,0.5-0.7,0.1-1.2c-0.6-0.5-1.3-0.2-1.5,0l-1.8,1.8l-0.5-0.5L1758.2,1575.6z"/>
<polygon points="1760.7,1582.5 1761.3,1583.1 1760.7,1583.7 1760.1,1583.1 "/>
<path d="M1721.7,1633c-3.2,0-5.8-2.7-6.3-6.2v0.1l-5-20.8l0,0l-16-25.5h-1.2l-0.3,0.8l-18.7,40.8l-2,4.5c-1.8,3.9-3.4,8.6-8.9,7.8
	c-3.6-0.6-5.8-4.1-4.2-7.8l20.9-49.8v-36.1l-10.9,13.8v20.7c0,2.6-2.2,4.7-4.8,4.7c-2.7,0-4.8-2.1-4.8-4.7v-22.8c0,0-0.4-3.5,1-4.5
	l10.9-14.4c5-6.8,10-6.2,10-6.2h0.4h17.8h2.1c7.7,0,8.9,2.4,14.1,8l23.4,24.4l0,0c1.8,1.9,1.7,4.9-0.3,6.7c-1.9,1.8-5,1.7-6.8-0.2
	l-24.7-25.4v4.2v31.9l13,21.7l2.6,5.4l5,22.7C1728.5,1629.6,1725.8,1633.3,1721.7,1633"/>
<path d="M1684.6,1513.2c0-6.1,5.1-11.1,11.3-11.1c6.2,0,11.3,5,11.3,11.1s-5,11.1-11.3,11.1
	C1689.7,1524.3,1684.6,1519.3,1684.6,1513.2"/>
<polygon points="1764.5,1589.7 1763,1591.6 1731.5,1559.9 1733.2,1558.3 "/>
<path d="M1733.4,1559.5c-0.2,0.6-0.9,0.9-1.5,0.7c-0.6-0.2-0.9-0.9-0.7-1.5c0.2-0.6,0.9-0.9,1.5-0.7
	C1733.3,1558.3,1733.7,1558.9,1733.4,1559.5"/>
<path d="M1749.1,1612.7h17.9v15.8c0,2.6,2.1,4.7,4.7,4.7s4.7-2.1,4.7-4.7v-15.8c1.4,0,1.6-0.9,1.6-2v-11.8l-14.9-7.2h-31.7l-4.1-2.3
	c-1.3-0.7-3-0.3-3.7,1s-0.3,3,1,3.7l6.5,3.7v30.8c0,2.6,2.1,4.7,4.7,4.7s4.7-2.1,4.7-4.7v-12.1l8.6,14.3c1.3,2.2,4.2,2.9,6.5,1.6
	c2.2-1.3,3-4.2,1.6-6.4L1749.1,1612.7z"/>
<path d="M1792,1585.5l-3.2,6.7h-10.9v3.9l-13.4-6.3v-19.5l26.7,12.6C1791.2,1582.9,1792.9,1583.7,1792,1585.5"/>
<path class="st4" d="M1790.5,1585.7l-2.5,5.4h-8.7l4.3-10.5l6.3,3C1789.8,1583.6,1791.2,1584.2,1790.5,1585.7"/>
<path d="M1768.9,1545.6c-12.2,0-22.1-10.1-22.1-22.4h3.5c0,10.4,8.3,18.9,18.6,18.9c10.2,0,18.6-8.5,18.6-18.9h3.5
	C1791.1,1535.5,1781.1,1545.6,1768.9,1545.6 M1791.1,1523.1h-3.5c0-10.4-8.3-18.9-18.6-18.9c-10.2,0-18.6,8.5-18.6,18.9h-3.5
	c0-12.4,9.9-22.4,22.1-22.4S1791.1,1510.8,1791.1,1523.1"/>
<polygon points="1766.3,1529.8 1766.3,1508.6 1769.9,1508.6 1769.9,1522.2 1776.1,1517.2 1778.3,1519.9 "/>
<rect x="1645.3" y="1486.5" class="st3" width="160" height="160"/>
</svg>
