<?xml version="1.0" encoding="utf-8"?>
<!-- Generator: Adobe Illustrator 27.3.1, SVG Export Plug-In . SVG Version: 6.00 Build 0)  -->
<svg version="1.1" id="Capa_1" xmlns="http://www.w3.org/2000/svg" xmlns:xlink="http://www.w3.org/1999/xlink" x="0px" y="0px"
	 viewBox="0 0 200 200" style="enable-background:new 0 0 200 200;" xml:space="preserve">
<style type="text/css">
	.st0{fill:#E30613;}
	.st1{fill:#0B0907;}
	.st2{fill:none;stroke:#000000;stroke-width:4;}
</style>
<path d="M91.4,26c0-6.9-5.7-12.5-12.7-12.5c-7,0-12.7,5.6-12.7,12.5c0,6.9,5.7,12.5,12.7,12.5C85.7,38.5,91.4,32.9,91.4,26
	 M128.5,172.7h-7.2c1,3,3.9,5.2,7.2,5.2c5.2,0,9.4-5.5,6.8-10.8c-1.1-2.1-3.2-3.7-5.6-4.1c-4-0.6-7.4,1.8-8.3,5.2h7.2
	c1.2,0,2.2,1,2.2,2.2C130.7,171.7,129.7,172.7,128.5,172.7 M40,178c3.5,0,6.7-2.4,7.4-5.8c0.9-4.3-1.6-7.6-5.1-8.8v7.1
	c0,1.2-1,2.2-2.2,2.2c-1.2,0-2.2-1-2.2-2.2v-7.1c-3.1,1-5.3,3.8-5.3,7.1C32.5,174.5,35.7,178,40,178 M35.3,159.4v-12.5
	c0-1.6,1-3,2.2-3.8V93.4c-1.8-0.8-3.5-2.4-3.9-4.6c-0.6-3.2,1.6-6.5,5.1-7.1l30.9-5.2c0,0,9.8-28.9,10.4-29.9
	c0.4-0.6,0.8-1.2,1.4-1.6c0.8-0.8,2-1.6,3.1-2c4.3-1.8,12.2-1.7,14.7,4l15.6,36.7c1.8,4.3,0.9,9.2-2.2,12.6l7.9,19.6l32.6,0
	c3.3,0,6.4,2,7.3,5.1c1.4,4.6-2.3,9.1-6.9,9.1h-37.8c-2.9,0-5.5-1.6-6.5-4.2L85.6,69.1l-5.1,15.1c-0.8,2.2-2.7,3.6-4.9,4L42.3,94
	v49.3c0.6,0.4,1.2,0.8,1.6,1.4L68,168.3h41.1c1-9.7,9.4-17.2,19.4-17.2c1.2,0,2.2,1,2.2,2.2c0,1.2-1,2.2-2.2,2.2
	c-7.6,0-13.7,5.5-14.7,12.5h2.9c1.2-6.3,7.5-11,14.6-9.4c4.5,1,8.1,4.5,9.1,8.9c1.9,7.9-4.2,15-11.9,15c-5.9,0-10.8-4.2-11.9-9.7
	H67.2c-0.2,0-0.6,0-0.8-0.2c-0.2-0.2-0.4-0.2-0.6-0.4l-21-20.8v7.9c5.1,2.1,8.4,7.3,7.4,13.3c-0.8,4.5-4.3,8.2-8.7,9.4
	c-8.2,2.2-15.6-3.9-15.6-11.7C27.8,165.4,30.8,161.2,35.3,159.4L35.3,159.4z M100.5,110.5L87,126.1v31.3c0,4.8-3.7,7.1-7.2,7.1
	c-4,0-7.2-3.2-7.2-7.1l-0.2-33.9c0-1.8,0.6-3.4,1.8-4.6l20-22.6L100.5,110.5z"/>
<polygon class="st0" points="1.3,1.3 1.3,11.4 188.5,198.7 198.7,198.7 198.7,188.6 11.5,1.3 "/>
<path class="st1" d="M197.5,2.5v195H2.5V2.5H197.5 M200,0H0v200h200V0z"/>
<path d="M1144.4,2275.7c0-5.5-4.5-10-10.1-10c-5.6,0-10.1,4.5-10.1,10c0,5.5,4.5,10,10.1,10
	C1139.9,2285.6,1144.4,2281.2,1144.4,2275.7 M1174,2392.3h-5.7c0.8,2.4,3.1,4.2,5.7,4.2c4.1,0,7.5-4.4,5.4-8.6
	c-0.8-1.7-2.5-3-4.4-3.2c-3.2-0.4-5.9,1.4-6.6,4.1h5.7c1,0,1.8,0.8,1.8,1.8C1175.8,2391.5,1174.9,2392.3,1174,2392.3 M1103.6,2396.5
	c2.8,0,5.3-1.9,5.9-4.6c0.7-3.4-1.3-6-4.1-7v5.6c0,1-0.8,1.8-1.8,1.8c-1,0-1.8-0.8-1.8-1.8v-5.6c-2.4,0.8-4.2,3-4.2,5.6
	C1097.6,2393.7,1100.2,2396.5,1103.6,2396.5 M1099.9,2381.7v-10c0-1.3,0.8-2.4,1.8-3.1v-39.5c-1.5-0.6-2.8-1.9-3.1-3.7
	c-0.5-2.6,1.3-5.1,4.1-5.6l24.5-4.2c0,0,7.8-23,8.3-23.8c0.3-0.5,0.7-1,1.1-1.3c0.6-0.6,1.6-1.3,2.4-1.6c3.4-1.4,9.7-1.3,11.7,3.2
	l12.4,29.2c1.4,3.4,0.8,7.3-1.8,10l6.3,15.6l25.9,0c2.6,0,5.1,1.6,5.8,4c1.1,3.7-1.8,7.2-5.5,7.2h-30.1c-2.3,0-4.4-1.3-5.2-3.4
	l-18.8-44.9l-4.1,12c-0.6,1.8-2.1,2.9-3.9,3.2l-26.5,4.5v39.2c0.5,0.3,1,0.6,1.3,1.1l19.2,18.8h32.7c0.8-7.7,7.5-13.6,15.4-13.6
	c1,0,1.8,0.8,1.8,1.8c0,1-0.8,1.8-1.8,1.8c-6,0-10.9,4.3-11.7,10h2.3c0.9-5,6-8.7,11.6-7.5c3.5,0.8,6.4,3.6,7.3,7.1
	c1.5,6.3-3.4,11.9-9.5,11.9c-4.7,0-8.6-3.4-9.4-7.7h-39.3c-0.2,0-0.5,0-0.7-0.2c-0.2-0.2-0.3-0.2-0.5-0.3l-16.7-16.5v6.3
	c4.1,1.7,6.7,5.8,5.9,10.6c-0.6,3.6-3.4,6.5-6.9,7.5c-6.5,1.7-12.4-3.1-12.4-9.3C1093.9,2386.5,1096.3,2383.2,1099.9,2381.7
	L1099.9,2381.7z M1151.7,2342.9l-10.7,12.4v24.9c0,3.9-2.9,5.6-5.7,5.6c-3.1,0-5.7-2.5-5.7-5.6l-0.1-27c0-1.4,0.5-2.7,1.5-3.7
	l15.9-18L1151.7,2342.9z"/>
<polygon class="st0" points="1072.8,2256 1072.8,2264.1 1221.6,2413 1229.8,2413 1229.8,2404.9 1081,2256 "/>
<rect x="1071.8" y="2255" class="st2" width="159" height="159"/>
</svg>
