<?xml version="1.0" encoding="utf-8"?>
<!-- Generator: Adobe Illustrator 27.3.1, SVG Export Plug-In . SVG Version: 6.00 Build 0)  -->
<svg version="1.1" id="Capa_1" xmlns="http://www.w3.org/2000/svg" xmlns:xlink="http://www.w3.org/1999/xlink" x="0px" y="0px"
	 viewBox="0 0 200 200" style="enable-background:new 0 0 200 200;" xml:space="preserve">
<style type="text/css">
	.st0{fill:#E30613;}
	.st1{fill:#0B0907;}
</style>
<g>
	<path d="M155.1,46.6c8,0.9,15.2-4.7,16.1-12.6c0.9-7.9-4.8-15.1-12.7-16c-8-0.9-15.2,4.7-16.1,12.6
		C141.4,38.5,147.1,45.6,155.1,46.6"/>
	<path d="M107.5,108.1c-11.5,10.4-26.6-7.5-15.4-16.7l32-31.9l3.4-18.7L44.7,27.3L18.6,171.5l82.7,13.6l15.5-85.6L107.5,108.1z"/>
	<path d="M172.3,170.4L172.3,170.4l-14.2-22.8l4-31.3l0.1,0l1.1-9.2l5.2-43.6c0,0,2.5-10.3-8-11.8l-13.8-1.4c0,0-6.8-0.7-9.7,3
		c0,0,0,0,0,0L137,53L95.1,94.9l0,0c-2.4,2.7-2.2,6.9,0.6,9.3c2.8,2.4,7,2.2,9.4-0.6l28.3-26.9l-4.3,36.2l-0.1,0L107,175.5l0,0
		c-1.6,4.5,0.4,9.3,4.9,10.8c4.5,1.5,9.2-0.9,10.8-5.3l0-0.1l2.1-6l18.8-56.7h1.2l-3.8,31.9c0,0-0.3,2.6,1.3,5l15.8,24l0.1,0.1
		c2.5,4,7.7,5.3,11.7,2.8C174,179.5,174.9,174.4,172.3,170.4"/>
	<polygon class="st0" points="2.4,2.4 2.4,12.4 187.5,197.6 197.6,197.6 197.6,187.6 12.5,2.4 	"/>
</g>
<path class="st1" d="M197.5,2.5v195H2.5V2.5H197.5 M200,0H0v200h200V0z"/>
</svg>
