<?xml version="1.0" encoding="utf-8"?>
<!-- Generator: Adobe Illustrator 26.5.0, SVG Export Plug-In . SVG Version: 6.00 Build 0)  -->
<svg version="1.1" id="Capa_1" xmlns="http://www.w3.org/2000/svg" xmlns:xlink="http://www.w3.org/1999/xlink" x="0px" y="0px"
	 viewBox="0 0 100 100" style="enable-background:new 0 0 100 100;" xml:space="preserve">
<style type="text/css">
	.st0{fill-rule:evenodd;clip-rule:evenodd;fill:#8BC2E6;}
	.st1{fill-rule:evenodd;clip-rule:evenodd;fill:#FFFFFF;}
</style>
<g>
	<rect x="0" y="0" class="st0" width="100" height="100"/>
	<path class="st1" d="M13.61,75.51h11.56V55.1h11.56c5.44,0,7.48,2.72,8.16,8.16c0.68,4.08,0.68,8.84,2.04,12.24H58.5
		c-2.04-2.72-2.04-8.84-2.04-12.24c-0.68-5.44-2.04-10.88-7.48-12.24c5.44-2.72,8.16-6.8,8.16-12.93c0-8.16-6.12-14.29-15.65-14.29
		H13.61V75.51z M25.17,32.65h12.24c5.44,0,8.16,2.04,8.16,6.8c0,5.44-2.72,7.48-8.16,7.48H25.17V32.65z"/>
	<path class="st1" d="M85.03,24.49h-8.84c-0.68,8.16-7.48,10.2-14.97,10.2v7.48h12.93v33.33h10.88V24.49z"/>
</g>
</svg>
