<?xml version="1.0" encoding="UTF-8" standalone="no"?>
<svg
   xmlns:dc="http://purl.org/dc/elements/1.1/"
   xmlns:cc="http://creativecommons.org/ns#"
   xmlns:rdf="http://www.w3.org/1999/02/22-rdf-syntax-ns#"
   xmlns:svg="http://www.w3.org/2000/svg"
   xmlns="http://www.w3.org/2000/svg"
   id="svg3233"
   version="1.1"
   viewBox="0 0 64 64"
   height="64"
   width="64">
  <metadata
     id="metadata3251">
    <rdf:RDF>
      <cc:Work
         rdf:about="">
        <dc:format>image/svg+xml</dc:format>
        <dc:type
           rdf:resource="http://purl.org/dc/dcmitype/StillImage" />
        <dc:title></dc:title>
      </cc:Work>
    </rdf:RDF>
  </metadata>
  <defs
     id="defs3249" />
  <g
     style="stroke-width:2.5"
     transform="matrix(0.07356322,0,0,0.07356322,0,-0.07356367)"
     id="#ffffffff">
    <path
       style="fill:#ffffff;stroke-width:2.5"
       id="path3236"
       d="m 43.36,261.59 c 58.89,-0.01 117.79,0 176.68,-0.01 7.68,-0.23 15.34,0.34 23.02,0.63 22.14,1.77 44.09,10.09 60.67,25.11 17,15.18 27.72,36.95 30.01,59.58 1.83,18.66 -0.16,38.02 -7.53,55.37 -6.58,15.5 -18.51,28.5 -33.02,36.94 -4.59,2.95 -9.71,4.89 -14.53,7.38 14.01,3.37 26.68,12.01 34.66,24.04 10.47,15.35 14.33,34.05 16.25,52.24 1.58,20.35 1.28,40.91 5.16,61.03 1.85,9.47 4.55,19 9.96,27.1 -25.8,-0.03 -51.61,0.05 -77.42,-0.04 -6.48,-16.5 -7.58,-34.42 -9.06,-51.89 -1.67,-18.12 -2.09,-36.77 -8.56,-54 -3.61,-9.83 -10.28,-18.87 -19.79,-23.64 -8.86,-4.67 -19,-5.88 -28.86,-6.43 -26.78,0 -53.57,0 -80.35,0 0,45.33 -0.02,90.65 0.01,135.98 -25.77,0.04 -51.54,0.02 -77.31,0.01 0.02,-116.47 -0.02,-232.94 0.01,-349.4 m 77.29,60.24 c 0,32.72 -0.01,65.45 0,98.17 26.47,0.01 52.95,-0.02 79.42,0.01 4.3,0.13 8.57,-0.49 12.87,-0.58 12.21,-0.85 25.07,-4.69 33.41,-14.14 8.67,-9.87 10.9,-23.58 10.83,-36.3 -0.23,-12.19 -3.03,-25.32 -12.09,-34.11 -9.65,-9.71 -23.91,-12.46 -37.08,-13.03 -29.12,-0.04 -58.24,0 -87.36,-0.02 z" />
    <path
       style="fill:#ffffff;stroke-width:2.5"
       id="path3238"
       d="m 492.23,269 c 18.54,0.01 37.07,-0.01 55.61,0.01 -0.01,113.99 -0.01,227.99 0,341.98 -23.28,0.02 -46.56,0.01 -69.84,0.01 0,-74 0,-148 0,-222 -28.67,0 -57.33,0 -86,0 0.01,-17.55 -0.02,-35.1 0.01,-52.65 18.57,0.48 37.52,-1.58 54.84,-8.63 14.04,-5.64 26.73,-15.25 34.67,-28.28 5.82,-9.19 8.95,-19.78 10.71,-30.44 z" />
    <path
       style="fill:#ffffff;stroke-width:2.5"
       id="path3240"
       d="m 725.23,269 c 18.54,0.01 37.07,-0.01 55.61,0.01 0,113.99 -0.01,227.99 0,341.98 -23.28,0.02 -46.56,0.01 -69.84,0.01 0,-74 0,-148 0,-222 -28.67,0 -57.33,0 -86,0 0,-17.55 -0.02,-35.1 0.01,-52.65 20.99,0.52 42.66,-2.14 61.59,-11.73 13.24,-6.61 24.49,-17.37 31.01,-30.72 4,-7.79 6.13,-16.33 7.62,-24.9 z" />
  </g>
  <g
     style="stroke-width:2.5"
     transform="matrix(0.07356322,0,0,0.07356322,0,-0.07356367)"
     id="#0064a5ff">
    <path
       style="fill:#0064a5;stroke-width:2.5"
       id="path3243"
       d="m 0,1 c 290,0 580,0 870,0 v 870 c -290,0 -580,0 -870,0 V 1 m 43.36,260.59 c -0.03,116.46 0.01,232.93 -0.01,349.4 25.77,0.01 51.54,0.03 77.31,-0.01 -0.03,-45.33 -0.01,-90.65 -0.01,-135.98 26.78,0 53.57,0 80.35,0 9.86,0.55 20,1.76 28.86,6.43 9.51,4.77 16.18,13.81 19.79,23.64 6.47,17.23 6.89,35.88 8.56,54 1.48,17.47 2.58,35.39 9.06,51.89 25.81,0.09 51.62,0.01 77.42,0.04 -5.41,-8.1 -8.11,-17.63 -9.96,-27.1 -3.88,-20.12 -3.58,-40.68 -5.16,-61.03 -1.92,-18.19 -5.78,-36.89 -16.25,-52.24 -7.98,-12.03 -20.65,-20.67 -34.66,-24.04 4.82,-2.49 9.94,-4.43 14.53,-7.38 14.51,-8.44 26.44,-21.44 33.02,-36.94 7.37,-17.35 9.36,-36.71 7.53,-55.37 -2.29,-22.63 -13.01,-44.4 -30.01,-59.58 -16.58,-15.02 -38.53,-23.34 -60.67,-25.11 -7.68,-0.29 -15.34,-0.86 -23.02,-0.63 -58.89,0.01 -117.79,0 -176.68,0.01 M 492.23,269 c -1.76,10.66 -4.89,21.25 -10.71,30.44 -7.94,13.03 -20.63,22.64 -34.67,28.28 -17.32,7.05 -36.27,9.11 -54.84,8.63 -0.03,17.55 0,35.1 -0.01,52.65 28.67,0 57.33,0 86,0 0,74 0,148 0,222 23.28,0 46.56,0.01 69.84,-0.01 -0.01,-113.99 -0.01,-227.99 0,-341.98 -18.54,-0.02 -37.07,0 -55.61,-0.01 m 233,0 c -1.49,8.57 -3.62,17.11 -7.62,24.9 -6.52,13.35 -17.77,24.11 -31.01,30.72 -18.93,9.59 -40.6,12.25 -61.59,11.73 -0.03,17.55 -0.01,35.1 -0.01,52.65 28.67,0 57.33,0 86,0 0,74 0,148 0,222 23.28,0 46.56,0.01 69.84,-0.01 -0.01,-113.99 0,-227.99 0,-341.98 -18.54,-0.02 -37.07,0 -55.61,-0.01 z" />
    <path
       style="fill:#0064a5;stroke-width:2.5"
       id="path3245"
       d="m 120.65,321.83 c 29.12,0.02 58.24,-0.02 87.36,0.02 13.17,0.57 27.43,3.32 37.08,13.03 9.06,8.79 11.86,21.92 12.09,34.11 0.07,12.72 -2.16,26.43 -10.83,36.3 -8.34,9.45 -21.2,13.29 -33.41,14.14 -4.3,0.09 -8.57,0.71 -12.87,0.58 -26.47,-0.03 -52.95,0 -79.42,-0.01 -0.01,-32.72 0,-65.45 0,-98.17 z" />
  </g>
</svg>
