<?xml version="1.0" encoding="utf-8"?>
<!-- Generator: Adobe Illustrator 26.5.0, SVG Export Plug-In . SVG Version: 6.00 Build 0)  -->
<svg version="1.1" id="Capa_1" xmlns="http://www.w3.org/2000/svg" xmlns:xlink="http://www.w3.org/1999/xlink" x="0px" y="0px"
	 viewBox="0 0 100 100" style="enable-background:new 0 0 100 100;" xml:space="preserve">
<style type="text/css">
	.st0{fill-rule:evenodd;clip-rule:evenodd;fill:#0266A7;}
	.st1{fill-rule:evenodd;clip-rule:evenodd;fill:#FFFFFF;}
</style>
<g>
	<rect x="0" y="-0.34" class="st0" width="100" height="100.69"/>
	<path class="st1" d="M8.22,70.21h8.9V54.45h8.22c4.79,0,6.16,2.05,6.85,6.16c0,3.42,0,6.85,1.37,9.59h8.22
		c-1.37-2.74-1.37-6.85-1.37-9.59c0-4.11-1.37-8.22-5.48-8.9c4.11-2.05,6.16-5.48,6.16-10.27c0-6.16-4.79-10.96-11.64-10.96H8.22
		V70.21z M17.12,37.33h8.9c4.11,0,6.16,2.05,6.16,5.48c0,4.11-2.05,5.48-6.16,5.48h-8.9V37.33z"/>
	<path class="st1" d="M63.01,31.16h-6.16c-0.68,6.16-6.16,8.22-11.64,8.22v5.48h10.27v25.34h7.53V31.16z"/>
	<path class="st1" d="M88.36,31.16h-6.85c-0.68,6.16-5.48,8.22-10.96,8.22v5.48h9.59v25.34h8.22V31.16z"/>
</g>
</svg>
