<?xml version="1.0" encoding="UTF-8" standalone="no"?>
<svg
   xmlns:dc="http://purl.org/dc/elements/1.1/"
   xmlns:cc="http://creativecommons.org/ns#"
   xmlns:rdf="http://www.w3.org/1999/02/22-rdf-syntax-ns#"
   xmlns:svg="http://www.w3.org/2000/svg"
   xmlns="http://www.w3.org/2000/svg"
   id="svg3065"
   version="1.1"
   viewBox="0 0 64 64"
   height="64"
   width="64">
  <metadata
     id="metadata3083">
    <rdf:RDF>
      <cc:Work
         rdf:about="">
        <dc:format>image/svg+xml</dc:format>
        <dc:type
           rdf:resource="http://purl.org/dc/dcmitype/StillImage" />
        <dc:title></dc:title>
      </cc:Work>
    </rdf:RDF>
  </metadata>
  <defs
     id="defs3081" />
  <g
     style="stroke-width:2.49999952"
     transform="matrix(0.07355705,0,0,0.07355737,-0.43762675,-0.43773797)"
     id="#ffdc00ff">
    <path
       style="fill:#ffdc00;stroke-width:2.49999952"
       id="path3075"
       d="M 6.11,6.12 C 10.41,5.84 14.7,5.99 19,6 217.67,6 416.33,6 615,6 701.96,6.08 788.93,5.84 875.88,6.12 876.16,106.4 875.92,206.71 876,307 c 0,155 0,310 0,465 -0.08,34.63 0.16,69.26 -0.11,103.88 C 826.6,876.16 777.3,875.92 728,876 552,876 376,876 200,876 135.37,875.92 70.74,876.16 6.12,875.88 5.84,776.26 6.08,676.62 6,577 6,391 6,205 6,19 5.99,14.71 5.84,10.41 6.11,6.12 m 59.25,260.93 c -0.07,116.23 -0.04,232.48 -0.01,348.71 9.2,0.6 18.44,0.06 27.65,0.24 16.55,-0.18 33.12,0.35 49.65,-0.25 0.07,-29.58 -0.01,-59.17 0.02,-88.75 0.18,-15.63 -0.34,-31.27 0.24,-46.88 21.03,-0.3 42.06,-0.03 63.09,-0.11 16.01,-0.02 33.22,-0.84 47.59,7.43 11.64,6.61 17.94,19.41 20.96,31.98 5.54,23.18 4.69,47.24 8.27,70.71 1.34,8.69 2.87,17.52 6.46,25.61 2.23,0.2 4.47,0.35 6.71,0.32 23.4,-0.21 46.8,0.12 70.19,-0.16 -2.42,-5.37 -5.33,-10.55 -6.81,-16.29 -9.31,-31.58 -3.66,-65.25 -12.13,-96.97 -3.75,-14.04 -10.21,-27.88 -21.18,-37.73 -6.98,-6.59 -15.86,-10.68 -24.99,-13.34 4.62,-2.63 9.61,-4.54 14.14,-7.33 13.82,-8.12 25.46,-20.25 32.11,-34.91 7.51,-16.25 9.72,-34.54 8.86,-52.28 -1.17,-24.23 -11.9,-47.97 -29.9,-64.33 -16.94,-15.41 -39.45,-24.11 -62.2,-25.53 -7.02,-0.39 -14.05,-0.69 -21.08,-0.59 -54.67,0.03 -109.33,0.01 -164,0.02 -4.54,0.03 -9.13,-0.41 -13.64,0.43 M 670,275.99 c -18.59,7.38 -35.1,19.92 -47.02,36 -19.79,26.66 -27.57,60.86 -25.74,93.66 22.12,0.02 44.24,0.08 66.36,-0.03 0.86,-10.97 1.19,-22.09 4.19,-32.76 3.88,-14.9 11.2,-29.94 24.39,-38.67 21.67,-13.9 54.31,-7.57 68.27,14.39 9.43,14.87 10.9,34.19 4.86,50.61 -4.26,11.92 -12.51,21.95 -21.73,30.42 -14.7,13.42 -32.09,23.32 -48.45,34.5 -24.68,16.84 -49.82,33.71 -70.06,55.93 -12.89,14.14 -23.1,30.82 -28.96,49.07 -4.75,15.06 -7.24,30.92 -6.88,46.72 40.91,0.41 81.85,0.05 122.77,0.17 42.92,-0.12 85.85,0.24 128.76,-0.17 0.08,-19.85 0.16,-39.71 -0.04,-59.55 -53.61,-0.36 -107.25,0.22 -160.86,-0.29 1.67,-2.93 3.72,-5.63 5.94,-8.17 9.76,-11.59 21.27,-21.6 33.48,-30.55 27.77,-20.7 59.32,-36.39 84.46,-60.54 12.78,-12.23 23.2,-27.12 29.04,-43.89 5.91,-16.92 7.2,-35.2 5.32,-52.95 -2.46,-21.07 -11.52,-41.41 -26.18,-56.81 -22.19,-23.65 -54.87,-35.85 -86.96,-36.17 -18.67,-0.5 -37.59,2.02 -54.96,9.08 m -187.77,-1.77 c -1.86,8.84 -3.82,17.8 -8.22,25.79 -7.06,13.7 -19.11,24.5 -33.05,30.89 -18.29,8.45 -38.75,10.9 -58.72,10.45 -0.58,7.2 -0.1,14.43 -0.24,21.65 0.11,10.29 -0.22,20.59 0.12,30.88 28.58,0.38 57.18,-0.13 85.76,0.23 0.36,73.92 -0.12,147.86 0.24,221.77 23.2,0.17 46.44,0.28 69.64,-0.06 0.1,-113.87 0.1,-227.77 0,-341.65 -4.25,-0.33 -8.51,-0.19 -12.76,-0.17 -14.25,0.18 -28.53,-0.34 -42.77,0.22 z" />
    <path
       style="fill:#ffdc00;stroke-width:2.49999952"
       id="path3077"
       d="m 142.93,327.04 c 1.69,-0.11 3.38,-0.23 5.08,-0.26 26.98,0.11 53.97,-0.03 80.96,0.08 13.3,0.37 27.64,3.09 37.62,12.55 9.58,9.08 12.55,22.86 12.6,35.59 -0.19,11.48 -2,23.64 -9.1,33.04 -6.65,9.06 -17.61,13.88 -28.46,15.59 -14.8,1.94 -29.75,1.26 -44.63,1.37 -18.03,-0.11 -36.06,0.2 -54.09,-0.13 -0.12,-1.62 -0.25,-3.25 -0.27,-4.86 0.07,-25.67 0.01,-51.34 0.04,-77.01 0.04,-5.32 -0.29,-10.65 0.25,-15.96 z" />
  </g>
  <g
     style="fill:#1a1a1a;stroke-width:2.49999952"
     transform="matrix(0.07355705,0,0,0.07355737,-0.43762675,-0.43773797)"
     id="#ffffffff">
    <path
       style="fill:#1a1a1a;stroke:#1a1a1a;stroke-width:10.87588882;stroke-miterlimit:4;stroke-dasharray:none;stroke-opacity:1"
       id="path3068"
       d="m 65.36,267.05 c 4.51,-0.84 9.1,-0.4 13.64,-0.43 54.67,-0.01 109.33,0.01 164,-0.02 7.03,-0.1 14.06,0.2 21.08,0.59 22.75,1.42 45.26,10.12 62.2,25.53 18,16.36 28.73,40.1 29.9,64.33 0.86,17.74 -1.35,36.03 -8.86,52.28 -6.65,14.66 -18.29,26.79 -32.11,34.91 -4.53,2.79 -9.52,4.7 -14.14,7.33 9.13,2.66 18.01,6.75 24.99,13.34 10.97,9.85 17.43,23.69 21.18,37.73 8.47,31.72 2.82,65.39 12.13,96.97 1.48,5.74 4.39,10.92 6.81,16.29 -23.39,0.28 -46.79,-0.05 -70.19,0.16 -2.24,0.03 -4.48,-0.12 -6.71,-0.32 -3.59,-8.09 -5.12,-16.92 -6.46,-25.61 -3.58,-23.47 -2.73,-47.53 -8.27,-70.71 -3.02,-12.57 -9.32,-25.37 -20.96,-31.98 -14.37,-8.27 -31.58,-7.45 -47.59,-7.43 -21.03,0.08 -42.06,-0.19 -63.09,0.11 -0.58,15.61 -0.06,31.25 -0.24,46.88 -0.03,29.58 0.05,59.17 -0.02,88.75 -16.53,0.6 -33.1,0.07 -49.65,0.25 -9.21,-0.18 -18.45,0.36 -27.65,-0.24 -0.03,-116.23 -0.06,-232.48 0.01,-348.71 m 77.57,59.99 c -0.54,5.31 -0.21,10.64 -0.25,15.96 -0.03,25.67 0.03,51.34 -0.04,77.01 0.02,1.61 0.15,3.24 0.27,4.86 18.03,0.33 36.06,0.02 54.09,0.13 14.88,-0.11 29.83,0.57 44.63,-1.37 10.85,-1.71 21.81,-6.53 28.46,-15.59 7.1,-9.4 8.91,-21.56 9.1,-33.04 -0.05,-12.73 -3.02,-26.51 -12.6,-35.59 -9.98,-9.46 -24.32,-12.18 -37.62,-12.55 -26.99,-0.11 -53.98,0.03 -80.96,-0.08 -1.7,0.03 -3.39,0.15 -5.08,0.26 z" />
    <path
       style="fill:#1a1a1a;stroke:#1a1a1a;stroke-width:10.87588882;stroke-miterlimit:4;stroke-dasharray:none;stroke-opacity:1"
       id="path3070"
       d="m 670,275.99 c 17.37,-7.06 36.29,-9.58 54.96,-9.08 32.09,0.32 64.77,12.52 86.96,36.17 14.66,15.4 23.72,35.74 26.18,56.81 1.88,17.75 0.59,36.03 -5.32,52.95 -5.84,16.77 -16.26,31.66 -29.04,43.89 -25.14,24.15 -56.69,39.84 -84.46,60.54 -12.21,8.95 -23.72,18.96 -33.48,30.55 -2.22,2.54 -4.27,5.24 -5.94,8.17 53.61,0.51 107.25,-0.07 160.86,0.29 0.2,19.84 0.12,39.7 0.04,59.55 -42.91,0.41 -85.84,0.05 -128.76,0.17 -40.92,-0.12 -81.86,0.24 -122.77,-0.17 -0.36,-15.8 2.13,-31.66 6.88,-46.72 5.86,-18.25 16.07,-34.93 28.96,-49.07 20.24,-22.22 45.38,-39.09 70.06,-55.93 16.36,-11.18 33.75,-21.08 48.45,-34.5 9.22,-8.47 17.47,-18.5 21.73,-30.42 6.04,-16.42 4.57,-35.74 -4.86,-50.61 -13.96,-21.96 -46.6,-28.29 -68.27,-14.39 -13.19,8.73 -20.51,23.77 -24.39,38.67 -3,10.67 -3.33,21.79 -4.19,32.76 -22.12,0.11 -44.24,0.05 -66.36,0.03 -1.83,-32.8 5.95,-67 25.74,-93.66 11.92,-16.08 28.43,-28.62 47.02,-36 z" />
    <path
       style="fill:#1a1a1a;stroke:#1a1a1a;stroke-width:10.87588882;stroke-miterlimit:4;stroke-dasharray:none;stroke-opacity:1"
       id="path3072"
       d="m 482.23,274.22 c 14.24,-0.56 28.52,-0.04 42.77,-0.22 4.25,-0.02 8.51,-0.16 12.76,0.17 0.1,113.88 0.1,227.78 0,341.65 -23.2,0.34 -46.44,0.23 -69.64,0.06 -0.36,-73.91 0.12,-147.85 -0.24,-221.77 -28.58,-0.36 -57.18,0.15 -85.76,-0.23 -0.34,-10.29 -0.01,-20.59 -0.12,-30.88 0.14,-7.22 -0.34,-14.45 0.24,-21.65 19.97,0.45 40.43,-2 58.72,-10.45 13.94,-6.39 25.99,-17.19 33.05,-30.89 4.4,-7.99 6.36,-16.95 8.22,-25.79 z" />
  </g>
</svg>
