<?xml version="1.0" encoding="utf-8"?>
<!-- Generator: Adobe Illustrator 26.5.0, SVG Export Plug-In . SVG Version: 6.00 Build 0)  -->
<svg version="1.1" id="Capa_1" xmlns="http://www.w3.org/2000/svg" xmlns:xlink="http://www.w3.org/1999/xlink" x="0px" y="0px"
	 viewBox="0 0 100 100" style="enable-background:new 0 0 100 100;" xml:space="preserve">
<style type="text/css">
	.st0{fill-rule:evenodd;clip-rule:evenodd;fill:#FFDD08;}
	.st1{fill-rule:evenodd;clip-rule:evenodd;fill:#020203;}
</style>
<g>
	<rect x="0" y="0" class="st0" width="100" height="100"/>
	<path class="st1" d="M8.9,69.86h8.9V54.79h8.9c4.11,0,5.48,1.37,6.16,5.48c0.68,3.42,0.68,6.85,1.37,9.59h8.9
		c-1.37-2.05-1.37-6.85-2.05-9.59c0-3.42-1.37-7.53-5.48-8.9c4.11-2.05,6.16-5.48,6.16-10.27c0-5.48-4.11-10.27-11.64-10.27H8.9
		V69.86z M17.81,36.99h9.59c4.11,0,6.16,2.05,6.16,5.48c0,4.11-2.05,6.16-6.16,6.16h-9.59V36.99z"/>
	<path class="st1" d="M60.96,31.51h-6.16c-0.68,5.48-5.48,7.53-10.96,7.53v5.48h9.59v25.34h7.53V31.51z"/>
	<path class="st1" d="M73.97,45.89c0-4.11,2.05-8.9,6.16-8.9c3.42,0,6.16,2.74,6.16,6.16c0,4.79-4.79,6.85-8.22,9.59
		c-6.85,4.11-12.33,8.22-12.33,17.12h28.77v-6.85H76.03c2.74-4.11,7.53-6.16,10.96-8.9c4.11-2.74,6.85-5.48,6.85-11.64
		c0-7.53-6.16-11.64-13.01-11.64c-9.59,0-14.38,6.16-13.7,15.07H73.97z"/>
</g>
</svg>
