<?xml version="1.0" encoding="UTF-8" standalone="no"?>
<svg
   xmlns:dc="http://purl.org/dc/elements/1.1/"
   xmlns:cc="http://creativecommons.org/ns#"
   xmlns:rdf="http://www.w3.org/1999/02/22-rdf-syntax-ns#"
   xmlns:svg="http://www.w3.org/2000/svg"
   xmlns="http://www.w3.org/2000/svg"
   id="svg3373"
   version="1.1"
   viewBox="0 0 64 64"
   height="64"
   width="64">
  <metadata
     id="metadata3391">
    <rdf:RDF>
      <cc:Work
         rdf:about="">
        <dc:format>image/svg+xml</dc:format>
        <dc:type
           rdf:resource="http://purl.org/dc/dcmitype/StillImage" />
        <dc:title></dc:title>
      </cc:Work>
    </rdf:RDF>
  </metadata>
  <defs
     id="defs3389" />
  <g
     style="stroke-width:2.5"
     transform="matrix(0.07356142,0,0,0.07356163,-0.14647388,-0.44081831)"
     id="#ffffffff">
    <path
       style="fill:#ffffff;stroke-width:2.5"
       id="path3376"
       d="m 61.31,267.26 c 0.42,-0.14 1.26,-0.41 1.68,-0.55 60.34,-0.11 120.68,-0.01 181.01,-0.05 13.86,0.02 27.87,0.96 41.15,5.21 19.32,5.9 36.98,17.71 48.9,34.13 14.02,18.73 19.85,42.82 17.99,65.97 -0.78,15.98 -4.88,32.04 -13.32,45.73 -9.08,14.53 -23.11,25.52 -38.77,32.23 -0.8,0.68 -2.9,0.53 -2.67,1.94 13.77,3.33 26.25,11.94 34.02,23.82 11.17,16.52 15.03,36.72 16.46,56.28 0.98,13.81 0.94,27.69 2.74,41.44 1.08,11.99 3.33,23.98 7.99,35.13 1.04,2.53 3.09,4.67 3.55,7.41 -23.68,0.14 -47.36,-0.01 -71.04,0.07 -1.94,-0.01 -3.87,0.03 -5.78,-0.26 -6.69,-17.09 -7.57,-35.66 -9.08,-53.74 -1.3,-5.26 -0.49,-10.71 -1.41,-16.03 -1.73,-17.47 -3.9,-36.33 -15.33,-50.47 -9.82,-11.61 -25.82,-15.27 -40.39,-15.5 -26.7,0 -53.39,-0.11 -80.08,0.06 -0.63,10.6 -0.08,21.29 -0.27,31.93 0.08,34.57 -0.13,69.15 0.11,103.73 -15.57,0.6 -31.18,0.09 -46.77,0.26 -10.25,-0.17 -20.53,0.33 -30.77,-0.26 0.22,-116.16 0.07,-232.32 0.08,-348.48 m 77.64,59.75 c -0.52,2.29 -0.25,4.66 -0.29,6.99 0.02,29.66 -0.01,59.32 0.01,88.97 0.06,0.49 0.19,1.47 0.26,1.96 26.02,0.17 52.05,0.01 78.07,0.08 11.18,-0.01 22.68,-0.45 33.14,-4.83 9.77,-3.76 17.81,-11.88 21.28,-21.77 3.95,-11.03 4.67,-23.06 2.94,-34.59 -1.46,-10.71 -6.52,-21.3 -15.5,-27.65 -10.1,-7.1 -22.78,-9.2 -34.87,-9.41 -25.67,0 -51.33,0 -76.99,-0.01 -2.69,0.03 -5.39,-0.16 -8.05,0.26 z" />
    <path
       style="fill:#ffffff;stroke-width:2.5"
       id="path3378"
       d="m 623.28,302.28 c 21.54,-23.75 54.01,-35.73 85.72,-35.29 20.95,-0.5 41.92,4.23 60.86,13.14 14.86,7.14 28.43,17.32 38.54,30.43 11.24,14.56 17.45,33.02 16.95,51.44 0.28,14.74 -3.22,29.77 -10.92,42.42 -8.01,13.42 -21.29,23.45 -36.32,27.65 l 0.08,0.81 c 15.47,3.47 29.97,11.55 40.45,23.52 10.51,11.64 16.8,26.75 18.81,42.22 2.03,20.15 -0.64,41.03 -9.44,59.4 -7.4,15.82 -19.13,29.5 -33.23,39.73 -20.23,14.78 -44.94,22.61 -69.67,24.94 -10.87,0.49 -21.79,0.44 -32.62,-0.22 -11.81,-1.71 -23.68,-3.78 -34.9,-8 -17.19,-6.1 -33.09,-16.18 -45.24,-29.86 -14.24,-15.64 -23,-35.8 -26.5,-56.54 -1.6,-9.89 -2.74,-20 -1.91,-30 21.98,-0.09 43.98,-0.18 65.95,0.05 0.93,4.99 0.62,10.12 1.78,15.09 2.46,14.15 8.4,28.13 19,38.11 10.45,9.81 25.07,14.76 39.33,14.03 13.29,0.58 26.73,-4 37.02,-12.42 10.07,-8.44 16.57,-20.86 18.1,-33.89 1.07,-13.46 -0.38,-28.18 -8.98,-39.16 -8.92,-11.39 -23.67,-15.95 -37.52,-17.44 -10.74,-1.78 -21.64,-0.79 -32.45,-1.59 0.12,-16.24 0.12,-32.47 0,-48.7 13.6,0.48 27.47,0.58 40.63,-3.35 11.69,-3.2 23.22,-10.15 28.57,-21.44 8.39,-17.97 2.72,-41.55 -13.51,-53.19 -8.86,-6.42 -19.89,-10.05 -30.86,-9.52 -12.49,-0.7 -25.14,3.65 -34.57,11.85 -10.56,9.56 -15.9,23.54 -17.57,37.44 -1.14,3.83 0.26,8.1 -1.12,11.75 -21.83,0.01 -43.67,-0.14 -65.5,0.08 -0.53,-9 1.23,-17.88 2.83,-26.69 4.33,-20.91 13.62,-41.06 28.21,-56.8 z" />
    <path
       style="fill:#ffffff;stroke-width:2.5"
       id="path3380"
       d="m 478.14,274.22 c 18.54,-0.41 37.14,-0.28 55.69,-0.06 -0.12,113.89 -0.13,227.79 0,341.69 -23.25,0.33 -46.53,0.1 -69.79,0.11 -0.12,-73.97 0.04,-147.95 -0.08,-221.92 -28.64,-0.13 -57.28,0.05 -85.92,-0.08 0.08,-17.57 -0.37,-35.17 0.23,-52.72 6.47,-0.01 13.04,0.55 19.46,-0.53 19.17,-1.47 38.76,-6.89 54.18,-18.84 14.95,-11.35 23.76,-29.28 26.23,-47.65 z" />
  </g>
  <g
     style="stroke-width:2.5"
     transform="matrix(0.07356142,0,0,0.07356163,-0.14647388,-0.44081831)"
     id="#e52e87ff">
    <path
       style="fill:#e52e87;stroke-width:2.5"
       id="path3383"
       d="m 2.04,6.04 c 289.97,-0.06 579.95,-0.07 869.92,0.01 0.07,289.96 0.07,579.94 0,869.9 -289.97,0.08 -579.95,0.08 -869.92,0.01 C 1.98,585.99 1.97,296.01 2.04,6.04 m 59.27,261.22 c -0.01,116.16 0.14,232.32 -0.08,348.48 10.24,0.59 20.52,0.09 30.77,0.26 15.59,-0.17 31.2,0.34 46.77,-0.26 -0.24,-34.58 -0.03,-69.16 -0.11,-103.73 0.19,-10.64 -0.36,-21.33 0.27,-31.93 26.69,-0.17 53.38,-0.06 80.08,-0.06 14.57,0.23 30.57,3.89 40.39,15.5 11.43,14.14 13.6,33 15.33,50.47 0.92,5.32 0.11,10.77 1.41,16.03 1.51,18.08 2.39,36.65 9.08,53.74 1.91,0.29 3.84,0.25 5.78,0.26 23.68,-0.08 47.36,0.07 71.04,-0.07 -0.46,-2.74 -2.51,-4.88 -3.55,-7.41 -4.66,-11.15 -6.91,-23.14 -7.99,-35.13 -1.8,-13.75 -1.76,-27.63 -2.74,-41.44 -1.43,-19.56 -5.29,-39.76 -16.46,-56.28 -7.77,-11.88 -20.25,-20.49 -34.02,-23.82 -0.23,-1.41 1.87,-1.26 2.67,-1.94 15.66,-6.71 29.69,-17.7 38.77,-32.23 8.44,-13.69 12.54,-29.75 13.32,-45.73 1.86,-23.15 -3.97,-47.24 -17.99,-65.97 -11.92,-16.42 -29.58,-28.23 -48.9,-34.13 -13.28,-4.25 -27.29,-5.19 -41.15,-5.21 -60.33,0.04 -120.67,-0.06 -181.01,0.05 -0.42,0.14 -1.26,0.41 -1.68,0.55 m 561.97,35.02 c -14.59,15.74 -23.88,35.89 -28.21,56.8 -1.6,8.81 -3.36,17.69 -2.83,26.69 21.83,-0.22 43.67,-0.07 65.5,-0.08 1.38,-3.65 -0.02,-7.92 1.12,-11.75 1.67,-13.9 7.01,-27.88 17.57,-37.44 9.43,-8.2 22.08,-12.55 34.57,-11.85 10.97,-0.53 22,3.1 30.86,9.52 16.23,11.64 21.9,35.22 13.51,53.19 -5.35,11.29 -16.88,18.24 -28.57,21.44 -13.16,3.93 -27.03,3.83 -40.63,3.35 0.12,16.23 0.12,32.46 0,48.7 10.81,0.8 21.71,-0.19 32.45,1.59 13.85,1.49 28.6,6.05 37.52,17.44 8.6,10.98 10.05,25.7 8.98,39.16 -1.53,13.03 -8.03,25.45 -18.1,33.89 -10.29,8.42 -23.73,13 -37.02,12.42 -14.26,0.73 -28.88,-4.22 -39.33,-14.03 -10.6,-9.98 -16.54,-23.96 -19,-38.11 -1.16,-4.97 -0.85,-10.1 -1.78,-15.09 -21.97,-0.23 -43.97,-0.14 -65.95,-0.05 -0.83,10 0.31,20.11 1.91,30 3.5,20.74 12.26,40.9 26.5,56.54 12.15,13.68 28.05,23.76 45.24,29.86 11.22,4.22 23.09,6.29 34.9,8 10.83,0.66 21.75,0.71 32.62,0.22 24.73,-2.33 49.44,-10.16 69.67,-24.94 14.1,-10.23 25.83,-23.91 33.23,-39.73 8.8,-18.37 11.47,-39.25 9.44,-59.4 -2.01,-15.47 -8.3,-30.58 -18.81,-42.22 -10.48,-11.97 -24.98,-20.05 -40.45,-23.52 l -0.08,-0.81 c 15.03,-4.2 28.31,-14.23 36.32,-27.65 7.7,-12.65 11.2,-27.68 10.92,-42.42 0.5,-18.42 -5.71,-36.88 -16.95,-51.44 -10.11,-13.11 -23.68,-23.29 -38.54,-30.43 -18.94,-8.91 -39.91,-13.64 -60.86,-13.14 -31.71,-0.44 -64.18,11.54 -85.72,35.29 M 478.14,274.22 c -2.47,18.37 -11.28,36.3 -26.23,47.65 -15.42,11.95 -35.01,17.37 -54.18,18.84 -6.42,1.08 -12.99,0.52 -19.46,0.53 -0.6,17.55 -0.15,35.15 -0.23,52.72 28.64,0.13 57.28,-0.05 85.92,0.08 0.12,73.97 -0.04,147.95 0.08,221.92 23.26,-0.01 46.54,0.22 69.79,-0.11 -0.13,-113.9 -0.12,-227.8 0,-341.69 -18.55,-0.22 -37.15,-0.35 -55.69,0.06 z" />
    <path
       style="fill:#e52e87;stroke-width:2.5"
       id="path3385"
       d="m 138.95,327.01 c 2.66,-0.42 5.36,-0.23 8.05,-0.26 25.66,0.01 51.32,0.01 76.99,0.01 12.09,0.21 24.77,2.31 34.87,9.41 8.98,6.35 14.04,16.94 15.5,27.65 1.73,11.53 1.01,23.56 -2.94,34.59 -3.47,9.89 -11.51,18.01 -21.28,21.77 -10.46,4.38 -21.96,4.82 -33.14,4.83 -26.02,-0.07 -52.05,0.09 -78.07,-0.08 -0.07,-0.49 -0.2,-1.47 -0.26,-1.96 -0.02,-29.65 0.01,-59.31 -0.01,-88.97 0.04,-2.33 -0.23,-4.7 0.29,-6.99 z" />
  </g>
</svg>
