<?xml version="1.0" encoding="utf-8"?>
<!-- Generator: Adobe Illustrator 26.5.0, SVG Export Plug-In . SVG Version: 6.00 Build 0)  -->
<svg version="1.1" id="Capa_1" xmlns="http://www.w3.org/2000/svg" xmlns:xlink="http://www.w3.org/1999/xlink" x="0px" y="0px"
	 viewBox="0 0 100 100" style="enable-background:new 0 0 100 100;" xml:space="preserve">
<style type="text/css">
	.st0{fill-rule:evenodd;clip-rule:evenodd;fill:#675199;}
	.st1{fill-rule:evenodd;clip-rule:evenodd;fill:#FFFFFF;}
</style>
<g>
	<rect x="0" y="0" class="st0" width="100" height="100"/>
	<path class="st1" d="M9.5,70.1h8.2V54.4h8.8c4.1,0,6.1,2,6.1,6.1c0.7,2.7,0.7,6.8,1.4,9.5h8.8c-1.4-2.7-1.4-6.8-1.4-9.5
		c-0.7-4.1-2-8.2-6.1-8.8V51c4.8-1.4,6.1-4.8,6.1-9.5c0-6.1-4.1-10.9-10.9-10.9H9.5V70.1z M17.7,37.4h9.5c4.1,0,6.1,1.4,6.1,5.4
		c0,4.1-2,5.4-6.1,5.4h-9.5V37.4z"/>
	<path class="st1" d="M61.2,31.3h-6.8c-0.7,6.1-5.4,8.2-10.9,8.2v5.4h9.5v25.2h8.2V31.3z"/>
	<path class="st1" d="M81.6,70.1h7.5v-8.8h4.8v-6.8h-4.8V31.3h-7.5L65.3,53.7v7.5h16.3V70.1z M81.6,54.4H71.4l10.2-12.9V54.4z"/>
</g>
</svg>
