<?xml version="1.0" encoding="UTF-8" standalone="no"?>
<svg
   xmlns:dc="http://purl.org/dc/elements/1.1/"
   xmlns:cc="http://creativecommons.org/ns#"
   xmlns:rdf="http://www.w3.org/1999/02/22-rdf-syntax-ns#"
   xmlns:svg="http://www.w3.org/2000/svg"
   xmlns="http://www.w3.org/2000/svg"
   id="svg3067"
   version="1.1"
   viewBox="0 0 64 64"
   height="64"
   width="64">
  <metadata
     id="metadata3087">
    <rdf:RDF>
      <cc:Work
         rdf:about="">
        <dc:format>image/svg+xml</dc:format>
        <dc:type
           rdf:resource="http://purl.org/dc/dcmitype/StillImage" />
        <dc:title></dc:title>
      </cc:Work>
    </rdf:RDF>
  </metadata>
  <defs
     id="defs3085" />
  <g
     style="stroke-width:2.5"
     transform="matrix(0.07355563,0,0,0.07355657,-0.2166653,-0.14332619)"
     id="#ffffffff">
    <path
       style="fill:#ffffff;stroke-width:2.5"
       id="path3070"
       d="m 62.4,263.13 c 4.82,-0.86 9.73,-0.42 14.6,-0.46 54,-0.01 108,0.01 162,-0.01 12.56,0.03 25.27,0.04 37.6,2.75 19.71,4.12 38.48,13.93 52.07,28.94 15.07,16.07 23.55,37.77 24.52,59.69 0.75,18.4 -1.82,37.38 -10.28,53.93 -7.78,15.48 -21.16,27.72 -36.57,35.38 -2.81,1.32 -5.72,2.48 -8.3,4.24 9.8,2.91 19.23,7.55 26.53,14.83 12.42,12.25 18.7,29.29 21.79,46.14 3.88,20.63 2.6,41.76 5.27,62.53 1.38,14.15 4.6,28.27 11.47,40.82 -23.36,0.26 -46.74,-0.06 -70.11,0.15 -2.23,0.02 -4.46,-0.13 -6.67,-0.34 -7.88,-19.8 -7.92,-41.51 -9.89,-62.44 -1.67,-17.85 -2.87,-36.69 -12.23,-52.48 -5.74,-9.94 -16.21,-16.36 -27.26,-18.73 -10.44,-2.61 -21.28,-2.03 -31.94,-2.07 -21.7,0.11 -43.42,-0.2 -65.11,0.14 -0.64,15.93 -0.06,31.91 -0.26,47.86 -0.02,29.24 0.04,58.49 -0.01,87.74 C 124.43,612.38 109.2,611.81 94,612 83.46,611.81 72.9,612.38 62.38,611.74 62.37,495.54 62.33,379.33 62.4,263.13 m 77.49,59.86 c -0.52,5.32 -0.22,10.67 -0.25,16.01 -0.04,25.67 0.04,51.34 -0.04,77.01 0.03,1.61 0.16,3.23 0.29,4.86 23.69,0.33 47.41,0.02 71.11,0.14 12.98,-0.02 26.38,0.4 38.75,-4.21 9.34,-3.37 17.47,-10.34 21.5,-19.51 4.7,-10.69 5.67,-22.71 4.55,-34.23 -1.04,-10.64 -4.91,-21.53 -13.19,-28.68 -10.23,-9.02 -24.45,-11.26 -37.63,-11.59 -26.33,-0.09 -52.65,0.06 -78.98,-0.08 -2.04,0.01 -4.07,0.14 -6.11,0.28 z" />
    <path
       style="fill:#ffffff;stroke-width:2.5"
       id="path3072"
       d="m 479.31,270.27 c 13.87,-0.68 27.79,-0.06 41.69,-0.27 4.56,-0.01 9.14,-0.19 13.7,0.19 0.1,113.87 0.1,227.75 0,341.61 -15.89,0.49 -31.8,0.05 -47.7,0.2 -7.29,-0.13 -14.59,0.26 -21.87,-0.13 -0.39,-73.9 0.13,-147.84 -0.26,-221.74 -28.57,-0.41 -57.17,0.15 -85.74,-0.26 -0.38,-9.95 0,-19.91 -0.13,-29.87 0.16,-7.54 -0.37,-15.1 0.26,-22.63 20.71,0.59 41.97,-2.13 60.73,-11.36 13.82,-6.76 25.56,-17.95 32.11,-31.96 3.81,-7.45 5.48,-15.67 7.21,-23.78 z" />
    <path
       style="fill:#ffffff;stroke-width:2.5"
       id="path3074"
       d="m 730.77,271.85 c 1.52,-2.53 4.75,-1.75 7.22,-1.93 18.87,0.36 37.77,-0.33 56.63,0.34 0.02,67.26 0.03,134.54 -0.01,201.8 0.09,1.19 0.26,2.38 0.48,3.56 14.92,0.35 29.87,-0.38 44.77,0.29 0.24,18.98 0.23,37.98 0.01,56.96 -14.98,0.46 -30,-0.2 -44.98,0.26 -0.64,26.18 -0.04,52.41 -0.27,78.6 -10.86,0.66 -21.75,0.08 -32.62,0.27 -11.21,-0.19 -22.43,0.39 -33.61,-0.27 -0.08,-20.57 0.02,-41.15 -0.03,-61.73 -0.06,-5.62 0.3,-11.26 -0.25,-16.86 -48.05,-0.42 -96.14,0.14 -144.19,-0.28 -0.65,-18.6 0.01,-37.24 -0.32,-55.86 0.09,-3.3 -0.47,-7 1.62,-9.83 48.53,-65.09 97.01,-130.24 145.55,-195.32 m -7.04,89.94 c -28.05,38.08 -56.68,75.74 -84.56,113.93 29.57,-0.15 59.16,0.05 88.73,-0.1 0.89,-4.15 0.44,-8.41 0.47,-12.62 0,-30 0,-60 0,-90 -0.03,-5.17 0.26,-10.36 -0.3,-15.51 -1.75,1.1 -3.17,2.61 -4.34,4.3 z" />
  </g>
  <g
     style="stroke-width:2.5"
     transform="matrix(0.07355563,0,0,0.07355657,-0.2166653,-0.14332619)"
     id="#675199ff">
    <path
       style="fill:#675199;stroke-width:2.5"
       id="path3077"
       d="M 3.13,2.13 C 7.41,1.83 11.71,1.99 16,2 c 202.67,0 405.33,0 608,0 82.96,0.09 165.92,-0.17 248.87,0.13 0.31,42.28 0.04,84.58 0.13,126.87 0,236.33 0,472.67 0,709 -0.13,11.29 0.23,22.59 -0.13,33.87 C 821.59,872.18 770.29,871.91 719,872 498,872 277,872 56,872 38.38,871.89 20.75,872.2 3.13,871.87 2.83,775.59 3.09,679.29 3,583.01 3,395.34 3,207.67 3,20 3.09,14.04 2.75,8.08 3.13,2.13 m 59.27,261 c -0.07,116.2 -0.03,232.41 -0.02,348.61 10.52,0.64 21.08,0.07 31.62,0.26 15.2,-0.19 30.43,0.38 45.62,-0.26 0.05,-29.25 -0.01,-58.5 0.01,-87.74 0.2,-15.95 -0.38,-31.93 0.26,-47.86 21.69,-0.34 43.41,-0.03 65.11,-0.14 10.66,0.04 21.5,-0.54 31.94,2.07 11.05,2.37 21.52,8.79 27.26,18.73 9.36,15.79 10.56,34.63 12.23,52.48 1.97,20.93 2.01,42.64 9.89,62.44 2.21,0.21 4.44,0.36 6.67,0.34 23.37,-0.21 46.75,0.11 70.11,-0.15 -6.87,-12.55 -10.09,-26.67 -11.47,-40.82 -2.67,-20.77 -1.39,-41.9 -5.27,-62.53 -3.09,-16.85 -9.37,-33.89 -21.79,-46.14 -7.3,-7.28 -16.73,-11.92 -26.53,-14.83 2.58,-1.76 5.49,-2.92 8.3,-4.24 15.41,-7.66 28.79,-19.9 36.57,-35.38 8.46,-16.55 11.03,-35.53 10.28,-53.93 -0.97,-21.92 -9.45,-43.62 -24.52,-59.69 -13.59,-15.01 -32.36,-24.82 -52.07,-28.94 -12.33,-2.71 -25.04,-2.72 -37.6,-2.75 -54,0.02 -108,0 -162,0.01 -4.87,0.04 -9.78,-0.4 -14.6,0.46 m 416.91,7.14 c -1.73,8.11 -3.4,16.33 -7.21,23.78 -6.55,14.01 -18.29,25.2 -32.11,31.96 -18.76,9.23 -40.02,11.95 -60.73,11.36 -0.63,7.53 -0.1,15.09 -0.26,22.63 0.13,9.96 -0.25,19.92 0.13,29.87 28.57,0.41 57.17,-0.15 85.74,0.26 0.39,73.9 -0.13,147.84 0.26,221.74 7.28,0.39 14.58,0 21.87,0.13 15.9,-0.15 31.81,0.29 47.7,-0.2 0.1,-113.86 0.1,-227.74 0,-341.61 -4.56,-0.38 -9.14,-0.2 -13.7,-0.19 -13.9,0.21 -27.82,-0.41 -41.69,0.27 m 251.46,1.58 c -48.54,65.08 -97.02,130.23 -145.55,195.32 -2.09,2.83 -1.53,6.53 -1.62,9.83 0.33,18.62 -0.33,37.26 0.32,55.86 48.05,0.42 96.14,-0.14 144.19,0.28 0.55,5.6 0.19,11.24 0.25,16.86 0.05,20.58 -0.05,41.16 0.03,61.73 11.18,0.66 22.4,0.08 33.61,0.27 10.87,-0.19 21.76,0.39 32.62,-0.27 0.23,-26.19 -0.37,-52.42 0.27,-78.6 14.98,-0.46 30,0.2 44.98,-0.26 0.22,-18.98 0.23,-37.98 -0.01,-56.96 -14.9,-0.67 -29.85,0.06 -44.77,-0.29 -0.22,-1.18 -0.39,-2.37 -0.48,-3.56 0.04,-67.26 0.03,-134.54 0.01,-201.8 -18.86,-0.67 -37.76,0.02 -56.63,-0.34 -2.47,0.18 -5.7,-0.6 -7.22,1.93 z" />
    <path
       style="fill:#675199;stroke-width:2.5"
       id="path3079"
       d="m 139.89,322.99 c 2.04,-0.14 4.07,-0.27 6.11,-0.28 26.33,0.14 52.65,-0.01 78.98,0.08 13.18,0.33 27.4,2.57 37.63,11.59 8.28,7.15 12.15,18.04 13.19,28.68 1.12,11.52 0.15,23.54 -4.55,34.23 -4.03,9.17 -12.16,16.14 -21.5,19.51 -12.37,4.61 -25.77,4.19 -38.75,4.21 -23.7,-0.12 -47.42,0.19 -71.11,-0.14 -0.13,-1.63 -0.26,-3.25 -0.29,-4.86 0.08,-25.67 0,-51.34 0.04,-77.01 0.03,-5.34 -0.27,-10.69 0.25,-16.01 z" />
    <path
       style="fill:#675199;stroke-width:2.5"
       id="path3081"
       d="m 723.73,361.79 c 1.17,-1.69 2.59,-3.2 4.34,-4.3 0.56,5.15 0.27,10.34 0.3,15.51 0,30 0,60 0,90 -0.03,4.21 0.42,8.47 -0.47,12.62 -29.57,0.15 -59.16,-0.05 -88.73,0.1 27.88,-38.19 56.51,-75.85 84.56,-113.93 z" />
  </g>
</svg>
