<?xml version="1.0" encoding="utf-8"?>
<!-- Generator: Adobe Illustrator 26.5.0, SVG Export Plug-In . SVG Version: 6.00 Build 0)  -->
<svg version="1.1" id="Capa_1" xmlns="http://www.w3.org/2000/svg" xmlns:xlink="http://www.w3.org/1999/xlink" x="0px" y="0px"
	 viewBox="0 0 100 100" style="enable-background:new 0 0 100 100;" xml:space="preserve">
<style type="text/css">
	.st0{fill-rule:evenodd;clip-rule:evenodd;fill:#9B907C;}
	.st1{fill-rule:evenodd;clip-rule:evenodd;fill:#FFFFFF;}
</style>
<g>
	<rect x="0" class="st0" width="100" height="100"/>
	<path class="st1" d="M9.5,69.7h8.2v-15h8.8c4.1,0,6.1,2,6.1,6.1c0.7,2.7,0.7,6.8,1.4,8.8h8.8c-1.4-2-1.4-6.8-1.4-8.8
		c-0.7-4.1-2-8.2-6.1-9.5c4.8-1.4,6.1-4.8,6.1-9.5c0-6.1-4.1-10.9-10.9-10.9H9.5V69.7z M17.7,37.8h9.5c4.1,0,6.1,1.4,6.1,5.4
		s-2,5.4-6.1,5.4h-9.5V37.8z"/>
	<path class="st1" d="M61.2,31.6h-6.8c-0.7,6.1-5.4,7.5-10.9,7.5v6.1h9.5v24.5h8.2V31.6z"/>
	<path class="st1" d="M91.8,31.6H70.1l-3.4,21.1h6.8c1.4-2,3.4-2.7,6.1-2.7c4.1,0,6.8,2.7,6.8,6.8s-2.7,7.5-6.8,7.5
		c-3.4,0-6.1-2-6.1-5.4h-8.2c0,7.5,6.8,12.2,14.3,12.2c7.5,0,14.3-6.1,14.3-14.3c0-6.8-4.1-12.9-11.6-12.9c-3.4,0-5.4,0.7-7.5,2.7
		h-0.7l2-8.2h15.6V31.6z"/>
</g>
</svg>
