<?xml version="1.0" encoding="UTF-8" standalone="no"?>
<svg
   xmlns:dc="http://purl.org/dc/elements/1.1/"
   xmlns:cc="http://creativecommons.org/ns#"
   xmlns:rdf="http://www.w3.org/1999/02/22-rdf-syntax-ns#"
   xmlns:svg="http://www.w3.org/2000/svg"
   xmlns="http://www.w3.org/2000/svg"
   id="svg3151"
   version="1.1"
   viewBox="0 0 64 64"
   height="64"
   width="64">
  <metadata
     id="metadata3169">
    <rdf:RDF>
      <cc:Work
         rdf:about="">
        <dc:format>image/svg+xml</dc:format>
        <dc:type
           rdf:resource="http://purl.org/dc/dcmitype/StillImage" />
        <dc:title></dc:title>
      </cc:Work>
    </rdf:RDF>
  </metadata>
  <defs
     id="defs3167" />
  <g
     style="stroke-width:2.5"
     transform="matrix(0.07355768,0,0,0.07355745,-0.51168689,-0.43812738)"
     id="#ffffffff">
    <path
       style="fill:#ffffff;stroke-width:2.5"
       id="path3154"
       d="m 66.37,267.19 c 1.17,-0.3 2.37,-0.48 3.58,-0.53 53.35,0.02 106.7,0.01 160.05,0.01 13.11,0.05 26.26,-0.31 39.34,0.92 22.13,2.41 43.91,11.43 59.86,27.21 16.61,15.91 26.4,38.33 27.85,61.19 1.17,19.78 -1.6,40.36 -11.2,57.94 -8.37,15.43 -22.29,27.47 -38.2,34.68 -1.88,0.94 -4.05,1.51 -5.55,3.07 13.8,3.62 26.3,12.11 34.17,24.08 11.34,16.76 15.15,37.32 16.59,57.16 1.56,22.88 1.11,46.29 7.88,68.44 1.41,5.13 4.19,9.7 6.34,14.53 -23.36,0.29 -46.72,-0.02 -70.08,0.15 -2.23,-0.02 -4.47,0.03 -6.67,-0.35 -2.61,-5.66 -3.86,-11.84 -5.11,-17.91 -4.92,-25.36 -3.51,-51.54 -9.17,-76.79 -2.73,-11.76 -7.78,-23.88 -17.79,-31.24 -10.63,-7.92 -24.38,-9.64 -37.27,-9.76 -25.68,0.12 -51.38,-0.19 -77.06,0.15 -0.67,12.59 -0.08,25.24 -0.28,37.86 -0.01,32.57 0.01,65.14 0,97.7 -12.52,0.71 -25.1,0.09 -37.65,0.3 -13.22,-0.2 -26.47,0.41 -39.66,-0.29 0.03,-116.17 -0.02,-232.35 0.03,-348.52 m 77.56,59.82 c -0.49,3.64 -0.28,7.32 -0.28,10.99 0.01,25 0,50 0,75 0.02,3.95 -0.25,7.93 0.28,11.87 21.34,0.32 42.71,0.03 64.07,0.13 14.02,-0.15 28.35,0.83 42.02,-2.95 10.61,-2.85 20.24,-10 24.93,-20.07 5.66,-12.1 6.25,-26.03 4.28,-39.07 -1.53,-10.9 -7.2,-21.53 -16.59,-27.59 -10.16,-6.79 -22.71,-8.31 -34.64,-8.59 -24,-0.01 -48,0.01 -72,0 -4.03,0.02 -8.07,-0.23 -12.07,0.28 z" />
    <path
       style="fill:#ffffff;stroke-width:2.5"
       id="path3156"
       d="m 483.26,274.28 c 11.89,-0.68 23.83,-0.08 35.74,-0.28 6.57,0.14 13.15,-0.31 19.71,0.22 0.04,113.85 0.03,227.71 0,341.56 -14.55,0.53 -29.14,0.06 -43.71,0.22 -8.62,-0.12 -17.26,0.21 -25.88,-0.12 -0.37,-73.91 0.13,-147.85 -0.24,-221.76 -28.58,-0.38 -57.18,0.14 -85.76,-0.24 C 382.8,381.93 383.1,369.96 383,358 c 0.12,-5.55 -0.34,-11.13 0.29,-16.66 19.23,0.55 38.9,-1.71 56.67,-9.44 15.98,-6.77 29.75,-19.19 36.79,-35.2 3.5,-7.04 4.98,-14.78 6.51,-22.42 z" />
    <path
       style="fill:#ffffff;stroke-width:2.5"
       id="path3158"
       d="m 633.16,274.26 c 12.92,-0.64 25.9,-0.07 38.84,-0.26 46.67,0 93.34,0.01 140,0 4.22,0.04 8.46,-0.25 12.66,0.3 -0.02,18.83 0.02,37.68 -0.02,56.51 -1.19,0.3 -2.39,0.47 -3.59,0.53 -45.9,0.04 -91.81,-0.13 -137.7,0.08 -3.32,17.79 -6.46,35.64 -9.56,53.48 -1.18,8.09 -3.34,16.04 -3.91,24.21 2.01,-1.37 3.8,-3.03 5.52,-4.75 13.11,-12.09 30.4,-19.05 48.04,-20.86 18.31,-1.5 37.24,-0.38 54.44,6.58 18.97,7.21 35.07,21.08 45.97,38.1 10.71,16.58 16.51,35.96 18.55,55.5 1.42,16.69 0.78,33.73 -3.88,49.91 -8.02,28.65 -27.04,53.89 -52.12,69.83 -16.41,10.57 -35.39,17.14 -54.8,19.11 -23.77,1.77 -48.11,-0.33 -70.6,-8.53 -16.69,-6.07 -32.4,-15.4 -44.67,-28.35 -11.4,-11.66 -19.49,-26.39 -23.84,-42.06 -2.66,-9.52 -3.67,-19.41 -4.07,-29.25 21.87,-0.22 43.75,0.06 65.62,-0.13 1.4,0.08 2.94,-0.18 4.24,0.5 1.51,9.8 4.54,19.52 10.32,27.7 9.71,14.5 27.04,22.98 44.32,23.32 15.25,0.5 30.49,-5.79 41.17,-16.64 21.63,-22.39 25.28,-59.32 9.94,-86.12 -8.91,-15.75 -26.06,-26.22 -44.08,-27.23 -11.17,-0.59 -22.78,0.2 -33.02,5.08 -9.34,4.44 -17.04,11.75 -23.06,20.07 -1.54,2.89 -5.19,1.96 -7.87,2.16 -18.88,-0.27 -37.79,0.29 -56.67,-0.28 8.15,-46.57 16.68,-93.1 24.89,-139.67 3.13,-16.25 5.56,-32.64 8.94,-48.84 z" />
  </g>
  <g
     style="stroke-width:2.5"
     transform="matrix(0.07355768,0,0,0.07355745,-0.51168689,-0.43812738)"
     id="#9a8a76ff">
    <path
       style="fill:#9a8a76;stroke-width:2.5"
       id="path3161"
       d="M 7.12,6.12 C 10.74,5.82 14.37,6.03 18,6 218.67,6 419.33,6 620,6 705.62,6.08 791.26,5.85 876.88,6.12 877.16,110.4 876.92,214.71 877,319 c 0,145 0,290 0,435 -0.09,40.62 0.17,81.26 -0.12,121.88 -52.29,0.29 -104.59,0.04 -156.88,0.12 -164.33,0 -328.67,0 -493,0 C 153.71,875.92 80.41,876.16 7.12,875.88 6.84,777.6 7.08,679.29 7,581 7,393 7,205 7,17 7.03,13.37 6.82,9.74 7.12,6.12 m 59.25,261.07 c -0.05,116.17 0,232.35 -0.03,348.52 13.19,0.7 26.44,0.09 39.66,0.29 12.55,-0.21 25.13,0.41 37.65,-0.3 0.01,-32.56 -0.01,-65.13 0,-97.7 0.2,-12.62 -0.39,-25.27 0.28,-37.86 25.68,-0.34 51.38,-0.03 77.06,-0.15 12.89,0.12 26.64,1.84 37.27,9.76 10.01,7.36 15.06,19.48 17.79,31.24 5.66,25.25 4.25,51.43 9.17,76.79 1.25,6.07 2.5,12.25 5.11,17.91 2.2,0.38 4.44,0.33 6.67,0.35 23.36,-0.17 46.72,0.14 70.08,-0.15 -2.15,-4.83 -4.93,-9.4 -6.34,-14.53 -6.77,-22.15 -6.32,-45.56 -7.88,-68.44 -1.44,-19.84 -5.25,-40.4 -16.59,-57.16 -7.87,-11.97 -20.37,-20.46 -34.17,-24.08 1.5,-1.56 3.67,-2.13 5.55,-3.07 15.91,-7.21 29.83,-19.25 38.2,-34.68 9.6,-17.58 12.37,-38.16 11.2,-57.94 -1.45,-22.86 -11.24,-45.28 -27.85,-61.19 -15.95,-15.78 -37.73,-24.8 -59.86,-27.21 -13.08,-1.23 -26.23,-0.87 -39.34,-0.92 -53.35,0 -106.7,0.01 -160.05,-0.01 -1.21,0.05 -2.41,0.23 -3.58,0.53 m 416.89,7.09 c -1.53,7.64 -3.01,15.38 -6.51,22.42 -7.04,16.01 -20.81,28.43 -36.79,35.2 -17.77,7.73 -37.44,9.99 -56.67,9.44 -0.63,5.53 -0.17,11.11 -0.29,16.66 0.1,11.96 -0.2,23.93 0.12,35.88 28.58,0.38 57.18,-0.14 85.76,0.24 0.37,73.91 -0.13,147.85 0.24,221.76 8.62,0.33 17.26,0 25.88,0.12 14.57,-0.16 29.16,0.31 43.71,-0.22 0.03,-113.85 0.04,-227.71 0,-341.56 -6.56,-0.53 -13.14,-0.08 -19.71,-0.22 -11.91,0.2 -23.85,-0.4 -35.74,0.28 m 149.9,-0.02 c -3.38,16.2 -5.81,32.59 -8.94,48.84 -8.21,46.57 -16.74,93.1 -24.89,139.67 18.88,0.57 37.79,0.01 56.67,0.28 2.68,-0.2 6.33,0.73 7.87,-2.16 6.02,-8.32 13.72,-15.63 23.06,-20.07 10.24,-4.88 21.85,-5.67 33.02,-5.08 18.02,1.01 35.17,11.48 44.08,27.23 15.34,26.8 11.69,63.73 -9.94,86.12 -10.68,10.85 -25.92,17.14 -41.17,16.64 -17.28,-0.34 -34.61,-8.82 -44.32,-23.32 -5.78,-8.18 -8.81,-17.9 -10.32,-27.7 -1.3,-0.68 -2.84,-0.42 -4.24,-0.5 -21.87,0.19 -43.75,-0.09 -65.62,0.13 0.4,9.84 1.41,19.73 4.07,29.25 4.35,15.67 12.44,30.4 23.84,42.06 12.27,12.95 27.98,22.28 44.67,28.35 22.49,8.2 46.83,10.3 70.6,8.53 19.41,-1.97 38.39,-8.54 54.8,-19.11 25.08,-15.94 44.1,-41.18 52.12,-69.83 4.66,-16.18 5.3,-33.22 3.88,-49.91 -2.04,-19.54 -7.84,-38.92 -18.55,-55.5 -10.9,-17.02 -27,-30.89 -45.97,-38.1 -17.2,-6.96 -36.13,-8.08 -54.44,-6.58 -17.64,1.81 -34.93,8.77 -48.04,20.86 -1.72,1.72 -3.51,3.38 -5.52,4.75 0.57,-8.17 2.73,-16.12 3.91,-24.21 3.1,-17.84 6.24,-35.69 9.56,-53.48 45.89,-0.21 91.8,-0.04 137.7,-0.08 1.2,-0.06 2.4,-0.23 3.59,-0.53 0.04,-18.83 0,-37.68 0.02,-56.51 -4.2,-0.55 -8.44,-0.26 -12.66,-0.3 -46.66,0.01 -93.33,0 -140,0 -12.94,0.19 -25.92,-0.38 -38.84,0.26 z" />
    <path
       style="fill:#9a8a76;stroke-width:2.5"
       id="path3163"
       d="m 143.93,327.01 c 4,-0.51 8.04,-0.26 12.07,-0.28 24,0.01 48,-0.01 72,0 11.93,0.28 24.48,1.8 34.64,8.59 9.39,6.06 15.06,16.69 16.59,27.59 1.97,13.04 1.38,26.97 -4.28,39.07 -4.69,10.07 -14.32,17.22 -24.93,20.07 -13.67,3.78 -28,2.8 -42.02,2.95 -21.36,-0.1 -42.73,0.19 -64.07,-0.13 -0.53,-3.94 -0.26,-7.92 -0.28,-11.87 0,-25 0.01,-50 0,-75 0,-3.67 -0.21,-7.35 0.28,-10.99 z" />
  </g>
</svg>
