<?xml version="1.0" encoding="utf-8"?>
<!-- Generator: Adobe Illustrator 26.5.0, SVG Export Plug-In . SVG Version: 6.00 Build 0)  -->
<svg version="1.1" id="Capa_1" xmlns="http://www.w3.org/2000/svg" xmlns:xlink="http://www.w3.org/1999/xlink" x="0px" y="0px"
	 viewBox="0 0 100 100" style="enable-background:new 0 0 100 100;" xml:space="preserve">
<style type="text/css">
	.st0{fill-rule:evenodd;clip-rule:evenodd;fill:#B10035;}
	.st1{fill-rule:evenodd;clip-rule:evenodd;fill:#FFFFFF;}
</style>
<g>
	<rect x="0" class="st0" width="100" height="100"/>
	<path class="st1" d="M9.5,69.7h8.2v-15h8.8c4.1,0,6.1,1.4,6.1,5.4c0.7,3.4,0.7,7.5,1.4,9.5h8.8c-1.4-2-1.4-6.8-1.4-8.8
		c-0.7-4.1-2-8.2-6.1-9.5c4.8-2,6.1-5.4,6.1-9.5c0-6.1-4.1-10.9-10.9-10.9H9.5V69.7z M17.7,37.8h9.5c4.1,0,6.1,1.4,6.1,5.4
		c0,3.4-2,5.4-6.1,5.4h-9.5V37.8z"/>
	<path class="st1" d="M61.2,31.6h-6.8c-0.7,5.4-5.4,7.5-10.9,7.5v6.1h9.5v24.5h8.2V31.6z"/>
	<path class="st1" d="M93.2,41.2C91.8,34.4,87.1,31,80.3,31c-10.2,0-15,10.2-15,19.7s3.4,19.7,15,19.7c8.2,0,13.6-6.1,13.6-13.6
		c0-3.4-1.4-6.1-3.4-8.8c-2-2-5.4-4.1-8.8-4.1c-3.4,0-6.1,1.4-8.2,4.8V48c0-4.1,1.4-11.6,6.8-11.6c2.7,0,4.8,2.7,5.4,4.8H93.2z
		 M80.3,50c4.1,0,5.4,3.4,5.4,7.5c0,3.4-2,6.8-5.4,6.8c-4.1,0-6.1-3.4-6.1-7.5C74.1,53.4,76.2,50,80.3,50z"/>
</g>
</svg>
