<?xml version="1.0" encoding="UTF-8" standalone="no"?>
<svg
   xmlns:dc="http://purl.org/dc/elements/1.1/"
   xmlns:cc="http://creativecommons.org/ns#"
   xmlns:rdf="http://www.w3.org/1999/02/22-rdf-syntax-ns#"
   xmlns:svg="http://www.w3.org/2000/svg"
   xmlns="http://www.w3.org/2000/svg"
   id="svg3233"
   version="1.1"
   viewBox="0 0 64 64"
   height="64"
   width="64">
  <metadata
     id="metadata3253">
    <rdf:RDF>
      <cc:Work
         rdf:about="">
        <dc:format>image/svg+xml</dc:format>
        <dc:type
           rdf:resource="http://purl.org/dc/dcmitype/StillImage" />
        <dc:title></dc:title>
      </cc:Work>
    </rdf:RDF>
  </metadata>
  <defs
     id="defs3251" />
  <g
     style="stroke-width:2.5"
     transform="matrix(0.07356054,0,0,0.07356054,-0.29307689,-0.80800114)"
     id="#ffffffff">
    <path
       style="fill:#ffffff;stroke-width:2.5"
       id="path3236"
       d="m 63.36,271.95 c 5.52,-0.66 11.09,-0.32 16.64,-0.35 55.67,-0.01 111.34,0 167.01,0 9.65,0.27 19.38,0.4 28.87,2.41 20.84,3.95 40.67,14.34 54.82,30.3 14.65,16.29 22.85,37.92 23.61,59.74 0.52,17.59 -1.88,35.66 -9.65,51.61 -6.48,13.38 -16.98,24.64 -29.61,32.42 -5.1,3.33 -10.74,5.64 -16.1,8.48 13.36,3.56 25.65,11.44 33.56,22.89 12.58,17.84 16.29,40.16 17.63,61.49 1.18,21.07 1.32,42.49 6.97,62.97 1.57,5.98 4.43,11.49 7.13,17.01 -25.66,0.06 -51.34,0.28 -77,-0.1 -4.65,-11.38 -6.26,-23.7 -7.62,-35.83 -2.14,-19.18 -2.36,-38.61 -6.29,-57.56 -2.78,-12.46 -7.94,-25.43 -18.73,-33.06 -10.82,-7.77 -24.64,-9.22 -37.59,-9.38 -25.39,0.09 -50.79,-0.13 -76.18,0.1 -0.41,45.24 -0.04,90.49 -0.18,135.73 -17.87,0.44 -35.77,0.05 -53.65,0.18 -7.88,-0.1 -15.77,0.24 -23.65,-0.18 0,-116.29 -0.02,-232.58 0.01,-348.87 m 77.47,60.02 c -0.17,3.34 -0.25,6.69 -0.21,10.03 0.2,29.3 -0.23,58.61 0.21,87.91 19.05,0.23 38.11,0.01 57.17,0.09 13.88,-0.13 27.85,0.59 41.64,-1.37 10.84,-1.69 21.8,-6.47 28.46,-15.52 7.65,-10.28 9.32,-23.65 9.03,-36.11 -0.47,-12.24 -3.98,-25.28 -13.57,-33.57 -10.78,-9.41 -25.76,-11.51 -39.57,-11.61 -27.72,0.12 -55.45,-0.2 -83.16,0.15 z" />
    <path
       style="fill:#ffffff;stroke-width:2.5"
       id="path3238"
       d="m 657.85,288.88 c 17.99,-11.08 39.1,-16.81 60.18,-16.97 20.24,-0.68 40.84,2.88 59.04,11.97 17.65,8.61 32.57,22.71 42.17,39.84 7.4,13.22 11.99,27.97 13.72,43.01 -14.65,0.26 -29.31,0.01 -43.96,0.1 -7.49,-0.12 -14.99,0.27 -22.47,-0.19 -3.07,-14.47 -11.17,-28.42 -24.15,-36.05 -11.3,-6.95 -25.68,-7.61 -38.07,-3.35 -12.97,4.36 -23.03,14.7 -29.81,26.3 -8.86,15.18 -13.53,32.41 -16.43,49.62 -1.16,8.35 -2.64,16.73 -2.34,25.19 4.82,-5.06 8.86,-10.86 14.2,-15.44 16.3,-15.27 39,-22.32 61.08,-21.94 19.45,-0.84 38.81,4.82 55.63,14.41 14.39,8.35 27.32,19.78 35.67,34.31 18.54,31.31 20.91,70.56 10.37,104.97 -8.57,28.64 -28.09,54.12 -54.35,68.67 -18.3,10.2 -39.4,15.22 -60.33,14.69 -20.37,0.35 -41.03,-3.62 -59.27,-12.88 -15.11,-7.65 -28.12,-19.16 -38.08,-32.81 -18.75,-25.71 -27.23,-57.32 -31.22,-88.49 -5.26,-45.6 -2.9,-93.12 14.24,-136.14 10.87,-27.46 28.7,-53.15 54.18,-68.82 M 705.4,444.6 c -7.71,1.45 -15.12,4.64 -21.3,9.48 -9.14,7.04 -15.4,17.32 -18.73,28.28 -5.33,17.27 -4.96,36.48 2.1,53.21 5.34,12.89 14.97,24.38 27.79,30.29 12.98,6.09 28.79,6.43 41.78,0.19 12.79,-6.13 22.02,-18.06 26.93,-31.15 6.66,-17.07 6.37,-36.37 0.84,-53.69 -4.08,-12.67 -11.93,-24.6 -23.62,-31.38 -10.7,-6.33 -23.75,-7.42 -35.79,-5.23 z" />
    <path
       style="fill:#ffffff;stroke-width:2.5"
       id="path3240"
       d="m 480.26,279.19 c 18.49,-0.37 37.02,-0.23 55.52,-0.07 0.08,113.92 0.07,227.84 0,341.76 -23.23,0.24 -46.47,0.15 -69.7,0.04 -0.25,-73.94 0.08,-147.9 -0.16,-221.84 -28.61,-0.26 -57.23,0.1 -85.84,-0.16 -0.08,-17.52 -0.27,-35.06 0.1,-52.58 20.22,0.48 41,-1.99 59.45,-10.75 13.9,-6.5 25.87,-17.41 32.74,-31.22 4.14,-7.85 6.18,-16.54 7.89,-25.18 z" />
  </g>
  <g
     style="stroke-width:2.5"
     transform="matrix(0.07356054,0,0,0.07356054,-0.29307689,-0.80800114)"
     id="#af0036ff">
    <path
       style="fill:#af0036;stroke-width:2.5"
       id="path3243"
       d="M 4.08,11.08 C 193.72,10.89 383.36,11.05 573,11 c 100.31,0.05 200.62,-0.11 300.92,0.08 0.19,191.97 0.03,383.95 0.08,575.92 -0.06,97.97 0.11,195.95 -0.08,293.92 C 753.28,881.11 632.64,880.95 512,881 342.69,880.95 173.38,881.11 4.08,880.92 3.9,774.61 4.05,668.3 4,562 4.05,378.36 3.89,194.72 4.08,11.08 m 59.28,260.87 c -0.03,116.29 -0.01,232.58 -0.01,348.87 7.88,0.42 15.77,0.08 23.65,0.18 17.88,-0.13 35.78,0.26 53.65,-0.18 0.14,-45.24 -0.23,-90.49 0.18,-135.73 25.39,-0.23 50.79,-0.01 76.18,-0.1 12.95,0.16 26.77,1.61 37.59,9.38 10.79,7.63 15.95,20.6 18.73,33.06 3.93,18.95 4.15,38.38 6.29,57.56 1.36,12.13 2.97,24.45 7.62,35.83 25.66,0.38 51.34,0.16 77,0.1 -2.7,-5.52 -5.56,-11.03 -7.13,-17.01 -5.65,-20.48 -5.79,-41.9 -6.97,-62.97 -1.34,-21.33 -5.05,-43.65 -17.63,-61.49 -7.91,-11.45 -20.2,-19.33 -33.56,-22.89 5.36,-2.84 11,-5.15 16.1,-8.48 12.63,-7.78 23.13,-19.04 29.61,-32.42 7.77,-15.95 10.17,-34.02 9.65,-51.61 -0.76,-21.82 -8.96,-43.45 -23.61,-59.74 -14.15,-15.96 -33.98,-26.35 -54.82,-30.3 -9.49,-2.01 -19.22,-2.14 -28.87,-2.41 -55.67,0 -111.34,-0.01 -167.01,0 -5.55,0.03 -11.12,-0.31 -16.64,0.35 m 594.49,16.93 c -25.48,15.67 -43.31,41.36 -54.18,68.82 -17.14,43.02 -19.5,90.54 -14.24,136.14 3.99,31.17 12.47,62.78 31.22,88.49 9.96,13.65 22.97,25.16 38.08,32.81 18.24,9.26 38.9,13.23 59.27,12.88 20.93,0.53 42.03,-4.49 60.33,-14.69 26.26,-14.55 45.78,-40.03 54.35,-68.67 10.54,-34.41 8.17,-73.66 -10.37,-104.97 -8.35,-14.53 -21.28,-25.96 -35.67,-34.31 -16.82,-9.59 -36.18,-15.25 -55.63,-14.41 -22.08,-0.38 -44.78,6.67 -61.08,21.94 -5.34,4.58 -9.38,10.38 -14.2,15.44 -0.3,-8.46 1.18,-16.84 2.34,-25.19 2.9,-17.21 7.57,-34.44 16.43,-49.62 6.78,-11.6 16.84,-21.94 29.81,-26.3 12.39,-4.26 26.77,-3.6 38.07,3.35 12.98,7.63 21.08,21.58 24.15,36.05 7.48,0.46 14.98,0.07 22.47,0.19 14.65,-0.09 29.31,0.16 43.96,-0.1 -1.73,-15.04 -6.32,-29.79 -13.72,-43.01 -9.6,-17.13 -24.52,-31.23 -42.17,-39.84 -18.2,-9.09 -38.8,-12.65 -59.04,-11.97 -21.08,0.16 -42.19,5.89 -60.18,16.97 m -177.59,-9.69 c -1.71,8.64 -3.75,17.33 -7.89,25.18 -6.87,13.81 -18.84,24.72 -32.74,31.22 -18.45,8.76 -39.23,11.23 -59.45,10.75 -0.37,17.52 -0.18,35.06 -0.1,52.58 28.61,0.26 57.23,-0.1 85.84,0.16 0.24,73.94 -0.09,147.9 0.16,221.84 23.23,0.11 46.47,0.2 69.7,-0.04 0.07,-113.92 0.08,-227.84 0,-341.76 -18.5,-0.16 -37.03,-0.3 -55.52,0.07 z" />
    <path
       style="fill:#af0036;stroke-width:2.5"
       id="path3245"
       d="m 140.83,331.97 c 27.71,-0.35 55.44,-0.03 83.16,-0.15 13.81,0.1 28.79,2.2 39.57,11.61 9.59,8.29 13.1,21.33 13.57,33.57 0.29,12.46 -1.38,25.83 -9.03,36.11 -6.66,9.05 -17.62,13.83 -28.46,15.52 -13.79,1.96 -27.76,1.24 -41.64,1.37 -19.06,-0.08 -38.12,0.14 -57.17,-0.09 -0.44,-29.3 -0.01,-58.61 -0.21,-87.91 -0.04,-3.34 0.04,-6.69 0.21,-10.03 z" />
    <path
       style="fill:#af0036;stroke-width:2.5"
       id="path3247"
       d="m 705.4,444.6 c 12.04,-2.19 25.09,-1.1 35.79,5.23 11.69,6.78 19.54,18.71 23.62,31.38 5.53,17.32 5.82,36.62 -0.84,53.69 -4.91,13.09 -14.14,25.02 -26.93,31.15 -12.99,6.24 -28.8,5.9 -41.78,-0.19 -12.82,-5.91 -22.45,-17.4 -27.79,-30.29 -7.06,-16.73 -7.43,-35.94 -2.1,-53.21 3.33,-10.96 9.59,-21.24 18.73,-28.28 6.18,-4.84 13.59,-8.03 21.3,-9.48 z" />
  </g>
</svg>
