<?xml version="1.0" encoding="utf-8"?>
<!-- Generator: Adobe Illustrator 26.5.0, SVG Export Plug-In . SVG Version: 6.00 Build 0)  -->
<svg version="1.1" id="Capa_1" xmlns="http://www.w3.org/2000/svg" xmlns:xlink="http://www.w3.org/1999/xlink" x="0px" y="0px"
	 viewBox="0 0 100 100" style="enable-background:new 0 0 100 100;" xml:space="preserve">
<style type="text/css">
	.st0{fill-rule:evenodd;clip-rule:evenodd;fill:#E87200;}
	.st1{fill:#FFFFFF;}
</style>
<g>
	<rect x="0" class="st0" width="100" height="100"/>
	<g>
		<path class="st1" d="M8.8,30.7h21.3c7.1,0,11.6,4.9,11.6,10.9c0,4.7-1.9,8.2-6.3,9.9v0.1c4.3,1.1,5.5,5.3,5.8,9.3
			c0.2,2.5,0.1,7.2,1.7,9.4h-8.7c-1.1-2.5-0.9-6.3-1.4-9.5c-0.6-4.2-2.2-6-6.6-6h-8.7v15.5H8.8V30.7z M17.5,48.6H27
			c3.9,0,6-1.7,6-5.7c0-3.8-2.1-5.5-6-5.5h-9.5V48.6z"/>
		<path class="st1" d="M61.1,70.3h-7.9V45.1h-9.7v-5.9c5.5,0.1,10.5-1.8,11.3-7.7h6.3V70.3z"/>
		<path class="st1" d="M93.3,38.3C85.1,45.4,80.7,60,80.6,70.3h-8.4c0.9-11.5,5.6-22.6,13-31.5H66.8v-7.3h26.4V38.3z"/>
	</g>
</g>
</svg>
