<?xml version="1.0" encoding="utf-8"?>
<!-- Generator: Adobe Illustrator 26.5.0, SVG Export Plug-In . SVG Version: 6.00 Build 0)  -->
<svg version="1.1" id="Capa_1" xmlns="http://www.w3.org/2000/svg" xmlns:xlink="http://www.w3.org/1999/xlink" x="0px" y="0px"
	 viewBox="0 0 100 100" style="enable-background:new 0 0 100 100;" xml:space="preserve">
<style type="text/css">
	.st0{fill-rule:evenodd;clip-rule:evenodd;fill:#079039;}
	.st1{fill-rule:evenodd;clip-rule:evenodd;fill:#FFFFFF;}
</style>
<g>
	<rect class="st0" width="100" height="100"/>
	<path class="st1" d="M8.8,75.8h11.6V55.4h10.9c6.1,0,8.2,2.7,8.8,8.2c0.7,4.1,0.7,8.8,2,12.2h11.6c-2-2.7-2-8.8-2.7-12.2
		c0-5.4-1.4-10.9-7.5-12.2c6.1-2.7,8.2-6.8,8.2-12.9c0-8.2-5.4-15-15-15H8.8V75.8z M20.4,32.3h12.2c4.8,0,8.2,2.7,8.2,7.5
		c0,5.4-3.4,7.5-8.2,7.5H20.4V32.3z"/>
	<path class="st1" d="M66.7,44.6c0-5.4,2-12.2,8.2-12.2c4.1,0,7.5,3.4,7.5,8.2c0,6.1-6.1,9.5-10.9,12.2
		c-8.8,6.1-15.7,11.6-15.7,23.1h37.4V67H68.7c4.1-5.4,10.2-8.2,15-11.6c4.8-4.1,8.8-8.2,8.8-15.6c0-10.2-8.2-16.3-17-16.3
		c-12.2,0-19,9.5-19,21.1C56.5,44.6,66.7,44.6,66.7,44.6z"/>
</g>
</svg>
