<?xml version="1.0" encoding="UTF-8" standalone="no"?>
<!-- Created with Inkscape (http://www.inkscape.org/) -->
<svg
   xmlns:dc="http://purl.org/dc/elements/1.1/"
   xmlns:cc="http://creativecommons.org/ns#"
   xmlns:rdf="http://www.w3.org/1999/02/22-rdf-syntax-ns#"
   xmlns:svg="http://www.w3.org/2000/svg"
   xmlns="http://www.w3.org/2000/svg"
   xmlns:sodipodi="http://sodipodi.sourceforge.net/DTD/sodipodi-0.dtd"
   xmlns:inkscape="http://www.inkscape.org/namespaces/inkscape"
   width="64"
   height="64"
   id="svg21844"
   sodipodi:version="0.32"
   inkscape:version="0.46"
   sodipodi:docname="R2b (new).svg"
   inkscape:output_extension="org.inkscape.output.svg.inkscape"
   version="1.0">
  <defs
     id="defs21846">
    <inkscape:perspective
       sodipodi:type="inkscape:persp3d"
       inkscape:vp_x="0 : 32 : 1"
       inkscape:vp_y="0 : 1000 : 0"
       inkscape:vp_z="64 : 32 : 1"
       inkscape:persp3d-origin="32 : 21.333333 : 1"
       id="perspective21852" />
  </defs>
  <sodipodi:namedview
     id="base"
     pagecolor="#ffffff"
     bordercolor="#666666"
     borderopacity="1.0"
     inkscape:pageopacity="0.0"
     inkscape:pageshadow="2"
     inkscape:zoom="8.703125"
     inkscape:cx="32"
     inkscape:cy="32"
     inkscape:current-layer="layer1"
     showgrid="true"
     inkscape:document-units="px"
     inkscape:grid-bbox="true"
     inkscape:window-width="1158"
     inkscape:window-height="758"
     inkscape:window-x="80"
     inkscape:window-y="80"
     showguides="true"
     inkscape:guide-bbox="true" />
  <metadata
     id="metadata21849">
    <rdf:RDF>
      <cc:Work
         rdf:about="">
        <dc:format>image/svg+xml</dc:format>
        <dc:type
           rdf:resource="http://purl.org/dc/dcmitype/StillImage" />
      </cc:Work>
    </rdf:RDF>
  </metadata>
  <g
     id="layer1"
     inkscape:label="Layer 1"
     inkscape:groupmode="layer"
     transform="translate(-0.7873347,136.12828)">
    <rect
       style="opacity:1;fill:#009900;fill-opacity:1;fill-rule:nonzero;stroke:none;stroke-width:7.08599996999999959;stroke-linecap:round;stroke-linejoin:round;stroke-miterlimit:4;stroke-dasharray:7.08600000000000030, 14.17200000000000060;stroke-dashoffset:0;stroke-opacity:1"
       id="rect21854"
       width="64"
       height="64"
       x="0.78733474"
       y="-136.12828" />
    <path
       style="font-size:47.52000046px;font-style:normal;font-variant:normal;font-weight:bold;font-stretch:normal;text-align:start;line-height:125%;writing-mode:lr-tb;text-anchor:start;fill:#ffffff;fill-opacity:1;stroke:none;stroke-width:1px;stroke-linecap:butt;stroke-linejoin:miter;stroke-opacity:1;font-family:Helvetica Neue;"
       d="M 12.978952,-105.34933 L 12.978952,-114.90085 L 21.152392,-114.90085 C 22.863092,-114.90082 24.14613,-114.52066 25.001512,-113.76037 C 25.856849,-113.0317 26.284528,-111.8437 26.284552,-110.19637 C 26.284528,-108.48562 25.856849,-107.2501 25.001512,-106.48981 C 24.14613,-105.72947 22.863092,-105.34931 21.152392,-105.34933 L 12.978952,-105.34933 M 5.5183121,-120.69829 L 5.5183121,-86.769005 L 12.978952,-86.769005 L 12.978952,-100.02708 L 20.439592,-100.02708 C 22.308692,-100.02707 23.655091,-99.615232 24.478792,-98.791565 C 25.302449,-97.967874 25.841009,-96.668995 26.094472,-94.894925 C 26.284528,-93.532678 26.427088,-92.10708 26.522152,-90.618125 C 26.617168,-89.129162 26.870608,-87.846124 27.282472,-86.769005 L 34.743112,-86.769005 C 34.3946,-87.244204 34.125321,-87.814444 33.935272,-88.479725 C 33.776841,-89.176682 33.650121,-89.905322 33.555112,-90.665645 C 33.491721,-91.42596 33.444201,-92.170439 33.412552,-92.899085 C 33.380841,-93.627718 33.349161,-94.261317 33.317512,-94.799885 C 33.254121,-95.655236 33.127402,-96.510595 32.937352,-97.365965 C 32.778922,-98.221313 32.509642,-98.997473 32.129512,-99.694445 C 31.749323,-100.42307 31.258283,-101.04083 30.656392,-101.54772 C 30.054445,-102.08627 29.294125,-102.48227 28.375432,-102.73572 L 28.375432,-102.83076 C 30.276204,-103.59107 31.638443,-104.69987 32.462152,-106.15717 C 33.317481,-107.61442 33.745161,-109.34098 33.745192,-111.33685 C 33.745161,-112.6357 33.507561,-113.83954 33.032392,-114.94837 C 32.588842,-116.08882 31.923563,-117.08673 31.036552,-117.94213 C 30.181164,-118.79745 29.135725,-119.46273 27.900232,-119.93797 C 26.696368,-120.44481 25.334129,-120.69825 23.813512,-120.69829 L 5.5183121,-120.69829 M 38.245486,-107.25013 L 44.708206,-107.25013 C 44.708198,-108.13714 44.787398,-109.02418 44.945806,-109.91125 C 45.135878,-110.82994 45.436837,-111.65362 45.848686,-112.38229 C 46.260517,-113.14258 46.799076,-113.7445 47.464366,-114.18805 C 48.161315,-114.66322 49.000834,-114.90082 49.982926,-114.90085 C 51.440191,-114.90082 52.62819,-114.44146 53.546926,-113.52277 C 54.497308,-112.6357 54.972508,-111.38434 54.972526,-109.76869 C 54.972508,-108.7549 54.734908,-107.85202 54.259726,-107.06005 C 53.816189,-106.26803 53.24595,-105.55523 52.549006,-104.92164 C 51.883711,-104.28803 51.139232,-103.70195 50.315566,-103.1634 C 49.491873,-102.65651 48.715714,-102.14963 47.987086,-101.64276 C 46.561476,-100.66067 45.199238,-99.694432 43.900366,-98.744045 C 42.63316,-97.793634 41.524361,-96.748195 40.573966,-95.607725 C 39.623563,-94.498917 38.863244,-93.231718 38.293006,-91.806125 C 37.754445,-90.380521 37.485165,-88.701483 37.485166,-86.769005 L 61.910447,-86.769005 L 61.910447,-92.566445 L 46.181326,-92.566445 C 47.004996,-93.706918 47.955395,-94.704837 49.032526,-95.560205 C 50.109633,-96.415555 51.218432,-97.207554 52.358926,-97.936205 C 53.499389,-98.696513 54.624028,-99.456832 55.732846,-100.21716 C 56.873306,-100.97747 57.887065,-101.81699 58.774126,-102.73572 C 59.661143,-103.68611 60.373943,-104.76323 60.912527,-105.96709 C 61.451062,-107.1709 61.720341,-108.61234 61.720367,-110.29141 C 61.720341,-111.90706 61.403542,-113.36434 60.769967,-114.66325 C 60.168023,-115.9621 59.344344,-117.05505 58.298926,-117.94213 C 57.253466,-118.82913 56.033787,-119.51025 54.639886,-119.98549 C 53.27763,-120.46065 51.836191,-120.69825 50.315566,-120.69829 C 48.319715,-120.69825 46.545636,-120.34977 44.993326,-119.65285 C 43.472679,-118.98753 42.205481,-118.03713 41.191726,-116.80165 C 40.177963,-115.59778 39.417643,-114.17218 38.910766,-112.52485 C 38.403884,-110.90914 38.182125,-109.1509 38.245486,-107.25013"
       id="text22626" />
  </g>
</svg>
