<?xml version="1.0" encoding="UTF-8" standalone="no"?>
<svg
   xmlns:dc="http://purl.org/dc/elements/1.1/"
   xmlns:cc="http://creativecommons.org/ns#"
   xmlns:rdf="http://www.w3.org/1999/02/22-rdf-syntax-ns#"
   xmlns:svg="http://www.w3.org/2000/svg"
   xmlns="http://www.w3.org/2000/svg"
   xml:space="preserve"
   enable-background="new 0 0 64 64"
   viewBox="0 0 64 64"
   height="64px"
   width="64px"
   viewBox="0 0 64 64"
   y="0px"
   x="0px"
   id="svg21844"
   version="1.1"><metadata
   id="metadata23"><rdf:RDF><cc:Work
       rdf:about=""><dc:format>image/svg+xml</dc:format><dc:type
         rdf:resource="http://purl.org/dc/dcmitype/StillImage" /><dc:title></dc:title></cc:Work></rdf:RDF></metadata><defs
   id="defs21" />
<g
   id="g16">
	<rect
   id="rect2"
   height="64"
   width="64"
   fill="#99CC00"
   clip-rule="evenodd"
   fill-rule="evenodd" />
	<path
   id="path4"
   d="M6.2,38.9h7.1V26.3h7.1c3.6,0,4.9,1.5,5.4,4.9   c0.4,2.6,0.3,5.7,1.1,7.7h7.1c-1.3-1.8-1.2-5.6-1.3-7.6c-0.2-3.3-1.2-6.6-4.7-7.5v-0.1c3.6-1.4,5.1-4.3,5.1-8.1   c0-4.9-3.6-8.9-9.4-8.9H6.2V38.9z M13.3,12.2H21c3.2,0,4.9,1.4,4.9,4.5c0,3.3-1.7,4.6-4.9,4.6h-7.7V12.2z"
   fill="#FFFFFF"
   clip-rule="evenodd"
   fill-rule="evenodd" />
	<path
   id="path6"
   d="M43.5,19.5c0-3.3,1.2-7.3,5-7.3c2.8,0,4.7,1.9,4.7,4.9   c0,3.9-3.8,5.8-6.6,7.7c-5.5,3.7-9.9,6.8-10,14.1h23.2v-5.5h-15c2.3-3.3,6-5.1,9.1-7.3c3.1-2.2,5.6-4.8,5.6-9.6   c0-6.2-5.1-9.9-10.8-9.9c-7.6,0-11.7,5.6-11.5,12.8H43.5z"
   fill="#FFFFFF"
   clip-rule="evenodd"
   fill-rule="evenodd" />
	<polygon
   id="polygon8"
   points="18.5,57 18.5,57 9.1,41.7 6,41.7 6,60.6 8.5,60.6    8.5,45.4 8.6,45.4 18.1,60.6 21,60.6 21,41.7 18.5,41.7  "
   fill="#FFFFFF"
   clip-rule="evenodd"
   fill-rule="evenodd" />
	<path
   id="path10"
   d="M23.1,53.7c0,3.5,2,7.2,6.4,7.2c4.4,0,6.4-3.7,6.4-7.2   c0-3.5-2-7.2-6.4-7.2C25.1,46.5,23.1,50.2,23.1,53.7 M25.5,53.7c0-1.8,0.7-5.3,4-5.3c3.3,0,4,3.4,4,5.3c0,1.8-0.7,5.3-4,5.3   C26.2,59,25.5,55.6,25.5,53.7"
   fill="#FFFFFF"
   clip-rule="evenodd"
   fill-rule="evenodd" />
	<path
   id="path12"
   d="M40.3,52.6c0-2,1.4-3.7,3.5-3.7h0.9v-2.4   c-0.2-0.1-0.3-0.1-0.6-0.1c-1.7,0-2.9,1.1-3.9,2.7h-0.1v-2.3H38v13.7h2.3V52.6z"
   fill="#FFFFFF"
   clip-rule="evenodd"
   fill-rule="evenodd" />
	<path
   id="path14"
   d="M57.1,41.7h-2.3v6.9l-0.1,0.2c-0.5-0.8-1.6-2.3-4.1-2.3   c-3.6,0-5.7,3-5.7,6.9c0,3.3,1.4,7.7,6,7.7c1.4,0,2.9-0.4,3.9-2.3h0.1v1.9h2.2V41.7z M47.3,53.7c0-1.8,0.2-5.1,3.7-5.1   c3.3,0,3.7,3.6,3.7,5.8c0,3.6-2.3,4.6-3.8,4.6C48.5,59,47.3,56.7,47.3,53.7"
   fill="#FFFFFF"
   clip-rule="evenodd"
   fill-rule="evenodd" />
</g>
</svg>