<?xml version="1.0" encoding="utf-8"?>
<!-- Generator: Adobe Illustrator 26.5.0, SVG Export Plug-In . SVG Version: 6.00 Build 0)  -->
<svg version="1.1" id="Capa_1" xmlns="http://www.w3.org/2000/svg" xmlns:xlink="http://www.w3.org/1999/xlink" x="0px" y="0px"
	 viewBox="0 0 100 121.1" style="enable-background:new 0 0 100 121.1;" xml:space="preserve">
<style type="text/css">
	.st0{fill-rule:evenodd;clip-rule:evenodd;fill:#D8D800;}
	.st1{fill-rule:evenodd;clip-rule:evenodd;fill:#FFFFFF;}
</style>
<g>
	<rect class="st0" width="100" height="121.1"/>
	<path class="st1" d="M8.8,75.5h11.6V55.1h10.9c6.1,0,8.2,2,8.8,7.5c0.7,4.1,0.7,9.5,2,12.9h11.6c-2-3.4-2-9.5-2-12.2
		c-0.7-5.4-2-10.9-8.2-12.2v-0.7c6.1-2,8.8-6.8,8.8-12.9c0-7.5-6.1-14.3-15.6-14.3H8.8V75.5z M20.4,32h12.2c5.4,0,8.2,2,8.2,7.5
		c0,4.8-2.7,7.5-8.2,7.5H20.4V32z"/>
	<path class="st1" d="M68,43.5c0-5.4,2-11.6,8.2-11.6c4.1,0,7.5,3.4,7.5,8.2c0,6.1-6.1,9.5-10.9,12.2c-8.8,6.1-15.6,10.9-15.6,23.1
		h37.4v-8.8H70.1c4.1-5.4,9.5-8.2,15-12.2c4.8-3.4,8.8-7.5,8.8-15.6c0-9.5-8.2-15.6-17-15.6c-12.9,0-19,8.8-19,20.4H68z"/>
	<polygon class="st1" points="8.2,112.9 13.6,112.9 13.6,93.9 25.2,112.9 31.3,112.9 31.3,85 25.2,85 25.2,103.4 13.6,85 8.2,85 	
		"/>
	<path class="st1" d="M35.4,102.7c0,6.1,4.1,10.2,10.2,10.2s10.2-4.1,10.2-10.2c0-6.8-4.1-10.9-10.2-10.9S35.4,95.9,35.4,102.7z
		 M40.8,102.7c0-3.4,1.4-6.8,4.8-6.8c4.1,0,4.8,3.4,4.8,6.8c0,3.4-0.7,6.1-4.8,6.1C42.2,108.8,40.8,106.1,40.8,102.7z"/>
	<path class="st1" d="M59.9,112.9h5.4v-9.5c0-3.4,1.4-6.1,5.4-6.1c0.7,0,1.4,0,2,0v-4.8c-0.7-0.7-1.4-0.7-1.4-0.7
		c-2.7,0-5.4,2-6.8,4.8v-4.1h-4.8V112.9z"/>
	<path class="st1" d="M88.4,112.9h4.8V85h-5.4v10.2c-1.4-2-3.4-3.4-6.1-3.4c-5.4,0-8.8,5.4-8.8,10.9c0,5.4,3.4,10.2,9.5,10.2
		c2,0,4.8-0.7,6.1-2.7V112.9z M88.4,102.7c0,3.4-1.4,6.1-4.8,6.1c-3.4,0-5.4-3.4-5.4-6.1c0-3.4,1.4-6.8,5.4-6.8
		C87.1,95.9,88.4,99.3,88.4,102.7z"/>
</g>
</svg>
