<?xml version="1.0" encoding="utf-8"?>
<!-- Generator: Adobe Illustrator 26.5.0, SVG Export Plug-In . SVG Version: 6.00 Build 0)  -->
<svg version="1.1" id="Capa_1" xmlns="http://www.w3.org/2000/svg" xmlns:xlink="http://www.w3.org/1999/xlink" x="0px" y="0px"
	 viewBox="0 0 100 121.1" style="enable-background:new 0 0 100 121.1;" xml:space="preserve">
<style type="text/css">
	.st0{fill-rule:evenodd;clip-rule:evenodd;fill:#005C24;}
	.st1{fill-rule:evenodd;clip-rule:evenodd;fill:#FFFFFF;}
</style>
<g>
	<rect x="0" class="st0" width="100" height="121.1"/>
	<path class="st1" d="M8.2,75.3h11.6V54.7h11.6c6.2,0,8.2,2.7,8.9,8.2c0.7,4.1,0,8.9,2.1,12.3h11c-2.1-2.7-1.4-8.9-2.1-12.3
		c0-5.5-2.1-11-7.5-12.3c6.2-2.7,8.2-6.8,8.2-13c0-8.2-6.2-15.1-15.1-15.1H8.2V75.3z M19.9,31.4h13c4.8,0,7.5,2.7,7.5,7.5
		c0,5.5-2.7,7.5-7.5,7.5h-13V31.4z"/>
	<path class="st1" d="M68.5,43.8c0-5.5,1.4-12.3,7.5-12.3c4.8,0,8.2,3.4,8.2,8.2c0,6.2-6.2,9.6-11,12.3
		c-8.9,6.2-16.4,11.6-16.4,23.3h38.4v-8.9H70.5c3.4-5.5,9.6-8.2,15.1-11.6c4.8-4.1,8.9-8.2,8.9-15.8c0-10.3-8.2-16.4-17.8-16.4
		c-12.3,0-19.2,9.6-18.5,21.2H68.5z"/>
	<path class="st1" d="M15.1,104c0,6.8,5.5,9.6,11.6,9.6c8.2,0,11.6-3.4,11.6-8.9c0-6.2-6.2-7.5-8.2-8.2c-6.8-1.4-8.2-2.1-8.2-4.1
		c0-2.1,2.7-3.4,4.1-3.4c3.4,0,5.5,1.4,5.5,4.8h6.2c0-6.8-5.5-9.6-11-9.6c-5.5,0-10.3,2.7-10.3,8.9c0,4.8,4.1,6.8,8.2,7.5
		c4.1,1.4,8.2,2.1,8.2,4.8c0,2.7-3.4,3.4-5.5,3.4c-3.4,0-6.2-1.4-6.2-4.8H15.1z"/>
	<path class="st1" d="M61,93.1h-6.2v10.3c0,4.1-0.7,6.2-4.1,6.2c-2.7,0-3.4-2.1-3.4-5.5v-11h-5.5v12.3c0,4.8,1.4,8.2,7.5,8.2
		c2.1,0,4.8-1.4,6.2-3.4v2.7H61V93.1z"/>
	<path class="st1" d="M79.5,112.9h4.8V84.9h-5.5v10.3c-1.4-2.1-3.4-2.7-6.2-2.7c-5.5,0-8.9,4.8-8.9,10.3c0,5.5,3.4,11,9.6,11
		c2.1,0,4.8-0.7,6.2-3.4V112.9z M79.5,102.7c0,3.4-1.4,6.8-4.8,6.8c-3.4,0-4.8-3.4-4.8-6.8c0-2.7,0.7-6.2,4.8-6.2
		C78.1,96.5,79.5,99.9,79.5,102.7z"/>
</g>
</svg>
