<?xml version="1.0" encoding="UTF-8" standalone="no"?>
<svg
   xml:space="preserve"
   enable-background="new 0 0 64 64"
   viewBox="0 0 64 64"
   height="64px"
   width="64px"
   y="0px"
   x="0px"
   id="svg21844"
   version="1.1"
   xmlns="http://www.w3.org/2000/svg"
   xmlns:svg="http://www.w3.org/2000/svg"
   xmlns:rdf="http://www.w3.org/1999/02/22-rdf-syntax-ns#"
   xmlns:cc="http://creativecommons.org/ns#"
   xmlns:dc="http://purl.org/dc/elements/1.1/"><metadata
   id="metadata21"><rdf:RDF><cc:Work
       rdf:about=""><dc:format>image/svg+xml</dc:format><dc:type
         rdf:resource="http://purl.org/dc/dcmitype/StillImage" /></cc:Work></rdf:RDF></metadata><defs
   id="defs19" />
<g
   id="g14">
	<rect
   id="rect2"
   height="64"
   width="64"
   fill="#339966"
   clip-rule="evenodd"
   fill-rule="evenodd" />
	<path
   id="path4"
   d="M6.1,43.2h7.1V30.6h7.1c3.6,0,4.9,1.5,5.4,4.9   c0.4,2.6,0.3,5.7,1.1,7.7h7.1c-1.2-1.8-1.2-5.6-1.3-7.6c-0.2-3.2-1.2-6.6-4.7-7.5v-0.1c3.6-1.5,5.1-4.3,5.1-8.1   c0-4.9-3.6-8.9-9.4-8.9H6.1V43.2z M13.2,16.4H21c3.2,0,4.9,1.4,4.9,4.5c0,3.3-1.7,4.6-4.9,4.6h-7.8V16.4z"
   fill="#FFFFFF"
   clip-rule="evenodd"
   fill-rule="evenodd" />
	<path
   id="path6"
   d="M43.4,23.7c0-3.3,1.2-7.3,5-7.3c2.7,0,4.7,1.9,4.7,4.9   c0,3.9-3.8,5.8-6.6,7.7c-5.5,3.7-9.9,6.8-10,14.1h23.2v-5.5H44.8c2.3-3.3,6-5.1,9.1-7.3c3.1-2.2,5.6-4.8,5.6-9.6   c0-6.2-5.1-9.9-10.8-9.9c-7.6,0-11.7,5.6-11.5,12.8H43.4z"
   fill="#FFFFFF"
   clip-rule="evenodd"
   fill-rule="evenodd" />
	<path
   id="path8"
   d="M25.1,49.6c-0.1-1.7-0.6-5-6.1-5c-3.8,0-5.4,2.4-5.4,4.8   c0,2.7,2.3,3.5,3.3,3.7l3.2,0.8c2.6,0.6,3.3,1.1,3.3,2.7c0,2.3-2.6,2.6-4.1,2.6c-2,0-4.3-0.8-4.3-3.7h-2c0,1.5,0.3,2.7,1.6,3.9   c0.7,0.6,1.8,1.5,4.7,1.5c2.7,0,6.1-1,6.1-4.7c0-2.5-1.5-3.7-3.6-4.2l-4.5-1c-0.9-0.2-1.9-0.7-1.9-2c0-2.4,2.2-2.7,3.6-2.7   c1.8,0,3.8,0.8,3.9,3.2H25.1z"
   fill="#FFFFFF"
   clip-rule="evenodd"
   fill-rule="evenodd" />
	<path
   id="path10"
   d="M36.5,60.6V49.3h-1.9v6.3c0,1.7-0.7,3.8-3.1,3.8   c-1.3,0-2.2-0.6-2.2-2.5v-7.5h-1.9v8.2c0,2.7,2,3.5,3.7,3.5c1.8,0,2.8-0.7,3.6-2l0,0.1v1.6H36.5z"
   fill="#FFFFFF"
   clip-rule="evenodd"
   fill-rule="evenodd" />
	<path
   id="path12"
   d="M48.1,45h-1.9v5.7l-0.1,0.1c-0.5-0.7-1.3-1.9-3.4-1.9   c-3,0-4.7,2.5-4.7,5.7c0,2.7,1.1,6.3,5,6.3c1.1,0,2.4-0.4,3.3-1.9h0v1.5h1.8V45z M40,54.9c0-1.5,0.1-4.3,3.1-4.3   c2.8,0,3.1,3,3.1,4.8c0,3-1.9,3.8-3.1,3.8C41,59.3,40,57.4,40,54.9"
   fill="#FFFFFF"
   clip-rule="evenodd"
   fill-rule="evenodd" />
</g>
</svg>
