<?xml version="1.0" encoding="UTF-8" standalone="no"?>
<!-- Created with Inkscape (http://www.inkscape.org/) -->
<svg
   xmlns:dc="http://purl.org/dc/elements/1.1/"
   xmlns:cc="http://creativecommons.org/ns#"
   xmlns:rdf="http://www.w3.org/1999/02/22-rdf-syntax-ns#"
   xmlns:svg="http://www.w3.org/2000/svg"
   xmlns="http://www.w3.org/2000/svg"
   xmlns:sodipodi="http://sodipodi.sourceforge.net/DTD/sodipodi-0.dtd"
   xmlns:inkscape="http://www.inkscape.org/namespaces/inkscape"
   width="64"
   height="64"
   id="svg21844"
   sodipodi:version="0.32"
   inkscape:version="0.46"
   sodipodi:docname="R3.svg"
   inkscape:output_extension="org.inkscape.output.svg.inkscape"
   version="1.0">
  <defs
     id="defs21846">
    <inkscape:perspective
       sodipodi:type="inkscape:persp3d"
       inkscape:vp_x="0 : 32 : 1"
       inkscape:vp_y="0 : 1000 : 0"
       inkscape:vp_z="64 : 32 : 1"
       inkscape:persp3d-origin="32 : 21.333333 : 1"
       id="perspective21852" />
  </defs>
  <sodipodi:namedview
     id="base"
     pagecolor="#ffffff"
     bordercolor="#666666"
     borderopacity="1.0"
     inkscape:pageopacity="0.0"
     inkscape:pageshadow="2"
     inkscape:zoom="8.703125"
     inkscape:cx="32"
     inkscape:cy="32"
     inkscape:current-layer="layer1"
     showgrid="true"
     inkscape:document-units="px"
     inkscape:grid-bbox="true"
     inkscape:window-width="1123"
     inkscape:window-height="757"
     inkscape:window-x="20"
     inkscape:window-y="20"
     showguides="true"
     inkscape:guide-bbox="true" />
  <metadata
     id="metadata21849">
    <rdf:RDF>
      <cc:Work
         rdf:about="">
        <dc:format>image/svg+xml</dc:format>
        <dc:type
           rdf:resource="http://purl.org/dc/dcmitype/StillImage" />
      </cc:Work>
    </rdf:RDF>
  </metadata>
  <g
     id="layer1"
     inkscape:label="Layer 1"
     inkscape:groupmode="layer"
     transform="translate(-0.7873347,136.12828)">
    <rect
       style="opacity:1;fill:#ff131a;fill-opacity:1;fill-rule:nonzero;stroke:none;stroke-width:7.08599996999999959;stroke-linecap:round;stroke-linejoin:round;stroke-miterlimit:4;stroke-dasharray:7.08600000000000030, 14.17200000000000060;stroke-dashoffset:0;stroke-opacity:1"
       id="rect21854"
       width="64"
       height="64"
       x="0.78733474"
       y="-136.12828" />
    <path
       style="font-size:47.52000046px;font-style:normal;font-variant:normal;font-weight:bold;font-stretch:normal;text-align:start;line-height:125%;writing-mode:lr-tb;text-anchor:start;fill:#ffffff;fill-opacity:1;stroke:none;stroke-width:1px;stroke-linecap:butt;stroke-linejoin:miter;stroke-opacity:1;font-family:Helvetica Neue;"
       d="M 12.978952,-105.34933 L 12.978952,-114.90085 L 21.152392,-114.90085 C 22.863092,-114.90082 24.14613,-114.52066 25.001512,-113.76037 C 25.856849,-113.0317 26.284528,-111.8437 26.284552,-110.19637 C 26.284528,-108.48562 25.856849,-107.2501 25.001512,-106.48981 C 24.14613,-105.72947 22.863092,-105.34931 21.152392,-105.34933 L 12.978952,-105.34933 M 5.5183121,-120.69829 L 5.5183121,-86.769005 L 12.978952,-86.769005 L 12.978952,-100.02708 L 20.439592,-100.02708 C 22.308692,-100.02707 23.655091,-99.615232 24.478792,-98.791565 C 25.302449,-97.967874 25.841009,-96.668995 26.094472,-94.894925 C 26.284528,-93.532678 26.427088,-92.10708 26.522152,-90.618125 C 26.617168,-89.129162 26.870608,-87.846124 27.282472,-86.769005 L 34.743112,-86.769005 C 34.3946,-87.244204 34.125321,-87.814444 33.935272,-88.479725 C 33.776841,-89.176682 33.650121,-89.905322 33.555112,-90.665645 C 33.491721,-91.42596 33.444201,-92.170439 33.412552,-92.899085 C 33.380841,-93.627718 33.349161,-94.261317 33.317512,-94.799885 C 33.254121,-95.655236 33.127402,-96.510595 32.937352,-97.365965 C 32.778922,-98.221313 32.509642,-98.997473 32.129512,-99.694445 C 31.749323,-100.42307 31.258283,-101.04083 30.656392,-101.54772 C 30.054445,-102.08627 29.294125,-102.48227 28.375432,-102.73572 L 28.375432,-102.83076 C 30.276204,-103.59107 31.638443,-104.69987 32.462152,-106.15717 C 33.317481,-107.61442 33.745161,-109.34098 33.745192,-111.33685 C 33.745161,-112.6357 33.507561,-113.83954 33.032392,-114.94837 C 32.588842,-116.08882 31.923563,-117.08673 31.036552,-117.94213 C 30.181164,-118.79745 29.135725,-119.46273 27.900232,-119.93797 C 26.696368,-120.44481 25.334129,-120.69825 23.813512,-120.69829 L 5.5183121,-120.69829 M 47.321806,-106.58485 L 47.321806,-101.83284 C 48.145475,-101.83283 49.000834,-101.80115 49.887886,-101.7378 C 50.806592,-101.70611 51.646111,-101.53187 52.406446,-101.21508 C 53.16675,-100.92995 53.784509,-100.45475 54.259726,-99.789485 C 54.766588,-99.124193 55.020028,-98.157954 55.020046,-96.890765 C 55.020028,-95.275076 54.497308,-93.992038 53.451886,-93.041645 C 52.406431,-92.12292 51.123392,-91.66356 49.602766,-91.663565 C 48.620674,-91.66356 47.765315,-91.8378 47.036686,-92.186285 C 46.339717,-92.534759 45.753637,-92.994119 45.278446,-93.564365 C 44.803238,-94.166277 44.438918,-94.863237 44.185486,-95.655245 C 43.932039,-96.478915 43.789479,-97.334274 43.757806,-98.221325 L 37.342606,-98.221325 C 37.310925,-96.288835 37.580205,-94.578117 38.150446,-93.089165 C 38.752364,-91.6002 39.591883,-90.333001 40.669006,-89.287565 C 41.746121,-88.273803 43.045,-87.497644 44.565646,-86.959085 C 46.117957,-86.420525 47.828675,-86.151245 49.697806,-86.151245 C 51.313472,-86.151245 52.86579,-86.388845 54.354766,-86.864045 C 55.843707,-87.339244 57.158426,-88.036204 58.298926,-88.954925 C 59.439384,-89.873642 60.342263,-91.014121 61.007567,-92.376365 C 61.704501,-93.738598 62.052981,-95.290916 62.053007,-97.033325 C 62.052981,-98.934113 61.530261,-100.56563 60.484847,-101.92788 C 59.439384,-103.29011 57.997945,-104.17715 56.160526,-104.589 L 56.160526,-104.68404 C 57.712825,-105.12755 58.869144,-105.96707 59.629486,-107.20261 C 60.421463,-108.4381 60.817462,-109.8637 60.817487,-111.47941 C 60.817462,-112.96834 60.484823,-114.28306 59.819566,-115.42357 C 59.154264,-116.56402 58.283065,-117.53025 57.205966,-118.32229 C 56.160507,-119.11425 54.972508,-119.70033 53.641966,-120.08053 C 52.311391,-120.49233 50.980832,-120.69825 49.650286,-120.69829 C 47.939555,-120.69825 46.387236,-120.41313 44.993326,-119.84293 C 43.599399,-119.30433 42.39556,-118.52817 41.381806,-117.51445 C 40.399722,-116.50066 39.623563,-115.28098 39.053326,-113.85541 C 38.514764,-112.46146 38.213805,-110.90914 38.150446,-109.19845 L 44.565646,-109.19845 C 44.533958,-110.90914 44.945798,-112.3189 45.801166,-113.42773 C 46.688196,-114.56818 47.987075,-115.13842 49.697806,-115.13845 C 50.933312,-115.13842 52.026271,-114.75826 52.976686,-113.99797 C 53.927069,-113.23762 54.402269,-112.14466 54.402286,-110.71909 C 54.402269,-109.76866 54.164669,-109.00834 53.689486,-108.43813 C 53.24595,-107.86786 52.65987,-107.42434 51.931246,-107.10757 C 51.234272,-106.82242 50.473952,-106.64819 49.650286,-106.58485 C 48.826594,-106.52147 48.050435,-106.52147 47.321806,-106.58485"
       id="text22626" />
  </g>
</svg>
