<?xml version="1.0" encoding="utf-8"?>
<!-- Generator: Adobe Illustrator 26.5.0, SVG Export Plug-In . SVG Version: 6.00 Build 0)  -->
<svg version="1.1" id="Capa_1" xmlns="http://www.w3.org/2000/svg" xmlns:xlink="http://www.w3.org/1999/xlink" x="0px" y="0px"
	 viewBox="0 0 100 100" style="enable-background:new 0 0 100 100;" xml:space="preserve">
<style type="text/css">
	.st0{fill-rule:evenodd;clip-rule:evenodd;fill:#E53628;}
	.st1{fill-rule:evenodd;clip-rule:evenodd;fill:#FFFFFF;}
</style>
<g>
	<rect x="0" class="st0" width="100" height="100"/>
	<path class="st1" d="M8.84,75.51h11.56V55.1h11.56c5.44,0,7.48,2.04,8.16,8.16c0.68,4.08,0.68,8.84,2.04,12.24h11.56
		c-2.04-2.72-2.04-8.84-2.04-12.24c-0.68-5.44-2.04-10.88-7.48-12.24c5.44-2.72,8.16-7.48,8.16-13.61c0-7.48-6.12-14.29-15.65-14.29
		H8.84V75.51z M20.41,31.97h12.24c5.44,0,8.16,2.04,8.16,7.48c0,5.44-2.72,7.48-8.16,7.48H20.41V31.97z"/>
	<path class="st1" d="M71.43,52.38c4.76,0,11.56,0,11.56,7.48c0,4.76-3.4,8.16-8.16,8.16c-6.12,0-8.84-4.76-8.84-10.2h-10.2
		c0,11.56,7.48,18.37,19.05,18.37c10.2,0,19.05-5.44,19.05-16.33c0-6.12-3.4-10.88-8.84-11.56v-0.68c4.76-1.36,6.8-5.44,6.8-10.2
		c0-8.84-8.84-14.29-17.01-14.29c-10.2,0-17.01,7.48-17.69,17.69h10.2c0-5.44,2.72-8.84,7.48-8.84c4.08,0,7.48,2.04,7.48,6.8
		c0,5.44-6.8,6.8-10.88,6.12V52.38z"/>
</g>
</svg>
