<?xml version="1.0" encoding="UTF-8" standalone="no"?>
<!-- Created with Inkscape (http://www.inkscape.org/) -->

<svg
   xmlns:dc="http://purl.org/dc/elements/1.1/"
   xmlns:cc="http://creativecommons.org/ns#"
   xmlns:rdf="http://www.w3.org/1999/02/22-rdf-syntax-ns#"
   xmlns:svg="http://www.w3.org/2000/svg"
   xmlns="http://www.w3.org/2000/svg"
   xmlns:sodipodi="http://sodipodi.sourceforge.net/DTD/sodipodi-0.dtd"
   xmlns:inkscape="http://www.inkscape.org/namespaces/inkscape"
   width="64"
   height="64"
   id="svg21844"
   sodipodi:version="0.32"
   inkscape:version="0.91 r13725"
   sodipodi:docname="R50.svg"
   inkscape:output_extension="org.inkscape.output.svg.inkscape"
   version="1.0"
   style="enable-background:new">
  <defs
     id="defs21846">
    <inkscape:perspective
       sodipodi:type="inkscape:persp3d"
       inkscape:vp_x="0 : 32 : 1"
       inkscape:vp_y="0 : 1000 : 0"
       inkscape:vp_z="64 : 32 : 1"
       inkscape:persp3d-origin="32 : 21.333333 : 1"
       id="perspective21852" />
    <inkscape:perspective
       id="perspective2937"
       inkscape:persp3d-origin="0.5 : 0.33333333 : 1"
       inkscape:vp_z="1 : 0.5 : 1"
       inkscape:vp_y="0 : 1000 : 0"
       inkscape:vp_x="0 : 0.5 : 1"
       sodipodi:type="inkscape:persp3d" />
    <inkscape:perspective
       id="perspective2850"
       inkscape:persp3d-origin="0.5 : 0.33333333 : 1"
       inkscape:vp_z="1 : 0.5 : 1"
       inkscape:vp_y="0 : 1000 : 0"
       inkscape:vp_x="0 : 0.5 : 1"
       sodipodi:type="inkscape:persp3d" />
    <inkscape:perspective
       id="perspective2893"
       inkscape:persp3d-origin="0.5 : 0.33333333 : 1"
       inkscape:vp_z="1 : 0.5 : 1"
       inkscape:vp_y="0 : 1000 : 0"
       inkscape:vp_x="0 : 0.5 : 1"
       sodipodi:type="inkscape:persp3d" />
  </defs>
  <sodipodi:namedview
     id="base"
     pagecolor="#ffffff"
     bordercolor="#666666"
     borderopacity="1.0"
     inkscape:pageopacity="0.0"
     inkscape:pageshadow="2"
     inkscape:zoom="12.84375"
     inkscape:cx="32"
     inkscape:cy="32.000001"
     inkscape:current-layer="layer1"
     showgrid="false"
     inkscape:document-units="px"
     inkscape:grid-bbox="true"
     inkscape:window-width="1920"
     inkscape:window-height="1007"
     inkscape:window-x="0"
     inkscape:window-y="27"
     showguides="false"
     inkscape:guide-bbox="true"
     inkscape:snap-global="false"
     inkscape:window-maximized="1">
    <inkscape:grid
       type="xygrid"
       id="grid2829"
       empspacing="5"
       visible="true"
       enabled="true"
       snapvisiblegridlinesonly="true" />
  </sodipodi:namedview>
  <metadata
     id="metadata21849">
    <rdf:RDF>
      <cc:Work
         rdf:about="">
        <dc:format>image/svg+xml</dc:format>
        <dc:type
           rdf:resource="http://purl.org/dc/dcmitype/StillImage" />
        <dc:title />
      </cc:Work>
    </rdf:RDF>
  </metadata>
  <g
     id="layer1"
     inkscape:label="Layer 1"
     inkscape:groupmode="layer"
     transform="translate(-0.78733522,136.12828)">
    <text
       xml:space="preserve"
       style="font-size:60px;font-style:normal;font-weight:normal;fill:#ffffff;fill-opacity:1;stroke:none;font-family:Aparajita;-inkscape-font-specification:Aparajita"
       x="66.625755"
       y="-89.708176"
       id="text2816"><tspan
         sodipodi:role="line"
         id="tspan2818"
         x="66.625755"
         y="-89.708176" /></text>
    <rect
       style="fill:#007d9b;fill-opacity:1;fill-rule:nonzero;stroke:none"
       id="rect21854"
       width="64"
       height="64"
       x="0.78733522"
       y="-136.12828" />
    <g
       id="g3787"
       transform="matrix(0.72122892,0,0,0.72054845,1.1462284,-29.715831)">
      <path
         id="text22626"
         d="m 9.7934457,-104.65978 0,-9.55152 8.1895103,0 c 1.714063,3e-5 2.999624,0.38019 3.856688,1.14048 0.857018,0.72867 1.285538,1.91667 1.285562,3.564 -2.4e-5,1.71075 -0.428544,2.94627 -1.285562,3.70656 -0.857064,0.76034 -2.142625,1.1405 -3.856688,1.14048 l -8.1895103,0 m -7.4753091,-15.34896 0,33.929289 7.4753091,0 0,-13.258075 7.4753083,0 c 1.872775,1e-5 3.221822,0.411848 4.047142,1.235515 0.825276,0.823691 1.364895,2.12257 1.618857,3.89664 0.190429,1.362247 0.33327,2.787845 0.428521,4.2768 0.0952,1.488963 0.349141,2.772001 0.761814,3.84912 l 7.47531,0 c -0.349198,-0.475199 -0.619006,-1.045439 -0.809429,-1.71072 -0.158742,-0.696957 -0.285711,-1.425597 -0.380907,-2.18592 -0.06352,-0.760315 -0.111129,-1.504794 -0.142841,-2.23344 -0.03177,-0.728633 -0.06351,-1.362232 -0.09523,-1.9008 -0.06352,-0.855351 -0.190484,-1.71071 -0.380908,-2.56608 -0.158741,-0.855348 -0.428551,-1.631508 -0.809428,-2.32848 -0.380937,-0.728625 -0.872942,-1.346389 -1.476017,-1.853279 -0.60313,-0.53855 -1.364945,-0.93455 -2.285445,-1.188 l 0,-0.095 c 1.90451,-0.76031 3.269427,-1.86911 4.094756,-3.32641 0.857011,-1.45725 1.285531,-3.18381 1.285562,-5.17968 -3.1e-5,-1.29885 -0.238098,-2.50269 -0.714201,-3.61152 -0.444422,-1.14045 -1.111009,-2.13836 -1.999764,-2.99376 -0.85707,-0.85532 -1.904565,-1.5206 -3.142487,-1.99584 -1.206231,-0.50684 -2.571148,-0.76028 -4.094755,-0.76032 l -18.3311714,0 m 54.8365434,6.22512 0,-5.55984 -18.616855,0 -3.285327,18.39025 6.09452,0 c 0.666581,-0.91871 1.380781,-1.58399 2.142605,-1.99584 0.761804,-0.44351 1.745815,-0.66527 2.952033,-0.66528 0.920512,1e-5 1.729941,0.15841 2.428285,0.4752 0.698314,0.31681 1.301418,0.76033 1.809311,1.33056 0.507859,0.57025 0.888766,1.23553 1.142722,1.995844 0.25392,0.760328 0.380889,1.568167 0.380908,2.423515 -1.9e-5,0.823691 -0.142859,1.63153 -0.428521,2.42352 -0.253957,0.760328 -0.634863,1.441448 -1.142723,2.04336 -0.47615,0.570246 -1.079254,1.045446 -1.80931,1.4256 -0.698345,0.348485 -1.491902,0.522725 -2.380672,0.52272 -1.523641,5e-6 -2.77746,-0.443515 -3.761461,-1.33056 -0.984019,-0.918713 -1.55538,-2.138392 -1.714085,-3.65904 l -6.761107,0 c 0.03174,1.742408 0.380906,3.278887 1.047495,4.60944 0.698328,1.298884 1.618854,2.391843 2.761579,3.27888 1.142718,0.887041 2.444149,1.552321 3.904303,1.99584 1.491877,0.41184 3.047249,0.61776 4.666116,0.61776 1.682328,0.03168 3.26944,-0.2376 4.761344,-0.80784 1.491868,-0.601919 2.793301,-1.441438 3.904301,-2.51856 1.1427,-1.077116 2.047355,-2.344315 2.713967,-3.8016 0.666562,-1.488952 0.999856,-3.08879 0.999882,-4.79952 -2.6e-5,-1.552307 -0.238093,-3.009589 -0.714201,-4.371839 -0.444417,-1.39391 -1.111005,-2.59775 -1.999766,-3.61153 -0.857063,-1.01373 -1.920428,-1.82157 -3.1901,-2.42352 -1.269709,-0.60189 -2.729854,-0.90285 -4.380436,-0.90288 -1.33319,3e-5 -2.523524,0.20595 -3.571007,0.61776 -1.047506,0.38019 -2.031516,1.02963 -2.952033,1.94832 l -0.09523,-0.095 1.333176,-7.55568 13.760284,0"
         style="font-size:47.52000046px;font-style:normal;font-variant:normal;font-weight:bold;font-stretch:normal;text-align:start;line-height:125%;writing-mode:lr-tb;text-anchor:start;fill:#ffffff;fill-opacity:1;stroke:none;font-family:Helvetica Neue;-inkscape-font-specification:Helvetica Neue Bold" />
      <path
         id="text2389"
         d="m 67.861873,-102.46446 c -8e-6,-0.56233 -8e-6,-1.23401 0,-2.01507 0.03161,-0.81226 0.09487,-1.64015 0.189759,-2.48369 0.09487,-0.8435 0.253004,-1.67139 0.474398,-2.4837 0.221376,-0.84348 0.521828,-1.59327 0.901355,-2.24937 0.411136,-0.65604 0.91716,-1.18715 1.518074,-1.59331 0.632519,-0.40611 1.407368,-0.60918 2.32455,-0.60921 0.917154,3e-5 1.692004,0.2031 2.324549,0.60921 0.632514,0.40616 1.154351,0.93727 1.565514,1.59331 0.411127,0.6561 0.711577,1.40589 0.901354,2.24937 0.221368,0.81231 0.379501,1.6402 0.474398,2.4837 0.126488,0.84354 0.189741,1.67143 0.189759,2.48369 0.0316,0.78106 0.04742,1.45274 0.04745,2.01507 -1.9e-5,0.93725 -0.03163,2.07757 -0.09488,3.420923 -0.06327,1.312149 -0.268845,2.593053 -0.616719,3.842692 -0.316282,1.218423 -0.853932,2.265007 -1.612951,3.139763 -0.727427,0.874766 -1.786914,1.312138 -3.178466,1.312138 -1.359953,0 -2.403627,-0.437372 -3.131028,-1.312138 -0.727425,-0.874756 -1.265076,-1.92134 -1.612959,-3.139763 -0.316274,-1.249639 -0.506032,-2.530543 -0.569278,-3.842692 -0.06326,-1.343353 -0.09489,-2.483673 -0.09488,-3.420923 m -6.736449,0 c -10e-7,3.280353 0.316264,6.029589 0.948796,8.247722 0.664153,2.186905 1.549696,3.936416 2.656628,5.248555 1.106922,1.312138 2.387795,2.249371 3.842621,2.811719 1.486438,0.562348 3.051949,0.843517 4.69654,0.843517 1.676191,0 3.241701,-0.281169 4.696539,-0.843517 1.486426,-0.562348 2.783113,-1.499581 3.890062,-2.811719 1.13853,-1.312139 2.024073,-3.06165 2.656627,-5.248555 0.664132,-2.218133 0.99621,-4.967369 0.996236,-8.247722 -2.6e-5,-3.1866 -0.332104,-5.85774 -0.996236,-8.01342 -0.632554,-2.18687 -1.518097,-3.93638 -2.656627,-5.24854 -1.106949,-1.31211 -2.403636,-2.24935 -3.890062,-2.81172 -1.454838,-0.56232 -3.020348,-0.8435 -4.696539,-0.84353 -1.644591,3e-5 -3.210102,0.28121 -4.69654,0.84353 -1.454826,0.56237 -2.735699,1.49961 -3.842621,2.81172 -1.106932,1.31216 -1.992475,3.06167 -2.656628,5.24854 -0.632532,2.15568 -0.948797,4.82682 -0.948796,8.01342"
         style="font-size:43.19571686px;font-style:normal;font-variant:normal;font-weight:bold;font-stretch:normal;text-align:start;line-height:125%;writing-mode:lr-tb;text-anchor:start;fill:#ffffff;fill-opacity:1;stroke:none;font-family:Helvetica Neue;-inkscape-font-specification:Helvetica Neue Bold" />
    </g>
  </g>
</svg>
