<?xml version="1.0" encoding="UTF-8" standalone="no"?>
<!-- Created with Inkscape (http://www.inkscape.org/) -->

<svg
   xmlns:dc="http://purl.org/dc/elements/1.1/"
   xmlns:cc="http://creativecommons.org/ns#"
   xmlns:rdf="http://www.w3.org/1999/02/22-rdf-syntax-ns#"
   xmlns:svg="http://www.w3.org/2000/svg"
   xmlns="http://www.w3.org/2000/svg"
   xmlns:sodipodi="http://sodipodi.sourceforge.net/DTD/sodipodi-0.dtd"
   xmlns:inkscape="http://www.inkscape.org/namespaces/inkscape"
   width="64"
   height="64"
   id="svg21844"
   sodipodi:version="0.32"
   inkscape:version="0.47 r22583"
   sodipodi:docname="R60_barcelona.svg"
   inkscape:output_extension="org.inkscape.output.svg.inkscape"
   version="1.0">
  <defs
     id="defs21846">
    <inkscape:perspective
       sodipodi:type="inkscape:persp3d"
       inkscape:vp_x="0 : 32 : 1"
       inkscape:vp_y="0 : 1000 : 0"
       inkscape:vp_z="64 : 32 : 1"
       inkscape:persp3d-origin="32 : 21.333333 : 1"
       id="perspective21852" />
    <inkscape:perspective
       id="perspective2859"
       inkscape:persp3d-origin="0.5 : 0.33333333 : 1"
       inkscape:vp_z="1 : 0.5 : 1"
       inkscape:vp_y="0 : 1000 : 0"
       inkscape:vp_x="0 : 0.5 : 1"
       sodipodi:type="inkscape:persp3d" />
    <inkscape:perspective
       id="perspective2882"
       inkscape:persp3d-origin="0.5 : 0.33333333 : 1"
       inkscape:vp_z="1 : 0.5 : 1"
       inkscape:vp_y="0 : 1000 : 0"
       inkscape:vp_x="0 : 0.5 : 1"
       sodipodi:type="inkscape:persp3d" />
  </defs>
  <sodipodi:namedview
     id="base"
     pagecolor="#ffffff"
     bordercolor="#666666"
     borderopacity="1.0"
     inkscape:pageopacity="0.0"
     inkscape:pageshadow="2"
     inkscape:zoom="5"
     inkscape:cx="13.069801"
     inkscape:cy="31.999999"
     inkscape:current-layer="layer1"
     showgrid="false"
     inkscape:document-units="px"
     inkscape:grid-bbox="true"
     inkscape:window-width="1059"
     inkscape:window-height="757"
     inkscape:window-x="110"
     inkscape:window-y="31"
     showguides="true"
     inkscape:guide-bbox="true"
     inkscape:window-maximized="0">
    <inkscape:grid
       type="xygrid"
       id="grid2823"
       empspacing="5"
       visible="true"
       enabled="true"
       snapvisiblegridlinesonly="true" />
  </sodipodi:namedview>
  <metadata
     id="metadata21849">
    <rdf:RDF>
      <cc:Work
         rdf:about="">
        <dc:format>image/svg+xml</dc:format>
        <dc:type
           rdf:resource="http://purl.org/dc/dcmitype/StillImage" />
      </cc:Work>
    </rdf:RDF>
  </metadata>
  <g
     id="layer1"
     inkscape:label="Layer 1"
     inkscape:groupmode="layer"
     transform="translate(-0.78733474,136.12828)">
    <rect
       style="fill:#585a63;fill-opacity:1;fill-rule:nonzero;stroke:none"
       id="rect21854"
       width="64"
       height="64"
       x="0.78733474"
       y="-136.12828" />
    <g
       id="g2842"
       transform="matrix(0.71646307,0,0,0.71968272,1.1126935,-28.79869)">
      <path
         id="text22626"
         d="m 9.8412807,-105.99824 0,-9.55152 8.1734403,0 c 1.7107,3e-5 2.993738,0.38019 3.84912,1.14048 0.855337,0.72867 1.283016,1.91667 1.28304,3.564 -2.4e-5,1.71075 -0.427703,2.94627 -1.28304,3.70656 -0.855382,0.76034 -2.13842,1.1405 -3.84912,1.14048 l -8.1734403,0 m -7.4606399,-15.34896 0,33.929285 7.4606399,0 0,-13.258075 7.4606403,0 c 1.8691,1e-5 3.215499,0.41185 4.0392,1.235515 0.823657,0.823691 1.362217,2.12257 1.61568,3.89664 0.190056,1.362247 0.332616,2.787845 0.42768,4.2768 0.09502,1.488963 0.348456,2.772001 0.76032,3.84912 l 7.46064,0 c -0.348512,-0.475199 -0.617791,-1.045439 -0.80784,-1.71072 -0.158431,-0.696957 -0.285151,-1.425597 -0.38016,-2.18592 -0.06339,-0.760315 -0.110911,-1.504794 -0.14256,-2.23344 -0.03171,-0.728633 -0.06339,-1.362232 -0.09504,-1.9008 -0.06339,-0.855351 -0.19011,-1.71071 -0.38016,-2.56608 -0.15843,-0.855348 -0.42771,-1.631508 -0.80784,-2.328485 -0.380189,-0.72862 -0.871229,-1.34638 -1.47312,-1.85327 -0.601947,-0.53855 -1.362267,-0.93455 -2.28096,-1.188 l 0,-0.095 c 1.900772,-0.76031 3.263011,-1.86911 4.08672,-3.32641 0.855329,-1.45725 1.283009,-3.18381 1.28304,-5.17968 -3.1e-5,-1.29885 -0.237631,-2.50269 -0.7128,-3.61152 -0.44355,-1.14045 -1.108829,-2.13836 -1.99584,-2.99376 -0.855388,-0.85532 -1.900827,-1.5206 -3.13632,-1.99584 -1.203864,-0.50684 -2.566103,-0.76028 -4.08672,-0.76032 l -18.2952002,0 m 44.5596542,16.67953 c 0.855346,1e-5 1.599825,0.19009 2.23344,0.57024 0.665264,0.34849 1.203823,0.82369 1.61568,1.4256 0.411823,0.57025 0.712782,1.23553 0.90288,1.99584 0.221742,0.728648 0.332622,1.488967 0.33264,2.280955 -1.8e-5,0.76033 -0.110898,1.50481 -0.33264,2.23344 -0.221778,0.728648 -0.554417,1.378087 -0.99792,1.94832 -0.443536,0.570246 -0.982096,1.029606 -1.61568,1.37808 -0.601935,0.348485 -1.314734,0.522725 -2.1384,0.52272 -0.855372,5e-6 -1.615692,-0.174235 -2.28096,-0.52272 -0.66529,-0.348474 -1.23553,-0.807834 -1.71072,-1.37808 -0.443529,-0.601912 -0.792008,-1.267192 -1.04544,-1.99584 -0.221768,-0.76031 -0.332648,-1.52063 -0.33264,-2.28096 -8e-6,-0.823668 0.110872,-1.599825 0.33264,-2.328475 0.221752,-0.76031 0.554391,-1.42559 0.99792,-1.99584 0.44351,-0.57023 0.99791,-1.01375 1.6632,-1.33056 0.696948,-0.34847 1.488948,-0.52271 2.376,-0.52272 m 4.84704,-7.46065 6.415201,0 c -0.190105,-1.48893 -0.586105,-2.80365 -1.188,-3.94416 -0.601944,-1.14045 -1.378103,-2.09084 -2.328481,-2.8512 -0.95042,-0.79196 -2.043379,-1.39388 -3.27888,-1.80576 -1.235536,-0.4118 -2.566095,-0.61772 -3.99168,-0.61776 -2.376011,4e-5 -4.387689,0.52276 -6.03504,1.56816 -1.647366,1.04548 -2.993765,2.40771 -4.0392,4.08672 -1.045443,1.64739 -1.805762,3.50067 -2.28096,5.55984 -0.475201,2.05923 -0.712801,4.11842 -0.7128,6.17761 -1e-6,2.12257 0.190079,4.213447 0.57024,6.272635 0.380158,2.027528 1.061278,3.849127 2.04336,5.4648 0.982076,1.615683 2.296794,2.930402 3.94416,3.94416 1.647351,0.98208 3.722389,1.47312 6.22512,1.47312 1.742385,0 3.326383,-0.30096 4.752,-0.90288 1.425581,-0.633599 2.645259,-1.488958 3.65904,-2.56608 1.045417,-1.108796 1.837416,-2.391835 2.376001,-3.84912 0.570214,-1.488952 0.855334,-3.08879 0.85536,-4.79952 -2.6e-5,-1.330545 -0.205946,-2.645265 -0.61776,-3.944155 -0.411865,-1.29887 -1.061304,-2.45519 -1.948321,-3.46897 -0.950421,-1.04542 -2.10674,-1.86909 -3.46896,-2.47104 -1.362258,-0.63357 -2.756176,-0.95037 -4.18176,-0.9504 -1.615693,3e-5 -3.041292,0.28515 -4.2768,0.85536 -1.235529,0.57027 -2.312648,1.52066 -3.23136,2.8512 l -0.09504,-0.095 c 0.03167,-0.9187 0.158393,-1.96413 0.38016,-3.13632 0.221752,-1.17213 0.570232,-2.26509 1.04544,-3.27888 0.475191,-1.04541 1.10879,-1.91661 1.9008,-2.6136 0.823669,-0.72861 1.837428,-1.09293 3.04128,-1.09296 1.172145,3e-5 2.154224,0.41187 2.94624,1.23552 0.791983,0.82371 1.298862,1.78995 1.52064,2.89872"
         style="font-size:47.52000046px;font-style:normal;font-variant:normal;font-weight:bold;font-stretch:normal;text-align:start;line-height:125%;writing-mode:lr-tb;text-anchor:start;fill:#ffffff;fill-opacity:1;stroke:none;font-family:Helvetica Neue;-inkscape-font-specification:Helvetica Neue Bold" />
      <path
         id="text2389"
         d="m 67.787329,-104.17863 c -8e-6,-0.57336 -8e-6,-1.25823 0,-2.05461 0.03285,-0.82822 0.09858,-1.67235 0.197183,-2.53246 0.09858,-0.86007 0.262902,-1.7042 0.492958,-2.53246 0.230037,-0.86003 0.542243,-1.62453 0.936619,-2.29353 0.42722,-0.66892 0.953042,-1.21046 1.577465,-1.62458 0.657265,-0.41409 1.462429,-0.62114 2.415494,-0.62117 0.953035,3e-5 1.7582,0.20708 2.415492,0.62117 0.65726,0.41412 1.199513,0.95566 1.626762,1.62458 0.427211,0.669 0.739416,1.4335 0.936617,2.29353 0.230029,0.82826 0.394349,1.67239 0.492958,2.53246 0.131437,0.86011 0.197164,1.70424 0.197183,2.53246 0.03284,0.79638 0.04928,1.48125 0.04931,2.05461 -2e-5,0.95567 -0.03287,2.11836 -0.09859,3.48808 -0.06575,1.33791 -0.279363,2.643968 -0.640847,3.91814 -0.328656,1.242338 -0.887341,2.309464 -1.676055,3.201398 -0.755886,0.891931 -1.856823,1.337898 -3.302817,1.337898 -1.413159,0 -2.497664,-0.445967 -3.253523,-1.337898 -0.755884,-0.891934 -1.31457,-1.95906 -1.676063,-3.201398 -0.328648,-1.274172 -0.52583,-2.58023 -0.59155,-3.91814 -0.06574,-1.36972 -0.0986,-2.53241 -0.09859,-3.48808 m -6.999999,0 c -1e-6,3.34477 0.328637,6.147966 0.985915,8.409638 0.690137,2.229842 1.610325,4.013696 2.760564,5.351596 1.150228,1.3379 2.481213,2.293527 3.992956,2.866916 1.544592,0.57338 3.17135,0.86007 4.880283,0.86007 1.741768,0 3.368526,-0.28669 4.880281,-0.86007 1.54458,-0.573389 2.891997,-1.529016 4.042253,-2.866916 1.183073,-1.3379 2.103261,-3.121754 2.760563,-5.351596 0.690115,-2.261672 1.035184,-5.064868 1.035211,-8.409638 -2.7e-5,-3.24915 -0.345096,-5.97273 -1.035211,-8.17073 -0.657302,-2.22979 -1.57749,-4.01366 -2.760563,-5.35157 -1.150256,-1.33787 -2.497673,-2.29351 -4.042253,-2.86691 -1.511755,-0.57336 -3.138513,-0.86006 -4.880281,-0.8601 -1.708933,4e-5 -3.335691,0.28674 -4.880283,0.8601 -1.511743,0.5734 -2.842728,1.52904 -3.992956,2.86691 -1.150239,1.33791 -2.070427,3.12178 -2.760564,5.35157 -0.657278,2.198 -0.985916,4.92158 -0.985915,8.17073"
         style="font-size:43.19571686px;font-style:normal;font-variant:normal;font-weight:bold;font-stretch:normal;text-align:start;line-height:125%;writing-mode:lr-tb;text-anchor:start;fill:#ffffff;fill-opacity:1;stroke:none;font-family:Helvetica Neue;-inkscape-font-specification:Helvetica Neue Bold" />
    </g>
  </g>
</svg>
