<?xml version="1.0" encoding="UTF-8" standalone="no"?>
<!-- Created with Inkscape (http://www.inkscape.org/) -->
<svg
   xmlns:dc="http://purl.org/dc/elements/1.1/"
   xmlns:cc="http://creativecommons.org/ns#"
   xmlns:rdf="http://www.w3.org/1999/02/22-rdf-syntax-ns#"
   xmlns:svg="http://www.w3.org/2000/svg"
   xmlns="http://www.w3.org/2000/svg"
   xmlns:sodipodi="http://sodipodi.sourceforge.net/DTD/sodipodi-0.dtd"
   xmlns:inkscape="http://www.inkscape.org/namespaces/inkscape"
   width="64"
   height="64"
   id="svg21844"
   sodipodi:version="0.32"
   inkscape:version="0.46"
   sodipodi:docname="R7.svg"
   inkscape:output_extension="org.inkscape.output.svg.inkscape"
   version="1.0">
  <defs
     id="defs21846">
    <inkscape:perspective
       sodipodi:type="inkscape:persp3d"
       inkscape:vp_x="0 : 32 : 1"
       inkscape:vp_y="0 : 1000 : 0"
       inkscape:vp_z="64 : 32 : 1"
       inkscape:persp3d-origin="32 : 21.333333 : 1"
       id="perspective21852" />
  </defs>
  <sodipodi:namedview
     id="base"
     pagecolor="#ffffff"
     bordercolor="#666666"
     borderopacity="1.0"
     inkscape:pageopacity="0.0"
     inkscape:pageshadow="2"
     inkscape:zoom="8.703125"
     inkscape:cx="32"
     inkscape:cy="32"
     inkscape:current-layer="layer1"
     showgrid="true"
     inkscape:document-units="px"
     inkscape:grid-bbox="true"
     inkscape:window-width="1141"
     inkscape:window-height="763"
     inkscape:window-x="160"
     inkscape:window-y="160"
     showguides="true"
     inkscape:guide-bbox="true" />
  <metadata
     id="metadata21849">
    <rdf:RDF>
      <cc:Work
         rdf:about="">
        <dc:format>image/svg+xml</dc:format>
        <dc:type
           rdf:resource="http://purl.org/dc/dcmitype/StillImage" />
      </cc:Work>
    </rdf:RDF>
  </metadata>
  <g
     id="layer1"
     inkscape:label="Layer 1"
     inkscape:groupmode="layer"
     transform="translate(-0.7873347,136.12828)">
    <rect
       style="opacity:1;fill:#bd7db5;fill-opacity:1;fill-rule:nonzero;stroke:none;stroke-width:7.08599996999999959;stroke-linecap:round;stroke-linejoin:round;stroke-miterlimit:4;stroke-dasharray:7.08600000000000030, 14.17200000000000060;stroke-dashoffset:0;stroke-opacity:1"
       id="rect21854"
       width="64"
       height="64"
       x="0.78733474"
       y="-136.12828" />
    <path
       style="font-size:47.52000046px;font-style:normal;font-variant:normal;font-weight:bold;font-stretch:normal;text-align:start;line-height:125%;writing-mode:lr-tb;text-anchor:start;fill:#ffffff;fill-opacity:1;stroke:none;stroke-width:1px;stroke-linecap:butt;stroke-linejoin:miter;stroke-opacity:1;font-family:Helvetica Neue;-inkscape-font-specification:Helvetica Neue Bold"
       d="M 12.978952,-105.34933 L 12.978952,-114.90085 L 21.152392,-114.90085 C 22.863092,-114.90082 24.14613,-114.52066 25.001512,-113.76037 C 25.856849,-113.0317 26.284528,-111.8437 26.284552,-110.19637 C 26.284528,-108.48562 25.856849,-107.2501 25.001512,-106.48981 C 24.14613,-105.72947 22.863092,-105.34931 21.152392,-105.34933 L 12.978952,-105.34933 M 5.5183121,-120.69829 L 5.5183121,-86.769005 L 12.978952,-86.769005 L 12.978952,-100.02708 L 20.439592,-100.02708 C 22.308692,-100.02707 23.655091,-99.615232 24.478792,-98.791565 C 25.302449,-97.967874 25.841009,-96.668995 26.094472,-94.894925 C 26.284528,-93.532678 26.427088,-92.10708 26.522152,-90.618125 C 26.617168,-89.129162 26.870608,-87.846124 27.282472,-86.769005 L 34.743112,-86.769005 C 34.3946,-87.244204 34.125321,-87.814444 33.935272,-88.479725 C 33.776841,-89.176682 33.650121,-89.905322 33.555112,-90.665645 C 33.491721,-91.42596 33.444201,-92.170439 33.412552,-92.899085 C 33.380841,-93.627718 33.349161,-94.261317 33.317512,-94.799885 C 33.254121,-95.655236 33.127402,-96.510595 32.937352,-97.365965 C 32.778922,-98.221313 32.509642,-98.997473 32.129512,-99.694445 C 31.749323,-100.42307 31.258283,-101.04083 30.656392,-101.54772 C 30.054445,-102.08627 29.294125,-102.48227 28.375432,-102.73572 L 28.375432,-102.83076 C 30.276204,-103.59107 31.638443,-104.69987 32.462152,-106.15717 C 33.317481,-107.61442 33.745161,-109.34098 33.745192,-111.33685 C 33.745161,-112.6357 33.507561,-113.83954 33.032392,-114.94837 C 32.588842,-116.08882 31.923563,-117.08673 31.036552,-117.94213 C 30.181164,-118.79745 29.135725,-119.46273 27.900232,-119.93797 C 26.696368,-120.44481 25.334129,-120.69825 23.813512,-120.69829 L 5.5183121,-120.69829 M 61.055087,-114.23557 L 61.055087,-120.03301 L 38.340526,-120.03301 L 38.340526,-113.76037 L 54.117166,-113.76037 C 50.949152,-109.92706 48.383074,-105.71363 46.418926,-101.12004 C 44.486438,-96.526435 43.330119,-91.74276 42.949966,-86.769005 L 50.173006,-86.769005 C 50.204673,-88.986603 50.458112,-91.37844 50.933326,-93.944525 C 51.440191,-96.510595 52.137151,-99.044993 53.024206,-101.54772 C 53.942909,-104.05043 55.067548,-106.41059 56.398126,-108.62821 C 57.760345,-110.84578 59.312664,-112.7149 61.055087,-114.23557"
       id="text22626" />
  </g>
</svg>
