<?xml version="1.0" encoding="utf-8"?>
<!-- Generator: Adobe Illustrator 26.5.0, SVG Export Plug-In . SVG Version: 6.00 Build 0)  -->
<svg version="1.1" id="Capa_1" xmlns="http://www.w3.org/2000/svg" xmlns:xlink="http://www.w3.org/1999/xlink" x="0px" y="0px"
	 viewBox="0 0 100 100" style="enable-background:new 0 0 100 100;" xml:space="preserve">
<style type="text/css">
	.st0{fill-rule:evenodd;clip-rule:evenodd;fill:#BE7FB1;}
	.st1{fill-rule:evenodd;clip-rule:evenodd;fill:#FFFFFF;}
</style>
<g>
	<rect x="0" y="0" class="st0" width="100" height="100"/>
	<path class="st1" d="M8.78,75.68h11.49V55.41h11.49c5.41,0,7.43,2.03,8.78,8.11c0.68,4.05,0,8.78,1.35,12.16h11.49
		c-2.03-2.7-2.03-8.78-2.03-12.16c0-5.41-2.03-10.81-7.43-12.16c5.41-2.7,8.11-7.43,8.11-13.51c0-8.11-6.08-14.19-15.54-14.19H8.78
		V75.68z M20.27,32.43h12.16c5.41,0,8.11,2.03,8.11,7.43s-2.7,7.43-8.11,7.43H20.27V32.43z"/>
	<path class="st1" d="M91.89,24.32H56.76v10.14h24.32c-9.46,11.49-15.54,26.35-16.89,41.22H75c0.68-13.51,6.08-33.11,16.89-41.89
		V24.32z"/>
</g>
</svg>
