<?xml version="1.0" encoding="utf-8"?>
<!-- Generator: Adobe Illustrator 24.0.1, SVG Export Plug-In . SVG Version: 6.00 Build 0)  -->
<svg version="1.1" id="Capa_1" xmlns="http://www.w3.org/2000/svg" xmlns:xlink="http://www.w3.org/1999/xlink" x="0px" y="0px"
	 viewBox="0 0 95 95" style="enable-background:new 0 0 95 95;" xml:space="preserve">
<style type="text/css">
	.st0{fill:#FFFFFF;}
	.st1{fill:none;stroke:#1D1D1B;stroke-width:1.7107;stroke-miterlimit:3.864;}
	.st2{fill:#841C66;}
</style>
<g>
	<rect class="st0" width="95" height="95"/>
	<rect y="0" class="st1" width="95" height="95"/>
	<path class="st2" d="M35,41.5c-2.2-0.4-4.2-0.4-6.9-0.1c-3.8,0.5-5.9,1.8-6.8,4.1c-0.5,1.2-0.8,2.8-1,4.1c-0.3,2.4,0.2,4.7,3.3,4.9
		c4.1,0.3,7.2,0.3,10.7-0.3l1.1-1.5c-3.2,0.5-6.9,0.4-8.2,0.2c-2.4-0.4-1.8-3.4-1.8-3.4c2.2,0.3,4.8,0.2,6.7,0
		c1.6-0.2,4.8-0.6,5.7-3C38.6,44.1,37.9,42.1,35,41.5 M33.2,46c-0.7,1.4-1.6,1.8-2.8,2c-1.3,0.3-3,0.3-4.9,0.2
		c0.1-0.8,0.5-1.9,0.7-2.5c0.7-1.6,1.6-2.5,3.4-2.9c0.8-0.2,1.5-0.2,2.4,0C33.4,43,33.9,44.7,33.2,46 M86.3,41.5
		c-2.2-0.4-4.2-0.4-6.9-0.1c-3.8,0.5-5.9,1.8-6.8,4.1c-0.5,1.2-0.9,2.8-1,4.1c-0.2,2.4,0.2,4.7,3.3,4.9c4.1,0.3,7.2,0.3,10.7-0.3
		l1.2-1.5c-3.2,0.5-6.9,0.4-8.2,0.2c-2.4-0.4-1.8-3.4-1.8-3.4c2.2,0.3,4.8,0.2,6.7,0c1.6-0.2,4.8-0.6,5.7-3
		C90,44.1,89.3,42.1,86.3,41.5 M84.6,46c-0.7,1.4-1.6,1.8-2.8,2c-1.3,0.3-3,0.3-5,0.2c0.1-0.8,0.5-1.9,0.7-2.5
		c0.7-1.6,1.6-2.5,3.4-2.9c0.8-0.2,1.5-0.2,2.4,0C84.8,43,85.2,44.7,84.6,46 M12.1,46.1c0.3-1.6,1-2.5,2.7-2.8
		c1.6-0.3,4.5-0.3,6.2-0.1l1.1-1.6c-2.5-0.2-6.8-0.4-9.4,0c-3.6,0.5-5,1.3-5.5,3.6c-0.3,1.3-1.3,7.5-1.6,9.3h5.3
		C11.2,52.4,11.9,47.5,12.1,46.1 M67.4,45.8C67,48.4,66,53.2,66,53.3c-0.7,3.2-1.3,6.1-4.3,8.2c-1.6,1.1-3.8,1.9-6.6,1.8l0.9-1.3
		c2.2,0,3.5-1.8,3.9-3c0.3-1,0.8-3,1.3-5.9l2.1-11.6c0.7-3.2,1.2-5.9,4.2-8c1.6-1.1,4.3-1.8,7-1.8l-1,1.3c-2,0-3.4,1.2-4,2.4
		c-0.5,0.9-0.9,3.4-1.4,6h4l-0.9,1.4C69,42.8,67.8,43.9,67.4,45.8 M53.8,41.4H42.1c-0.6,3.6-1.8,9.9-2.2,13h4.9
		c0.4-2.4,1.5-8.7,2-11.4h3.9c1.7,0,2.9,1.1,2.6,3c-0.2,1.5-0.9,5.2-1.5,8.4h4.9c0.5-2.2,1.2-6.6,1.6-8.4
		C58.8,43.5,57.3,41.4,53.8,41.4"/>
</g>
</svg>
