<?xml version="1.0" encoding="utf-8"?>
<!-- Generator: Adobe Illustrator 26.5.0, SVG Export Plug-In . SVG Version: 6.00 Build 0)  -->
<svg version="1.1" id="Capa_1" xmlns="http://www.w3.org/2000/svg" xmlns:xlink="http://www.w3.org/1999/xlink" x="0px" y="0px"
	 viewBox="0 0 100 100" style="enable-background:new 0 0 100 100;" xml:space="preserve">
<style type="text/css">
	.st0{fill-rule:evenodd;clip-rule:evenodd;fill:#0071CE;}
	.st1{fill-rule:evenodd;clip-rule:evenodd;fill:#FFFFFF;}
</style>
<g>
	<rect x="0" y="0" class="st0" width="100" height="100"/>
	<path class="st1" d="M5.3,66.9h7.4V51.5H20c3.7,0,5.1,1.8,5.6,6c0.4,3.1,0.3,7,1.2,9.4h7.4c-1.3-2.2-1.3-6.8-1.4-9.3
		c-0.2-4-1.3-8.1-4.9-9.2v-0.1c3.7-1.8,5.3-5.2,5.3-9.9c0-6-3.8-10.9-9.8-10.9H5.3V66.9z M12.7,34.2h8.1c3.3,0,5.1,1.7,5.1,5.5
		c0,4-1.8,5.6-5.1,5.6h-8.1V34.2z"/>
	<path class="st1" d="M64.1,66.9h4.7V45.6H54.7V52h7.4c-0.4,5.5-3.2,8.5-8,8.5c-6.6,0-9.1-6.6-9.1-13.2c0-6.9,2.5-13.5,9.1-13.5
		c3.5,0,6.2,2.3,7.1,6.6h7c-0.8-8.9-7.3-13.9-14.1-13.9c-10.4,0-16.5,9.1-16.5,20.8c0,11.4,6.1,20.5,16.5,20.5
		c3.2,0,6.6-1.5,9.2-5.4L64.1,66.9z"/>
	<path class="st1" d="M89.9,28.2h-5.3c-0.7,5.9-5,7.8-9.6,7.7v5.9h8.3v25h6.7V28.2z"/>
</g>
</svg>
