<?xml version="1.0" encoding="utf-8"?>
<!-- Generator: Adobe Illustrator 26.5.0, SVG Export Plug-In . SVG Version: 6.00 Build 0)  -->
<svg version="1.1" id="Capa_1" xmlns="http://www.w3.org/2000/svg" xmlns:xlink="http://www.w3.org/1999/xlink" x="0px" y="0px"
	 viewBox="0 0 100 100" style="enable-background:new 0 0 100 100;" xml:space="preserve">
<style type="text/css">
	.st0{fill-rule:evenodd;clip-rule:evenodd;fill:#88016A;}
	.st1{fill-rule:evenodd;clip-rule:evenodd;fill:#FFFFFF;}
</style>
<g>
	<rect class="st0" width="100" height="100"/>
	<path class="st1" d="M8.1,74.7h11.5V54.4h12.2c5.4,0,7.4,2,8.1,8.1c0.7,4.1,0.7,8.8,2,12.2h11.5c-2-2.7-2-8.8-2-12.2
		c-0.7-5.4-2-10.8-7.4-12.2v-0.7c5.4-2,8.1-6.8,8.1-12.8c0-8.1-6.1-14.2-15.5-14.2H8.1V74.7z M19.6,31.4h12.8c5.4,0,8.1,2,8.1,7.4
		c0,4.7-2.7,7.4-8.1,7.4H19.6V31.4z"/>
	<path class="st1" d="M67.6,59.1c0-5.4,4.1-8.1,9.5-8.1c4.7,0,8.8,3.4,8.8,8.1c0,5.4-4.1,8.8-8.8,8.8C71.6,67.9,67.6,64.5,67.6,59.1
		z M59.5,36.2c0,5.4,2.7,9.5,7.4,10.8c-6.1,1.3-9.5,6.1-9.5,12.8C57.4,70.6,66.9,76,77,76c9.5,0,18.9-5.4,18.9-16.2
		c0-6.8-3.4-11.5-9.5-12.8c4.7-1.3,7.4-6.1,7.4-10.8S89.9,22.6,77,22.6C68.2,22.6,59.5,27.4,59.5,36.2z M68.9,37.5
		c0-4.7,3.4-7.4,8.1-7.4c6.1,0,7.4,4.7,7.4,7.4c0,4-3.4,6.8-7.4,6.8C72.3,44.3,68.9,41.5,68.9,37.5z"/>
</g>
</svg>
