<?xml version="1.0" encoding="utf-8"?>
<!-- Generator: Adobe Illustrator 24.0.1, SVG Export Plug-In . SVG Version: 6.00 Build 0)  -->
<svg version="1.1" id="Capa_1" xmlns="http://www.w3.org/2000/svg" xmlns:xlink="http://www.w3.org/1999/xlink" x="0px" y="0px"
	 viewBox="0 0 95 95" style="enable-background:new 0 0 95 95;" xml:space="preserve">
<style type="text/css">
	.st0{fill:#EF7F23;}
	.st1{fill:#FFFFFF;}
</style>
<g>
	<rect class="st0" width="95" height="95"/>
	<path class="st1" d="M57,29h8c6.5,0,8.5,2,8.5,5.5c0,5-4.3,5.5-7.5,5.5H57V29z M39.5,71.2h17.1V51.9h9.1c6.7,0,7.2,5.5,7.7,10.8
		c0.2,2.9,0.5,5.7,1.4,8.5h17.1c-1.6-2.6-1.6-9.2-1.9-11.9c-0.6-6.9-3.5-12-8.1-13.8c5.7-2.1,8.3-8.1,8.3-13.9
		c0-10.5-8.4-15.8-18.1-15.8H39.5V71.2z"/>
</g>
</svg>
