<?xml version="1.0" encoding="UTF-8" standalone="yes"?>
<svg xmlns="http://www.w3.org/2000/svg" xmlns:xlink="http://www.w3.org/1999/xlink" width="64px" height="64px" viewBox="0 0 64 64" version="1.1">
  <g id="surface1">
    <rect x="0" y="0" width="64" height="64" style="fill:rgb(93.725491%,49.803922%,13.725491%);fill-opacity:1;stroke:none;"/>
    <path style=" stroke:none;fill-rule:nonzero;fill:rgb(100%,100%,100%);fill-opacity:1;" d="M 38.402344 19.535156 L 43.792969 19.535156 C 48.167969 19.535156 49.515625 20.886719 49.515625 23.238281 C 49.515625 26.609375 46.621094 26.949219 44.464844 26.949219 L 38.402344 26.949219 Z M 26.609375 47.96875 L 38.128906 47.96875 L 38.128906 34.964844 L 44.261719 34.964844 C 48.777344 34.964844 49.109375 38.671875 49.449219 42.238281 C 49.582031 44.191406 49.785156 46.078125 50.390625 47.96875 L 61.910156 47.96875 C 60.832031 46.214844 60.832031 41.769531 60.628906 39.949219 C 60.230469 35.300781 58.277344 31.863281 55.175781 30.652344 C 59.015625 29.238281 60.765625 25.199219 60.765625 21.285156 C 60.765625 14.214844 55.109375 10.644531 48.574219 10.644531 L 26.609375 10.644531 Z M 26.609375 47.96875 "/>
  </g>
</svg>