<svg width="64" height="64" viewBox="0 0 40 40" fill="none" xmlns="http://www.w3.org/2000/svg">
<rect width="40" height="40" fill="#005F27"/>
<g>
    <path fill-rule="evenodd" clip-rule="evenodd" d="M2.70587 24.3479H7.34117V16.1126H11.9765C14.3059 16.1126 15.1529 17.1008 15.4823 19.2891C15.7176 20.9597 15.6706 23.0067 16.2118 24.3244H20.847C20.0235 23.1479 20.047 20.6773 19.9529 19.3361C19.8118 17.2185 19.1529 15.0067 16.8941 14.4185V14.3714C19.2235 13.4302 20.2353 11.5714 20.2353 9.10083C20.2353 5.92436 17.8353 3.28906 14.0706 3.28906H2.70587V24.3479ZM7.34117 6.86553H12.4235C14.4941 6.86553 15.6 7.75965 15.6 9.78318C15.6 11.9008 14.4706 12.7949 12.4235 12.7949H7.34117V6.86553Z" fill="white"/>
    <path fill-rule="evenodd" clip-rule="evenodd" d="M26.6353 11.6184C26.6353 9.43021 27.4353 6.8655 29.9059 6.8655C31.6941 6.8655 33.0118 8.11256 33.0118 10.042C32.9882 12.5832 30.4941 13.8537 28.6824 15.0773C25.1059 17.5008 22.1882 19.5243 22.1647 24.3008H37.3176V20.7479H27.5294C29.0353 18.6302 31.4588 17.4537 33.4824 15.9949C35.5294 14.5596 37.1765 12.842 37.1765 9.73609C37.1765 5.68903 33.8824 3.2655 30.0941 3.2655C25.1294 3.2655 22.4471 6.88903 22.6118 11.6184H26.6353Z" fill="white"/>
    <g transform="translate(0.5 0)">
        <path fill-rule="evenodd" clip-rule="evenodd" d="M5.41177 33.7831C5.38824 36.5361 7.69412 37.7596 10.1647 37.7596C13.2 37.7596 14.8 36.2302 14.8 34.1831C14.8 31.642 12.3059 31.1478 11.4824 30.9361C8.68236 30.2067 8.16471 30.1126 8.16471 29.242C8.16471 28.3008 9.05883 27.9714 9.85883 27.9714C11.0353 27.9714 11.9765 28.3243 12.0706 29.6655H14.4471C14.4471 27.0773 12.3059 26.0655 9.97647 26.0655C7.95294 26.0655 5.81177 27.1478 5.81177 29.4302C5.81177 31.5243 7.48236 32.1596 9.12942 32.6067C10.7765 33.0537 12.4471 33.242 12.4471 34.442C12.4471 35.5949 11.1294 35.8302 10.2824 35.8302C8.96471 35.8302 7.81177 35.242 7.81177 33.7596H5.41177V33.7831Z" fill="white"/>
        <path fill-rule="evenodd" clip-rule="evenodd" d="M23.6 29.4067H21.3882V33.642C21.3882 35.289 20.8706 35.9479 19.6706 35.9479C18.6353 35.9479 18.2588 35.289 18.2588 33.9714V29.4067H16.0235V34.3714C16.0235 36.3714 16.6118 37.7126 18.9882 37.7126C19.9294 37.7126 20.8941 37.2655 21.4588 36.3714H21.5059V37.5008H23.6235V29.4067H23.6Z" fill="white"/>
        <path fill-rule="evenodd" clip-rule="evenodd" d="M31.0588 37.4773H33.1765V26.3243H30.9647V30.3949H30.9412H30.9647C30.4471 29.5949 29.5059 29.1949 28.5647 29.1949C26.1883 29.1949 24.9883 31.2185 24.9883 33.3832C24.9883 35.6185 26.1883 37.7126 28.6118 37.7126C29.6471 37.7126 30.5412 37.3361 31.0588 36.4655H31.0824V37.4773H31.0588ZM31.0353 33.4302C31.0353 34.7479 30.5883 36.042 29.1294 36.042C27.7647 36.042 27.1765 34.7243 27.1765 33.4538C27.1765 32.1361 27.6706 30.8655 29.1294 30.8655C30.5647 30.8655 31.0353 32.1126 31.0353 33.4302Z" fill="white"/>
    </g>
</g>
</svg>
