<?xml version="1.0" encoding="UTF-8" standalone="yes"?>
<svg xmlns="http://www.w3.org/2000/svg" xmlns:xlink="http://www.w3.org/1999/xlink" width="64px" height="64px" viewBox="0 0 64 64" version="1.1">
  <g id="surface1">
    <rect x="0" y="0" width="64" height="64" style="fill:rgb(93.725491%,49.803922%,13.725491%);fill-opacity:1;stroke:none;"/>
    <path style=" stroke:none;fill-rule:nonzero;fill:rgb(100%,100%,100%);fill-opacity:1;" d="M 38.398438 19.535156 L 43.789062 19.535156 C 48.167969 19.535156 49.515625 20.882812 49.515625 23.242188 C 49.515625 26.609375 46.617188 26.949219 44.464844 26.949219 L 38.398438 26.949219 Z M 26.609375 47.964844 L 38.128906 47.964844 L 38.128906 34.964844 L 44.261719 34.964844 C 48.773438 34.964844 49.113281 38.667969 49.449219 42.238281 C 49.582031 44.195312 49.785156 46.078125 50.390625 47.964844 L 61.910156 47.964844 C 60.832031 46.214844 60.832031 41.769531 60.632812 39.949219 C 60.226562 35.300781 58.273438 31.867188 55.175781 30.652344 C 59.015625 29.238281 60.765625 25.195312 60.765625 21.289062 C 60.765625 14.214844 55.105469 10.644531 48.574219 10.644531 L 26.609375 10.644531 Z M 26.609375 47.964844 "/>
  </g>
</svg>