<svg xmlns="http://www.w3.org/2000/svg" width="64" height="64" viewBox="0 0 48 48">
    <path fill="#ef7f23" d="M0 0h48v48H0z"/>
    <path fill="#fff" d="M28.80078 14.65234h4.04297c3.28125 0 4.29297 1.01172 4.29297 2.77735 0 2.52734-2.17188 2.78125-3.78906 2.78125h-4.54688Zm-8.84375 21.32422h8.64063v-9.7539h4.59765c3.38672 0 3.63672 2.78125 3.89063 5.45703.10156 1.46484.2539 2.8789.70703 4.29687h8.64062c-.80859-1.3164-.80859-4.64843-.96093-6.01562-.30078-3.48438-1.76563-6.0625-4.08985-6.97266 2.8789-1.0586 4.1914-4.08984 4.1914-7.02344 0-5.30468-4.24218-7.98047-9.14452-7.98047H19.95703Zm0 0"/>
</svg>
