<svg width="64" height="64" viewBox="0 0 40 40" fill="none" xmlns="http://www.w3.org/2000/svg">
<rect width="40" height="40" fill="#A2C617"/>
<g transform="translate(0 -0.5)">
    <path fill-rule="evenodd" clip-rule="evenodd" d="M2.79999 24.3949H7.45881V16.136H12.0941C14.4235 16.136 15.2941 17.1007 15.6235 19.336C15.8588 21.0301 15.8118 23.0537 16.3529 24.3949H21.0118C20.1882 23.2184 20.2118 20.7243 20.1176 19.3831C19.9765 17.2419 19.3176 15.0301 17.0353 14.4419V14.3949C19.3647 13.4537 20.3765 11.5713 20.3765 9.10074C20.3765 5.90074 17.9765 3.26544 14.1882 3.26544H2.79999V24.3949ZM7.45881 6.86544H12.5412C14.6118 6.86544 15.7412 7.75956 15.7412 9.78309C15.7412 11.9243 14.6118 12.7949 12.5412 12.7949H7.45881V6.86544Z" fill="white"/>
    <path fill-rule="evenodd" clip-rule="evenodd" d="M26.8235 11.6419C26.8235 9.45368 27.6235 6.86544 30.0941 6.86544C31.9059 6.86544 33.2 8.1125 33.2 10.0654C33.1765 12.6066 30.6823 13.8772 28.8471 15.1243C25.2706 17.5478 22.3294 19.5949 22.3059 24.3949H37.5059V20.7949H27.7176C29.2235 18.6537 31.6471 17.4772 33.6941 16.0184C35.7412 14.5596 37.3882 12.8419 37.3882 9.73603C37.3882 5.68897 34.0706 3.26544 30.2823 3.26544C25.3176 3.26544 22.6118 6.9125 22.7765 11.6419H26.8235Z" fill="white"/>
    <g transform="translate(0.4 0)">
    <path fill-rule="evenodd" clip-rule="evenodd" d="M2.47058 37.5478H4.77646V30.0419H4.82352L9.48235 37.5478H11.9294V26.3478H9.62352V33.8537H9.59999L4.91764 26.3478H2.47058V37.5478Z" fill="white"/>
    <path fill-rule="evenodd" clip-rule="evenodd" d="M13.6 33.5007C13.6 36.0654 15.2471 37.7596 17.7882 37.7596C20.3529 37.7596 22 36.0654 22 33.5007C22 30.9125 20.3529 29.2184 17.7882 29.2184C15.2471 29.2184 13.6 30.9125 13.6 33.5007ZM15.8353 33.5007C15.8353 32.2066 16.2824 30.889 17.7882 30.889C19.3177 30.889 19.7647 32.1831 19.7647 33.5007C19.7647 34.7949 19.3177 36.089 17.7882 36.089C16.2824 36.089 15.8353 34.7949 15.8353 33.5007Z" fill="white"/>
    <path fill-rule="evenodd" clip-rule="evenodd" d="M23.4353 37.5478H25.6706V33.9007C25.6706 32.4654 26.2353 31.289 27.8588 31.289C28.1177 31.289 28.4471 31.3125 28.6588 31.3596V29.289C28.5177 29.2419 28.3294 29.2184 28.1647 29.2184C27.0824 29.2184 25.9765 29.9243 25.5765 30.936H25.5529V29.4301H23.4353V37.5478Z" fill="white"/>
    <path fill-rule="evenodd" clip-rule="evenodd" d="M35.0353 37.5478H37.1529V26.3478H34.9176V30.4184H34.8941H34.9176C34.4 29.6184 33.4588 29.2184 32.4941 29.2184C30.1176 29.2184 28.8941 31.2419 28.8941 33.4301C28.8941 35.6654 30.0941 37.7831 32.5412 37.7831C33.5765 37.7831 34.4941 37.4066 35.0118 36.536H35.0353V37.5478ZM34.9882 33.4772C34.9882 34.8184 34.5412 36.089 33.0823 36.089C31.6941 36.089 31.1294 34.7478 31.1294 33.4772C31.1294 32.136 31.6235 30.889 33.0823 30.889C34.5176 30.889 34.9882 32.1595 34.9882 33.4772Z" fill="white"/>
    </g>
</g>
</svg>
