<?xml version="1.0" encoding="utf-8"?>
<!-- Generator: Adobe Illustrator 26.5.0, SVG Export Plug-In . SVG Version: 6.00 Build 0)  -->
<svg version="1.1" id="Capa_1" xmlns="http://www.w3.org/2000/svg" xmlns:xlink="http://www.w3.org/1999/xlink" x="0px" y="0px"
	 viewBox="0 0 100 100" style="enable-background:new 0 0 100 100;" xml:space="preserve">
<style type="text/css">
	.st0{fill-rule:evenodd;clip-rule:evenodd;fill:#F7A30D;}
	.st1{fill-rule:evenodd;clip-rule:evenodd;fill:#FFFFFF;}
</style>
<g>
	<rect class="st0" width="100" height="100"/>
	<path class="st1" d="M8.8,76h11.5V55.7h11.5c5.4,0,7.4,2,8.8,7.4c0,4,0,9.5,1.3,12.8h11.5c-2-3.4-2-9.5-2-12.8
		c-0.7-4.7-2-10.1-7.4-12.2c5.4-2,8.1-6.8,8.1-12.8C52,30.1,45.9,24,36.5,24H8.8V76z M20.3,32.8h12.2c5.4,0,8.1,2,8.1,6.8
		c0,5.4-2.7,7.4-8.1,7.4H20.3V32.8z"/>
	<path class="st1" d="M77.7,76h10.1V63.8h6.8v-8.1h-6.8V24.7h-9.5L56.1,54.4v9.5h21.6V76z M77.7,55.7H64.9l12.8-18.2V55.7z"/>
</g>
</svg>
