<?xml version="1.0" encoding="UTF-8" standalone="no"?>
<svg
   xmlns:dc="http://purl.org/dc/elements/1.1/"
   xmlns:cc="http://creativecommons.org/ns#"
   xmlns:rdf="http://www.w3.org/1999/02/22-rdf-syntax-ns#"
   xmlns:svg="http://www.w3.org/2000/svg"
   xmlns="http://www.w3.org/2000/svg"
   id="svg8"
   version="1.1"
   viewBox="0 0 23.063928 23.063928"
   height="64"
   width="64">
  <defs
     id="defs2">
    <clipPath
       clipPathUnits="userSpaceOnUse"
       id="clipPath833">
      <path
         d="M 0,841.89 H 595.276 V 0 H 0 Z"
         id="path831" />
    </clipPath>
  </defs>
  <metadata
     id="metadata5">
    <rdf:RDF>
      <cc:Work
         rdf:about="">
        <dc:format>image/svg+xml</dc:format>
        <dc:type
           rdf:resource="http://purl.org/dc/dcmitype/StillImage" />
        <dc:title></dc:title>
      </cc:Work>
    </rdf:RDF>
  </metadata>
  <g
     transform="translate(-284.27565,-250.77566)"
     id="layer1">
    <g
       transform="matrix(0.35277777,0,0,-0.35277777,267.98853,471.60257)"
       id="g827">
      <g
         transform="translate(-150.76527,22.728433)"
         id="g829"
         clip-path="url(#clipPath833)">
        <g
           style="stroke-width:2.03730392"
           transform="matrix(0.49084474,0,0,0.49084474,56.388929,298.52759)"
           id="g1309">
          <path
             id="path1013"
             style="fill:#f47216;fill-opacity:1;fill-rule:nonzero;stroke:none;stroke-width:2.03730392"
             d="M 286.332,620.787 H 419.527 V 487.592 H 286.332 Z" />
          <g
             style="stroke-width:2.03730392"
             transform="translate(342.0907,520.0658)"
             id="g1015">
            <path
               id="path1017"
               style="fill:#ffffff;fill-opacity:1;fill-rule:nonzero;stroke:none;stroke-width:2.03730392"
               d="M 0,0 H 23.918 V 27.072 H 36.64 c 9.461,0 10.113,-7.719 10.765,-15.112 C 47.731,7.937 48.166,3.913 49.362,0 H 73.283 C 71.108,3.588 71,12.829 70.673,16.635 69.803,26.313 65.78,33.488 59.257,35.988 67.194,38.925 70.89,47.406 70.89,55.451 70.89,70.13 59.147,77.633 45.556,77.633 H 0 Z m 24.463,59.148 h 11.201 c 9.133,0 11.85,-2.826 11.85,-7.719 0,-6.96 -6.088,-7.721 -10.546,-7.721 H 24.463 Z" />
          </g>
        </g>
      </g>
    </g>
  </g>
</svg>
