<?xml version="1.0" encoding="UTF-8" standalone="no"?>
<!-- Generator: Adobe Illustrator 24.0.1, SVG Export Plug-In . SVG Version: 6.00 Build 0)  -->

<svg
   version="1.1"
   id="Capa_1"
   x="0px"
   y="0px"
   viewBox="0 0 64 64"
   width="64"
   height="64"
   xml:space="preserve"
   xmlns="http://www.w3.org/2000/svg"
   xmlns:svg="http://www.w3.org/2000/svg"><defs
   id="defs15" />
<style
   type="text/css"
   id="style2">
	.st0{fill:#4C858E;}
	.st1{fill:#FFFFFF;}
</style>
<g
   id="g10"
   transform="scale(1.8285714)"
   style="stroke-width:0.546875">
	<rect
   class="st0"
   width="35"
   height="35"
   id="rect4"
   x="0"
   y="0"
   style="stroke-width:0.546875" />
	<path
   class="st1"
   d="m 6.7,20.6 c 0,2.5 1.9,3.4 4.1,3.4 1.4,0 3.6,-0.4 3.6,-2.3 0,-2 -2.8,-2.3 -5.5,-3.1 -2.8,-0.7 -5.5,-1.8 -5.5,-5.3 0,-3.8 3.6,-5.6 7,-5.6 3.9,0 7.4,1.7 7.4,6 h -4 c -0.1,-2.2 -1.7,-2.8 -3.7,-2.8 -1.3,0 -2.8,0.5 -2.8,2.1 0,1.4 0.9,1.6 5.5,2.8 1.4,0.3 5.5,1.2 5.5,5.4 0,3.4 -2.7,6 -7.7,6 -4.1,0 -8,-2 -7.9,-6.6 z"
   id="path6"
   style="stroke-width:0.546875" />
	<path
   class="st1"
   d="m 24.2,15.9 c 1.6,0.1 3.9,-0.2 3.9,-2.3 0,-1.5 -1.2,-2.4 -2.6,-2.4 -1.8,0 -2.8,1.4 -2.8,3.2 h -3.5 c 0.1,-3.7 2.6,-6.3 6.3,-6.3 2.9,0 6.1,1.8 6.1,5.1 0,1.7 -0.9,3.2 -2.5,3.7 v 0 c 2,0.4 3.2,2.1 3.2,4.1 0,3.8 -3.2,6 -6.8,6 -4.1,0 -6.8,-2.5 -6.8,-6.6 h 3.5 c 0.1,2 1.1,3.6 3.2,3.6 1.7,0 3,-1.1 3,-2.9 0,-2.8 -2.4,-2.7 -4.2,-2.7 z"
   id="path8"
   style="stroke-width:0.546875" />
</g>
</svg>
