<?xml version="1.0" encoding="UTF-8" standalone="no"?>
<!-- Created with Inkscape (http://www.inkscape.org/) -->

<svg
   xmlns:dc="http://purl.org/dc/elements/1.1/"
   xmlns:cc="http://creativecommons.org/ns#"
   xmlns:rdf="http://www.w3.org/1999/02/22-rdf-syntax-ns#"
   xmlns:svg="http://www.w3.org/2000/svg"
   xmlns="http://www.w3.org/2000/svg"
   xmlns:sodipodi="http://sodipodi.sourceforge.net/DTD/sodipodi-0.dtd"
   xmlns:inkscape="http://www.inkscape.org/namespaces/inkscape"
   width="64"
   height="64"
   id="svg21844"
   sodipodi:version="0.32"
   inkscape:version="0.47 r22583"
   sodipodi:docname="S55_barcelona.svg"
   inkscape:output_extension="org.inkscape.output.svg.inkscape"
   version="1.0">
  <defs
     id="defs21846">
    <inkscape:perspective
       sodipodi:type="inkscape:persp3d"
       inkscape:vp_x="0 : 32 : 1"
       inkscape:vp_y="0 : 1000 : 0"
       inkscape:vp_z="64 : 32 : 1"
       inkscape:persp3d-origin="32 : 21.333333 : 1"
       id="perspective21852" />
  </defs>
  <sodipodi:namedview
     id="base"
     pagecolor="#ffffff"
     bordercolor="#666666"
     borderopacity="1.0"
     inkscape:pageopacity="0.0"
     inkscape:pageshadow="2"
     inkscape:zoom="8.4375"
     inkscape:cx="38.874074"
     inkscape:cy="32.000001"
     inkscape:current-layer="layer1"
     showgrid="true"
     inkscape:document-units="px"
     inkscape:grid-bbox="true"
     inkscape:window-width="760"
     inkscape:window-height="759"
     inkscape:window-x="40"
     inkscape:window-y="40"
     showguides="true"
     inkscape:guide-bbox="true"
     inkscape:window-maximized="0">
    <sodipodi:guide
       orientation="0,1"
       position="2.962963,18.014815"
       id="guide2382" />
    <sodipodi:guide
       orientation="0,1"
       position="3.3185185,47.051852"
       id="guide2384" />
  </sodipodi:namedview>
  <metadata
     id="metadata21849">
    <rdf:RDF>
      <cc:Work
         rdf:about="">
        <dc:format>image/svg+xml</dc:format>
        <dc:type
           rdf:resource="http://purl.org/dc/dcmitype/StillImage" />
      </cc:Work>
    </rdf:RDF>
  </metadata>
  <g
     id="layer1"
     inkscape:label="Layer 1"
     inkscape:groupmode="layer"
     transform="translate(-0.7873347,136.12828)">
    <rect
       style="opacity:1;fill:#4f99d9;fill-opacity:1;fill-rule:nonzero;stroke:none;stroke-width:7.08599996999999960;stroke-linecap:round;stroke-linejoin:round;stroke-miterlimit:4;stroke-dasharray:7.08600000000000030, 14.17200000000000100;stroke-dashoffset:0;stroke-opacity:1"
       id="rect21854"
       width="64"
       height="64"
       x="0.78733474"
       y="-136.12828" />
    <path
       transform="scale(0.9865273,1.0136567)"
       style="font-size:36.86238098px;font-style:normal;font-variant:normal;font-weight:bold;font-stretch:normal;text-align:start;line-height:125%;writing-mode:lr-tb;text-anchor:start;fill:#ffffff;fill-opacity:1;stroke:none;stroke-width:1px;stroke-linecap:butt;stroke-linejoin:miter;stroke-opacity:1;font-family:Helvetica Neue;"
       d="M 6.8586943,-98.73247 L 1.2556124,-98.73247 C 1.2310366,-97.110519 1.5259354,-95.709749 2.1403096,-94.530159 C 2.7546802,-93.350559 3.5779392,-92.379851 4.6100891,-91.618031 C 5.6668054,-90.856207 6.8709753,-90.303272 8.2226024,-89.959224 C 9.5987887,-89.5906 11.011845,-89.406289 12.461776,-89.406288 C 14.255732,-89.406289 15.828525,-89.615175 17.180161,-90.032949 C 18.556338,-90.450722 19.699071,-91.028232 20.608362,-91.76548 C 21.542188,-92.5273 22.242573,-93.424284 22.709518,-94.456434 C 23.176419,-95.488575 23.40988,-96.606733 23.409903,-97.810911 C 23.40988,-99.285397 23.090407,-100.48957 22.451481,-101.42342 C 21.837087,-102.38183 21.09984,-103.14366 20.239739,-103.70889 C 19.379597,-104.2741 18.507189,-104.67959 17.62251,-104.92535 C 16.762371,-105.19566 16.086561,-105.37997 15.595079,-105.47829 C 13.948545,-105.89604 12.609214,-106.24009 11.577079,-106.51043 C 10.569497,-106.78074 9.770813,-107.05106 9.1810243,-107.32141 C 8.6157929,-107.59171 8.234882,-107.88661 8.0382905,-108.2061 C 7.8416837,-108.52556 7.7433841,-108.94333 7.7433915,-109.45942 C 7.7433841,-110.02463 7.8662586,-110.49155 8.1120153,-110.86019 C 8.3577565,-111.2288 8.6649427,-111.53598 9.0335748,-111.78175 C 9.4267645,-112.02748 9.8568252,-112.1995 10.323758,-112.29783 C 10.790671,-112.3961 11.257594,-112.44525 11.724529,-112.44528 C 12.437189,-112.44525 13.088424,-112.38382 13.678235,-112.26096 C 14.292594,-112.13807 14.833242,-111.92918 15.30018,-111.6343 C 15.767088,-111.33938 16.135711,-110.9339 16.406051,-110.41785 C 16.700934,-109.90175 16.872958,-109.25052 16.922124,-108.46414 L 22.525206,-108.46414 C 22.525184,-109.98776 22.230285,-111.27795 21.640509,-112.33469 C 21.075265,-113.41596 20.301156,-114.30066 19.318179,-114.98878 C 18.335164,-115.67685 17.204719,-116.16835 15.92684,-116.46328 C 14.673505,-116.78272 13.358748,-116.94246 11.982565,-116.94249 C 10.802959,-116.94246 9.6233636,-116.78272 8.4437767,-116.46328 C 7.2641736,-116.14378 6.2074531,-115.65228 5.2736119,-114.98878 C 4.339761,-114.32523 3.5779392,-113.48969 2.9881443,-112.48214 C 2.4229191,-111.49912 2.1403078,-110.33181 2.1403096,-108.98021 C 2.1403078,-107.77602 2.3614818,-106.74388 2.8038324,-105.88377 C 3.270753,-105.04821 3.872838,-104.34783 4.6100891,-103.78262 C 5.3473317,-103.21738 6.1828782,-102.75046 7.116731,-102.38185 C 8.0505703,-102.03779 9.0089912,-101.74289 9.9919967,-101.49715 C 10.950408,-101.22681 11.896542,-100.98106 12.8304,-100.7599 C 13.764234,-100.53872 14.59978,-100.28068 15.337042,-99.985791 C 16.074274,-99.690883 16.664071,-99.322259 17.106436,-98.87992 C 17.573343,-98.437563 17.806804,-97.860053 17.806821,-97.147388 C 17.806804,-96.483859 17.63478,-95.930924 17.290748,-95.488581 C 16.946683,-95.070802 16.516622,-94.739041 16.000565,-94.493297 C 15.484476,-94.247543 14.931541,-94.075519 14.341758,-93.977223 C 13.751946,-93.903495 13.199011,-93.866632 12.682951,-93.866636 C 11.921116,-93.866632 11.18387,-93.952644 10.471208,-94.124673 C 9.7585256,-94.321268 9.1318657,-94.603879 8.5912262,-94.972508 C 8.0751452,-95.365701 7.657372,-95.869486 7.3379053,-96.483865 C 7.0184247,-97.098231 6.8586878,-97.847765 6.8586943,-98.73247 M 42.705056,-111.48685 L 42.705056,-115.79975 L 28.291865,-115.79975 L 25.748361,-101.53401 L 30.466746,-101.53401 C 30.982812,-102.24667 31.535747,-102.76274 32.125553,-103.08223 C 32.715342,-103.42627 33.477164,-103.59829 34.41102,-103.5983 C 35.123682,-103.59829 35.750342,-103.47542 36.291002,-103.22968 C 36.831637,-102.98392 37.29856,-102.63987 37.691772,-102.19753 C 38.084957,-101.75517 38.379856,-101.2391 38.576469,-100.64931 C 38.773054,-100.05951 38.871354,-99.432846 38.871368,-98.769333 C 38.871354,-98.130377 38.760767,-97.503717 38.539607,-96.889351 C 38.342994,-96.299547 38.048095,-95.771187 37.65491,-95.304269 C 37.286273,-94.861916 36.81935,-94.493292 36.254139,-94.198398 C 35.71348,-93.928069 35.099107,-93.792908 34.41102,-93.792911 C 33.231415,-93.792908 32.260707,-94.136956 31.498892,-94.825058 C 30.737063,-95.537725 30.294715,-96.483859 30.171847,-97.663461 L 24.937388,-97.663461 C 24.961963,-96.311834 25.232286,-95.119952 25.748361,-94.08781 C 26.289007,-93.080236 27.001679,-92.232402 27.886379,-91.544306 C 28.771072,-90.856207 29.778642,-90.340135 30.909094,-89.996086 C 32.064108,-89.676612 33.268278,-89.516876 34.521607,-89.516875 C 35.824067,-89.492301 37.052812,-89.701187 38.207846,-90.143536 C 39.362852,-90.610459 40.370422,-91.261693 41.230561,-92.097242 C 42.11524,-92.932786 42.815625,-93.915782 43.331717,-95.046232 C 43.84777,-96.201247 44.105807,-97.44228 44.105827,-98.769333 C 44.105807,-99.973494 43.921495,-101.10394 43.552891,-102.16067 C 43.208823,-103.24196 42.69275,-104.1758 42.004671,-104.96221 C 41.341131,-105.74859 40.517872,-106.37525 39.534891,-106.84219 C 38.55188,-107.3091 37.421435,-107.54256 36.143552,-107.54258 C 35.111395,-107.54256 34.189836,-107.38283 33.378874,-107.06337 C 32.567893,-106.76845 31.806071,-106.26467 31.093406,-105.55201 L 31.019681,-105.62574 L 32.051828,-111.48685 L 42.705056,-111.48685 M 63.224156,-111.48685 L 63.224156,-115.79975 L 48.810965,-115.79975 L 46.267461,-101.53401 L 50.985846,-101.53401 C 51.501912,-102.24667 52.054848,-102.76274 52.644653,-103.08223 C 53.234443,-103.42627 53.996264,-103.59829 54.930121,-103.5983 C 55.642782,-103.59829 56.269442,-103.47542 56.810102,-103.22968 C 57.350738,-102.98392 57.817661,-102.63987 58.210872,-102.19753 C 58.604057,-101.75517 58.898956,-101.2391 59.09557,-100.64931 C 59.292154,-100.05951 59.390454,-99.432846 59.390469,-98.769333 C 59.390454,-98.130377 59.279867,-97.503717 59.058707,-96.889351 C 58.862094,-96.299547 58.567195,-95.771187 58.17401,-95.304269 C 57.805373,-94.861916 57.33845,-94.493292 56.77324,-94.198398 C 56.23258,-93.928069 55.618207,-93.792908 54.930121,-93.792911 C 53.750515,-93.792908 52.779807,-94.136956 52.017992,-94.825058 C 51.256163,-95.537725 50.813815,-96.483859 50.690947,-97.663461 L 45.456489,-97.663461 C 45.481063,-96.311834 45.751387,-95.119952 46.267461,-94.08781 C 46.808107,-93.080236 47.520779,-92.232402 48.405479,-91.544306 C 49.290172,-90.856207 50.297742,-90.340135 51.428194,-89.996086 C 52.583208,-89.676612 53.787378,-89.516876 55.040708,-89.516875 C 56.343167,-89.492301 57.571912,-89.701187 58.726946,-90.143536 C 59.881952,-90.610459 60.889523,-91.261693 61.749661,-92.097242 C 62.63434,-92.932786 63.334725,-93.915782 63.850817,-95.046232 C 64.36687,-96.201247 64.624907,-97.44228 64.624927,-98.769333 C 64.624907,-99.973494 64.440595,-101.10394 64.071991,-102.16067 C 63.727923,-103.24196 63.21185,-104.1758 62.523771,-104.96221 C 61.860231,-105.74859 61.036972,-106.37525 60.053991,-106.84219 C 59.07098,-107.3091 57.940535,-107.54256 56.662652,-107.54258 C 55.630495,-107.54256 54.708936,-107.38283 53.897974,-107.06337 C 53.086993,-106.76845 52.325171,-106.26467 51.612506,-105.55201 L 51.538781,-105.62574 L 52.570928,-111.48685 L 63.224156,-111.48685"
       id="text22626" />
  </g>
</svg>
