<?xml version="1.0" encoding="UTF-8" standalone="no"?>
<!-- Created with Inkscape (http://www.inkscape.org/) -->

<svg
   xmlns:dc="http://purl.org/dc/elements/1.1/"
   xmlns:cc="http://creativecommons.org/ns#"
   xmlns:rdf="http://www.w3.org/1999/02/22-rdf-syntax-ns#"
   xmlns:svg="http://www.w3.org/2000/svg"
   xmlns="http://www.w3.org/2000/svg"
   xmlns:sodipodi="http://sodipodi.sourceforge.net/DTD/sodipodi-0.dtd"
   xmlns:inkscape="http://www.inkscape.org/namespaces/inkscape"
   width="64"
   height="64"
   id="svg21844"
   sodipodi:version="0.32"
   inkscape:version="0.47 r22583"
   sodipodi:docname="S8_barcelona.svg"
   inkscape:output_extension="org.inkscape.output.svg.inkscape"
   version="1.0">
  <defs
     id="defs21846">
    <inkscape:perspective
       sodipodi:type="inkscape:persp3d"
       inkscape:vp_x="0 : 32 : 1"
       inkscape:vp_y="0 : 1000 : 0"
       inkscape:vp_z="64 : 32 : 1"
       inkscape:persp3d-origin="32 : 21.333333 : 1"
       id="perspective21852" />
  </defs>
  <sodipodi:namedview
     id="base"
     pagecolor="#ffffff"
     bordercolor="#666666"
     borderopacity="1.0"
     inkscape:pageopacity="0.0"
     inkscape:pageshadow="2"
     inkscape:zoom="8.703125"
     inkscape:cx="-0.80430899"
     inkscape:cy="32"
     inkscape:current-layer="layer1"
     showgrid="true"
     inkscape:document-units="px"
     inkscape:grid-bbox="true"
     inkscape:window-width="1059"
     inkscape:window-height="757"
     inkscape:window-x="20"
     inkscape:window-y="20"
     showguides="true"
     inkscape:guide-bbox="true"
     inkscape:window-maximized="0" />
  <metadata
     id="metadata21849">
    <rdf:RDF>
      <cc:Work
         rdf:about="">
        <dc:format>image/svg+xml</dc:format>
        <dc:type
           rdf:resource="http://purl.org/dc/dcmitype/StillImage" />
      </cc:Work>
    </rdf:RDF>
  </metadata>
  <g
     id="layer1"
     inkscape:label="Layer 1"
     inkscape:groupmode="layer"
     transform="translate(-0.7873347,136.12828)">
    <rect
       style="opacity:1;fill:#4dc4db;fill-opacity:1;fill-rule:nonzero;stroke:none;stroke-width:7.08599996999999960;stroke-linecap:round;stroke-linejoin:round;stroke-miterlimit:4;stroke-dasharray:7.08600000000000030, 14.17200000000000100;stroke-dashoffset:0;stroke-opacity:1"
       id="rect21854"
       width="64"
       height="64"
       x="0.78733474"
       y="-136.12828" />
    <path
       style="font-size:47.52000046px;font-style:normal;font-variant:normal;font-weight:bold;font-stretch:normal;text-align:start;line-height:125%;writing-mode:lr-tb;text-anchor:start;fill:#ffffff;fill-opacity:1;stroke:none;stroke-width:1px;stroke-linecap:butt;stroke-linejoin:miter;stroke-opacity:1;font-family:Helvetica Neue;-inkscape-font-specification:Helvetica Neue Bold"
       d="M 12.028446,-98.146144 L 4.8054061,-98.146144 C 4.773725,-96.055254 5.1538846,-94.249496 5.9458861,-92.728864 C 6.737883,-91.208219 7.799162,-89.95686 9.1297261,-88.974784 C 10.491959,-87.992702 12.044278,-87.279903 13.786686,-86.836384 C 15.560754,-86.361184 17.382352,-86.123584 19.251486,-86.123583 C 21.564108,-86.123584 23.591626,-86.392864 25.334046,-86.931424 C 27.108103,-87.469983 28.581221,-88.214462 29.753406,-89.164864 C 30.957219,-90.14694 31.860098,-91.303259 32.462046,-92.633824 C 33.063937,-93.964376 33.364897,-95.405815 33.364926,-96.958144 C 33.364897,-98.858932 32.953057,-100.41125 32.129406,-101.6151 C 31.337379,-102.85061 30.38698,-103.83269 29.278206,-104.56134 C 28.169382,-105.28997 27.044743,-105.81268 25.904286,-106.1295 C 24.795465,-106.47796 23.924266,-106.71556 23.290686,-106.8423 C 21.168109,-107.38084 19.44155,-107.82436 18.111006,-108.17286 C 16.812113,-108.52132 15.782514,-108.8698 15.022206,-109.2183 C 14.293556,-109.56676 13.802516,-109.94692 13.549086,-110.35878 C 13.295637,-110.7706 13.168917,-111.30916 13.168926,-111.97446 C 13.168917,-112.70308 13.327316,-113.305 13.644126,-113.78022 C 13.960916,-114.2554 14.356915,-114.6514 14.832126,-114.96822 C 15.338994,-115.285 15.893394,-115.50676 16.495326,-115.6335 C 17.097233,-115.76019 17.699152,-115.82355 18.301086,-115.82358 C 19.219791,-115.82355 20.05931,-115.74435 20.819646,-115.58598 C 21.611628,-115.42756 22.308588,-115.15828 22.910526,-114.77814 C 23.512426,-114.39796 23.987626,-113.87524 24.336126,-113.20998 C 24.716265,-112.54468 24.938025,-111.70516 25.001406,-110.69142 L 32.224446,-110.69142 C 32.224418,-112.65556 31.844258,-114.31876 31.083966,-115.68102 C 30.3553,-117.07491 29.357381,-118.21539 28.090206,-119.10246 C 26.822983,-119.98947 25.365705,-120.62307 23.718366,-121.00326 C 22.102668,-121.41507 20.407789,-121.62099 18.633726,-121.62102 C 17.113073,-121.62099 15.592434,-121.41507 14.071806,-121.00326 C 12.551157,-120.59139 11.188919,-119.95779 9.9850861,-119.10246 C 8.781241,-118.24707 7.799162,-117.16995 7.0388461,-115.8711 C 6.3102034,-114.60388 5.9458838,-113.09908 5.9458861,-111.3567 C 5.9458838,-109.80436 6.2310035,-108.4738 6.8012461,-107.36502 C 7.4031623,-106.28788 8.1793216,-105.38501 9.1297261,-104.65638 C 10.08012,-103.92773 11.157239,-103.32581 12.361086,-102.85062 C 13.564916,-102.40709 14.800435,-102.02693 16.067646,-101.71014 C 17.303153,-101.36165 18.522831,-101.04485 19.726686,-100.75974 C 20.930509,-100.47461 22.007628,-100.14197 22.958046,-99.761824 C 23.908426,-99.381651 24.668745,-98.906452 25.239006,-98.336224 C 25.840904,-97.765973 26.141864,-97.021493 26.141886,-96.102784 C 26.141864,-95.247415 25.920104,-94.534616 25.476606,-93.964384 C 25.033065,-93.425817 24.478665,-92.998137 23.813406,-92.681344 C 23.148107,-92.364538 22.435307,-92.142778 21.675006,-92.016064 C 20.914669,-91.921019 20.20187,-91.873499 19.536606,-91.873504 C 18.554511,-91.873499 17.604112,-91.984378 16.685406,-92.206144 C 15.766674,-92.459578 14.958835,-92.823898 14.261886,-93.299104 C 13.596596,-93.805977 13.058037,-94.455416 12.646206,-95.247424 C 12.234358,-96.039414 12.028438,-97.005653 12.028446,-98.146144 M 42.652117,-111.1191 C 42.652109,-111.8794 42.778829,-112.54468 43.032277,-113.11494 C 43.317389,-113.68516 43.697548,-114.16036 44.172757,-114.54054 C 44.647947,-114.92068 45.186507,-115.2058 45.788437,-115.3959 C 46.422025,-115.61764 47.071465,-115.72851 47.736757,-115.72854 C 48.782183,-115.72851 49.621702,-115.57012 50.255317,-115.25334 C 50.920581,-114.93652 51.42746,-114.54052 51.775957,-114.06534 C 52.1561,-113.59012 52.40954,-113.08324 52.536277,-112.5447 C 52.662979,-112.0378 52.726339,-111.5626 52.726357,-111.1191 C 52.726339,-109.69348 52.25114,-108.60052 51.300757,-107.84022 C 50.350342,-107.11156 49.162343,-106.74724 47.736757,-106.74726 C 46.374505,-106.74724 45.186507,-107.11156 44.172757,-107.84022 C 43.158989,-108.60052 42.652109,-109.69348 42.652117,-111.1191 M 36.522037,-111.73686 C 36.522035,-110.08948 36.933875,-108.64804 37.757557,-107.41254 C 38.581233,-106.177 39.800912,-105.33749 41.416597,-104.89398 L 41.416597,-104.79894 C 39.420752,-104.32373 37.868434,-103.37333 36.759637,-101.94774 C 35.682516,-100.52213 35.143957,-98.748052 35.143957,-96.625504 C 35.143957,-94.819736 35.492436,-93.267417 36.189397,-91.968544 C 36.918035,-90.66966 37.868434,-89.592541 39.040597,-88.737184 C 40.244432,-87.881823 41.59083,-87.264063 43.079797,-86.883904 C 44.600427,-86.472064 46.168586,-86.266144 47.784277,-86.266143 C 49.336583,-86.266144 50.857221,-86.472064 52.346197,-86.883904 C 53.835138,-87.327423 55.165697,-87.976862 56.337877,-88.832224 C 57.510014,-89.687581 58.444574,-90.7647 59.141558,-92.063584 C 59.870172,-93.362457 60.234492,-94.898936 60.234518,-96.673024 C 60.234492,-98.763892 59.695932,-100.52213 58.618838,-101.94774 C 57.541694,-103.40501 56.005216,-104.35541 54.009397,-104.79894 L 54.009397,-104.89398 C 55.625056,-105.43253 56.828895,-106.31956 57.620917,-107.5551 C 58.444574,-108.7906 58.856413,-110.23204 58.856438,-111.87942 C 58.856413,-112.70308 58.666333,-113.6218 58.286198,-114.63558 C 57.906014,-115.68099 57.272415,-116.64723 56.385397,-117.5343 C 55.530016,-118.45299 54.389538,-119.22915 52.963957,-119.86278 C 51.53834,-120.49635 49.795942,-120.81315 47.736757,-120.81318 C 46.374505,-120.81315 45.028107,-120.62307 43.697557,-120.24294 C 42.366989,-119.86275 41.163151,-119.29251 40.086037,-118.53222 C 39.040593,-117.77187 38.185234,-116.82147 37.519957,-115.68102 C 36.854675,-114.54052 36.522035,-113.2258 36.522037,-111.73686 M 41.891797,-96.958144 C 41.89179,-98.668852 42.462029,-99.967731 43.602517,-100.85478 C 44.742987,-101.77349 46.136906,-102.23285 47.784277,-102.23286 C 48.576263,-102.23285 49.304903,-102.10613 49.970197,-101.8527 C 50.667141,-101.59925 51.269061,-101.23493 51.775957,-100.75974 C 52.3145,-100.28453 52.726339,-99.714291 53.011477,-99.049024 C 53.328259,-98.415412 53.486658,-97.702613 53.486677,-96.910624 C 53.486658,-96.086934 53.344099,-95.326615 53.058997,-94.629664 C 52.773859,-93.932697 52.36202,-93.330777 51.823477,-92.823904 C 51.316581,-92.348698 50.714661,-91.968538 50.017717,-91.683424 C 49.352423,-91.429979 48.607943,-91.303259 47.784277,-91.303264 C 46.992265,-91.303259 46.231946,-91.429979 45.503317,-91.683424 C 44.774667,-91.968538 44.141068,-92.348698 43.602517,-92.823904 C 43.095629,-93.330777 42.683789,-93.932697 42.366997,-94.629664 C 42.05019,-95.326615 41.89179,-96.102774 41.891797,-96.958144"
       id="text22626" />
  </g>
</svg>
