<?xml version="1.0" encoding="utf-8"?>
<!-- Generator: Adobe Illustrator 24.0.1, SVG Export Plug-In . SVG Version: 6.00 Build 0)  -->
<svg version="1.1" id="Capa_1" xmlns="http://www.w3.org/2000/svg" xmlns:xlink="http://www.w3.org/1999/xlink" x="0px" y="0px"
	 viewBox="0 0 35 35" style="enable-background:new 0 0 35 35;" xml:space="preserve">
<style type="text/css">
	.st0{fill:#E64361;}
	.st1{fill:#FFFFFF;}
</style>
<g>
	<rect y="0" class="st0" width="35" height="35"/>
	<path class="st1" d="M2.1,20.6c-0.1,4.5,3.8,6.6,7.9,6.6c5,0,7.7-2.5,7.7-5.9c0-4.2-4.1-5-5.5-5.4c-4.6-1.2-5.5-1.4-5.5-2.8
		c0-1.6,1.5-2.1,2.8-2.1c1.9,0,3.5,0.6,3.6,2.8H17c0-4.3-3.5-5.9-7.4-5.9c-3.3,0-6.9,1.8-6.9,5.6c0,3.5,2.8,4.5,5.5,5.2
		c2.7,0.7,5.5,1.1,5.5,3.1c0,1.9-2.2,2.3-3.6,2.3c-2.2,0-4.1-1-4.1-3.4H2.1z"/>
	<path class="st1" d="M26.5,17.5c0.4-0.2,0.7-0.4,0.9-0.8c0.2-0.3,0.4-0.7,0.6-1.1c0.1-0.4,0.2-0.9,0.2-1.3c0-0.4-0.1-0.8-0.2-1.3
		c-0.1-0.4-0.3-0.8-0.6-1.1c-0.3-0.3-0.6-0.6-0.9-0.8c-0.4-0.2-0.8-0.3-1.3-0.3c-0.4,0-0.8,0.1-1.2,0.3c-0.4,0.2-0.7,0.5-0.9,0.8
		c-0.2,0.3-0.4,0.7-0.6,1.1c-0.1,0.4-0.2,0.8-0.2,1.3c0,0.4,0.1,0.9,0.2,1.3c0.1,0.4,0.3,0.8,0.5,1.1c0.2,0.3,0.5,0.6,0.9,0.8
		c0.4,0.2,0.8,0.3,1.3,0.3C25.7,17.8,26.1,17.7,26.5,17.5 M23.3,23.6c0.4,0.5,1,0.7,1.6,0.7c0.7,0,1.3-0.2,1.7-0.6
		c0.4-0.4,0.8-0.9,1.1-1.5c0.3-0.6,0.5-1.2,0.6-1.9c0.1-0.7,0.2-1.2,0.2-1.8l-0.1-0.1c-0.5,0.7-1.1,1.3-1.8,1.6
		c-0.7,0.3-1.5,0.5-2.4,0.5c-0.8,0-1.6-0.2-2.3-0.5c-0.8-0.3-1.4-0.8-1.9-1.4c-0.5-0.6-0.9-1.2-1.1-1.9c-0.2-0.7-0.3-1.5-0.3-2.2
		c0-1,0.2-1.9,0.5-2.7c0.3-0.8,0.7-1.5,1.3-2.2c0.6-0.6,1.3-1.1,2.1-1.5c0.8-0.4,1.7-0.5,2.6-0.5c1.4,0,2.6,0.3,3.5,0.8
		c0.9,0.6,1.6,1.3,2.2,2.2c0.5,0.9,0.9,2,1.1,3.1c0.2,1.2,0.3,2.3,0.3,3.5c0,1.2-0.1,2.3-0.4,3.5c-0.3,1.2-0.7,2.2-1.3,3.1
		c-0.6,0.9-1.3,1.7-2.3,2.3c-0.9,0.6-2,0.9-3.4,0.9c-0.8,0-1.5-0.1-2.2-0.3c-0.7-0.2-1.3-0.6-1.8-1c-0.5-0.4-1-1-1.3-1.6
		c-0.3-0.6-0.6-1.4-0.7-2.2h3.6C22.6,22.6,22.9,23.2,23.3,23.6"/>
</g>
</svg>
