<?xml version="1.0" encoding="UTF-8" standalone="no"?>
<!-- Generator: Adobe Illustrator 24.0.1, SVG Export Plug-In . SVG Version: 6.00 Build 0)  -->

<svg
   version="1.1"
   id="Capa_1"
   x="0px"
   y="0px"
   viewBox="0 0 64 64"
   width="64"
   height="64"
   xml:space="preserve"
   xmlns="http://www.w3.org/2000/svg"
   xmlns:svg="http://www.w3.org/2000/svg"><defs
   id="defs15" />
<style
   type="text/css"
   id="style2">
	.st0{fill:#E64361;}
	.st1{fill:#FFFFFF;}
</style>
<g
   id="g10"
   transform="scale(1.8285714)"
   style="stroke-width:0.546875">
	<rect
   y="0"
   class="st0"
   width="35"
   height="35"
   id="rect4"
   x="0"
   style="stroke-width:0.546875" />
	<path
   class="st1"
   d="m 2.1,20.6 c -0.1,4.5 3.8,6.6 7.9,6.6 5,0 7.7,-2.5 7.7,-5.9 0,-4.2 -4.1,-5 -5.5,-5.4 C 7.6,14.7 6.7,14.5 6.7,13.1 6.7,11.5 8.2,11 9.5,11 c 1.9,0 3.5,0.6 3.6,2.8 H 17 C 17,9.5 13.5,7.9 9.6,7.9 c -3.3,0 -6.9,1.8 -6.9,5.6 0,3.5 2.8,4.5 5.5,5.2 2.7,0.7 5.5,1.1 5.5,3.1 0,1.9 -2.2,2.3 -3.6,2.3 C 7.9,24.1 6,23.1 6,20.7 H 2.1 Z"
   id="path6"
   style="stroke-width:0.546875" />
	<path
   class="st1"
   d="m 26.5,17.5 c 0.4,-0.2 0.7,-0.4 0.9,-0.8 0.2,-0.3 0.4,-0.7 0.6,-1.1 0.1,-0.4 0.2,-0.9 0.2,-1.3 0,-0.4 -0.1,-0.8 -0.2,-1.3 -0.1,-0.4 -0.3,-0.8 -0.6,-1.1 -0.3,-0.3 -0.6,-0.6 -0.9,-0.8 -0.4,-0.2 -0.8,-0.3 -1.3,-0.3 -0.4,0 -0.8,0.1 -1.2,0.3 -0.4,0.2 -0.7,0.5 -0.9,0.8 -0.2,0.3 -0.4,0.7 -0.6,1.1 -0.1,0.4 -0.2,0.8 -0.2,1.3 0,0.4 0.1,0.9 0.2,1.3 0.1,0.4 0.3,0.8 0.5,1.1 0.2,0.3 0.5,0.6 0.9,0.8 0.4,0.2 0.8,0.3 1.3,0.3 0.5,0 0.9,-0.1 1.3,-0.3 m -3.2,6.1 c 0.4,0.5 1,0.7 1.6,0.7 0.7,0 1.3,-0.2 1.7,-0.6 0.4,-0.4 0.8,-0.9 1.1,-1.5 0.3,-0.6 0.5,-1.2 0.6,-1.9 0.1,-0.7 0.2,-1.2 0.2,-1.8 l -0.1,-0.1 c -0.5,0.7 -1.1,1.3 -1.8,1.6 -0.7,0.3 -1.5,0.5 -2.4,0.5 -0.8,0 -1.6,-0.2 -2.3,-0.5 C 21.1,19.7 20.5,19.2 20,18.6 19.5,18 19.1,17.4 18.9,16.7 18.7,16 18.6,15.2 18.6,14.5 c 0,-1 0.2,-1.9 0.5,-2.7 0.3,-0.8 0.7,-1.5 1.3,-2.2 0.6,-0.6 1.3,-1.1 2.1,-1.5 0.8,-0.4 1.7,-0.5 2.6,-0.5 1.4,0 2.6,0.3 3.5,0.8 0.9,0.6 1.6,1.3 2.2,2.2 0.5,0.9 0.9,2 1.1,3.1 0.2,1.2 0.3,2.3 0.3,3.5 0,1.2 -0.1,2.3 -0.4,3.5 -0.3,1.2 -0.7,2.2 -1.3,3.1 -0.6,0.9 -1.3,1.7 -2.3,2.3 -0.9,0.6 -2,0.9 -3.4,0.9 -0.8,0 -1.5,-0.1 -2.2,-0.3 -0.7,-0.2 -1.3,-0.6 -1.8,-1 -0.5,-0.4 -1,-1 -1.3,-1.6 -0.3,-0.6 -0.6,-1.4 -0.7,-2.2 h 3.6 c 0.2,0.7 0.5,1.3 0.9,1.7"
   id="path8"
   style="stroke-width:0.546875" />
</g>
</svg>
