<?xml version="1.0" encoding="utf-8"?>
<!-- Generator: Adobe Illustrator 27.3.1, SVG Export Plug-In . SVG Version: 6.00 Build 0)  -->
<svg version="1.1" id="Capa_1" xmlns="http://www.w3.org/2000/svg" xmlns:xlink="http://www.w3.org/1999/xlink" x="0px" y="0px"
	 viewBox="0 0 200 200" style="enable-background:new 0 0 200 200;" xml:space="preserve">
<style type="text/css">
	.st0{fill:#FFDD00;}
	.st1{fill:#0B0907;}
	.st2{fill:#E30613;}
	.st3{fill:none;stroke:#000000;stroke-width:4;}
</style>
<g>
	<rect x="2" y="2" class="st0" width="196" height="196"/>
	<path d="M155.4,58.9c0.3,0.4,0.6,0.8,1,1.4c9.3,14.3,11.8,36.2,11.8,52.3h10.9c0-13.1-2.5-37.8-10.6-53.7H155.4z"/>
	<path d="M44.6,58.9c-0.3,0.4-0.6,0.8-1,1.4c-9.3,14.3-11.8,36.2-11.8,52.3H20.9c0-13.1,2.5-37.8,10.6-53.7H44.6z"/>
	<path d="M150.2,121.5H100H49.8c11-10.7,9.6-35.3,13.1-51.8c4-19,16.1-32.2,37.1-32.2c21.1,0,33.2,13.1,37.1,32.2
		C140.6,86.2,139.2,110.8,150.2,121.5 M105.9,133.2h62v-11.8c-24.7-8.8-8.4-54.3-32.2-80.2c-9.5-10.4-22.4-13.7-29.8-14.7V15.7H94.1
		v10.8c-7.4,1.1-20.3,4.3-29.8,14.7c-23.8,25.9-7.5,71.4-32.2,80.2v11.8h62V145h11.8V133.2z"/>
	<path d="M62.8,174.9c0.4,0.8,1,1.5,1.7,1.9c0.7,0.5,1.5,0.9,2.4,1.1c0.9,0.2,1.9,0.4,2.9,0.4c0.7,0,1.4-0.1,2.2-0.2
		c0.8-0.1,1.5-0.3,2.2-0.6c0.7-0.3,1.2-0.8,1.7-1.3c0.5-0.6,0.7-1.3,0.7-2.1c0-0.9-0.3-1.7-0.9-2.3c-0.6-0.6-1.4-1.1-2.3-1.4
		c-1-0.4-2.1-0.7-3.3-1c-1.2-0.3-2.5-0.6-3.7-1c-1.3-0.3-2.5-0.7-3.8-1.2c-1.2-0.5-2.3-1.1-3.3-1.8c-1-0.7-1.7-1.7-2.3-2.8
		c-0.6-1.1-0.9-2.4-0.9-4c0-1.8,0.4-3.3,1.1-4.6c0.8-1.3,1.7-2.4,3-3.3c1.2-0.9,2.6-1.5,4.1-1.9c1.5-0.4,3.1-0.6,4.6-0.6
		c1.8,0,3.5,0.2,5.2,0.6c1.7,0.4,3.1,1.1,4.4,1.9c1.3,0.9,2.3,2,3.1,3.4c0.8,1.4,1.1,3.1,1.1,5.1h-7.3c-0.1-1-0.3-1.9-0.6-2.6
		c-0.4-0.7-0.9-1.2-1.5-1.6c-0.6-0.4-1.3-0.7-2.1-0.8c-0.8-0.2-1.6-0.2-2.6-0.2c-0.6,0-1.2,0.1-1.8,0.2c-0.6,0.1-1.2,0.4-1.7,0.7
		c-0.5,0.3-0.9,0.7-1.2,1.2c-0.3,0.5-0.5,1.1-0.5,1.8c0,0.7,0.1,1.2,0.4,1.6c0.3,0.4,0.8,0.8,1.5,1.2c0.8,0.4,1.8,0.7,3.1,1.1
		c1.3,0.4,3.1,0.8,5.2,1.3c0.6,0.1,1.5,0.4,2.7,0.7c1.1,0.3,2.3,0.9,3.4,1.6c1.1,0.7,2.1,1.7,2.9,3c0.8,1.2,1.2,2.8,1.2,4.7
		c0,1.6-0.3,3-0.9,4.4c-0.6,1.4-1.5,2.5-2.7,3.5c-1.2,1-2.7,1.7-4.5,2.3c-1.8,0.5-3.8,0.8-6.2,0.8c-1.9,0-3.7-0.2-5.5-0.7
		c-1.8-0.5-3.3-1.2-4.7-2.2c-1.4-1-2.4-2.3-3.3-3.8c-0.8-1.5-1.2-3.4-1.2-5.5h7.3C62.2,173.1,62.4,174.1,62.8,174.9"/>
	<path d="M93.9,173.8c0.2,0.9,0.5,1.8,1,2.5c0.5,0.8,1.1,1.4,1.9,1.8c0.8,0.5,1.7,0.7,2.9,0.7c1.2,0,2.1-0.2,2.9-0.7
		c0.8-0.5,1.4-1.1,1.9-1.8c0.5-0.8,0.8-1.6,1-2.5c0.2-0.9,0.3-1.9,0.3-2.9c0-1-0.1-2-0.3-2.9c-0.2-1-0.5-1.8-1-2.6
		c-0.5-0.7-1.1-1.3-1.9-1.8c-0.8-0.5-1.8-0.7-2.9-0.7c-1.2,0-2.1,0.2-2.9,0.7c-0.8,0.5-1.4,1.1-1.9,1.8c-0.5,0.7-0.8,1.6-1,2.6
		c-0.2,1-0.3,1.9-0.3,2.9C93.6,171.9,93.7,172.9,93.9,173.8 M87.7,165.5c0.6-1.6,1.5-3,2.6-4.1c1.1-1.1,2.5-2,4-2.6
		c1.6-0.6,3.3-0.9,5.3-0.9c2,0,3.7,0.3,5.3,0.9c1.6,0.6,2.9,1.5,4.1,2.6c1.1,1.1,2,2.5,2.6,4.1c0.6,1.6,0.9,3.4,0.9,5.4
		c0,2-0.3,3.8-0.9,5.4c-0.6,1.6-1.5,3-2.6,4.1c-1.1,1.1-2.5,2-4.1,2.6c-1.6,0.6-3.4,0.9-5.3,0.9c-2,0-3.7-0.3-5.3-0.9
		c-1.6-0.6-2.9-1.5-4-2.6c-1.1-1.1-2-2.5-2.6-4.1c-0.6-1.6-0.9-3.4-0.9-5.4C86.8,168.9,87.1,167.1,87.7,165.5"/>
	<path d="M122.7,177.1c0.3,0.5,0.7,1,1.2,1.3c0.5,0.3,1,0.6,1.7,0.7c0.6,0.2,1.3,0.2,1.9,0.2c0.5,0,1-0.1,1.5-0.2
		c0.5-0.1,1-0.3,1.4-0.5c0.4-0.2,0.8-0.6,1.1-1c0.3-0.4,0.4-0.9,0.4-1.5c0-1-0.7-1.8-2-2.3c-1.4-0.5-3.3-1-5.7-1.5
		c-1-0.2-2-0.5-2.9-0.8c-0.9-0.3-1.8-0.7-2.5-1.2c-0.7-0.5-1.3-1.1-1.8-1.9c-0.5-0.8-0.7-1.7-0.7-2.8c0-1.6,0.3-2.9,0.9-3.9
		c0.6-1,1.4-1.8,2.5-2.4c1-0.6,2.2-1,3.5-1.3c1.3-0.2,2.6-0.4,3.9-0.4c1.4,0,2.7,0.1,3.9,0.4c1.3,0.3,2.4,0.7,3.4,1.3
		c1,0.6,1.8,1.4,2.5,2.4c0.7,1,1.1,2.3,1.2,3.8h-6.5c-0.1-1.3-0.6-2.2-1.5-2.7c-0.9-0.5-2-0.7-3.2-0.7c-0.4,0-0.8,0-1.3,0.1
		c-0.5,0.1-0.9,0.2-1.2,0.3c-0.4,0.2-0.7,0.4-0.9,0.7c-0.3,0.3-0.4,0.7-0.4,1.2c0,0.6,0.2,1.1,0.7,1.5c0.4,0.4,1,0.7,1.8,0.9
		c0.7,0.2,1.5,0.5,2.5,0.7c0.9,0.2,1.9,0.4,2.8,0.6c1,0.2,2,0.5,2.9,0.8c0.9,0.3,1.8,0.7,2.5,1.3c0.7,0.5,1.3,1.2,1.8,2
		c0.5,0.8,0.7,1.8,0.7,2.9c0,1.6-0.3,3-1,4.1c-0.7,1.1-1.5,2-2.6,2.7c-1.1,0.7-2.3,1.1-3.6,1.4c-1.4,0.3-2.7,0.4-4.2,0.4
		c-1.5,0-2.9-0.1-4.2-0.4c-1.4-0.3-2.6-0.8-3.7-1.5c-1.1-0.7-2-1.6-2.7-2.7c-0.7-1.1-1.1-2.5-1.1-4.2h6.5
		C122.3,176,122.4,176.6,122.7,177.1"/>
</g>
<path class="st1" d="M197.5,2.5v195H2.5V2.5H197.5 M200,0H0v200h200V0z"/>
<path d="M1144.4,2275.7c0-5.5-4.5-10-10.1-10s-10.1,4.5-10.1,10s4.5,10,10.1,10C1139.9,2285.6,1144.4,2281.2,1144.4,2275.7
	 M1174,2392.3h-5.7c0.8,2.4,3.1,4.2,5.7,4.2c4.1,0,7.5-4.4,5.4-8.6c-0.8-1.7-2.5-3-4.4-3.2c-3.2-0.4-5.9,1.4-6.6,4.1h5.7
	c1,0,1.8,0.8,1.8,1.8C1175.8,2391.5,1174.9,2392.3,1174,2392.3 M1103.6,2396.5c2.8,0,5.3-1.9,5.9-4.6c0.7-3.4-1.3-6-4.1-7v5.6
	c0,1-0.8,1.8-1.8,1.8s-1.8-0.8-1.8-1.8v-5.6c-2.4,0.8-4.2,3-4.2,5.6C1097.6,2393.7,1100.2,2396.5,1103.6,2396.5 M1099.9,2381.7v-10
	c0-1.3,0.8-2.4,1.8-3.1v-39.5c-1.5-0.6-2.8-1.9-3.1-3.7c-0.5-2.6,1.3-5.1,4.1-5.6l24.5-4.2c0,0,7.8-23,8.3-23.8
	c0.3-0.5,0.7-1,1.1-1.3c0.6-0.6,1.6-1.3,2.4-1.6c3.4-1.4,9.7-1.3,11.7,3.2l12.4,29.2c1.4,3.4,0.8,7.3-1.8,10l6.3,15.6h25.9
	c2.6,0,5.1,1.6,5.8,4c1.1,3.7-1.8,7.2-5.5,7.2h-30.1c-2.3,0-4.4-1.3-5.2-3.4l-18.8-44.9l-4.1,12c-0.6,1.8-2.1,2.9-3.9,3.2l-26.5,4.5
	v39.2c0.5,0.3,1,0.6,1.3,1.1l19.2,18.8h32.7c0.8-7.7,7.5-13.6,15.4-13.6c1,0,1.8,0.8,1.8,1.8s-0.8,1.8-1.8,1.8
	c-6,0-10.9,4.3-11.7,10h2.3c0.9-5,6-8.7,11.6-7.5c3.5,0.8,6.4,3.6,7.3,7.1c1.5,6.3-3.4,11.9-9.5,11.9c-4.7,0-8.6-3.4-9.4-7.7h-39.3
	c-0.2,0-0.5,0-0.7-0.2s-0.3-0.2-0.5-0.3l-16.7-16.5v6.3c4.1,1.7,6.7,5.8,5.9,10.6c-0.6,3.6-3.4,6.5-6.9,7.5
	c-6.5,1.7-12.4-3.1-12.4-9.3C1093.9,2386.5,1096.3,2383.2,1099.9,2381.7L1099.9,2381.7z M1151.7,2342.9l-10.7,12.4v24.9
	c0,3.9-2.9,5.6-5.7,5.6c-3.1,0-5.7-2.5-5.7-5.6l-0.1-27c0-1.4,0.5-2.7,1.5-3.7l15.9-18L1151.7,2342.9z"/>
<polygon class="st2" points="1072.8,2256 1072.8,2264.1 1221.6,2413 1229.8,2413 1229.8,2404.9 1081,2256 "/>
<rect x="1071.8" y="2255" class="st3" width="159" height="159"/>
</svg>
