<?xml version="1.0" encoding="UTF-8" standalone="no"?>
<!-- Created with Inkscape (http://www.inkscape.org/) -->
<svg
   xmlns:dc="http://purl.org/dc/elements/1.1/"
   xmlns:cc="http://creativecommons.org/ns#"
   xmlns:rdf="http://www.w3.org/1999/02/22-rdf-syntax-ns#"
   xmlns:svg="http://www.w3.org/2000/svg"
   xmlns="http://www.w3.org/2000/svg"
   xmlns:sodipodi="http://sodipodi.sourceforge.net/DTD/sodipodi-0.dtd"
   xmlns:inkscape="http://www.inkscape.org/namespaces/inkscape"
   width="64"
   height="64"
   id="svg21844"
   sodipodi:version="0.32"
   inkscape:version="0.46"
   sodipodi:docname="T3.svg"
   inkscape:output_extension="org.inkscape.output.svg.inkscape"
   version="1.0">
  <defs
     id="defs21846">
    <inkscape:perspective
       sodipodi:type="inkscape:persp3d"
       inkscape:vp_x="0 : 32 : 1"
       inkscape:vp_y="0 : 1000 : 0"
       inkscape:vp_z="64 : 32 : 1"
       inkscape:persp3d-origin="32 : 21.333333 : 1"
       id="perspective21852" />
  </defs>
  <sodipodi:namedview
     id="base"
     pagecolor="#ffffff"
     bordercolor="#666666"
     borderopacity="1.0"
     inkscape:pageopacity="0.0"
     inkscape:pageshadow="2"
     inkscape:zoom="8.703125"
     inkscape:cx="32"
     inkscape:cy="32.000001"
     inkscape:current-layer="layer1"
     showgrid="true"
     inkscape:document-units="px"
     inkscape:grid-bbox="true"
     inkscape:window-width="1280"
     inkscape:window-height="752"
     inkscape:window-x="280"
     inkscape:window-y="280"
     showguides="true"
     inkscape:guide-bbox="true" />
  <metadata
     id="metadata21849">
    <rdf:RDF>
      <cc:Work
         rdf:about="">
        <dc:format>image/svg+xml</dc:format>
        <dc:type
           rdf:resource="http://purl.org/dc/dcmitype/StillImage" />
      </cc:Work>
    </rdf:RDF>
  </metadata>
  <g
     id="layer1"
     inkscape:label="Layer 1"
     inkscape:groupmode="layer"
     transform="translate(-0.7873347,136.12828)">
    <rect
       style="opacity:1;fill:#008d78;fill-opacity:1;fill-rule:nonzero;stroke:none;stroke-width:7.08599996999999959;stroke-linecap:round;stroke-linejoin:round;stroke-miterlimit:4;stroke-dasharray:7.08600000000000030, 14.17200000000000060;stroke-dashoffset:0;stroke-opacity:1"
       id="rect21854"
       width="64"
       height="64"
       x="0.78733474"
       y="-136.12828" />
    <path
       transform="scale(0.9181195,1.0891829)"
       style="font-size:43.62902451px;font-style:normal;font-variant:normal;font-weight:bold;font-stretch:normal;text-align:start;line-height:125%;writing-mode:lr-tb;text-anchor:start;fill:#ffffff;fill-opacity:1;stroke:none;stroke-width:1px;stroke-linecap:butt;stroke-linejoin:miter;stroke-opacity:1;font-family:Helvetica Neue;"
       d="M 17.47151,-106.32231 L 17.47151,-80.930214 L 24.321267,-80.930214 L 24.321267,-106.32231 L 33.657878,-106.32231 L 33.657878,-112.08134 L 8.1348987,-112.08134 L 8.1348987,-106.32231 L 17.47151,-106.32231"
       id="text2382" />
    <path
       style="font-size:47.52000046px;font-style:normal;font-variant:normal;font-weight:bold;font-stretch:normal;text-align:start;line-height:125%;writing-mode:lr-tb;text-anchor:start;fill:#ffffff;fill-opacity:1;stroke:none;stroke-width:1px;stroke-linecap:butt;stroke-linejoin:miter;stroke-opacity:1;font-family:Helvetica Neue;"
       d="M 43.752628,-108.07856 L 43.752628,-103.32656 C 44.576296,-103.32654 45.431656,-103.29486 46.318708,-103.23152 C 47.237414,-103.19982 48.076933,-103.02558 48.837268,-102.7088 C 49.597571,-102.42366 50.215331,-101.94846 50.690548,-101.2832 C 51.19741,-100.61791 51.45085,-99.651667 51.450868,-98.384478 C 51.45085,-96.76879 50.92813,-95.485751 49.882708,-94.535358 C 48.837252,-93.616633 47.554213,-93.157273 46.033588,-93.157278 C 45.051496,-93.157273 44.196137,-93.331513 43.467508,-93.679998 C 42.770538,-94.028472 42.184459,-94.487832 41.709268,-95.058078 C 41.23406,-95.659991 40.86974,-96.35695 40.616308,-97.148958 C 40.362861,-97.972629 40.220301,-98.827988 40.188628,-99.715038 L 33.773428,-99.715038 C 33.741747,-97.782549 34.011027,-96.07183 34.581268,-94.582878 C 35.183186,-93.093913 36.022705,-91.826715 37.099828,-90.781278 C 38.176943,-89.767517 39.475821,-88.991357 40.996468,-88.452798 C 42.548778,-87.914239 44.259497,-87.644959 46.128628,-87.644958 C 47.744293,-87.644959 49.296612,-87.882559 50.785588,-88.357758 C 52.274529,-88.832958 53.589247,-89.529917 54.729748,-90.448638 C 55.870205,-91.367355 56.773084,-92.507834 57.438388,-93.870078 C 58.135323,-95.232311 58.483803,-96.78463 58.483828,-98.527038 C 58.483803,-100.42783 57.961083,-102.05934 56.915668,-103.4216 C 55.870205,-104.78382 54.428767,-105.67086 52.591348,-106.08272 L 52.591348,-106.17776 C 54.143647,-106.62126 55.299966,-107.46078 56.060308,-108.69632 C 56.852284,-109.93182 57.248284,-111.35742 57.248308,-112.97312 C 57.248284,-114.46205 56.915644,-115.77677 56.250388,-116.91728 C 55.585085,-118.05773 54.713886,-119.02397 53.636788,-119.816 C 52.591328,-120.60797 51.40333,-121.19405 50.072788,-121.57424 C 48.742212,-121.98604 47.411654,-122.19196 46.081108,-122.192 C 44.370377,-122.19196 42.818058,-121.90684 41.424148,-121.33664 C 40.030221,-120.79805 38.826382,-120.02189 37.812628,-119.00816 C 36.830544,-117.99437 36.054385,-116.77469 35.484148,-115.34912 C 34.945586,-113.95517 34.644626,-112.40285 34.581268,-110.69216 L 40.996468,-110.69216 C 40.96478,-112.40285 41.37662,-113.81261 42.231988,-114.92144 C 43.119018,-116.06189 44.417897,-116.63213 46.128628,-116.63216 C 47.364134,-116.63213 48.457093,-116.25197 49.407508,-115.49168 C 50.357891,-114.73133 50.83309,-113.63837 50.833108,-112.2128 C 50.83309,-111.26238 50.59549,-110.50206 50.120308,-109.93184 C 49.676771,-109.36158 49.090692,-108.91806 48.362068,-108.60128 C 47.665093,-108.31614 46.904774,-108.1419 46.081108,-108.07856 C 45.257416,-108.01518 44.481256,-108.01518 43.752628,-108.07856"
       id="text22626" />
  </g>
</svg>
