<?xml version="1.0" encoding="utf-8"?>
<!-- Generator: Adobe Illustrator 26.5.0, SVG Export Plug-In . SVG Version: 6.00 Build 0)  -->
<svg version="1.1" id="Capa_1" xmlns="http://www.w3.org/2000/svg" xmlns:xlink="http://www.w3.org/1999/xlink" x="0px" y="0px"
	 viewBox="0 0 100 100" style="enable-background:new 0 0 100 100;" xml:space="preserve">
<style type="text/css">
	.st0{fill:#008E78;}
	.st1{fill:#FFFFFF;}
</style>
<g>
	<rect x="0" y="0" class="st0" width="100" height="100"/>
	<polygon class="st1" points="18.4,36 28.1,36 28.1,78.2 40.5,78.2 40.5,36 50.5,36 50.5,25.5 18.4,25.5 	"/>
	<g>
		<path class="st1" d="M63.1,55.6c2.4,0.2,5.3-0.3,7.5,1c2.2,1.4,2.7,5,2.7,7.4c0,3-0.5,6.8-4.3,6.8c-5,0-4.3-5.9-4.5-9.4H53.4
			l0.1,3.6c0.6,9.3,5.6,14.6,15.2,14.6c10.2,0,16.3-4.9,16.3-15.6c0-5.6-1.9-11.4-8.4-13v-0.1c5.1-2.4,7.1-6.2,7.1-11.7
			c0-9.6-6-13.6-15-13.6c-7.3,0-15,4.8-15.2,12.7l-0.1,3.9h11.2c0.1-2.8-0.3-7.7,3.8-7.7c3.3,0,4.2,2.4,4.2,5.4
			c0,1.8-0.6,4.8-2.2,5.9c-2,1.5-4.9,1.3-7.3,1.4V55.6z"/>
	</g>
</g>
</svg>
