<?xml version="1.0" encoding="utf-8"?>
<!-- Generator: Adobe Illustrator 26.5.0, SVG Export Plug-In . SVG Version: 6.00 Build 0)  -->
<svg version="1.1" id="Capa_1" xmlns="http://www.w3.org/2000/svg" xmlns:xlink="http://www.w3.org/1999/xlink" x="0px" y="0px"
	 viewBox="0 0 100 100" style="enable-background:new 0 0 100 100;" xml:space="preserve">
<style type="text/css">
	.st0{fill:#008E78;}
	.st1{fill:#FFFFFF;}
</style>
<g>
	<rect x="0" y="0" class="st0" width="100" height="100"/>
	<polygon class="st1" points="18.5,35.1 28.2,35.1 28.2,77.2 40.5,77.2 40.5,35.1 50.5,35.1 50.5,24.6 18.5,24.6 	"/>
	<g>
		<path class="st1" d="M64.8,54.4c0.2-2.5,1.7-3.9,4.1-3.9c5.1,0,4.6,7.2,4.6,10.5c0,2.7,0,9.2-4.6,8.7c-3.9-0.4-3.4-5.5-3.6-8H54.2
			v4c1.6,8.6,5.9,12.8,15,12.8c12.3,0,16.2-7.2,16.2-18.5c0-8.9-1.9-18.2-12.8-18.2c-3.3,0-5.8,1.1-8.2,3.2l0.5-9.8h18.3v-9.5H55.8
			l-1.3,28.7H64.8z"/>
	</g>
</g>
</svg>
