<?xml version="1.0" encoding="UTF-8" standalone="yes"?>
<svg xmlns="http://www.w3.org/2000/svg" xmlns:xlink="http://www.w3.org/1999/xlink" width="64px" height="64px" viewBox="0 0 64 64" version="1.1">
  <g id="surface1">
    <path style=" stroke:none;fill-rule:nonzero;fill:rgb(88.235295%,3.137255%,10.196079%);fill-opacity:1;" d="M 32 58.667969 C 46.730469 58.667969 58.667969 46.730469 58.667969 32 C 58.667969 17.269531 46.730469 5.332031 32 5.332031 C 17.269531 5.332031 5.332031 17.269531 5.332031 32 C 5.332031 46.730469 17.269531 58.667969 32 58.667969 Z M 32 58.667969 "/>
    <path style=" stroke:none;fill-rule:nonzero;fill:rgb(100%,100%,100%);fill-opacity:1;" d="M 40.777344 30.734375 C 43.109375 29.558594 44.597656 27.402344 44.597656 24.734375 C 44.597656 18.402344 39.109375 17.066406 34.109375 17.222656 L 20.441406 17.222656 L 20.441406 47.222656 L 34.441406 47.222656 C 40.777344 47.222656 45.777344 45.066406 45.777344 37.890625 C 45.777344 34.402344 43.777344 31.734375 40.777344 30.734375 Z M 28.109375 23.222656 L 33.933594 23.222656 C 35.597656 23.222656 37.089844 23.890625 37.089844 26.066406 C 37.089844 28.246094 35.265625 29.066406 33.933594 29.066406 L 28.109375 29.066406 Z M 34.109375 41.066406 L 27.933594 41.066406 L 27.933594 34.066406 L 34.109375 34.066406 C 36.441406 34.066406 38.285156 34.910156 38.285156 37.734375 C 38.285156 40.222656 36.441406 41.066406 34.109375 41.066406 Z M 34.109375 41.066406 "/>
  </g>
</svg>