<?xml version="1.0" encoding="utf-8"?>
<!-- Generator: Adobe Illustrator 26.5.0, SVG Export Plug-In . SVG Version: 6.00 Build 0)  -->
<svg version="1.1" id="Capa_1" xmlns="http://www.w3.org/2000/svg" xmlns:xlink="http://www.w3.org/1999/xlink" x="0px" y="0px"
	 viewBox="0 0 100 100" style="enable-background:new 0 0 100 100;" xml:space="preserve">
<style type="text/css">
	.st0{fill:#008E78;}
	.st1{fill:#FFFFFF;}
</style>
<g>
	<rect x="0" y="0" class="st0" width="100" height="100"/>
	<polygon class="st1" points="18.4,33 28.1,33 28.1,75.2 40.5,75.2 40.5,33 50.5,33 50.5,22.4 18.4,22.4 	"/>
	<g>
		<path class="st1" d="M64.9,41.5V39c0-2.7,0.4-7.5,4.1-7.7c3.2-0.3,4.4,2.5,4.4,5.2c0,3.9-0.9,6.1-3.4,8.9L64.7,51
			c-5.6,6.2-11,13.7-11,22.4v1.8h31.6v-9.5H67.1c0.6-3,5.1-7.4,7-9.2l4.6-4.4c4.5-4.7,6.6-8.5,6.6-15.1c0-9.8-5.8-14.5-15.2-14.5
			c-10.6,0-16.2,5.9-16.2,16.3v2.7H64.9z"/>
	</g>
</g>
</svg>
