<?xml version="1.0" encoding="utf-8"?>
<svg fill="#000000" width="64px" height="64px" viewBox="0 0 32 32" xmlns="http://www.w3.org/2000/svg">
  <rect x="0" y="0" width="32" height="32" style="fill:white;fill-opacity:1;stroke:black;stroke-width:2" />
  <g id="Group_4" data-name="Group 4" transform="scale(0.8 0.8) translate(-341 -160)">
    <path id="Path_14" data-name="Path 14" d="M347.23,171.168a.733.733,0,0,0,.185-.02l12.307-2.718v1.289l-6.641,3.461a.9.9,0,0,0-.479.793v1.273h1.786v-.73l6.851-3.573,6.921,3.575v.728h1.787v-1.273a.893.893,0,0,0-.482-.793l-6.7-3.461v-1.961l12.58-2.78a.85.85,0,1,0-.368-1.66l-8.665,1.914-.19-.855a.318.318,0,0,0-.377-.242l-2.039-.2L357.5,165.3l-1.763,1.039a.323.323,0,0,0-.243.379l.192.857-8.636,1.908a.85.85,0,0,0,.183,1.68Z"/>
    <path id="Path_15" data-name="Path 15" d="M374.835,175.873a.727.727,0,0,0-.722-.625h-25.74a.723.723,0,0,0-.72.625l-1.273,9.109a.628.628,0,0,0,0,.2l1.273,9.112a.725.725,0,0,0,.72.627h25.74a.728.728,0,0,0,.722-.627l1.271-9.112a.69.69,0,0,0,0-.2Zm-19.622,8.371a.555.555,0,0,1-.554.5H349.11a.555.555,0,0,1-.556-.557c0-.019.929-6.7.929-6.7a.559.559,0,0,1,.545-.443h4.629a.556.556,0,0,1,.556.557Zm10.271-.059a.557.557,0,0,1-.557.557h-7.368a.558.558,0,0,1-.558-.557V177.6a.557.557,0,0,1,.558-.557h7.368a.556.556,0,0,1,.557.557Zm7.872.557h-5.547a.558.558,0,0,1-.556-.5V177.6a.556.556,0,0,1,.558-.557h4.627a.56.56,0,0,1,.547.443s.928,6.682.928,6.7A.554.554,0,0,1,373.356,184.742Z"/>
  </g>
</svg>