<?xml version="1.0" encoding="UTF-8" standalone="no"?>
<!-- Inkscape 0.48.1  (Feb 23 2011)#logo_tmb.emf -->

<svg
   xmlns:dc="http://purl.org/dc/elements/1.1/"
   xmlns:cc="http://creativecommons.org/ns#"
   xmlns:rdf="http://www.w3.org/1999/02/22-rdf-syntax-ns#"
   xmlns:svg="http://www.w3.org/2000/svg"
   xmlns="http://www.w3.org/2000/svg"
   xmlns:sodipodi="http://sodipodi.sourceforge.net/DTD/sodipodi-0.dtd"
   xmlns:inkscape="http://www.inkscape.org/namespaces/inkscape"
   id="0"
   height="64"
   width="64"
   version="1.0"
   inkscape:version="0.91 r13725"
   sodipodi:docname="TMB.svg">
  <defs
     id="defs10" />
  <sodipodi:namedview
     pagecolor="#ffffff"
     bordercolor="#666666"
     borderopacity="1"
     objecttolerance="10"
     gridtolerance="10"
     guidetolerance="10"
     inkscape:pageopacity="0"
     inkscape:pageshadow="2"
     inkscape:window-width="2560"
     inkscape:window-height="1334"
     id="namedview8"
     showgrid="false"
     inkscape:zoom="4.9165457"
     inkscape:cx="-1.865633"
     inkscape:cy="24.00059"
     inkscape:window-x="0"
     inkscape:window-y="27"
     inkscape:window-maximized="1"
     inkscape:current-layer="0"
     units="px" />
  <metadata
     id="metadata3140">
    <rdf:RDF>
      <cc:Work
         rdf:about="">
        <dc:format>image/svg+xml</dc:format>
        <dc:type
           rdf:resource="http://purl.org/dc/dcmitype/StillImage" />
        <dc:title></dc:title>
      </cc:Work>
    </rdf:RDF>
  </metadata>
  <g
     id="1"
     transform="matrix(0.57008445,0,0,0.56527,-0.00329237,7.9900568)"
     style="fill:#e31b1e">
    <path
       id="2"
       d="m 59.776,0.5315 c 9.9213,-1.063 20.161,-0.6378 29.587,2.8346 6.9094,2.6575 13.5,6.8031 17.858,12.898 3.5079,4.8543 5.2441,10.878 5.0315,16.866 -0.17716,6.378 -1.9134,12.72 -5.2441,18.142 -5.1378,8.4331 -12.508,15.272 -20.587,20.799 -10.311,6.873 -22.216,11.692 -34.618,12.684 -3.756,0.319 -7.547,0.177 -11.268,-0.177 -7.334,-0.673 -14.74,-2.693 -20.692,-7.122 -4.713,-3.508 -8.186,-8.611 -9.674,-14.28 -2.0903,-7.724 -0.8147,-16.122 2.87,-23.138 4.217,-8.078 10.949,-14.492 18.39,-19.594 2.6929,-1.8425 5.4921,-3.4724 8.3976,-4.9961 -1.2756,0.24803 -2.4449,0.7441 -3.685,1.1693 -9.248,3.331 -18,8.575 -24.555,16.016 -6.272,7.157 -10.418,16.37 -10.878,25.937 -1.2405,-5.421 -0.74443,-11.162 0.7438,-16.477 2.3385,-8.291 7.37,-15.555 13.535,-21.472 4.252,-4.0039 9,-7.5827 14.102,-10.453 9.4606,-5.2795 19.984,-8.3622 30.685,-9.6378 m -32.988,32.67 c -0.5315,1.8425 -1.0276,3.685 -1.5591,5.5276 l 5.6693,0 c -1.5945,5.563 -3.1181,11.126 -4.7126,16.689 2.374,0.03543 4.7126,0.03543 7.0512,0 1.5591,-5.563 3.0827,-11.126 4.6772,-16.689 l 5.6339,0 c 0.5315,-1.8425 1.0276,-3.685 1.5591,-5.4921 -6.1299,-0.03543 -12.224,0 -18.319,-0.03543 m 20.622,0.03543 c -2.0197,7.4055 -4.1457,14.811 -6.2008,22.217 l 6.6614,0 c 0.95669,-3.437 1.9134,-6.8386 2.8701,-10.276 0.60236,-2.1614 1.2756,-4.2874 1.7008,-6.4843 -0.17716,2.1614 0,4.3228 -0.17716,6.4843 -0.03543,3.437 0,6.8386 -0.03543,10.276 l 5.2441,0 c 3.0827,-5.5984 6.3071,-11.091 9.248,-16.76 -1.8425,5.5276 -3.2244,11.161 -4.8543,16.724 2.2323,0.03543 4.4291,0.03543 6.6614,0.03543 2.0551,-7.4055 4.2165,-14.811 6.2008,-22.252 -3.3307,0.03543 -6.6614,0.03543 -9.9921,0.03543 -2.622,4.9252 -5.563,9.7441 -7.7598,14.917 0.56693,-4.9606 0.38976,-9.9567 0.46063,-14.917 -3.3307,0 -6.6969,-0.03543 -10.028,0 m 30.969,0 c -2.0906,7.3701 -4.1102,14.811 -6.2362,22.181 4.7835,0.07087 9.5315,0.03543 14.315,0.03543 2.622,0.03543 5.315,-1.063 6.874,-3.189 1.0984,-1.5236 1.9134,-3.4016 1.7717,-5.315 -0.17717,-1.5236 -1.4528,-2.6929 -2.9409,-2.9409 2.7992,-0.92126 4.9961,-3.5787 5.1732,-6.5197 0.1063,-1.311 -0.49606,-2.6929 -1.6654,-3.3307 -1.3819,-0.81496 -3.0472,-0.85039 -4.6063,-0.92126 -4.2165,-0.03543 -8.4331,0 -12.685,-0.03543 z"
       inkscape:connector-curvature="0" />
    <path
       id="3"
       d="m 83.976,37.984 c 1.5236,-0.03543 3.0472,-0.03543 4.5709,0 0.60236,-0.03543 1.2047,0.4252 1.2756,1.0276 0.07087,1.1693 -0.70866,2.4803 -1.9488,2.622 -1.6299,0.2126 -3.2953,0.07087 -4.9252,0.1063 0.35433,-1.2402 0.74409,-2.4803 1.0276,-3.7559 z"
       inkscape:connector-curvature="0" />
    <path
       id="4"
       d="m 81.638,46.382 c 1.6299,0.03543 3.2244,-0.07087 4.8189,0.03543 0.7441,0.07087 1.4882,0.5315 1.5591,1.311 0.03543,1.5236 -1.2756,2.9764 -2.7992,2.9764 -1.5945,0.07087 -3.189,0 -4.7835,0.03543 0.4252,-1.4528 0.85039,-2.9055 1.2047,-4.3583 z"
       inkscape:connector-curvature="0" />
  </g>
</svg>
