<?xml version="1.0" encoding="UTF-8" standalone="yes"?>
<svg xmlns="http://www.w3.org/2000/svg" xmlns:xlink="http://www.w3.org/1999/xlink" width="64px" height="64px" viewBox="0 0 64 64" version="1.1">
  <g id="surface1">
    <path style=" stroke:none;fill-rule:nonzero;fill:rgb(89.019608%,10.588235%,11.764706%);fill-opacity:1;" d="M 34.074219 8.289062 C 39.730469 7.691406 45.566406 7.929688 50.941406 9.894531 C 54.878906 11.394531 58.636719 13.738281 61.121094 17.183594 C 63.121094 19.925781 64.109375 23.332031 63.988281 26.71875 C 63.890625 30.324219 62.898438 33.90625 61 36.972656 C 58.070312 41.738281 53.871094 45.605469 49.265625 48.730469 C 43.386719 52.613281 36.597656 55.339844 29.527344 55.898438 C 27.386719 56.078125 25.226562 56 23.105469 55.800781 C 18.925781 55.417969 14.703125 54.277344 11.308594 51.773438 C 8.621094 49.789062 6.640625 46.90625 5.792969 43.703125 C 4.601562 39.335938 5.328125 34.589844 7.429688 30.621094 C 9.835938 26.054688 13.671875 22.429688 17.914062 19.546875 C 19.449219 18.503906 21.046875 17.582031 22.703125 16.722656 C 21.972656 16.863281 21.308594 17.144531 20.601562 17.382812 C 15.328125 19.265625 10.339844 22.230469 6.601562 26.4375 C 3.027344 30.480469 0.664062 35.691406 0.402344 41.097656 C -0.304688 38.035156 -0.0234375 34.789062 0.824219 31.785156 C 2.15625 27.097656 5.027344 22.992188 8.542969 19.648438 C 10.964844 17.382812 13.671875 15.359375 16.582031 13.738281 C 21.972656 10.753906 27.972656 9.011719 34.074219 8.289062 M 15.265625 26.757812 C 14.964844 27.796875 14.679688 28.839844 14.378906 29.882812 L 17.609375 29.882812 C 16.703125 33.027344 15.832031 36.171875 14.925781 39.316406 C 16.277344 39.335938 17.609375 39.335938 18.945312 39.316406 C 19.832031 36.171875 20.703125 33.027344 21.609375 29.882812 L 24.820312 29.882812 C 25.125 28.839844 25.40625 27.800781 25.710938 26.777344 C 22.214844 26.757812 18.742188 26.777344 15.265625 26.757812 M 27.023438 26.777344 C 25.871094 30.964844 24.660156 35.148438 23.488281 39.335938 L 27.285156 39.335938 C 27.832031 37.394531 28.378906 35.46875 28.921875 33.527344 C 29.265625 32.304688 29.648438 31.105469 29.890625 29.863281 C 29.792969 31.082031 29.890625 32.304688 29.792969 33.527344 C 29.769531 35.46875 29.792969 37.394531 29.769531 39.335938 L 32.761719 39.335938 C 34.519531 36.171875 36.355469 33.066406 38.03125 29.863281 C 36.980469 32.988281 36.195312 36.171875 35.265625 39.316406 C 36.539062 39.335938 37.789062 39.335938 39.0625 39.335938 C 40.234375 35.148438 41.464844 30.964844 42.597656 26.757812 C 40.699219 26.777344 38.800781 26.777344 36.902344 26.777344 C 35.40625 29.5625 33.730469 32.285156 32.476562 35.210938 C 32.800781 32.40625 32.699219 29.582031 32.742188 26.777344 C 30.839844 26.777344 28.921875 26.757812 27.023438 26.777344 M 44.679688 26.777344 C 43.488281 30.945312 42.335938 35.148438 41.125 39.316406 C 43.851562 39.355469 46.558594 39.335938 49.285156 39.335938 C 50.777344 39.355469 52.3125 38.734375 53.203125 37.53125 C 53.828125 36.671875 54.292969 35.609375 54.210938 34.527344 C 54.113281 33.667969 53.382812 33.007812 52.535156 32.867188 C 54.132812 32.34375 55.382812 30.84375 55.484375 29.179688 C 55.546875 28.441406 55.203125 27.660156 54.535156 27.296875 C 53.75 26.835938 52.800781 26.816406 51.910156 26.777344 C 49.507812 26.757812 47.101562 26.777344 44.679688 26.757812 Z M 44.679688 26.777344 "/>
    <path style=" stroke:none;fill-rule:nonzero;fill:rgb(89.019608%,10.588235%,11.764706%);fill-opacity:1;" d="M 47.871094 29.460938 C 48.738281 29.441406 49.605469 29.441406 50.476562 29.460938 C 50.820312 29.441406 51.164062 29.703125 51.203125 30.042969 C 51.242188 30.703125 50.800781 31.445312 50.09375 31.523438 C 49.164062 31.644531 48.214844 31.5625 47.285156 31.585938 C 47.488281 30.882812 47.707031 30.183594 47.871094 29.460938 Z M 47.871094 29.460938 "/>
    <path style=" stroke:none;fill-rule:nonzero;fill:rgb(89.019608%,10.588235%,11.764706%);fill-opacity:1;" d="M 46.539062 34.207031 C 47.464844 34.226562 48.375 34.167969 49.285156 34.226562 C 49.707031 34.269531 50.132812 34.527344 50.171875 34.96875 C 50.195312 35.832031 49.445312 36.652344 48.578125 36.652344 C 47.667969 36.691406 46.757812 36.652344 45.851562 36.671875 C 46.09375 35.851562 46.335938 35.03125 46.539062 34.207031 Z M 46.539062 34.207031 "/>
  </g>
</svg>