<?xml version="1.0" encoding="utf-8"?>
<!-- Generator: Adobe Illustrator 26.5.0, SVG Export Plug-In . SVG Version: 6.00 Build 0)  -->
<svg version="1.1" id="Capa_1" xmlns="http://www.w3.org/2000/svg" xmlns:xlink="http://www.w3.org/1999/xlink" x="0px" y="0px"
	 viewBox="0 0 140 140" style="enable-background:new 0 0 140 140;" xml:space="preserve">
<style type="text/css">
	.st0{fill:#6AB023;}
	.st1{enable-background:new    ;}
	.st2{fill:#FFFFFF;}
</style>
<g>
	<path class="st0" d="M140,70c0-38.7-31.3-70-70-70S0,31.3,0,70s31.3,70,70,70S140,108.7,140,70"/>
</g>
<g class="st1">
	<path class="st2" d="M42.4,98H28.9L11,40.9h12.4L35.7,81h0.2l12.4-40.2h12.4L42.4,98z"/>
</g>
<g class="st1">
	<path class="st2" d="M85.9,98H75V61.7H61.5v-8.6c7.6,0.2,14.6-2.6,15.7-11.1h8.7V98z"/>
</g>
<g class="st1">
	<path class="st2" d="M108.3,64.6c4.7,0.4,11.4-0.6,11.4-7c0-4.7-3.6-7.4-7.6-7.4c-5.5,0-8.4,4.2-8.3,10H93.5
		c0.4-11.4,7.5-19.4,18.6-19.4c8.6,0,18,5.5,18,15.5c0,5.3-2.5,10-7.5,11.4V68c5.9,1.4,9.5,6.5,9.5,12.7c0,11.8-9.4,18.4-20,18.4
		c-12.1,0-20.2-7.5-20-20.4h10.4c0.2,6.1,3.1,11,9.4,11c4.9,0,8.8-3.5,8.8-8.8c0-8.5-7.1-8.3-12.4-8.3V64.6z"/>
</g>
</svg>
