<?xml version="1.0" encoding="utf-8"?>
<!-- Generator: Adobe Illustrator 26.5.0, SVG Export Plug-In . SVG Version: 6.00 Build 0)  -->
<svg version="1.1" id="Capa_1" xmlns="http://www.w3.org/2000/svg" xmlns:xlink="http://www.w3.org/1999/xlink" x="0px" y="0px"
	 viewBox="0 0 140 140" style="enable-background:new 0 0 140 140;" xml:space="preserve">
<style type="text/css">
	.st0{fill:#6AB023;}
	.st1{enable-background:new    ;}
	.st2{fill:#FFFFFF;}
</style>
<g>
	<path class="st0" d="M140,70c0-38.7-31.3-70-70-70S0,31.3,0,70s31.3,70,70,70S140,108.7,140,70"/>
</g>
<g class="st1">
	<path class="st2" d="M42.4,98H28.9L11,40.9h12.4L35.7,81h0.2l12.4-40.2h12.4L42.4,98z"/>
</g>
<g class="st1">
	<path class="st2" d="M85.9,98H75V61.7H61.5v-8.6c7.6,0.2,14.6-2.6,15.7-11.1h8.7V98z"/>
</g>
<g class="st1">
	<path class="st2" d="M103.7,83.6c0.7,3.8,3.5,7,7.2,7c7.9,0,10-10.8,10.3-17l-0.2-0.2c-3,4.4-6.9,6.2-12.1,6.2
		c-4.6,0-9.3-2.2-12.4-5.8c-2.8-3.4-4.1-8.1-4.1-12.5c0-11.4,7.6-20.5,18.8-20.5c16.3,0,20.7,14.8,20.7,29
		c0,13.7-5.8,29.3-21.1,29.3c-9.3,0-16.2-5.7-17.4-15.5H103.7z M120.2,60.6c0-5.2-3.2-10.4-8.7-10.4c-5.2,0-8.2,5.2-8.2,10.2
		c0,5.3,2.6,10.6,8.2,10.6C117.4,71,120.2,66.2,120.2,60.6z"/>
</g>
</svg>
