<?xml version="1.0" encoding="utf-8"?>
<!-- Generator: Adobe Illustrator 26.5.0, SVG Export Plug-In . SVG Version: 6.00 Build 0)  -->
<svg version="1.1" id="Capa_1" xmlns="http://www.w3.org/2000/svg" xmlns:xlink="http://www.w3.org/1999/xlink" x="0px" y="0px"
	 viewBox="0 0 140 140" style="enable-background:new 0 0 140 140;" xml:space="preserve">
<style type="text/css">
	.st0{fill:#6AB023;}
	.st1{enable-background:new    ;}
	.st2{fill:#FFFFFF;}
</style>
<g>
	<path class="st0" d="M140,70c0-38.7-31.3-70-70-70S0,31.3,0,70s31.3,70,70,70S140,108.7,140,70"/>
</g>
<g class="st1">
	<path class="st2" d="M42.6,98H29L11.2,40.9h12.4L35.9,81H36l12.4-40.2h12.4L42.6,98z"/>
</g>
<g class="st1">
	<path class="st2" d="M59.4,63.5C59,50.7,66,40.9,78.9,40.9c9.8,0,18.4,6.6,18.4,17.5c0,8.4-4.3,13-9.6,17s-11.6,7.1-15.5,12.9h25.4
		V98H58.2c0.1-13,7.7-18.5,17-25c4.8-3.4,11.2-6.8,11.3-13.7c0-5.3-3.4-8.6-8.1-8.6c-6.5,0-8.5,7-8.5,12.9H59.4z"/>
</g>
<g class="st1">
	<path class="st2" d="M125.6,98h-10.9V61.7h-13.5v-8.6c7.6,0.2,14.6-2.6,15.7-11.1h8.7V98z"/>
</g>
</svg>
