<?xml version="1.0" encoding="utf-8"?>
<!-- Generator: Adobe Illustrator 26.5.0, SVG Export Plug-In . SVG Version: 6.00 Build 0)  -->
<svg version="1.1" id="Capa_1" xmlns="http://www.w3.org/2000/svg" xmlns:xlink="http://www.w3.org/1999/xlink" x="0px" y="0px"
	 viewBox="0 0 140 140" style="enable-background:new 0 0 140 140;" xml:space="preserve">
<style type="text/css">
	.st0{fill:#6AB023;}
	.st1{enable-background:new    ;}
	.st2{fill:#FFFFFF;}
</style>
<g>
	<path class="st0" d="M140,70c0-38.7-31.3-70-70-70S0,31.3,0,70s31.3,70,70,70S140,108.7,140,70"/>
</g>
<g class="st1">
	<path class="st2" d="M39.9,98H26.4L8.8,40.9h12.3L33.2,81h0.2l12.2-40.2h12.3L39.9,98z"/>
</g>
<g class="st1">
	<path class="st2" d="M56.5,63.5c-0.4-12.8,6.4-22.6,18.9-22.6c9.5,0,17.9,6.6,17.9,17.5c0,8.4-4.2,13-9.3,17s-11.2,7.1-15,12.9
		h24.6V98H55.4c0.1-13,7.4-18.5,16.4-25c4.6-3.4,10.9-6.8,10.9-13.7c0-5.3-3.3-8.6-7.8-8.6c-6.2,0-8.3,7-8.3,12.9H56.5z"/>
</g>
<g class="st1">
	<path class="st2" d="M110.6,64.6c4.5,0.4,11.1-0.6,11.1-7c0-4.7-3.5-7.4-7.4-7.4c-5.3,0-8.1,4.2-8,10h-10
		c0.4-11.4,7.3-19.4,18-19.4c8.3,0,17.5,5.5,17.5,15.5c0,5.3-2.5,10-7.3,11.4V68c5.7,1.4,9.2,6.5,9.2,12.7
		c0,11.8-9.2,18.4-19.3,18.4c-11.7,0-19.6-7.5-19.3-20.4h10c0.2,6.1,3.1,11,9.2,11c4.8,0,8.5-3.5,8.5-8.8c0-8.5-6.9-8.3-12.1-8.3
		V64.6z"/>
</g>
</svg>
