<?xml version="1.0" encoding="utf-8"?>
<!-- Generator: Adobe Illustrator 26.5.0, SVG Export Plug-In . SVG Version: 6.00 Build 0)  -->
<svg version="1.1" id="Capa_1" xmlns="http://www.w3.org/2000/svg" xmlns:xlink="http://www.w3.org/1999/xlink" x="0px" y="0px"
	 viewBox="0 0 140 140" style="enable-background:new 0 0 140 140;" xml:space="preserve">
<style type="text/css">
	.st0{fill:#6AB023;}
	.st1{enable-background:new    ;}
	.st2{fill:#FFFFFF;}
</style>
<g>
	<path class="st0" d="M140,70c0-38.7-31.3-70-70-70S0,31.3,0,70s31.3,70,70,70S140,108.7,140,70"/>
</g>
<g class="st1">
	<path class="st2" d="M43.1,98H29.7L12,40.9h12.3L36.4,81h0.2l12.2-40.2h12.3L43.1,98z"/>
</g>
<g class="st1">
	<path class="st2" d="M76.3,64.6c4.6,0.4,11.2-0.6,11.2-7c0-4.7-3.5-7.4-7.4-7.4c-5.3,0-8.2,4.2-8.1,10H61.8
		c0.4-11.4,7.4-19.4,18.2-19.4c8.4,0,17.7,5.5,17.7,15.5c0,5.3-2.5,10-7.4,11.4V68c5.8,1.4,9.3,6.5,9.3,12.7
		c0,11.8-9.2,18.4-19.6,18.4c-11.8,0-19.8-7.5-19.6-20.4h10.2c0.2,6.1,3.1,11,9.2,11c4.8,0,8.6-3.5,8.6-8.8c0-8.5-7-8.3-12.2-8.3
		V64.6z"/>
</g>
<g class="st1">
	<path class="st2" d="M126.1,98h-10.7V61.7h-13.2v-8.6c7.4,0.2,14.3-2.6,15.4-11.1h8.5V98z"/>
</g>
</svg>
