<svg width="64" height="64" viewBox="0 0 22 22" fill="none" xmlns="http://www.w3.org/2000/svg">
<circle r="11" cx="11" cy="11" fill="#FFFFFF"/>
<g transform="scale(0.8 0.8) translate(4.5 3)">
<path d="M4.9061 15.43C5.486 15.43 5.9561 14.9868 5.9561 14.44C5.9561 13.8932 5.486 13.45 4.9061 13.45C4.3262 13.45 3.8561 13.8932 3.8561 14.44C3.8561 14.9868 4.3262 15.43 4.9061 15.43Z" fill="#323232"/>
<path d="M13.1561 15.43C13.736 15.43 14.2061 14.9868 14.2061 14.44C14.2061 13.8932 13.736 13.45 13.1561 13.45C12.5762 13.45 12.1061 13.8932 12.1061 14.44C12.1061 14.9868 12.5762 15.43 13.1561 15.43Z" fill="#323232"/>
<path d="M18.0561 15.55L16.7461 4.52C16.4361 1.94 14.2561 0 11.6561 0H6.4061C3.8161 0 1.6261 1.94 1.3261 4.52L0.0160961 15.55C-0.0639039 16.26 0.156096 16.97 0.636096 17.51C1.1061 18.04 1.7961 18.35 2.5061 18.35H4.2761L3.0661 20.34C2.9261 20.57 2.9261 20.86 3.0561 21.1C3.1861 21.34 3.4361 21.48 3.7061 21.48H14.3561C14.6261 21.48 14.8761 21.33 15.0061 21.1C15.1361 20.87 15.1361 20.57 14.9961 20.34L13.7861 18.35H15.5561C16.2661 18.35 16.9561 18.04 17.4261 17.51C17.8961 16.98 18.1261 16.26 18.0361 15.55H18.0561ZM15.9461 10.5H2.1261L2.6261 6.3H15.4461L15.9461 10.5ZM6.4061 1.5H11.6561C13.4861 1.5 15.0361 2.87 15.2561 4.7V4.8H2.8061V4.7C3.0361 2.88 4.5861 1.5 6.4161 1.5H6.4061ZM12.3561 18.88L13.0261 19.99H5.0361L5.7061 18.88C5.8061 18.72 5.8261 18.53 5.7961 18.36H12.2661C12.2361 18.53 12.2561 18.72 12.3561 18.88ZM16.3161 16.52C16.1261 16.74 15.8561 16.86 15.5661 16.86H2.4961C2.2061 16.86 1.9361 16.74 1.7461 16.52C1.5561 16.3 1.4661 16.02 1.4961 15.74L1.9361 12.02H16.1161L16.5561 15.74C16.5861 16.03 16.5061 16.31 16.3061 16.52H16.3161Z" fill="#323232"/>
<path d="M7.8761 3.77H10.1961C10.6061 3.77 10.9461 3.43 10.9461 3.02C10.9461 2.61 10.6061 2.27 10.1961 2.27H7.8761C7.4661 2.27 7.1261 2.61 7.1261 3.02C7.1261 3.43 7.4661 3.77 7.8761 3.77Z" fill="#323232"/>
</g>
</svg>
