<svg width="65" height="65" viewBox="0 0 65 65" fill="none" xmlns="http://www.w3.org/2000/svg">
<circle cx="32.8965" cy="32.0703" r="32" fill="#018AFF"/>
<path d="M20.1236 21.9849C21.0749 21.9882 22.0589 22.0865 23.0434 22.1953C24.2733 22.3311 25.4955 22.52 26.7128 22.7397C28.9913 23.1506 31.2478 23.6569 33.4645 24.3295C34.2411 24.5653 35.0117 24.8226 35.7829 25.0766C36.1858 25.2091 36.5711 25.3853 36.9526 25.5714C38.8475 26.4968 40.7209 28.4317 41.2593 31.2799C41.9326 34.8437 40.1559 38.2579 37.1908 39.8659C36.7093 40.1271 36.2052 40.3408 35.6867 40.5197C34.1665 41.0431 32.6253 41.4948 31.0665 41.8885C29.8332 42.2 28.5911 42.4727 27.3413 42.7085C25.7957 43.0006 24.2413 43.2353 22.6763 43.3982C21.7266 43.4971 20.777 43.586 19.8217 43.5909C18.5741 43.597 17.3591 43.4043 16.1789 42.9946C14.7223 42.4893 13.4299 41.7091 12.3072 40.6583C10.5902 39.0508 9.52888 37.0779 9.06676 34.7808C8.93409 34.1215 8.8954 33.4522 8.89651 32.7813C8.90038 30.2777 9.66598 28.0297 11.2304 26.0717C12.9164 23.9617 15.1098 22.6663 17.761 22.1434C18.5271 21.9921 19.3038 21.9634 20.1236 21.9849ZM20.2352 38.6466C20.2352 38.65 20.2352 38.6538 20.2352 38.6571C20.6587 38.6334 21.0832 38.6212 21.5055 38.582C22.0329 38.5334 22.5586 38.4622 23.0848 38.4026C24.2794 38.2673 25.4629 38.0575 26.6431 37.8333C27.4237 37.6847 28.1986 37.5047 28.9742 37.3302C30.6989 36.9415 32.3948 36.4533 34.0637 35.8702C34.2798 35.7946 34.4949 35.7107 34.701 35.6113C35.7895 35.0861 36.7557 33.8062 36.3765 32.0673C36.1703 31.1231 35.6071 30.413 34.7359 29.9707C34.4694 29.8354 34.1853 29.7316 33.9023 29.6327C32.8017 29.2484 31.6845 28.9149 30.5568 28.6206C29.6342 28.3798 28.7067 28.1562 27.7741 27.9574C26.8587 27.7625 25.9361 27.6007 25.014 27.4383C24.4403 27.3373 23.8621 27.2572 23.2844 27.1777C22.5669 27.0788 21.846 27.006 21.123 26.9518C20.6465 26.9165 20.1711 26.8778 19.6935 26.8861C18.458 26.9071 17.3221 27.2522 16.3176 27.975C14.8085 29.0606 13.9805 30.5444 13.8301 32.3881C13.7361 33.5411 14.0026 34.6295 14.5642 35.6427C15.5642 37.4467 17.4851 38.5699 19.3336 38.645C19.6332 38.6571 19.9345 38.6466 20.2352 38.6466Z" fill="white"/>
<path d="M49.7727 32.6672C49.7827 33.5855 49.7053 34.4977 49.6019 35.4093C49.3709 37.4375 48.8396 39.3867 48.0375 41.2598C47.1498 43.3327 45.9641 45.2234 44.4826 46.9291C43.7872 47.7298 43.0199 48.4598 42.2736 49.2107C42.2239 49.2604 42.1719 49.3096 42.115 49.3504C41.8359 49.5525 41.4987 49.5437 41.2322 49.3278C41.1775 49.2836 41.1272 49.2339 41.0769 49.1837C40.3267 48.436 39.5772 47.6878 38.8276 46.9396C38.7778 46.8899 38.7281 46.8391 38.6811 46.7866C38.5435 46.6331 38.497 46.4503 38.5092 46.2482C38.518 46.103 38.5623 45.9705 38.6568 45.8595C38.7369 45.7656 38.8243 45.6784 38.9116 45.5911C39.261 45.2416 39.612 44.8937 39.9608 44.5436C41.3826 43.1162 42.5141 41.4884 43.3477 39.6557C44.0453 38.1206 44.5025 36.5176 44.7098 34.8433C44.8596 33.6307 44.8756 32.4137 44.7623 31.2017C44.597 29.4363 44.1559 27.7361 43.4378 26.1088C42.581 24.1662 41.4003 22.4478 39.8934 20.9508C39.5678 20.6273 39.2433 20.3031 38.9188 19.9784C38.8436 19.9033 38.7673 19.8299 38.696 19.752C38.439 19.4715 38.4445 19.0049 38.701 18.7388C38.7745 18.6626 38.8486 18.5869 38.9232 18.5118C39.5982 17.8387 40.2726 17.1656 40.9481 16.493C41.0233 16.4185 41.0984 16.3439 41.1764 16.2721C41.4671 16.0049 41.9072 16.0027 42.1858 16.2677C42.1985 16.2799 42.2123 16.2909 42.2245 16.3036C43.0448 17.1302 43.895 17.9282 44.6457 18.821C46.8518 21.4445 48.3764 24.4092 49.1719 27.745C49.5583 29.3634 49.7611 31.0029 49.7727 32.6661V32.6672Z" fill="white"/>
<path d="M56.8965 32.6933C56.8766 33.8186 56.5272 34.7342 55.8258 35.5138C55.7666 35.5796 55.7058 35.6431 55.6433 35.7049C54.9822 36.3648 54.3211 37.0246 53.6583 37.6834C53.5837 37.7574 53.5068 37.8319 53.4217 37.8932C53.2979 37.9816 53.163 37.9937 53.0231 37.9197C52.8673 37.8375 52.7948 37.706 52.7943 37.5343C52.7943 37.4824 52.8109 37.4305 52.8192 37.3786C52.875 37.0136 52.9308 36.648 52.9861 36.283C53.1768 35.0268 53.2525 33.7623 53.2354 32.4939C53.2249 31.7203 53.1868 30.9467 53.1027 30.1753C53.027 29.4751 52.9253 28.7794 52.8042 28.0858C52.7887 27.9975 52.791 27.9135 52.823 27.8274C52.9131 27.5866 53.2011 27.4911 53.4399 27.6407C53.5129 27.6866 53.572 27.7567 53.634 27.8185C54.3084 28.49 54.9822 29.1626 55.6566 29.834C56.2873 30.4624 56.6881 31.2112 56.8335 32.0897C56.8705 32.3145 56.8816 32.5442 56.8965 32.6933Z" fill="#07E501"/>
</svg>
