<svg width="64" height="64" viewBox="0 0 33 33" fill="none" xmlns="http://www.w3.org/2000/svg">
<circle cx="16.552" cy="16.665" r="16" fill="#FF3B0F"/>
<g>
<path fill-rule="evenodd" clip-rule="evenodd" d="M23.9849 14.8698C21.3698 14.8698 19.4378 16.8823 19.4378 19.6064C19.4378 22.1909 21.5038 24.3429 23.9849 24.3429C26.466 24.3429 28.532 22.1909 28.532 19.6064C28.532 17.0219 26.466 14.8698 23.9849 14.8698ZM23.9179 16.1085C25.7518 16.1085 27.2759 17.6125 27.2759 19.4668C27.2759 21.3012 25.6369 22.9647 23.9179 22.9647C22.2251 22.9647 20.6939 21.3266 20.6939 19.4668C20.6939 17.5345 22.0248 16.1085 23.9179 16.1085Z" fill="white"/>
<path fill-rule="evenodd" clip-rule="evenodd" d="M9.07913 14.8698C6.46404 14.8698 4.53198 16.8823 4.53198 19.6064C4.53198 22.1909 6.59807 24.3429 9.07913 24.3429C11.5602 24.3429 13.6263 22.1909 13.6263 19.6064C13.6263 17.0219 11.5602 14.8698 9.07913 14.8698ZM9.01211 16.1085C10.846 16.1085 12.3702 17.6125 12.3702 19.4668C12.3702 21.3012 10.7311 22.9647 9.01211 22.9647C7.31931 22.9647 5.78809 21.3266 5.78809 19.4668C5.78809 17.5345 7.1191 16.1085 9.01211 16.1085Z" fill="white"/>
<path fill-rule="evenodd" clip-rule="evenodd" d="M12.0185 8.7002C11.8004 8.7002 11.5913 8.88476 11.5558 9.06492L11.5508 9.13191L10.8351 11.506C10.6261 11.2737 10.3081 11.1126 9.93855 11.1126C9.27616 11.1126 9.27616 13.0099 9.93855 13.0099C10.1047 13.0099 10.2605 12.9882 10.4006 12.9475L8.57278 19.0075C8.38642 19.1608 8.26692 19.3984 8.26692 19.6649C8.26692 20.1274 8.62678 20.5023 9.07082 20.5023C9.51472 20.5023 9.87472 20.1274 9.87472 19.6649C9.87472 19.4737 9.81324 19.2976 9.70967 19.1567L11.3076 13.7865L16.1169 18.9598C15.9222 19.1828 15.8035 19.4793 15.8035 19.8045C15.8035 20.4982 16.3434 21.0606 17.0093 21.0606C17.0544 21.0606 17.099 21.058 17.1428 21.053L17.1433 21.0606L24.1226 20.5014C24.5308 20.4482 24.8466 20.0854 24.8466 19.6457C24.8466 19.5277 24.8239 19.4153 24.7827 19.313L24.7878 19.2446L24.7553 19.1567L24.7321 19.1171L19.5331 12.9994L19.9568 11.6701L20.091 11.7096C20.5857 11.8384 21.1946 11.7294 21.2853 11.7119L21.2969 11.7096C22.0686 11.5756 22.3464 10.5413 21.4191 10.4587L21.2969 10.4535L17.7783 10.4537C17.3534 10.4552 17.1285 10.469 17.0093 10.5931C16.8754 11.0118 17.4113 11.1513 17.8133 11.1513C18.2109 11.1513 18.5844 11.2266 18.9237 11.3239L16.8435 17.8499L11.7323 12.3566L12.4413 9.97375H13.7602C13.977 9.97375 14.1926 9.83112 14.3011 9.61905L14.3407 9.52413L14.3636 9.43364L14.3715 9.33697C14.3715 8.97735 14.187 8.74925 13.8705 8.70723L13.7602 8.7002H12.0185ZM19.0766 14.4314L22.8795 18.845L17.7557 18.5779L19.0766 14.4314Z" fill="white"/>
</g>
</svg>
