<svg width="41" height="40" viewBox="0 0 41 40" fill="none" xmlns="http://www.w3.org/2000/svg">
<g clip-path="url(#clip0_3855_6320)">
<path d="M40.4211 30.3323C40.4211 31.4347 40.4211 32.5369 40.4211 33.6393C40.4211 33.6965 40.4211 33.754 40.4195 33.8113C40.4185 33.8526 40.3902 33.8778 40.3448 33.8796C40.3192 33.8806 40.2937 33.8808 40.2681 33.8808C39.7761 33.8808 39.2844 33.8808 38.7924 33.8808C38.7605 33.8808 38.7287 33.88 38.6967 33.8784C38.6647 33.8768 38.638 33.8494 38.6374 33.8155C38.6358 33.7135 38.6364 33.6117 38.6346 33.5097C38.634 33.4782 38.6308 33.4462 38.6246 33.4155C38.623 33.4079 38.601 33.3959 38.5952 33.3989C38.573 33.4105 38.553 33.4267 38.5335 33.4424C38.4641 33.4987 38.398 33.5592 38.3261 33.6119C38.0315 33.8281 37.698 33.9488 37.3386 34.0007C36.9821 34.0522 36.625 34.048 36.2689 33.9975C35.958 33.9534 35.6557 33.8734 35.3668 33.7496C34.2278 33.2616 33.5101 32.4093 33.1904 31.2217C33.0647 30.7546 33.0547 30.2776 33.124 29.7993C33.2381 29.0109 33.5818 28.3323 34.1287 27.7578C34.6256 27.2357 35.2343 26.9011 35.9366 26.7374C36.2871 26.6558 36.6426 26.6281 37.0023 26.6494C37.3927 26.6728 37.753 26.7911 38.0889 26.9873C38.2381 27.0746 38.3768 27.1764 38.5079 27.2889C38.5319 27.3095 38.5586 27.3267 38.5846 27.345C38.5956 27.3528 38.6274 27.3356 38.628 27.3213C38.6306 27.2514 38.6336 27.1818 38.6352 27.1119C38.6374 27.0165 38.6382 26.9209 38.6404 26.8255C38.641 26.8023 38.6669 26.778 38.6905 26.7764C38.7159 26.7746 38.7415 26.7728 38.7669 26.7728C39.2716 26.7726 39.7761 26.7726 40.2809 26.7728C40.3126 26.7728 40.3452 26.7732 40.3758 26.7804C40.391 26.784 40.4121 26.8021 40.4137 26.8157C40.4201 26.866 40.4211 26.9171 40.4211 26.968C40.4215 27.4458 40.4213 27.9237 40.4213 28.4015C40.4213 29.045 40.4211 29.6887 40.4211 30.3323ZM38.6364 30.3359C38.637 30.1241 38.6098 29.9171 38.5445 29.7147C38.2985 28.952 37.5392 28.2887 36.4829 28.4317C36.1197 28.4808 35.7972 28.6327 35.5232 28.8762C34.9963 29.3444 34.7919 29.9345 34.872 30.6285C34.9721 31.182 35.2445 31.6261 35.7151 31.9426C36.1267 32.2197 36.5835 32.3075 37.0686 32.2349C37.4313 32.1806 37.7494 32.0199 38.0163 31.7674C38.4272 31.3792 38.6316 30.8999 38.6364 30.3359Z" fill="#018AFF"/>
<path d="M13.5418 30.3441C13.5496 32.329 11.9293 34.0471 9.81043 34.038C7.73753 34.029 6.11422 32.33 6.12101 30.3198C6.12761 28.3681 7.71035 26.6266 9.8446 26.6352C11.9812 26.6437 13.5578 28.3865 13.5418 30.3441ZM9.83221 28.413C8.84072 28.3952 7.90598 29.2156 7.90118 30.3312C7.89678 31.3523 8.72003 32.2509 9.82322 32.2607C10.8541 32.2699 11.7638 31.4426 11.7632 30.3306C11.7626 29.2192 10.8393 28.399 9.83221 28.413Z" fill="#018AFF"/>
<path d="M21.6424 30.3387C21.6591 32.3341 20.0218 34.0389 17.938 34.0383C15.8297 34.0377 14.2168 32.3192 14.2236 30.3252C14.2302 28.3599 15.8113 26.6329 17.9424 26.6351C20.0856 26.6373 21.6659 28.3968 21.6424 30.3387ZM17.9332 32.2603C19.0034 32.2685 19.8654 31.3846 19.867 30.3431C19.8686 29.2335 18.9392 28.413 17.9468 28.4092C16.9521 28.4054 15.9997 29.1998 16.0045 30.3387C16.0093 31.4798 16.9445 32.2703 17.9332 32.2603Z" fill="#018AFF"/>
<path d="M4.09965 26.6314C4.82159 26.6358 5.4656 26.8163 6.06046 27.1715C6.07684 27.1813 6.09263 27.1923 6.10841 27.2031C6.13019 27.2179 6.13778 27.2506 6.1232 27.2698C6.10022 27.3003 6.07664 27.3304 6.05286 27.3604C5.75833 27.7334 5.52315 28.1406 5.34951 28.5829C5.33092 28.6304 5.31194 28.6777 5.29276 28.725C5.27837 28.76 5.25499 28.7656 5.21643 28.7424C5.18905 28.726 5.16268 28.7079 5.1353 28.6915C4.82719 28.5063 4.49489 28.4161 4.13342 28.4115C3.37192 28.4019 2.56526 28.8969 2.28911 29.769C2.22877 29.9598 2.20739 30.1552 2.20699 30.3536C2.20559 31.2386 2.83721 32.046 3.76676 32.2272C4.23373 32.3183 4.68292 32.2448 5.09914 32.0047C5.14889 31.9759 5.19765 31.9458 5.2482 31.9187C5.25559 31.9147 5.27558 31.9205 5.28017 31.9276C5.29356 31.949 5.30315 31.973 5.31214 31.9967C5.49657 32.4905 5.75354 32.9432 6.08543 33.3536C6.08943 33.3586 6.09343 33.3636 6.09722 33.3686C6.14538 33.4308 6.14318 33.4514 6.08204 33.4887C5.94576 33.5722 5.80569 33.6482 5.65942 33.7133C5.16807 33.932 4.65395 34.0444 4.11544 34.0394C3.31757 34.0322 2.59283 33.7973 1.94942 33.327C1.20291 32.7815 0.725747 32.0534 0.51554 31.1558C0.419028 30.7434 0.39585 30.3242 0.45 29.9019C0.57009 28.9648 0.982312 28.1807 1.69006 27.5542C2.16802 27.1308 2.72392 26.8544 3.34814 26.7183C3.60451 26.6624 3.86507 26.6328 4.09965 26.6314Z" fill="#018AFF"/>
<path d="M25.3787 28.3889C25.3787 27.3568 25.3787 26.3248 25.3787 25.2927C25.3787 25.2418 25.3783 25.1907 25.3787 25.1398C25.3803 25.0045 25.3825 25.0007 25.5184 25.0005C26.0166 24.9997 26.5149 25.0001 27.013 25.0005C27.0448 25.0005 27.0766 25.0039 27.1084 25.0064C27.1303 25.0082 27.1529 25.0338 27.1535 25.0589C27.1551 25.1162 27.1569 25.1735 27.1569 25.2308C27.1571 25.6703 27.1569 26.11 27.1573 26.5496C27.1573 26.6069 27.1597 26.6641 27.1617 26.7212C27.1625 26.7446 27.1873 26.7685 27.2115 26.7695C27.2624 26.7715 27.3134 26.7737 27.3645 26.7737C27.703 26.7741 28.0415 26.7737 28.3802 26.7741C28.4311 26.7741 28.4825 26.7745 28.533 26.7803C28.5474 26.7819 28.5644 26.8005 28.5716 26.8154C28.5794 26.8316 28.5792 26.8526 28.5792 26.8715C28.5796 27.4003 28.5796 27.929 28.5792 28.458C28.5792 28.4767 28.5748 28.4955 28.5724 28.5142C28.5694 28.5366 28.5506 28.5498 28.5342 28.5516C28.4837 28.557 28.4323 28.5578 28.3814 28.5578C28.0429 28.5581 27.7044 28.5578 27.3657 28.5582C27.3148 28.5582 27.2638 28.5605 27.2129 28.5629C27.1893 28.5641 27.1627 28.5893 27.1615 28.611C27.1595 28.6492 27.1575 28.6873 27.1573 28.7254C27.1571 29.5855 27.1577 30.4456 27.1565 31.3057C27.1565 31.4023 27.1663 31.4963 27.1967 31.5879C27.2436 31.7304 27.3234 31.8514 27.4381 31.9488C27.5485 32.0426 27.6734 32.1001 27.8219 32.0971C27.8731 32.0961 27.924 32.0975 27.9752 32.0975C28.1412 32.0975 28.3073 32.0971 28.4733 32.0981C28.5612 32.0987 28.579 32.114 28.5792 32.1935C28.5798 32.7222 28.5796 33.251 28.5792 33.7799C28.5792 33.7987 28.5746 33.8174 28.5722 33.8364C28.5694 33.859 28.551 33.8707 28.5342 33.8739C28.5033 33.8799 28.4707 33.8799 28.4389 33.8799C28.2217 33.8803 28.0045 33.8843 27.7875 33.8793C27.1795 33.8651 26.6364 33.6737 26.1682 33.2807C25.8145 32.9839 25.5847 32.6103 25.4691 32.1655C25.4225 31.9863 25.3949 31.8037 25.3863 31.6186C25.3811 31.5041 25.3791 31.3895 25.3789 31.2747C25.3783 30.3126 25.3787 29.351 25.3787 28.3889Z" fill="#018AFF"/>
<path d="M22.4454 29.4327C22.4454 28.0373 22.4454 26.6419 22.4454 25.2465C22.4454 25.1828 22.4476 25.1192 22.4496 25.0555C22.4502 25.0351 22.4792 25.0068 22.4998 25.005C22.5252 25.0028 22.5505 25.0002 22.5759 25.0002C23.1124 25 23.6491 24.9998 24.1856 25.0004C24.2172 25.0004 24.2492 25.0044 24.2803 25.0102C24.2905 25.0122 24.3007 25.0248 24.3065 25.0349C24.3123 25.0453 24.3149 25.0589 24.3151 25.0711C24.3165 25.1347 24.3171 25.1984 24.3171 25.2621C24.3171 28.0529 24.3171 30.8435 24.3171 33.6343C24.3171 33.698 24.3151 33.7615 24.3131 33.8252C24.3123 33.8501 24.2885 33.8739 24.2646 33.8755C24.2328 33.8777 24.2008 33.8799 24.169 33.8799C23.6451 33.8801 23.1214 33.8801 22.5975 33.8799C22.5657 33.8799 22.5337 33.8779 22.502 33.8759C22.4776 33.8745 22.4512 33.8507 22.4504 33.8284C22.448 33.7649 22.4452 33.7012 22.4452 33.6377C22.445 32.2359 22.445 30.8341 22.445 29.4325L22.4454 29.4327Z" fill="#018AFF"/>
<path d="M29.6538 31.4119C29.6538 30.7175 29.6542 30.0233 29.6536 29.3288C29.6534 29.0861 29.6738 28.8458 29.7206 28.6073C29.8281 28.0578 30.1064 27.6155 30.554 27.2789C30.8543 27.053 31.19 26.9015 31.5579 26.8262C31.7075 26.7955 31.8598 26.7736 32.0141 26.7742C32.2568 26.7749 32.4994 26.7742 32.7422 26.7744C32.7676 26.7744 32.7929 26.7775 32.8183 26.7797C32.8399 26.7817 32.8511 26.7979 32.8587 26.8149C32.8639 26.826 32.8647 26.8398 32.8647 26.8524C32.8651 27.3939 32.8651 27.9352 32.8647 28.4767C32.8647 28.4893 32.8613 28.5019 32.8589 28.5143C32.8547 28.5356 32.8377 28.5474 32.8199 28.5506C32.7888 28.5562 32.7566 28.5576 32.7248 28.5578C32.5524 28.5584 32.3799 28.558 32.2075 28.5582C32.1627 28.5582 32.1182 28.5588 32.0734 28.5592C31.9323 28.5606 31.8118 28.6151 31.7097 28.7081C31.5471 28.8562 31.4532 29.039 31.4446 29.2612C31.4422 29.3249 31.4432 29.3885 31.4432 29.4522C31.4432 30.8472 31.4432 32.2424 31.443 33.6374C31.443 33.7009 31.4402 33.7646 31.438 33.8281C31.4372 33.8506 31.4112 33.8744 31.3868 33.8758C31.3551 33.8778 31.3233 33.8799 31.2913 33.8799C30.7932 33.8801 30.295 33.8801 29.7969 33.8799C29.7651 33.8799 29.7326 33.8795 29.702 33.8726C29.6866 33.869 29.666 33.8518 29.6632 33.8376C29.6556 33.8007 29.6544 33.762 29.6544 33.7241C29.6538 33.4247 29.654 33.1253 29.654 32.8259C29.654 32.3544 29.6538 31.8833 29.6538 31.4119Z" fill="#018AFF"/>
<path d="M4.42155 19.8333C5.75488 18.6667 7.08822 18.1667 8.42155 18.1667C8.75488 18.1667 9.08822 18.1667 9.42155 18.3333L7.92155 21.6667H10.5882L11.5882 19.3333C11.7549 19.5 12.0882 19.5 12.0882 19.6667C12.5882 20.3333 13.0882 21 13.4215 21.6667H16.0882C15.7549 20.5 15.0882 19.1667 14.0882 18C13.7549 17.6667 13.2549 17.3333 12.9215 17L14.2549 14L18.2549 21.6667H26.5882C26.9215 21 27.2549 20.3333 27.7549 19.8333C27.9215 19.8333 27.9215 19.6667 28.0882 19.6667L29.2549 21.6667H32.0882L30.2549 18.3333C30.7549 18.1667 31.2549 18.1667 31.5882 18.1667C32.9215 18.1667 34.4215 18.8333 35.4215 19.6667C35.9215 20.3333 36.4215 21 36.7549 21.6667H39.4215C39.0882 20.5 38.4215 19.1667 37.4215 18C35.9215 16.5 33.9215 15.6667 31.7549 15.6667C30.9215 15.6667 30.0882 15.8333 29.0882 16.1667L26.0882 10.6667L28.2549 7.5H30.9215C31.5882 7.5 32.2549 7 32.2549 6.16667C32.2549 5.33333 31.5882 5 30.7549 5H27.4215H23.2549C22.5882 5 22.0882 5.5 22.0882 6.33333C22.0882 7.16667 22.5882 7.66667 23.4215 7.66667H25.2549L23.5882 10.1667H14.9215C13.9215 7.83333 11.7549 5 8.42155 5C7.75488 5 7.08822 5.5 7.08822 6.33333C7.08822 7.16667 7.58822 7.66667 8.42155 7.66667C10.5882 7.66667 12.0882 10 12.7549 11.3333L10.4215 16C9.75488 15.8333 9.08822 15.6667 8.42155 15.6667C6.42155 15.6667 4.58822 16.5 2.75488 18C1.75488 19 1.08822 20.3333 0.754883 21.6667H3.42155C3.58822 21 3.92155 20.3333 4.42155 19.8333ZM23.9216 12.5C24.0882 12.5 24.0882 12.5 24.0882 12.5L26.7549 17.5C26.4215 17.6667 26.2549 17.8333 25.9215 18.1667C25.0882 19 24.5882 20 24.0882 21H20.4215L16.0882 12.6667H23.9216V12.5Z" fill="#323232"/>
</g>
<defs>
<clipPath id="clip0_3855_6320">
<rect width="40" height="40" fill="white" transform="translate(0.421387)"/>
</clipPath>
</defs>
</svg>
