<svg width="40" height="40" viewBox="0 0 40 40" fill="none" xmlns="http://www.w3.org/2000/svg">
<path d="M2.14252 30.1249L2.15184 27.4746C2.19841 27.47 2.28225 27.4653 2.41732 27.4653C2.78528 27.4653 3.07405 27.5771 3.27433 27.8053C3.47461 28.0289 3.57708 28.3503 3.57242 28.7695C3.57242 29.184 3.47461 29.5194 3.28365 29.7662C3.09268 30.0131 2.79459 30.1388 2.39403 30.1342C2.27294 30.1342 2.1891 30.1342 2.14718 30.1249M0.0232838 26.082L0.00465257 31.578C1.15975 31.7085 2.11457 31.7271 2.86911 31.6433C3.18584 31.606 3.52584 31.5268 3.88448 31.4057C4.24312 31.2846 4.55053 31.1216 4.8067 30.926C5.06288 30.7257 5.28178 30.4509 5.44946 30.1016C5.62179 29.7522 5.70563 29.3377 5.71029 28.8719C5.71495 27.9497 5.39357 27.2371 4.74616 26.7248C4.09874 26.2124 3.23707 25.9562 2.16115 25.9516C1.36003 25.9516 0.647411 25.9935 0.0232838 26.0867M9.16628 29.8174C9.00326 29.5939 8.91942 29.2725 8.91942 28.8533C8.91942 28.4295 9.00326 28.1081 9.17094 27.8845C9.33861 27.6609 9.58081 27.5492 9.9115 27.5492C10.2329 27.5492 10.4751 27.6656 10.6381 27.8892C10.8011 28.1127 10.8803 28.4388 10.8803 28.858C10.8803 29.2818 10.7965 29.6032 10.6334 29.8221C10.4704 30.0457 10.2282 30.1575 9.90219 30.1575C9.57615 30.1575 9.3293 30.041 9.16628 29.8174ZM7.64788 26.7341C7.07498 27.2464 6.79087 27.9497 6.78621 28.844C6.78621 29.7429 7.06567 30.4462 7.6339 30.9539C8.2068 31.4663 8.95668 31.7271 9.89287 31.7271C10.8291 31.7317 11.5836 31.4802 12.1565 30.9725C12.7294 30.4649 13.0135 29.7616 13.0182 28.8626C13.0182 27.9637 12.7387 27.2604 12.1705 26.7434C11.6022 26.231 10.8477 25.9702 9.9115 25.9702C8.97531 25.9702 8.22077 26.2171 7.64788 26.7248M18.1416 28.9278L16.5207 26.096H14.3829L14.3642 31.6246H16.3344L16.3437 28.7881L18.0671 31.6386H20.1025L20.1211 26.1099H18.1556L18.1463 28.9278H18.1416ZM23.8007 29.4076L24.9837 31.6619L27.429 31.6712L25.5939 28.6158L27.2986 26.1332L25.0023 26.1239L23.81 28.0848V26.1193L21.6814 26.1099L21.6628 31.6479L23.8007 31.6572V29.4029V29.4076ZM33.0228 26.1519L28.449 26.1379L28.4304 31.6759L33.0042 31.6898V30.1342L30.517 30.1249V29.6265L32.7014 29.6311V28.1966L30.5263 28.1919V27.6982L33.0182 27.7075V26.1519H33.0228ZM37.9739 29.729L39.986 26.1752H37.8342L36.898 28.164L36.0037 26.1658H33.8379L35.8361 29.7243V31.6991L37.9646 31.7038V29.729H37.9739Z" fill="#FF6400"/>
<path d="M1.1225 34.8199V34.2377C1.16907 34.2331 1.21565 34.2284 1.25757 34.2284C1.38333 34.2284 1.49977 34.2517 1.60223 34.2936C1.7047 34.3402 1.75594 34.41 1.75594 34.5032C1.75594 34.5963 1.72333 34.6662 1.65813 34.7128C1.55566 34.7873 1.42059 34.8246 1.25291 34.8199C1.1877 34.8199 1.14578 34.8199 1.12715 34.8153M1.32743 35.5232C1.39264 35.5232 1.43922 35.5465 1.47182 35.5791C1.50442 35.6117 1.53237 35.649 1.56963 35.6909C1.64415 35.7887 1.71868 36.0402 1.79786 36.4548H2.9483C2.84583 35.6956 2.6409 35.2857 2.33349 35.2251C2.70145 35.0621 2.88775 34.8013 2.88775 34.4473C2.88775 33.7533 2.31951 33.404 1.17839 33.404C0.749882 33.404 0.35864 33.4319 0.00931564 33.4925L0 36.4548H1.12715V35.5232C1.19236 35.5232 1.25757 35.5232 1.32278 35.5279M8.20214 33.4878L5.72893 33.4785L5.71961 36.4734L8.19283 36.4827V35.6397H6.84676V35.3695H8.02515V34.5963H6.85142V34.3309H8.19749V33.4878H8.20214ZM12.6595 34.8246C12.5804 34.8758 12.5058 34.9084 12.4313 34.9177C12.3568 34.927 12.2776 34.927 12.1984 34.9177V34.2843C12.3801 34.261 12.5338 34.2936 12.6595 34.3821C12.7341 34.4333 12.7713 34.5079 12.7713 34.601C12.7713 34.6988 12.7341 34.7687 12.6595 34.8199M11.0852 33.5065L11.0759 36.4874H12.2031V35.7188C12.408 35.7328 12.6083 35.7235 12.7993 35.6909C13.2464 35.6164 13.5631 35.4347 13.7401 35.1553C13.8426 34.9969 13.8985 34.8106 13.8985 34.5963C13.8985 34.3821 13.8472 34.1958 13.7401 34.0374C13.633 33.8791 13.4932 33.758 13.3163 33.6741C13.1393 33.5903 12.953 33.5297 12.762 33.4925C12.571 33.4552 12.3149 33.4366 12.0028 33.4319C11.6907 33.4319 11.3833 33.4552 11.0806 33.5018M18.3698 35.309C18.3698 35.4301 18.3512 35.5232 18.3093 35.5838C18.2674 35.649 18.1928 35.6769 18.081 35.6769C17.9693 35.6769 17.8901 35.6443 17.8482 35.5791C17.8062 35.5139 17.7876 35.4254 17.7876 35.3043V33.5065H16.6372V35.3183C16.6372 35.7328 16.7583 36.0449 17.0051 36.2498C17.252 36.4548 17.606 36.5572 18.0717 36.5619C18.5375 36.5619 18.8915 36.4594 19.143 36.2591C19.3945 36.0542 19.5203 35.7421 19.5203 35.3276V33.5158H18.3698V35.3136V35.309ZM23.5305 35.8167V35.2857C23.5911 35.281 23.6516 35.2764 23.7168 35.2764C24.0242 35.2764 24.1733 35.3695 24.1733 35.5512C24.1733 35.649 24.1267 35.7188 24.0382 35.7608C23.9497 35.8027 23.8472 35.8213 23.7308 35.8213C23.6144 35.8213 23.5491 35.8213 23.5305 35.8167ZM23.5305 34.6942V34.2004C23.5911 34.1958 23.6516 34.1911 23.7122 34.1911C23.959 34.1911 24.0848 34.2703 24.0848 34.4333C24.0848 34.6103 23.9544 34.6942 23.6935 34.6942C23.6097 34.6942 23.5585 34.6942 23.5305 34.6895M22.4453 33.5391L22.436 36.5106C22.7667 36.5526 23.1532 36.5759 23.5957 36.5759C24.0429 36.5759 24.4155 36.52 24.7229 36.4128C25.0815 36.2824 25.2585 36.0402 25.2632 35.6769C25.2632 35.4906 25.2073 35.3369 25.0862 35.2205C24.9697 35.0994 24.8486 35.0295 24.7275 35.0016C25.007 34.8665 25.1467 34.6569 25.1514 34.3635C25.1514 33.7673 24.5738 33.4692 23.4094 33.4645C23.1532 33.4645 22.8319 33.4878 22.4499 33.5344M28.0624 33.5344L28.0531 36.5293H30.3447V35.6956H29.2082L29.2129 33.5391H28.0578L28.0624 33.5344ZM33.0834 36.5386H34.2385L34.2478 33.5484H33.0927L33.0834 36.5386ZM38.4164 35.5558C38.286 35.4394 38.2161 35.2717 38.2208 35.0575C38.2208 34.8432 38.286 34.6802 38.4211 34.5591C38.5561 34.4426 38.7331 34.3821 38.9614 34.3821C39.1896 34.3821 39.3899 34.4194 39.5622 34.4985L39.7858 33.6928C39.4132 33.567 39.0545 33.5065 38.7005 33.5018C38.2068 33.5018 37.8109 33.6369 37.5128 33.9163C37.2147 34.1958 37.0657 34.5731 37.0657 35.0481C37.0657 35.5232 37.2101 35.9052 37.5082 36.1893C37.8016 36.4687 38.1975 36.6131 38.6912 36.6131C39.0452 36.6131 39.4038 36.5526 39.7764 36.4315L39.5575 35.6257C39.3805 35.7002 39.1803 35.7328 38.952 35.7328C38.7285 35.7328 38.5468 35.6723 38.4164 35.5512" fill="#FF6400"/>
<path d="M4.00016 19.8333C5.3335 18.6667 6.66683 18.1667 8.00016 18.1667C8.3335 18.1667 8.66683 18.1667 9.00016 18.3333L7.50016 21.6667H10.1668L11.1668 19.3333C11.3335 19.5 11.6668 19.5 11.6668 19.6667C12.1668 20.3333 12.6668 21 13.0002 21.6667H15.6668C15.3335 20.5 14.6668 19.1667 13.6668 18C13.3335 17.6667 12.8335 17.3333 12.5002 17L13.8335 14L17.8335 21.6667H26.1668C26.5002 21 26.8335 20.3333 27.3335 19.8333C27.5002 19.8333 27.5002 19.6667 27.6668 19.6667L28.8335 21.6667H31.6668L29.8335 18.3333C30.3335 18.1667 30.8335 18.1667 31.1668 18.1667C32.5002 18.1667 34.0002 18.8333 35.0002 19.6667C35.5002 20.3333 36.0002 21 36.3335 21.6667H39.0002C38.6668 20.5 38.0002 19.1667 37.0002 18C35.5002 16.5 33.5002 15.6667 31.3335 15.6667C30.5002 15.6667 29.6668 15.8333 28.6668 16.1667L25.6668 10.6667L27.8335 7.5H30.5002C31.1668 7.5 31.8335 7 31.8335 6.16667C31.8335 5.33333 31.1668 5 30.3335 5H27.0002H22.8335C22.1668 5 21.6668 5.5 21.6668 6.33333C21.6668 7.16667 22.1668 7.66667 23.0002 7.66667H24.8335L23.1668 10.1667H14.5002C13.5002 7.83333 11.3335 5 8.00016 5C7.3335 5 6.66683 5.5 6.66683 6.33333C6.66683 7.16667 7.16683 7.66667 8.00016 7.66667C10.1668 7.66667 11.6668 10 12.3335 11.3333L10.0002 16C9.3335 15.8333 8.66683 15.6667 8.00016 15.6667C6.00016 15.6667 4.16683 16.5 2.3335 18C1.3335 19 0.666829 20.3333 0.333496 21.6667H3.00016C3.16683 21 3.50016 20.3333 4.00016 19.8333ZM23.5002 12.5C23.6668 12.5 23.6668 12.5 23.6668 12.5L26.3335 17.5C26.0002 17.6667 25.8335 17.8333 25.5002 18.1667C24.6668 19 24.1668 20 23.6668 21H20.0002L15.6668 12.6667H23.5002V12.5Z" fill="#323232"/>
</svg>
