<svg width="64" height="64" viewBox="0 0 22 22" fill="none" xmlns="http://www.w3.org/2000/svg">
<circle r="11" cx="11" cy="11" fill="#FFFFFF"/>
<g transform="scale(0.8 0.8) translate(3 4)">
<path d="M19.17 1.97C19.17 0.88 18.38 0 17.42 0H3.97C3.01 0 2.22 0.88 2.22 1.97V15.08C2.22 16.17 3.01 17.05 3.97 17.05H4.75V18.63C4.75 19.18 5.2 19.63 5.75 19.63C6.3 19.63 6.75 19.18 6.75 18.63V17.05H14.75V18.63C14.75 19.18 15.2 19.63 15.75 19.63C16.3 19.63 16.75 19.18 16.75 18.63V17.05H17.42C17.94 17.05 18.43 16.83 18.76 16.45C19.09 16.07 19.23 15.57 19.17 15.03V1.97ZM3.97 1.5H17.41C17.5 1.5 17.66 1.68 17.66 1.97V10H3.75C3.75 10 3.73 10 3.72 10V1.97C3.72 1.68 3.88 1.5 3.97 1.5ZM17.62 15.47C17.57 15.52 17.49 15.56 17.41 15.56H3.97C3.88 15.56 3.72 15.38 3.72 15.09V11.5C3.72 11.5 3.74 11.5 3.75 11.5H17.67V15.08C17.67 15.08 17.67 15.15 17.67 15.19C17.69 15.32 17.67 15.41 17.62 15.47Z" fill="#323232"/>
<path d="M9.08 4.39H12.41C12.82 4.39 13.16 4.05 13.16 3.64C13.16 3.23 12.82 2.89 12.41 2.89H9.08C8.67 2.89 8.33 3.23 8.33 3.64C8.33 4.05 8.67 4.39 9.08 4.39Z" fill="#323232"/>
<path d="M0.75 2.78C0.34 2.78 0 3.12 0 3.53V6.97C0 7.38 0.34 7.72 0.75 7.72C1.16 7.72 1.5 7.38 1.5 6.97V3.53C1.5 3.12 1.16 2.78 0.75 2.78Z" fill="#323232"/>
<path d="M20.75 2.78C20.34 2.78 20 3.12 20 3.53V6.97C20 7.38 20.34 7.72 20.75 7.72C21.16 7.72 21.5 7.38 21.5 6.97V3.53C21.5 3.12 21.16 2.78 20.75 2.78Z" fill="#323232"/>
<path d="M7.75 12.67C7.21 12.67 6.78 13.11 6.78 13.64C6.78 14.17 7.22 14.61 7.75 14.61C8.28 14.61 8.72 14.17 8.72 13.64C8.72 13.11 8.28 12.67 7.75 12.67Z" fill="#323232"/>
<path d="M13.86 12.67C13.32 12.67 12.89 13.11 12.89 13.64C12.89 14.17 13.33 14.61 13.86 14.61C14.39 14.61 14.83 14.17 14.83 13.64C14.83 13.11 14.39 12.67 13.86 12.67Z" fill="#323232"/>
</g>
</svg>
