<svg width="41" height="40" viewBox="0 0 41 40" fill="none" xmlns="http://www.w3.org/2000/svg">
<g clip-path="url(#clip0_3855_5357)">
<path fill-rule="evenodd" clip-rule="evenodd" d="M28.18 23.3333L25.4582 23.8952V34.6046H28.18V23.3333Z" fill="#34D186"/>
<path fill-rule="evenodd" clip-rule="evenodd" d="M20.4285 31.9542C19.6767 31.9542 19.0647 31.3583 19.0647 30.6262C19.0647 29.894 19.6767 29.2981 20.4285 29.2981C21.1804 29.2981 21.7923 29.894 21.7923 30.6262C21.7923 31.3583 21.1804 31.9542 20.4285 31.9542ZM20.4285 26.5342C18.1089 26.5342 16.2264 28.3674 16.2264 30.6262C16.2264 32.885 18.1089 34.7181 20.4285 34.7181C22.7481 34.7181 24.6306 32.885 24.6306 30.6262C24.6306 28.3674 22.7481 26.5342 20.4285 26.5342Z" fill="#34D186"/>
<path fill-rule="evenodd" clip-rule="evenodd" d="M20.4285 35.6772C21.1804 35.6772 21.7923 36.2732 21.7923 37.0053C21.7923 37.7374 21.1804 38.3333 20.4285 38.3333C19.6767 38.3333 19.0647 37.7374 19.0647 37.0053C19.0647 36.2675 19.6767 35.6772 20.4285 35.6772Z" fill="#34D186"/>
<path fill-rule="evenodd" clip-rule="evenodd" d="M11.8611 31.9542H9.81547V30.297H11.8611C12.3332 30.3083 12.7004 30.6886 12.6887 31.1483C12.6771 31.5853 12.3099 31.9428 11.8611 31.9542ZM9.81547 25.9894H11.3308C11.8029 26.0007 12.17 26.381 12.1584 26.8407C12.1467 27.2834 11.7796 27.6352 11.3308 27.6466H9.81547V25.9894ZM14.3673 28.6455C15.4047 27.011 14.886 24.8657 13.2016 23.8554C12.6363 23.5149 11.9894 23.339 11.325 23.3333H7.08789V34.6046H11.8553C13.8311 34.6046 15.428 33.0439 15.428 31.1199C15.428 30.1948 15.0491 29.3038 14.3673 28.6455Z" fill="#34D186"/>
<path fill-rule="evenodd" clip-rule="evenodd" d="M33.3321 29.3378V26.6875H31.9683V24.6613L29.2465 25.2232V32.0847C29.2465 33.7022 30.2781 34.633 31.7993 34.7124C31.8167 34.7124 31.8342 34.7181 31.8459 34.7181H31.875C31.91 34.7181 31.9391 34.7238 31.9741 34.7238H32.0091C32.4753 34.7238 32.9299 34.6103 33.3379 34.3946V32.4366C33.1397 32.4877 32.9357 32.5161 32.7318 32.5161C32.1897 32.5161 31.9799 32.0507 31.9799 31.4207V29.3378H33.3321Z" fill="#34D186"/>
<path d="M4.42155 19.8333C5.75488 18.6667 7.08822 18.1667 8.42155 18.1667C8.75488 18.1667 9.08822 18.1667 9.42155 18.3333L7.92155 21.6667H10.5882L11.5882 19.3333C11.7549 19.5 12.0882 19.5 12.0882 19.6667C12.5882 20.3333 13.0882 21 13.4215 21.6667H16.0882C15.7549 20.5 15.0882 19.1667 14.0882 18C13.7549 17.6667 13.2549 17.3333 12.9215 17L14.2549 14L18.2549 21.6667H26.5882C26.9215 21 27.2549 20.3333 27.7549 19.8333C27.9215 19.8333 27.9215 19.6667 28.0882 19.6667L29.2549 21.6667H32.0882L30.2549 18.3333C30.7549 18.1667 31.2549 18.1667 31.5882 18.1667C32.9215 18.1667 34.4215 18.8333 35.4215 19.6667C35.9215 20.3333 36.4215 21 36.7549 21.6667H39.4215C39.0882 20.5 38.4215 19.1667 37.4215 18C35.9215 16.5 33.9215 15.6667 31.7549 15.6667C30.9215 15.6667 30.0882 15.8333 29.0882 16.1667L26.0882 10.6667L28.2549 7.5H30.9215C31.5882 7.5 32.2549 7 32.2549 6.16667C32.2549 5.33333 31.5882 5 30.7549 5H27.4215H23.2549C22.5882 5 22.0882 5.5 22.0882 6.33333C22.0882 7.16667 22.5882 7.66667 23.4215 7.66667H25.2549L23.5882 10.1667H14.9215C13.9215 7.83333 11.7549 5 8.42155 5C7.75488 5 7.08822 5.5 7.08822 6.33333C7.08822 7.16667 7.58822 7.66667 8.42155 7.66667C10.5882 7.66667 12.0882 10 12.7549 11.3333L10.4215 16C9.75488 15.8333 9.08822 15.6667 8.42155 15.6667C6.42155 15.6667 4.58822 16.5 2.75488 18C1.75488 19 1.08822 20.3333 0.754883 21.6667H3.42155C3.58822 21 3.92155 20.3333 4.42155 19.8333ZM23.9216 12.5C24.0882 12.5 24.0882 12.5 24.0882 12.5L26.7549 17.5C26.4215 17.6667 26.2549 17.8333 25.9215 18.1667C25.0882 19 24.5882 20 24.0882 21H20.4215L16.0882 12.6667H23.9216V12.5Z" fill="#323232"/>
</g>
<defs>
<clipPath id="clip0_3855_5357">
<rect width="40" height="40" fill="white" transform="translate(0.421387)"/>
</clipPath>
</defs>
</svg>
