<?xml version="1.0" encoding="UTF-8" standalone="yes"?>
<svg xmlns="http://www.w3.org/2000/svg" xmlns:xlink="http://www.w3.org/1999/xlink" width="64px" height="64px" viewBox="0 0 64 64" version="1.1">
  <defs>
    <clipPath id="clip1">
      <path d="M 19 18 L 55.335938 18 L 55.335938 45 L 19 45 Z M 19 18 "/>
    </clipPath>
    <clipPath id="clip2">
      <path d="M 8.789062 33 L 23 33 L 23 48 L 8.789062 48 Z M 8.789062 33 "/>
    </clipPath>
    <clipPath id="clip3">
      <path d="M 41 33 L 55.335938 33 L 55.335938 48 L 41 48 Z M 41 33 "/>
    </clipPath>
  </defs>
  <g id="surface1">
    <rect x="0" y="0" width="64" height="64" style="fill:rgb(100%,100%,100%);fill-opacity:1;stroke:none;"/>
    <path style=" stroke:none;fill-rule:nonzero;fill:rgb(0.784314%,47.843137%,88.235295%);fill-opacity:1;" d="M 63.132812 32.320312 C 63.132812 49.457031 49.238281 63.351562 32.101562 63.351562 C 14.964844 63.351562 1.070312 49.457031 1.070312 32.320312 C 1.070312 15.183594 14.964844 1.289062 32.101562 1.289062 C 49.238281 1.289062 63.132812 15.183594 63.132812 32.320312 Z M 63.132812 32.320312 "/>
    <g clip-path="url(#clip1)" clip-rule="nonzero">
      <path style=" stroke:none;fill-rule:evenodd;fill:rgb(100%,100%,100%);fill-opacity:1;" d="M 22.640625 26.289062 C 22.871094 26.441406 22.964844 26.75 22.925781 27.21875 L 22.894531 27.464844 L 22.578125 28.015625 C 21.300781 30.160156 20.386719 31.785156 19.828125 32.894531 C 22.613281 34.390625 24.5 37.320312 24.5 40.683594 C 24.5 41.707031 24.328125 42.683594 24.007812 43.597656 C 24.277344 43.835938 24.597656 43.980469 24.984375 44.03125 L 25.289062 44.050781 L 35.695312 44.050781 C 36.566406 44.050781 37.371094 43.621094 37.859375 42.917969 L 38.011719 42.671875 L 43.582031 32.421875 L 44.46875 32.328125 C 45.894531 32.171875 47.054688 31.996094 47.574219 31.824219 C 48.394531 31.546875 48.890625 31.28125 49.191406 31.007812 L 51.296875 30.984375 C 52.445312 30.957031 53.085938 30.917969 53.21875 30.859375 C 53.617188 30.691406 55.03125 28.714844 55.03125 26.847656 C 55.03125 25.117188 52.289062 23.109375 48.28125 22.949219 L 47.816406 22.941406 L 47.335938 22.949219 C 45.039062 23.023438 44.089844 24.492188 44.027344 25.382812 C 43.964844 26.273438 44 28.589844 44.347656 29.179688 L 44.398438 29.253906 L 42.5 29.449219 C 38.875 29.847656 34.703125 30.414062 34.03125 30.871094 C 32.929688 31.617188 33.457031 32.710938 34.28125 32.941406 L 34.269531 32.523438 C 34.378906 36.160156 34.113281 38.917969 33.46875 40.789062 L 32.667969 40.859375 C 32.296875 40.886719 31.964844 40.898438 31.648438 40.890625 L 31.265625 40.875 C 30.765625 40.835938 30.296875 40.742188 29.78125 40.570312 C 28.621094 40.1875 25.992188 32.019531 25.777344 31.234375 C 25.671875 30.84375 25.601562 30.25 25.5625 29.449219 L 25.539062 28.585938 L 27.203125 25.074219 L 29.214844 26.050781 L 29.347656 26.09375 L 29.484375 26.101562 C 29.664062 26.085938 29.832031 25.980469 29.917969 25.808594 C 30.023438 25.59375 29.964844 25.339844 29.796875 25.1875 L 29.675781 25.109375 L 27.351562 23.984375 L 27.246094 23.898438 L 27.246094 21.058594 C 27.394531 21.132812 27.53125 21.183594 27.660156 21.210938 L 27.839844 21.234375 C 29.039062 21.269531 28.96875 18.917969 27.804688 18.8125 L 27.628906 18.8125 C 27.386719 18.835938 27.105469 18.949219 26.789062 19.183594 C 26.328125 19.515625 26.265625 19.960938 26.261719 20.234375 L 26.265625 20.425781 L 26.265625 23.148438 L 25.382812 22.492188 C 24.605469 21.921875 24.125 21.605469 23.945312 21.550781 L 23.894531 21.539062 L 23.582031 21.550781 C 22.832031 21.585938 21.105469 21.734375 20.796875 22.152344 C 20.425781 22.65625 20.640625 25.339844 21.167969 25.894531 C 21.34375 26.082031 21.519531 26.15625 21.695312 26.183594 L 21.867188 26.203125 L 22.199219 26.195312 C 22.359375 26.191406 22.507812 26.203125 22.640625 26.289062 Z M 22.640625 26.289062 "/>
    </g>
    <g clip-path="url(#clip2)" clip-rule="nonzero">
      <path style=" stroke:none;fill-rule:evenodd;fill:rgb(100%,100%,100%);fill-opacity:1;" d="M 15.839844 33.515625 C 11.945312 33.515625 8.789062 36.675781 8.789062 40.570312 C 8.789062 44.335938 11.738281 47.410156 15.453125 47.609375 L 15.839844 47.621094 C 19.734375 47.621094 22.894531 44.464844 22.894531 40.570312 C 22.894531 36.804688 19.945312 33.726562 16.230469 33.527344 Z M 15.839844 36.621094 C 18.019531 36.621094 19.789062 38.390625 19.789062 40.570312 C 19.789062 42.75 18.019531 44.515625 15.839844 44.515625 C 13.660156 44.515625 11.894531 42.75 11.894531 40.570312 C 11.894531 38.390625 13.660156 36.621094 15.839844 36.621094 Z M 15.839844 36.621094 "/>
    </g>
    <g clip-path="url(#clip3)" clip-rule="nonzero">
      <path style=" stroke:none;fill-rule:evenodd;fill:rgb(100%,100%,100%);fill-opacity:1;" d="M 48.285156 33.519531 C 44.390625 33.519531 41.234375 36.675781 41.234375 40.570312 C 41.234375 44.335938 44.183594 47.410156 47.898438 47.609375 L 48.285156 47.621094 C 52.179688 47.621094 55.335938 44.464844 55.335938 40.570312 C 55.335938 36.808594 52.386719 33.730469 48.671875 33.53125 Z M 48.285156 36.621094 C 50.464844 36.621094 52.234375 38.390625 52.234375 40.570312 C 52.234375 42.75 50.464844 44.519531 48.285156 44.519531 C 46.101562 44.519531 44.335938 42.75 44.335938 40.570312 C 44.335938 38.390625 46.101562 36.621094 48.285156 36.621094 Z M 48.285156 36.621094 "/>
    </g>
  </g>
</svg>