<?xml version="1.0" encoding="UTF-8" standalone="yes"?>
<svg xmlns="http://www.w3.org/2000/svg" xmlns:xlink="http://www.w3.org/1999/xlink" width="64px" height="64px" viewBox="0 0 64 64" version="1.1">
  <defs>
    <clipPath id="clip1">
      <path d="M 37 28 L 55.335938 28 L 55.335938 48 L 37 48 Z M 37 28 "/>
    </clipPath>
    <clipPath id="clip2">
      <path d="M 8.789062 28 L 27 28 L 27 48 L 8.789062 48 Z M 8.789062 28 "/>
    </clipPath>
  </defs>
  <g id="surface1">
    <rect x="0" y="0" width="64" height="64" style="fill:rgb(100%,100%,100%);fill-opacity:1;stroke:none;"/>
    <path style=" stroke:none;fill-rule:nonzero;fill:rgb(100%,23.137255%,5.882353%);fill-opacity:1;" d="M 63.132812 32.320312 C 63.132812 49.457031 49.238281 63.351562 32.101562 63.351562 C 14.964844 63.351562 1.070312 49.457031 1.070312 32.320312 C 1.070312 15.183594 14.964844 1.289062 32.101562 1.289062 C 49.238281 1.289062 63.132812 15.183594 63.132812 32.320312 Z M 63.132812 32.320312 "/>
    <path style=" stroke:none;fill-rule:evenodd;fill:rgb(100%,100%,100%);fill-opacity:1;" d="M 23.308594 16.875 C 22.886719 16.875 22.480469 17.230469 22.410156 17.582031 L 22.402344 17.710938 L 21.011719 22.316406 C 20.609375 21.863281 19.992188 21.550781 19.273438 21.550781 C 17.988281 21.550781 17.988281 25.230469 19.273438 25.230469 C 19.597656 25.230469 19.898438 25.1875 20.171875 25.109375 L 16.625 36.863281 C 16.265625 37.160156 16.03125 37.621094 16.03125 38.136719 C 16.03125 39.035156 16.730469 39.761719 17.59375 39.761719 C 18.453125 39.761719 19.152344 39.035156 19.152344 38.136719 C 19.152344 37.765625 19.03125 37.425781 18.832031 37.152344 L 21.929688 26.738281 L 31.257812 36.769531 C 30.878906 37.203125 30.648438 37.777344 30.648438 38.410156 C 30.648438 39.753906 31.695312 40.84375 32.988281 40.84375 C 33.074219 40.84375 33.160156 40.839844 33.246094 40.828125 L 33.246094 40.84375 L 46.785156 39.761719 C 47.574219 39.65625 48.1875 38.953125 48.1875 38.101562 C 48.1875 37.871094 48.144531 37.652344 48.0625 37.457031 L 48.074219 37.324219 L 48.011719 37.152344 L 47.964844 37.074219 L 37.882812 25.210938 L 38.703125 22.632812 L 38.964844 22.710938 C 39.921875 22.960938 41.105469 22.746094 41.28125 22.714844 L 41.304688 22.710938 C 42.800781 22.449219 43.339844 20.445312 41.539062 20.285156 L 41.304688 20.273438 L 34.480469 20.273438 C 33.65625 20.277344 33.21875 20.304688 32.988281 20.542969 C 32.726562 21.355469 33.765625 21.625 34.546875 21.625 C 35.316406 21.625 36.042969 21.773438 36.699219 21.960938 L 32.667969 34.617188 L 22.753906 23.964844 L 24.128906 19.34375 L 26.6875 19.34375 C 27.105469 19.34375 27.523438 19.066406 27.734375 18.65625 L 27.8125 18.472656 L 27.855469 18.296875 L 27.871094 18.109375 C 27.871094 17.410156 27.515625 16.96875 26.898438 16.886719 L 26.6875 16.875 Z M 36.996094 27.988281 L 44.371094 36.546875 L 34.433594 36.03125 Z M 36.996094 27.988281 "/>
    <g clip-path="url(#clip1)" clip-rule="nonzero">
      <path style=" stroke:none;fill-rule:evenodd;fill:rgb(100%,100%,100%);fill-opacity:1;" d="M 46.515625 28.839844 C 41.445312 28.839844 37.699219 32.742188 37.699219 38.023438 C 37.699219 43.035156 41.703125 47.210938 46.515625 47.210938 C 51.328125 47.210938 55.335938 43.035156 55.335938 38.023438 C 55.335938 33.011719 51.328125 28.839844 46.515625 28.839844 Z M 46.386719 31.242188 C 49.941406 31.242188 52.898438 34.15625 52.898438 37.753906 C 52.898438 41.3125 49.71875 44.539062 46.386719 44.539062 C 43.101562 44.539062 40.132812 41.359375 40.132812 37.753906 C 40.132812 34.007812 42.714844 31.242188 46.386719 31.242188 Z M 46.386719 31.242188 "/>
    </g>
    <g clip-path="url(#clip2)" clip-rule="nonzero">
      <path style=" stroke:none;fill-rule:evenodd;fill:rgb(100%,100%,100%);fill-opacity:1;" d="M 17.609375 28.839844 C 12.535156 28.839844 8.789062 32.742188 8.789062 38.023438 C 8.789062 43.035156 12.796875 47.210938 17.609375 47.210938 C 22.417969 47.210938 26.425781 43.035156 26.425781 38.023438 C 26.425781 33.011719 22.417969 28.839844 17.609375 28.839844 Z M 17.476562 31.242188 C 21.035156 31.242188 23.992188 34.15625 23.992188 37.753906 C 23.992188 41.3125 20.8125 44.539062 17.476562 44.539062 C 14.195312 44.539062 11.226562 41.359375 11.226562 37.753906 C 11.226562 34.007812 13.808594 31.242188 17.476562 31.242188 Z M 17.476562 31.242188 "/>
    </g>
  </g>
</svg>