<?xml version="1.0" encoding="UTF-8" standalone="yes"?>
<svg xmlns="http://www.w3.org/2000/svg" xmlns:xlink="http://www.w3.org/1999/xlink" width="64px" height="64px" viewBox="0 0 64 64" version="1.1">
  <g id="surface1">
    <path style=" stroke:none;fill-rule:nonzero;fill:rgb(100%,100%,100%);fill-opacity:1;" d="M 0 2.910156 L 64 2.910156 L 64 61.089844 L 0 61.089844 Z M 0 2.910156 "/>
    <path style=" stroke:none;fill-rule:nonzero;fill:rgb(19.607843%,19.607843%,19.607843%);fill-opacity:1;" d="M 55.765625 8.640625 C 55.765625 5.46875 53.46875 2.910156 50.675781 2.910156 L 11.550781 2.910156 C 8.757812 2.910156 6.457031 5.46875 6.457031 8.640625 L 6.457031 46.777344 C 6.457031 49.949219 8.757812 52.507812 11.550781 52.507812 L 13.816406 52.507812 L 13.816406 57.105469 C 13.816406 58.707031 15.128906 60.015625 16.726562 60.015625 C 18.328125 60.015625 19.636719 58.707031 19.636719 57.105469 L 19.636719 52.507812 L 42.910156 52.507812 L 42.910156 57.105469 C 42.910156 58.707031 44.21875 60.015625 45.816406 60.015625 C 47.417969 60.015625 48.726562 58.707031 48.726562 57.105469 L 48.726562 52.507812 L 50.675781 52.507812 C 52.1875 52.507812 53.613281 51.867188 54.574219 50.761719 C 55.535156 49.65625 55.941406 48.203125 55.765625 46.632812 Z M 11.550781 7.273438 L 50.648438 7.273438 C 50.910156 7.273438 51.375 7.796875 51.375 8.640625 L 51.375 32 L 10.910156 32 C 10.910156 32 10.851562 32 10.820312 32 L 10.820312 8.640625 C 10.820312 7.796875 11.289062 7.273438 11.550781 7.273438 Z M 51.257812 47.914062 C 51.113281 48.058594 50.878906 48.175781 50.648438 48.175781 L 11.550781 48.175781 C 11.289062 48.175781 10.820312 47.652344 10.820312 46.808594 L 10.820312 36.363281 C 10.820312 36.363281 10.878906 36.363281 10.910156 36.363281 L 51.402344 36.363281 L 51.402344 46.777344 C 51.402344 46.777344 51.402344 46.980469 51.402344 47.097656 C 51.460938 47.476562 51.402344 47.738281 51.257812 47.914062 Z M 51.257812 47.914062 "/>
    <path style=" stroke:none;fill-rule:nonzero;fill:rgb(19.607843%,19.607843%,19.607843%);fill-opacity:1;" d="M 26.414062 15.679688 L 36.101562 15.679688 C 37.292969 15.679688 38.285156 14.691406 38.285156 13.5 C 38.285156 12.304688 37.292969 11.316406 36.101562 11.316406 L 26.414062 11.316406 C 25.222656 11.316406 24.234375 12.304688 24.234375 13.5 C 24.234375 14.691406 25.222656 15.679688 26.414062 15.679688 Z M 26.414062 15.679688 "/>
    <path style=" stroke:none;fill-rule:nonzero;fill:rgb(19.607843%,19.607843%,19.607843%);fill-opacity:1;" d="M 2.183594 10.996094 C 0.988281 10.996094 0 11.984375 0 13.179688 L 0 23.183594 C 0 24.378906 0.988281 25.367188 2.183594 25.367188 C 3.375 25.367188 4.363281 24.378906 4.363281 23.183594 L 4.363281 13.179688 C 4.363281 11.984375 3.375 10.996094 2.183594 10.996094 Z M 2.183594 10.996094 "/>
    <path style=" stroke:none;fill-rule:nonzero;fill:rgb(19.607843%,19.607843%,19.607843%);fill-opacity:1;" d="M 60.363281 10.996094 C 59.171875 10.996094 58.183594 11.984375 58.183594 13.179688 L 58.183594 23.183594 C 58.183594 24.378906 59.171875 25.367188 60.363281 25.367188 C 61.554688 25.367188 62.546875 24.378906 62.546875 23.183594 L 62.546875 13.179688 C 62.546875 11.984375 61.554688 10.996094 60.363281 10.996094 Z M 60.363281 10.996094 "/>
    <path style=" stroke:none;fill-rule:nonzero;fill:rgb(19.607843%,19.607843%,19.607843%);fill-opacity:1;" d="M 22.546875 39.765625 C 20.972656 39.765625 19.722656 41.046875 19.722656 42.589844 C 19.722656 44.132812 21.003906 45.410156 22.546875 45.410156 C 24.085938 45.410156 25.367188 44.132812 25.367188 42.589844 C 25.367188 41.046875 24.085938 39.765625 22.546875 39.765625 Z M 22.546875 39.765625 "/>
    <path style=" stroke:none;fill-rule:nonzero;fill:rgb(19.607843%,19.607843%,19.607843%);fill-opacity:1;" d="M 40.320312 39.765625 C 38.75 39.765625 37.5 41.046875 37.5 42.589844 C 37.5 44.132812 38.777344 45.410156 40.320312 45.410156 C 41.863281 45.410156 43.140625 44.132812 43.140625 42.589844 C 43.140625 41.046875 41.863281 39.765625 40.320312 39.765625 Z M 40.320312 39.765625 "/>
  </g>
</svg>