<svg width="64" height="65" viewBox="0 0 64 65" fill="none" xmlns="http://www.w3.org/2000/svg">
<circle cx="32" cy="32.4004" r="32" fill="#32BA78"/>
<path fill-rule="evenodd" clip-rule="evenodd" d="M46.5283 18.9707L41.5514 20.0258V40.1359H46.5283V18.9707Z" fill="white"/>
<path fill-rule="evenodd" clip-rule="evenodd" d="M32.3543 35.159C30.9795 35.159 29.8605 34.04 29.8605 32.6652C29.8605 31.2904 30.9795 30.1714 32.3543 30.1714C33.7291 30.1714 34.8481 31.2904 34.8481 32.6652C34.8481 34.04 33.7291 35.159 32.3543 35.159ZM32.3543 24.9813C28.1127 24.9813 24.6704 28.4236 24.6704 32.6652C24.6704 36.9067 28.1127 40.349 32.3543 40.349C36.5958 40.349 40.0381 36.9067 40.0381 32.6652C40.0381 28.4236 36.5958 24.9813 32.3543 24.9813Z" fill="white"/>
<path fill-rule="evenodd" clip-rule="evenodd" d="M32.3543 42.1501C33.7291 42.1501 34.8481 43.2691 34.8481 44.6439C34.8481 46.0187 33.7291 47.1377 32.3543 47.1377C30.9795 47.1377 29.8605 46.0187 29.8605 44.6439C29.8605 43.2584 30.9795 42.1501 32.3543 42.1501Z" fill="white"/>
<path fill-rule="evenodd" clip-rule="evenodd" d="M16.6882 35.159H12.9475V32.0471H16.6882C17.5514 32.0684 18.2228 32.7824 18.2015 33.6457C18.1802 34.4663 17.5088 35.1377 16.6882 35.159ZM12.9475 23.9583H15.7184C16.5816 23.9796 17.253 24.6936 17.2317 25.5568C17.2104 26.3881 16.539 27.0489 15.7184 27.0702H12.9475V23.9583ZM21.2708 28.9458C23.1678 25.8766 22.2193 21.8481 19.1394 19.9512C18.1056 19.3117 16.9227 18.9814 15.7077 18.9707H7.95996V40.1359H16.6775C20.2903 40.1359 23.2104 37.2052 23.2104 33.5924C23.2104 31.8552 22.5177 30.1821 21.2708 28.9458Z" fill="white"/>
<path fill-rule="evenodd" clip-rule="evenodd" d="M55.9493 30.246V25.2691H53.4555V21.4645L48.4786 22.5195V35.4041C48.4786 38.4414 50.3649 40.1892 53.1465 40.3384C53.1784 40.3384 53.2104 40.349 53.2317 40.349H53.285C53.3489 40.349 53.4022 40.3597 53.4662 40.3597H53.5301C54.3827 40.3597 55.214 40.1465 55.96 39.7416V36.0648C55.5976 36.1607 55.2246 36.214 54.8516 36.214C53.8605 36.214 53.4768 35.3401 53.4768 34.1572V30.246H55.9493Z" fill="white"/>
</svg>
