<svg width="64" height="65" viewBox="0 0 64 65" fill="none" xmlns="http://www.w3.org/2000/svg">
<path d="M32 64.4004C14.4 64.4004 0 50.0004 0 32.4004C0 14.8004 14.4 0.400391 32 0.400391C49.6 0.400391 64 14.8004 64 32.4004C64 50.0004 49.6 64.4004 32 64.4004Z" fill="white"/>
<path d="M32 60.6004C16.4 60.6004 3.8 48.0004 3.8 32.4004C3.8 16.8004 16.4 4.20039 32 4.20039C47.6 4.20039 60.2 17.0004 60.2 32.4004C60.2 48.0004 47.6 60.6004 32 60.6004Z" fill="#FF6400"/>
<path d="M20.8 51.2004C21.8 50.2004 22.6 49.0004 23.4 48.0004C24 47.2004 24.4 46.0004 25 45.2004C25.4 44.6004 25.8 44.0004 26.4 43.4004C26.8 43.0004 27 42.8004 27.4 42.4004C27.6 42.2004 28 42.2004 28.2 42.4004C29 43.2004 30 43.8004 31.2 44.4004C32.6 45.2004 34 46.0004 34.6 47.4004C34.8 47.8004 35 48.2004 34.8 48.6004C34.6 49.4004 35 50.0004 35.6 50.6004C36.4 51.2004 37.4 51.8004 38.6 51.6004C39.6 51.4004 40.4 51.4004 41.4 51.2004C43.4 51.0004 44.4 50.2004 44.4 48.2004C44.4 47.6004 44.4 47.0004 44.4 46.4004C44.2 45.2004 44.2 44.0004 43.8 42.8004C43.4 41.6004 43.4 40.4004 43.4 39.2004C43.4 37.8004 43.6 36.4004 43.4 35.0004C43.2 33.0004 42.8 31.2004 41.6 29.4004C41.4 29.2004 41.4 28.8004 41.6 28.6004C42.4 27.6004 42.8 26.4004 43 25.0004C43.6 22.8004 44 20.6004 44.6 18.4004C44.8 17.4004 45 16.4004 46 16.0004C46.2 15.8004 46.4 15.6004 46.4 15.2004C46.4 14.8004 46.4 14.2004 46.6 13.8004C46.6 13.6004 46.6 13.4004 46.2 13.4004C45.8 13.4004 45.4 13.4004 45 13.6004C44.2 14.2004 43.4 14.6004 42.8 15.4004C42 16.4004 41.4 17.4004 40.8 18.6004C40.2 20.0004 39.4 21.4004 38.8 22.6004C38.4 23.6004 37.4 23.8004 36.4 23.8004C35.8 23.8004 35.4 23.6004 34.8 23.4004C34.2 23.2004 33.6 23.2004 33.2 23.8004C33 24.0004 32.6 24.2004 32.4 24.0004C32 23.8004 31.8 23.4004 31.4 23.0004C30.4 21.6004 30 19.8004 29.2 18.4004C28.8 17.2004 28.2 16.0004 27.6 14.8004C27 13.6004 26 13.0004 25 12.2004C24.6 11.8004 24.2 12.0004 24 12.4004C24 12.6004 23.8 13.0004 24 13.2004C24.4 14.2004 24.4 15.4004 24.4 16.4004C24.4 17.2004 24.2 18.2004 24.2 19.0004C24.2 19.6004 24.2 20.0004 24 20.6004C23.8 21.4004 23.8 22.2004 24.2 22.8004C24.2 23.0004 24.4 23.4004 24.2 23.6004C23.8 24.4004 23.2 24.8004 22.4 25.2004C21.8 25.4004 21 25.8004 20.4 26.2004C19 27.2004 17.4 28.4004 16 29.4004C15.8 29.4004 15.8 29.6004 15.6 29.6004C14 29.8004 12.4 30.6004 11 31.4004C9.4 32.2004 7.8 32.8004 6 32.8004C5.4 32.8004 4.6 32.8004 4 32.8004C3 32.8004 2 33.0004 1 33.2004C1.2 43.8004 7 53.2004 15.4 58.6004C15.6 58.2004 15.8 57.8004 16 57.6004C17.4 55.2004 19.2 53.2004 20.8 51.2004Z" fill="white"/>
</svg>
