<?xml version="1.0" encoding="UTF-8" standalone="yes"?>
<svg xmlns="http://www.w3.org/2000/svg" xmlns:xlink="http://www.w3.org/1999/xlink" width="64px" height="74px" viewBox="0 0 64 74" version="1.1">
  <g id="surface1">
    <path style=" stroke:none;fill-rule:nonzero;fill:rgb(19.607843%,19.607843%,19.607843%);fill-opacity:1;" d="M 16.527344 51.902344 C 18.480469 51.902344 20.0625 50.410156 20.0625 48.570312 C 20.0625 46.730469 18.480469 45.242188 16.527344 45.242188 C 14.574219 45.242188 12.988281 46.730469 12.988281 48.570312 C 12.988281 50.410156 14.574219 51.902344 16.527344 51.902344 Z M 16.527344 51.902344 "/>
    <path style=" stroke:none;fill-rule:nonzero;fill:rgb(19.607843%,19.607843%,19.607843%);fill-opacity:1;" d="M 44.316406 51.902344 C 46.269531 51.902344 47.851562 50.410156 47.851562 48.570312 C 47.851562 46.730469 46.269531 45.242188 44.316406 45.242188 C 42.363281 45.242188 40.777344 46.730469 40.777344 48.570312 C 40.777344 50.410156 42.363281 51.902344 44.316406 51.902344 Z M 44.316406 51.902344 "/>
    <path style=" stroke:none;fill-rule:nonzero;fill:rgb(19.607843%,19.607843%,19.607843%);fill-opacity:1;" d="M 60.820312 52.304688 L 56.40625 15.203125 C 55.363281 6.527344 48.019531 0 39.261719 0 L 21.578125 0 C 12.855469 0 5.476562 6.527344 4.46875 15.203125 L 0.0546875 52.304688 C -0.214844 54.691406 0.527344 57.082031 2.144531 58.898438 C 3.726562 60.679688 6.050781 61.722656 8.441406 61.722656 L 14.402344 61.722656 L 10.328125 68.417969 C 9.855469 69.191406 9.855469 70.164062 10.292969 70.972656 C 10.730469 71.78125 11.574219 72.25 12.484375 72.25 L 48.355469 72.25 C 49.265625 72.25 50.109375 71.746094 50.546875 70.972656 C 50.984375 70.199219 50.984375 69.191406 50.511719 68.417969 L 46.4375 61.722656 L 52.398438 61.722656 C 54.792969 61.722656 57.117188 60.679688 58.699219 58.898438 C 60.28125 57.113281 61.054688 54.691406 60.753906 52.304688 Z M 53.714844 35.316406 L 7.160156 35.316406 L 8.847656 21.191406 L 52.027344 21.191406 Z M 21.578125 5.046875 L 39.261719 5.046875 C 45.425781 5.046875 50.648438 9.652344 51.390625 15.808594 L 51.390625 16.144531 L 9.453125 16.144531 L 9.453125 15.808594 C 10.226562 9.6875 15.449219 5.046875 21.613281 5.046875 Z M 41.621094 63.503906 L 43.878906 67.238281 L 16.964844 67.238281 L 19.21875 63.503906 C 19.558594 62.96875 19.625 62.328125 19.523438 61.757812 L 41.316406 61.757812 C 41.214844 62.328125 41.285156 62.96875 41.621094 63.503906 Z M 54.960938 55.566406 C 54.320312 56.308594 53.410156 56.710938 52.433594 56.710938 L 8.40625 56.710938 C 7.429688 56.710938 6.523438 56.308594 5.882812 55.566406 C 5.242188 54.828125 4.9375 53.886719 5.039062 52.945312 L 6.523438 40.429688 L 54.285156 40.429688 L 55.769531 52.945312 C 55.867188 53.917969 55.597656 54.859375 54.925781 55.566406 Z M 54.960938 55.566406 "/>
    <path style=" stroke:none;fill-rule:nonzero;fill:rgb(19.607843%,19.607843%,19.607843%);fill-opacity:1;" d="M 26.53125 12.679688 L 34.34375 12.679688 C 35.726562 12.679688 36.871094 11.539062 36.871094 10.15625 C 36.871094 8.777344 35.726562 7.636719 34.34375 7.636719 L 26.53125 7.636719 C 25.148438 7.636719 24.003906 8.777344 24.003906 10.15625 C 24.003906 11.539062 25.148438 12.679688 26.53125 12.679688 Z M 26.53125 12.679688 "/>
  </g>
</svg>