<?xml version="1.0" encoding="utf-8"?>
<!-- Generator: Adobe Illustrator 27.3.1, SVG Export Plug-In . SVG Version: 6.00 Build 0)  -->
<svg version="1.1" id="Capa_1" xmlns="http://www.w3.org/2000/svg" xmlns:xlink="http://www.w3.org/1999/xlink" x="0px" y="0px"
	 viewBox="0 0 200 200" style="enable-background:new 0 0 200 200;" xml:space="preserve">
<style type="text/css">
	.st0{fill:#FFDD00;}
	.st1{fill:#0B0907;}
	.st2{fill:#E30613;}
	.st3{fill:none;stroke:#000000;stroke-width:4;}
	.st4{fill:#FFFFFF;}
</style>
<rect x="1.5" y="1.5" class="st0" width="197" height="197"/>
<polygon points="165.8,102.9 153.2,98 166.9,79.5 173,81.9 174.8,77 180.3,79.1 170.1,109.7 164.3,107.4 "/>
<path d="M101.2,39.3v40.5c0,4.4-4.4,7.5-9.1,7.5c-4.7,0-9.1-3.1-9.1-7.5V33.1l-40.6-14c-2-0.7-4.2,0.4-4.9,2.5L19.4,74.1
	c-0.7,2,0.4,4.3,2.4,5L132,117c2,0.7,4.2-0.4,4.9-2.5l4.6-13.4l4.1,1.6L174,64.4L101.2,39.3z"/>
<path d="M85.9,1.5v78.3c0,2.3,2.5,4.6,6.2,4.6c3.8,0,6.2-2.4,6.2-4.6V1.5H85.9z"/>
<g>
	<path d="M19.4,143.1h-3.3l-4.3-13.3h3l3,9.4h0l3-9.4h3L19.4,143.1z"/>
	<path d="M27.4,132h-2.7v-2.2h2.7V132z M24.7,133.4h2.7v9.7h-2.7V133.4z"/>
	<path d="M36.4,141.9L36.4,141.9c-0.7,1-1.7,1.5-3,1.5c-2.9,0-4.3-2.5-4.3-5.2c0-2.6,1.4-5,4.3-5c1.1,0,2.3,0.5,2.9,1.4h0v-4.9h2.7
		v13.3h-2.5V141.9z M34.1,135.2c-1.7,0-2.3,1.5-2.3,3.1c0,1.5,0.7,3.1,2.3,3.1c1.8,0,2.3-1.5,2.3-3.1
		C36.4,136.7,35.8,135.2,34.1,135.2z"/>
	<path d="M43.1,138.9c0.1,1.7,0.9,2.4,2.4,2.4c1.1,0,1.9-0.7,2.1-1.3h2.3c-0.7,2.3-2.3,3.3-4.5,3.3c-3,0-4.9-2.1-4.9-5.1
		c0-2.9,2-5.1,4.9-5.1c3.3,0,4.9,2.8,4.7,5.7H43.1z M47.4,137.2c-0.2-1.3-0.8-2.1-2.1-2.1c-1.7,0-2.2,1.3-2.2,2.1H47.4z"/>
	<path d="M56.3,133.2c3,0,5,2,5,5.1c0,3.1-2,5.1-5,5.1c-3,0-5-2-5-5.1C51.3,135.2,53.3,133.2,56.3,133.2z M56.3,141.4
		c1.8,0,2.4-1.6,2.4-3.1c0-1.6-0.5-3.1-2.4-3.1c-1.8,0-2.3,1.6-2.3,3.1C54,139.8,54.5,141.4,56.3,141.4z"/>
	<path d="M68.4,143.1h-3l-3.3-9.7h2.8l2,6.6h0l2-6.6h2.6L68.4,143.1z"/>
	<path d="M75.5,132h-2.7v-2.2h2.7V132z M72.9,133.4h2.7v9.7h-2.7V133.4z"/>
	<path d="M86.9,142.5c0,1.6-0.6,4.3-5,4.3c-1.9,0-4.1-0.9-4.3-3.1h2.6c0.2,1,1,1.3,2,1.3c1.5,0,2.1-1,2.1-2.4v-1.3h0
		c-0.6,1-1.7,1.5-2.9,1.5c-2.9,0-4.1-2.2-4.1-4.9c0-2.5,1.4-4.8,4.1-4.8c1.3,0,2.2,0.4,2.9,1.6h0v-1.3h2.5V142.5z M84.4,138.2
		c0-1.6-0.5-3-2.3-3c-1.5,0-2.1,1.3-2.1,2.7c0,1.4,0.5,2.9,2.1,2.9C83.6,140.8,84.4,139.5,84.4,138.2z"/>
	<path d="M91.8,132h-2.7v-2.2h2.7V132z M89.1,133.4h2.7v9.7h-2.7V133.4z"/>
	<path d="M93.9,129.8h2.7v13.3h-2.7V129.8z"/>
	<path d="M98.6,136.4c0.1-2.5,2.4-3.2,4.5-3.2c1.9,0,4.2,0.4,4.2,2.7v5c0,0.9,0.1,1.8,0.3,2.1H105c-0.1-0.3-0.2-0.6-0.2-0.9
		c-0.8,0.9-2.1,1.2-3.3,1.2c-1.8,0-3.3-0.9-3.3-2.9c0-2.2,1.6-2.7,3.3-2.9c1.6-0.2,3.1-0.2,3.1-1.3c0-1.1-0.8-1.3-1.7-1.3
		c-1,0-1.7,0.4-1.8,1.5H98.6z M99.7,129.6h2.9l1.8,2.7h-1.9L99.7,129.6z M104.7,138.4c-0.4,0.4-1.4,0.4-2.2,0.6
		c-0.8,0.2-1.6,0.4-1.6,1.4c0,1,0.8,1.2,1.6,1.2c2.1,0,2.1-1.6,2.1-2.2V138.4z"/>
	<path d="M109.4,133.4h2.5v1.3h0.1c0.7-1.1,1.8-1.6,3-1.6c2.8,0,3.5,1.6,3.5,4v5.9h-2.7v-5.5c0-1.6-0.5-2.4-1.7-2.4
		c-1.4,0-2.1,0.8-2.1,2.8v5.1h-2.7V133.4z"/>
	<path d="M127.1,136.9c-0.2-1.1-0.9-1.7-2-1.7c-1.7,0-2.3,1.7-2.3,3.1c0,1.4,0.5,3,2.2,3c1.2,0,1.9-0.8,2.1-2h2.6
		c-0.3,2.6-2.1,4-4.7,4c-2.9,0-4.9-2.1-4.9-5c0-3,1.8-5.2,4.9-5.2c2.3,0,4.4,1.2,4.5,3.7H127.1z"/>
	<path d="M133.9,132h-2.7v-2.2h2.7V132z M131.3,133.4h2.7v9.7h-2.7V133.4z"/>
	<path d="M135.9,136.4c0.1-2.5,2.4-3.2,4.5-3.2c1.9,0,4.2,0.4,4.2,2.7v5c0,0.9,0.1,1.8,0.3,2.1h-2.7c-0.1-0.3-0.2-0.6-0.2-0.9
		c-0.8,0.9-2.1,1.2-3.3,1.2c-1.8,0-3.3-0.9-3.3-2.9c0-2.2,1.6-2.7,3.3-2.9c1.6-0.2,3.1-0.2,3.1-1.3c0-1.1-0.8-1.3-1.7-1.3
		c-1,0-1.7,0.4-1.8,1.5H135.9z M142.1,138.4c-0.4,0.4-1.4,0.4-2.2,0.6c-0.8,0.2-1.6,0.4-1.6,1.4c0,1,0.8,1.2,1.6,1.2
		c2.1,0,2.1-1.6,2.1-2.2V138.4z"/>
	<path d="M151.6,135.1c-0.1-3,1.6-5.3,4.7-5.3c2.4,0,4.5,1.5,4.5,4.1c0,2-1,3-2.3,4s-2.8,1.7-3.8,3h6.2v2.3h-9.6
		c0-3,1.9-4.3,4.1-5.9c1.2-0.8,2.7-1.6,2.7-3.2c0-1.2-0.8-2-2-2c-1.6,0-2.1,1.6-2.1,3H151.6z"/>
	<path d="M167.2,140.1h-5.5v-2.4l5.7-7.6h2.4v7.9h1.7v2.2h-1.7v3h-2.5V140.1z M167.2,133.4L167.2,133.4l-3.4,4.5h3.4V133.4z"/>
	<path d="M176.5,129.8h2.7v5h0.1c0.7-1.1,1.8-1.6,2.8-1.6c2.8,0,3.5,1.6,3.5,4v5.9H183v-5.5c0-1.6-0.5-2.4-1.7-2.4
		c-1.4,0-2.1,0.8-2.1,2.8v5.1h-2.7V129.8z"/>
</g>
<g>
	<path d="M13.5,152.8h1.2v4.5h2.7v1h-3.9V152.8z"/>
	<path d="M18,152.8h1.1v5.5H18V152.8z"/>
	<path d="M20.9,156.6c0,0.7,0.4,1,1,1c0.4,0,0.8-0.3,0.9-0.5h1c-0.3,0.9-1,1.3-1.9,1.3c-1.3,0-2-0.9-2-2.1c0-1.2,0.8-2.1,2-2.1
		c1.4,0,2,1.1,1.9,2.4H20.9z M22.7,155.9c-0.1-0.6-0.3-0.8-0.9-0.8c-0.7,0-0.9,0.5-0.9,0.8H22.7z"/>
	<path d="M25.5,153.7h-1.1v-0.9h1.1V153.7z M24.4,154.3h1.1v4h-1.1V154.3z"/>
	<path d="M31.1,152.6c1.7,0,2.7,1.3,2.7,2.9c0,1.6-1,2.9-2.7,2.9s-2.7-1.3-2.7-2.9C28.4,153.9,29.4,152.6,31.1,152.6z M31.1,157.4
		c1.1,0,1.5-0.9,1.5-1.8c0-1-0.4-1.9-1.5-1.9c-1.1,0-1.5,0.9-1.5,1.9C29.6,156.5,30.1,157.4,31.1,157.4z"/>
	<path d="M34.6,154.3h1v0.7h0c0.2-0.5,0.7-0.8,1.3-0.8c0.1,0,0.2,0,0.2,0v1c-0.1,0-0.3,0-0.4,0c-0.8,0-1.1,0.6-1.1,1.3v1.8h-1.1
		V154.3z"/>
	<path d="M41.4,158c0,0.7-0.2,1.8-2.1,1.8c-0.8,0-1.7-0.4-1.8-1.3h1.1c0.1,0.4,0.4,0.5,0.8,0.5c0.6,0,0.9-0.4,0.9-1v-0.5h0
		c-0.2,0.4-0.7,0.6-1.2,0.6c-1.2,0-1.7-0.9-1.7-2c0-1,0.6-2,1.7-2c0.5,0,0.9,0.2,1.2,0.6h0v-0.5h1V158z M40.4,156.2
		c0-0.6-0.2-1.2-0.9-1.2c-0.6,0-0.9,0.5-0.9,1.1c0,0.6,0.2,1.2,0.9,1.2C40.1,157.3,40.4,156.8,40.4,156.2z"/>
	<path d="M42.3,155.5c0.1-1,1-1.3,1.9-1.3c0.8,0,1.8,0.2,1.8,1.1v2.1c0,0.4,0,0.7,0.1,0.9h-1.1c0-0.1-0.1-0.3-0.1-0.4
		c-0.3,0.4-0.9,0.5-1.3,0.5c-0.8,0-1.4-0.4-1.4-1.2c0-0.9,0.7-1.1,1.4-1.2c0.7-0.1,1.3-0.1,1.3-0.5c0-0.5-0.3-0.5-0.7-0.5
		c-0.4,0-0.7,0.2-0.7,0.6H42.3z M42.7,152.7h1.2l0.7,1.1h-0.8L42.7,152.7z M44.8,156.3c-0.2,0.2-0.6,0.2-0.9,0.2
		c-0.3,0.1-0.6,0.2-0.6,0.6c0,0.4,0.3,0.5,0.7,0.5c0.9,0,0.9-0.7,0.9-0.9V156.3z"/>
	<path d="M46.7,154.3h1v0.6h0c0.3-0.4,0.8-0.7,1.2-0.7c1.2,0,1.5,0.7,1.5,1.6v2.5h-1.1V156c0-0.7-0.2-1-0.7-1
		c-0.6,0-0.8,0.3-0.8,1.1v2.1h-1.1V154.3z"/>
	<path d="M52.4,153.7h-1.1v-0.9h1.1V153.7z M51.3,154.3h1.1v4h-1.1V154.3z"/>
	<path d="M56,155.7c-0.1-0.4-0.4-0.7-0.8-0.7c-0.7,0-0.9,0.7-0.9,1.3c0,0.6,0.2,1.3,0.9,1.3c0.5,0,0.8-0.3,0.9-0.8h1.1
		c-0.1,1.1-0.9,1.6-1.9,1.6c-1.2,0-2-0.8-2-2c0-1.2,0.7-2.2,2-2.2c0.9,0,1.8,0.5,1.9,1.5H56z"/>
	<path d="M57.7,155.5c0.1-1,1-1.3,1.9-1.3c0.8,0,1.8,0.2,1.8,1.1v2.1c0,0.4,0,0.7,0.1,0.9h-1.1c0-0.1-0.1-0.3-0.1-0.4
		c-0.3,0.4-0.9,0.5-1.3,0.5c-0.8,0-1.4-0.4-1.4-1.2c0-0.9,0.7-1.1,1.4-1.2c0.7-0.1,1.3-0.1,1.3-0.5c0-0.5-0.3-0.5-0.7-0.5
		c-0.4,0-0.7,0.2-0.7,0.6H57.7z M60.2,156.3c-0.2,0.2-0.6,0.2-0.9,0.2c-0.3,0.1-0.6,0.2-0.6,0.6c0,0.4,0.3,0.5,0.7,0.5
		c0.9,0,0.9-0.7,0.9-0.9V156.3z"/>
	<path d="M66.9,158.3h-1.1v-3.5h-1.4V154c0.8,0,1.5-0.2,1.6-1.1h0.9V158.3z"/>
	<path d="M72.1,153.8h-2.2l-0.2,1.2l0,0c0.3-0.3,0.6-0.4,1.1-0.4c1.1,0,1.7,0.8,1.7,1.8c0,1.1-0.9,2-2,1.9c-1.1,0-2-0.6-2-1.7h1.1
		c0.1,0.5,0.4,0.8,0.9,0.8c0.6,0,0.9-0.5,0.9-1c0-0.6-0.3-1-0.9-1c-0.4,0-0.6,0.1-0.8,0.4h-1l0.5-3h3V153.8z"/>
	<path d="M74.6,152.6h0.9l-2.2,5.8h-0.9L74.6,152.6z"/>
	<path d="M78.4,158.3h-1.1v-3.5h-1.4V154c0.8,0,1.5-0.2,1.6-1.1h0.9V158.3z"/>
	<path d="M81,156.9c0.1,0.4,0.3,0.7,0.7,0.7c0.8,0,1-1,1-1.6l0,0c-0.3,0.4-0.7,0.6-1.2,0.6c-0.5,0-0.9-0.2-1.2-0.6
		c-0.3-0.3-0.4-0.8-0.4-1.2c0-1.1,0.8-2,1.9-2c1.6,0,2.1,1.4,2.1,2.8c0,1.3-0.6,2.8-2.1,2.8c-0.9,0-1.6-0.5-1.8-1.5H81z M82.6,154.7
		c0-0.5-0.3-1-0.9-1c-0.5,0-0.8,0.5-0.8,1c0,0.5,0.3,1,0.8,1C82.3,155.7,82.6,155.2,82.6,154.7z"/>
	<path d="M85.3,156.9c0.1,0.4,0.3,0.7,0.7,0.7c0.8,0,1-1,1-1.6l0,0c-0.3,0.4-0.7,0.6-1.2,0.6c-0.5,0-0.9-0.2-1.2-0.6
		c-0.3-0.3-0.4-0.8-0.4-1.2c0-1.1,0.8-2,1.9-2c1.6,0,2.1,1.4,2.1,2.8c0,1.3-0.6,2.8-2.1,2.8c-0.9,0-1.6-0.5-1.8-1.5H85.3z
		 M86.9,154.7c0-0.5-0.3-1-0.9-1c-0.5,0-0.8,0.5-0.8,1c0,0.5,0.3,1,0.8,1C86.6,155.7,86.9,155.2,86.9,154.7z"/>
	<path d="M89.5,156.9c0.1,0.4,0.3,0.7,0.7,0.7c0.8,0,1-1,1-1.6l0,0c-0.3,0.4-0.7,0.6-1.2,0.6c-0.5,0-0.9-0.2-1.2-0.6
		c-0.3-0.3-0.4-0.8-0.4-1.2c0-1.1,0.8-2,1.9-2c1.6,0,2.1,1.4,2.1,2.8c0,1.3-0.6,2.8-2.1,2.8c-0.9,0-1.6-0.5-1.8-1.5H89.5z
		 M91.2,154.7c0-0.5-0.3-1-0.9-1c-0.5,0-0.8,0.5-0.8,1c0,0.5,0.3,1,0.8,1C90.9,155.7,91.2,155.2,91.2,154.7z"/>
	<path d="M93,157.1h1.2v1.2c0,0.7-0.5,1.2-1.2,1.3V159c0.3-0.1,0.6-0.4,0.5-0.7H93V157.1z"/>
	<path d="M100.1,157.8L100.1,157.8c-0.3,0.4-0.7,0.6-1.2,0.6c-1.2,0-1.8-1-1.8-2.1c0-1.1,0.6-2.1,1.8-2.1c0.5,0,0.9,0.2,1.2,0.6h0
		v-2h1.1v5.5h-1V157.8z M99.2,155c-0.7,0-1,0.6-1,1.3c0,0.6,0.3,1.3,1,1.3c0.7,0,0.9-0.6,0.9-1.3C100.1,155.6,99.9,155,99.2,155z"/>
	<path d="M102.9,156.6c0,0.7,0.4,1,1,1c0.4,0,0.8-0.3,0.9-0.5h1c-0.3,0.9-1,1.3-1.9,1.3c-1.3,0-2-0.9-2-2.1c0-1.2,0.8-2.1,2-2.1
		c1.4,0,2,1.1,1.9,2.4H102.9z M104.7,155.9c-0.1-0.6-0.3-0.8-0.9-0.8c-0.7,0-0.9,0.5-0.9,0.8H104.7z"/>
	<path d="M108.8,152.8h2.5c1.4,0,1.9,0.9,1.9,1.8c0,0.9-0.5,1.8-1.9,1.8H110v2h-1.2V152.8z M110,155.4h0.9c0.6,0,1.1-0.1,1.1-0.8
		c0-0.7-0.5-0.8-1.1-0.8H110V155.4z"/>
	<path d="M113.9,154.3h1v0.7h0c0.2-0.5,0.7-0.8,1.3-0.8c0.1,0,0.2,0,0.2,0v1c-0.1,0-0.3,0-0.4,0c-0.8,0-1.1,0.6-1.1,1.3v1.8h-1.1
		V154.3z"/>
	<path d="M118.5,154.2c1.3,0,2.1,0.8,2.1,2.1c0,1.3-0.8,2.1-2.1,2.1c-1.2,0-2.1-0.8-2.1-2.1C116.5,155,117.3,154.2,118.5,154.2z
		 M118.5,157.6c0.7,0,1-0.6,1-1.3c0-0.6-0.2-1.3-1-1.3c-0.7,0-1,0.6-1,1.3C117.6,156.9,117.8,157.6,118.5,157.6z"/>
	<path d="M122.7,154.3h0.8v0.7h-0.8v2c0,0.4,0.1,0.5,0.5,0.5c0.1,0,0.2,0,0.3,0v0.9c-0.2,0-0.4,0-0.6,0c-0.7,0-1.3-0.2-1.3-0.9V155
		h-0.7v-0.7h0.7v-1.2h1.1V154.3z"/>
	<path d="M124.9,156.6c0,0.7,0.4,1,1,1c0.4,0,0.8-0.3,0.9-0.5h1c-0.3,0.9-1,1.3-1.9,1.3c-1.3,0-2-0.9-2-2.1c0-1.2,0.8-2.1,2-2.1
		c1.4,0,2,1.1,1.9,2.4H124.9z M126.7,155.9c-0.1-0.6-0.3-0.8-0.9-0.8c-0.7,0-0.9,0.5-0.9,0.8H126.7z"/>
	<path d="M131.2,155.7c-0.1-0.4-0.4-0.7-0.8-0.7c-0.7,0-0.9,0.7-0.9,1.3c0,0.6,0.2,1.3,0.9,1.3c0.5,0,0.8-0.3,0.9-0.8h1.1
		c-0.1,1.1-0.9,1.6-1.9,1.6c-1.2,0-2-0.8-2-2c0-1.2,0.7-2.2,2-2.2c0.9,0,1.8,0.5,1.9,1.5H131.2z"/>
	<path d="M135.6,155.7c-0.1-0.4-0.4-0.7-0.8-0.7c-0.7,0-0.9,0.7-0.9,1.3c0,0.6,0.2,1.3,0.9,1.3c0.5,0,0.8-0.3,0.9-0.8h1.1
		c-0.1,1.1-0.9,1.6-1.9,1.6c-1.2,0-2-0.8-2-2c0-1.2,0.7-2.2,2-2.2c0.9,0,1.8,0.5,1.9,1.5H135.6z"/>
	<path d="M138.5,153.7h-1.1v-0.9h1.1V153.7z M137.4,154.3h1.1v4h-1.1V154.3z"/>
	<path d="M141.3,154.2c1.3,0,2.1,0.8,2.1,2.1c0,1.3-0.8,2.1-2.1,2.1c-1.2,0-2.1-0.8-2.1-2.1C139.2,155,140,154.2,141.3,154.2z
		 M141.3,157.6c0.7,0,1-0.6,1-1.3c0-0.6-0.2-1.3-1-1.3c-0.7,0-1,0.6-1,1.3C140.3,156.9,140.5,157.6,141.3,157.6z M141.4,153.8h-0.8
		l0.7-1.1h1.2L141.4,153.8z"/>
	<path d="M149,157.8L149,157.8c-0.3,0.4-0.7,0.6-1.2,0.6c-1.2,0-1.8-1-1.8-2.1c0-1.1,0.6-2.1,1.8-2.1c0.5,0,0.9,0.2,1.2,0.6h0v-2
		h1.1v5.5h-1V157.8z M148.1,155c-0.7,0-1,0.6-1,1.3c0,0.6,0.3,1.3,1,1.3c0.7,0,0.9-0.6,0.9-1.3C149,155.6,148.8,155,148.1,155z"/>
	<path d="M151.8,156.6c0,0.7,0.4,1,1,1c0.4,0,0.8-0.3,0.9-0.5h1c-0.3,0.9-1,1.3-1.9,1.3c-1.3,0-2-0.9-2-2.1c0-1.2,0.8-2.1,2-2.1
		c1.4,0,2,1.1,1.9,2.4H151.8z M153.6,155.9c-0.1-0.6-0.3-0.8-0.9-0.8c-0.7,0-0.9,0.5-0.9,0.8H153.6z"/>
	<path d="M157.6,152.8h2.4c1.4,0,2.5,0.9,2.5,2.7c0,1.6-0.8,2.8-2.5,2.8h-2.4V152.8z M158.8,157.3h1.1c0.7,0,1.4-0.4,1.4-1.7
		c0-1.1-0.4-1.8-1.6-1.8h-0.9V157.3z"/>
	<path d="M163.2,155.5c0.1-1,1-1.3,1.9-1.3c0.8,0,1.8,0.2,1.8,1.1v2.1c0,0.4,0,0.7,0.1,0.9h-1.1c0-0.1-0.1-0.3-0.1-0.4
		c-0.3,0.4-0.9,0.5-1.3,0.5c-0.8,0-1.4-0.4-1.4-1.2c0-0.9,0.7-1.1,1.4-1.2c0.7-0.1,1.3-0.1,1.3-0.5c0-0.5-0.3-0.5-0.7-0.5
		c-0.4,0-0.7,0.2-0.7,0.6H163.2z M165.7,156.3c-0.2,0.2-0.6,0.2-0.9,0.2c-0.3,0.1-0.6,0.2-0.6,0.6c0,0.4,0.3,0.5,0.7,0.5
		c0.9,0,0.9-0.7,0.9-0.9V156.3z"/>
	<path d="M170.5,157.8L170.5,157.8c-0.3,0.4-0.7,0.6-1.2,0.6c-1.2,0-1.8-1-1.8-2.1c0-1.1,0.6-2.1,1.8-2.1c0.5,0,0.9,0.2,1.2,0.6h0
		v-2h1.1v5.5h-1V157.8z M169.5,155c-0.7,0-1,0.6-1,1.3c0,0.6,0.3,1.3,1,1.3c0.7,0,0.9-0.6,0.9-1.3C170.5,155.6,170.3,155,169.5,155z
		"/>
	<path d="M173.3,156.6c0,0.7,0.4,1,1,1c0.4,0,0.8-0.3,0.9-0.5h1c-0.3,0.9-1,1.3-1.9,1.3c-1.3,0-2-0.9-2-2.1c0-1.2,0.8-2.1,2-2.1
		c1.4,0,2,1.1,1.9,2.4H173.3z M175.1,155.9c-0.1-0.6-0.3-0.8-0.9-0.8c-0.7,0-0.9,0.5-0.9,0.8H175.1z"/>
	<path d="M177.8,157c0,0.5,0.4,0.7,0.8,0.7c0.3,0,0.7-0.1,0.7-0.5c0-0.3-0.5-0.4-1.2-0.6c-0.6-0.1-1.3-0.4-1.3-1.1
		c0-1,0.9-1.3,1.7-1.3c0.9,0,1.7,0.3,1.8,1.3h-1c0-0.4-0.4-0.5-0.7-0.5c-0.2,0-0.6,0-0.6,0.4c0,0.4,0.6,0.4,1.2,0.6
		c0.6,0.1,1.3,0.4,1.3,1.1c0,1-0.9,1.4-1.8,1.4c-0.9,0-1.8-0.3-1.9-1.4H177.8z"/>
</g>
<g>
	<path d="M13.5,165.6H16c1.4,0,1.9,0.9,1.9,1.8c0,0.9-0.5,1.8-1.9,1.8h-1.3v2h-1.2V165.6z M14.7,168.2h0.9c0.6,0,1.1-0.1,1.1-0.8
		c0-0.7-0.5-0.8-1.1-0.8h-0.9V168.2z"/>
	<path d="M20.3,167c1.3,0,2.1,0.8,2.1,2.1c0,1.3-0.8,2.1-2.1,2.1c-1.3,0-2.1-0.8-2.1-2.1C18.3,167.8,19.1,167,20.3,167z M20.3,170.4
		c0.7,0,1-0.6,1-1.3c0-0.6-0.2-1.3-1-1.3c-0.7,0-1,0.6-1,1.3C19.4,169.7,19.6,170.4,20.3,170.4z"/>
	<path d="M24.5,167.1h0.8v0.7h-0.8v2c0,0.4,0.1,0.5,0.5,0.5c0.1,0,0.2,0,0.3,0v0.9c-0.2,0-0.4,0-0.6,0c-0.7,0-1.3-0.2-1.3-0.9v-2.4
		h-0.7v-0.7h0.7v-1.2h1.1V167.1z"/>
	<path d="M28.9,169.4c0,0.7,0.4,1,1,1c0.4,0,0.8-0.3,0.9-0.5h1c-0.3,0.9-1,1.3-1.9,1.3c-1.3,0-2-0.9-2-2.1c0-1.2,0.8-2.1,2-2.1
		c1.4,0,2,1.1,1.9,2.4H28.9z M30.7,168.7c-0.1-0.6-0.3-0.8-0.9-0.8c-0.7,0-0.9,0.5-0.9,0.8H30.7z"/>
	<path d="M33.3,169l-1.3-1.9h1.3l0.7,1l0.7-1h1.2l-1.3,1.9l1.5,2.1h-1.3l-0.8-1.3l-0.8,1.3h-1.2L33.3,169z"/>
	<path d="M37.2,169.4c0,0.7,0.4,1,1,1c0.4,0,0.8-0.3,0.9-0.5h1c-0.3,0.9-1,1.3-1.9,1.3c-1.3,0-2-0.9-2-2.1c0-1.2,0.8-2.1,2-2.1
		c1.4,0,2,1.1,1.9,2.4H37.2z M38.9,168.7c-0.1-0.6-0.3-0.8-0.9-0.8c-0.7,0-0.9,0.5-0.9,0.8H38.9z"/>
	<path d="M40.7,167.1h1v0.7h0c0.2-0.5,0.7-0.8,1.3-0.8c0.1,0,0.2,0,0.2,0v1c-0.1,0-0.3,0-0.4,0c-0.8,0-1.1,0.6-1.1,1.3v1.8h-1.1
		V167.1z"/>
	<path d="M46,168.5c-0.1-0.4-0.4-0.7-0.8-0.7c-0.7,0-0.9,0.7-0.9,1.3c0,0.6,0.2,1.3,0.9,1.3c0.5,0,0.8-0.3,0.9-0.8h1.1
		c-0.1,1.1-0.9,1.6-1.9,1.6c-1.2,0-2-0.8-2-2c0-1.2,0.7-2.2,2-2.2c0.9,0,1.8,0.5,1.9,1.5H46z"/>
	<path d="M48.8,166.5h-1.1v-0.9h1.1V166.5z M47.7,167.1h1.1v4h-1.1V167.1z"/>
	<path d="M49.7,167.1h1v0.7h0c0.2-0.5,0.7-0.8,1.3-0.8c0.1,0,0.2,0,0.2,0v1c-0.1,0-0.3,0-0.4,0c-0.8,0-1.1,0.6-1.1,1.3v1.8h-1.1
		V167.1z"/>
	<path d="M55.7,169.4c0,0.7,0.4,1,1,1c0.4,0,0.8-0.3,0.9-0.5h1c-0.3,0.9-1,1.3-1.9,1.3c-1.3,0-2-0.9-2-2.1c0-1.2,0.8-2.1,2-2.1
		c1.4,0,2,1.1,1.9,2.4H55.7z M57.5,168.7c-0.1-0.6-0.3-0.8-0.9-0.8c-0.7,0-0.9,0.5-0.9,0.8H57.5z"/>
	<path d="M59.3,165.6h1.1v5.5h-1.1V165.6z"/>
	<path d="M62.1,169.8c0,0.5,0.4,0.7,0.8,0.7c0.3,0,0.7-0.1,0.7-0.5c0-0.3-0.5-0.4-1.2-0.6c-0.6-0.1-1.3-0.4-1.3-1.1
		c0-1,0.9-1.3,1.7-1.3c0.9,0,1.7,0.3,1.8,1.3h-1c0-0.4-0.4-0.5-0.7-0.5c-0.2,0-0.6,0-0.6,0.4c0,0.4,0.6,0.4,1.2,0.6
		c0.6,0.1,1.3,0.4,1.3,1.1c0,1-0.9,1.4-1.8,1.4c-0.9,0-1.8-0.3-1.9-1.4H62.1z"/>
	<path d="M68.4,169.8c0,0.5,0.4,0.7,0.8,0.7c0.3,0,0.7-0.1,0.7-0.5c0-0.3-0.5-0.4-1.2-0.6c-0.6-0.1-1.3-0.4-1.3-1.1
		c0-1,0.9-1.3,1.7-1.3c0.9,0,1.7,0.3,1.8,1.3h-1c0-0.4-0.4-0.5-0.7-0.5c-0.2,0-0.6,0-0.6,0.4c0,0.4,0.6,0.4,1.2,0.6
		c0.6,0.1,1.3,0.4,1.3,1.1c0,1-0.9,1.4-1.8,1.4c-0.9,0-1.8-0.3-1.9-1.4H68.4z"/>
	<path d="M72.6,169.4c0,0.7,0.4,1,1,1c0.4,0,0.8-0.3,0.9-0.5h1c-0.3,0.9-1,1.3-1.9,1.3c-1.3,0-2-0.9-2-2.1c0-1.2,0.8-2.1,2-2.1
		c1.4,0,2,1.1,1.9,2.4H72.6z M74.4,168.7c-0.1-0.6-0.3-0.8-0.9-0.8c-0.7,0-0.9,0.5-0.9,0.8H74.4z"/>
	<path d="M79.9,171.1h-1v-0.6h0c-0.3,0.4-0.8,0.7-1.2,0.7c-1.2,0-1.5-0.7-1.5-1.6v-2.5h1.1v2.3c0,0.7,0.2,1,0.7,1
		c0.6,0,0.8-0.3,0.8-1.1v-2.1h1.1V171.1z"/>
	<path d="M81.6,169.8c0,0.5,0.4,0.7,0.8,0.7c0.3,0,0.7-0.1,0.7-0.5c0-0.3-0.5-0.4-1.2-0.6c-0.6-0.1-1.3-0.4-1.3-1.1
		c0-1,0.9-1.3,1.7-1.3c0.9,0,1.7,0.3,1.8,1.3h-1c0-0.4-0.4-0.5-0.7-0.5c-0.2,0-0.6,0-0.6,0.4c0,0.4,0.6,0.4,1.2,0.6
		c0.6,0.1,1.3,0.4,1.3,1.1c0,1-0.9,1.4-1.8,1.4c-0.9,0-1.8-0.3-1.9-1.4H81.6z"/>
	<path d="M89.9,170.6L89.9,170.6c-0.3,0.4-0.7,0.6-1.2,0.6c-1.2,0-1.8-1-1.8-2.1c0-1.1,0.6-2.1,1.8-2.1c0.5,0,0.9,0.2,1.2,0.6h0v-2
		h1.1v5.5h-1V170.6z M88.9,167.8c-0.7,0-1,0.6-1,1.3c0,0.6,0.3,1.3,1,1.3c0.7,0,0.9-0.6,0.9-1.3C89.9,168.4,89.6,167.8,88.9,167.8z"
		/>
	<path d="M91.5,167.1h1v0.7h0c0.2-0.5,0.7-0.8,1.3-0.8c0.1,0,0.2,0,0.2,0v1c-0.1,0-0.3,0-0.4,0c-0.8,0-1.1,0.6-1.1,1.3v1.8h-1.1
		V167.1z"/>
	<path d="M95.3,169.4c0,0.7,0.4,1,1,1c0.4,0,0.8-0.3,0.9-0.5h1c-0.3,0.9-1,1.3-1.9,1.3c-1.3,0-2-0.9-2-2.1c0-1.2,0.8-2.1,2-2.1
		c1.4,0,2,1.1,1.9,2.4H95.3z M97.1,168.7c-0.1-0.6-0.3-0.8-0.9-0.8c-0.7,0-0.9,0.5-0.9,0.8H97.1z"/>
	<path d="M100,167.1h0.8v0.7H100v2c0,0.4,0.1,0.5,0.5,0.5c0.1,0,0.2,0,0.3,0v0.9c-0.2,0-0.4,0-0.6,0c-0.7,0-1.3-0.2-1.3-0.9v-2.4
		h-0.7v-0.7h0.7v-1.2h1.1V167.1z"/>
	<path d="M102.2,169.8c0,0.5,0.4,0.7,0.8,0.7c0.3,0,0.7-0.1,0.7-0.5c0-0.3-0.5-0.4-1.2-0.6c-0.6-0.1-1.3-0.4-1.3-1.1
		c0-1,0.9-1.3,1.7-1.3c0.9,0,1.7,0.3,1.8,1.3h-1c0-0.4-0.4-0.5-0.7-0.5c-0.2,0-0.6,0-0.6,0.4c0,0.4,0.6,0.4,1.2,0.6
		c0.6,0.1,1.3,0.4,1.3,1.1c0,1-0.9,1.4-1.8,1.4c-0.9,0-1.8-0.3-1.9-1.4H102.2z"/>
	<path d="M110.5,170.6L110.5,170.6c-0.3,0.4-0.7,0.6-1.2,0.6c-1.2,0-1.8-1-1.8-2.1c0-1.1,0.6-2.1,1.8-2.1c0.5,0,0.9,0.2,1.2,0.6h0
		v-2h1.1v5.5h-1V170.6z M109.5,167.8c-0.7,0-1,0.6-1,1.3c0,0.6,0.3,1.3,1,1.3c0.7,0,0.9-0.6,0.9-1.3
		C110.5,168.4,110.2,167.8,109.5,167.8z"/>
	<path d="M112.3,168.3c0.1-1,1-1.3,1.9-1.3c0.8,0,1.8,0.2,1.8,1.1v2.1c0,0.4,0,0.7,0.1,0.9h-1.1c0-0.1-0.1-0.3-0.1-0.4
		c-0.3,0.4-0.9,0.5-1.3,0.5c-0.8,0-1.4-0.4-1.4-1.2c0-0.9,0.7-1.1,1.4-1.2c0.7-0.1,1.3-0.1,1.3-0.5c0-0.5-0.3-0.5-0.7-0.5
		c-0.4,0-0.7,0.2-0.7,0.6H112.3z M114.8,169.1c-0.2,0.2-0.6,0.2-0.9,0.2c-0.3,0.1-0.6,0.2-0.6,0.6c0,0.4,0.3,0.5,0.7,0.5
		c0.9,0,0.9-0.7,0.9-0.9V169.1z"/>
	<path d="M119,171.1h-1.2l-1.4-4h1.2l0.8,2.7h0l0.8-2.7h1.1L119,171.1z"/>
	<path d="M120.7,168.3c0.1-1,1-1.3,1.9-1.3c0.8,0,1.8,0.2,1.8,1.1v2.1c0,0.4,0,0.7,0.1,0.9h-1.1c0-0.1-0.1-0.3-0.1-0.4
		c-0.3,0.4-0.9,0.5-1.3,0.5c-0.8,0-1.4-0.4-1.4-1.2c0-0.9,0.7-1.1,1.4-1.2c0.7-0.1,1.3-0.1,1.3-0.5c0-0.5-0.3-0.5-0.7-0.5
		c-0.4,0-0.7,0.2-0.7,0.6H120.7z M123.3,169.1c-0.2,0.2-0.6,0.2-0.9,0.2c-0.3,0.1-0.6,0.2-0.6,0.6c0,0.4,0.3,0.5,0.7,0.5
		c0.9,0,0.9-0.7,0.9-0.9V169.1z"/>
	<path d="M125.2,167.1h1v0.6h0c0.3-0.4,0.8-0.7,1.2-0.7c1.2,0,1.5,0.7,1.5,1.6v2.5h-1.1v-2.3c0-0.7-0.2-1-0.7-1
		c-0.6,0-0.8,0.3-0.8,1.1v2.1h-1.1V167.1z"/>
	<path d="M131.2,167.1h0.8v0.7h-0.8v2c0,0.4,0.1,0.5,0.5,0.5c0.1,0,0.2,0,0.3,0v0.9c-0.2,0-0.4,0-0.6,0c-0.7,0-1.3-0.2-1.3-0.9v-2.4
		h-0.7v-0.7h0.7v-1.2h1.1V167.1z"/>
	<path d="M133.7,168.4h-1.2v-1.2h1.2V168.4z M132.5,169.9h1.2v1.2h-1.2V169.9z"/>
</g>
<g>
	<path d="M13.5,174.8h3.9v1h-2.7v1.3H17v0.9h-2.3v2.3h-1.2V174.8z"/>
	<path d="M18.9,178.6c0,0.7,0.4,1,1,1c0.4,0,0.8-0.3,0.9-0.5h1c-0.3,0.9-1,1.3-1.9,1.3c-1.3,0-2-0.9-2-2.1c0-1.2,0.8-2.1,2-2.1
		c1.4,0,2,1.1,1.9,2.4H18.9z M20.7,177.9c-0.1-0.6-0.3-0.8-0.9-0.8c-0.7,0-0.9,0.5-0.9,0.8H20.7z"/>
	<path d="M22.4,176.4h1v0.7h0c0.2-0.5,0.7-0.8,1.3-0.8c0.1,0,0.2,0,0.2,0v1c-0.1,0-0.3,0-0.4,0c-0.8,0-1.1,0.6-1.1,1.3v1.8h-1.1
		V176.4z"/>
	<path d="M25.4,176.4h1v0.7h0c0.2-0.5,0.7-0.8,1.3-0.8c0.1,0,0.2,0,0.2,0v1c-0.1,0-0.3,0-0.4,0c-0.8,0-1.1,0.6-1.1,1.3v1.8h-1.1
		V176.4z"/>
	<path d="M30.1,176.3c1.3,0,2.1,0.8,2.1,2.1c0,1.3-0.8,2.1-2.1,2.1c-1.3,0-2.1-0.8-2.1-2.1C28,177.1,28.8,176.3,30.1,176.3z
		 M30.1,179.6c0.7,0,1-0.6,1-1.3c0-0.6-0.2-1.3-1-1.3c-0.7,0-1,0.6-1,1.3C29.1,179,29.3,179.6,30.1,179.6z"/>
	<path d="M35.6,177.8c-0.1-0.4-0.4-0.7-0.8-0.7c-0.7,0-0.9,0.7-0.9,1.3c0,0.6,0.2,1.3,0.9,1.3c0.5,0,0.8-0.3,0.9-0.8h1.1
		c-0.1,1.1-0.9,1.6-1.9,1.6c-1.2,0-2-0.8-2-2c0-1.2,0.7-2.2,2-2.2c0.9,0,1.8,0.5,1.9,1.5H35.6z"/>
	<path d="M37.3,177.6c0.1-1,1-1.3,1.9-1.3c0.8,0,1.8,0.2,1.8,1.1v2.1c0,0.4,0,0.7,0.1,0.9h-1.1c0-0.1-0.1-0.3-0.1-0.4
		c-0.3,0.4-0.9,0.5-1.3,0.5c-0.8,0-1.4-0.4-1.4-1.2c0-0.9,0.7-1.1,1.4-1.2c0.7-0.1,1.3-0.1,1.3-0.5c0-0.5-0.3-0.5-0.7-0.5
		c-0.4,0-0.7,0.2-0.7,0.6H37.3z M39.8,178.4c-0.2,0.2-0.6,0.2-0.9,0.2c-0.3,0.1-0.6,0.2-0.6,0.6c0,0.4,0.3,0.5,0.7,0.5
		c0.9,0,0.9-0.7,0.9-0.9V178.4z"/>
	<path d="M41.7,176.4h1v0.7h0c0.2-0.5,0.7-0.8,1.3-0.8c0.1,0,0.2,0,0.2,0v1c-0.1,0-0.3,0-0.4,0c-0.8,0-1.1,0.6-1.1,1.3v1.8h-1.1
		V176.4z"/>
	<path d="M44.7,176.4h1v0.7h0c0.2-0.5,0.7-0.8,1.3-0.8c0.1,0,0.2,0,0.2,0v1c-0.1,0-0.3,0-0.4,0c-0.8,0-1.1,0.6-1.1,1.3v1.8h-1.1
		V176.4z"/>
	<path d="M48.9,175.8h-1.1v-0.9h1.1V175.8z M47.8,176.4h1.1v4h-1.1V176.4z"/>
	<path d="M49.8,174.8h1.1v5.5h-1.1V174.8z"/>
	<path d="M54,174.8h1.7l1.3,3.8h0l1.2-3.8h1.7v5.5h-1.1v-3.9h0l-1.4,3.9h-0.9l-1.4-3.9h0v3.9H54V174.8z"/>
	<path d="M61.8,178.6c0,0.7,0.4,1,1,1c0.4,0,0.8-0.3,0.9-0.5h1c-0.3,0.9-1,1.3-1.9,1.3c-1.3,0-2-0.9-2-2.1c0-1.2,0.8-2.1,2-2.1
		c1.4,0,2,1.1,1.9,2.4H61.8z M63.6,177.9c-0.1-0.6-0.3-0.8-0.9-0.8c-0.7,0-0.9,0.5-0.9,0.8H63.6z"/>
	<path d="M66.7,176.4h0.8v0.7h-0.8v2c0,0.4,0.1,0.5,0.5,0.5c0.1,0,0.2,0,0.3,0v0.9c-0.2,0-0.4,0-0.6,0c-0.7,0-1.3-0.2-1.3-0.9v-2.4
		h-0.7v-0.7h0.7v-1.2h1.1V176.4z"/>
	<path d="M68,176.4h1v0.7h0c0.2-0.5,0.7-0.8,1.3-0.8c0.1,0,0.2,0,0.2,0v1c-0.1,0-0.3,0-0.4,0c-0.8,0-1.1,0.6-1.1,1.3v1.8H68V176.4z"
		/>
	<path d="M72.7,176.3c1.3,0,2.1,0.8,2.1,2.1c0,1.3-0.8,2.1-2.1,2.1c-1.3,0-2.1-0.8-2.1-2.1C70.6,177.1,71.4,176.3,72.7,176.3z
		 M72.7,179.6c0.7,0,1-0.6,1-1.3c0-0.6-0.2-1.3-1-1.3c-0.7,0-1,0.6-1,1.3C71.7,179,72,179.6,72.7,179.6z"/>
	<path d="M75.5,176.4h1v0.5h0c0.3-0.4,0.7-0.6,1.2-0.6c1.3,0,1.8,1,1.8,2.1c0,1.1-0.6,2.1-1.8,2.1c-0.5,0-0.9-0.2-1.2-0.6h0v1.9
		h-1.1V176.4z M78.4,178.4c0-0.6-0.3-1.3-1-1.3c-0.7,0-0.9,0.6-0.9,1.3s0.2,1.3,1,1.3C78.2,179.6,78.4,179,78.4,178.4z"/>
	<path d="M82.1,176.3c1.3,0,2.1,0.8,2.1,2.1c0,1.3-0.8,2.1-2.1,2.1c-1.3,0-2.1-0.8-2.1-2.1C80.1,177.1,80.9,176.3,82.1,176.3z
		 M82.1,179.6c0.7,0,1-0.6,1-1.3c0-0.6-0.2-1.3-1-1.3c-0.7,0-1,0.6-1,1.3C81.2,179,81.4,179.6,82.1,179.6z"/>
	<path d="M85,174.8H86v5.5H85V174.8z"/>
	<path d="M88,175.8h-1.1v-0.9H88V175.8z M86.9,176.4H88v4h-1.1V176.4z"/>
	<path d="M90.3,176.4h0.8v0.7h-0.8v2c0,0.4,0.1,0.5,0.5,0.5c0.1,0,0.2,0,0.3,0v0.9c-0.2,0-0.4,0-0.6,0c-0.7,0-1.3-0.2-1.3-0.9v-2.4
		h-0.7v-0.7h0.7v-1.2h1.1V176.4z"/>
	<path d="M91.6,177.6c0.1-1,1-1.3,1.9-1.3c0.8,0,1.8,0.2,1.8,1.1v2.1c0,0.4,0,0.7,0.1,0.9h-1.1c0-0.1-0.1-0.3-0.1-0.4
		c-0.3,0.4-0.9,0.5-1.3,0.5c-0.8,0-1.4-0.4-1.4-1.2c0-0.9,0.7-1.1,1.4-1.2c0.7-0.1,1.3-0.1,1.3-0.5c0-0.5-0.3-0.5-0.7-0.5
		c-0.4,0-0.7,0.2-0.7,0.6H91.6z M92.1,174.8h1.2l0.7,1.1h-0.8L92.1,174.8z M94.1,178.4c-0.2,0.2-0.6,0.2-0.9,0.2
		c-0.3,0.1-0.6,0.2-0.6,0.6c0,0.4,0.3,0.5,0.7,0.5c0.9,0,0.9-0.7,0.9-0.9V178.4z"/>
	<path d="M101.1,179.8L101.1,179.8c-0.3,0.4-0.7,0.6-1.2,0.6c-1.2,0-1.8-1-1.8-2.1c0-1.1,0.6-2.1,1.8-2.1c0.5,0,0.9,0.2,1.2,0.6h0
		v-2h1.1v5.5h-1V179.8z M100.1,177.1c-0.7,0-1,0.6-1,1.3c0,0.6,0.3,1.3,1,1.3c0.7,0,0.9-0.6,0.9-1.3
		C101,177.7,100.8,177.1,100.1,177.1z"/>
	<path d="M103.8,178.6c0,0.7,0.4,1,1,1c0.4,0,0.8-0.3,0.9-0.5h1c-0.3,0.9-1,1.3-1.9,1.3c-1.3,0-2-0.9-2-2.1c0-1.2,0.8-2.1,2-2.1
		c1.4,0,2,1.1,1.9,2.4H103.8z M105.6,177.9c-0.1-0.6-0.3-0.8-0.9-0.8c-0.7,0-0.9,0.5-0.9,0.8H105.6z"/>
	<path d="M109.6,174.8h2.6c1,0,1.8,0.3,1.8,1.4c0,0.5-0.3,0.9-0.7,1.2c0.7,0.2,1,0.7,1,1.4c0,1.1-0.9,1.6-1.9,1.6h-2.7V174.8z
		 M110.8,177.1h1.2c0.4,0,0.7-0.2,0.7-0.7c0-0.5-0.4-0.6-0.8-0.6h-1.1V177.1z M110.8,179.4h1.3c0.5,0,0.9-0.2,0.9-0.7
		c0-0.6-0.4-0.8-0.9-0.8h-1.3V179.4z"/>
	<path d="M114.9,177.6c0.1-1,1-1.3,1.9-1.3c0.8,0,1.8,0.2,1.8,1.1v2.1c0,0.4,0,0.7,0.1,0.9h-1.1c0-0.1-0.1-0.3-0.1-0.4
		c-0.3,0.4-0.9,0.5-1.3,0.5c-0.8,0-1.4-0.4-1.4-1.2c0-0.9,0.7-1.1,1.4-1.2c0.7-0.1,1.3-0.1,1.3-0.5c0-0.5-0.3-0.5-0.7-0.5
		c-0.4,0-0.7,0.2-0.7,0.6H114.9z M117.4,178.4c-0.2,0.2-0.6,0.2-0.9,0.2c-0.3,0.1-0.6,0.2-0.6,0.6c0,0.4,0.3,0.5,0.7,0.5
		c0.9,0,0.9-0.7,0.9-0.9V178.4z"/>
	<path d="M119.4,176.4h1v0.7h0c0.2-0.5,0.7-0.8,1.3-0.8c0.1,0,0.2,0,0.2,0v1c-0.1,0-0.3,0-0.4,0c-0.8,0-1.1,0.6-1.1,1.3v1.8h-1.1
		V176.4z"/>
	<path d="M124.7,177.8c-0.1-0.4-0.4-0.7-0.8-0.7c-0.7,0-0.9,0.7-0.9,1.3c0,0.6,0.2,1.3,0.9,1.3c0.5,0,0.8-0.3,0.9-0.8h1.1
		c-0.1,1.1-0.9,1.6-1.9,1.6c-1.2,0-2-0.8-2-2c0-1.2,0.7-2.2,2-2.2c0.9,0,1.8,0.5,1.9,1.5H124.7z"/>
	<path d="M127.4,178.6c0,0.7,0.4,1,1,1c0.4,0,0.8-0.3,0.9-0.5h1c-0.3,0.9-1,1.3-1.9,1.3c-1.3,0-2-0.9-2-2.1c0-1.2,0.8-2.1,2-2.1
		c1.4,0,2,1.1,1.9,2.4H127.4z M129.1,177.9c-0.1-0.6-0.3-0.8-0.9-0.8c-0.7,0-0.9,0.5-0.9,0.8H129.1z"/>
	<path d="M130.9,174.8h1.1v5.5h-1.1V174.8z"/>
	<path d="M134.8,176.3c1.3,0,2.1,0.8,2.1,2.1c0,1.3-0.8,2.1-2.1,2.1c-1.2,0-2.1-0.8-2.1-2.1C132.8,177.1,133.6,176.3,134.8,176.3z
		 M134.8,179.6c0.7,0,1-0.6,1-1.3c0-0.6-0.2-1.3-1-1.3c-0.7,0-1,0.6-1,1.3C133.9,179,134.1,179.6,134.8,179.6z"/>
	<path d="M137.6,176.4h1v0.6h0c0.3-0.4,0.8-0.7,1.2-0.7c1.2,0,1.5,0.7,1.5,1.6v2.5h-1.1v-2.3c0-0.7-0.2-1-0.7-1
		c-0.6,0-0.8,0.3-0.8,1.1v2.1h-1.1V176.4z"/>
	<path d="M142.1,177.6c0.1-1,1-1.3,1.9-1.3c0.8,0,1.8,0.2,1.8,1.1v2.1c0,0.4,0,0.7,0.1,0.9h-1.1c0-0.1-0.1-0.3-0.1-0.4
		c-0.3,0.4-0.9,0.5-1.3,0.5c-0.8,0-1.4-0.4-1.4-1.2c0-0.9,0.7-1.1,1.4-1.2c0.7-0.1,1.3-0.1,1.3-0.5c0-0.5-0.3-0.5-0.7-0.5
		c-0.4,0-0.7,0.2-0.7,0.6H142.1z M144.7,178.4c-0.2,0.2-0.6,0.2-0.9,0.2c-0.3,0.1-0.6,0.2-0.6,0.6c0,0.4,0.3,0.5,0.7,0.5
		c0.9,0,0.9-0.7,0.9-0.9V178.4z"/>
	<path d="M149.7,178.5c0,0.7,0.6,1,1.2,1c0.4,0,1.1-0.1,1.1-0.7c0-0.6-0.8-0.7-1.6-0.9c-0.8-0.2-1.6-0.5-1.6-1.6
		c0-1.1,1.1-1.7,2.1-1.7c1.2,0,2.2,0.5,2.2,1.8h-1.2c0-0.7-0.5-0.8-1.1-0.8c-0.4,0-0.8,0.2-0.8,0.6c0,0.4,0.3,0.5,1.6,0.8
		c0.4,0.1,1.6,0.4,1.6,1.6c0,1-0.8,1.8-2.3,1.8c-1.2,0-2.4-0.6-2.3-2H149.7z"/>
	<path d="M155.4,174.8h1.2l2.1,5.5h-1.3l-0.4-1.2H155l-0.4,1.2h-1.2L155.4,174.8z M155.3,178.2h1.4l-0.7-2h0L155.3,178.2z"/>
</g>
<g>
	<path d="M17.2,186c-0.1-0.5-0.6-1-1.2-1c-1.1,0-1.5,0.9-1.5,1.9c0,0.9,0.4,1.8,1.5,1.8c0.7,0,1.2-0.5,1.3-1.2h1.2
		c-0.1,1.4-1.1,2.3-2.4,2.3c-1.7,0-2.7-1.3-2.7-2.9c0-1.6,1-2.9,2.7-2.9c1.2,0,2.2,0.7,2.4,2H17.2z"/>
	<path d="M19.1,186.9c0.1-1,1-1.3,1.9-1.3c0.8,0,1.8,0.2,1.8,1.1v2.1c0,0.4,0,0.7,0.1,0.9h-1.1c0-0.1-0.1-0.3-0.1-0.4
		c-0.3,0.4-0.9,0.5-1.3,0.5c-0.8,0-1.4-0.4-1.4-1.2c0-0.9,0.7-1.1,1.4-1.2c0.7-0.1,1.3-0.1,1.3-0.5c0-0.5-0.3-0.5-0.7-0.5
		c-0.4,0-0.7,0.2-0.7,0.6H19.1z M21.6,187.7c-0.2,0.2-0.6,0.2-0.9,0.2c-0.3,0.1-0.6,0.2-0.6,0.6c0,0.4,0.3,0.5,0.7,0.5
		c0.9,0,0.9-0.7,0.9-0.9V187.7z"/>
	<path d="M23.6,185.6h1v0.7h0c0.2-0.5,0.7-0.8,1.3-0.8c0.1,0,0.2,0,0.2,0v1c-0.1,0-0.3,0-0.4,0c-0.8,0-1.1,0.6-1.1,1.3v1.8h-1.1
		V185.6z"/>
	<path d="M26.6,185.6h1v0.7h0c0.2-0.5,0.7-0.8,1.3-0.8c0.1,0,0.2,0,0.2,0v1c-0.1,0-0.3,0-0.4,0c-0.8,0-1.1,0.6-1.1,1.3v1.8h-1.1
		V185.6z"/>
	<path d="M30.2,187.9c0,0.7,0.4,1,1,1c0.4,0,0.8-0.3,0.9-0.5h1c-0.3,0.9-1,1.3-1.9,1.3c-1.3,0-2-0.9-2-2.1c0-1.2,0.8-2.1,2-2.1
		c1.4,0,2,1.1,1.9,2.4H30.2z M32,187.2c-0.1-0.6-0.3-0.8-0.9-0.8c-0.7,0-0.9,0.5-0.9,0.8H32z"/>
	<path d="M33.7,185.6h1v0.7h0c0.2-0.5,0.7-0.8,1.3-0.8c0.1,0,0.2,0,0.2,0v1c-0.1,0-0.3,0-0.4,0c-0.8,0-1.1,0.6-1.1,1.3v1.8h-1.1
		V185.6z"/>
	<path d="M41.5,185.6c-0.1-0.4-0.3-0.7-0.7-0.7c-0.8,0-1,1-1,1.6l0,0c0.3-0.4,0.7-0.6,1.2-0.6c0.5,0,0.9,0.2,1.2,0.6
		c0.3,0.3,0.4,0.8,0.4,1.2c0,1.1-0.8,2-1.9,2c-1.6,0-2.1-1.4-2.1-2.8c0-1.3,0.6-2.8,2.1-2.8c0.9,0,1.6,0.5,1.8,1.5H41.5z
		 M39.8,187.8c0,0.5,0.3,1,0.9,1c0.5,0,0.8-0.5,0.8-1c0-0.5-0.3-1-0.8-1C40.1,186.8,39.8,187.3,39.8,187.8z"/>
	<path d="M44.9,184.1c1.1,0,2,0.7,2,2.8c0,2.2-0.9,2.8-2,2.8c-1.1,0-2-0.7-2-2.8C42.9,184.8,43.8,184.1,44.9,184.1z M44.9,188.8
		c0.9,0,0.9-1.3,0.9-1.9c0-0.6,0-1.9-0.9-1.9c-0.9,0-0.9,1.3-0.9,1.9C44,187.5,44,188.8,44.9,188.8z"/>
	<path d="M47.5,188.4h1.2v1.2c0,0.7-0.5,1.2-1.2,1.3v-0.6c0.3-0.1,0.6-0.4,0.5-0.7h-0.6V188.4z"/>
	<path d="M51.8,185.6h1v0.6h0c0.3-0.4,0.8-0.7,1.2-0.7c1.2,0,1.5,0.7,1.5,1.6v2.5h-1.1v-2.3c0-0.7-0.2-1-0.7-1
		c-0.6,0-0.8,0.3-0.8,1.1v2.1h-1.1V185.6z"/>
	<path d="M60.1,189.6h-1v-0.6h0c-0.3,0.4-0.8,0.7-1.2,0.7c-1.2,0-1.5-0.7-1.5-1.6v-2.5h1.1v2.3c0,0.7,0.2,1,0.7,1
		c0.6,0,0.8-0.3,0.8-1.1v-2.1h1.1V189.6z M58.4,185.1h-0.8l0.7-1.1h1.2L58.4,185.1z"/>
	<path d="M61,185.6h1v0.5h0c0.3-0.4,0.7-0.6,1.2-0.6c0.5,0,0.9,0.2,1.2,0.7c0.2-0.3,0.6-0.7,1.2-0.7c0.8,0,1.5,0.4,1.5,1.4v2.7H66
		v-2.3c0-0.5,0-1-0.7-1c-0.6,0-0.7,0.5-0.7,1v2.2h-1.1v-2.2c0-0.5,0-1-0.7-1c-0.2,0-0.7,0.1-0.7,0.9v2.3H61V185.6z"/>
	<path d="M69.9,186.3c0-1.2,0.7-2.2,2-2.2c1,0,1.9,0.6,1.9,1.7c0,0.8-0.4,1.3-1,1.6c-0.5,0.4-1.2,0.7-1.6,1.2h2.6v0.9h-4
		c0-1.3,0.8-1.8,1.7-2.4c0.5-0.3,1.1-0.7,1.1-1.3c0-0.5-0.3-0.8-0.8-0.8c-0.6,0-0.9,0.7-0.9,1.2H69.9z"/>
	<path d="M77,189.6h-1.1v-3.5h-1.4v-0.8c0.8,0,1.5-0.2,1.6-1.1H77V189.6z"/>
	<path d="M78.7,187.1H81v0.9h-2.3V187.1z"/>
	<path d="M81.7,186.3c0-1.2,0.7-2.2,2-2.2c1,0,1.9,0.6,1.9,1.7c0,0.8-0.4,1.3-1,1.6c-0.5,0.4-1.2,0.7-1.6,1.2h2.6v0.9h-4
		c0-1.3,0.8-1.8,1.7-2.4c0.5-0.3,1.1-0.7,1.1-1.3c0-0.5-0.3-0.8-0.8-0.8c-0.6,0-0.9,0.7-0.9,1.2H81.7z"/>
	<path d="M87.4,186.4c0.5,0,1.2-0.1,1.2-0.7c0-0.5-0.4-0.7-0.8-0.7c-0.5,0-0.8,0.4-0.8,1h-1c0-1.1,0.8-1.9,1.9-1.9
		c0.9,0,1.8,0.5,1.8,1.5c0,0.5-0.3,1-0.8,1.1v0c0.6,0.1,1,0.6,1,1.2c0,1.1-0.9,1.8-2,1.8c-1.2,0-2-0.7-2-2h1c0,0.6,0.3,1.1,0.9,1.1
		c0.5,0,0.9-0.3,0.9-0.8c0-0.8-0.7-0.8-1.3-0.8V186.4z"/>
	<path d="M90.5,188.4h1.2v1.2c0,0.7-0.5,1.2-1.2,1.3v-0.6c0.3-0.1,0.6-0.4,0.5-0.7h-0.6V188.4z"/>
	<path d="M95.5,188.3c0,0.5,0.4,0.7,0.8,0.7c0.3,0,0.7-0.1,0.7-0.5c0-0.3-0.5-0.4-1.2-0.6c-0.6-0.1-1.3-0.4-1.3-1.1
		c0-1,0.9-1.3,1.7-1.3c0.9,0,1.7,0.3,1.8,1.3h-1c0-0.4-0.4-0.5-0.7-0.5c-0.2,0-0.6,0-0.6,0.4c0,0.4,0.6,0.4,1.2,0.6
		c0.6,0.1,1.3,0.4,1.3,1.1c0,1-0.9,1.4-1.8,1.4c-0.9,0-1.8-0.3-1.9-1.4H95.5z"/>
	<path d="M99.7,187.9c0,0.7,0.4,1,1,1c0.4,0,0.8-0.3,0.9-0.5h1c-0.3,0.9-1,1.3-1.9,1.3c-1.3,0-2-0.9-2-2.1c0-1.2,0.8-2.1,2-2.1
		c1.4,0,2,1.1,1.9,2.4H99.7z M101.5,187.2c-0.1-0.6-0.3-0.8-0.9-0.8c-0.7,0-0.9,0.5-0.9,0.8H101.5z"/>
	<path d="M106,187c-0.1-0.4-0.4-0.7-0.8-0.7c-0.7,0-0.9,0.7-0.9,1.3c0,0.6,0.2,1.3,0.9,1.3c0.5,0,0.8-0.3,0.9-0.8h1.1
		c-0.1,1.1-0.9,1.6-1.9,1.6c-1.2,0-2-0.8-2-2c0-1.2,0.7-2.2,2-2.2c0.9,0,1.8,0.5,1.9,1.5H106z"/>
	<path d="M109.1,185.6h0.8v0.7h-0.8v2c0,0.4,0.1,0.5,0.5,0.5c0.1,0,0.2,0,0.3,0v0.9c-0.2,0-0.4,0-0.6,0c-0.7,0-1.3-0.2-1.3-0.9v-2.4
		h-0.7v-0.7h0.7v-1.2h1.1V185.6z"/>
	<path d="M112.4,185.5c1.3,0,2.1,0.8,2.1,2.1c0,1.3-0.8,2.1-2.1,2.1c-1.2,0-2.1-0.8-2.1-2.1C110.3,186.4,111.1,185.5,112.4,185.5z
		 M112.4,188.9c0.7,0,1-0.6,1-1.3c0-0.6-0.2-1.3-1-1.3c-0.7,0-1,0.6-1,1.3C111.4,188.3,111.6,188.9,112.4,188.9z"/>
	<path d="M115.2,185.6h1v0.7h0c0.2-0.5,0.7-0.8,1.3-0.8c0.1,0,0.2,0,0.2,0v1c-0.1,0-0.3,0-0.4,0c-0.8,0-1.1,0.6-1.1,1.3v1.8h-1.1
		V185.6z"/>
	<path d="M121.9,184.1h1.2l2.1,5.5H124l-0.4-1.2h-2.1l-0.4,1.2h-1.2L121.9,184.1z M121.8,187.5h1.4l-0.7-2h0L121.8,187.5z"/>
	<path d="M125.6,188.4h1.2v1.2h-1.2V188.4z"/>
	<path d="M131.6,184.1c1.1,0,2,0.7,2,2.8c0,2.2-0.9,2.8-2,2.8c-1.1,0-2-0.7-2-2.8C129.6,184.8,130.5,184.1,131.6,184.1z
		 M131.6,188.8c0.9,0,0.9-1.3,0.9-1.9c0-0.6,0-1.9-0.9-1.9c-0.9,0-0.9,1.3-0.9,1.9C130.7,187.5,130.7,188.8,131.6,188.8z"/>
	<path d="M135.9,184.1c1.3,0,1.8,0.9,1.8,1.5c0,0.5-0.3,1-0.8,1.1v0c0.6,0.1,1,0.6,1,1.3c0,1.1-1,1.7-2,1.7c-1,0-2.1-0.5-2.1-1.7
		c0-0.7,0.4-1.2,1-1.3v0c-0.5-0.1-0.8-0.6-0.8-1.1C134.1,184.6,135,184.1,135.9,184.1z M135.9,188.9c0.5,0,0.9-0.4,0.9-0.9
		c0-0.5-0.4-0.9-0.9-0.9c-0.5,0-1,0.3-1,0.9S135.4,188.9,135.9,188.9z M135.9,186.4c0.4,0,0.8-0.2,0.8-0.7c0-0.3-0.1-0.7-0.8-0.7
		c-0.4,0-0.8,0.3-0.8,0.7C135.1,186.2,135.5,186.4,135.9,186.4z"/>
	<path d="M140.2,184.1c1.1,0,2,0.7,2,2.8c0,2.2-0.9,2.8-2,2.8c-1.1,0-2-0.7-2-2.8C138.2,184.8,139.1,184.1,140.2,184.1z
		 M140.2,188.8c0.9,0,0.9-1.3,0.9-1.9c0-0.6,0-1.9-0.9-1.9c-0.9,0-0.9,1.3-0.9,1.9C139.3,187.5,139.3,188.8,140.2,188.8z"/>
	<path d="M144.8,188.4h-2.3v-1l2.3-3.1h1v3.2h0.7v0.9h-0.7v1.3h-1V188.4z M144.8,185.6L144.8,185.6l-1.4,1.9h1.4V185.6z"/>
	<path d="M148.8,184.1c1.1,0,2,0.7,2,2.8c0,2.2-0.9,2.8-2,2.8c-1.1,0-2-0.7-2-2.8C146.8,184.8,147.7,184.1,148.8,184.1z
		 M148.8,188.8c0.9,0,0.9-1.3,0.9-1.9c0-0.6,0-1.9-0.9-1.9c-0.9,0-0.9,1.3-0.9,1.9C147.9,187.5,147.9,188.8,148.8,188.8z"/>
	<path d="M153.6,184.1h2.6c1,0,1.8,0.3,1.8,1.4c0,0.5-0.3,0.9-0.7,1.2c0.7,0.2,1,0.7,1,1.4c0,1.1-0.9,1.6-1.9,1.6h-2.7V184.1z
		 M154.8,186.3h1.2c0.4,0,0.7-0.2,0.7-0.7c0-0.5-0.4-0.6-0.8-0.6h-1.1V186.3z M154.8,188.7h1.3c0.5,0,0.9-0.2,0.9-0.7
		c0-0.6-0.4-0.8-0.9-0.8h-1.3V188.7z"/>
	<path d="M158.8,186.9c0.1-1,1-1.3,1.9-1.3c0.8,0,1.8,0.2,1.8,1.1v2.1c0,0.4,0,0.7,0.1,0.9h-1.1c0-0.1-0.1-0.3-0.1-0.4
		c-0.3,0.4-0.9,0.5-1.3,0.5c-0.8,0-1.4-0.4-1.4-1.2c0-0.9,0.7-1.1,1.4-1.2c0.7-0.1,1.3-0.1,1.3-0.5c0-0.5-0.3-0.5-0.7-0.5
		c-0.4,0-0.7,0.2-0.7,0.6H158.8z M161.3,187.7c-0.2,0.2-0.6,0.2-0.9,0.2c-0.3,0.1-0.6,0.2-0.6,0.6c0,0.4,0.3,0.5,0.7,0.5
		c0.9,0,0.9-0.7,0.9-0.9V187.7z"/>
	<path d="M163.1,185.6h1v0.7h0c0.2-0.5,0.7-0.8,1.3-0.8c0.1,0,0.2,0,0.2,0v1c-0.1,0-0.3,0-0.4,0c-0.8,0-1.1,0.6-1.1,1.3v1.8h-1.1
		V185.6z"/>
	<path d="M168.6,187c-0.1-0.4-0.4-0.7-0.8-0.7c-0.7,0-0.9,0.7-0.9,1.3c0,0.6,0.2,1.3,0.9,1.3c0.5,0,0.8-0.3,0.9-0.8h1.1
		c-0.1,1.1-0.9,1.6-1.9,1.6c-1.2,0-2-0.8-2-2c0-1.2,0.7-2.2,2-2.2c0.9,0,1.8,0.5,1.9,1.5H168.6z"/>
	<path d="M171.3,187.9c0,0.7,0.4,1,1,1c0.4,0,0.8-0.3,0.9-0.5h1c-0.3,0.9-1,1.3-1.9,1.3c-1.3,0-2-0.9-2-2.1c0-1.2,0.8-2.1,2-2.1
		c1.4,0,2,1.1,1.9,2.4H171.3z M173,187.2c-0.1-0.6-0.3-0.8-0.9-0.8c-0.7,0-0.9,0.5-0.9,0.8H173z"/>
	<path d="M174.8,184.1h1.1v5.5h-1.1V184.1z"/>
	<path d="M178.7,185.5c1.3,0,2.1,0.8,2.1,2.1c0,1.3-0.8,2.1-2.1,2.1c-1.2,0-2.1-0.8-2.1-2.1C176.7,186.4,177.5,185.5,178.7,185.5z
		 M178.7,188.9c0.7,0,1-0.6,1-1.3c0-0.6-0.2-1.3-1-1.3c-0.7,0-1,0.6-1,1.3C177.8,188.3,178,188.9,178.7,188.9z"/>
	<path d="M181.5,185.6h1v0.6h0c0.3-0.4,0.8-0.7,1.2-0.7c1.2,0,1.5,0.7,1.5,1.6v2.5h-1.1v-2.3c0-0.7-0.2-1-0.7-1
		c-0.6,0-0.8,0.3-0.8,1.1v2.1h-1.1V185.6z"/>
	<path d="M186,186.9c0.1-1,1-1.3,1.9-1.3c0.8,0,1.8,0.2,1.8,1.1v2.1c0,0.4,0,0.7,0.1,0.9h-1.1c0-0.1-0.1-0.3-0.1-0.4
		c-0.3,0.4-0.9,0.5-1.3,0.5c-0.8,0-1.4-0.4-1.4-1.2c0-0.9,0.7-1.1,1.4-1.2c0.7-0.1,1.3-0.1,1.3-0.5c0-0.5-0.3-0.5-0.7-0.5
		c-0.4,0-0.7,0.2-0.7,0.6H186z M188.6,187.7c-0.2,0.2-0.6,0.2-0.9,0.2c-0.3,0.1-0.6,0.2-0.6,0.6c0,0.4,0.3,0.5,0.7,0.5
		c0.9,0,0.9-0.7,0.9-0.9V187.7z"/>
</g>
<path class="st1" d="M197.5,2.5v195H2.5V2.5H197.5 M200,0H0v200h200V0z"/>
<path d="M1144.4,2275.7c0-5.5-4.5-10-10.1-10s-10.1,4.5-10.1,10s4.5,10,10.1,10C1139.9,2285.6,1144.4,2281.2,1144.4,2275.7
	 M1174,2392.3h-5.7c0.8,2.4,3.1,4.2,5.7,4.2c4.1,0,7.5-4.4,5.4-8.6c-0.8-1.7-2.5-3-4.4-3.2c-3.2-0.4-5.9,1.4-6.6,4.1h5.7
	c1,0,1.8,0.8,1.8,1.8C1175.8,2391.5,1174.9,2392.3,1174,2392.3 M1103.6,2396.5c2.8,0,5.3-1.9,5.9-4.6c0.7-3.4-1.3-6-4.1-7v5.6
	c0,1-0.8,1.8-1.8,1.8s-1.8-0.8-1.8-1.8v-5.6c-2.4,0.8-4.2,3-4.2,5.6C1097.6,2393.7,1100.2,2396.5,1103.6,2396.5 M1099.9,2381.7v-10
	c0-1.3,0.8-2.4,1.8-3.1v-39.5c-1.5-0.6-2.8-1.9-3.1-3.7c-0.5-2.6,1.3-5.1,4.1-5.6l24.5-4.2c0,0,7.8-23,8.3-23.8
	c0.3-0.5,0.7-1,1.1-1.3c0.6-0.6,1.6-1.3,2.4-1.6c3.4-1.4,9.7-1.3,11.7,3.2l12.4,29.2c1.4,3.4,0.8,7.3-1.8,10l6.3,15.6h25.9
	c2.6,0,5.1,1.6,5.8,4c1.1,3.7-1.8,7.2-5.5,7.2h-30.1c-2.3,0-4.4-1.3-5.2-3.4l-18.8-44.9l-4.1,12c-0.6,1.8-2.1,2.9-3.9,3.2l-26.5,4.5
	v39.2c0.5,0.3,1,0.6,1.3,1.1l19.2,18.8h32.7c0.8-7.7,7.5-13.6,15.4-13.6c1,0,1.8,0.8,1.8,1.8s-0.8,1.8-1.8,1.8
	c-6,0-10.9,4.3-11.7,10h2.3c0.9-5,6-8.7,11.6-7.5c3.5,0.8,6.4,3.6,7.3,7.1c1.5,6.3-3.4,11.9-9.5,11.9c-4.7,0-8.6-3.4-9.4-7.7h-39.3
	c-0.2,0-0.5,0-0.7-0.2s-0.3-0.2-0.5-0.3l-16.7-16.5v6.3c4.1,1.7,6.7,5.8,5.9,10.6c-0.6,3.6-3.4,6.5-6.9,7.5
	c-6.5,1.7-12.4-3.1-12.4-9.3C1093.9,2386.5,1096.3,2383.2,1099.9,2381.7L1099.9,2381.7z M1151.7,2342.9l-10.7,12.4v24.9
	c0,3.9-2.9,5.6-5.7,5.6c-3.1,0-5.7-2.5-5.7-5.6l-0.1-27c0-1.4,0.5-2.7,1.5-3.7l15.9-18L1151.7,2342.9z"/>
<polygon class="st2" points="1072.8,2256 1072.8,2264.1 1221.6,2413 1229.8,2413 1229.8,2404.9 1081,2256 "/>
<rect x="1071.8" y="2255" class="st3" width="159" height="159"/>
<polygon points="1744.6,1564.3 1746.2,1565.8 1745.7,1566.3 1744.2,1564.7 "/>
<path d="M1750.6,1566.9l-1.6-1.6l-1.3,0.9l0,0c0.4,0,0.7,0.2,1,0.4c0.7,0.7,0.8,1.7-0.1,2.6c-0.7,0.7-1.8,0.8-2.7-0.1
	c-0.7-0.7-0.8-1.6-0.1-2.3l0.5,0.5c-0.4,0.4-0.3,1,0.1,1.5c0.4,0.4,1.1,0.5,1.7-0.1c0.5-0.5,0.5-1.2,0-1.7c-0.3-0.3-0.7-0.4-1.1-0.4
	l-0.4-0.4l2.4-1.6l1.9,1.9L1750.6,1566.9z"/>
<path d="M1749.5,1571.9c0.8,0.8,1.8-0.2,2.4-0.8c0.6-0.6,1.6-1.6,0.8-2.3c-0.8-0.8-1.8,0.2-2.4,0.8
	C1749.7,1570.1,1748.7,1571.1,1749.5,1571.9 M1753.1,1568.4c1.2,1.2,0.2,2.4-0.7,3.3c-0.9,0.8-2.1,1.9-3.3,0.7s-0.2-2.4,0.7-3.2
	C1750.6,1568.2,1751.8,1567.2,1753.1,1568.4"/>
<path d="M1756.3,1575.5c0.3-0.4,0.2-0.9-0.1-1.3c-0.7-0.7-1.4-0.3-2,0.2c-0.5,0.5-0.8,1.3-0.2,1.9c0.4,0.4,1,0.4,1.5,0.1l0.5,0.5
	c-0.8,0.6-1.6,0.6-2.4-0.1c-0.9-0.9-0.7-1.9,0.1-2.8c0.8-0.8,2-1.1,2.9-0.2c0.6,0.6,0.9,1.4,0.3,2.2L1756.3,1575.5z"/>
<path d="M1758.2,1575.6l0.4,0.4l-0.4,0.4l0,0c0.5-0.1,1,0,1.4,0.4c0.3,0.3,0.5,0.8,0.3,1.3c0.5-0.1,1,0,1.4,0.4
	c0.6,0.6,0.7,1.2,0.1,1.8l-2.1,2.1l-0.5-0.5l1.9-1.8c0.3-0.3,0.5-0.7,0.1-1.2c-0.4-0.4-1-0.4-1.5,0l-1.8,1.8l-0.5-0.5l1.9-1.8
	c0.4-0.4,0.5-0.7,0.1-1.2c-0.6-0.5-1.3-0.2-1.5,0l-1.8,1.8l-0.5-0.5L1758.2,1575.6z"/>
<polygon points="1760.7,1582.5 1761.3,1583.1 1760.7,1583.7 1760.1,1583.1 "/>
<path d="M1721.7,1633c-3.2,0-5.8-2.7-6.3-6.2v0.1l-5-20.8l0,0l-16-25.5h-1.2l-0.3,0.8l-18.7,40.8l-2,4.5c-1.8,3.9-3.4,8.6-8.9,7.8
	c-3.6-0.6-5.8-4.1-4.2-7.8l20.9-49.8v-36.1l-10.9,13.8v20.7c0,2.6-2.2,4.7-4.8,4.7c-2.7,0-4.8-2.1-4.8-4.7v-22.8c0,0-0.4-3.5,1-4.5
	l10.9-14.4c5-6.8,10-6.2,10-6.2h0.4h17.8h2.1c7.7,0,8.9,2.4,14.1,8l23.4,24.4l0,0c1.8,1.9,1.7,4.9-0.3,6.7c-1.9,1.8-5,1.7-6.8-0.2
	l-24.7-25.4v4.2v31.9l13,21.7l2.6,5.4l5,22.7C1728.5,1629.6,1725.8,1633.3,1721.7,1633"/>
<path d="M1684.6,1513.2c0-6.1,5.1-11.1,11.3-11.1c6.2,0,11.3,5,11.3,11.1s-5,11.1-11.3,11.1
	C1689.7,1524.3,1684.6,1519.3,1684.6,1513.2"/>
<polygon points="1764.5,1589.7 1763,1591.6 1731.5,1559.9 1733.2,1558.3 "/>
<path d="M1733.4,1559.5c-0.2,0.6-0.9,0.9-1.5,0.7c-0.6-0.2-0.9-0.9-0.7-1.5c0.2-0.6,0.9-0.9,1.5-0.7
	C1733.3,1558.3,1733.7,1558.9,1733.4,1559.5"/>
<path d="M1749.1,1612.7h17.9v15.8c0,2.6,2.1,4.7,4.7,4.7s4.7-2.1,4.7-4.7v-15.8c1.4,0,1.6-0.9,1.6-2v-11.8l-14.9-7.2h-31.7l-4.1-2.3
	c-1.3-0.7-3-0.3-3.7,1s-0.3,3,1,3.7l6.5,3.7v30.8c0,2.6,2.1,4.7,4.7,4.7s4.7-2.1,4.7-4.7v-12.1l8.6,14.3c1.3,2.2,4.2,2.9,6.5,1.6
	c2.2-1.3,3-4.2,1.6-6.4L1749.1,1612.7z"/>
<path d="M1792,1585.5l-3.2,6.7h-10.9v3.9l-13.4-6.3v-19.5l26.7,12.6C1791.2,1582.9,1792.9,1583.7,1792,1585.5"/>
<path class="st4" d="M1790.5,1585.7l-2.5,5.4h-8.7l4.3-10.5l6.3,3C1789.8,1583.6,1791.2,1584.2,1790.5,1585.7"/>
<path d="M1768.9,1545.6c-12.2,0-22.1-10.1-22.1-22.4h3.5c0,10.4,8.3,18.9,18.6,18.9c10.2,0,18.6-8.5,18.6-18.9h3.5
	C1791.1,1535.5,1781.1,1545.6,1768.9,1545.6 M1791.1,1523.1h-3.5c0-10.4-8.3-18.9-18.6-18.9c-10.2,0-18.6,8.5-18.6,18.9h-3.5
	c0-12.4,9.9-22.4,22.1-22.4S1791.1,1510.8,1791.1,1523.1"/>
<polygon points="1766.3,1529.8 1766.3,1508.6 1769.9,1508.6 1769.9,1522.2 1776.1,1517.2 1778.3,1519.9 "/>
<rect x="1645.3" y="1486.5" class="st3" width="160" height="160"/>
<polygon points="1744.6,1564.3 1746.2,1565.8 1745.7,1566.3 1744.2,1564.7 "/>
<path d="M1750.6,1566.9l-1.6-1.6l-1.3,0.9l0,0c0.4,0,0.7,0.2,1,0.4c0.7,0.7,0.8,1.7-0.1,2.6c-0.7,0.7-1.8,0.8-2.7-0.1
	c-0.7-0.7-0.8-1.6-0.1-2.3l0.5,0.5c-0.4,0.4-0.3,1,0.1,1.5c0.4,0.4,1.1,0.5,1.7-0.1c0.5-0.5,0.5-1.2,0-1.7c-0.3-0.3-0.7-0.4-1.1-0.4
	l-0.4-0.4l2.4-1.6l1.9,1.9L1750.6,1566.9z"/>
<path d="M1749.5,1571.9c0.8,0.8,1.8-0.2,2.4-0.8c0.6-0.6,1.6-1.6,0.8-2.3c-0.8-0.8-1.8,0.2-2.4,0.8
	C1749.7,1570.1,1748.7,1571.1,1749.5,1571.9 M1753.1,1568.4c1.2,1.2,0.2,2.4-0.7,3.3c-0.9,0.8-2.1,1.9-3.3,0.7s-0.2-2.4,0.7-3.2
	C1750.6,1568.2,1751.8,1567.2,1753.1,1568.4"/>
<path d="M1756.3,1575.5c0.3-0.4,0.2-0.9-0.1-1.3c-0.7-0.7-1.4-0.3-2,0.2c-0.5,0.5-0.8,1.3-0.2,1.9c0.4,0.4,1,0.4,1.5,0.1l0.5,0.5
	c-0.8,0.6-1.6,0.6-2.4-0.1c-0.9-0.9-0.7-1.9,0.1-2.8c0.8-0.8,2-1.1,2.9-0.2c0.6,0.6,0.9,1.4,0.3,2.2L1756.3,1575.5z"/>
<path d="M1758.2,1575.6l0.4,0.4l-0.4,0.4l0,0c0.5-0.1,1,0,1.4,0.4c0.3,0.3,0.5,0.8,0.3,1.3c0.5-0.1,1,0,1.4,0.4
	c0.6,0.6,0.7,1.2,0.1,1.8l-2.1,2.1l-0.5-0.5l1.9-1.8c0.3-0.3,0.5-0.7,0.1-1.2c-0.4-0.4-1-0.4-1.5,0l-1.8,1.8l-0.5-0.5l1.9-1.8
	c0.4-0.4,0.5-0.7,0.1-1.2c-0.6-0.5-1.3-0.2-1.5,0l-1.8,1.8l-0.5-0.5L1758.2,1575.6z"/>
<polygon points="1760.7,1582.5 1761.3,1583.1 1760.7,1583.7 1760.1,1583.1 "/>
<path d="M1721.7,1633c-3.2,0-5.8-2.7-6.3-6.2v0.1l-5-20.8l0,0l-16-25.5h-1.2l-0.3,0.8l-18.7,40.8l-2,4.5c-1.8,3.9-3.4,8.6-8.9,7.8
	c-3.6-0.6-5.8-4.1-4.2-7.8l20.9-49.8v-36.1l-10.9,13.8v20.7c0,2.6-2.2,4.7-4.8,4.7c-2.7,0-4.8-2.1-4.8-4.7v-22.8c0,0-0.4-3.5,1-4.5
	l10.9-14.4c5-6.8,10-6.2,10-6.2h0.4h17.8h2.1c7.7,0,8.9,2.4,14.1,8l23.4,24.4l0,0c1.8,1.9,1.7,4.9-0.3,6.7c-1.9,1.8-5,1.7-6.8-0.2
	l-24.7-25.4v4.2v31.9l13,21.7l2.6,5.4l5,22.7C1728.5,1629.6,1725.8,1633.3,1721.7,1633"/>
<path d="M1684.6,1513.2c0-6.1,5.1-11.1,11.3-11.1c6.2,0,11.3,5,11.3,11.1s-5,11.1-11.3,11.1
	C1689.7,1524.3,1684.6,1519.3,1684.6,1513.2"/>
<polygon points="1764.5,1589.7 1763,1591.6 1731.5,1559.9 1733.2,1558.3 "/>
<path d="M1733.4,1559.5c-0.2,0.6-0.9,0.9-1.5,0.7c-0.6-0.2-0.9-0.9-0.7-1.5c0.2-0.6,0.9-0.9,1.5-0.7
	C1733.3,1558.3,1733.7,1558.9,1733.4,1559.5"/>
<path d="M1749.1,1612.7h17.9v15.8c0,2.6,2.1,4.7,4.7,4.7s4.7-2.1,4.7-4.7v-15.8c1.4,0,1.6-0.9,1.6-2v-11.8l-14.9-7.2h-31.7l-4.1-2.3
	c-1.3-0.7-3-0.3-3.7,1s-0.3,3,1,3.7l6.5,3.7v30.8c0,2.6,2.1,4.7,4.7,4.7s4.7-2.1,4.7-4.7v-12.1l8.6,14.3c1.3,2.2,4.2,2.9,6.5,1.6
	c2.2-1.3,3-4.2,1.6-6.4L1749.1,1612.7z"/>
<path d="M1792,1585.5l-3.2,6.7h-10.9v3.9l-13.4-6.3v-19.5l26.7,12.6C1791.2,1582.9,1792.9,1583.7,1792,1585.5"/>
<path class="st4" d="M1790.5,1585.7l-2.5,5.4h-8.7l4.3-10.5l6.3,3C1789.8,1583.6,1791.2,1584.2,1790.5,1585.7"/>
<path d="M1768.9,1545.6c-12.2,0-22.1-10.1-22.1-22.4h3.5c0,10.4,8.3,18.9,18.6,18.9c10.2,0,18.6-8.5,18.6-18.9h3.5
	C1791.1,1535.5,1781.1,1545.6,1768.9,1545.6 M1791.1,1523.1h-3.5c0-10.4-8.3-18.9-18.6-18.9c-10.2,0-18.6,8.5-18.6,18.9h-3.5
	c0-12.4,9.9-22.4,22.1-22.4S1791.1,1510.8,1791.1,1523.1"/>
<polygon points="1766.3,1529.8 1766.3,1508.6 1769.9,1508.6 1769.9,1522.2 1776.1,1517.2 1778.3,1519.9 "/>
<rect x="1645.3" y="1486.5" class="st3" width="160" height="160"/>
</svg>
