<?xml version="1.0" encoding="UTF-8" standalone="no"?>
<svg
   xmlns:dc="http://purl.org/dc/elements/1.1/"
   xmlns:cc="http://creativecommons.org/ns#"
   xmlns:rdf="http://www.w3.org/1999/02/22-rdf-syntax-ns#"
   xmlns:svg="http://www.w3.org/2000/svg"
   xmlns="http://www.w3.org/2000/svg"
   version="1.0"
   id="svg21844"
   height="64"
   width="64">
  <defs
     id="defs21846" />
  <metadata
     id="metadata21849">
    <rdf:RDF>
      <cc:Work
         rdf:about="">
        <dc:format>image/svg+xml</dc:format>
        <dc:type
           rdf:resource="http://purl.org/dc/dcmitype/StillImage" />
        <dc:title></dc:title>
      </cc:Work>
    </rdf:RDF>
  </metadata>
  <g
     transform="translate(-0.7873347,136.12828)"
     id="layer1">
    <rect
       y="-136.12828"
       x="0.78733474"
       height="64"
       width="64"
       id="rect21854"
       style="opacity:1;fill:#00adef;fill-opacity:1;fill-rule:nonzero;stroke:none;stroke-width:7.08599996999999959;stroke-linecap:round;stroke-linejoin:round;stroke-miterlimit:4;stroke-dasharray:7.08600000000000030, 14.17200000000000060;stroke-dashoffset:0;stroke-opacity:1" />
    <path
       id="text2382"
       d="m 7.9527824,-127.35799 0,30.933029 21.6228316,0 0,-5.718709 -14.900485,0 0,-25.21432 -6.7223466,0"
       style="font-size:43.06978226px;font-style:normal;font-variant:normal;font-weight:bold;font-stretch:normal;text-align:start;line-height:125%;writing-mode:lr-tb;text-anchor:start;fill:#ffffff;fill-opacity:1;stroke:none;font-family:Helvetica Neue;-inkscape-font-specification:Helvetica Neue Bold" />
    <path
       id="text22626"
       d="m 38.576815,-96.420013 0,-30.387597 -4.821248,0 c -0.170675,1.15765 -0.526225,2.12716 -1.066648,2.90853 -0.540446,0.78141 -1.208878,1.41811 -2.005298,1.91007 -0.767995,0.46308 -1.649756,0.7959 -2.645287,0.99845 -0.9671,0.17367 -1.976859,0.24602 -3.02928,0.21705 l 0,4.64497 7.509201,0 0,19.708527 6.05856,0"
       style="font-size:43.03677368px;font-style:normal;font-variant:normal;font-weight:bold;font-stretch:normal;text-align:start;line-height:125%;writing-mode:lr-tb;text-anchor:start;fill:#ffffff;fill-opacity:1;stroke:none;font-family:Helvetica Neue;-inkscape-font-specification:Helvetica Neue Bold" />
    <path
       id="text2389"
       d="m 45.933393,-111.92502 c -7e-6,-0.51682 -7e-6,-1.13413 0,-1.85196 0.02887,-0.74652 0.08664,-1.5074 0.173292,-2.28265 0.08664,-0.77523 0.231048,-1.53611 0.433229,-2.28266 0.202166,-0.77522 0.476544,-1.46432 0.823136,-2.0673 0.375456,-0.60295 0.837567,-1.09106 1.386333,-1.46434 0.577628,-0.37324 1.285234,-0.55987 2.122822,-0.5599 0.837564,3e-5 1.545171,0.18666 2.122823,0.5599 0.577624,0.37328 1.054176,0.86139 1.429656,1.46434 0.37545,0.60298 0.649827,1.29208 0.823135,2.0673 0.202158,0.74655 0.346567,1.50743 0.433229,2.28266 0.115511,0.77525 0.173275,1.53613 0.173292,2.28265 0.02886,0.71783 0.04331,1.33514 0.04332,1.85196 -1.7e-5,0.86139 -0.0289,1.9094 -0.08665,3.14402 -0.05778,1.20594 -0.245514,2.38317 -0.563199,3.53166 -0.288835,1.11979 -0.779827,2.08167 -1.472978,2.88561 -0.6643,0.80396 -1.631844,1.20594 -2.902636,1.20593 -1.241934,10e-6 -2.195037,-0.40197 -2.859312,-1.20593 -0.664293,-0.80394 -1.155285,-1.76582 -1.472979,-2.88561 -0.288827,-1.14849 -0.462118,-2.32572 -0.519875,-3.53166 -0.05777,-1.23462 -0.08665,-2.28263 -0.08665,-3.14402 m -6.151853,0 c -1e-6,3.01483 0.288819,5.54153 0.866459,7.58012 0.606517,2.00989 1.415212,3.61779 2.426083,4.82372 1.010862,1.20593 2.18058,2.067307 3.509155,2.584133 1.357443,0.516826 2.787097,0.77524 4.288968,0.77524 1.53073,0 2.960384,-0.258414 4.288969,-0.77524 1.357433,-0.516826 2.541592,-1.378203 3.552479,-2.584133 1.039728,-1.20593 1.848422,-2.81383 2.426082,-4.82372 0.606498,-2.03859 0.909759,-4.56529 0.909782,-7.58012 -2.3e-5,-2.92866 -0.303284,-5.3836 -0.909782,-7.36478 -0.57766,-2.00986 -1.386354,-3.61777 -2.426082,-4.82372 -1.010887,-1.2059 -2.195046,-2.06728 -3.552479,-2.58413 -1.328585,-0.5168 -2.758239,-0.77522 -4.288969,-0.77525 -1.501871,3e-5 -2.931525,0.25845 -4.288968,0.77525 -1.328575,0.51685 -2.498293,1.37823 -3.509155,2.58413 -1.010871,1.20595 -1.819566,2.81386 -2.426083,4.82372 -0.57764,1.98118 -0.86646,4.43612 -0.866459,7.36478"
       style="font-size:43.19571686px;font-style:normal;font-variant:normal;font-weight:bold;font-stretch:normal;text-align:start;line-height:125%;writing-mode:lr-tb;text-anchor:start;fill:#ffffff;fill-opacity:1;stroke:none;font-family:Helvetica Neue;-inkscape-font-specification:Helvetica Neue Bold" />
    <g
       id="text2996"
       style="font-style:normal;font-variant:normal;font-weight:normal;font-stretch:normal;font-size:40px;line-height:125%;font-family:Arial;-inkscape-font-specification:Arial;letter-spacing:0px;word-spacing:0px;fill:#ffffff;fill-opacity:1;stroke:none">
      <path
         id="path3350"
         style="font-weight:bold;font-size:16px;line-height:125%;-inkscape-font-specification:'Arial Bold';letter-spacing:-0.75px;fill:#ffffff;fill-opacity:1"
         d="m 14.566338,-81.993446 -4.7968749,-8.476563 q 0.039063,0.34375 0.070312,0.6875 0.03125,0.296875 0.046875,0.640625 0.023437,0.34375 0.023437,0.65625 l 0,6.492188 -2.046875,0 0,-11.007813 2.6328129,0 4.867187,8.546875 q -0.03906,-0.328125 -0.07031,-0.6875 -0.03125,-0.304687 -0.05469,-0.6875 -0.01563,-0.382812 -0.01563,-0.773437 l 0,-6.398438 2.046875,0 0,11.007813 -2.703125,0 z" />
      <path
         id="path3352"
         style="font-weight:bold;font-size:16px;line-height:125%;-inkscape-font-specification:'Arial Bold';letter-spacing:-0.75px;fill:#ffffff;fill-opacity:1"
         d="m 26.753838,-86.227821 q 0,0.96875 -0.273437,1.773437 -0.265625,0.804688 -0.804688,1.390625 -0.539062,0.578125 -1.34375,0.90625 -0.804687,0.320313 -1.875,0.320313 -1.03125,0 -1.820312,-0.320313 -0.789063,-0.320312 -1.328125,-0.898437 -0.53125,-0.578125 -0.804688,-1.382813 -0.273437,-0.8125 -0.273437,-1.789062 0,-0.945313 0.257812,-1.742188 0.265625,-0.804687 0.796875,-1.390625 0.53125,-0.585937 1.335938,-0.914062 0.804687,-0.328125 1.882812,-0.328125 1.140625,0 1.945313,0.328125 0.804687,0.328125 1.3125,0.914062 0.515625,0.578125 0.75,1.382813 0.242187,0.796875 0.242187,1.75 z m -2.296875,0 q 0,-1.507813 -0.492187,-2.1875 -0.492188,-0.679688 -1.429688,-0.679688 -0.96875,0 -1.484375,0.6875 -0.515625,0.6875 -0.515625,2.179688 0,0.757812 0.132813,1.304687 0.140625,0.546875 0.390625,0.898438 0.25,0.351562 0.601562,0.523437 0.351563,0.164063 0.773438,0.164063 0.484375,0 0.859375,-0.164063 0.382812,-0.171875 0.640625,-0.523437 0.257812,-0.351563 0.390625,-0.898438 0.132812,-0.546875 0.132812,-1.304687 z" />
      <path
         id="path3354"
         style="font-weight:bold;font-size:16px;line-height:125%;-inkscape-font-specification:'Arial Bold';letter-spacing:-0.75px;fill:#ffffff;fill-opacity:1"
         d="m 27.753838,-81.993446 0,-6.46875 q 0,-0.273438 -0.0078,-0.578125 0,-0.304688 -0.01563,-0.578125 -0.0078,-0.28125 -0.01563,-0.5 -0.0078,-0.226563 -0.02344,-0.328125 l 2.09375,0 q 0.01563,0.09375 0.03125,0.328125 0.01563,0.226562 0.03125,0.5 0.01563,0.273437 0.02344,0.546875 0.01563,0.265625 0.01563,0.429687 l 0.03125,0 q 0.164062,-0.460937 0.328125,-0.820312 0.164062,-0.367188 0.382812,-0.617188 0.226563,-0.257812 0.539063,-0.390625 0.3125,-0.140625 0.773437,-0.140625 0.195313,0 0.382813,0.03906 0.195312,0.03125 0.296875,0.07813 l 0,1.835937 q -0.210938,-0.04687 -0.429688,-0.07813 -0.210937,-0.03906 -0.507812,-0.03906 -0.820313,0 -1.28125,0.664062 -0.453125,0.664063 -0.453125,1.96875 l 0,4.148438 -2.195313,0 z" />
      <path
         id="path3356"
         style="font-weight:bold;font-size:16px;line-height:125%;-inkscape-font-specification:'Arial Bold';letter-spacing:-0.75px;fill:#ffffff;fill-opacity:1"
         d="m 38.699151,-81.993446 q -0.01563,-0.0625 -0.03906,-0.21875 -0.01563,-0.164063 -0.03906,-0.367188 -0.01563,-0.203125 -0.03125,-0.414062 -0.0078,-0.210938 -0.0078,-0.375 l -0.03125,0 q -0.382812,0.820312 -1.070312,1.179687 -0.679688,0.351563 -1.632813,0.351563 -0.796875,0 -1.382812,-0.328125 -0.578125,-0.328125 -0.960938,-0.914063 -0.375,-0.585937 -0.5625,-1.382812 -0.179687,-0.804688 -0.179687,-1.75 0,-0.960938 0.1875,-1.765625 0.195312,-0.804688 0.59375,-1.382813 0.398437,-0.585937 1.007812,-0.914062 0.617188,-0.328125 1.460938,-0.328125 0.414062,0 0.796875,0.08594 0.382812,0.08594 0.710937,0.265625 0.328125,0.179688 0.59375,0.460938 0.265625,0.28125 0.453125,0.679687 l 0.01563,0 q 0,-0.07813 -0.0078,-0.226562 0,-0.15625 0,-0.351563 0,-0.195312 -0.0078,-0.40625 0,-0.210937 0,-0.40625 l 0,-3.085937 2.195313,0 0,9.75 q 0,0.617187 0.02344,1.101562 0.02344,0.476563 0.03906,0.742188 l -2.125,0 z m -0.101563,-4.273438 q 0,-0.835937 -0.15625,-1.382812 -0.15625,-0.554688 -0.414062,-0.875 -0.25,-0.328125 -0.578125,-0.453125 -0.320313,-0.132813 -0.65625,-0.132813 -0.421875,0 -0.75,0.164063 -0.320313,0.164062 -0.546875,0.515625 -0.21875,0.351562 -0.335938,0.898437 -0.109375,0.546875 -0.109375,1.320313 0,2.875 1.726563,2.875 0.328125,0 0.65625,-0.140625 0.328125,-0.140625 0.585937,-0.476563 0.257813,-0.335937 0.414063,-0.898437 0.164062,-0.570313 0.164062,-1.414063 z" />
    </g>
  </g>
</svg>
