<?xml version="1.0" encoding="UTF-8" standalone="no"?>
<svg
   xmlns:dc="http://purl.org/dc/elements/1.1/"
   xmlns:cc="http://creativecommons.org/ns#"
   xmlns:rdf="http://www.w3.org/1999/02/22-rdf-syntax-ns#"
   xmlns:svg="http://www.w3.org/2000/svg"
   xmlns="http://www.w3.org/2000/svg"
   version="1.0"
   id="svg21844"
   height="64"
   width="64">
  <defs
     id="defs21846" />
  <metadata
     id="metadata21849">
    <rdf:RDF>
      <cc:Work
         rdf:about="">
        <dc:format>image/svg+xml</dc:format>
        <dc:type
           rdf:resource="http://purl.org/dc/dcmitype/StillImage" />
        <dc:title></dc:title>
      </cc:Work>
    </rdf:RDF>
  </metadata>
  <g
     transform="translate(-0.7873347,136.12828)"
     id="layer1">
    <rect
       y="-136.12828"
       x="0.78733474"
       height="64"
       width="64"
       id="rect21854"
       style="opacity:1;fill:#00adef;fill-opacity:1;fill-rule:nonzero;stroke:none;stroke-width:7.08599996999999959;stroke-linecap:round;stroke-linejoin:round;stroke-miterlimit:4;stroke-dasharray:7.08600000000000030, 14.17200000000000060;stroke-dashoffset:0;stroke-opacity:1" />
    <path
       id="text2382"
       d="m 7.9527824,-127.35799 0,30.933029 21.6228316,0 0,-5.718709 -14.900485,0 0,-25.21432 -6.7223466,0"
       style="font-size:43.06978226px;font-style:normal;font-variant:normal;font-weight:bold;font-stretch:normal;text-align:start;line-height:125%;writing-mode:lr-tb;text-anchor:start;fill:#ffffff;fill-opacity:1;stroke:none;font-family:Helvetica Neue;-inkscape-font-specification:Helvetica Neue Bold" />
    <path
       id="text22626"
       d="m 38.576815,-96.420013 0,-30.387597 -4.821248,0 c -0.170675,1.15765 -0.526225,2.12716 -1.066648,2.90853 -0.540446,0.78141 -1.208878,1.41811 -2.005298,1.91007 -0.767995,0.46308 -1.649756,0.7959 -2.645287,0.99845 -0.9671,0.17367 -1.976859,0.24602 -3.02928,0.21705 l 0,4.64497 7.509201,0 0,19.708527 6.05856,0"
       style="font-size:43.03677368px;font-style:normal;font-variant:normal;font-weight:bold;font-stretch:normal;text-align:start;line-height:125%;writing-mode:lr-tb;text-anchor:start;fill:#ffffff;fill-opacity:1;stroke:none;font-family:Helvetica Neue;-inkscape-font-specification:Helvetica Neue Bold" />
    <path
       id="text2389"
       d="m 45.933393,-111.92502 c -7e-6,-0.51682 -7e-6,-1.13413 0,-1.85196 0.02887,-0.74652 0.08664,-1.5074 0.173292,-2.28265 0.08664,-0.77523 0.231048,-1.53611 0.433229,-2.28266 0.202166,-0.77522 0.476544,-1.46432 0.823136,-2.0673 0.375456,-0.60295 0.837567,-1.09106 1.386333,-1.46434 0.577628,-0.37324 1.285234,-0.55987 2.122822,-0.5599 0.837564,3e-5 1.545171,0.18666 2.122823,0.5599 0.577624,0.37328 1.054176,0.86139 1.429656,1.46434 0.37545,0.60298 0.649827,1.29208 0.823135,2.0673 0.202158,0.74655 0.346567,1.50743 0.433229,2.28266 0.115511,0.77525 0.173275,1.53613 0.173292,2.28265 0.02886,0.71783 0.04331,1.33514 0.04332,1.85196 -1.7e-5,0.86139 -0.0289,1.9094 -0.08665,3.14402 -0.05778,1.20594 -0.245514,2.38317 -0.563199,3.53166 -0.288835,1.11979 -0.779827,2.08167 -1.472978,2.88561 -0.6643,0.80396 -1.631844,1.20594 -2.902636,1.20593 -1.241934,10e-6 -2.195037,-0.40197 -2.859312,-1.20593 -0.664293,-0.80394 -1.155285,-1.76582 -1.472979,-2.88561 -0.288827,-1.14849 -0.462118,-2.32572 -0.519875,-3.53166 -0.05777,-1.23462 -0.08665,-2.28263 -0.08665,-3.14402 m -6.151853,0 c -1e-6,3.01483 0.288819,5.54153 0.866459,7.58012 0.606517,2.00989 1.415212,3.61779 2.426083,4.82372 1.010862,1.20593 2.18058,2.067307 3.509155,2.584133 1.357443,0.516826 2.787097,0.77524 4.288968,0.77524 1.53073,0 2.960384,-0.258414 4.288969,-0.77524 1.357433,-0.516826 2.541592,-1.378203 3.552479,-2.584133 1.039728,-1.20593 1.848422,-2.81383 2.426082,-4.82372 0.606498,-2.03859 0.909759,-4.56529 0.909782,-7.58012 -2.3e-5,-2.92866 -0.303284,-5.3836 -0.909782,-7.36478 -0.57766,-2.00986 -1.386354,-3.61777 -2.426082,-4.82372 -1.010887,-1.2059 -2.195046,-2.06728 -3.552479,-2.58413 -1.328585,-0.5168 -2.758239,-0.77522 -4.288969,-0.77525 -1.501871,3e-5 -2.931525,0.25845 -4.288968,0.77525 -1.328575,0.51685 -2.498293,1.37823 -3.509155,2.58413 -1.010871,1.20595 -1.819566,2.81386 -2.426083,4.82372 -0.57764,1.98118 -0.86646,4.43612 -0.866459,7.36478"
       style="font-size:43.19571686px;font-style:normal;font-variant:normal;font-weight:bold;font-stretch:normal;text-align:start;line-height:125%;writing-mode:lr-tb;text-anchor:start;fill:#ffffff;fill-opacity:1;stroke:none;font-family:Helvetica Neue;-inkscape-font-specification:Helvetica Neue Bold" />
    <g
       id="text2996"
       style="font-style:normal;font-variant:normal;font-weight:normal;font-stretch:normal;font-size:40px;line-height:125%;font-family:Arial;-inkscape-font-specification:Arial;letter-spacing:0px;word-spacing:0px;fill:#ffffff;fill-opacity:1;stroke:none">
      <path
         id="path3350"
         style="font-weight:bold;font-size:16px;line-height:125%;-inkscape-font-specification:'Arial Bold';letter-spacing:-0.75px;fill:#ffffff;fill-opacity:1"
         d="m 17.239776,-85.165321 q 0,0.75 -0.273438,1.367187 -0.273437,0.609375 -0.851562,1.046875 -0.570313,0.4375 -1.46875,0.679688 -0.890625,0.234375 -2.125,0.234375 -1.09375,0 -1.929688,-0.195313 -0.8359375,-0.195312 -1.4375,-0.578125 -0.59375,-0.382812 -0.96875,-0.945312 -0.3671875,-0.570313 -0.53125,-1.304688 l 2.2265625,-0.367187 q 0.09375,0.367187 0.2734375,0.671875 0.179688,0.304687 0.492188,0.53125 0.320312,0.21875 0.789062,0.34375 0.476563,0.117187 1.148438,0.117187 1.171875,0 1.789062,-0.351562 0.625,-0.359375 0.625,-1.117188 0,-0.453125 -0.25,-0.742187 -0.25,-0.289063 -0.664062,-0.476563 -0.414063,-0.1875 -0.953125,-0.3125 -0.539063,-0.125 -1.125,-0.242187 -0.46875,-0.109375 -0.9375,-0.226563 -0.46875,-0.117187 -0.898438,-0.28125 -0.421875,-0.164062 -0.7890625,-0.390625 -0.3671875,-0.226562 -0.640625,-0.554687 -0.265625,-0.335938 -0.421875,-0.78125 -0.1484375,-0.445313 -0.1484375,-1.046875 0,-0.820313 0.328125,-1.40625 0.328125,-0.585938 0.90625,-0.953125 0.5859375,-0.375 1.390625,-0.546875 0.804688,-0.171875 1.757813,-0.171875 1.078125,0 1.84375,0.171875 0.773437,0.164062 1.289062,0.507812 0.523438,0.34375 0.820313,0.867188 0.304687,0.515625 0.445312,1.210937 l -2.234375,0.304688 q -0.171875,-0.710938 -0.703125,-1.070313 -0.523437,-0.359375 -1.507812,-0.359375 -0.609375,0 -1.015625,0.109375 -0.398438,0.101563 -0.640625,0.28125 -0.234375,0.179688 -0.335938,0.421875 -0.101562,0.234375 -0.101562,0.5 0,0.40625 0.195312,0.671875 0.195313,0.257813 0.546875,0.4375 0.351563,0.171875 0.835938,0.296875 0.492187,0.117188 1.078125,0.242188 0.515625,0.109375 1.023437,0.234375 0.507813,0.117187 0.96875,0.28125 0.460938,0.164062 0.859375,0.398437 0.398438,0.234375 0.6875,0.578125 0.296875,0.335938 0.460938,0.804688 0.171875,0.46875 0.171875,1.109375 z" />
      <path
         id="path3352"
         style="font-weight:bold;font-size:16px;line-height:125%;-inkscape-font-specification:'Arial Bold';letter-spacing:-0.75px;fill:#ffffff;fill-opacity:1"
         d="m 20.3179,-90.446571 0,4.742187 q 0,0.492188 0.07813,0.90625 0.07813,0.40625 0.257813,0.703125 0.179687,0.289063 0.460937,0.453125 0.289063,0.164063 0.703125,0.164063 0.398438,0 0.71875,-0.171875 0.328125,-0.179688 0.5625,-0.5 0.234375,-0.328125 0.359375,-0.773438 0.132813,-0.453125 0.132813,-0.992187 l 0,-4.53125 2.195312,0 0,6.5625 q 0,0.265625 0,0.5625 0.0078,0.289062 0.01563,0.554687 0.01563,0.257813 0.02344,0.46875 0.01563,0.203125 0.02344,0.304688 l -2.09375,0 q -0.0078,-0.09375 -0.03125,-0.296875 -0.01563,-0.210938 -0.03125,-0.460938 -0.0078,-0.25 -0.02344,-0.5 -0.0078,-0.25 -0.0078,-0.421875 l -0.03906,0 q -0.4375,0.960938 -1.117188,1.398438 -0.671875,0.4375 -1.601562,0.4375 -0.757813,0 -1.289063,-0.25 -0.53125,-0.25 -0.867187,-0.679688 -0.328125,-0.4375 -0.476563,-1.03125 -0.148437,-0.59375 -0.148437,-1.28125 l 0,-5.367187 2.195312,0 z" />
      <path
         id="path3354"
         style="font-weight:bold;font-size:16px;line-height:125%;-inkscape-font-specification:'Arial Bold';letter-spacing:-0.75px;fill:#ffffff;fill-opacity:1"
         d="m 32.7554,-81.993446 q -0.01563,-0.0625 -0.03906,-0.21875 -0.01563,-0.164063 -0.03906,-0.367188 -0.01563,-0.203125 -0.03125,-0.414062 -0.0078,-0.210938 -0.0078,-0.375 l -0.03125,0 q -0.382813,0.820312 -1.070313,1.179687 -0.679687,0.351563 -1.632812,0.351563 -0.796875,0 -1.382813,-0.328125 -0.578125,-0.328125 -0.960937,-0.914063 -0.375,-0.585937 -0.5625,-1.382812 -0.179688,-0.804688 -0.179688,-1.75 0,-0.960938 0.1875,-1.765625 0.195313,-0.804688 0.59375,-1.382813 0.398438,-0.585937 1.007813,-0.914062 0.617187,-0.328125 1.460937,-0.328125 0.414063,0 0.796875,0.08594 0.382813,0.08594 0.710938,0.265625 0.328125,0.179688 0.59375,0.460938 0.265625,0.28125 0.453125,0.679687 l 0.01563,0 q 0,-0.07813 -0.0078,-0.226562 0,-0.15625 0,-0.351563 0,-0.195312 -0.0078,-0.40625 0,-0.210937 0,-0.40625 l 0,-3.085937 2.195312,0 0,9.75 q 0,0.617187 0.02344,1.101562 0.02344,0.476563 0.03906,0.742188 l -2.125,0 z m -0.101562,-4.273438 q 0,-0.835937 -0.15625,-1.382812 -0.15625,-0.554688 -0.414063,-0.875 -0.25,-0.328125 -0.578125,-0.453125 -0.320312,-0.132813 -0.65625,-0.132813 -0.421875,0 -0.75,0.164063 -0.320312,0.164062 -0.546875,0.515625 -0.21875,0.351562 -0.335937,0.898437 -0.109375,0.546875 -0.109375,1.320313 0,2.875 1.726562,2.875 0.328125,0 0.65625,-0.140625 0.328125,-0.140625 0.585938,-0.476563 0.257812,-0.335937 0.414062,-0.898437 0.164063,-0.570313 0.164063,-1.414063 z" />
    </g>
  </g>
</svg>
