<?xml version="1.0" encoding="UTF-8" standalone="no"?>
<svg
   xmlns:dc="http://purl.org/dc/elements/1.1/"
   xmlns:cc="http://creativecommons.org/ns#"
   xmlns:rdf="http://www.w3.org/1999/02/22-rdf-syntax-ns#"
   xmlns:svg="http://www.w3.org/2000/svg"
   xmlns="http://www.w3.org/2000/svg"
   version="1.0"
   id="svg21844"
   height="64"
   width="128">
  <defs
     id="defs21846" />
  <metadata
     id="metadata21849">
    <rdf:RDF>
      <cc:Work
         rdf:about="">
        <dc:format>image/svg+xml</dc:format>
        <dc:type
           rdf:resource="http://purl.org/dc/dcmitype/StillImage" />
        <dc:title></dc:title>
      </cc:Work>
    </rdf:RDF>
  </metadata>
  <g
     transform="translate(-0.78733474,136.12828)"
     id="layer1">
    <g
       id="g3461">
      <rect
         style="opacity:1;fill:#e1393e;fill-opacity:1;fill-rule:nonzero;stroke:none;stroke-width:7.08599997;stroke-linecap:round;stroke-linejoin:round;stroke-miterlimit:4;stroke-dasharray:7.086, 14.172;stroke-dashoffset:0;stroke-opacity:1"
         id="rect21854"
         width="64"
         height="64"
         x="0.78733474"
         y="-136.12828" />
      <path
         style="font-style:normal;font-variant:normal;font-weight:bold;font-stretch:normal;font-size:47.52000046px;line-height:125%;font-family:'Helvetica Neue';-inkscape-font-specification:'Helvetica Neue Bold';text-align:start;writing-mode:lr-tb;text-anchor:start;fill:#ffffff;fill-opacity:1;stroke:none;stroke-width:1px;stroke-linecap:butt;stroke-linejoin:miter;stroke-opacity:1"
         d="m 10.918671,-122.0771 0,33.92928 23.9976,0 0,-6.27264 -16.53696,0 0,-27.65664 -7.46064,0"
         id="text2382" />
      <path
         style="font-style:normal;font-variant:normal;font-weight:bold;font-stretch:normal;font-size:47.52000046px;line-height:125%;font-family:'Helvetica Neue';-inkscape-font-specification:'Helvetica Neue Bold';text-align:start;writing-mode:lr-tb;text-anchor:start;fill:#ffffff;fill-opacity:1;stroke:none;stroke-width:1px;stroke-linecap:butt;stroke-linejoin:miter;stroke-opacity:1"
         d="m 51.201204,-88.262718 0,-33.264002 -5.36976,0 c -0.190093,1.26723 -0.586092,2.32851 -1.188,3.18384 -0.601931,0.85539 -1.34641,1.55235 -2.23344,2.09088 -0.855369,0.50691 -1.837448,0.87123 -2.94624,1.09296 -1.077125,0.19011 -2.201764,0.26931 -3.37392,0.2376 l 0,5.08464 8.36352,0 0,21.574082 6.74784,0"
         id="text22626" />
    </g>
    <g
       transform="translate(64,6.3964845e-7)"
       id="layer1-6">
      <rect
         style="opacity:1;fill:#53b955;fill-opacity:1;fill-rule:nonzero;stroke:none;stroke-width:7.08599997;stroke-linecap:round;stroke-linejoin:round;stroke-miterlimit:4;stroke-dasharray:7.086, 14.172;stroke-dashoffset:0;stroke-opacity:1"
         id="rect21854-1"
         width="64"
         height="64"
         x="0.78733474"
         y="-136.12828" />
      <path
         style="font-style:normal;font-variant:normal;font-weight:bold;font-stretch:normal;font-size:47.52000046px;line-height:125%;font-family:'Helvetica Neue';-inkscape-font-specification:'Helvetica Neue Bold';text-align:start;writing-mode:lr-tb;text-anchor:start;fill:#ffffff;fill-opacity:1;stroke:none;stroke-width:1px;stroke-linecap:butt;stroke-linejoin:miter;stroke-opacity:1"
         d="m 10.918671,-122.0771 0,33.92928 23.9976,0 0,-6.27264 -16.53696,0 0,-27.65664 -7.46064,0"
         id="text2382-8" />
      <path
         style="font-style:normal;font-variant:normal;font-weight:bold;font-stretch:normal;font-size:47.52000046px;line-height:125%;font-family:'Helvetica Neue';-inkscape-font-specification:'Helvetica Neue Bold';text-align:start;writing-mode:lr-tb;text-anchor:start;fill:#ffffff;fill-opacity:1;stroke:none;stroke-width:1px;stroke-linecap:butt;stroke-linejoin:miter;stroke-opacity:1"
         d="m 43.407924,-108.07856 0,4.752 c 0.823669,2e-5 1.679028,0.0317 2.56608,0.095 0.918706,0.0317 1.758225,0.20594 2.51856,0.52272 0.760304,0.28514 1.378063,0.76034 1.85328,1.4256 0.506862,0.66529 0.760302,1.631533 0.76032,2.898722 -1.8e-5,1.615688 -0.522738,2.898727 -1.56816,3.84912 -1.045456,0.918725 -2.328494,1.378085 -3.84912,1.37808 -0.982092,5e-6 -1.837451,-0.174235 -2.56608,-0.52272 -0.696969,-0.348474 -1.283049,-0.807834 -1.75824,-1.37808 -0.475208,-0.601913 -0.839528,-1.298872 -1.09296,-2.09088 -0.253447,-0.823671 -0.396007,-1.67903 -0.42768,-2.56608 l -6.4152,0 c -0.03168,1.932489 0.237599,3.643208 0.80784,5.13216 0.601918,1.488965 1.441437,2.756163 2.51856,3.8016 1.077115,1.013761 2.375994,1.789921 3.89664,2.32848 1.552311,0.538559 3.263029,0.807839 5.13216,0.80784 1.615666,-10e-7 3.167984,-0.237601 4.65696,-0.7128 1.488941,-0.4752 2.80366,-1.172159 3.94416,-2.09088 1.140458,-0.918717 2.043337,-2.059196 2.70864,-3.42144 0.696935,-1.362233 1.045415,-2.914552 1.045441,-4.65696 -2.6e-5,-1.900792 -0.522746,-3.532302 -1.568161,-4.894562 -1.045462,-1.36222 -2.486901,-2.24926 -4.32432,-2.66112 l 0,-0.095 c 1.552299,-0.4435 2.708618,-1.28302 3.46896,-2.51856 0.791977,-1.2355 1.187976,-2.6611 1.188,-4.2768 -2.4e-5,-1.48893 -0.332664,-2.80365 -0.99792,-3.94416 -0.665302,-1.14045 -1.536501,-2.10669 -2.6136,-2.89872 -1.045459,-0.79197 -2.233458,-1.37805 -3.564,-1.75824 -1.330575,-0.4118 -2.661134,-0.61772 -3.99168,-0.61776 -1.710731,4e-5 -3.26305,0.28516 -4.65696,0.85536 -1.393927,0.53859 -2.597766,1.31475 -3.61152,2.32848 -0.982084,1.01379 -1.758243,2.23347 -2.32848,3.65904 -0.538562,1.39395 -0.839521,2.94627 -0.90288,4.65696 l 6.4152,0 c -0.03169,-1.71069 0.380152,-3.12045 1.23552,-4.22928 0.88703,-1.14045 2.185909,-1.71069 3.89664,-1.71072 1.235506,3e-5 2.328465,0.38019 3.27888,1.14048 0.950383,0.76035 1.425583,1.85331 1.4256,3.27888 -1.7e-5,0.95042 -0.237617,1.71074 -0.7128,2.28096 -0.443536,0.57026 -1.029616,1.01378 -1.75824,1.33056 -0.696974,0.28514 -1.457294,0.45938 -2.28096,0.52272 -0.823692,0.0634 -1.599851,0.0634 -2.32848,0"
         id="text22626-7" />
    </g>
  </g>
</svg>
