<?xml version="1.0" encoding="UTF-8" standalone="no"?>
<svg
   xmlns:dc="http://purl.org/dc/elements/1.1/"
   xmlns:cc="http://creativecommons.org/ns#"
   xmlns:rdf="http://www.w3.org/1999/02/22-rdf-syntax-ns#"
   xmlns:svg="http://www.w3.org/2000/svg"
   xmlns="http://www.w3.org/2000/svg"
   width="128"
   height="128"
   id="svg21844"
   version="1.0">
  <defs
     id="defs21846">
    <clipPath
       clipPathUnits="userSpaceOnUse"
       id="clipPath19">
      <path
         d="m 49.065,1214.02 697.665,0 0,-1165.846 -697.665,0 0,1165.846 z"
         id="path21" />
    </clipPath>
    <clipPath
       clipPathUnits="userSpaceOnUse"
       id="clipPath47">
      <path
         d="m 118.229,624.27 0.001,-41.54 c 0,-4.176 0.307,-6.626 2.881,-9.201 l 25.111,-25.084 c 1.566,-1.566 3.863,-1.124 3.863,1.041 l 0,42.79 c 0,4.459 0.152,5.971 1.894,7.713 l 0.402,0.375 c 0.776,0.775 4.095,2.483 6.838,-0.261 l 7.859,-7.937 c 2.756,-2.756 5.257,-3.267 7.868,-0.655 l 5.886,5.851 c 2.509,2.509 1.81,4.872 -0.921,7.603 l -5.089,5.107 c -5.227,5.227 -6.362,9.514 -6.362,16.578 l 0,34.197 c 0,5.917 1.097,13.435 4.719,17.007 4.743,4.679 7.216,10.508 7.218,15.742 l -0.002,368.142 c 0,11.953 1.841,21.952 11.231,31.343 l 27.377,27.133 c 7.633,7.633 11.596,13.493 11.596,26.656 l 0,13.321 211.68,-0.071 c 9.808,0 16.267,-4.857 16.267,-14.426 l -0.076,-88.12 c 0,-6.382 3.505,-12.298 14.81,-12.298 l 108.416,0.184 c 7.536,0 16.268,-7.163 16.268,-15.86 l -0.003,-240.328 c 0,-7.718 5.355,-18.351 8.664,-21.66 l 49.044,-48.815 c 6.761,-6.761 7.95,-11.353 7.95,-19.616 l 0,-334.23 c 0,-11.023 2.447,-16.089 9.324,-22.965 l 47.604,-47.745 c 5.359,-5.359 6.431,-8.115 6.431,-17.607 l 0,-35.826 c 0,-6.737 -1.837,-9.589 -5.262,-13.014 l -43.035,-43.175 c -5.595,-5.595 -7.743,-10.105 -7.743,-19.138 l 0.006,-18.664 c 0,-8.592 -5.822,-11.196 -13.167,-11.196 l -194.959,0 c -9.493,0 -11.638,-1.473 -17.053,-6.889 L 407.614,90.494 c -6.464,-6.464 -8.56,-7.378 -18.966,-7.378 l -134.807,0 c -8.274,0 -17.087,-0.235 -23.175,5.853 l -8.202,7.16 c -5.362,5.362 -10.874,5.465 -18.532,5.465 l -39.456,0 0.003,281.33 c 0,3.398 -2.329,4.43 -5.045,4.43 l -32.766,0 c -5.186,0 -7.731,1.998 -7.731,6.821 l -0.031,37.461 c 0,4.285 0.822,5.717 4.091,5.717 l 1.356,0 c 3.229,0 4.593,-1.552 4.593,-5.605 l 0,-22.242 c 0,-3.408 0.808,-5.003 5.541,-5.003 l 25.354,0.03 c 2.229,0 4.638,1.804 4.638,4.159 l -0.003,37.202 c 0,6.564 -2.421,12.228 -6.423,16.231 l -45.02,46.277 c -8.858,8.859 -11.943,16.82 -11.943,28.47 l 0.002,87.394 17.137,0.004"
         id="path49" />
    </clipPath>
    <clipPath
       clipPathUnits="userSpaceOnUse"
       id="clipPath2079">
      <path
         d="m 592.832,584.321 11.343,0 0,-11.342 -11.343,0 0,11.342 z"
         id="path2081" />
    </clipPath>
    <clipPath
       clipPathUnits="userSpaceOnUse"
       id="clipPath2117">
      <path
         d="m 586.018,546.58 11.429,0 0,-11.429 -11.429,0 0,11.429 z"
         id="path2119" />
    </clipPath>
    <clipPath
       clipPathUnits="userSpaceOnUse"
       id="clipPath2163">
      <path
         d="m 720.985,1069.774 11.356,0 0,-11.357 -11.356,0 0,11.357 z"
         id="path2165" />
    </clipPath>
    <clipPath
       clipPathUnits="userSpaceOnUse"
       id="clipPath2181">
      <path
         d="m 689.453,1074.524 11.357,0 0,-11.357 -11.357,0 0,11.357 z"
         id="path2183" />
    </clipPath>
    <clipPath
       clipPathUnits="userSpaceOnUse"
       id="clipPath2199">
      <path
         d="m 658.86,1078.524 11.356,0 0,-11.357 -11.356,0 0,11.357 z"
         id="path2201" />
    </clipPath>
    <clipPath
       clipPathUnits="userSpaceOnUse"
       id="clipPath2217">
      <path
         d="m 435.732,1177.271 11.356,0 0,-11.356 -11.356,0 0,11.356 z"
         id="path2219" />
    </clipPath>
    <clipPath
       clipPathUnits="userSpaceOnUse"
       id="clipPath2239">
      <path
         d="m 518.176,707.533 11.356,0 0,-11.356 -11.356,0 0,11.356 z"
         id="path2241" />
    </clipPath>
    <clipPath
       clipPathUnits="userSpaceOnUse"
       id="clipPath2261">
      <path
         d="m 718.876,631.85 11.357,0 0,-11.356 -11.357,0 0,11.356 z"
         id="path2263" />
    </clipPath>
    <clipPath
       clipPathUnits="userSpaceOnUse"
       id="clipPath2279">
      <path
         d="m 703.313,627.037 11.357,0 0,-11.356 -11.357,0 0,11.356 z"
         id="path2281" />
    </clipPath>
    <clipPath
       clipPathUnits="userSpaceOnUse"
       id="clipPath2297">
      <path
         d="m 687.938,622.162 11.357,0 0,-11.356 -11.357,0 0,11.356 z"
         id="path2299" />
    </clipPath>
    <clipPath
       clipPathUnits="userSpaceOnUse"
       id="clipPath2393">
      <path
         d="m 230.916,858.567 11.357,0 0,-11.356 -11.357,0 0,11.356 z"
         id="path2395" />
    </clipPath>
    <clipPath
       clipPathUnits="userSpaceOnUse"
       id="clipPath2411">
      <path
         d="m 89.397,496.471 11.356,0 0,-11.357 -11.356,0 0,11.357 z"
         id="path2413" />
    </clipPath>
    <clipPath
       clipPathUnits="userSpaceOnUse"
       id="clipPath2429">
      <path
         d="m 508.368,593.52 11.356,0 0,-11.357 -11.356,0 0,11.357 z"
         id="path2431" />
    </clipPath>
    <clipPath
       clipPathUnits="userSpaceOnUse"
       id="clipPath2455">
      <path
         d="m 592.784,597.538 11.356,0 0,-11.356 -11.356,0 0,11.356 z"
         id="path2457" />
    </clipPath>
    <clipPath
       clipPathUnits="userSpaceOnUse"
       id="clipPath3321">
      <path
         d="m 206.513,677.942 11.822,0 0,-11.822 -11.822,0 0,11.822 z"
         id="path3323" />
    </clipPath>
    <clipPath
       clipPathUnits="userSpaceOnUse"
       id="clipPath3339">
      <path
         d="m 173.107,678.42 11.821,0 0,-11.822 -11.821,0 0,11.822 z"
         id="path3341" />
    </clipPath>
    <clipPath
       clipPathUnits="userSpaceOnUse"
       id="clipPath3357">
      <path
         d="m 179.247,627.067 11.822,0 0,-11.821 -11.822,0 0,11.821 z"
         id="path3359" />
    </clipPath>
    <clipPath
       clipPathUnits="userSpaceOnUse"
       id="clipPath3375">
      <path
         d="m 106.843,553.706 11.821,0 0,-11.822 -11.821,0 0,11.822 z"
         id="path3377" />
    </clipPath>
    <clipPath
       clipPathUnits="userSpaceOnUse"
       id="clipPath6547">
      <path
         d="m 178.025,1113.155 11.097,0 0,-11.097 -11.097,0 0,11.097 z"
         id="path6549" />
    </clipPath>
    <clipPath
       clipPathUnits="userSpaceOnUse"
       id="clipPath6933">
      <path
         d="m 877.44,975.599 10e-4,238.512 -209.311,0 c 4.07,-1.858 7.28,-3.367 7.623,-3.502 73.919,-29.017 167.433,-127.091 201.687,-235.01"
         id="path6935" />
    </clipPath>
    <clipPath
       id="clipPath11445"
       clipPathUnits="userSpaceOnUse">
      <path
         id="path11447"
         d="m 537.583,802.354 61.13,0 0,-142.37 -61.13,0 0,142.37 z" />
    </clipPath>
    <mask
       id="mask11433"
       height="1"
       width="1"
       y="0"
       x="0"
       maskUnits="userSpaceOnUse">
      <g
         id="g11435">
        <g
           id="g11437">
          <g
             id="g11439">
            <g
               id="g11441">
              <path
                 id="path11443"
                 style="fill:url(#linearGradient11427);stroke:none"
                 d="m -32179,32767 64946,0 0,-64538.7 -64946,0 0,64538.7 z" />
            </g>
          </g>
        </g>
      </g>
    </mask>
    <linearGradient
       id="linearGradient11427"
       spreadMethod="pad"
       gradientTransform="matrix(-56.692917,0,0,56.692917,595.27556,801.35434)"
       gradientUnits="userSpaceOnUse"
       y2="0"
       x2="1"
       y1="0"
       x1="0">
      <stop
         id="stop11429"
         offset="0"
         style="stop-opacity:1;stop-color:#ffffff" />
      <stop
         id="stop11431"
         offset="1"
         style="stop-opacity:0;stop-color:#ffffff" />
    </linearGradient>
    <clipPath
       id="clipPath11419"
       clipPathUnits="userSpaceOnUse">
      <path
         id="path11421"
         d="m 537.583,802.354 61.13,0 0,-142.37 -61.13,0 0,142.37 z" />
    </clipPath>
    <clipPath
       id="clipPath11393"
       clipPathUnits="userSpaceOnUse">
      <path
         id="path11395"
         d="m -11.9415,808.646 144.5275,0 0,-142.37 -144.5275,0 0,142.37 z" />
    </clipPath>
    <mask
       id="mask11381"
       height="1"
       width="1"
       y="0"
       x="0"
       maskUnits="userSpaceOnUse">
      <g
         id="g11383">
        <g
           id="g11385">
          <g
             id="g11387">
            <g
               id="g11389">
              <path
                 id="path11391"
                 style="fill:url(#linearGradient11375);stroke:none"
                 d="m -32768,32767 65533.8,0 0,-65061.6 -65533.8,0 0,65061.6 z" />
            </g>
          </g>
        </g>
      </g>
    </mask>
    <linearGradient
       id="linearGradient11375"
       spreadMethod="pad"
       gradientTransform="matrix(140.08995,0,0,-140.08995,-8.503952,667.2756)"
       gradientUnits="userSpaceOnUse"
       y2="0"
       x2="1"
       y1="0"
       x1="0">
      <stop
         id="stop11377"
         offset="0"
         style="stop-opacity:1;stop-color:#ffffff" />
      <stop
         id="stop11379"
         offset="1"
         style="stop-opacity:0;stop-color:#ffffff" />
    </linearGradient>
    <clipPath
       id="clipPath11367"
       clipPathUnits="userSpaceOnUse">
      <path
         id="path11369"
         d="m -11.9415,808.646 144.5275,0 0,-142.37 -144.5275,0 0,142.37 z" />
    </clipPath>
    <clipPath
       id="clipPath11359"
       clipPathUnits="userSpaceOnUse">
      <path
         id="path11361"
         d="m 0,0 595.276,0 0,935.433 L 0,935.433 0,0 Z" />
    </clipPath>
    <clipPath
       id="clipPath11347"
       clipPathUnits="userSpaceOnUse">
      <path
         id="path11349"
         d="m 364.063,801.355 178.772,0 0,134.078 -178.772,0 0,-134.078 z" />
    </clipPath>
    <clipPath
       id="clipPath11335"
       clipPathUnits="userSpaceOnUse">
      <path
         id="path11337"
         d="m 182.053,801.355 178.728,0 0,134.078 -178.728,0 0,-134.078 z" />
    </clipPath>
    <clipPath
       id="clipPath11323"
       clipPathUnits="userSpaceOnUse">
      <path
         id="path11325"
         d="m 0,801.355 178.771,0 0,134.078 -178.771,0 0,-134.078 z" />
    </clipPath>
    <clipPath
       id="clipPath11307"
       clipPathUnits="userSpaceOnUse">
      <path
         id="path11309"
         d="m 0,0 595.276,0 0,935.433 L 0,935.433 0,0 Z" />
    </clipPath>
    <clipPath
       id="clipPath10459"
       clipPathUnits="userSpaceOnUse">
      <path
         id="path10461"
         d="m 107.717,409.28 435.118,0 0,350.404 -435.118,0 0,-350.404 z" />
    </clipPath>
    <clipPath
       id="clipPath10309"
       clipPathUnits="userSpaceOnUse">
      <path
         id="path10311"
         d="m 110.007,672.01 0,-212.944 c 19.449,-0.097 125.302,0.036 125.302,0.036 l 0,0 0,3.53 -15.561,0 0,10.909 7.219,0 0,-2.727 17.327,0 0,-3.691 -2.727,0 0,-3.368 4.332,0 4.011,-3.21 -0.642,-3.048 21.659,0 0,8.825 5.616,0 0,-5.135 10.268,0 0,7.221 7.54,0 0,-5.295 6.146,0 0,6.738 8.884,7.664 3.261,0 0,-5.802 4.973,0 0,5.642 3.37,2.123 9.947,0 -2.567,-4.012 -3.691,0 0,-2.887 5.616,0 4.813,6.417 7.22,0 0,-3.368 -8.664,-8.505 -1.764,2.087 -5.295,0 0,-2.087 4.011,0 0,-3.208 -16.525,0 0,3.208 -4.653,0 0,-2.245 1.925,0 0.161,-1.605 -6.9,-8.664 -9.465,0 -8.824,-7.701 -24.868,0 -18.291,-9.627 2.888,-5.295 16.044,8.985 26.954,0 8.664,7.862 8.343,0 9.466,8.984 14.92,0 c 0,0 1.123,1.766 3.37,1.445 l 0,0 c 2.245,-0.321 7.059,0.481 8.342,1.925 l 0,0 c 1.284,1.445 3.691,2.407 4.653,2.407 l 0,0 c 0.963,0 4.493,-0.321 7.06,3.209 l 0,0 c 2.566,3.53 5.936,8.985 13.637,8.985 l 0,0 4.652,0 0,-4.974 2.247,0 0,4.652 c 0,0 1.443,1.926 2.567,0.963 l 0,0 c 1.123,-0.963 0.963,-1.925 2.728,-0.641 l 0,0 c 1.764,1.283 3.69,2.086 3.85,0.641 l 0,0 c 0.16,-1.443 0,-3.208 0,-3.208 l 0,0 -3.369,0 0,-2.247 3.369,0 0,-3.209 -10.91,0 0,-1.925 15.402,0 0,12.194 40.752,0 c 0,0 4.331,-1.444 12.834,-1.444 l 0,0 19.253,0 0,18.175 3.69,0 0,-18.175 76.321,0 0,195.42 -430.891,0 z" />
    </clipPath>
    <clipPath
       id="clipPath10295"
       clipPathUnits="userSpaceOnUse">
      <path
         id="path10297"
         d="m 101.353,127.817 17.154,0 0,7.874 -17.154,0 0,-7.874 z" />
    </clipPath>
    <clipPath
       id="clipPath10287"
       clipPathUnits="userSpaceOnUse">
      <path
         id="path10289"
         d="m -32767,32767 65534,0 0,-65534 -65534,0 0,65534 z" />
    </clipPath>
    <clipPath
       id="clipPath10271"
       clipPathUnits="userSpaceOnUse">
      <path
         id="path10273"
         d="m 103.651,133.406 c -0.299,0 -0.562,-0.263 -0.562,-0.562 l 0,0 0,-2.45 c 0,-0.3 0.263,-0.563 0.562,-0.563 l 0,0 12.289,0 c 0.3,0 0.562,0.263 0.562,0.563 l 0,0 0,2.45 c 0,0.299 -0.262,0.562 -0.562,0.562 l 0,0 -12.289,0 z" />
    </clipPath>
    <clipPath
       id="clipPath10263"
       clipPathUnits="userSpaceOnUse">
      <path
         id="path10265"
         d="m -32767,32767 65534,0 0,-65534 -65534,0 0,65534 z" />
    </clipPath>
    <clipPath
       id="clipPath10253"
       clipPathUnits="userSpaceOnUse">
      <path
         id="path10255"
         d="m 107.717,409.28 435.118,0 0,350.404 -435.118,0 0,-350.404 z" />
    </clipPath>
    <clipPath
       id="clipPath7609"
       clipPathUnits="userSpaceOnUse">
      <path
         id="path7611"
         d="m 110.007,672.01 0,-212.944 c 19.449,-0.097 125.302,0.036 125.302,0.036 l 0,0 0,3.53 -15.561,0 0,10.909 7.219,0 0,-2.727 17.327,0 0,-3.691 -2.727,0 0,-3.368 4.332,0 4.011,-3.21 -0.642,-3.048 21.659,0 0,8.825 5.616,0 0,-5.135 10.268,0 0,7.221 7.54,0 0,-5.295 6.146,0 0,6.738 8.884,7.664 3.261,0 0,-5.802 4.973,0 0,5.642 3.37,2.123 9.947,0 -2.567,-4.012 -3.691,0 0,-2.887 5.616,0 4.813,6.417 7.22,0 0,-3.368 -8.664,-8.505 -1.764,2.087 -5.295,0 0,-2.087 4.011,0 0,-3.208 -16.525,0 0,3.208 -4.653,0 0,-2.245 1.925,0 0.161,-1.605 -6.9,-8.664 -9.465,0 -8.824,-7.701 -24.868,0 -18.291,-9.627 2.888,-5.295 16.044,8.985 26.954,0 8.664,7.862 8.343,0 9.466,8.984 14.92,0 c 0,0 1.123,1.766 3.37,1.445 l 0,0 c 2.245,-0.321 7.059,0.481 8.342,1.925 l 0,0 c 1.284,1.445 3.691,2.407 4.653,2.407 l 0,0 c 0.963,0 4.493,-0.321 7.06,3.209 l 0,0 c 2.566,3.53 5.936,8.985 13.637,8.985 l 0,0 4.652,0 0,-4.974 2.247,0 0,4.652 c 0,0 1.443,1.926 2.567,0.963 l 0,0 c 1.123,-0.963 0.963,-1.925 2.728,-0.641 l 0,0 c 1.764,1.283 3.69,2.086 3.85,0.641 l 0,0 c 0.16,-1.443 0,-3.208 0,-3.208 l 0,0 -3.369,0 0,-2.247 3.369,0 0,-3.209 -10.91,0 0,-1.925 15.402,0 0,12.194 40.752,0 c 0,0 4.331,-1.444 12.834,-1.444 l 0,0 19.253,0 0,18.175 3.69,0 0,-18.175 76.321,0 0,195.42 -430.891,0 z" />
    </clipPath>
    <clipPath
       id="clipPath7597"
       clipPathUnits="userSpaceOnUse">
      <path
         id="path7599"
         d="m 336.575,641.143 3.236,0 0,3.236 -3.236,0 0,-3.236 z" />
    </clipPath>
    <clipPath
       id="clipPath7563"
       clipPathUnits="userSpaceOnUse">
      <path
         id="path7565"
         d="m 110.007,672.01 0,-212.944 c 19.449,-0.097 125.302,0.036 125.302,0.036 l 0,0 0,3.53 -15.561,0 0,10.909 7.219,0 0,-2.727 17.327,0 0,-3.691 -2.727,0 0,-3.368 4.332,0 4.011,-3.21 -0.642,-3.048 21.659,0 0,8.825 5.616,0 0,-5.135 10.268,0 0,7.221 7.54,0 0,-5.295 6.146,0 0,6.738 8.884,7.664 3.261,0 0,-5.802 4.973,0 0,5.642 3.37,2.123 9.947,0 -2.567,-4.012 -3.691,0 0,-2.887 5.616,0 4.813,6.417 7.22,0 0,-3.368 -8.664,-8.505 -1.764,2.087 -5.295,0 0,-2.087 4.011,0 0,-3.208 -16.525,0 0,3.208 -4.653,0 0,-2.245 1.925,0 0.161,-1.605 -6.9,-8.664 -9.465,0 -8.824,-7.701 -24.868,0 -18.291,-9.627 2.888,-5.295 16.044,8.985 26.954,0 8.664,7.862 8.343,0 9.466,8.984 14.92,0 c 0,0 1.123,1.766 3.37,1.445 l 0,0 c 2.245,-0.321 7.059,0.481 8.342,1.925 l 0,0 c 1.284,1.445 3.691,2.407 4.653,2.407 l 0,0 c 0.963,0 4.493,-0.321 7.06,3.209 l 0,0 c 2.566,3.53 5.936,8.985 13.637,8.985 l 0,0 4.652,0 0,-4.974 2.247,0 0,4.652 c 0,0 1.443,1.926 2.567,0.963 l 0,0 c 1.123,-0.963 0.963,-1.925 2.728,-0.641 l 0,0 c 1.764,1.283 3.69,2.086 3.85,0.641 l 0,0 c 0.16,-1.443 0,-3.208 0,-3.208 l 0,0 -3.369,0 0,-2.247 3.369,0 0,-3.209 -10.91,0 0,-1.925 15.402,0 0,12.194 40.752,0 c 0,0 4.331,-1.444 12.834,-1.444 l 0,0 19.253,0 0,18.175 3.69,0 0,-18.175 76.321,0 0,195.42 -430.891,0 z" />
    </clipPath>
    <clipPath
       id="clipPath7551"
       clipPathUnits="userSpaceOnUse">
      <path
         id="path7553"
         d="m 310.999,647.127 3.236,0 0,3.236 -3.236,0 0,-3.236 z" />
    </clipPath>
    <clipPath
       id="clipPath5343"
       clipPathUnits="userSpaceOnUse">
      <path
         id="path5345"
         d="m 110.007,672.01 0,-212.944 c 19.449,-0.097 125.302,0.036 125.302,0.036 l 0,0 0,3.53 -15.561,0 0,10.909 7.219,0 0,-2.727 17.327,0 0,-3.691 -2.727,0 0,-3.368 4.332,0 4.011,-3.21 -0.642,-3.048 21.659,0 0,8.825 5.616,0 0,-5.135 10.268,0 0,7.221 7.54,0 0,-5.295 6.146,0 0,6.738 8.884,7.664 3.261,0 0,-5.802 4.973,0 0,5.642 3.37,2.123 9.947,0 -2.567,-4.012 -3.691,0 0,-2.887 5.616,0 4.813,6.417 7.22,0 0,-3.368 -8.664,-8.505 -1.764,2.087 -5.295,0 0,-2.087 4.011,0 0,-3.208 -16.525,0 0,3.208 -4.653,0 0,-2.245 1.925,0 0.161,-1.605 -6.9,-8.664 -9.465,0 -8.824,-7.701 -24.868,0 -18.291,-9.627 2.888,-5.295 16.044,8.985 26.954,0 8.664,7.862 8.343,0 9.466,8.984 14.92,0 c 0,0 1.123,1.766 3.37,1.445 l 0,0 c 2.245,-0.321 7.059,0.481 8.342,1.925 l 0,0 c 1.284,1.445 3.691,2.407 4.653,2.407 l 0,0 c 0.963,0 4.493,-0.321 7.06,3.209 l 0,0 c 2.566,3.53 5.936,8.985 13.637,8.985 l 0,0 4.652,0 0,-4.974 2.247,0 0,4.652 c 0,0 1.443,1.926 2.567,0.963 l 0,0 c 1.123,-0.963 0.963,-1.925 2.728,-0.641 l 0,0 c 1.764,1.283 3.69,2.086 3.85,0.641 l 0,0 c 0.16,-1.443 0,-3.208 0,-3.208 l 0,0 -3.369,0 0,-2.247 3.369,0 0,-3.209 -10.91,0 0,-1.925 15.402,0 0,12.194 40.752,0 c 0,0 4.331,-1.444 12.834,-1.444 l 0,0 19.253,0 0,18.175 3.69,0 0,-18.175 76.321,0 0,195.42 -430.891,0 z" />
    </clipPath>
    <clipPath
       id="clipPath5329"
       clipPathUnits="userSpaceOnUse">
      <path
         id="path5331"
         d="m 1.836,204.327 0,-165.539 c 15.292,-0.076 97.572,0.028 97.572,0.028 l 0,0 0,2.75 -12.125,0 0,8.5 5.625,0 0,-2.125 13.5,0 0,-2.875 -2.125,0 0,-2.626 3.375,0 3.125,-2.499 -0.501,-2.375 16.875,0 0,6.875 4.375,0 0,-4 8,0 0,5.625 5.875,0 0,-4.125 4.789,0 0,5.25 6.921,5.97 2.54,0 0,-4.52 3.875,0 0,4.396 2.625,1.654 7.75,0 -2,-3.125 -2.875,0 0,-2.25 4.375,0 3.75,5 5.625,0 0,-2.625 -6.75,-6.625 -1.375,1.625 -4.125,0 0,-1.625 3.125,0 0,-2.5 -12.875,0 0,2.5 -3.625,0 0,-1.75 1.499,0 0.126,-1.25 -5.375,-6.75 -7.375,0 -6.875,-6 -19.374,0 -14.25,-7.501 2.249,-4.125 12.5,7.001 21,0 6.75,6.125 6.5,0 7.375,6.999 11.625,0 c 0,0 0.874,1.376 2.625,1.125 l 0,0 c 1.75,-0.249 5.5,0.376 6.5,1.501 l 0,0 c 1,1.125 2.874,1.875 3.624,1.875 l 0,0 c 0.751,0 3.5,-0.25 5.5,2.5 l 0,0 c 2,2.75 4.625,7 10.625,7 l 0,0 3.626,0 0,-3.875 1.749,0 0,3.625 c 0,0 1.125,1.5 2,0.75 l 0,0 c 0.875,-0.75 0.75,-1.5 2.125,-0.5 l 0,0 c 1.375,1 2.875,1.625 3,0.5 l 0,0 c 0.125,-1.125 0,-2.5 0,-2.5 l 0,0 -2.625,0 0,-1.751 2.625,0 0,-2.499 -8.5,0 0,-1.5 12,0 0,9.5 31.75,0 c 0,0 3.375,-1.125 9.999,-1.125 l 0,0 15,0 0,14.16 2.875,0 0,-14.16 59.461,0 0,151.886 -335.655,0 z" />
    </clipPath>
    <clipPath
       id="clipPath5321"
       clipPathUnits="userSpaceOnUse">
      <path
         id="path5323"
         d="m -32767,32767 65534,0 0,-65534 -65534,0 0,65534 z" />
    </clipPath>
    <clipPath
       id="clipPath5159"
       clipPathUnits="userSpaceOnUse">
      <path
         id="path5161"
         d="m 101.351,127.816 17.153,0 0,7.874 -17.153,0 0,-7.874 z" />
    </clipPath>
    <clipPath
       id="clipPath5151"
       clipPathUnits="userSpaceOnUse">
      <path
         id="path5153"
         d="m -32767,32767 65534,0 0,-65534 -65534,0 0,65534 z" />
    </clipPath>
    <clipPath
       id="clipPath5135"
       clipPathUnits="userSpaceOnUse">
      <path
         id="path5137"
         d="m 103.651,133.406 c -0.299,0 -0.562,-0.263 -0.562,-0.562 l 0,0 0,-2.45 c 0,-0.3 0.263,-0.563 0.562,-0.563 l 0,0 12.289,0 c 0.3,0 0.562,0.263 0.562,0.563 l 0,0 0,2.45 c 0,0.299 -0.262,0.562 -0.562,0.562 l 0,0 -12.289,0 z" />
    </clipPath>
    <clipPath
       id="clipPath5127"
       clipPathUnits="userSpaceOnUse">
      <path
         id="path5129"
         d="m -32767,32767 65534,0 0,-65534 -65534,0 0,65534 z" />
    </clipPath>
    <clipPath
       id="clipPath2481"
       clipPathUnits="userSpaceOnUse">
      <path
         id="path9242"
         d="m 107.717,409.28 435.118,0 0,350.404 -435.118,0 0,-350.404 z" />
    </clipPath>
    <clipPath
       id="clipPath2469"
       clipPathUnits="userSpaceOnUse">
      <path
         id="path2471"
         d="m 336.575,641.143 3.236,0 0,3.236 -3.236,0 0,-3.236 z" />
    </clipPath>
    <clipPath
       id="clipPath2435"
       clipPathUnits="userSpaceOnUse">
      <path
         id="path2437"
         d="m 107.717,409.28 435.118,0 0,350.404 -435.118,0 0,-350.404 z" />
    </clipPath>
    <clipPath
       id="clipPath2423"
       clipPathUnits="userSpaceOnUse">
      <path
         id="path2425"
         d="m 310.999,647.127 3.236,0 0,3.236 -3.236,0 0,-3.236 z" />
    </clipPath>
    <clipPath
       id="clipPath167"
       clipPathUnits="userSpaceOnUse">
      <path
         id="path9233"
         d="m 107.717,409.28 435.118,0 0,350.404 -435.118,0 0,-350.404 z" />
    </clipPath>
    <clipPath
       id="clipPath137"
       clipPathUnits="userSpaceOnUse">
      <path
         id="path139"
         d="m 1.794,0.563 335.876,0 0,203.764 -335.876,0 0,-203.764 z" />
    </clipPath>
    <clipPath
       id="clipPath129"
       clipPathUnits="userSpaceOnUse">
      <path
         id="path131"
         d="m -32767,32767 65534,0 0,-65534 -65534,0 0,65534 z" />
    </clipPath>
    <clipPath
       id="clipPath113"
       clipPathUnits="userSpaceOnUse">
      <path
         id="path115"
         d="m 107.717,409.28 435.118,0 0,350.404 -435.118,0 0,-350.404 z" />
    </clipPath>
    <clipPath
       id="clipPath17"
       clipPathUnits="userSpaceOnUse">
      <path
         id="path19"
         d="m 0,0 595.276,0 0,935.433 L 0,935.433 0,0 Z" />
    </clipPath>
  </defs>
  <metadata
     id="metadata21849">
    <rdf:RDF>
      <cc:Work
         rdf:about="">
        <dc:format>image/svg+xml</dc:format>
        <dc:type
           rdf:resource="http://purl.org/dc/dcmitype/StillImage" />
        <dc:title></dc:title>
      </cc:Work>
    </rdf:RDF>
  </metadata>
  <g
     id="layer1"
     transform="translate(-0.78733474,136.12828)">
    <g
       id="layer1-6">
      <rect
         style="opacity:1;fill:#e1393e;fill-opacity:1;fill-rule:nonzero;stroke:none;stroke-width:7.08599997;stroke-linecap:round;stroke-linejoin:round;stroke-miterlimit:4;stroke-dasharray:7.086, 14.172;stroke-dashoffset:0;stroke-opacity:1"
         id="rect21854"
         width="64"
         height="64"
         x="0.78733474"
         y="-136.12828" />
      <path
         style="font-style:normal;font-variant:normal;font-weight:bold;font-stretch:normal;font-size:47.52000046px;line-height:125%;font-family:'Helvetica Neue';-inkscape-font-specification:'Helvetica Neue Bold';text-align:start;writing-mode:lr-tb;text-anchor:start;fill:#ffffff;fill-opacity:1;stroke:none;stroke-width:1px;stroke-linecap:butt;stroke-linejoin:miter;stroke-opacity:1"
         d="m 10.918671,-122.0771 0,33.92928 23.9976,0 0,-6.27264 -16.53696,0 0,-27.65664 -7.46064,0"
         id="text2382" />
      <path
         style="font-style:normal;font-variant:normal;font-weight:bold;font-stretch:normal;font-size:47.52000046px;line-height:125%;font-family:'Helvetica Neue';-inkscape-font-specification:'Helvetica Neue Bold';text-align:start;writing-mode:lr-tb;text-anchor:start;fill:#ffffff;fill-opacity:1;stroke:none;stroke-width:1px;stroke-linecap:butt;stroke-linejoin:miter;stroke-opacity:1"
         d="m 51.201204,-88.262718 0,-33.264002 -5.36976,0 c -0.190093,1.26723 -0.586092,2.32851 -1.188,3.18384 -0.601931,0.85539 -1.34641,1.55235 -2.23344,2.09088 -0.855369,0.50691 -1.837448,0.87123 -2.94624,1.09296 -1.077125,0.19011 -2.201764,0.26931 -3.37392,0.2376 l 0,5.08464 8.36352,0 0,21.574082 6.74784,0"
         id="text22626" />
    </g>
    <g
       transform="translate(64,0)"
       id="layer1-64">
      <rect
         style="opacity:1;fill:#317bc8;fill-opacity:1;fill-rule:nonzero;stroke:none;stroke-width:7.08599997;stroke-linecap:round;stroke-linejoin:round;stroke-miterlimit:4;stroke-dasharray:7.086, 14.172;stroke-dashoffset:0;stroke-opacity:1"
         id="rect21854-9"
         width="64"
         height="64"
         x="0.78733474"
         y="-136.12828" />
      <path
         style="font-style:normal;font-variant:normal;font-weight:bold;font-stretch:normal;font-size:47.52000046px;line-height:125%;font-family:'Helvetica Neue';-inkscape-font-specification:'Helvetica Neue Bold';text-align:start;writing-mode:lr-tb;text-anchor:start;fill:#ffffff;fill-opacity:1;stroke:none;stroke-width:1px;stroke-linecap:butt;stroke-linejoin:miter;stroke-opacity:1"
         d="m 10.918671,-122.0771 0,33.92928 23.9976,0 0,-6.27264 -16.53696,0 0,-27.65664 -7.46064,0"
         id="text2382-5" />
      <path
         style="font-style:normal;font-variant:normal;font-weight:bold;font-stretch:normal;font-size:47.52000046px;line-height:125%;font-family:'Helvetica Neue';-inkscape-font-specification:'Helvetica Neue Bold';text-align:start;writing-mode:lr-tb;text-anchor:start;fill:#ffffff;fill-opacity:1;stroke:none;stroke-width:1px;stroke-linecap:butt;stroke-linejoin:miter;stroke-opacity:1"
         d="m 56.333364,-115.96688 0,-5.55984 -18.58032,0 -3.27888,18.39024 6.08256,0 c 0.665272,-0.9187 1.378071,-1.58398 2.1384,-1.99584 0.760309,-0.4435 1.742389,-0.66526 2.94624,-0.66528 0.918706,2e-5 1.726546,0.15842 2.42352,0.4752 0.696944,0.31682 1.298864,0.76034 1.80576,1.33056 0.506863,0.57026 0.887022,1.23554 1.14048,1.99584 0.253422,0.76033 0.380142,1.56817 0.38016,2.423522 -1.8e-5,0.82369 -0.142578,1.631529 -0.42768,2.42352 -0.253458,0.760328 -0.633617,1.441447 -1.14048,2.04336 -0.475216,0.570246 -1.077136,1.045446 -1.80576,1.4256 -0.696974,0.348485 -1.488974,0.522725 -2.376,0.52272 -1.520651,5e-6 -2.77201,-0.443515 -3.75408,-1.33056 -0.982088,-0.918713 -1.552327,-2.138392 -1.71072,-3.65904 l -6.74784,0 c 0.03168,1.742408 0.380159,3.278886 1.04544,4.60944 0.696958,1.298884 1.615677,2.391843 2.75616,3.27888 1.140475,0.887041 2.439353,1.55232 3.89664,1.99584 1.48895,0.411839 3.041269,0.617759 4.65696,0.61776 1.679026,0.03168 3.263024,-0.237601 4.752,-0.80784 1.488941,-0.601919 2.78782,-1.441439 3.89664,-2.51856 1.140457,-1.077116 2.043337,-2.344315 2.70864,-3.8016 0.665255,-1.488952 0.997895,-3.088791 0.997921,-4.79952 -2.6e-5,-1.552312 -0.237626,-3.009582 -0.712801,-4.371842 -0.443544,-1.3939 -1.108823,-2.59774 -1.99584,-3.61152 -0.855382,-1.01374 -1.91666,-1.82158 -3.18384,-2.42352 -1.267218,-0.6019 -2.724497,-0.90286 -4.37184,-0.90288 -1.330574,2e-5 -2.518572,0.20594 -3.564,0.61776 -1.04545,0.38018 -2.027529,1.02962 -2.94624,1.94832 l -0.09504,-0.095 1.33056,-7.55568 13.73328,0"
         id="text22626-0" />
    </g>
    <g
       id="layer1-4"
       transform="translate(669.93022,-223.91905)">
      <rect
         style="fill:#f1832d"
         y="151.79077"
         x="-669.14288"
         id="rect3"
         height="64"
         width="64" />
      <g
         transform="matrix(0.02204859,0,0,0.02204859,-669.14286,151.79074)"
         id="g7">
        <g
           id="g9">
          <path
             d="m 444.926,381.65 337.691,0 0,1254.28 750.265,0 0,284.458 -1087.956,0 0,-1538.738 z"
             id="path11"
             style="fill:#ffffff" />
          <path
             d="m 1839.609,1532.091 c 10.034,50.165 33.011,93.884 68.88,131.132 35.869,37.272 80.342,55.883 133.444,55.883 55.936,0 101.863,-16.141 137.732,-48.449 35.869,-32.283 64.591,-71.766 86.112,-118.447 21.521,-46.656 36.936,-96.535 46.267,-149.663 9.305,-53.128 15.413,-100.485 18.298,-142.125 l -4.573,-4.315 c -41.693,60.51 -90.532,103.735 -146.571,129.676 -56.039,25.941 -120.683,38.885 -193.954,38.885 -64.669,0 -127.882,-13.984 -189.665,-42.004 -61.783,-28.02 -114.21,-65.734 -157.305,-113.145 -40.236,-45.979 -69.711,-98.432 -88.373,-157.33 -18.688,-58.898 -28.02,-118.498 -28.02,-178.853 0,-77.561 12.554,-149.768 37.715,-216.567 25.134,-66.8 61.055,-124.996 107.763,-174.563 46.709,-49.567 102.384,-88.712 167.052,-117.459 64.67,-28.722 136.512,-43.095 215.555,-43.095 113.507,0 207.626,22.639 282.353,67.892 74.701,45.252 134.354,104.878 178.904,178.853 44.552,73.974 75.431,157.668 92.688,251.032 17.233,93.364 25.862,187.456 25.862,282.249 0,91.961 -10.787,184.961 -32.309,279.053 -21.547,94.092 -56.013,178.853 -103.397,254.281 -47.384,75.43 -108.413,136.824 -183.088,184.234 -74.677,47.383 -165.856,71.088 -273.542,71.088 -130.689,0 -240.532,-36.285 -329.556,-108.855 -89.05,-72.57 -142.178,-175.707 -159.384,-309.386 l 291.112,0 z m 218.934,-338.653 c 40.236,0 75.793,-7.511 106.672,-22.562 30.878,-15.049 56.377,-35.479 76.495,-61.263 20.118,-25.785 35.192,-55.545 45.253,-89.231 10.058,-33.686 15.102,-69.139 15.102,-106.412 0,-34.388 -5.407,-68.412 -16.168,-102.098 -10.787,-33.686 -26.59,-63.785 -47.41,-90.297 -20.846,-26.512 -46.344,-47.644 -76.495,-63.421 -30.177,-15.751 -64.669,-23.653 -103.448,-23.653 -37.352,0 -70.023,7.902 -98.043,23.653 -28.02,15.777 -52.088,36.57 -72.207,62.355 -20.117,25.784 -35.192,55.181 -45.252,88.14 -10.059,32.958 -15.075,66.645 -15.075,101.031 0,35.817 4.652,70.568 14.01,104.255 9.331,33.686 23.341,63.785 42.004,90.297 18.661,26.512 42.73,48.008 72.206,64.486 29.448,16.481 63.575,24.72 102.356,24.72 z"
             id="path13"
             style="fill:#ffffff" />
        </g>
      </g>
      <g
         style="font-style:normal;font-variant:normal;font-weight:bold;font-stretch:normal;font-size:12.78818321px;line-height:125%;font-family:Arial;-inkscape-font-specification:'Arial Bold';letter-spacing:-0.24253449px;word-spacing:0px;fill:#ffffff;fill-opacity:1;stroke:none"
         id="text3036">
        <path
           d="m -653.73055,206.84155 -3.99922,-7.06701 q 0.0326,0.28659 0.0586,0.57318 0.0261,0.2475 0.0391,0.53409 0.0195,0.28659 0.0195,0.54713 l 0,5.41261 -1.7065,0 0,-9.17735 2.19501,0 4.05783,7.12564 q -0.0326,-0.27356 -0.0586,-0.57318 -0.026,-0.25402 -0.0456,-0.57318 -0.013,-0.31915 -0.013,-0.64482 l 0,-5.33446 1.7065,0 0,9.17735 -2.25362,0 z"
           style="font-size:13.33939743px;letter-spacing:-0.44097179px;fill:#ffffff;fill-opacity:1"
           id="path3360" />
        <path
           d="m -643.38537,203.3113 q 0,0.80766 -0.22797,1.47854 -0.22145,0.67088 -0.67088,1.15938 -0.44942,0.48199 -1.1203,0.75555 -0.67088,0.26705 -1.56321,0.26705 -0.85977,0 -1.51762,-0.26705 -0.65785,-0.26705 -1.10727,-0.74904 -0.44291,-0.48199 -0.67088,-1.15286 -0.22797,-0.6774 -0.22797,-1.49157 0,-0.78812 0.21494,-1.45248 0.22146,-0.67088 0.66437,-1.15938 0.44291,-0.48851 1.11379,-0.76207 0.67087,-0.27356 1.56972,-0.27356 0.95095,0 1.62183,0.27356 0.67088,0.27356 1.09425,0.76207 0.42988,0.48199 0.62528,1.15287 0.20192,0.66436 0.20192,1.45899 z m -1.91493,0 q 0,-1.25708 -0.41035,-1.82374 -0.41034,-0.56667 -1.19195,-0.56667 -0.80765,0 -1.23754,0.57318 -0.42988,0.57318 -0.42988,1.81723 0,0.6318 0.11073,1.08774 0.11724,0.45593 0.32567,0.74903 0.20842,0.29311 0.50153,0.4364 0.2931,0.13678 0.64482,0.13678 0.40383,0 0.71647,-0.13678 0.31916,-0.14329 0.5341,-0.4364 0.21494,-0.2931 0.32567,-0.74903 0.11073,-0.45594 0.11073,-1.08774 z"
           style="font-size:13.33939743px;letter-spacing:-0.44097179px;fill:#ffffff;fill-opacity:1"
           id="path3362" />
        <path
           d="m -642.36933,206.84155 0,-5.39307 q 0,-0.22797 -0.007,-0.48199 0,-0.25403 -0.013,-0.48199 -0.007,-0.23449 -0.013,-0.41686 -0.007,-0.18889 -0.0195,-0.27356 l 1.74559,0 q 0.013,0.0782 0.026,0.27356 0.013,0.18889 0.0261,0.41686 0.013,0.22796 0.0195,0.45593 0.013,0.22146 0.013,0.35824 l 0.0261,0 q 0.13678,-0.38429 0.27357,-0.68391 0.13678,-0.30613 0.31915,-0.51455 0.18889,-0.21494 0.44942,-0.32567 0.26054,-0.11724 0.64483,-0.11724 0.16283,0 0.31915,0.0326 0.16284,0.0261 0.24751,0.0651 l 0,1.53064 q -0.17586,-0.0391 -0.35823,-0.0651 -0.17586,-0.0326 -0.42337,-0.0326 -0.68391,0 -1.0682,0.55364 -0.37777,0.55364 -0.37777,1.64137 l 0,3.4586 -1.83026,0 z"
           style="font-size:13.33939743px;letter-spacing:-0.44097179px;fill:#ffffff;fill-opacity:1"
           id="path3364" />
        <path
           d="m -633.05978,206.84155 q -0.013,-0.0521 -0.0326,-0.18237 -0.013,-0.13678 -0.0326,-0.30613 -0.013,-0.16935 -0.0261,-0.34521 -0.007,-0.17586 -0.007,-0.31264 l -0.0261,0 q -0.31916,0.6839 -0.89233,0.98352 -0.56667,0.2931 -1.3613,0.2931 -0.66436,0 -1.15287,-0.27356 -0.48199,-0.27356 -0.80114,-0.76207 -0.31265,-0.4885 -0.46897,-1.15286 -0.1498,-0.67088 -0.1498,-1.459 0,-0.80115 0.15632,-1.47202 0.16283,-0.67088 0.49501,-1.15287 0.33219,-0.48851 0.84023,-0.76207 0.51456,-0.27356 1.218,-0.27356 0.34521,0 0.66437,0.0716 0.31915,0.0716 0.59271,0.22145 0.27356,0.14981 0.49502,0.38429 0.22145,0.23448 0.37778,0.56667 l 0.013,0 q 0,-0.0651 -0.007,-0.18889 0,-0.13027 0,-0.2931 0,-0.16284 -0.007,-0.3387 0,-0.17586 0,-0.3387 l 0,-2.57278 1.83025,0 0,8.1287 q 0,0.51455 0.0195,0.91838 0.0195,0.39732 0.0326,0.61877 l -1.77164,0 z m -0.0847,-3.56281 q 0,-0.69694 -0.13027,-1.15287 -0.13027,-0.46245 -0.34521,-0.7295 -0.20843,-0.27356 -0.48199,-0.37778 -0.26705,-0.11072 -0.54712,-0.11072 -0.35172,0 -0.62529,0.13678 -0.26704,0.13678 -0.45593,0.42988 -0.18238,0.2931 -0.28008,0.74904 -0.0912,0.45593 -0.0912,1.10076 0,2.39692 1.43945,2.39692 0.27356,0 0.54713,-0.11724 0.27356,-0.11724 0.4885,-0.39732 0.21494,-0.28007 0.34521,-0.74903 0.13678,-0.47548 0.13678,-1.17892 z"
           style="font-size:13.33939743px;letter-spacing:-0.44097179px;fill:#ffffff;fill-opacity:1"
           id="path3366" />
      </g>
    </g>
    <g
       transform="translate(64,64)"
       id="layer1-7">
      <rect
         style="opacity:1;fill:#00adef;fill-opacity:1;fill-rule:nonzero;stroke:none;stroke-width:7.08599997;stroke-linecap:round;stroke-linejoin:round;stroke-miterlimit:4;stroke-dasharray:7.086, 14.172;stroke-dashoffset:0;stroke-opacity:1"
         id="rect21854-2"
         width="64"
         height="64"
         x="0.78733474"
         y="-136.12828" />
      <path
         transform="scale(0.9941422,1.0058923)"
         style="font-style:normal;font-variant:normal;font-weight:bold;font-stretch:normal;font-size:43.06978226px;line-height:125%;font-family:'Helvetica Neue';-inkscape-font-specification:'Helvetica Neue Bold';text-align:start;writing-mode:lr-tb;text-anchor:start;fill:#ffffff;fill-opacity:1;stroke:none;stroke-width:1px;stroke-linecap:butt;stroke-linejoin:miter;stroke-opacity:1"
         d="m 7.9996427,-120.6471 0,30.751829 21.7502403,0 0,-5.685212 -14.988284,0 0,-25.066617 -6.7619563,0"
         id="text2382-2" />
      <path
         transform="scale(0.9913828,1.0086921)"
         style="font-style:normal;font-variant:normal;font-weight:bold;font-stretch:normal;font-size:43.03677368px;line-height:125%;font-family:'Helvetica Neue';-inkscape-font-specification:'Helvetica Neue Bold';text-align:start;writing-mode:lr-tb;text-anchor:start;fill:#ffffff;fill-opacity:1;stroke:none;stroke-width:1px;stroke-linecap:butt;stroke-linejoin:miter;stroke-opacity:1"
         d="m 38.912129,-89.640846 0,-30.125744 -4.863155,0 c -0.172159,1.14768 -0.530799,2.10883 -1.07592,2.88347 -0.545143,0.77468 -1.219385,1.40589 -2.022728,1.89361 -0.77467,0.45909 -1.664096,0.78904 -2.66828,0.98985 -0.975506,0.17217 -1.994042,0.2439 -3.055611,0.21518 l 0,4.60494 7.574472,0 0,19.538694 6.111222,0"
         id="text22626-6" />
      <path
         transform="scale(1.0029446,0.997064)"
         style="font-style:normal;font-variant:normal;font-weight:bold;font-stretch:normal;font-size:43.19571686px;line-height:125%;font-family:'Helvetica Neue';-inkscape-font-specification:'Helvetica Neue Bold';text-align:start;writing-mode:lr-tb;text-anchor:start;fill:#ffffff;fill-opacity:1;stroke:none;stroke-width:1px;stroke-linecap:butt;stroke-linejoin:miter;stroke-opacity:1"
         d="m 45.798535,-106.23693 c -7e-6,-0.51834 -7e-6,-1.13747 0,-1.85742 0.02879,-0.74871 0.08638,-1.51183 0.172783,-2.28937 0.08638,-0.77751 0.23037,-1.54063 0.431957,-2.28938 0.201572,-0.7775 0.475145,-1.46863 0.820719,-2.07339 0.374354,-0.60472 0.835108,-1.09427 1.382263,-1.46865 0.575932,-0.37434 1.281461,-0.56152 2.11659,-0.56155 0.835104,3e-5 1.540634,0.18721 2.11659,0.56155 0.575928,0.37438 1.051081,0.86393 1.425459,1.46865 0.374347,0.60476 0.647919,1.29589 0.820718,2.07339 0.201564,0.74875 0.345549,1.51187 0.431957,2.28938 0.115172,0.77754 0.172766,1.54066 0.172783,2.28937 0.02878,0.71995 0.04318,1.33908 0.0432,1.85742 -1.7e-5,0.86392 -0.02881,1.91502 -0.08639,3.15328 -0.05761,1.20949 -0.244793,2.39018 -0.561545,3.542052 -0.287987,1.123096 -0.777538,2.0878 -1.468654,2.894113 -0.662349,0.806325 -1.627052,1.209485 -2.894113,1.20948 -1.238288,5e-6 -2.188593,-0.403155 -2.850918,-1.20948 -0.662342,-0.806313 -1.151893,-1.771017 -1.468654,-2.894113 -0.287979,-1.151872 -0.460761,-2.332562 -0.518349,-3.542052 -0.0576,-1.23826 -0.0864,-2.28936 -0.08639,-3.15328 m -6.133792,0 c -10e-7,3.02371 0.287971,5.55785 0.863915,7.602442 0.604737,2.015806 1.411057,3.628445 2.41896,4.837921 1.007895,1.209481 2.174178,2.073395 3.498853,2.591743 1.353457,0.518348 2.778914,0.777522 4.276376,0.777522 1.526235,0 2.951692,-0.259174 4.276376,-0.777522 1.353448,-0.518348 2.53413,-1.382262 3.542049,-2.591743 1.036676,-1.209476 1.842995,-2.822115 2.41896,-4.837921 0.604717,-2.044592 0.907087,-4.578732 0.90711,-7.602442 -2.3e-5,-2.93729 -0.302393,-5.39945 -0.90711,-7.38647 -0.575965,-2.01578 -1.382284,-3.62842 -2.41896,-4.83792 -1.007919,-1.20945 -2.188601,-2.07337 -3.542049,-2.59174 -1.324684,-0.51832 -2.750141,-0.7775 -4.276376,-0.77753 -1.497462,3e-5 -2.922919,0.25921 -4.276376,0.77753 -1.324675,0.51837 -2.490958,1.38229 -3.498853,2.59174 -1.007903,1.2095 -1.814223,2.82214 -2.41896,4.83792 -0.575944,1.98702 -0.863916,4.44918 -0.863915,7.38647"
         id="text2389" />
    </g>
  </g>
</svg>
