<?xml version="1.0" encoding="UTF-8" standalone="no"?>
<svg
   xmlns:dc="http://purl.org/dc/elements/1.1/"
   xmlns:cc="http://creativecommons.org/ns#"
   xmlns:rdf="http://www.w3.org/1999/02/22-rdf-syntax-ns#"
   xmlns:svg="http://www.w3.org/2000/svg"
   xmlns="http://www.w3.org/2000/svg"
   width="128"
   height="64"
   id="svg21844"
   version="1.0">
  <defs
     id="defs21846" />
  <metadata
     id="metadata21849">
    <rdf:RDF>
      <cc:Work
         rdf:about="">
        <dc:format>image/svg+xml</dc:format>
        <dc:type
           rdf:resource="http://purl.org/dc/dcmitype/StillImage" />
        <dc:title></dc:title>
      </cc:Work>
    </rdf:RDF>
  </metadata>
  <g
     id="layer1"
     transform="translate(-0.78733474,136.12828)">
    <g
       id="layer1-3">
      <rect
         y="-136.12828"
         x="0.78733474"
         height="64"
         width="64"
         id="rect21854"
         style="opacity:1;fill:#9c459a;fill-opacity:1;fill-rule:nonzero;stroke:none;stroke-width:7.08599997;stroke-linecap:round;stroke-linejoin:round;stroke-miterlimit:4;stroke-dasharray:7.086, 14.172;stroke-dashoffset:0;stroke-opacity:1" />
      <path
         id="text2382"
         d="m 10.918671,-122.0771 0,33.92928 23.9976,0 0,-6.27264 -16.53696,0 0,-27.65664 -7.46064,0"
         style="font-style:normal;font-variant:normal;font-weight:bold;font-stretch:normal;font-size:47.52000046px;line-height:125%;font-family:'Helvetica Neue';-inkscape-font-specification:'Helvetica Neue Bold';text-align:start;writing-mode:lr-tb;text-anchor:start;fill:#ffffff;fill-opacity:1;stroke:none;stroke-width:1px;stroke-linecap:butt;stroke-linejoin:miter;stroke-opacity:1" />
      <path
         id="text22626"
         d="m 34.331604,-108.74384 6.46272,0 c -8e-6,-0.88702 0.07919,-1.77406 0.2376,-2.66112 0.190072,-0.91869 0.491031,-1.74237 0.90288,-2.47104 0.411831,-0.76029 0.95039,-1.36221 1.61568,-1.80576 0.696949,-0.47517 1.536468,-0.71277 2.51856,-0.7128 1.457265,3e-5 2.645264,0.45939 3.564,1.37808 0.950382,0.88707 1.425582,2.13843 1.4256,3.75408 -1.8e-5,1.01378 -0.237618,1.91666 -0.7128,2.70864 -0.443537,0.79202 -1.013776,1.50482 -1.71072,2.1384 -0.665295,0.63362 -1.409774,1.2197 -2.23344,1.75824 -0.823693,0.5069 -1.599852,1.01378 -2.32848,1.52064 -1.42561,0.9821 -2.787848,1.94833 -4.08672,2.89872 -1.267206,0.950413 -2.376005,1.995852 -3.3264,3.136322 -0.950403,1.108807 -1.710722,2.376006 -2.28096,3.8016 -0.538561,1.425603 -0.807841,3.104642 -0.80784,5.03712 l 24.425281,0 0,-5.79744 -15.729121,0 c 0.82367,-1.140473 1.774069,-2.138392 2.8512,-2.99376 1.077107,-0.855351 2.185906,-1.64735 3.3264,-2.376 1.140463,-0.760312 2.265102,-1.520632 3.37392,-2.280962 1.14046,-0.7603 2.154219,-1.59982 3.04128,-2.51856 0.887017,-0.95038 1.599817,-2.0275 2.1384,-3.23136 0.538536,-1.20382 0.807815,-2.64526 0.807841,-4.32432 -2.6e-5,-1.61565 -0.316825,-3.07293 -0.950401,-4.37184 -0.601943,-1.29885 -1.425622,-2.39181 -2.47104,-3.27888 -1.04546,-0.88701 -2.265139,-1.56813 -3.65904,-2.04336 -1.362256,-0.47516 -2.803695,-0.71276 -4.32432,-0.7128 -1.995851,4e-5 -3.76993,0.34852 -5.32224,1.04544 -1.520647,0.66531 -2.787845,1.61571 -3.8016,2.8512 -1.013763,1.20387 -1.774083,2.62947 -2.28096,4.2768 -0.506882,1.61571 -0.728641,3.37394 -0.66528,5.27472"
         style="font-style:normal;font-variant:normal;font-weight:bold;font-stretch:normal;font-size:47.52000046px;line-height:125%;font-family:'Helvetica Neue';-inkscape-font-specification:'Helvetica Neue Bold';text-align:start;writing-mode:lr-tb;text-anchor:start;fill:#ffffff;fill-opacity:1;stroke:none;stroke-width:1px;stroke-linecap:butt;stroke-linejoin:miter;stroke-opacity:1" />
    </g>
    <g
       transform="translate(64,6.3964845e-7)"
       id="layer1-7">
      <rect
         style="opacity:1;fill:#00adef;fill-opacity:1;fill-rule:nonzero;stroke:none;stroke-width:7.08599997;stroke-linecap:round;stroke-linejoin:round;stroke-miterlimit:4;stroke-dasharray:7.086, 14.172;stroke-dashoffset:0;stroke-opacity:1"
         id="rect21854-0"
         width="64"
         height="64"
         x="0.78733474"
         y="-136.12828" />
      <path
         transform="scale(0.9941422,1.0058923)"
         style="font-style:normal;font-variant:normal;font-weight:bold;font-stretch:normal;font-size:43.06978226px;line-height:125%;font-family:'Helvetica Neue';-inkscape-font-specification:'Helvetica Neue Bold';text-align:start;writing-mode:lr-tb;text-anchor:start;fill:#ffffff;fill-opacity:1;stroke:none;stroke-width:1px;stroke-linecap:butt;stroke-linejoin:miter;stroke-opacity:1"
         d="m 7.9996427,-120.6471 0,30.751829 21.7502403,0 0,-5.685212 -14.988284,0 0,-25.066617 -6.7619563,0"
         id="text2382-9" />
      <path
         transform="scale(0.9913828,1.0086921)"
         style="font-style:normal;font-variant:normal;font-weight:bold;font-stretch:normal;font-size:43.03677368px;line-height:125%;font-family:'Helvetica Neue';-inkscape-font-specification:'Helvetica Neue Bold';text-align:start;writing-mode:lr-tb;text-anchor:start;fill:#ffffff;fill-opacity:1;stroke:none;stroke-width:1px;stroke-linecap:butt;stroke-linejoin:miter;stroke-opacity:1"
         d="m 38.912129,-89.640846 0,-30.125744 -4.863155,0 c -0.172159,1.14768 -0.530799,2.10883 -1.07592,2.88347 -0.545143,0.77468 -1.219385,1.40589 -2.022728,1.89361 -0.77467,0.45909 -1.664096,0.78904 -2.66828,0.98985 -0.975506,0.17217 -1.994042,0.2439 -3.055611,0.21518 l 0,4.60494 7.574472,0 0,19.538694 6.111222,0"
         id="text22626-3" />
      <path
         transform="scale(1.0029446,0.997064)"
         style="font-style:normal;font-variant:normal;font-weight:bold;font-stretch:normal;font-size:43.19571686px;line-height:125%;font-family:'Helvetica Neue';-inkscape-font-specification:'Helvetica Neue Bold';text-align:start;writing-mode:lr-tb;text-anchor:start;fill:#ffffff;fill-opacity:1;stroke:none;stroke-width:1px;stroke-linecap:butt;stroke-linejoin:miter;stroke-opacity:1"
         d="m 45.798535,-106.23693 c -7e-6,-0.51834 -7e-6,-1.13747 0,-1.85742 0.02879,-0.74871 0.08638,-1.51183 0.172783,-2.28937 0.08638,-0.77751 0.23037,-1.54063 0.431957,-2.28938 0.201572,-0.7775 0.475145,-1.46863 0.820719,-2.07339 0.374354,-0.60472 0.835108,-1.09427 1.382263,-1.46865 0.575932,-0.37434 1.281461,-0.56152 2.11659,-0.56155 0.835104,3e-5 1.540634,0.18721 2.11659,0.56155 0.575928,0.37438 1.051081,0.86393 1.425459,1.46865 0.374347,0.60476 0.647919,1.29589 0.820718,2.07339 0.201564,0.74875 0.345549,1.51187 0.431957,2.28938 0.115172,0.77754 0.172766,1.54066 0.172783,2.28937 0.02878,0.71995 0.04318,1.33908 0.0432,1.85742 -1.7e-5,0.86392 -0.02881,1.91502 -0.08639,3.15328 -0.05761,1.20949 -0.244793,2.39018 -0.561545,3.542052 -0.287987,1.123096 -0.777538,2.0878 -1.468654,2.894113 -0.662349,0.806325 -1.627052,1.209485 -2.894113,1.20948 -1.238288,5e-6 -2.188593,-0.403155 -2.850918,-1.20948 -0.662342,-0.806313 -1.151893,-1.771017 -1.468654,-2.894113 -0.287979,-1.151872 -0.460761,-2.332562 -0.518349,-3.542052 -0.0576,-1.23826 -0.0864,-2.28936 -0.08639,-3.15328 m -6.133792,0 c -10e-7,3.02371 0.287971,5.55785 0.863915,7.602442 0.604737,2.015806 1.411057,3.628445 2.41896,4.837921 1.007895,1.209481 2.174178,2.073395 3.498853,2.591743 1.353457,0.518348 2.778914,0.777522 4.276376,0.777522 1.526235,0 2.951692,-0.259174 4.276376,-0.777522 1.353448,-0.518348 2.53413,-1.382262 3.542049,-2.591743 1.036676,-1.209476 1.842995,-2.822115 2.41896,-4.837921 0.604717,-2.044592 0.907087,-4.578732 0.90711,-7.602442 -2.3e-5,-2.93729 -0.302393,-5.39945 -0.90711,-7.38647 -0.575965,-2.01578 -1.382284,-3.62842 -2.41896,-4.83792 -1.007919,-1.20945 -2.188601,-2.07337 -3.542049,-2.59174 -1.324684,-0.51832 -2.750141,-0.7775 -4.276376,-0.77753 -1.497462,3e-5 -2.922919,0.25921 -4.276376,0.77753 -1.324675,0.51837 -2.490958,1.38229 -3.498853,2.59174 -1.007903,1.2095 -1.814223,2.82214 -2.41896,4.83792 -0.575944,1.98702 -0.863916,4.44918 -0.863915,7.38647"
         id="text2389" />
    </g>
  </g>
</svg>
