<?xml version="1.0" encoding="UTF-8" standalone="no"?>
<svg id="svg21844" xmlns:rdf="http://www.w3.org/1999/02/22-rdf-syntax-ns#" xmlns="http://www.w3.org/2000/svg" height="64" width="128" version="1.0" xmlns:cc="http://creativecommons.org/ns#" xmlns:dc="http://purl.org/dc/elements/1.1/">
 <metadata id="metadata21849">
  <rdf:RDF>
   <cc:Work rdf:about="">
    <dc:format>image/svg+xml</dc:format>
    <dc:type rdf:resource="http://purl.org/dc/dcmitype/StillImage"/>
    <dc:title/>
   </cc:Work>
  </rdf:RDF>
 </metadata>
 <g id="layer1" transform="translate(-.78733 136.13)">
  <g id="layer1-3">
   <rect id="rect21854" height="64" width="64" y="-136.13" x=".78733" fill="#9c459a"/>
   <path id="text2382" fill="#fff" d="m10.919-122.08v33.929h23.998v-6.2726h-16.537v-27.657h-7.4606"/>
   <path id="text22626" fill="#fff" d="m34.332-108.74h6.4627c-0.000008-0.88702 0.07919-1.7741 0.2376-2.6611 0.19007-0.91869 0.49103-1.7424 0.90288-2.471 0.41183-0.76029 0.95039-1.3622 1.6157-1.8058 0.69695-0.47517 1.5365-0.71277 2.5186-0.7128 1.4573 0.00003 2.6453 0.45939 3.564 1.3781 0.95038 0.88707 1.4256 2.1384 1.4256 3.7541-0.000018 1.0138-0.23762 1.9167-0.7128 2.7086-0.44354 0.79202-1.0138 1.5048-1.7107 2.1384-0.6653 0.63362-1.4098 1.2197-2.2334 1.7582-0.82369 0.5069-1.5999 1.0138-2.3285 1.5206-1.4256 0.9821-2.7878 1.9483-4.0867 2.8987-1.2672 0.95041-2.376 1.9959-3.3264 3.1363-0.9504 1.1088-1.7107 2.376-2.281 3.8016-0.53856 1.4256-0.80784 3.1046-0.80784 5.0371h24.425v-5.7974h-15.729c0.82367-1.1405 1.7741-2.1384 2.8512-2.9938 1.0771-0.85535 2.1859-1.6474 3.3264-2.376 1.1405-0.76031 2.2651-1.5206 3.3739-2.281 1.1405-0.7603 2.1542-1.5998 3.0413-2.5186 0.88702-0.95038 1.5998-2.0275 2.1384-3.2314 0.53854-1.2038 0.80782-2.6453 0.80784-4.3243-0.000026-1.6156-0.31682-3.0729-0.9504-4.3718-0.60194-1.2988-1.4256-2.3918-2.471-3.2789-1.0455-0.88701-2.2651-1.5681-3.659-2.0434-1.3623-0.47516-2.8037-0.71276-4.3243-0.7128-1.9959 0.00004-3.7699 0.34852-5.3222 1.0454-1.5206 0.66531-2.7878 1.6157-3.8016 2.8512-1.0138 1.2039-1.7741 2.6295-2.281 4.2768-0.50688 1.6157-0.72864 3.3739-0.66528 5.2747"/>
  </g>
  <g id="layer1-7" transform="translate(64 6.3965e-7)">
   <rect id="rect21854-0" height="64" width="64" y="-136.13" x=".78733" fill="#00adef"/>
   <g fill="#fff">
    <path id="text2382-9" d="m7.9996-120.65v30.752h21.75v-5.6852h-14.988v-25.067h-6.762" transform="scale(.99414 1.0059)"/>
    <path id="text22626-3" d="m38.912-89.641v-30.126h-4.8632c-0.17216 1.1477-0.5308 2.1088-1.0759 2.8835-0.54514 0.77468-1.2194 1.4059-2.0227 1.8936-0.77467 0.45909-1.6641 0.78904-2.6683 0.98985-0.97551 0.17217-1.994 0.2439-3.0556 0.21518v4.6049h7.5745v19.539h6.1112" transform="scale(.99138 1.0087)"/>
    <path id="text2389" d="m45.799-106.24c-0.000007-0.51834-0.000007-1.1375 0-1.8574 0.02879-0.74871 0.08638-1.5118 0.17278-2.2894 0.08638-0.77751 0.23037-1.5406 0.43196-2.2894 0.20157-0.7775 0.47514-1.4686 0.82072-2.0734 0.37435-0.60472 0.83511-1.0943 1.3823-1.4686 0.57593-0.37434 1.2815-0.56152 2.1166-0.56155 0.8351 0.00003 1.5406 0.18721 2.1166 0.56155 0.57593 0.37438 1.0511 0.86393 1.4255 1.4686 0.37435 0.60476 0.64792 1.2959 0.82072 2.0734 0.20156 0.74875 0.34555 1.5119 0.43196 2.2894 0.11517 0.77754 0.17277 1.5407 0.17278 2.2894 0.02878 0.71995 0.04318 1.3391 0.0432 1.8574-0.000017 0.86392-0.02881 1.915-0.08639 3.1533-0.05761 1.2095-0.24479 2.3902-0.56154 3.5421-0.28799 1.1231-0.77754 2.0878-1.4687 2.8941-0.66235 0.80632-1.6271 1.2095-2.8941 1.2095-1.2383 0.000005-2.1886-0.40316-2.8509-1.2095-0.66234-0.80631-1.1519-1.771-1.4687-2.8941-0.28798-1.1519-0.46076-2.3326-0.51835-3.5421-0.0576-1.2383-0.0864-2.2894-0.08639-3.1533m-6.1338 0c-0.000001 3.0237 0.28797 5.5578 0.86392 7.6024 0.60474 2.0158 1.4111 3.6284 2.419 4.8379s2.1742 2.0734 3.4989 2.5917c1.3535 0.51835 2.7789 0.77752 4.2764 0.77752 1.5262 0 2.9517-0.25917 4.2764-0.77752 1.3534-0.51835 2.5341-1.3823 3.542-2.5917 1.0367-1.2095 1.843-2.8221 2.419-4.8379 0.60472-2.0446 0.90709-4.5787 0.90711-7.6024-0.000023-2.9373-0.30239-5.3994-0.90711-7.3865-0.57596-2.0158-1.3823-3.6284-2.419-4.8379-1.0079-1.2094-2.1886-2.0734-3.542-2.5917-1.3247-0.51832-2.7501-0.7775-4.2764-0.77753-1.4975 0.00003-2.9229 0.25921-4.2764 0.77753-1.3247 0.51837-2.491 1.3823-3.4989 2.5917-1.0079 1.2095-1.8142 2.8221-2.419 4.8379-0.57594 1.987-0.86392 4.4492-0.86392 7.3865" transform="scale(1.0029 .99706)"/>
   </g>
  </g>
 </g>
</svg>
