<?xml version="1.0" encoding="UTF-8" standalone="no"?>
<svg id="svg21844" xmlns:rdf="http://www.w3.org/1999/02/22-rdf-syntax-ns#" xmlns="http://www.w3.org/2000/svg" height="128" width="128" version="1.0" xmlns:cc="http://creativecommons.org/ns#" xmlns:dc="http://purl.org/dc/elements/1.1/">
 <metadata id="metadata21849">
  <rdf:RDF>
   <cc:Work rdf:about="">
    <dc:format>image/svg+xml</dc:format>
    <dc:type rdf:resource="http://purl.org/dc/dcmitype/StillImage"/>
    <dc:title/>
   </cc:Work>
  </rdf:RDF>
 </metadata>
 <g id="layer1" transform="translate(-.78733 136.13)">
  <g id="layer1-6">
   <rect id="rect21854" height="64" width="64" y="-136.13" x=".78733" fill="#9c459a"/>
   <path id="text2382" fill="#fff" d="m10.919-122.08v33.929h23.998v-6.2726h-16.537v-27.657h-7.4606"/>
   <path id="text22626" fill="#fff" d="m34.332-108.74h6.4627c-0.000008-0.88702 0.07919-1.7741 0.2376-2.6611 0.19007-0.91869 0.49103-1.7424 0.90288-2.471 0.41183-0.76029 0.95039-1.3622 1.6157-1.8058 0.69695-0.47517 1.5365-0.71277 2.5186-0.7128 1.4573 0.00003 2.6453 0.45939 3.564 1.3781 0.95038 0.88707 1.4256 2.1384 1.4256 3.7541-0.000018 1.0138-0.23762 1.9167-0.7128 2.7086-0.44354 0.79202-1.0138 1.5048-1.7107 2.1384-0.6653 0.63362-1.4098 1.2197-2.2334 1.7582-0.82369 0.5069-1.5999 1.0138-2.3285 1.5206-1.4256 0.9821-2.7878 1.9483-4.0867 2.8987-1.2672 0.95041-2.376 1.9959-3.3264 3.1363-0.9504 1.1088-1.7107 2.376-2.281 3.8016-0.53856 1.4256-0.80784 3.1046-0.80784 5.0371h24.425v-5.7974h-15.729c0.82367-1.1405 1.7741-2.1384 2.8512-2.9938 1.0771-0.85535 2.1859-1.6474 3.3264-2.376 1.1405-0.76031 2.2651-1.5206 3.3739-2.281 1.1405-0.7603 2.1542-1.5998 3.0413-2.5186 0.88702-0.95038 1.5998-2.0275 2.1384-3.2314 0.53854-1.2038 0.80782-2.6453 0.80784-4.3243-0.000026-1.6156-0.31682-3.0729-0.9504-4.3718-0.60194-1.2988-1.4256-2.3918-2.471-3.2789-1.0455-0.88701-2.2651-1.5681-3.659-2.0434-1.3623-0.47516-2.8037-0.71276-4.3243-0.7128-1.9959 0.00004-3.7699 0.34852-5.3222 1.0454-1.5206 0.66531-2.7878 1.6157-3.8016 2.8512-1.0138 1.2039-1.7741 2.6295-2.281 4.2768-0.50688 1.6157-0.72864 3.3739-0.66528 5.2747"/>
  </g>
  <g id="layer1-1" transform="translate(64 6.3965e-7)">
   <rect id="rect21854-5" height="64" width="64" y="-136.13" x=".78733" fill="#53b955"/>
   <path id="text2382-5" fill="#fff" d="m10.919-122.08v33.929h23.998v-6.2726h-16.537v-27.657h-7.4606"/>
   <path id="text22626-4" fill="#fff" d="m43.408-108.08v4.752c0.82367 0.00002 1.679 0.0317 2.5661 0.095 0.91871 0.0317 1.7582 0.20594 2.5186 0.52272 0.7603 0.28514 1.3781 0.76034 1.8533 1.4256 0.50686 0.66529 0.7603 1.6315 0.76032 2.8987-0.000018 1.6157-0.52274 2.8987-1.5682 3.8491-1.0455 0.91872-2.3285 1.3781-3.8491 1.3781-0.98209 0.000005-1.8375-0.17424-2.5661-0.52272-0.69697-0.34847-1.283-0.80783-1.7582-1.3781-0.47521-0.60191-0.83953-1.2989-1.093-2.0909-0.25345-0.82367-0.39601-1.679-0.42768-2.5661h-6.4152c-0.03168 1.9325 0.2376 3.6432 0.80784 5.1322 0.60192 1.489 1.4414 2.7562 2.5186 3.8016 1.0771 1.0138 2.376 1.7899 3.8966 2.3285 1.5523 0.53856 3.263 0.80784 5.1322 0.80784 1.6157-0.000001 3.168-0.2376 4.657-0.7128 1.4889-0.4752 2.8037-1.1722 3.9442-2.0909 1.1405-0.91872 2.0433-2.0592 2.7086-3.4214 0.69694-1.3622 1.0454-2.9146 1.0454-4.657-0.000026-1.9008-0.52275-3.5323-1.5682-4.8946-1.0455-1.3622-2.4869-2.2493-4.3243-2.6611v-0.095c1.5523-0.4435 2.7086-1.283 3.469-2.5186 0.79198-1.2355 1.188-2.6611 1.188-4.2768-0.000024-1.4889-0.33266-2.8036-0.99792-3.9442-0.6653-1.1404-1.5365-2.1067-2.6136-2.8987-1.0455-0.79197-2.2335-1.378-3.564-1.7582-1.3306-0.4118-2.6611-0.61772-3.9917-0.61776-1.7107 0.00004-3.263 0.28516-4.657 0.85536-1.3939 0.53859-2.5978 1.3148-3.6115 2.3285-0.98208 1.0138-1.7582 2.2335-2.3285 3.659-0.53856 1.394-0.83952 2.9463-0.90288 4.657h6.4152c-0.03169-1.7107 0.38015-3.1204 1.2355-4.2293 0.88703-1.1404 2.1859-1.7107 3.8966-1.7107 1.2355 0.00003 2.3285 0.38019 3.2789 1.1405 0.95038 0.76035 1.4256 1.8533 1.4256 3.2789-0.000017 0.95042-0.23762 1.7107-0.7128 2.281-0.44354 0.57026-1.0296 1.0138-1.7582 1.3306-0.69697 0.28514-1.4573 0.45938-2.281 0.52272-0.82369 0.0634-1.5999 0.0634-2.3285 0"/>
  </g>
  <g id="g11" transform="matrix(0 -1.25 -1.25 0 1716 -552.9)">
   <g id="g3069" transform="matrix(6.5887 0 0 6.5892 2320.6 -6890.7)">
    <path id="path5565" d="m-418.36 1246.2h7.7709v7.7703h-7.7709v-7.7703z" fill="#006f4f"/>
    <g id="g5567" transform="translate(-417.58 1254)">
     <path id="path5569" d="m0 0 3.107-4.664h-0.775l-3.11 4.664h0.778" fill="#fff"/>
    </g>
    <g id="g6153" transform="translate(-413.18 1253.2)">
     <path id="path6155" d="m0 0 2.596-3.885h-3.304l-2.585 3.885h3.293zm-0.374-0.584h-1.763l1.821-2.72h1.748l-1.806 2.72" fill-rule="evenodd" fill="#fff"/>
    </g>
   </g>
  </g>
 </g>
</svg>
