<?xml version="1.0" encoding="UTF-8" standalone="no"?>
<svg
   xmlns:dc="http://purl.org/dc/elements/1.1/"
   xmlns:cc="http://creativecommons.org/ns#"
   xmlns:rdf="http://www.w3.org/1999/02/22-rdf-syntax-ns#"
   xmlns:svg="http://www.w3.org/2000/svg"
   xmlns="http://www.w3.org/2000/svg"
   version="1.0"
   id="svg21844"
   height="64"
   width="128">
  <defs
     id="defs21846" />
  <metadata
     id="metadata21849">
    <rdf:RDF>
      <cc:Work
         rdf:about="">
        <dc:format>image/svg+xml</dc:format>
        <dc:type
           rdf:resource="http://purl.org/dc/dcmitype/StillImage" />
        <dc:title></dc:title>
      </cc:Work>
    </rdf:RDF>
  </metadata>
  <g
     transform="translate(-0.78733474,136.12828)"
     id="layer1">
    <g
       id="layer1-3">
      <rect
         style="opacity:1;fill:#9c459a;fill-opacity:1;fill-rule:nonzero;stroke:none;stroke-width:7.08599997;stroke-linecap:round;stroke-linejoin:round;stroke-miterlimit:4;stroke-dasharray:7.086, 14.172;stroke-dashoffset:0;stroke-opacity:1"
         id="rect21854"
         width="64"
         height="64"
         x="0.78733474"
         y="-136.12828" />
      <path
         style="font-style:normal;font-variant:normal;font-weight:bold;font-stretch:normal;font-size:47.52000046px;line-height:125%;font-family:'Helvetica Neue';-inkscape-font-specification:'Helvetica Neue Bold';text-align:start;writing-mode:lr-tb;text-anchor:start;fill:#ffffff;fill-opacity:1;stroke:none;stroke-width:1px;stroke-linecap:butt;stroke-linejoin:miter;stroke-opacity:1"
         d="m 10.918671,-122.0771 0,33.92928 23.9976,0 0,-6.27264 -16.53696,0 0,-27.65664 -7.46064,0"
         id="text2382" />
      <path
         style="font-style:normal;font-variant:normal;font-weight:bold;font-stretch:normal;font-size:47.52000046px;line-height:125%;font-family:'Helvetica Neue';-inkscape-font-specification:'Helvetica Neue Bold';text-align:start;writing-mode:lr-tb;text-anchor:start;fill:#ffffff;fill-opacity:1;stroke:none;stroke-width:1px;stroke-linecap:butt;stroke-linejoin:miter;stroke-opacity:1"
         d="m 34.331604,-108.74384 6.46272,0 c -8e-6,-0.88702 0.07919,-1.77406 0.2376,-2.66112 0.190072,-0.91869 0.491031,-1.74237 0.90288,-2.47104 0.411831,-0.76029 0.95039,-1.36221 1.61568,-1.80576 0.696949,-0.47517 1.536468,-0.71277 2.51856,-0.7128 1.457265,3e-5 2.645264,0.45939 3.564,1.37808 0.950382,0.88707 1.425582,2.13843 1.4256,3.75408 -1.8e-5,1.01378 -0.237618,1.91666 -0.7128,2.70864 -0.443537,0.79202 -1.013776,1.50482 -1.71072,2.1384 -0.665295,0.63362 -1.409774,1.2197 -2.23344,1.75824 -0.823693,0.5069 -1.599852,1.01378 -2.32848,1.52064 -1.42561,0.9821 -2.787848,1.94833 -4.08672,2.89872 -1.267206,0.950413 -2.376005,1.995852 -3.3264,3.136322 -0.950403,1.108807 -1.710722,2.376006 -2.28096,3.8016 -0.538561,1.425603 -0.807841,3.104642 -0.80784,5.03712 l 24.425281,0 0,-5.79744 -15.729121,0 c 0.82367,-1.140473 1.774069,-2.138392 2.8512,-2.99376 1.077107,-0.855351 2.185906,-1.64735 3.3264,-2.376 1.140463,-0.760312 2.265102,-1.520632 3.37392,-2.280962 1.14046,-0.7603 2.154219,-1.59982 3.04128,-2.51856 0.887017,-0.95038 1.599817,-2.0275 2.1384,-3.23136 0.538536,-1.20382 0.807815,-2.64526 0.807841,-4.32432 -2.6e-5,-1.61565 -0.316825,-3.07293 -0.950401,-4.37184 -0.601943,-1.29885 -1.425622,-2.39181 -2.47104,-3.27888 -1.04546,-0.88701 -2.265139,-1.56813 -3.65904,-2.04336 -1.362256,-0.47516 -2.803695,-0.71276 -4.32432,-0.7128 -1.995851,4e-5 -3.76993,0.34852 -5.32224,1.04544 -1.520647,0.66531 -2.787845,1.61571 -3.8016,2.8512 -1.013763,1.20387 -1.774083,2.62947 -2.28096,4.2768 -0.506882,1.61571 -0.728641,3.37394 -0.66528,5.27472"
         id="text22626" />
    </g>
    <g
       transform="translate(64,6.3964845e-7)"
       id="layer1-0">
      <rect
         style="opacity:1;fill:#febd10;fill-opacity:1;fill-rule:nonzero;stroke:none;stroke-width:7.08599997;stroke-linecap:round;stroke-linejoin:round;stroke-miterlimit:4;stroke-dasharray:7.086, 14.172;stroke-dashoffset:0;stroke-opacity:1"
         id="rect21854-6"
         width="64"
         height="64"
         x="0.78733474"
         y="-136.12828" />
      <path
         style="font-style:normal;font-variant:normal;font-weight:bold;font-stretch:normal;font-size:47.52000046px;line-height:125%;font-family:'Helvetica Neue';-inkscape-font-specification:'Helvetica Neue Bold';text-align:start;writing-mode:lr-tb;text-anchor:start;fill:#231f20;fill-opacity:1;stroke:none;stroke-width:1px;stroke-linecap:butt;stroke-linejoin:miter;stroke-opacity:1"
         d="m 10.918671,-122.0771 0,33.92928 23.9976,0 0,-6.27264 -16.53696,0 0,-27.65664 -7.46064,0"
         id="text2382-1" />
      <path
         style="font-style:normal;font-variant:normal;font-weight:bold;font-stretch:normal;font-size:47.52000046px;line-height:125%;font-family:'Helvetica Neue';-inkscape-font-specification:'Helvetica Neue Bold';text-align:start;writing-mode:lr-tb;text-anchor:start;fill:#231f20;fill-opacity:1;stroke:none;stroke-width:1px;stroke-linecap:butt;stroke-linejoin:miter;stroke-opacity:1"
         d="m 47.399604,-113.06816 0,11.54736 -8.74368,0 8.60112,-11.54736 0.14256,0 m 0,17.107202 0,7.69824 6.4152,0 0,-7.69824 4.419361,0 0,-5.559842 -4.419361,0 0,-20.00592 -6.03504,0 -14.44608,19.38816 0,6.177602 14.06592,0"
         id="text22626-5" />
    </g>
  </g>
</svg>
