<?xml version="1.0" encoding="UTF-8" standalone="no"?>
<svg
   xmlns:dc="http://purl.org/dc/elements/1.1/"
   xmlns:cc="http://creativecommons.org/ns#"
   xmlns:rdf="http://www.w3.org/1999/02/22-rdf-syntax-ns#"
   xmlns:svg="http://www.w3.org/2000/svg"
   xmlns="http://www.w3.org/2000/svg"
   width="128"
   height="64"
   id="svg21844"
   version="1.0">
  <defs
     id="defs21846" />
  <metadata
     id="metadata21849">
    <rdf:RDF>
      <cc:Work
         rdf:about="">
        <dc:format>image/svg+xml</dc:format>
        <dc:type
           rdf:resource="http://purl.org/dc/dcmitype/StillImage" />
        <dc:title></dc:title>
      </cc:Work>
    </rdf:RDF>
  </metadata>
  <g
     id="layer1"
     transform="translate(-0.78733474,136.12828)">
    <g
       id="layer1-6">
      <rect
         style="opacity:1;fill:#53b955;fill-opacity:1;fill-rule:nonzero;stroke:none;stroke-width:7.08599997;stroke-linecap:round;stroke-linejoin:round;stroke-miterlimit:4;stroke-dasharray:7.086, 14.172;stroke-dashoffset:0;stroke-opacity:1"
         id="rect21854"
         width="64"
         height="64"
         x="0.78733474"
         y="-136.12828" />
      <path
         style="font-style:normal;font-variant:normal;font-weight:bold;font-stretch:normal;font-size:47.52000046px;line-height:125%;font-family:'Helvetica Neue';-inkscape-font-specification:'Helvetica Neue Bold';text-align:start;writing-mode:lr-tb;text-anchor:start;fill:#ffffff;fill-opacity:1;stroke:none;stroke-width:1px;stroke-linecap:butt;stroke-linejoin:miter;stroke-opacity:1"
         d="m 10.918671,-122.0771 0,33.92928 23.9976,0 0,-6.27264 -16.53696,0 0,-27.65664 -7.46064,0"
         id="text2382" />
      <path
         style="font-style:normal;font-variant:normal;font-weight:bold;font-stretch:normal;font-size:47.52000046px;line-height:125%;font-family:'Helvetica Neue';-inkscape-font-specification:'Helvetica Neue Bold';text-align:start;writing-mode:lr-tb;text-anchor:start;fill:#ffffff;fill-opacity:1;stroke:none;stroke-width:1px;stroke-linecap:butt;stroke-linejoin:miter;stroke-opacity:1"
         d="m 43.407924,-108.07856 0,4.752 c 0.823669,2e-5 1.679028,0.0317 2.56608,0.095 0.918706,0.0317 1.758225,0.20594 2.51856,0.52272 0.760304,0.28514 1.378063,0.76034 1.85328,1.4256 0.506862,0.66529 0.760302,1.631533 0.76032,2.898722 -1.8e-5,1.615688 -0.522738,2.898727 -1.56816,3.84912 -1.045456,0.918725 -2.328494,1.378085 -3.84912,1.37808 -0.982092,5e-6 -1.837451,-0.174235 -2.56608,-0.52272 -0.696969,-0.348474 -1.283049,-0.807834 -1.75824,-1.37808 -0.475208,-0.601913 -0.839528,-1.298872 -1.09296,-2.09088 -0.253447,-0.823671 -0.396007,-1.67903 -0.42768,-2.56608 l -6.4152,0 c -0.03168,1.932489 0.237599,3.643208 0.80784,5.13216 0.601918,1.488965 1.441437,2.756163 2.51856,3.8016 1.077115,1.013761 2.375994,1.789921 3.89664,2.32848 1.552311,0.538559 3.263029,0.807839 5.13216,0.80784 1.615666,-10e-7 3.167984,-0.237601 4.65696,-0.7128 1.488941,-0.4752 2.80366,-1.172159 3.94416,-2.09088 1.140458,-0.918717 2.043337,-2.059196 2.70864,-3.42144 0.696935,-1.362233 1.045415,-2.914552 1.045441,-4.65696 -2.6e-5,-1.900792 -0.522746,-3.532302 -1.568161,-4.894562 -1.045462,-1.36222 -2.486901,-2.24926 -4.32432,-2.66112 l 0,-0.095 c 1.552299,-0.4435 2.708618,-1.28302 3.46896,-2.51856 0.791977,-1.2355 1.187976,-2.6611 1.188,-4.2768 -2.4e-5,-1.48893 -0.332664,-2.80365 -0.99792,-3.94416 -0.665302,-1.14045 -1.536501,-2.10669 -2.6136,-2.89872 -1.045459,-0.79197 -2.233458,-1.37805 -3.564,-1.75824 -1.330575,-0.4118 -2.661134,-0.61772 -3.99168,-0.61776 -1.710731,4e-5 -3.26305,0.28516 -4.65696,0.85536 -1.393927,0.53859 -2.597766,1.31475 -3.61152,2.32848 -0.982084,1.01379 -1.758243,2.23347 -2.32848,3.65904 -0.538562,1.39395 -0.839521,2.94627 -0.90288,4.65696 l 6.4152,0 c -0.03169,-1.71069 0.380152,-3.12045 1.23552,-4.22928 0.88703,-1.14045 2.185909,-1.71069 3.89664,-1.71072 1.235506,3e-5 2.328465,0.38019 3.27888,1.14048 0.950383,0.76035 1.425583,1.85331 1.4256,3.27888 -1.7e-5,0.95042 -0.237617,1.71074 -0.7128,2.28096 -0.443536,0.57026 -1.029616,1.01378 -1.75824,1.33056 -0.696974,0.28514 -1.457294,0.45938 -2.28096,0.52272 -0.823692,0.0634 -1.599851,0.0634 -2.32848,0"
         id="text22626" />
    </g>
    <g
       transform="translate(64,0)"
       id="layer1-2">
      <rect
         style="opacity:1;fill:#317bc8;fill-opacity:1;fill-rule:nonzero;stroke:none;stroke-width:7.08599997;stroke-linecap:round;stroke-linejoin:round;stroke-miterlimit:4;stroke-dasharray:7.086, 14.172;stroke-dashoffset:0;stroke-opacity:1"
         id="rect21854-0"
         width="64"
         height="64"
         x="0.78733474"
         y="-136.12828" />
      <path
         style="font-style:normal;font-variant:normal;font-weight:bold;font-stretch:normal;font-size:47.52000046px;line-height:125%;font-family:'Helvetica Neue';-inkscape-font-specification:'Helvetica Neue Bold';text-align:start;writing-mode:lr-tb;text-anchor:start;fill:#ffffff;fill-opacity:1;stroke:none;stroke-width:1px;stroke-linecap:butt;stroke-linejoin:miter;stroke-opacity:1"
         d="m 10.918671,-122.0771 0,33.92928 23.9976,0 0,-6.27264 -16.53696,0 0,-27.65664 -7.46064,0"
         id="text2382-2" />
      <path
         style="font-style:normal;font-variant:normal;font-weight:bold;font-stretch:normal;font-size:47.52000046px;line-height:125%;font-family:'Helvetica Neue';-inkscape-font-specification:'Helvetica Neue Bold';text-align:start;writing-mode:lr-tb;text-anchor:start;fill:#ffffff;fill-opacity:1;stroke:none;stroke-width:1px;stroke-linecap:butt;stroke-linejoin:miter;stroke-opacity:1"
         d="m 56.333364,-115.96688 0,-5.55984 -18.58032,0 -3.27888,18.39024 6.08256,0 c 0.665272,-0.9187 1.378071,-1.58398 2.1384,-1.99584 0.760309,-0.4435 1.742389,-0.66526 2.94624,-0.66528 0.918706,2e-5 1.726546,0.15842 2.42352,0.4752 0.696944,0.31682 1.298864,0.76034 1.80576,1.33056 0.506863,0.57026 0.887022,1.23554 1.14048,1.99584 0.253422,0.76033 0.380142,1.56817 0.38016,2.423522 -1.8e-5,0.82369 -0.142578,1.631529 -0.42768,2.42352 -0.253458,0.760328 -0.633617,1.441447 -1.14048,2.04336 -0.475216,0.570246 -1.077136,1.045446 -1.80576,1.4256 -0.696974,0.348485 -1.488974,0.522725 -2.376,0.52272 -1.520651,5e-6 -2.77201,-0.443515 -3.75408,-1.33056 -0.982088,-0.918713 -1.552327,-2.138392 -1.71072,-3.65904 l -6.74784,0 c 0.03168,1.742408 0.380159,3.278886 1.04544,4.60944 0.696958,1.298884 1.615677,2.391843 2.75616,3.27888 1.140475,0.887041 2.439353,1.55232 3.89664,1.99584 1.48895,0.411839 3.041269,0.617759 4.65696,0.61776 1.679026,0.03168 3.263024,-0.237601 4.752,-0.80784 1.488941,-0.601919 2.78782,-1.441439 3.89664,-2.51856 1.140457,-1.077116 2.043337,-2.344315 2.70864,-3.8016 0.665255,-1.488952 0.997895,-3.088791 0.997921,-4.79952 -2.6e-5,-1.552312 -0.237626,-3.009582 -0.712801,-4.371842 -0.443544,-1.3939 -1.108823,-2.59774 -1.99584,-3.61152 -0.855382,-1.01374 -1.91666,-1.82158 -3.18384,-2.42352 -1.267218,-0.6019 -2.724497,-0.90286 -4.37184,-0.90288 -1.330574,2e-5 -2.518572,0.20594 -3.564,0.61776 -1.04545,0.38018 -2.027529,1.02962 -2.94624,1.94832 l -0.09504,-0.095 1.33056,-7.55568 13.73328,0"
         id="text22626-3" />
    </g>
  </g>
</svg>
