<?xml version="1.0" encoding="UTF-8" standalone="no"?>
<svg
   xmlns:dc="http://purl.org/dc/elements/1.1/"
   xmlns:cc="http://creativecommons.org/ns#"
   xmlns:rdf="http://www.w3.org/1999/02/22-rdf-syntax-ns#"
   xmlns:svg="http://www.w3.org/2000/svg"
   xmlns="http://www.w3.org/2000/svg"
   width="128"
   height="64"
   id="svg21844"
   version="1.0">
  <defs
     id="defs21846" />
  <metadata
     id="metadata21849">
    <rdf:RDF>
      <cc:Work
         rdf:about="">
        <dc:format>image/svg+xml</dc:format>
        <dc:type
           rdf:resource="http://purl.org/dc/dcmitype/StillImage" />
        <dc:title></dc:title>
      </cc:Work>
    </rdf:RDF>
  </metadata>
  <g
     id="layer1"
     transform="translate(-0.78733474,136.12828)">
    <g
       id="layer1-2">
      <rect
         style="opacity:1;fill:#febd10;fill-opacity:1;fill-rule:nonzero;stroke:none;stroke-width:7.08599997;stroke-linecap:round;stroke-linejoin:round;stroke-miterlimit:4;stroke-dasharray:7.086, 14.172;stroke-dashoffset:0;stroke-opacity:1"
         id="rect21854-8"
         width="64"
         height="64"
         x="0.78733474"
         y="-136.12828" />
      <path
         style="font-style:normal;font-variant:normal;font-weight:bold;font-stretch:normal;font-size:47.52000046px;line-height:125%;font-family:'Helvetica Neue';-inkscape-font-specification:'Helvetica Neue Bold';text-align:start;writing-mode:lr-tb;text-anchor:start;fill:#231f20;fill-opacity:1;stroke:none;stroke-width:1px;stroke-linecap:butt;stroke-linejoin:miter;stroke-opacity:1"
         d="m 10.918671,-122.0771 0,33.92928 23.9976,0 0,-6.27264 -16.53696,0 0,-27.65664 -7.46064,0"
         id="text2382-9" />
      <path
         style="font-style:normal;font-variant:normal;font-weight:bold;font-stretch:normal;font-size:47.52000046px;line-height:125%;font-family:'Helvetica Neue';-inkscape-font-specification:'Helvetica Neue Bold';text-align:start;writing-mode:lr-tb;text-anchor:start;fill:#231f20;fill-opacity:1;stroke:none;stroke-width:1px;stroke-linecap:butt;stroke-linejoin:miter;stroke-opacity:1"
         d="m 47.399604,-113.06816 0,11.54736 -8.74368,0 8.60112,-11.54736 0.14256,0 m 0,17.107202 0,7.69824 6.4152,0 0,-7.69824 4.419361,0 0,-5.559842 -4.419361,0 0,-20.00592 -6.03504,0 -14.44608,19.38816 0,6.177602 14.06592,0"
         id="text22626-7" />
    </g>
    <g
       transform="translate(64,6.3964845e-7)"
       id="layer1-3">
      <rect
         style="opacity:1;fill:#317bc8;fill-opacity:1;fill-rule:nonzero;stroke:none;stroke-width:7.08599997;stroke-linecap:round;stroke-linejoin:round;stroke-miterlimit:4;stroke-dasharray:7.086, 14.172;stroke-dashoffset:0;stroke-opacity:1"
         id="rect21854"
         width="64"
         height="64"
         x="0.78733474"
         y="-136.12828" />
      <path
         style="font-style:normal;font-variant:normal;font-weight:bold;font-stretch:normal;font-size:47.52000046px;line-height:125%;font-family:'Helvetica Neue';-inkscape-font-specification:'Helvetica Neue Bold';text-align:start;writing-mode:lr-tb;text-anchor:start;fill:#ffffff;fill-opacity:1;stroke:none;stroke-width:1px;stroke-linecap:butt;stroke-linejoin:miter;stroke-opacity:1"
         d="m 10.918671,-122.0771 0,33.92928 23.9976,0 0,-6.27264 -16.53696,0 0,-27.65664 -7.46064,0"
         id="text2382" />
      <path
         style="font-style:normal;font-variant:normal;font-weight:bold;font-stretch:normal;font-size:47.52000046px;line-height:125%;font-family:'Helvetica Neue';-inkscape-font-specification:'Helvetica Neue Bold';text-align:start;writing-mode:lr-tb;text-anchor:start;fill:#ffffff;fill-opacity:1;stroke:none;stroke-width:1px;stroke-linecap:butt;stroke-linejoin:miter;stroke-opacity:1"
         d="m 56.333364,-115.96688 0,-5.55984 -18.58032,0 -3.27888,18.39024 6.08256,0 c 0.665272,-0.9187 1.378071,-1.58398 2.1384,-1.99584 0.760309,-0.4435 1.742389,-0.66526 2.94624,-0.66528 0.918706,2e-5 1.726546,0.15842 2.42352,0.4752 0.696944,0.31682 1.298864,0.76034 1.80576,1.33056 0.506863,0.57026 0.887022,1.23554 1.14048,1.99584 0.253422,0.76033 0.380142,1.56817 0.38016,2.423522 -1.8e-5,0.82369 -0.142578,1.631529 -0.42768,2.42352 -0.253458,0.760328 -0.633617,1.441447 -1.14048,2.04336 -0.475216,0.570246 -1.077136,1.045446 -1.80576,1.4256 -0.696974,0.348485 -1.488974,0.522725 -2.376,0.52272 -1.520651,5e-6 -2.77201,-0.443515 -3.75408,-1.33056 -0.982088,-0.918713 -1.552327,-2.138392 -1.71072,-3.65904 l -6.74784,0 c 0.03168,1.742408 0.380159,3.278886 1.04544,4.60944 0.696958,1.298884 1.615677,2.391843 2.75616,3.27888 1.140475,0.887041 2.439353,1.55232 3.89664,1.99584 1.48895,0.411839 3.041269,0.617759 4.65696,0.61776 1.679026,0.03168 3.263024,-0.237601 4.752,-0.80784 1.488941,-0.601919 2.78782,-1.441439 3.89664,-2.51856 1.140457,-1.077116 2.043337,-2.344315 2.70864,-3.8016 0.665255,-1.488952 0.997895,-3.088791 0.997921,-4.79952 -2.6e-5,-1.552312 -0.237626,-3.009582 -0.712801,-4.371842 -0.443544,-1.3939 -1.108823,-2.59774 -1.99584,-3.61152 -0.855382,-1.01374 -1.91666,-1.82158 -3.18384,-2.42352 -1.267218,-0.6019 -2.724497,-0.90286 -4.37184,-0.90288 -1.330574,2e-5 -2.518572,0.20594 -3.564,0.61776 -1.04545,0.38018 -2.027529,1.02962 -2.94624,1.94832 l -0.09504,-0.095 1.33056,-7.55568 13.73328,0"
         id="text22626" />
    </g>
  </g>
</svg>
