<?xml version="1.0" encoding="UTF-8" standalone="no"?>
<svg
   xmlns:dc="http://purl.org/dc/elements/1.1/"
   xmlns:cc="http://creativecommons.org/ns#"
   xmlns:rdf="http://www.w3.org/1999/02/22-rdf-syntax-ns#"
   xmlns:svg="http://www.w3.org/2000/svg"
   xmlns="http://www.w3.org/2000/svg"
   width="128"
   height="64"
   id="svg21844"
   version="1.0">
  <defs
     id="defs21846" />
  <metadata
     id="metadata21849">
    <rdf:RDF>
      <cc:Work
         rdf:about="">
        <dc:format>image/svg+xml</dc:format>
        <dc:type
           rdf:resource="http://purl.org/dc/dcmitype/StillImage" />
        <dc:title></dc:title>
      </cc:Work>
    </rdf:RDF>
  </metadata>
  <g
     id="layer1"
     transform="translate(-0.78733474,136.12828)">
    <g
       id="layer1-1"
       transform="translate(669.93022,-287.91905)">
      <rect
         style="fill:#f1832d"
         y="151.79077"
         x="-669.14288"
         id="rect3"
         height="64"
         width="64" />
      <g
         transform="matrix(0.02204859,0,0,0.02204859,-669.14286,151.79074)"
         id="g7">
        <g
           id="g9">
          <path
             d="m 444.926,381.65 337.691,0 0,1254.28 750.265,0 0,284.458 -1087.956,0 0,-1538.738 z"
             id="path11"
             style="fill:#ffffff" />
          <path
             d="m 1839.609,1532.091 c 10.034,50.165 33.011,93.884 68.88,131.132 35.869,37.272 80.342,55.883 133.444,55.883 55.936,0 101.863,-16.141 137.732,-48.449 35.869,-32.283 64.591,-71.766 86.112,-118.447 21.521,-46.656 36.936,-96.535 46.267,-149.663 9.305,-53.128 15.413,-100.485 18.298,-142.125 l -4.573,-4.315 c -41.693,60.51 -90.532,103.735 -146.571,129.676 -56.039,25.941 -120.683,38.885 -193.954,38.885 -64.669,0 -127.882,-13.984 -189.665,-42.004 -61.783,-28.02 -114.21,-65.734 -157.305,-113.145 -40.236,-45.979 -69.711,-98.432 -88.373,-157.33 -18.688,-58.898 -28.02,-118.498 -28.02,-178.853 0,-77.561 12.554,-149.768 37.715,-216.567 25.134,-66.8 61.055,-124.996 107.763,-174.563 46.709,-49.567 102.384,-88.712 167.052,-117.459 64.67,-28.722 136.512,-43.095 215.555,-43.095 113.507,0 207.626,22.639 282.353,67.892 74.701,45.252 134.354,104.878 178.904,178.853 44.552,73.974 75.431,157.668 92.688,251.032 17.233,93.364 25.862,187.456 25.862,282.249 0,91.961 -10.787,184.961 -32.309,279.053 -21.547,94.092 -56.013,178.853 -103.397,254.281 -47.384,75.43 -108.413,136.824 -183.088,184.234 -74.677,47.383 -165.856,71.088 -273.542,71.088 -130.689,0 -240.532,-36.285 -329.556,-108.855 -89.05,-72.57 -142.178,-175.707 -159.384,-309.386 l 291.112,0 z m 218.934,-338.653 c 40.236,0 75.793,-7.511 106.672,-22.562 30.878,-15.049 56.377,-35.479 76.495,-61.263 20.118,-25.785 35.192,-55.545 45.253,-89.231 10.058,-33.686 15.102,-69.139 15.102,-106.412 0,-34.388 -5.407,-68.412 -16.168,-102.098 -10.787,-33.686 -26.59,-63.785 -47.41,-90.297 -20.846,-26.512 -46.344,-47.644 -76.495,-63.421 -30.177,-15.751 -64.669,-23.653 -103.448,-23.653 -37.352,0 -70.023,7.902 -98.043,23.653 -28.02,15.777 -52.088,36.57 -72.207,62.355 -20.117,25.784 -35.192,55.181 -45.252,88.14 -10.059,32.958 -15.075,66.645 -15.075,101.031 0,35.817 4.652,70.568 14.01,104.255 9.331,33.686 23.341,63.785 42.004,90.297 18.661,26.512 42.73,48.008 72.206,64.486 29.448,16.481 63.575,24.72 102.356,24.72 z"
             id="path13"
             style="fill:#ffffff" />
        </g>
      </g>
      <g
         style="font-style:normal;font-variant:normal;font-weight:bold;font-stretch:normal;font-size:12.78818321px;line-height:125%;font-family:Arial;-inkscape-font-specification:'Arial Bold';letter-spacing:-0.24253449px;word-spacing:0px;fill:#ffffff;fill-opacity:1;stroke:none"
         id="text3036">
        <path
           d="m -653.73055,206.84155 -3.99922,-7.06701 q 0.0326,0.28659 0.0586,0.57318 0.0261,0.2475 0.0391,0.53409 0.0195,0.28659 0.0195,0.54713 l 0,5.41261 -1.7065,0 0,-9.17735 2.19501,0 4.05783,7.12564 q -0.0326,-0.27356 -0.0586,-0.57318 -0.026,-0.25402 -0.0456,-0.57318 -0.013,-0.31915 -0.013,-0.64482 l 0,-5.33446 1.7065,0 0,9.17735 -2.25362,0 z"
           style="font-size:13.33939743px;letter-spacing:-0.44097179px;fill:#ffffff;fill-opacity:1"
           id="path3360" />
        <path
           d="m -643.38537,203.3113 q 0,0.80766 -0.22797,1.47854 -0.22145,0.67088 -0.67088,1.15938 -0.44942,0.48199 -1.1203,0.75555 -0.67088,0.26705 -1.56321,0.26705 -0.85977,0 -1.51762,-0.26705 -0.65785,-0.26705 -1.10727,-0.74904 -0.44291,-0.48199 -0.67088,-1.15286 -0.22797,-0.6774 -0.22797,-1.49157 0,-0.78812 0.21494,-1.45248 0.22146,-0.67088 0.66437,-1.15938 0.44291,-0.48851 1.11379,-0.76207 0.67087,-0.27356 1.56972,-0.27356 0.95095,0 1.62183,0.27356 0.67088,0.27356 1.09425,0.76207 0.42988,0.48199 0.62528,1.15287 0.20192,0.66436 0.20192,1.45899 z m -1.91493,0 q 0,-1.25708 -0.41035,-1.82374 -0.41034,-0.56667 -1.19195,-0.56667 -0.80765,0 -1.23754,0.57318 -0.42988,0.57318 -0.42988,1.81723 0,0.6318 0.11073,1.08774 0.11724,0.45593 0.32567,0.74903 0.20842,0.29311 0.50153,0.4364 0.2931,0.13678 0.64482,0.13678 0.40383,0 0.71647,-0.13678 0.31916,-0.14329 0.5341,-0.4364 0.21494,-0.2931 0.32567,-0.74903 0.11073,-0.45594 0.11073,-1.08774 z"
           style="font-size:13.33939743px;letter-spacing:-0.44097179px;fill:#ffffff;fill-opacity:1"
           id="path3362" />
        <path
           d="m -642.36933,206.84155 0,-5.39307 q 0,-0.22797 -0.007,-0.48199 0,-0.25403 -0.013,-0.48199 -0.007,-0.23449 -0.013,-0.41686 -0.007,-0.18889 -0.0195,-0.27356 l 1.74559,0 q 0.013,0.0782 0.026,0.27356 0.013,0.18889 0.0261,0.41686 0.013,0.22796 0.0195,0.45593 0.013,0.22146 0.013,0.35824 l 0.0261,0 q 0.13678,-0.38429 0.27357,-0.68391 0.13678,-0.30613 0.31915,-0.51455 0.18889,-0.21494 0.44942,-0.32567 0.26054,-0.11724 0.64483,-0.11724 0.16283,0 0.31915,0.0326 0.16284,0.0261 0.24751,0.0651 l 0,1.53064 q -0.17586,-0.0391 -0.35823,-0.0651 -0.17586,-0.0326 -0.42337,-0.0326 -0.68391,0 -1.0682,0.55364 -0.37777,0.55364 -0.37777,1.64137 l 0,3.4586 -1.83026,0 z"
           style="font-size:13.33939743px;letter-spacing:-0.44097179px;fill:#ffffff;fill-opacity:1"
           id="path3364" />
        <path
           d="m -633.05978,206.84155 q -0.013,-0.0521 -0.0326,-0.18237 -0.013,-0.13678 -0.0326,-0.30613 -0.013,-0.16935 -0.0261,-0.34521 -0.007,-0.17586 -0.007,-0.31264 l -0.0261,0 q -0.31916,0.6839 -0.89233,0.98352 -0.56667,0.2931 -1.3613,0.2931 -0.66436,0 -1.15287,-0.27356 -0.48199,-0.27356 -0.80114,-0.76207 -0.31265,-0.4885 -0.46897,-1.15286 -0.1498,-0.67088 -0.1498,-1.459 0,-0.80115 0.15632,-1.47202 0.16283,-0.67088 0.49501,-1.15287 0.33219,-0.48851 0.84023,-0.76207 0.51456,-0.27356 1.218,-0.27356 0.34521,0 0.66437,0.0716 0.31915,0.0716 0.59271,0.22145 0.27356,0.14981 0.49502,0.38429 0.22145,0.23448 0.37778,0.56667 l 0.013,0 q 0,-0.0651 -0.007,-0.18889 0,-0.13027 0,-0.2931 0,-0.16284 -0.007,-0.3387 0,-0.17586 0,-0.3387 l 0,-2.57278 1.83025,0 0,8.1287 q 0,0.51455 0.0195,0.91838 0.0195,0.39732 0.0326,0.61877 l -1.77164,0 z m -0.0847,-3.56281 q 0,-0.69694 -0.13027,-1.15287 -0.13027,-0.46245 -0.34521,-0.7295 -0.20843,-0.27356 -0.48199,-0.37778 -0.26705,-0.11072 -0.54712,-0.11072 -0.35172,0 -0.62529,0.13678 -0.26704,0.13678 -0.45593,0.42988 -0.18238,0.2931 -0.28008,0.74904 -0.0912,0.45593 -0.0912,1.10076 0,2.39692 1.43945,2.39692 0.27356,0 0.54713,-0.11724 0.27356,-0.11724 0.4885,-0.39732 0.21494,-0.28007 0.34521,-0.74903 0.13678,-0.47548 0.13678,-1.17892 z"
           style="font-size:13.33939743px;letter-spacing:-0.44097179px;fill:#ffffff;fill-opacity:1"
           id="path3366" />
      </g>
    </g>
    <g
       transform="translate(64,6.3964845e-7)"
       id="layer1-5">
      <rect
         style="opacity:1;fill:#00adef;fill-opacity:1;fill-rule:nonzero;stroke:none;stroke-width:7.08599997;stroke-linecap:round;stroke-linejoin:round;stroke-miterlimit:4;stroke-dasharray:7.086, 14.172;stroke-dashoffset:0;stroke-opacity:1"
         id="rect21854"
         width="64"
         height="64"
         x="0.78733474"
         y="-136.12828" />
      <path
         transform="scale(0.9941422,1.0058923)"
         style="font-style:normal;font-variant:normal;font-weight:bold;font-stretch:normal;font-size:43.06978226px;line-height:125%;font-family:'Helvetica Neue';-inkscape-font-specification:'Helvetica Neue Bold';text-align:start;writing-mode:lr-tb;text-anchor:start;fill:#ffffff;fill-opacity:1;stroke:none;stroke-width:1px;stroke-linecap:butt;stroke-linejoin:miter;stroke-opacity:1"
         d="m 7.9996427,-120.6471 0,30.751829 21.7502403,0 0,-5.685212 -14.988284,0 0,-25.066617 -6.7619563,0"
         id="text2382" />
      <path
         transform="scale(0.9913828,1.0086921)"
         style="font-style:normal;font-variant:normal;font-weight:bold;font-stretch:normal;font-size:43.03677368px;line-height:125%;font-family:'Helvetica Neue';-inkscape-font-specification:'Helvetica Neue Bold';text-align:start;writing-mode:lr-tb;text-anchor:start;fill:#ffffff;fill-opacity:1;stroke:none;stroke-width:1px;stroke-linecap:butt;stroke-linejoin:miter;stroke-opacity:1"
         d="m 38.912129,-89.640846 0,-30.125744 -4.863155,0 c -0.172159,1.14768 -0.530799,2.10883 -1.07592,2.88347 -0.545143,0.77468 -1.219385,1.40589 -2.022728,1.89361 -0.77467,0.45909 -1.664096,0.78904 -2.66828,0.98985 -0.975506,0.17217 -1.994042,0.2439 -3.055611,0.21518 l 0,4.60494 7.574472,0 0,19.538694 6.111222,0"
         id="text22626" />
      <path
         transform="scale(1.0029446,0.997064)"
         style="font-style:normal;font-variant:normal;font-weight:bold;font-stretch:normal;font-size:43.19571686px;line-height:125%;font-family:'Helvetica Neue';-inkscape-font-specification:'Helvetica Neue Bold';text-align:start;writing-mode:lr-tb;text-anchor:start;fill:#ffffff;fill-opacity:1;stroke:none;stroke-width:1px;stroke-linecap:butt;stroke-linejoin:miter;stroke-opacity:1"
         d="m 45.798535,-106.23693 c -7e-6,-0.51834 -7e-6,-1.13747 0,-1.85742 0.02879,-0.74871 0.08638,-1.51183 0.172783,-2.28937 0.08638,-0.77751 0.23037,-1.54063 0.431957,-2.28938 0.201572,-0.7775 0.475145,-1.46863 0.820719,-2.07339 0.374354,-0.60472 0.835108,-1.09427 1.382263,-1.46865 0.575932,-0.37434 1.281461,-0.56152 2.11659,-0.56155 0.835104,3e-5 1.540634,0.18721 2.11659,0.56155 0.575928,0.37438 1.051081,0.86393 1.425459,1.46865 0.374347,0.60476 0.647919,1.29589 0.820718,2.07339 0.201564,0.74875 0.345549,1.51187 0.431957,2.28938 0.115172,0.77754 0.172766,1.54066 0.172783,2.28937 0.02878,0.71995 0.04318,1.33908 0.0432,1.85742 -1.7e-5,0.86392 -0.02881,1.91502 -0.08639,3.15328 -0.05761,1.20949 -0.244793,2.39018 -0.561545,3.542052 -0.287987,1.123096 -0.777538,2.0878 -1.468654,2.894113 -0.662349,0.806325 -1.627052,1.209485 -2.894113,1.20948 -1.238288,5e-6 -2.188593,-0.403155 -2.850918,-1.20948 -0.662342,-0.806313 -1.151893,-1.771017 -1.468654,-2.894113 -0.287979,-1.151872 -0.460761,-2.332562 -0.518349,-3.542052 -0.0576,-1.23826 -0.0864,-2.28936 -0.08639,-3.15328 m -6.133792,0 c -10e-7,3.02371 0.287971,5.55785 0.863915,7.602442 0.604737,2.015806 1.411057,3.628445 2.41896,4.837921 1.007895,1.209481 2.174178,2.073395 3.498853,2.591743 1.353457,0.518348 2.778914,0.777522 4.276376,0.777522 1.526235,0 2.951692,-0.259174 4.276376,-0.777522 1.353448,-0.518348 2.53413,-1.382262 3.542049,-2.591743 1.036676,-1.209476 1.842995,-2.822115 2.41896,-4.837921 0.604717,-2.044592 0.907087,-4.578732 0.90711,-7.602442 -2.3e-5,-2.93729 -0.302393,-5.39945 -0.90711,-7.38647 -0.575965,-2.01578 -1.382284,-3.62842 -2.41896,-4.83792 -1.007919,-1.20945 -2.188601,-2.07337 -3.542049,-2.59174 -1.324684,-0.51832 -2.750141,-0.7775 -4.276376,-0.77753 -1.497462,3e-5 -2.922919,0.25921 -4.276376,0.77753 -1.324675,0.51837 -2.490958,1.38229 -3.498853,2.59174 -1.007903,1.2095 -1.814223,2.82214 -2.41896,4.83792 -0.575944,1.98702 -0.863916,4.44918 -0.863915,7.38647"
         id="text2389" />
    </g>
  </g>
</svg>
