<?xml version="1.0" encoding="UTF-8" standalone="no"?>
<!-- Created with Inkscape (http://www.inkscape.org/) -->

<svg
   xmlns:dc="http://purl.org/dc/elements/1.1/"
   xmlns:cc="http://creativecommons.org/ns#"
   xmlns:rdf="http://www.w3.org/1999/02/22-rdf-syntax-ns#"
   xmlns:svg="http://www.w3.org/2000/svg"
   xmlns="http://www.w3.org/2000/svg"
   xmlns:sodipodi="http://sodipodi.sourceforge.net/DTD/sodipodi-0.dtd"
   xmlns:inkscape="http://www.inkscape.org/namespaces/inkscape"
   width="9.0311079mm"
   height="9.0311089mm"
   viewBox="0 0 31.999989 31.999992"
   id="svg24170"
   version="1.1"
   inkscape:version="0.91 r13725"
   sodipodi:docname="linia-bus.svg">
  <defs
     id="defs24172">
    <clipPath
       id="clipPath13218"
       clipPathUnits="userSpaceOnUse">
      <path
         style="clip-rule:evenodd"
         inkscape:connector-curvature="0"
         id="path13220"
         d="m 12.00029,12.03594 0,820.21965 952.02301,0 0,-820.21965 -952.02301,0 z" />
    </clipPath>
  </defs>
  <sodipodi:namedview
     id="base"
     pagecolor="#ffffff"
     bordercolor="#666666"
     borderopacity="1.0"
     inkscape:pageopacity="0.0"
     inkscape:pageshadow="2"
     inkscape:zoom="2.8"
     inkscape:cx="-17.750885"
     inkscape:cy="-13.497846"
     inkscape:document-units="px"
     inkscape:current-layer="g13216"
     showgrid="false"
     inkscape:window-width="1231"
     inkscape:window-height="787"
     inkscape:window-x="217"
     inkscape:window-y="159"
     inkscape:window-maximized="0"
     fit-margin-top="0"
     fit-margin-left="0"
     fit-margin-right="0"
     fit-margin-bottom="0" />
  <metadata
     id="metadata24175">
    <rdf:RDF>
      <cc:Work
         rdf:about="">
        <dc:format>image/svg+xml</dc:format>
        <dc:type
           rdf:resource="http://purl.org/dc/dcmitype/StillImage" />
        <dc:title></dc:title>
      </cc:Work>
    </rdf:RDF>
  </metadata>
  <g
     inkscape:label="Layer 1"
     inkscape:groupmode="layer"
     id="layer1"
     transform="translate(-48.811853,-76.897685)">
    <g
       transform="matrix(1.2494217,0,0,-1.2498025,-293.79547,425.83197)"
       id="g13214">
      <g
         id="g13216"
         clip-path="url(#clipPath13218)">
        <path
           d="m 288.78791,264.66157 -0.45431,-0.35618 -0.48788,-0.23901 -0.49982,-0.14303 -0.54448,0.006 -0.57805,0.12322 -0.5046,0.21994 -0.45307,0.35917 -0.32554,0.40296 -0.27401,0.54218 -0.10323,0.54364 -0.007,0.53377 0.0781,0.55584 0.22834,0.49306 0.80048,0.81819 0.48788,0.23902 0.54336,0.0793 0.5442,0.0153 0.5456,-0.0915 0.54786,-0.26228 0.40981,-0.31683 0.3688,-0.4453 0.23075,-0.49984 0.13568,-0.57539 0.007,-0.55512 -0.1216,-0.49215 -0.22835,-0.49306 -0.34617,-0.46202 z"
           style="fill:none;stroke:#ff0000;stroke-width:0.06038;stroke-linecap:round;stroke-linejoin:round;stroke-miterlimit:10;stroke-dasharray:none;stroke-opacity:1"
           id="path13222"
           inkscape:connector-curvature="0" />
        <path
           d="m 288.78791,264.66157 -0.45431,-0.35618 -0.48788,-0.23901 -0.49982,-0.14303 -0.54448,0.006 -0.57805,0.12322 -0.5046,0.21994 -0.45307,0.35917 -0.32554,0.40296 -0.27401,0.54218 -0.10323,0.54364 -0.007,0.53377 0.0781,0.55584 0.22834,0.49306 0.80048,0.81819 0.48788,0.23902 0.54336,0.0793 0.5442,0.0153 0.5456,-0.0915 0.54786,-0.26228 0.40981,-0.31683 0.3688,-0.4453 0.23075,-0.49984 0.13568,-0.57539 0.007,-0.55512 -0.1216,-0.49215 -0.22835,-0.49306 -0.34617,-0.46202 z"
           style="fill:#ff0000;fill-opacity:1;fill-rule:evenodd;stroke:none"
           id="path13224"
           inkscape:connector-curvature="0" />
        <path
           d="m 288.09581,265.33901 -0.35923,-0.28063 -0.4039,-0.13154 -0.44828,-0.004 -0.44941,0.0816 -0.37708,0.26373 -0.32442,0.31755 -0.13343,0.40458 -0.0913,0.44764 0.0795,0.44909 0.21866,0.41824 0.31598,0.32297 0.36064,0.17388 0.45769,0.1 0.43887,-0.0924 0.40728,-0.12467 0.32442,-0.31755 0.28229,-0.36062 0.0913,-0.44764 0.006,-0.44837 -0.13327,-0.41751 -0.26219,-0.35455 z"
           style="fill:none;stroke:#1e1e00;stroke-width:0.06038;stroke-linecap:round;stroke-linejoin:round;stroke-miterlimit:10;stroke-dasharray:none;stroke-opacity:1"
           id="path13226"
           inkscape:connector-curvature="0" />
        <path
           d="m 288.09581,265.33901 -0.35923,-0.28063 -0.4039,-0.13154 -0.44828,-0.004 -0.44941,0.0816 -0.37708,0.26373 -0.32442,0.31755 -0.13343,0.40458 -0.0913,0.44764 0.0795,0.44909 0.21866,0.41824 0.31598,0.32297 0.36064,0.17388 0.45769,0.1 0.43887,-0.0924 0.40728,-0.12467 0.32442,-0.31755 0.28229,-0.36062 0.0913,-0.44764 0.006,-0.44837 -0.13327,-0.41751 -0.26219,-0.35455 z"
           style="fill:#1e1e00;fill-opacity:1;fill-rule:evenodd;stroke:none"
           id="path13228"
           inkscape:connector-curvature="0" />
        <path
           d="m 286.72926,262.92521 -0.0485,6.91802 0.0421,0.0431 0.54421,0.0153 0.0541,-0.0529 -0.006,-6.8651 -0.009,-0.0962 -0.53367,-0.005 -0.0433,0.0423 z"
           style="fill:none;stroke:#ff0000;stroke-width:0.06038;stroke-linecap:round;stroke-linejoin:round;stroke-miterlimit:10;stroke-dasharray:none;stroke-opacity:1"
           id="path13230"
           inkscape:connector-curvature="0" />
        <path
           d="m 286.72926,262.92521 -0.0485,6.91802 0.0421,0.0431 0.54421,0.0153 0.0541,-0.0529 -0.006,-6.8651 -0.009,-0.0962 -0.53367,-0.005 -0.0433,0.0423 z"
           style="fill:#ff0000;fill-opacity:1;fill-rule:evenodd;stroke:none"
           id="path13232"
           inkscape:connector-curvature="0" />
        <path
           d="m 290.47652,266.12788 -6.86283,-0.0688 -0.0541,0.0529 0.004,0.54454 6.86311,0.0474 0.0433,-0.0423 0.0492,-0.49071 -0.0421,-0.0431 z"
           style="fill:none;stroke:#ff0000;stroke-width:0.06038;stroke-linecap:round;stroke-linejoin:round;stroke-miterlimit:10;stroke-dasharray:none;stroke-opacity:1"
           id="path13234"
           inkscape:connector-curvature="0" />
        <path
           d="m 290.47652,266.12788 -6.86283,-0.0688 -0.0541,0.0529 0.004,0.54454 6.86311,0.0474 0.0433,-0.0423 0.0492,-0.49071 -0.0421,-0.0431 z"
           style="fill:#ff0000;fill-opacity:1;fill-rule:evenodd;stroke:none"
           id="path13236"
           inkscape:connector-curvature="0" />
        <path
           d="m 296.15226,257.45314 -0.93854,-0.87275 -1.03586,-0.77748 -1.0697,-0.63898 -1.11297,-0.59663 -1.22195,-0.42673 -1.22335,-0.31998 -1.21508,-0.1384 -1.31212,-0.0645 -1.26058,0.0747 -1.26198,0.1815 -1.23152,0.29919 -1.22323,0.48077 -1.13925,0.58825 -1.08631,0.62072 -1.01399,0.80284 -0.96132,0.85667 -0.81358,0.98603 -0.74955,0.98658 -0.59127,1.12672 -0.57049,1.16959 -0.42162,1.21357 -0.24032,1.22577 -0.18737,1.25825 -0.0274,1.27029 0.0793,1.27118 0.26091,1.26205 0.29363,1.20894 0.48547,1.23192 0.61552,1.08355 0.66931,1.05197 0.78742,0.99959 0.89528,0.91509 0.9926,0.81982 1.02646,0.68131 1.12237,0.69281 1.16816,0.4583 1.21254,0.33056 1.2558,0.28823 1.26886,0.10683 1.27027,7e-5 1.26171,-0.16014 1.21985,-0.22456 1.22211,-0.39537 1.23405,-0.49135 1.08631,-0.62073 1.05499,-0.67437 0.95051,-0.84608 0.91919,-0.89973 0.7928,-1.02892 0.68606,-1.02982 0.55996,-1.18036 0.50701,-1.21285 0.33624,-1.21428 0.19818,-1.26884 0.10199,-1.25897 0.0166,-1.2597 -0.16471,-1.27191 -0.29335,-1.23029 -0.38955,-1.22043 -0.57226,-1.12589 -0.62606,-1.09431 -0.75469,-1.0527 -0.84149,-0.94666 z"
           style="fill:none;stroke:#0000ff;stroke-width:0.06038;stroke-linecap:round;stroke-linejoin:round;stroke-miterlimit:10;stroke-dasharray:none;stroke-opacity:1"
           id="path13238"
           inkscape:connector-curvature="0" />
        <path
           d="m 296.15226,257.45314 -0.93854,-0.87275 -1.03586,-0.77748 -1.0697,-0.63898 -1.11297,-0.59663 -1.22195,-0.42673 -1.22335,-0.31998 -1.21508,-0.1384 -1.31212,-0.0645 -1.26058,0.0747 -1.26198,0.1815 -1.23152,0.29919 -1.22323,0.48077 -1.13925,0.58825 -1.08631,0.62072 -1.01399,0.80284 -0.96132,0.85667 -0.81358,0.98603 -0.74955,0.98658 -0.59127,1.12672 -0.57049,1.16959 -0.42162,1.21357 -0.24032,1.22577 -0.18737,1.25825 -0.0274,1.27029 0.0793,1.27118 0.26091,1.26205 0.29363,1.20894 0.48547,1.23192 0.61552,1.08355 0.66931,1.05197 0.78742,0.99959 0.89528,0.91509 0.9926,0.81982 1.02646,0.68131 1.12237,0.69281 1.16816,0.4583 1.21254,0.33056 1.2558,0.28823 1.26886,0.10683 1.27027,7e-5 1.26171,-0.16014 1.21985,-0.22456 1.22211,-0.39537 1.23405,-0.49135 1.08631,-0.62073 1.05499,-0.67437 0.95051,-0.84608 0.91919,-0.89973 0.7928,-1.02892 0.68606,-1.02982 0.55996,-1.18036 0.50701,-1.21285 0.33624,-1.21428 0.19818,-1.26884 0.10199,-1.25897 0.0166,-1.2597 -0.16471,-1.27191 -0.29335,-1.23029 -0.38955,-1.22043 -0.57226,-1.12589 -0.62606,-1.09431 -0.75469,-1.0527 -0.84149,-0.94666 z"
           style="fill:#c62a0f;fill-opacity:1;fill-rule:evenodd;stroke:none"
           id="path13240"
           inkscape:connector-curvature="0" />
      </g>
    </g>
  </g>
</svg>
