<?xml version="1.0" encoding="UTF-8" standalone="no"?>
<!-- Created with Inkscape (http://www.inkscape.org/) -->

<svg
   xmlns:dc="http://purl.org/dc/elements/1.1/"
   xmlns:cc="http://creativecommons.org/ns#"
   xmlns:rdf="http://www.w3.org/1999/02/22-rdf-syntax-ns#"
   xmlns:svg="http://www.w3.org/2000/svg"
   xmlns="http://www.w3.org/2000/svg"
   xmlns:sodipodi="http://sodipodi.sourceforge.net/DTD/sodipodi-0.dtd"
   xmlns:inkscape="http://www.inkscape.org/namespaces/inkscape"
   width="64"
   height="63.999996"
   viewBox="0 0 63.999996 63.999998"
   id="svg24170"
   version="1.1"
   inkscape:version="0.91 r13725"
   sodipodi:docname="parada-actual.svg">
  <defs
     id="defs24172">
    <clipPath
       id="clipPath13218"
       clipPathUnits="userSpaceOnUse">
      <path
         style="clip-rule:evenodd"
         inkscape:connector-curvature="0"
         id="path13220"
         d="m 12.00029,12.03594 0,820.21965 952.02301,0 0,-820.21965 -952.02301,0 z" />
    </clipPath>
  </defs>
  <sodipodi:namedview
     id="base"
     pagecolor="#ffffff"
     bordercolor="#666666"
     borderopacity="1.0"
     inkscape:pageopacity="0.0"
     inkscape:pageshadow="2"
     inkscape:zoom="2.8"
     inkscape:cx="-14.507654"
     inkscape:cy="-56.43855"
     inkscape:document-units="px"
     inkscape:current-layer="layer1"
     showgrid="false"
     inkscape:window-width="2560"
     inkscape:window-height="1334"
     inkscape:window-x="0"
     inkscape:window-y="27"
     inkscape:window-maximized="1"
     fit-margin-top="0"
     fit-margin-left="0"
     fit-margin-right="0"
     fit-margin-bottom="0"
     units="px" />
  <metadata
     id="metadata24175">
    <rdf:RDF>
      <cc:Work
         rdf:about="">
        <dc:format>image/svg+xml</dc:format>
        <dc:type
           rdf:resource="http://purl.org/dc/dcmitype/StillImage" />
        <dc:title></dc:title>
      </cc:Work>
    </rdf:RDF>
  </metadata>
  <g
     inkscape:label="Layer 1"
     inkscape:groupmode="layer"
     id="layer1"
     transform="translate(-45.568623,-1.9569769)">
    <g
       transform="matrix(2.4731145,0,0,-2.4680873,-3318.336,718.08929)"
       id="g23224">
      <path
         inkscape:connector-curvature="0"
         id="path13138"
         style="fill:#000000;fill-opacity:1;fill-rule:evenodd;stroke:none"
         d="m 1382.3863,268.16432 -0.9509,-0.88452 -1.0383,-0.79897 -1.0942,-0.63748 -1.1707,-0.56264 -1.1932,-0.47644 -1.282,-0.28287 -1.2722,-0.18556 -1.284,-0.11005 -1.2752,0.0737 -1.2776,0.2681 -1.2455,0.30083 -1.2359,0.39815 -1.1517,0.59344 -1.0554,0.67002 -1.0674,0.76712 -0.9177,0.89825 -0.8859,0.95258 -0.7472,1.09441 -0.6498,1.08457 -0.5101,1.13998 -0.4356,1.23795 -0.285,1.28267 -0.1012,1.2737 -0.07,1.32803 0.082,1.28633 0.2126,1.22282 0.396,1.23546 0.4504,1.20359 0.5807,1.14008 0.7215,1.10908 0.7982,1.01263 0.9072,0.92729 0.9629,0.78741 1.0822,0.73459 1.1377,0.61632 1.1826,0.46553 1.2263,0.42275 1.2283,0.24993 1.3266,0.1537 1.3289,-0.0407 1.2326,-0.11731 1.2776,-0.2681 1.2467,-0.40885 1.1505,-0.48542 1.1408,-0.58274 1.0674,-0.76713 1.014,-0.82167 0.875,-0.94188 0.8432,-0.99622 0.6498,-1.08457 0.6074,-1.14982 0.4674,-1.18362 0.3383,-1.22812 0.2423,-1.3263 0.1012,-1.2737 -0.072,-1.27542 -0.1686,-1.2872 -0.255,-1.28806 -0.4397,-1.19269 -0.4943,-1.13922 -0.6669,-1.16254 -0.7334,-1.01198 -0.8529,-0.95915 z" />
      <path
         inkscape:connector-curvature="0"
         id="path13140"
         style="fill:#ffffff;fill-opacity:1;fill-rule:evenodd;stroke:none"
         d="m 1378.6938,271.77871 -0.7695,-0.69906 -0.8144,-0.54827 -0.8699,-0.43 -0.9574,-0.32284 -0.9585,-0.23643 -1.0031,-0.10725 -0.9618,0.0444 -1.0064,0.17359 -0.9648,0.30363 -0.8687,0.40182 -0.8806,0.49892 -0.7309,0.63005 -0.7429,0.72716 -0.5711,0.81529 -0.5069,0.85915 -0.367,0.91455 -0.238,0.95906 -0.1089,1.00356 0.043,0.96186 0.064,1.00528 0.3236,0.96467 0.3457,0.92168 0.4866,0.86907 0.5957,0.78375 0.6724,0.68728 0.8132,0.65629 0.8154,0.46186 0.9672,0.42016 0.9038,0.2899 1.0141,0.0966 0.9498,0.0527 1.0161,-0.0763 0.9637,-0.21722 0.9114,-0.35818 0.9124,-0.44459 0.7953,-0.5862 0.7856,-0.68352 0.5922,-0.77187 0.5711,-0.81529 0.367,-0.91456 0.3351,-0.94728 0.1846,-1.01361 0.065,-0.96078 -0.085,-1.0055 -0.1622,-0.90904 -0.3127,-0.97536 -0.443,-0.91185 -0.541,-0.83721 -0.6287,-0.73006 z" />
    </g>
  </g>
</svg>
