<?xml version="1.0" encoding="UTF-8" standalone="no"?>
<!-- Created with Inkscape (http://www.inkscape.org/) -->

<svg
   xmlns:dc="http://purl.org/dc/elements/1.1/"
   xmlns:cc="http://creativecommons.org/ns#"
   xmlns:rdf="http://www.w3.org/1999/02/22-rdf-syntax-ns#"
   xmlns:svg="http://www.w3.org/2000/svg"
   xmlns="http://www.w3.org/2000/svg"
   xmlns:sodipodi="http://sodipodi.sourceforge.net/DTD/sodipodi-0.dtd"
   xmlns:inkscape="http://www.inkscape.org/namespaces/inkscape"
   width="64"
   height="64"
   id="svg21844"
   sodipodi:version="0.32"
   inkscape:version="0.47 r22583"
   sodipodi:docname="R6_barcelona.svg"
   inkscape:output_extension="org.inkscape.output.svg.inkscape"
   version="1.0">
  <defs
     id="defs21846">
    <inkscape:perspective
       sodipodi:type="inkscape:persp3d"
       inkscape:vp_x="0 : 32 : 1"
       inkscape:vp_y="0 : 1000 : 0"
       inkscape:vp_z="64 : 32 : 1"
       inkscape:persp3d-origin="32 : 21.333333 : 1"
       id="perspective21852" />
  </defs>
  <sodipodi:namedview
     id="base"
     pagecolor="#ffffff"
     bordercolor="#666666"
     borderopacity="1.0"
     inkscape:pageopacity="0.0"
     inkscape:pageshadow="2"
     inkscape:zoom="8.703125"
     inkscape:cx="12.983842"
     inkscape:cy="32"
     inkscape:current-layer="layer1"
     showgrid="true"
     inkscape:document-units="px"
     inkscape:grid-bbox="true"
     inkscape:window-width="1059"
     inkscape:window-height="757"
     inkscape:window-x="40"
     inkscape:window-y="40"
     showguides="true"
     inkscape:guide-bbox="true"
     inkscape:window-maximized="0" />
  <metadata
     id="metadata21849">
    <rdf:RDF>
      <cc:Work
         rdf:about="">
        <dc:format>image/svg+xml</dc:format>
        <dc:type
           rdf:resource="http://purl.org/dc/dcmitype/StillImage" />
      </cc:Work>
    </rdf:RDF>
  </metadata>
  <g
     id="layer1"
     inkscape:label="Layer 1"
     inkscape:groupmode="layer"
     transform="translate(-0.7873347,136.12828)">
    <rect
       style="opacity:1;fill:#9ea1a6;fill-opacity:1;fill-rule:nonzero;stroke:none;stroke-width:7.08599996999999960;stroke-linecap:round;stroke-linejoin:round;stroke-miterlimit:4;stroke-dasharray:7.08600000000000030, 14.17200000000000100;stroke-dashoffset:0;stroke-opacity:1"
       id="rect21854"
       width="64"
       height="64"
       x="0.78733474"
       y="-136.12828" />
    <path
       style="font-size:47.52000046px;font-style:normal;font-variant:normal;font-weight:bold;font-stretch:normal;text-align:start;line-height:125%;writing-mode:lr-tb;text-anchor:start;fill:#ffffff;fill-opacity:1;stroke:none;stroke-width:1px;stroke-linecap:butt;stroke-linejoin:miter;stroke-opacity:1;font-family:Helvetica Neue;-inkscape-font-specification:Helvetica Neue Bold"
       d="M 12.978952,-105.34933 L 12.978952,-114.90085 L 21.152392,-114.90085 C 22.863092,-114.90082 24.14613,-114.52066 25.001512,-113.76037 C 25.856849,-113.0317 26.284528,-111.8437 26.284552,-110.19637 C 26.284528,-108.48562 25.856849,-107.2501 25.001512,-106.48981 C 24.14613,-105.72947 22.863092,-105.34931 21.152392,-105.34933 L 12.978952,-105.34933 M 5.5183121,-120.69829 L 5.5183121,-86.769005 L 12.978952,-86.769005 L 12.978952,-100.02708 L 20.439592,-100.02708 C 22.308692,-100.02707 23.655091,-99.615232 24.478792,-98.791565 C 25.302449,-97.967874 25.841009,-96.668995 26.094472,-94.894925 C 26.284528,-93.532678 26.427088,-92.10708 26.522152,-90.618125 C 26.617168,-89.129162 26.870608,-87.846124 27.282472,-86.769005 L 34.743112,-86.769005 C 34.3946,-87.244204 34.125321,-87.814444 33.935272,-88.479725 C 33.776841,-89.176682 33.650121,-89.905322 33.555112,-90.665645 C 33.491721,-91.42596 33.444201,-92.170439 33.412552,-92.899085 C 33.380841,-93.627718 33.349161,-94.261317 33.317512,-94.799885 C 33.254121,-95.655236 33.127402,-96.510595 32.937352,-97.365965 C 32.778922,-98.221313 32.509642,-98.997473 32.129512,-99.694445 C 31.749323,-100.42307 31.258283,-101.04083 30.656392,-101.54772 C 30.054445,-102.08627 29.294125,-102.48227 28.375432,-102.73572 L 28.375432,-102.83076 C 30.276204,-103.59107 31.638443,-104.69987 32.462152,-106.15717 C 33.317481,-107.61442 33.745161,-109.34098 33.745192,-111.33685 C 33.745161,-112.6357 33.507561,-113.83954 33.032392,-114.94837 C 32.588842,-116.08882 31.923563,-117.08673 31.036552,-117.94213 C 30.181164,-118.79745 29.135725,-119.46273 27.900232,-119.93797 C 26.696368,-120.44481 25.334129,-120.69825 23.813512,-120.69829 L 5.5183121,-120.69829 M 50.077966,-104.01876 C 50.933312,-104.01875 51.677791,-103.82867 52.311406,-103.44852 C 52.97667,-103.10003 53.515229,-102.62483 53.927086,-102.02292 C 54.338909,-101.45267 54.639868,-100.78739 54.829966,-100.02708 C 55.051708,-99.298432 55.162588,-98.538113 55.162606,-97.746125 C 55.162588,-96.985795 55.051708,-96.241315 54.829966,-95.512685 C 54.608188,-94.784037 54.275549,-94.134598 53.832046,-93.564365 C 53.38851,-92.994119 52.84995,-92.534759 52.216366,-92.186285 C 51.614431,-91.8378 50.901632,-91.66356 50.077966,-91.663565 C 49.222594,-91.66356 48.462274,-91.8378 47.797006,-92.186285 C 47.131716,-92.534759 46.561476,-92.994119 46.086286,-93.564365 C 45.642757,-94.166277 45.294278,-94.831557 45.040846,-95.560205 C 44.819078,-96.320515 44.708198,-97.080835 44.708206,-97.841165 C 44.708198,-98.664833 44.819078,-99.440992 45.040846,-100.16964 C 45.262598,-100.92995 45.595237,-101.59523 46.038766,-102.16548 C 46.482276,-102.73571 47.036676,-103.17923 47.701966,-103.49604 C 48.398914,-103.84451 49.190914,-104.01875 50.077966,-104.01876 M 54.925006,-111.47941 L 61.340207,-111.47941 C 61.150102,-112.96834 60.754102,-114.28306 60.152207,-115.42357 C 59.550263,-116.56402 58.774104,-117.51441 57.823726,-118.27477 C 56.873306,-119.06673 55.780347,-119.66865 54.544846,-120.08053 C 53.30931,-120.49233 51.978751,-120.69825 50.553166,-120.69829 C 48.177155,-120.69825 46.165477,-120.17553 44.518126,-119.13013 C 42.87076,-118.08465 41.524361,-116.72242 40.478926,-115.04341 C 39.433483,-113.39602 38.673164,-111.54274 38.197966,-109.48357 C 37.722765,-107.42434 37.485165,-105.36515 37.485166,-103.30596 C 37.485165,-101.18339 37.675245,-99.092513 38.055406,-97.033325 C 38.435564,-95.005797 39.116684,-93.184198 40.098766,-91.568525 C 41.080842,-89.952842 42.39556,-88.638123 44.042926,-87.624365 C 45.690277,-86.642285 47.765315,-86.151245 50.268046,-86.151245 C 52.010431,-86.151245 53.594429,-86.452205 55.020046,-87.054125 C 56.445627,-87.687724 57.665305,-88.543083 58.679086,-89.620205 C 59.724503,-90.729001 60.516502,-92.01204 61.055087,-93.469325 C 61.625301,-94.958277 61.910421,-96.558115 61.910447,-98.268845 C 61.910421,-99.599392 61.704501,-100.91411 61.292687,-102.213 C 60.880822,-103.51187 60.231383,-104.66819 59.344366,-105.68197 C 58.393945,-106.72739 57.237626,-107.55106 55.875406,-108.15301 C 54.513148,-108.78658 53.11923,-109.10338 51.693646,-109.10341 C 50.077953,-109.10338 48.652354,-108.81826 47.416846,-108.24805 C 46.181317,-107.67778 45.104198,-106.72739 44.185486,-105.39685 L 44.090446,-105.49189 C 44.122119,-106.41059 44.248839,-107.45602 44.470606,-108.62821 C 44.692358,-109.80034 45.040838,-110.8933 45.516046,-111.90709 C 45.991237,-112.9525 46.624836,-113.8237 47.416846,-114.52069 C 48.240515,-115.2493 49.254274,-115.61362 50.458126,-115.61365 C 51.630271,-115.61362 52.61235,-115.20178 53.404366,-114.37813 C 54.196349,-113.55442 54.703228,-112.58818 54.925006,-111.47941"
       id="text22626" />
  </g>
</svg>
