<?xml version="1.0" encoding="UTF-8" standalone="no"?>
<!-- Created with Inkscape (http://www.inkscape.org/) -->

<svg
   xmlns:dc="http://purl.org/dc/elements/1.1/"
   xmlns:cc="http://creativecommons.org/ns#"
   xmlns:rdf="http://www.w3.org/1999/02/22-rdf-syntax-ns#"
   xmlns:svg="http://www.w3.org/2000/svg"
   xmlns="http://www.w3.org/2000/svg"
   xmlns:sodipodi="http://sodipodi.sourceforge.net/DTD/sodipodi-0.dtd"
   xmlns:inkscape="http://www.inkscape.org/namespaces/inkscape"
   width="64"
   height="64"
   id="svg21844"
   sodipodi:version="0.32"
   inkscape:version="0.47 r22583"
   sodipodi:docname="S33_barcelona.svg"
   inkscape:output_extension="org.inkscape.output.svg.inkscape"
   version="1.0">
  <defs
     id="defs21846">
    <inkscape:perspective
       sodipodi:type="inkscape:persp3d"
       inkscape:vp_x="0 : 32 : 1"
       inkscape:vp_y="0 : 1000 : 0"
       inkscape:vp_z="64 : 32 : 1"
       inkscape:persp3d-origin="32 : 21.333333 : 1"
       id="perspective21852" />
  </defs>
  <sodipodi:namedview
     id="base"
     pagecolor="#ffffff"
     bordercolor="#666666"
     borderopacity="1.0"
     inkscape:pageopacity="0.0"
     inkscape:pageshadow="2"
     inkscape:zoom="8.4375"
     inkscape:cx="30.981112"
     inkscape:cy="32.000001"
     inkscape:current-layer="layer1"
     showgrid="true"
     inkscape:document-units="px"
     inkscape:grid-bbox="true"
     inkscape:window-width="952"
     inkscape:window-height="1019"
     inkscape:window-x="0"
     inkscape:window-y="0"
     showguides="true"
     inkscape:guide-bbox="true"
     inkscape:window-maximized="0">
    <sodipodi:guide
       orientation="0,1"
       position="2.962963,18.014815"
       id="guide2382" />
    <sodipodi:guide
       orientation="0,1"
       position="3.3185185,47.051852"
       id="guide2384" />
  </sodipodi:namedview>
  <metadata
     id="metadata21849">
    <rdf:RDF>
      <cc:Work
         rdf:about="">
        <dc:format>image/svg+xml</dc:format>
        <dc:type
           rdf:resource="http://purl.org/dc/dcmitype/StillImage" />
      </cc:Work>
    </rdf:RDF>
  </metadata>
  <g
     id="layer1"
     inkscape:label="Layer 1"
     inkscape:groupmode="layer"
     transform="translate(-0.7873347,136.12828)">
    <rect
       style="opacity:1;fill:#e659b4;fill-opacity:1;fill-rule:nonzero;stroke:none;stroke-width:7.08599996999999960;stroke-linecap:round;stroke-linejoin:round;stroke-miterlimit:4;stroke-dasharray:7.08600000000000030, 14.17200000000000100;stroke-dashoffset:0;stroke-opacity:1"
       id="rect21854"
       width="64"
       height="64"
       x="0.78733474"
       y="-136.12828" />
    <path
       transform="scale(0.9865273,1.0136567)"
       style="font-size:36.86238098px;font-style:normal;font-variant:normal;font-weight:bold;font-stretch:normal;text-align:start;line-height:125%;writing-mode:lr-tb;text-anchor:start;fill:#ffffff;fill-opacity:1;stroke:none;stroke-width:1px;stroke-linecap:butt;stroke-linejoin:miter;stroke-opacity:1;font-family:Helvetica Neue;-inkscape-font-specification:Helvetica Neue Bold"
       d="M 6.8586943,-98.73247 L 1.2556124,-98.73247 C 1.2310366,-97.110519 1.5259354,-95.709749 2.1403096,-94.530159 C 2.7546802,-93.350559 3.5779392,-92.379851 4.6100891,-91.618031 C 5.6668054,-90.856207 6.8709753,-90.303272 8.2226024,-89.959224 C 9.5987887,-89.5906 11.011845,-89.406289 12.461776,-89.406288 C 14.255732,-89.406289 15.828525,-89.615175 17.180161,-90.032949 C 18.556338,-90.450722 19.699071,-91.028232 20.608362,-91.76548 C 21.542188,-92.5273 22.242573,-93.424284 22.709518,-94.456434 C 23.176419,-95.488575 23.40988,-96.606733 23.409903,-97.810911 C 23.40988,-99.285397 23.090407,-100.48957 22.451481,-101.42342 C 21.837087,-102.38183 21.09984,-103.14366 20.239739,-103.70889 C 19.379597,-104.2741 18.507189,-104.67959 17.62251,-104.92535 C 16.762371,-105.19566 16.086561,-105.37997 15.595079,-105.47829 C 13.948545,-105.89604 12.609214,-106.24009 11.577079,-106.51043 C 10.569497,-106.78074 9.770813,-107.05106 9.1810243,-107.32141 C 8.6157929,-107.59171 8.234882,-107.88661 8.0382905,-108.2061 C 7.8416837,-108.52556 7.7433841,-108.94333 7.7433915,-109.45942 C 7.7433841,-110.02463 7.8662586,-110.49155 8.1120153,-110.86019 C 8.3577565,-111.2288 8.6649427,-111.53598 9.0335748,-111.78175 C 9.4267645,-112.02748 9.8568252,-112.1995 10.323758,-112.29783 C 10.790671,-112.3961 11.257594,-112.44525 11.724529,-112.44528 C 12.437189,-112.44525 13.088424,-112.38382 13.678235,-112.26096 C 14.292594,-112.13807 14.833242,-111.92918 15.30018,-111.6343 C 15.767088,-111.33938 16.135711,-110.9339 16.406051,-110.41785 C 16.700934,-109.90175 16.872958,-109.25052 16.922124,-108.46414 L 22.525206,-108.46414 C 22.525184,-109.98776 22.230285,-111.27795 21.640509,-112.33469 C 21.075265,-113.41596 20.301156,-114.30066 19.318179,-114.98878 C 18.335164,-115.67685 17.204719,-116.16835 15.92684,-116.46328 C 14.673505,-116.78272 13.358748,-116.94246 11.982565,-116.94249 C 10.802959,-116.94246 9.6233636,-116.78272 8.4437767,-116.46328 C 7.2641736,-116.14378 6.2074531,-115.65228 5.2736119,-114.98878 C 4.339761,-114.32523 3.5779392,-113.48969 2.9881443,-112.48214 C 2.4229191,-111.49912 2.1403078,-110.33181 2.1403096,-108.98021 C 2.1403078,-107.77602 2.3614818,-106.74388 2.8038324,-105.88377 C 3.270753,-105.04821 3.872838,-104.34783 4.6100891,-103.78262 C 5.3473317,-103.21738 6.1828782,-102.75046 7.116731,-102.38185 C 8.0505703,-102.03779 9.0089912,-101.74289 9.9919967,-101.49715 C 10.950408,-101.22681 11.896542,-100.98106 12.8304,-100.7599 C 13.764234,-100.53872 14.59978,-100.28068 15.337042,-99.985791 C 16.074274,-99.690883 16.664071,-99.322259 17.106436,-98.87992 C 17.573343,-98.437563 17.806804,-97.860053 17.806821,-97.147388 C 17.806804,-96.483859 17.63478,-95.930924 17.290748,-95.488581 C 16.946683,-95.070802 16.516622,-94.739041 16.000565,-94.493297 C 15.484476,-94.247543 14.931541,-94.075519 14.341758,-93.977223 C 13.751946,-93.903495 13.199011,-93.866632 12.682951,-93.866636 C 11.921116,-93.866632 11.18387,-93.952644 10.471208,-94.124673 C 9.7585256,-94.321268 9.1318657,-94.603879 8.5912262,-94.972508 C 8.0751452,-95.365701 7.657372,-95.869486 7.3379053,-96.483865 C 7.0184247,-97.098231 6.8586878,-97.847765 6.8586943,-98.73247 M 32.678488,-105.3677 L 32.678488,-101.68146 C 33.317427,-101.68145 33.98095,-101.65687 34.669057,-101.60774 C 35.381719,-101.58315 36.032953,-101.44799 36.622763,-101.20225 C 37.212548,-100.98106 37.691759,-100.61244 38.060396,-100.09638 C 38.453581,-99.580296 38.65018,-98.830761 38.650194,-97.847773 C 38.65018,-96.594446 38.244694,-95.599162 37.433736,-94.86192 C 36.622751,-94.149244 35.627468,-93.792908 34.447883,-93.792911 C 33.686051,-93.792908 33.022529,-93.928069 32.457314,-94.198398 C 31.916658,-94.468717 31.462023,-94.825053 31.093406,-95.267407 C 30.724776,-95.734324 30.442164,-96.274972 30.245571,-96.889351 C 30.048966,-97.528292 29.938379,-98.191814 29.91381,-98.87992 L 24.937388,-98.87992 C 24.912813,-97.380842 25.121699,-96.053798 25.564049,-94.898783 C 26.030971,-93.743758 26.682205,-92.760762 27.517755,-91.949792 C 28.353298,-91.163394 29.360869,-90.561309 30.54047,-90.143536 C 31.744634,-89.725762 33.071678,-89.516876 34.521607,-89.516875 C 35.774917,-89.516876 36.979087,-89.701187 38.134121,-90.069811 C 39.289127,-90.438434 40.308985,-90.979082 41.193698,-91.691756 C 42.078378,-92.404426 42.778762,-93.289122 43.294854,-94.345847 C 43.835483,-95.402563 44.105807,-96.606733 44.105827,-97.95836 C 44.105807,-99.432846 43.700321,-100.69845 42.889368,-101.75519 C 42.078378,-102.81189 40.96022,-103.49999 39.534891,-103.81948 L 39.534891,-103.8932 C 40.739046,-104.23724 41.63603,-104.88847 42.225845,-105.84691 C 42.8402,-106.80532 43.147386,-107.91119 43.147405,-109.16452 C 43.147386,-110.31953 42.889349,-111.33938 42.373295,-112.2241 C 41.857204,-113.10878 41.181394,-113.85831 40.345864,-114.47271 C 39.534876,-115.08706 38.613317,-115.54169 37.581185,-115.83662 C 36.549026,-116.15606 35.516881,-116.3158 34.484745,-116.31583 C 33.15769,-116.3158 31.953521,-116.09463 30.872232,-115.6523 C 29.79093,-115.2345 28.857084,-114.63242 28.070691,-113.84605 C 27.308865,-113.05963 26.70678,-112.11349 26.264434,-111.00764 C 25.846659,-109.92633 25.613197,-108.72216 25.564049,-107.39513 L 30.54047,-107.39513 C 30.515889,-108.72216 30.835363,-109.81574 31.498892,-110.67588 C 32.186982,-111.56056 33.194553,-112.00291 34.521607,-112.00293 C 35.480018,-112.00291 36.327852,-111.70801 37.065112,-111.11823 C 37.802346,-110.52841 38.170969,-109.68058 38.170983,-108.57473 C 38.170969,-107.83746 37.986658,-107.24766 37.618047,-106.80533 C 37.273986,-106.36297 36.81935,-106.01892 36.254139,-105.77319 C 35.71348,-105.552 35.123682,-105.41683 34.484745,-105.3677 C 33.845788,-105.31853 33.243703,-105.31853 32.678488,-105.3677 M 53.197589,-105.3677 L 53.197589,-101.68146 C 53.836527,-101.68145 54.50005,-101.65687 55.188157,-101.60774 C 55.900819,-101.58315 56.552054,-101.44799 57.141863,-101.20225 C 57.731649,-100.98106 58.210859,-100.61244 58.579496,-100.09638 C 58.972681,-99.580296 59.16928,-98.830761 59.169294,-97.847773 C 59.16928,-96.594446 58.763794,-95.599162 57.952836,-94.86192 C 57.141851,-94.149244 56.146568,-93.792908 54.966983,-93.792911 C 54.205151,-93.792908 53.541629,-93.928069 52.976414,-94.198398 C 52.435758,-94.468717 51.981123,-94.825053 51.612506,-95.267407 C 51.243876,-95.734324 50.961265,-96.274972 50.764671,-96.889351 C 50.568066,-97.528292 50.457479,-98.191814 50.43291,-98.87992 L 45.456489,-98.87992 C 45.431913,-97.380842 45.6408,-96.053798 46.083149,-94.898783 C 46.550071,-93.743758 47.201306,-92.760762 48.036855,-91.949792 C 48.872398,-91.163394 49.879969,-90.561309 51.059571,-90.143536 C 52.263734,-89.725762 53.590779,-89.516876 55.040708,-89.516875 C 56.294017,-89.516876 57.498187,-89.701187 58.653221,-90.069811 C 59.808227,-90.438434 60.828085,-90.979082 61.712799,-91.691756 C 62.597478,-92.404426 63.297862,-93.289122 63.813954,-94.345847 C 64.354583,-95.402563 64.624907,-96.606733 64.624927,-97.95836 C 64.624907,-99.432846 64.219421,-100.69845 63.408468,-101.75519 C 62.597478,-102.81189 61.47932,-103.49999 60.053991,-103.81948 L 60.053991,-103.8932 C 61.258146,-104.23724 62.15513,-104.88847 62.744945,-105.84691 C 63.3593,-106.80532 63.666486,-107.91119 63.666505,-109.16452 C 63.666486,-110.31953 63.40845,-111.33938 62.892395,-112.2241 C 62.376304,-113.10878 61.700494,-113.85831 60.864964,-114.47271 C 60.053976,-115.08706 59.132418,-115.54169 58.100285,-115.83662 C 57.068126,-116.15606 56.035981,-116.3158 55.003845,-116.31583 C 53.676791,-116.3158 52.472621,-116.09463 51.391332,-115.6523 C 50.31003,-115.2345 49.376184,-114.63242 48.589791,-113.84605 C 47.827965,-113.05963 47.22588,-112.11349 46.783534,-111.00764 C 46.365759,-109.92633 46.132298,-108.72216 46.083149,-107.39513 L 51.059571,-107.39513 C 51.034989,-108.72216 51.354463,-109.81574 52.017992,-110.67588 C 52.706082,-111.56056 53.713653,-112.00291 55.040708,-112.00293 C 55.999118,-112.00291 56.846952,-111.70801 57.584212,-111.11823 C 58.321446,-110.52841 58.690069,-109.68058 58.690083,-108.57473 C 58.690069,-107.83746 58.505758,-107.24766 58.137148,-106.80533 C 57.793086,-106.36297 57.33845,-106.01892 56.77324,-105.77319 C 56.23258,-105.552 55.642782,-105.41683 55.003845,-105.3677 C 54.364888,-105.31853 53.762803,-105.31853 53.197589,-105.3677"
       id="text22626" />
  </g>
</svg>
