<?xml version="1.0" encoding="UTF-8" standalone="no"?>
<!-- Created with Inkscape (http://www.inkscape.org/) -->
<svg
   xmlns:dc="http://purl.org/dc/elements/1.1/"
   xmlns:cc="http://creativecommons.org/ns#"
   xmlns:rdf="http://www.w3.org/1999/02/22-rdf-syntax-ns#"
   xmlns:svg="http://www.w3.org/2000/svg"
   xmlns="http://www.w3.org/2000/svg"
   xmlns:sodipodi="http://sodipodi.sourceforge.net/DTD/sodipodi-0.dtd"
   xmlns:inkscape="http://www.inkscape.org/namespaces/inkscape"
   width="64"
   height="64"
   id="svg21844"
   sodipodi:version="0.32"
   inkscape:version="0.46"
   sodipodi:docname="T6.svg"
   inkscape:output_extension="org.inkscape.output.svg.inkscape"
   version="1.0">
  <defs
     id="defs21846">
    <inkscape:perspective
       sodipodi:type="inkscape:persp3d"
       inkscape:vp_x="0 : 32 : 1"
       inkscape:vp_y="0 : 1000 : 0"
       inkscape:vp_z="64 : 32 : 1"
       inkscape:persp3d-origin="32 : 21.333333 : 1"
       id="perspective21852" />
  </defs>
  <sodipodi:namedview
     id="base"
     pagecolor="#ffffff"
     bordercolor="#666666"
     borderopacity="1.0"
     inkscape:pageopacity="0.0"
     inkscape:pageshadow="2"
     inkscape:zoom="8.703125"
     inkscape:cx="32"
     inkscape:cy="32.000001"
     inkscape:current-layer="layer1"
     showgrid="true"
     inkscape:document-units="px"
     inkscape:grid-bbox="true"
     inkscape:window-width="1280"
     inkscape:window-height="752"
     inkscape:window-x="0"
     inkscape:window-y="0"
     showguides="true"
     inkscape:guide-bbox="true" />
  <metadata
     id="metadata21849">
    <rdf:RDF>
      <cc:Work
         rdf:about="">
        <dc:format>image/svg+xml</dc:format>
        <dc:type
           rdf:resource="http://purl.org/dc/dcmitype/StillImage" />
      </cc:Work>
    </rdf:RDF>
  </metadata>
  <g
     id="layer1"
     inkscape:label="Layer 1"
     inkscape:groupmode="layer"
     transform="translate(-0.7873347,136.12828)">
    <rect
       style="opacity:1;fill:#008d78;fill-opacity:1;fill-rule:nonzero;stroke:none;stroke-width:7.08599996999999959;stroke-linecap:round;stroke-linejoin:round;stroke-miterlimit:4;stroke-dasharray:7.08600000000000030, 14.17200000000000060;stroke-dashoffset:0;stroke-opacity:1"
       id="rect21854"
       width="64"
       height="64"
       x="0.78733474"
       y="-136.12828" />
    <path
       transform="scale(0.9181195,1.0891829)"
       style="font-size:43.62902451px;font-style:normal;font-variant:normal;font-weight:bold;font-stretch:normal;text-align:start;line-height:125%;writing-mode:lr-tb;text-anchor:start;fill:#ffffff;fill-opacity:1;stroke:none;stroke-width:1px;stroke-linecap:butt;stroke-linejoin:miter;stroke-opacity:1;font-family:Helvetica Neue;-inkscape-font-specification:Helvetica Neue Bold"
       d="M 17.47151,-106.32231 L 17.47151,-80.930214 L 24.321267,-80.930214 L 24.321267,-106.32231 L 33.657878,-106.32231 L 33.657878,-112.08134 L 8.1348987,-112.08134 L 8.1348987,-106.32231 L 17.47151,-106.32231"
       id="text2382" />
    <path
       style="font-size:47.52000046px;font-style:normal;font-variant:normal;font-weight:bold;font-stretch:normal;text-align:start;line-height:125%;writing-mode:lr-tb;text-anchor:start;fill:#ffffff;fill-opacity:1;stroke:none;stroke-width:1px;stroke-linecap:butt;stroke-linejoin:miter;stroke-opacity:1;font-family:Helvetica Neue;-inkscape-font-specification:Helvetica Neue Bold"
       d="M 46.508788,-105.51248 C 47.364134,-105.51246 48.108613,-105.32238 48.742228,-104.94224 C 49.407492,-104.59374 49.946051,-104.11854 50.357908,-103.51664 C 50.76973,-102.94638 51.07069,-102.2811 51.260788,-101.5208 C 51.48253,-100.79215 51.593409,-100.03183 51.593428,-99.239838 C 51.593409,-98.479508 51.48253,-97.735029 51.260788,-97.006398 C 51.03901,-96.27775 50.70637,-95.628311 50.262868,-95.058078 C 49.819331,-94.487832 49.280772,-94.028472 48.647188,-93.679998 C 48.045253,-93.331513 47.332454,-93.157273 46.508788,-93.157278 C 45.653415,-93.157273 44.893096,-93.331513 44.227828,-93.679998 C 43.562537,-94.028472 42.992298,-94.487832 42.517108,-95.058078 C 42.073579,-95.659991 41.725099,-96.32527 41.471668,-97.053918 C 41.2499,-97.814229 41.13902,-98.574548 41.139028,-99.334878 C 41.13902,-100.15855 41.2499,-100.93471 41.471668,-101.66336 C 41.693419,-102.42366 42.026059,-103.08894 42.469588,-103.6592 C 42.913098,-104.22942 43.467497,-104.67294 44.132788,-104.98976 C 44.829736,-105.33822 45.621735,-105.51246 46.508788,-105.51248 M 51.355828,-112.97312 L 57.771028,-112.97312 C 57.580924,-114.46205 57.184924,-115.77677 56.583028,-116.91728 C 55.981085,-118.05773 55.204926,-119.00813 54.254548,-119.76848 C 53.304128,-120.56045 52.211169,-121.16237 50.975668,-121.57424 C 49.740131,-121.98604 48.409573,-122.19196 46.983988,-122.192 C 44.607976,-122.19196 42.596298,-121.66925 40.948948,-120.62384 C 39.301582,-119.57837 37.955183,-118.21613 36.909748,-116.53712 C 35.864305,-114.88973 35.103986,-113.03645 34.628788,-110.97728 C 34.153587,-108.91806 33.915987,-106.85886 33.915988,-104.79968 C 33.915987,-102.6771 34.106067,-100.58623 34.486228,-98.527038 C 34.866386,-96.49951 35.547505,-94.677912 36.529588,-93.062238 C 37.511663,-91.446555 38.826382,-90.131836 40.473748,-89.118078 C 42.121099,-88.135998 44.196137,-87.644959 46.698868,-87.644958 C 48.441253,-87.644959 50.025251,-87.945919 51.450868,-88.547838 C 52.876448,-89.181437 54.096127,-90.036796 55.109908,-91.113918 C 56.155325,-92.222714 56.947324,-93.505753 57.485908,-94.963038 C 58.056123,-96.45199 58.341243,-98.051829 58.341268,-99.762558 C 58.341243,-101.09311 58.135323,-102.40782 57.723508,-103.70672 C 57.311644,-105.00558 56.662204,-106.1619 55.775188,-107.17568 C 54.824766,-108.2211 53.668447,-109.04478 52.306228,-109.64672 C 50.94397,-110.2803 49.550051,-110.5971 48.124468,-110.59712 C 46.508774,-110.5971 45.083176,-110.31198 43.847668,-109.74176 C 42.612138,-109.1715 41.535019,-108.2211 40.616308,-106.89056 L 40.521268,-106.9856 C 40.55294,-107.9043 40.67966,-108.94974 40.901428,-110.12192 C 41.12318,-111.29406 41.471659,-112.38701 41.946868,-113.4008 C 42.422059,-114.44621 43.055658,-115.31741 43.847668,-116.0144 C 44.671336,-116.74301 45.685095,-117.10733 46.888948,-117.10736 C 48.061093,-117.10733 49.043172,-116.69549 49.835188,-115.87184 C 50.62717,-115.04813 51.13405,-114.08189 51.355828,-112.97312"
       id="text22626" />
  </g>
</svg>
