<?xml version="1.0" encoding="UTF-8" standalone="no"?>
<!-- Generator: Adobe Illustrator 17.0.0, SVG Export Plug-In . SVG Version: 6.00 Build 0)  -->

<svg
   xmlns:dc="http://purl.org/dc/elements/1.1/"
   xmlns:cc="http://creativecommons.org/ns#"
   xmlns:rdf="http://www.w3.org/1999/02/22-rdf-syntax-ns#"
   xmlns:svg="http://www.w3.org/2000/svg"
   xmlns="http://www.w3.org/2000/svg"
   xmlns:sodipodi="http://sodipodi.sourceforge.net/DTD/sodipodi-0.dtd"
   xmlns:inkscape="http://www.inkscape.org/namespaces/inkscape"
   version="1.1"
   id="Capa_1"
   x="0px"
   y="0px"
   width="64"
   height="63.997173"
   viewBox="0 0 64 63.997173"
   enable-background="new 0 0 151 70"
   xml:space="preserve"
   inkscape:version="0.91 r13725"
   sodipodi:docname="TMB.svg"><metadata
     id="metadata79"><rdf:RDF><cc:Work
         rdf:about=""><dc:format>image/svg+xml</dc:format><dc:type
           rdf:resource="http://purl.org/dc/dcmitype/StillImage" /><dc:title /></cc:Work></rdf:RDF></metadata><defs
     id="defs77" /><sodipodi:namedview
     pagecolor="#ffffff"
     bordercolor="#666666"
     borderopacity="1"
     objecttolerance="10"
     gridtolerance="10"
     guidetolerance="10"
     inkscape:pageopacity="0"
     inkscape:pageshadow="2"
     inkscape:window-width="1920"
     inkscape:window-height="1007"
     id="namedview75"
     showgrid="false"
     fit-margin-top="0"
     fit-margin-left="0"
     fit-margin-right="0"
     fit-margin-bottom="0"
     inkscape:zoom="12.844317"
     inkscape:cx="18.569936"
     inkscape:cy="31.998587"
     inkscape:window-x="0"
     inkscape:window-y="27"
     inkscape:window-maximized="1"
     inkscape:current-layer="g3" /><g
     id="g3"
     transform="translate(-17.511,6.3571732)"><ellipse
       style="fill:#ffffff"
       id="path3336"
       cx="49.548515"
       cy="25.563557"
       rx="31.726093"
       ry="31.60931" /><path
       d="m 67.345942,23.745342 1.096795,0 c 0.730726,0 1.737064,-0.38727 1.737064,-1.553322 0,-1.188667 -0.846624,-1.575937 -1.737064,-1.575937 l -3.290386,0 0,0.935668 -4.228882,-4.227468 7.609726,0 c 2.811245,0 5.896689,0.68691 5.896689,4.091782 0,1.461452 -0.867825,2.650118 -2.148362,3.290387 1.737064,0.501755 2.811245,2.011263 2.811245,3.861399 0,0.983723 -0.182328,1.782292 -0.503169,2.422561 l -7.243656,-7.24507 z m 1.393609,9.895188 -7.837283,0 0,-13.688744 6.535545,6.534132 -2.285462,0 0,3.748327 3.404871,0 c 0.846625,0 1.554736,-0.204943 1.942007,-0.684084 l 2.903116,2.901703 c -1.166052,0.891853 -2.83386,1.188666 -4.662794,1.188666 m -10.785628,-9.34679 -3.998498,0 0,-3.038802 -0.04664,0 -0.846625,3.038802 -3.174488,0 1.804907,-6.969457 6.261346,0 0,6.969457 z m 0,9.34679 -3.998498,0 0,-7.564497 3.998498,0 0,7.564497 z m -7.472626,0 -3.243745,0 -2.104547,-7.564497 3.1547,0 0.548398,2.125748 0.04523,0 0.548398,-2.125748 3.130673,0 -2.079106,7.564497 z m -6.672645,-12.387006 -0.04523,0 0,3.038803 -3.998499,0 0,-6.969458 6.25852,0 1.80632,6.969458 -3.175902,0 -0.845211,-3.038803 z m -0.04523,12.387006 -3.998499,0 0,-7.564497 3.998499,0 0,7.564497 z m -5.89669,-12.658378 -13.985557,0 0,-3.657869 13.985557,0 0,3.657869 z m -4.866323,12.658378 -4.251497,0 0,-10.877498 4.251497,0 0,10.877498 z M 49.51312,-6.3571732 C 31.838599,-6.3571732 17.511,7.9675988 17.511,25.640707 17.511,43.315228 31.838599,57.64 49.51312,57.64 67.184815,57.64 81.511,43.315228 81.511,25.640707 81.511,7.9675988 67.184815,-6.3571732 49.51312,-6.3571732"
       id="path5"
       inkscape:connector-curvature="0"
       style="fill:#d3202e" /></g></svg>